<?xml version="1.0" encoding="utf-8"?>
<!-- Generator: Adobe Illustrator 16.0.0, SVG Export Plug-In . SVG Version: 6.00 Build 0)  -->
<!DOCTYPE svg PUBLIC "-//W3C//DTD SVG 1.1//EN" "http://www.w3.org/Graphics/SVG/1.1/DTD/svg11.dtd">
<svg version="1.1" xmlns="http://www.w3.org/2000/svg" xmlns:xlink="http://www.w3.org/1999/xlink" x="0px" y="0px" width="1920px"
	 height="1080px" viewBox="0 0 1920 1080" enable-background="new 0 0 1920 1080" xml:space="preserve">
<g id="Calque_1">
	<g>
		<path fill="#E52621" d="M990.102,748.73l16.666-4.988l-0.996-13.925l-16.927-1.81c-1.049-4.784-2.606-9.378-4.619-13.72
			l11.671-12.443l-7.863-11.538l-15.252,6.816c-3.33-3.625-7.06-6.878-11.111-9.699l3.765-16.332l-12.598-6.021l-9.596,13.339
			c-3.903-1.208-7.964-2.054-12.138-2.528l-4.291-15.998l-3.111,0.132l-0.059-0.191l-5.104,0.414l-5.675,0.242l-0.03,0.221
			l-3.108,0.251l-1.581,16.262c-4.098,0.958-8.048,2.289-11.817,3.965l-11.708-11.629l-11.758,7.531l6.259,15.152
			c-3.738,3.309-7.1,7.026-10.022,11.084l-16.091-4.196l-6.377,12.422l13.175,10.063c-1.505,4.615-2.528,9.446-2.997,14.44
			l-16.261,4.529l0.731,13.942l16.756,2.116c1.037,4.785,2.587,9.376,4.587,13.72l-12.004,12.323l7.643,11.683l15.85-6.724
			c3.199,3.486,6.771,6.623,10.639,9.369l-4.26,16.999l12.48,6.258l10.46-13.967c4.393,1.375,8.982,2.301,13.712,2.744l4.919,17.03
			l13.934-0.866l2.035-17.47c4.591-1.018,9.001-2.51,13.185-4.419l12.847,12.281l11.611-7.752l-7.003-16.078
			c3.44-3.151,6.538-6.665,9.26-10.469l17.174,4.13l6.14-12.538l-13.957-10.247C988.694,758.188,989.649,753.533,990.102,748.73z
			 M923.641,797.307c-30.019,0-54.354-24.334-54.354-54.354c0-30.021,24.335-54.354,54.354-54.354
			c30.019,0,54.354,24.334,54.354,54.354C977.995,772.973,953.66,797.307,923.641,797.307z"/>
	</g>
	<g>
		<path fill="#E52621" d="M1137.05,392.22l16.027-6.76l-2.495-13.736l-17.023,0.032c-1.558-4.643-3.605-9.04-6.074-13.14
			l10.256-13.633l-9.065-10.62l-14.423,8.426c-3.703-3.246-7.763-6.074-12.096-8.442l1.977-16.643l-13.176-4.624l-8.099,14.297
			c-4.011-0.777-8.139-1.179-12.339-1.199l-5.996-15.442l-3.078,0.469l-0.079-0.185l-5.031,0.963l-5.615,0.856l-0.007,0.221
			l-3.062,0.587l0.187,16.337c-3.97,1.396-7.753,3.147-11.32,5.219l-12.896-10.293l-10.874,8.758l7.86,14.388
			c-3.357,3.693-6.298,7.752-8.766,12.102l-16.45-2.432l-4.998,13.037l14.188,8.583c-0.997,4.75-1.491,9.664-1.418,14.681
			l-15.677,6.26l2.236,13.782l16.885,0.291c1.549,4.646,3.587,9.042,6.046,13.145l-10.603,13.547l8.861,10.79l15.03-8.4
			c3.559,3.121,7.447,5.853,11.59,8.166l-2.397,17.359l13.083,4.87l8.889-15.016c4.516,0.893,9.18,1.317,13.93,1.245l6.731,16.398
			l13.758-2.367l0.134-17.586c4.455-1.51,8.678-3.469,12.629-5.818l14.102,10.819l10.705-8.964l-8.701-15.226
			c3.079-3.506,5.778-7.332,8.073-11.409l17.52,2.25l4.747-13.13l-14.982-8.676C1136.676,401.775,1137.12,397.044,1137.05,392.22z
			 M1076.23,447.698c-29.841,3.246-56.666-18.314-59.912-48.158c-3.245-29.842,18.315-56.667,48.158-59.913
			c29.842-3.246,56.667,18.314,59.914,48.159C1127.637,417.629,1106.075,444.453,1076.23,447.698z"/>
	</g>
	<g>
		<path fill="#E52621" d="M1665.275,719.69l2.451-15.985l-18.972-6.5c0.02-5.413-0.536-10.89-1.695-16.358l16.697-11.275
			l-5.917-15.052l-19.338,3.855c-2.813-4.929-6.125-9.467-9.851-13.57l8.596-17.793l-12.682-10.035l-14.502,12.81
			c-4.938-2.856-10.185-5.161-15.64-6.881l-1.488-19.355l-16.01-2.299l-5.997,18.064c-4.729,0.016-9.513,0.484-14.288,1.404
			l-10.28-16.204l-3.392,1.223l-0.133-0.193l-5.501,2.224l-6.188,2.232l0.042,0.254l-3.348,1.353l3.876,18.523
			c-4.198,2.477-8.104,5.315-11.694,8.47l-16.964-8.806l-10.392,12.392l12.159,14.588c-2.988,4.95-5.42,10.223-7.249,15.72
			l-19.239,0.928l-2.757,15.935l18.049,6.57c-0.068,5.622,0.474,11.317,1.682,17.002l-16.411,10.63l5.631,15.161l19.255-3.456
			c2.801,4.931,6.104,9.471,9.818,13.581l-9.012,17.773l12.492,10.274l15.196-12.917c4.743,2.75,9.777,4.98,15.003,6.681
			l1.168,20.266l15.962,2.601l6.735-19.059c5.329,0.003,10.725-0.562,16.106-1.708l11.326,17.123l15.106-5.774l-3.793-20.015
			c4.724-2.715,9.083-5.889,13.048-9.446l18.452,9.134l10.153-12.588l-13.303-15.353c2.713-4.673,4.924-9.627,6.616-14.773
			L1665.275,719.69z M1590.386,757.537c-33.186,10.381-68.505-8.104-78.888-41.289c-10.381-33.188,8.104-68.508,41.289-78.891
			c33.187-10.381,68.506,8.104,78.889,41.292C1642.059,711.835,1623.571,747.154,1590.386,757.537z"/>
	</g>
	<g>
		<path fill="#E52621" d="M1883.197,380.611l29.423-10.416l-2.973-24.493l-30.55-1.742c-2.195-7.961-5.266-15.778-9.217-23.333
			l19.891-23.438l-14.886-19.676l-26.823,13.619c-6.162-6.081-12.893-11.386-20.054-15.883l5.308-29.678l-22.762-9.524
			l-16.033,24.787c-8.429-2.167-17.088-3.393-25.808-3.674l-10.149-27.826l-24.467,3.209l-1.377,29.006
			c-6.945,1.97-13.775,4.626-20.416,7.941l-21.767-19.577l-4.483,3.193l-0.272-0.23l-7.166,5.531l-8.175,5.827l0.166,0.354
			l-4.359,3.366l13.314,25.617c-5.148,5.369-9.72,11.145-13.696,17.254l-28.544-5.955l-10.169,22.48l23.864,16.429
			c-2.354,8.501-3.755,17.248-4.181,26.074l-27.885,9.278l2.508,24.545l29.219,2.229c2.213,8.287,5.352,16.43,9.464,24.286
			l-19.736,22.369l14.513,19.955l26.862-13c6.145,6.092,12.865,11.401,20.013,15.913l-5.927,29.819l22.578,9.954l17.013-25.227
			c8.1,2.087,16.413,3.293,24.788,3.641l10.055,29.291l24.518-2.746l2.057-30.769c7.831-2.192,15.525-5.24,22.961-9.139
			l23.685,20.498l19.816-14.698l-13.806-27.846c5.82-5.933,10.92-12.388,15.282-19.244l30.865,5.826l9.737-22.667l-25.86-17.083
			C1881.619,397.058,1882.829,388.869,1883.197,380.611z M1818.17,456.609c-44.479,28.905-103.977,16.278-132.882-28.203
			c-28.905-44.485-16.278-103.979,28.202-132.886c44.484-28.905,103.979-16.277,132.885,28.206
			C1875.282,368.208,1862.653,427.703,1818.17,456.609z"/>
	</g>
	<g>
		<path fill="#E52621" d="M356.397,425.843l1.884-15.438l-18.119-5.592c-0.124-5.455-0.847-10.809-2.12-15.986l15.416-11.114
			l-6.133-14.294l-18.129,4.196c-2.867-4.674-6.25-9.025-10.078-12.977l7.604-17.053l-12.489-9.272l-13.34,12.533
			c-4.009-2.152-8.268-3.944-12.73-5.354l-1.275-18.409l-3.43-0.518l-0.023-0.223l-5.669-0.639l-6.257-0.945l-0.08,0.233
			l-3.452-0.387l-5.201,17.44c-4.685,0.175-9.288,0.787-13.767,1.812l-10.317-15.212l-14.463,5.723l3.607,17.904
			c-4.792,2.818-9.262,6.165-13.325,9.977l-16.697-8.023l-9.625,12.217l12.256,13.817c-2.631,4.726-4.78,9.788-6.361,15.15
			l-18.745,1.478l-2.177,15.4l17.867,5.889c0.112,5.455,0.828,10.804,2.087,15.981l-15.757,10.907l5.861,14.408l18.765-3.968
			c2.754,4.495,5.988,8.687,9.631,12.516l-8.288,17.675l12.308,9.506l14.418-13.035c4.508,2.44,9.331,4.435,14.407,5.928
			l1.741,19.668l15.419,2.029l5.954-18.662c5.239-0.136,10.378-0.825,15.358-2.018l11.425,16.169l14.35-5.996l-4.223-19.073
			c4.434-2.712,8.57-5.893,12.359-9.47l17.893,8.184l9.392-12.397l-13.073-14.182c2.497-4.569,4.534-9.454,6.054-14.609
			L356.397,425.843z M325.109,418.836c-6.409,32.819-38.213,54.229-71.033,47.818c-32.818-6.409-54.23-38.212-47.82-71.031
			c6.41-32.821,38.211-54.231,71.033-47.821C310.109,354.213,331.519,386.015,325.109,418.836z"/>
	</g>
	<g>
		<path fill="#E52621" d="M196.672,807.97l1.916-15.69l-18.416-5.685c-0.126-5.545-0.862-10.984-2.154-16.247l15.668-11.296
			l-6.234-14.529l-18.426,4.268c-2.914-4.752-6.353-9.176-10.243-13.191l7.729-17.332l-12.693-9.425l-13.559,12.739
			c-4.075-2.187-8.403-4.009-12.938-5.441l-1.296-18.712l-3.486-0.524l-0.023-0.228l-5.763-0.65l-6.359-0.961l-0.081,0.238
			l-3.508-0.395l-5.286,17.727c-4.761,0.177-9.44,0.799-13.992,1.841L77.04,699.015l-14.7,5.816l3.667,18.198
			c-4.871,2.863-9.414,6.264-13.543,10.141l-16.97-8.154l-9.783,12.417l12.457,14.044c-2.674,4.8-4.858,9.946-6.465,15.397
			l-19.052,1.501l-2.212,15.654l18.159,5.984c0.114,5.543,0.841,10.982,2.122,16.243l-16.015,11.087l5.957,14.643l19.073-4.033
			c2.799,4.569,6.086,8.829,9.789,12.722L41.1,858.64l12.51,9.662l14.654-13.25c4.582,2.481,9.484,4.507,14.644,6.023l1.769,19.992
			l15.672,2.062l6.051-18.968c5.324-0.137,10.548-0.838,15.61-2.05l11.612,16.433l14.585-6.094l-4.292-19.387
			c4.506-2.755,8.71-5.988,12.562-9.622l18.185,8.315l9.545-12.601l-13.287-14.414c2.537-4.644,4.608-9.607,6.153-14.849
			L196.672,807.97z M164.909,800.82c-6.514,33.357-38.839,55.117-72.197,48.603c-33.355-6.516-55.117-38.837-48.603-72.194
			c6.516-33.358,38.838-55.12,72.197-48.605C149.663,735.139,171.423,767.462,164.909,800.82z"/>
	</g>
	<g>
		<path fill="#E52621" d="M725.616,322.029l1.984-16.249l-19.071-5.886c-0.131-5.741-0.892-11.375-2.231-16.826l16.224-11.696
			l-6.454-15.045l-19.082,4.417c-3.018-4.921-6.579-9.501-10.607-13.66l8.003-17.949l-13.145-9.759l-14.041,13.191
			c-4.22-2.265-8.702-4.15-13.399-5.635l-1.341-19.376l-3.611-0.544l-0.024-0.235l-5.967-0.672l-6.586-0.995l-0.084,0.246
			l-3.633-0.408l-5.474,18.356c-4.931,0.184-9.776,0.828-14.49,1.906l-10.858-16.011l-15.223,6.023l3.797,18.844
			c-5.044,2.966-9.748,6.488-14.025,10.502l-17.574-8.444l-10.13,12.859l12.9,14.542c-2.769,4.973-5.031,10.302-6.695,15.945
			l-19.729,1.556l-2.292,16.21l18.806,6.199c0.117,5.74,0.871,11.371,2.197,16.82l-16.584,11.481l6.169,15.163l19.751-4.175
			c2.899,4.731,6.303,9.143,10.137,13.173l-8.723,18.604l12.955,10.005l15.176-13.72c4.745,2.567,9.821,4.666,15.164,6.238
			l1.833,20.702l16.229,2.135l6.267-19.643c5.513-0.142,10.923-0.866,16.165-2.122l12.025,17.017l15.104-6.31l-4.445-20.076
			c4.666-2.854,9.02-6.202,13.008-9.967l18.833,8.613l9.884-13.049L698.947,339.4c2.627-4.809,4.771-9.951,6.372-15.377
			L725.616,322.029z M692.723,314.625c-6.747,34.544-40.221,57.077-74.766,50.332c-34.542-6.747-57.078-40.22-50.332-74.764
			c6.748-34.544,40.219-57.079,74.764-50.333C676.933,246.608,699.468,280.08,692.723,314.625z"/>
	</g>
	<g>
		<path fill="#E52621" d="M410.125,643.597l27.316-10.374l-3.425-23.671l-28.596-0.977c-2.399-8.084-5.694-15.894-9.807-23.283
			l18.075-22.305l-14.861-18.738l-24.798,13.31c-5.099-4.791-10.712-9.146-16.778-13.017l5.428-27.85l-4.889-2.133l0.055-0.34
			l-8.166-3.203l-8.918-3.892l-0.211,0.313l-4.973-1.947l-14.66,23.835c-7.028-1.604-14.108-2.526-21.168-2.785l-9.273-26.697
			l-23.758,2.747l-1.762,28.028c-8.239,2.279-16.208,5.473-23.759,9.52l-21.608-18.558L200.432,535.9l12.709,25.396
			c-5.787,5.971-10.992,12.636-15.473,19.971l-28.429-5.259l-9.358,22.009l24.195,15.852c-2.003,8.146-3.068,16.376-3.256,24.566
			l-27.741,9.936l2.976,23.729l29.45,1.568c2.302,7.773,5.439,15.285,9.327,22.422l-19.339,22.957l14.5,19.014l26.6-13.627
			c5.726,5.417,12.095,10.297,19.041,14.533l-5.236,29.906l22.095,9.145l16.266-25.354c7.834,1.885,15.741,2.905,23.612,3.114
			l10.539,28.56l23.699-3.2l1.313-30.007c7.663-2.264,15.071-5.343,22.122-9.149l23.321,19.27l18.879-14.679l-13.777-26.263
			c5.525-5.792,10.494-12.239,14.802-19.292l29.396,4.858l8.939-22.182l-24.688-15.512
			C408.901,660.032,409.956,651.794,410.125,643.597z M378.981,683.024c-22.572,46.198-78.323,65.347-124.521,42.775
			c-46.195-22.573-65.348-78.321-42.776-124.52c22.574-46.198,78.322-65.352,124.521-42.778
			C382.402,581.076,401.554,636.826,378.981,683.024z"/>
	</g>
	<g>
		<path fill="#E52621" d="M727.97,567.109l32.524-12.352l-4.079-28.184l-34.048-1.163c-2.855-9.627-6.778-18.923-11.676-27.724
			l21.521-26.557l-17.695-22.311l-29.526,15.847c-6.071-5.704-12.754-10.891-19.977-15.497l6.463-33.16l-5.821-2.54l0.065-0.405
			l-9.723-3.813l-10.618-4.635l-0.252,0.375l-5.921-2.319l-17.455,28.378c-8.368-1.908-16.797-3.007-25.205-3.314l-11.041-31.789
			l-28.288,3.271l-2.099,33.373c-9.81,2.713-19.297,6.515-28.289,11.334l-25.728-22.096l-22.808,17.049l15.132,30.237
			c-6.89,7.11-13.088,15.047-18.422,23.779l-33.85-6.262l-11.142,26.206l28.809,18.875c-2.385,9.697-3.653,19.499-3.877,29.249
			l-33.03,11.829l3.542,28.253l35.065,1.872c2.741,9.252,6.477,18.198,11.105,26.694l-23.026,27.334l17.266,22.638l31.672-16.226
			c6.817,6.451,14.401,12.261,22.671,17.306l-6.234,35.607l26.307,10.889l19.367-30.187c9.328,2.243,18.743,3.46,28.115,3.709
			l12.548,34.004l28.217-3.809l1.564-35.731c9.123-2.695,17.945-6.36,26.34-10.893l27.768,22.944l22.479-17.479l-16.403-31.271
			c6.578-6.898,12.494-14.57,17.624-22.968l35.001,5.781l10.644-26.41l-29.397-18.47
			C726.512,586.681,727.769,576.868,727.97,567.109z M690.888,614.057c-26.875,55.006-93.256,77.806-148.263,50.93
			c-55.002-26.875-77.808-93.256-50.932-148.261c26.878-55.007,93.255-77.811,148.264-50.934
			C694.961,492.669,717.765,559.047,690.888,614.057z"/>
	</g>
	<g>
		<path fill="#E52621" d="M1326.949,581.136l2.883-21.229l-24.854-8.038c-0.07-7.517-0.968-14.903-2.622-22.058l21.438-15.021
			l-8.181-19.801l-25.051,5.444c-3.859-6.495-8.439-12.552-13.639-18.064l10.791-23.343l-17.028-13.006l-18.606,17.016
			c-5.483-3.038-11.317-5.588-17.436-7.613l-1.415-25.379l-4.715-0.777l-0.026-0.307l-7.798-0.983l-8.6-1.419l-0.114,0.319
			l-4.745-0.599l-7.487,23.926c-6.458,0.152-12.81,0.91-18.997,2.239l-13.927-21.146l-20.027,7.615l4.635,24.727
			c-6.654,3.791-12.871,8.318-18.538,13.495l-22.847-11.362l-13.481,16.649l16.622,19.259c-3.712,6.456-6.769,13.392-9.043,20.746
			l-25.847,1.688l-3.286,21.172l24.502,8.443c0.054,7.514,0.939,14.897,2.577,22.049l-21.904,14.734l7.805,19.95l25.922-5.115
			c3.707,6.241,8.084,12.075,13.029,17.418l-11.742,24.191l16.776,13.321l20.103-17.688c6.165,3.447,12.766,6.279,19.73,8.433
			l2.037,27.122l21.198,3.082l8.549-25.596c7.214-0.088,14.309-0.941,21.189-2.492l15.437,22.482l19.874-7.991l-5.464-26.352
			c6.158-3.651,11.917-7.954,17.2-12.81l24.495,11.602l13.162-16.9l-17.742-19.776c3.522-6.246,6.421-12.938,8.609-20.01
			L1326.949,581.136z M1283.984,570.902c-9.439,45.085-53.641,73.984-98.724,64.546c-45.085-9.439-73.984-53.639-64.547-98.726
			c9.438-45.086,53.642-73.982,98.724-64.545C1264.523,481.616,1293.422,525.816,1283.984,570.902z"/>
	</g>
	<g>
		<path fill="#E52621" d="M1033.898,556.134l3.148-23.182l-27.141-8.777c-0.077-8.208-1.057-16.274-2.863-24.086l23.409-16.402
			l-8.934-21.622l-27.354,5.945c-4.214-7.093-9.216-13.707-14.893-19.726l11.783-25.49l-18.595-14.202l-20.317,18.581
			c-5.988-3.318-12.358-6.102-19.039-8.313l-1.545-27.713l-5.148-0.849l-0.029-0.335l-8.515-1.074l-9.39-1.549l-0.125,0.349
			l-5.182-0.654l-8.176,26.126c-7.052,0.167-13.988,0.994-20.744,2.445l-15.208-23.09l-21.869,8.316l5.061,27
			c-7.266,4.14-14.055,9.083-20.243,14.736l-24.948-12.407l-14.721,18.181l18.151,21.03c-4.054,7.05-7.391,14.624-9.875,22.654
			l-28.224,1.844l-3.588,23.119l26.755,9.22c0.059,8.205,1.026,16.268,2.814,24.077l-23.919,16.089l8.522,21.785l28.306-5.586
			c4.048,6.815,8.828,13.187,14.228,19.021l-12.822,26.416l18.319,14.547l21.951-19.314c6.732,3.765,13.94,6.856,21.545,9.208
			l2.224,29.616l23.148,3.366l9.335-27.95c7.877-0.096,15.625-1.028,23.138-2.722l16.856,24.551l21.702-8.727l-5.966-28.775
			c6.725-3.986,13.013-8.686,18.783-13.987l26.747,12.669l14.373-18.455l-19.374-21.595c3.847-6.821,7.012-14.128,9.401-21.851
			L1033.898,556.134z M986.982,544.959c-10.308,49.231-58.574,80.789-107.804,70.482c-49.231-10.308-80.789-58.571-70.483-107.805
			c10.306-49.232,58.575-80.787,107.804-70.481C965.731,447.461,997.287,495.727,986.982,544.959z"/>
	</g>
	<g>
		<path fill="#E52621" d="M1608.859,457.511l33.927-12.299l-3.705-28.721l-35.271-1.745c-2.737-9.788-6.509-19.113-11.186-27.87
			l22.699-27.147l-17.647-22.967l-30.779,15.919c-7.326-7.119-15.43-13.412-24.155-18.778l5.866-34.265l-26.801-10.983
			l-18.297,28.754c-8.228-2.035-16.737-3.31-25.437-3.799l-10.778-32.628l-6.427,0.644l-0.143-0.392l-10.524,1.459l-11.726,1.175
			l-0.035,0.458l-6.404,0.888l-1.354,33.862c-8.375,2.472-16.4,5.697-24.006,9.606l-25.617-22.698l-23.462,16.985l14.749,30.643
			c-7.353,7.291-13.874,15.386-19.448,24.138l-33.82-6.792l-11.738,26.477l28.474,19.288c-2.574,9.732-4.122,19.862-4.506,30.261
			l-33.139,11.299l3.162,28.787l34.949,2.401c2.713,9.789,6.467,19.114,11.121,27.873l-23.404,26.937l17.207,23.297l32.033-15.8
			c7.037,6.843,14.802,12.917,23.135,18.149l-6.813,35.707l26.585,11.485l20.013-30.162c9.259,2.332,18.873,3.707,28.721,4.066
			l12.199,34.685l28.753-3.438l2.153-36.414c9.387-2.653,18.344-6.264,26.783-10.709l28.057,23.915l23.129-17.427l-16.402-32.47
			c6.751-6.934,12.753-14.575,17.941-22.773l36.055,6.525l11.234-26.692l-30.115-19.569
			C1607.062,477.265,1608.492,467.511,1608.859,457.511z M1476.959,565.959c-62.164,3.544-115.438-43.98-118.983-106.147
			c-3.544-62.169,43.98-115.438,106.147-118.983c62.168-3.545,115.438,43.979,118.982,106.147
			C1586.652,509.144,1539.127,562.414,1476.959,565.959z"/>
	</g>
</g>
<g id="Calque_3">
	<circle fill="none" stroke="#E52621" stroke-width="10" stroke-miterlimit="10" cx="897.802" cy="526.662" r="71.47"/>
	<circle fill="none" stroke="#E52621" stroke-width="10" stroke-miterlimit="10" cx="295.26" cy="642.091" r="79.129"/>
	<g>
		
			<circle fill="none" stroke="#FFFFFF" stroke-width="5" stroke-linecap="square" stroke-linejoin="round" stroke-dasharray="23.3897,23.3897,35.0846,23.3897,7.0169,23.3897" cx="897.802" cy="526.661" r="71.47"/>
	</g>
	<g>
		
			<circle fill="none" stroke="#FFFFFF" stroke-width="5" stroke-linecap="square" stroke-linejoin="round" stroke-dasharray="17.264,17.264,25.8961,17.264,5.1792,17.264" cx="295.261" cy="642.09" r="79.129"/>
	</g>
	<g>
		<path fill="none" stroke="#E52621" stroke-width="10" stroke-miterlimit="10" d="M1264.103,566.67
			c-7.133,34.07-40.532,55.907-74.6,48.775c-34.069-7.135-55.906-40.534-48.774-74.604c7.13-34.069,40.531-55.904,74.599-48.772
			C1249.399,499.199,1271.236,532.601,1264.103,566.67z"/>
		<g>
			
				<path fill="none" stroke="#FFFFFF" stroke-width="5" stroke-linecap="square" stroke-linejoin="round" stroke-dasharray="20.622,20.622,30.933,20.622,6.1866,20.622" d="
				M1265.44,553.76c-0.003,34.806-28.218,63.023-63.026,63.021c-34.808-0.003-63.023-28.219-63.023-63.026
				c0-34.809,28.22-63.024,63.025-63.023C1237.227,490.731,1265.442,518.949,1265.44,553.76z"/>
		</g>
	</g>
	<g>
		<path fill="none" stroke="#E52621" stroke-width="10" stroke-miterlimit="10" d="M1844.15,392.471
			c-9.061,43.279-51.489,71.021-94.768,61.96c-43.282-9.061-71.021-51.491-61.961-94.772c9.056-43.281,51.49-71.021,94.768-61.961
			C1825.472,306.758,1853.214,349.189,1844.15,392.471z"/>
		<g>
			
				<path fill="none" stroke="#FFFFFF" stroke-width="5" stroke-linecap="square" stroke-linejoin="round" stroke-dasharray="17.4681,17.4681,26.2022,17.4681,5.2404,17.4681" d="
				M1845.85,376.068c-0.002,44.216-35.846,80.063-80.064,80.061c-44.219-0.003-80.065-35.849-80.065-80.068
				c0-44.218,35.851-80.063,80.067-80.061C1810.009,296,1845.853,331.848,1845.85,376.068z"/>
		</g>
	</g>
</g>
<g id="Calque_2">
	<g>
		<line fill="none" stroke="#E52621" stroke-miterlimit="10" x1="1571.588" y1="638.946" x2="1571.588" y2="647.974"/>
		<line fill="none" stroke="#E52621" stroke-miterlimit="10" x1="1576.679" y1="639.167" x2="1575.893" y2="648.161"/>
		<line fill="none" stroke="#E52621" stroke-miterlimit="10" x1="1581.73" y1="639.832" x2="1580.166" y2="648.724"/>
		<line fill="none" stroke="#E52621" stroke-miterlimit="10" x1="1586.705" y1="640.933" x2="1584.371" y2="649.653"/>
		<line fill="none" stroke="#E52621" stroke-miterlimit="10" x1="1591.564" y1="642.464" x2="1588.481" y2="650.947"/>
		<line fill="none" stroke="#E52621" stroke-miterlimit="10" x1="1596.275" y1="644.41" x2="1592.464" y2="652.596"/>
		<line fill="none" stroke="#E52621" stroke-miterlimit="10" x1="1600.795" y1="646.76" x2="1596.288" y2="654.582"/>
		<line fill="none" stroke="#E52621" stroke-miterlimit="10" x1="1605.096" y1="649.495" x2="1599.925" y2="656.894"/>
		<line fill="none" stroke="#E52621" stroke-miterlimit="10" x1="1609.14" y1="652.592" x2="1603.346" y2="659.515"/>
		<line fill="none" stroke="#E52621" stroke-miterlimit="10" x1="1612.899" y1="656.029" x2="1606.525" y2="662.424"/>
		<line fill="none" stroke="#E52621" stroke-miterlimit="10" x1="1616.345" y1="659.783" x2="1609.439" y2="665.598"/>
		<line fill="none" stroke="#E52621" stroke-miterlimit="10" x1="1619.452" y1="663.821" x2="1612.066" y2="669.012"/>
		<line fill="none" stroke="#E52621" stroke-miterlimit="10" x1="1622.196" y1="668.114" x2="1614.388" y2="672.642"/>
		<line fill="none" stroke="#E52621" stroke-miterlimit="10" x1="1624.557" y1="672.628" x2="1616.382" y2="676.461"/>
		<line fill="none" stroke="#E52621" stroke-miterlimit="10" x1="1626.514" y1="677.331" x2="1618.037" y2="680.439"/>
		<line fill="none" stroke="#E52621" stroke-miterlimit="10" x1="1628.057" y1="682.189" x2="1619.342" y2="684.545"/>
		<line fill="none" stroke="#E52621" stroke-miterlimit="10" x1="1629.17" y1="687.161" x2="1620.283" y2="688.75"/>
		<line fill="none" stroke="#E52621" stroke-miterlimit="10" x1="1629.844" y1="692.211" x2="1620.854" y2="693.02"/>
		<line fill="none" stroke="#E52621" stroke-miterlimit="10" x1="1630.078" y1="697.3" x2="1621.053" y2="697.324"/>
		<line fill="none" stroke="#E52621" stroke-miterlimit="10" x1="1629.868" y1="702.391" x2="1620.874" y2="701.629"/>
		<line fill="none" stroke="#E52621" stroke-miterlimit="10" x1="1629.216" y1="707.445" x2="1620.322" y2="705.902"/>
		<line fill="none" stroke="#E52621" stroke-miterlimit="10" x1="1628.125" y1="712.422" x2="1619.401" y2="710.111"/>
		<line fill="none" stroke="#E52621" stroke-miterlimit="10" x1="1626.606" y1="717.286" x2="1618.116" y2="714.225"/>
		<line fill="none" stroke="#E52621" stroke-miterlimit="10" x1="1624.671" y1="721.998" x2="1616.481" y2="718.209"/>
		<line fill="none" stroke="#E52621" stroke-miterlimit="10" x1="1622.333" y1="726.525" x2="1614.502" y2="722.037"/>
		<line fill="none" stroke="#E52621" stroke-miterlimit="10" x1="1619.608" y1="730.832" x2="1612.199" y2="725.679"/>
		<line fill="none" stroke="#E52621" stroke-miterlimit="10" x1="1616.521" y1="734.883" x2="1609.587" y2="729.105"/>
		<line fill="none" stroke="#E52621" stroke-miterlimit="10" x1="1613.092" y1="738.651" x2="1606.688" y2="732.293"/>
		<line fill="none" stroke="#E52621" stroke-miterlimit="10" x1="1609.347" y1="742.107" x2="1603.521" y2="735.215"/>
		<line fill="none" stroke="#E52621" stroke-miterlimit="10" x1="1605.318" y1="745.224" x2="1600.114" y2="737.852"/>
		<line fill="none" stroke="#E52621" stroke-miterlimit="10" x1="1601.031" y1="747.979" x2="1596.488" y2="740.181"/>
		<line fill="none" stroke="#E52621" stroke-miterlimit="10" x1="1596.521" y1="750.351" x2="1592.674" y2="742.185"/>
		<line fill="none" stroke="#E52621" stroke-miterlimit="10" x1="1591.822" y1="752.318" x2="1588.699" y2="743.851"/>
		<line fill="none" stroke="#E52621" stroke-miterlimit="10" x1="1586.97" y1="753.872" x2="1584.596" y2="745.164"/>
		<line fill="none" stroke="#E52621" stroke-miterlimit="10" x1="1582.002" y1="754.996" x2="1580.395" y2="746.114"/>
		<line fill="none" stroke="#E52621" stroke-miterlimit="10" x1="1576.952" y1="755.684" x2="1576.126" y2="746.696"/>
		<line fill="none" stroke="#E52621" stroke-miterlimit="10" x1="1571.863" y1="755.931" x2="1571.821" y2="746.905"/>
		<line fill="none" stroke="#E52621" stroke-miterlimit="10" x1="1566.771" y1="755.734" x2="1567.517" y2="746.738"/>
		<line fill="none" stroke="#E52621" stroke-miterlimit="10" x1="1561.719" y1="755.094" x2="1563.241" y2="746.195"/>
		<line fill="none" stroke="#E52621" stroke-miterlimit="10" x1="1556.739" y1="754.016" x2="1559.029" y2="745.285"/>
		<line fill="none" stroke="#E52621" stroke-miterlimit="10" x1="1551.873" y1="752.51" x2="1554.914" y2="744.012"/>
		<line fill="none" stroke="#E52621" stroke-miterlimit="10" x1="1547.156" y1="750.586" x2="1550.925" y2="742.383"/>
		<line fill="none" stroke="#E52621" stroke-miterlimit="10" x1="1542.625" y1="748.259" x2="1547.093" y2="740.414"/>
		<line fill="none" stroke="#E52621" stroke-miterlimit="10" x1="1538.312" y1="745.546" x2="1543.445" y2="738.12"/>
		<line fill="none" stroke="#E52621" stroke-miterlimit="10" x1="1534.252" y1="742.467" x2="1540.014" y2="735.518"/>
		<line fill="none" stroke="#E52621" stroke-miterlimit="10" x1="1530.475" y1="739.048" x2="1536.817" y2="732.626"/>
		<line fill="none" stroke="#E52621" stroke-miterlimit="10" x1="1527.01" y1="735.313" x2="1533.889" y2="729.465"/>
		<line fill="none" stroke="#E52621" stroke-miterlimit="10" x1="1523.885" y1="731.29" x2="1531.243" y2="726.064"/>
		<line fill="none" stroke="#E52621" stroke-miterlimit="10" x1="1521.118" y1="727.01" x2="1528.905" y2="722.445"/>
		<line fill="none" stroke="#E52621" stroke-miterlimit="10" x1="1518.735" y1="722.507" x2="1526.893" y2="718.635"/>
		<line fill="none" stroke="#E52621" stroke-miterlimit="10" x1="1516.757" y1="717.813" x2="1525.218" y2="714.665"/>
		<line fill="none" stroke="#E52621" stroke-miterlimit="10" x1="1515.191" y1="712.964" x2="1523.896" y2="710.565"/>
		<line fill="none" stroke="#E52621" stroke-miterlimit="10" x1="1514.055" y1="707.996" x2="1522.935" y2="706.365"/>
		<line fill="none" stroke="#E52621" stroke-miterlimit="10" x1="1513.354" y1="702.951" x2="1522.342" y2="702.098"/>
		<line fill="none" stroke="#E52621" stroke-miterlimit="10" x1="1513.094" y1="697.861" x2="1522.123" y2="697.793"/>
		<line fill="none" stroke="#E52621" stroke-miterlimit="10" x1="1513.278" y1="692.771" x2="1522.279" y2="693.489"/>
		<line fill="none" stroke="#E52621" stroke-miterlimit="10" x1="1513.906" y1="687.715" x2="1522.809" y2="689.213"/>
		<line fill="none" stroke="#E52621" stroke-miterlimit="10" x1="1514.971" y1="682.733" x2="1523.71" y2="684.999"/>
		<line fill="none" stroke="#E52621" stroke-miterlimit="10" x1="1516.466" y1="677.862" x2="1524.976" y2="680.88"/>
		<line fill="none" stroke="#E52621" stroke-miterlimit="10" x1="1518.376" y1="673.14" x2="1526.593" y2="676.887"/>
		<line fill="none" stroke="#E52621" stroke-miterlimit="10" x1="1520.693" y1="668.602" x2="1528.553" y2="673.049"/>
		<line fill="none" stroke="#E52621" stroke-miterlimit="10" x1="1523.397" y1="664.281" x2="1530.838" y2="669.397"/>
		<line fill="none" stroke="#E52621" stroke-miterlimit="10" x1="1526.465" y1="660.213" x2="1533.435" y2="665.959"/>
		<line fill="none" stroke="#E52621" stroke-miterlimit="10" x1="1529.877" y1="656.429" x2="1536.317" y2="662.756"/>
		<line fill="none" stroke="#E52621" stroke-miterlimit="10" x1="1533.604" y1="652.955" x2="1539.469" y2="659.818"/>
		<line fill="none" stroke="#E52621" stroke-miterlimit="10" x1="1537.617" y1="649.818" x2="1542.865" y2="657.167"/>
		<line fill="none" stroke="#E52621" stroke-miterlimit="10" x1="1541.891" y1="647.042" x2="1546.479" y2="654.822"/>
		<line fill="none" stroke="#E52621" stroke-miterlimit="10" x1="1546.39" y1="644.65" x2="1550.284" y2="652.799"/>
		<line fill="none" stroke="#E52621" stroke-miterlimit="10" x1="1551.079" y1="642.658" x2="1554.249" y2="651.115"/>
		<line fill="none" stroke="#E52621" stroke-miterlimit="10" x1="1555.924" y1="641.08" x2="1558.346" y2="649.781"/>
		<line fill="none" stroke="#E52621" stroke-miterlimit="10" x1="1560.888" y1="639.932" x2="1562.545" y2="648.812"/>
		<line fill="none" stroke="#E52621" stroke-miterlimit="10" x1="1565.935" y1="639.218" x2="1566.81" y2="648.208"/>
	</g>
	<g>
		<line fill="none" stroke="#E52621" stroke-miterlimit="10" x1="104.511" y1="733.108" x2="104.511" y2="741.739"/>
		<line fill="none" stroke="#E52621" stroke-miterlimit="10" x1="109.378" y1="733.32" x2="108.627" y2="741.918"/>
		<line fill="none" stroke="#E52621" stroke-miterlimit="10" x1="114.207" y1="733.957" x2="112.711" y2="742.455"/>
		<line fill="none" stroke="#E52621" stroke-miterlimit="10" x1="118.962" y1="735.008" x2="116.731" y2="743.346"/>
		<line fill="none" stroke="#E52621" stroke-miterlimit="10" x1="123.608" y1="736.472" x2="120.661" y2="744.582"/>
		<line fill="none" stroke="#E52621" stroke-miterlimit="10" x1="128.11" y1="738.332" x2="124.468" y2="746.156"/>
		<line fill="none" stroke="#E52621" stroke-miterlimit="10" x1="132.432" y1="740.578" x2="128.123" y2="748.056"/>
		<line fill="none" stroke="#E52621" stroke-miterlimit="10" x1="136.541" y1="743.191" x2="131.6" y2="750.267"/>
		<line fill="none" stroke="#E52621" stroke-miterlimit="10" x1="140.407" y1="746.154" x2="134.87" y2="752.771"/>
		<line fill="none" stroke="#E52621" stroke-miterlimit="10" x1="144" y1="749.44" x2="137.909" y2="755.55"/>
		<line fill="none" stroke="#E52621" stroke-miterlimit="10" x1="147.294" y1="753.025" x2="140.695" y2="758.584"/>
		<line fill="none" stroke="#E52621" stroke-miterlimit="10" x1="150.266" y1="756.885" x2="143.206" y2="761.849"/>
		<line fill="none" stroke="#E52621" stroke-miterlimit="10" x1="152.888" y1="760.991" x2="145.423" y2="765.317"/>
		<line fill="none" stroke="#E52621" stroke-miterlimit="10" x1="155.144" y1="765.307" x2="147.331" y2="768.97"/>
		<line fill="none" stroke="#E52621" stroke-miterlimit="10" x1="157.015" y1="769.803" x2="148.914" y2="772.771"/>
		<line fill="none" stroke="#E52621" stroke-miterlimit="10" x1="158.49" y1="774.444" x2="150.16" y2="776.697"/>
		<line fill="none" stroke="#E52621" stroke-miterlimit="10" x1="159.553" y1="779.196" x2="151.059" y2="780.717"/>
		<line fill="none" stroke="#E52621" stroke-miterlimit="10" x1="160.199" y1="784.023" x2="151.605" y2="784.799"/>
		<line fill="none" stroke="#E52621" stroke-miterlimit="10" x1="160.423" y1="788.89" x2="151.794" y2="788.911"/>
		<line fill="none" stroke="#E52621" stroke-miterlimit="10" x1="160.221" y1="793.756" x2="151.623" y2="793.026"/>
		<line fill="none" stroke="#E52621" stroke-miterlimit="10" x1="159.597" y1="798.585" x2="151.097" y2="797.112"/>
		<line fill="none" stroke="#E52621" stroke-miterlimit="10" x1="158.556" y1="803.344" x2="150.216" y2="801.135"/>
		<line fill="none" stroke="#E52621" stroke-miterlimit="10" x1="157.104" y1="807.992" x2="148.989" y2="805.066"/>
		<line fill="none" stroke="#E52621" stroke-miterlimit="10" x1="155.253" y1="812.499" x2="147.425" y2="808.875"/>
		<line fill="none" stroke="#E52621" stroke-miterlimit="10" x1="153.019" y1="816.825" x2="145.534" y2="812.536"/>
		<line fill="none" stroke="#E52621" stroke-miterlimit="10" x1="150.414" y1="820.94" x2="143.332" y2="816.017"/>
		<line fill="none" stroke="#E52621" stroke-miterlimit="10" x1="147.462" y1="824.814" x2="140.836" y2="819.292"/>
		<line fill="none" stroke="#E52621" stroke-miterlimit="10" x1="144.185" y1="828.416" x2="138.064" y2="822.34"/>
		<line fill="none" stroke="#E52621" stroke-miterlimit="10" x1="140.606" y1="831.72" x2="135.038" y2="825.132"/>
		<line fill="none" stroke="#E52621" stroke-miterlimit="10" x1="136.754" y1="834.7" x2="131.779" y2="827.651"/>
		<line fill="none" stroke="#E52621" stroke-miterlimit="10" x1="132.657" y1="837.331" x2="128.313" y2="829.877"/>
		<line fill="none" stroke="#E52621" stroke-miterlimit="10" x1="128.346" y1="839.6" x2="124.668" y2="831.795"/>
		<line fill="none" stroke="#E52621" stroke-miterlimit="10" x1="123.854" y1="841.481" x2="120.87" y2="833.387"/>
		<line fill="none" stroke="#E52621" stroke-miterlimit="10" x1="119.215" y1="842.965" x2="116.946" y2="834.641"/>
		<line fill="none" stroke="#E52621" stroke-miterlimit="10" x1="114.466" y1="844.04" x2="112.931" y2="835.551"/>
		<line fill="none" stroke="#E52621" stroke-miterlimit="10" x1="109.64" y1="844.697" x2="108.849" y2="836.105"/>
		<line fill="none" stroke="#E52621" stroke-miterlimit="10" x1="104.776" y1="844.933" x2="104.736" y2="836.307"/>
		<line fill="none" stroke="#E52621" stroke-miterlimit="10" x1="99.91" y1="844.746" x2="100.62" y2="836.146"/>
		<line fill="none" stroke="#E52621" stroke-miterlimit="10" x1="95.077" y1="844.133" x2="96.534" y2="835.628"/>
		<line fill="none" stroke="#E52621" stroke-miterlimit="10" x1="90.317" y1="843.104" x2="92.508" y2="834.757"/>
		<line fill="none" stroke="#E52621" stroke-miterlimit="10" x1="85.666" y1="841.662" x2="88.574" y2="833.538"/>
		<line fill="none" stroke="#E52621" stroke-miterlimit="10" x1="81.158" y1="839.824" x2="84.76" y2="831.984"/>
		<line fill="none" stroke="#E52621" stroke-miterlimit="10" x1="76.826" y1="837.598" x2="81.097" y2="830.103"/>
		<line fill="none" stroke="#E52621" stroke-miterlimit="10" x1="72.703" y1="835.006" x2="77.611" y2="827.909"/>
		<line fill="none" stroke="#E52621" stroke-miterlimit="10" x1="68.823" y1="832.063" x2="74.33" y2="825.421"/>
		<line fill="none" stroke="#E52621" stroke-miterlimit="10" x1="65.213" y1="828.795" x2="71.276" y2="822.655"/>
		<line fill="none" stroke="#E52621" stroke-miterlimit="10" x1="61.9" y1="825.225" x2="68.475" y2="819.636"/>
		<line fill="none" stroke="#E52621" stroke-miterlimit="10" x1="58.913" y1="821.379" x2="65.947" y2="816.385"/>
		<line fill="none" stroke="#E52621" stroke-miterlimit="10" x1="56.269" y1="817.288" x2="63.713" y2="812.924"/>
		<line fill="none" stroke="#E52621" stroke-miterlimit="10" x1="53.992" y1="812.983" x2="61.788" y2="809.283"/>
		<line fill="none" stroke="#E52621" stroke-miterlimit="10" x1="52.099" y1="808.496" x2="60.188" y2="805.488"/>
		<line fill="none" stroke="#E52621" stroke-miterlimit="10" x1="50.604" y1="803.861" x2="58.923" y2="801.569"/>
		<line fill="none" stroke="#E52621" stroke-miterlimit="10" x1="49.516" y1="799.114" x2="58.005" y2="797.554"/>
		<line fill="none" stroke="#E52621" stroke-miterlimit="10" x1="48.846" y1="794.289" x2="57.437" y2="793.474"/>
		<line fill="none" stroke="#E52621" stroke-miterlimit="10" x1="48.599" y1="789.428" x2="57.229" y2="789.361"/>
		<line fill="none" stroke="#E52621" stroke-miterlimit="10" x1="48.775" y1="784.561" x2="57.379" y2="785.246"/>
		<line fill="none" stroke="#E52621" stroke-miterlimit="10" x1="49.375" y1="779.728" x2="57.886" y2="781.158"/>
		<line fill="none" stroke="#E52621" stroke-miterlimit="10" x1="50.392" y1="774.965" x2="58.748" y2="777.131"/>
		<line fill="none" stroke="#E52621" stroke-miterlimit="10" x1="51.821" y1="770.308" x2="59.957" y2="773.192"/>
		<line fill="none" stroke="#E52621" stroke-miterlimit="10" x1="53.648" y1="765.794" x2="61.502" y2="769.375"/>
		<line fill="none" stroke="#E52621" stroke-miterlimit="10" x1="55.862" y1="761.456" x2="63.376" y2="765.708"/>
		<line fill="none" stroke="#E52621" stroke-miterlimit="10" x1="58.447" y1="757.326" x2="65.56" y2="762.217"/>
		<line fill="none" stroke="#E52621" stroke-miterlimit="10" x1="61.38" y1="753.438" x2="68.041" y2="758.931"/>
		<line fill="none" stroke="#E52621" stroke-miterlimit="10" x1="64.641" y1="749.819" x2="70.798" y2="755.869"/>
		<line fill="none" stroke="#E52621" stroke-miterlimit="10" x1="68.204" y1="746.5" x2="73.811" y2="753.062"/>
		<line fill="none" stroke="#E52621" stroke-miterlimit="10" x1="72.041" y1="743.502" x2="77.056" y2="750.526"/>
		<line fill="none" stroke="#E52621" stroke-miterlimit="10" x1="76.126" y1="740.849" x2="80.511" y2="748.285"/>
		<line fill="none" stroke="#E52621" stroke-miterlimit="10" x1="80.426" y1="738.561" x2="84.147" y2="746.35"/>
		<line fill="none" stroke="#E52621" stroke-miterlimit="10" x1="84.908" y1="736.656" x2="87.938" y2="744.741"/>
		<line fill="none" stroke="#E52621" stroke-miterlimit="10" x1="89.539" y1="735.149" x2="91.855" y2="743.467"/>
		<line fill="none" stroke="#E52621" stroke-miterlimit="10" x1="94.284" y1="734.052" x2="95.867" y2="742.539"/>
		<line fill="none" stroke="#E52621" stroke-miterlimit="10" x1="99.107" y1="733.368" x2="99.945" y2="741.962"/>
	</g>
	<g>
		<line fill="none" stroke="#E52621" stroke-miterlimit="10" x1="630.176" y1="246.495" x2="630.176" y2="255.125"/>
		<line fill="none" stroke="#E52621" stroke-miterlimit="10" x1="635.042" y1="246.707" x2="634.292" y2="255.304"/>
		<line fill="none" stroke="#E52621" stroke-miterlimit="10" x1="639.872" y1="247.342" x2="638.376" y2="255.841"/>
		<line fill="none" stroke="#E52621" stroke-miterlimit="10" x1="644.627" y1="248.395" x2="642.396" y2="256.731"/>
		<line fill="none" stroke="#E52621" stroke-miterlimit="10" x1="649.273" y1="249.857" x2="646.326" y2="257.968"/>
		<line fill="none" stroke="#E52621" stroke-miterlimit="10" x1="653.774" y1="251.719" x2="650.132" y2="259.542"/>
		<line fill="none" stroke="#E52621" stroke-miterlimit="10" x1="658.097" y1="253.965" x2="653.788" y2="261.442"/>
		<line fill="none" stroke="#E52621" stroke-miterlimit="10" x1="662.206" y1="256.579" x2="657.265" y2="263.652"/>
		<line fill="none" stroke="#E52621" stroke-miterlimit="10" x1="666.072" y1="259.54" x2="660.534" y2="266.157"/>
		<line fill="none" stroke="#E52621" stroke-miterlimit="10" x1="669.666" y1="262.826" x2="663.573" y2="268.937"/>
		<line fill="none" stroke="#E52621" stroke-miterlimit="10" x1="672.959" y1="266.413" x2="666.359" y2="271.97"/>
		<line fill="none" stroke="#E52621" stroke-miterlimit="10" x1="675.93" y1="270.272" x2="668.871" y2="275.235"/>
		<line fill="none" stroke="#E52621" stroke-miterlimit="10" x1="678.553" y1="274.376" x2="671.088" y2="278.705"/>
		<line fill="none" stroke="#E52621" stroke-miterlimit="10" x1="680.809" y1="278.692" x2="672.996" y2="282.355"/>
		<line fill="none" stroke="#E52621" stroke-miterlimit="10" x1="682.68" y1="283.188" x2="674.578" y2="286.158"/>
		<line fill="none" stroke="#E52621" stroke-miterlimit="10" x1="684.154" y1="287.83" x2="675.824" y2="290.083"/>
		<line fill="none" stroke="#E52621" stroke-miterlimit="10" x1="685.218" y1="292.583" x2="676.724" y2="294.103"/>
		<line fill="none" stroke="#E52621" stroke-miterlimit="10" x1="685.864" y1="297.41" x2="677.271" y2="298.184"/>
		<line fill="none" stroke="#E52621" stroke-miterlimit="10" x1="686.087" y1="302.275" x2="677.459" y2="302.299"/>
		<line fill="none" stroke="#E52621" stroke-miterlimit="10" x1="685.886" y1="307.143" x2="677.288" y2="306.414"/>
		<line fill="none" stroke="#E52621" stroke-miterlimit="10" x1="685.262" y1="311.972" x2="676.761" y2="310.499"/>
		<line fill="none" stroke="#E52621" stroke-miterlimit="10" x1="684.221" y1="316.73" x2="675.881" y2="314.521"/>
		<line fill="none" stroke="#E52621" stroke-miterlimit="10" x1="682.77" y1="321.379" x2="674.654" y2="318.452"/>
		<line fill="none" stroke="#E52621" stroke-miterlimit="10" x1="680.918" y1="325.884" x2="673.089" y2="322.263"/>
		<line fill="none" stroke="#E52621" stroke-miterlimit="10" x1="678.683" y1="330.211" x2="671.198" y2="325.922"/>
		<line fill="none" stroke="#E52621" stroke-miterlimit="10" x1="676.079" y1="334.327" x2="668.997" y2="329.402"/>
		<line fill="none" stroke="#E52621" stroke-miterlimit="10" x1="673.127" y1="338.2" x2="666.5" y2="332.679"/>
		<line fill="none" stroke="#E52621" stroke-miterlimit="10" x1="669.85" y1="341.803" x2="663.729" y2="335.725"/>
		<line fill="none" stroke="#E52621" stroke-miterlimit="10" x1="666.271" y1="345.106" x2="660.703" y2="338.519"/>
		<line fill="none" stroke="#E52621" stroke-miterlimit="10" x1="662.418" y1="348.085" x2="657.444" y2="341.039"/>
		<line fill="none" stroke="#E52621" stroke-miterlimit="10" x1="658.321" y1="350.717" x2="653.979" y2="343.264"/>
		<line fill="none" stroke="#E52621" stroke-miterlimit="10" x1="654.01" y1="352.985" x2="650.333" y2="345.18"/>
		<line fill="none" stroke="#E52621" stroke-miterlimit="10" x1="649.519" y1="354.867" x2="646.534" y2="346.771"/>
		<line fill="none" stroke="#E52621" stroke-miterlimit="10" x1="644.88" y1="356.351" x2="642.611" y2="348.027"/>
		<line fill="none" stroke="#E52621" stroke-miterlimit="10" x1="640.13" y1="357.426" x2="638.596" y2="348.937"/>
		<line fill="none" stroke="#E52621" stroke-miterlimit="10" x1="635.305" y1="358.084" x2="634.514" y2="349.493"/>
		<line fill="none" stroke="#E52621" stroke-miterlimit="10" x1="630.44" y1="358.32" x2="630.401" y2="349.692"/>
		<line fill="none" stroke="#E52621" stroke-miterlimit="10" x1="625.574" y1="358.132" x2="626.285" y2="349.532"/>
		<line fill="none" stroke="#E52621" stroke-miterlimit="10" x1="620.742" y1="357.519" x2="622.199" y2="349.015"/>
		<line fill="none" stroke="#E52621" stroke-miterlimit="10" x1="615.982" y1="356.49" x2="618.173" y2="348.143"/>
		<line fill="none" stroke="#E52621" stroke-miterlimit="10" x1="611.331" y1="355.049" x2="614.239" y2="346.925"/>
		<line fill="none" stroke="#E52621" stroke-miterlimit="10" x1="606.822" y1="353.21" x2="610.425" y2="345.37"/>
		<line fill="none" stroke="#E52621" stroke-miterlimit="10" x1="602.49" y1="350.985" x2="606.762" y2="343.488"/>
		<line fill="none" stroke="#E52621" stroke-miterlimit="10" x1="598.368" y1="348.392" x2="603.276" y2="341.295"/>
		<line fill="none" stroke="#E52621" stroke-miterlimit="10" x1="594.488" y1="345.45" x2="599.995" y2="338.807"/>
		<line fill="none" stroke="#E52621" stroke-miterlimit="10" x1="590.877" y1="342.181" x2="596.941" y2="336.042"/>
		<line fill="none" stroke="#E52621" stroke-miterlimit="10" x1="587.565" y1="338.61" x2="594.14" y2="333.022"/>
		<line fill="none" stroke="#E52621" stroke-miterlimit="10" x1="584.577" y1="334.765" x2="591.611" y2="329.77"/>
		<line fill="none" stroke="#E52621" stroke-miterlimit="10" x1="581.934" y1="330.675" x2="589.378" y2="326.311"/>
		<line fill="none" stroke="#E52621" stroke-miterlimit="10" x1="579.657" y1="326.37" x2="587.453" y2="322.669"/>
		<line fill="none" stroke="#E52621" stroke-miterlimit="10" x1="577.764" y1="321.882" x2="585.853" y2="318.875"/>
		<line fill="none" stroke="#E52621" stroke-miterlimit="10" x1="576.269" y1="317.247" x2="584.587" y2="314.955"/>
		<line fill="none" stroke="#E52621" stroke-miterlimit="10" x1="575.181" y1="312.5" x2="583.669" y2="310.94"/>
		<line fill="none" stroke="#E52621" stroke-miterlimit="10" x1="574.511" y1="307.676" x2="583.102" y2="306.861"/>
		<line fill="none" stroke="#E52621" stroke-miterlimit="10" x1="574.264" y1="302.813" x2="582.894" y2="302.748"/>
		<line fill="none" stroke="#E52621" stroke-miterlimit="10" x1="574.44" y1="297.946" x2="583.043" y2="298.632"/>
		<line fill="none" stroke="#E52621" stroke-miterlimit="10" x1="575.04" y1="293.113" x2="583.55" y2="294.545"/>
		<line fill="none" stroke="#E52621" stroke-miterlimit="10" x1="576.057" y1="288.351" x2="584.412" y2="290.517"/>
		<line fill="none" stroke="#E52621" stroke-miterlimit="10" x1="577.486" y1="283.694" x2="585.621" y2="286.579"/>
		<line fill="none" stroke="#E52621" stroke-miterlimit="10" x1="579.313" y1="279.18" x2="587.167" y2="282.762"/>
		<line fill="none" stroke="#E52621" stroke-miterlimit="10" x1="581.527" y1="274.842" x2="589.041" y2="279.095"/>
		<line fill="none" stroke="#E52621" stroke-miterlimit="10" x1="584.111" y1="270.713" x2="591.225" y2="275.604"/>
		<line fill="none" stroke="#E52621" stroke-miterlimit="10" x1="587.045" y1="266.825" x2="593.705" y2="272.316"/>
		<line fill="none" stroke="#E52621" stroke-miterlimit="10" x1="590.306" y1="263.206" x2="596.462" y2="269.256"/>
		<line fill="none" stroke="#E52621" stroke-miterlimit="10" x1="593.868" y1="259.886" x2="599.476" y2="266.448"/>
		<line fill="none" stroke="#E52621" stroke-miterlimit="10" x1="597.706" y1="256.888" x2="602.721" y2="263.913"/>
		<line fill="none" stroke="#E52621" stroke-miterlimit="10" x1="601.791" y1="254.235" x2="606.176" y2="261.67"/>
		<line fill="none" stroke="#E52621" stroke-miterlimit="10" x1="606.091" y1="251.947" x2="609.812" y2="259.736"/>
		<line fill="none" stroke="#E52621" stroke-miterlimit="10" x1="610.573" y1="250.043" x2="613.603" y2="258.127"/>
		<line fill="none" stroke="#E52621" stroke-miterlimit="10" x1="615.203" y1="248.536" x2="617.52" y2="256.853"/>
		<line fill="none" stroke="#E52621" stroke-miterlimit="10" x1="619.948" y1="247.437" x2="621.532" y2="255.925"/>
		<line fill="none" stroke="#E52621" stroke-miterlimit="10" x1="624.772" y1="246.755" x2="625.609" y2="255.349"/>
	</g>
</g>
</svg>
