<?xml version="1.0" encoding="utf-8"?>
<!-- Generator: Adobe Illustrator 16.0.0, SVG Export Plug-In . SVG Version: 6.00 Build 0)  -->
<!DOCTYPE svg PUBLIC "-//W3C//DTD SVG 1.1//EN" "http://www.w3.org/Graphics/SVG/1.1/DTD/svg11.dtd">
<svg version="1.1" id="Calque_1" xmlns="http://www.w3.org/2000/svg" xmlns:xlink="http://www.w3.org/1999/xlink" x="0px" y="0px"
	 width="1920px" height="1080px" viewBox="0 0 1920 1080" enable-background="new 0 0 1920 1080" xml:space="preserve">
<g id="Calque_1_1_">
	<g>
		<path fill="#999999" d="M990.102,748.73l16.666-4.988l-0.996-13.925l-16.927-1.81c-1.049-4.784-2.605-9.378-4.618-13.721
			l11.67-12.442l-7.862-11.538l-15.252,6.815c-3.33-3.625-7.061-6.878-11.111-9.698l3.765-16.332l-12.598-6.021l-9.596,13.339
			c-3.903-1.208-7.964-2.054-12.139-2.527l-4.291-15.998l-3.11,0.132l-0.06-0.191l-5.104,0.414l-5.675,0.242l-0.03,0.221
			l-3.108,0.251l-1.581,16.263c-4.098,0.958-8.048,2.289-11.816,3.965L884.62,669.55l-11.758,7.531l6.259,15.151
			c-3.738,3.31-7.1,7.026-10.022,11.084l-16.091-4.195l-6.377,12.422l13.175,10.063c-1.505,4.615-2.528,9.446-2.997,14.44
			l-16.261,4.528l0.731,13.942l16.756,2.116c1.037,4.785,2.587,9.376,4.587,13.72l-12.004,12.323l7.643,11.683l15.851-6.724
			c3.198,3.486,6.771,6.623,10.639,9.369l-4.26,16.999l12.479,6.258l10.46-13.967c4.393,1.375,8.982,2.301,13.712,2.744
			l4.919,17.029l13.935-0.866l2.034-17.47c4.592-1.018,9.002-2.51,13.186-4.419l12.847,12.281l11.611-7.752l-7.003-16.078
			c3.439-3.151,6.538-6.665,9.26-10.469l17.174,4.13l6.141-12.538l-13.957-10.247C988.694,758.188,989.648,753.532,990.102,748.73z
			 M923.641,797.307c-30.019,0-54.354-24.334-54.354-54.354s24.335-54.354,54.354-54.354c30.02,0,54.354,24.334,54.354,54.354
			C977.995,772.973,953.66,797.307,923.641,797.307z"/>
	</g>
	<g>
		<path fill="#999999" d="M1137.05,392.22l16.027-6.76l-2.495-13.736l-17.023,0.032c-1.558-4.644-3.604-9.04-6.073-13.141
			l10.256-13.633l-9.065-10.62l-14.423,8.426c-3.703-3.245-7.763-6.073-12.096-8.441l1.978-16.644l-13.177-4.624l-8.099,14.298
			c-4.011-0.777-8.139-1.18-12.339-1.199l-5.996-15.442l-3.078,0.469l-0.079-0.185l-5.031,0.963l-5.614,0.856l-0.007,0.221
			l-3.063,0.587l0.188,16.337c-3.971,1.396-7.754,3.147-11.32,5.219l-12.896-10.293l-10.874,8.759l7.86,14.388
			c-3.357,3.692-6.298,7.752-8.766,12.102l-16.45-2.432l-4.998,13.037l14.188,8.583c-0.997,4.75-1.491,9.664-1.418,14.681
			l-15.677,6.26l2.236,13.782l16.885,0.291c1.549,4.646,3.587,9.042,6.046,13.146l-10.603,13.547l8.86,10.79l15.03-8.4
			c3.559,3.121,7.447,5.854,11.59,8.166l-2.396,17.359l13.083,4.87l8.889-15.017c4.516,0.894,9.18,1.317,13.93,1.245l6.731,16.398
			l13.758-2.367l0.134-17.586c4.455-1.51,8.679-3.469,12.63-5.818l14.102,10.819l10.705-8.964l-8.701-15.227
			c3.079-3.506,5.778-7.332,8.073-11.409l17.52,2.25l4.747-13.13l-14.982-8.676C1136.676,401.775,1137.12,397.044,1137.05,392.22z
			 M1076.23,447.698c-29.842,3.246-56.666-18.313-59.912-48.158c-3.245-29.842,18.314-56.667,48.157-59.912
			c29.843-3.246,56.667,18.313,59.914,48.158C1127.637,417.629,1106.075,444.452,1076.23,447.698z"/>
	</g>
	<g>
		<path fill="#999999" d="M1665.275,719.69l2.451-15.985l-18.973-6.5c0.02-5.413-0.536-10.89-1.695-16.357l16.697-11.275
			l-5.917-15.052l-19.338,3.855c-2.813-4.93-6.125-9.468-9.851-13.57l8.596-17.793l-12.682-10.035l-14.502,12.81
			c-4.938-2.855-10.186-5.161-15.641-6.881l-1.488-19.354l-16.01-2.299l-5.996,18.063c-4.729,0.017-9.514,0.484-14.289,1.404
			l-10.279-16.204l-3.393,1.223l-0.133-0.192l-5.501,2.224l-6.188,2.232l0.043,0.254l-3.349,1.353l3.876,18.523
			c-4.197,2.477-8.104,5.314-11.693,8.47l-16.965-8.806l-10.392,12.392l12.159,14.588c-2.988,4.95-5.42,10.224-7.249,15.721
			l-19.239,0.928l-2.757,15.935l18.049,6.57c-0.067,5.622,0.475,11.317,1.683,17.002l-16.411,10.63l5.631,15.161l19.255-3.456
			c2.801,4.931,6.104,9.471,9.818,13.581l-9.013,17.773l12.492,10.273l15.196-12.917c4.743,2.75,9.777,4.98,15.003,6.682
			l1.168,20.266l15.962,2.601l6.735-19.059c5.329,0.003,10.725-0.563,16.105-1.708l11.326,17.123l15.106-5.774l-3.793-20.015
			c4.724-2.715,9.082-5.889,13.048-9.446l18.452,9.134l10.152-12.588l-13.303-15.353c2.713-4.673,4.924-9.627,6.616-14.773
			L1665.275,719.69z M1590.386,757.536c-33.186,10.382-68.505-8.104-78.888-41.289c-10.381-33.188,8.104-68.508,41.289-78.891
			c33.188-10.381,68.506,8.104,78.889,41.292C1642.059,711.835,1623.571,747.154,1590.386,757.536z"/>
	</g>
	<g>
		<path fill="#999999" d="M1883.197,380.611l29.423-10.416l-2.974-24.493l-30.55-1.741c-2.194-7.962-5.266-15.778-9.217-23.333
			l19.892-23.438l-14.887-19.676l-26.822,13.619c-6.162-6.081-12.894-11.386-20.055-15.883l5.309-29.679l-22.763-9.523
			l-16.032,24.787c-8.43-2.167-17.088-3.394-25.809-3.674l-10.148-27.826l-24.468,3.209l-1.377,29.006
			c-6.944,1.97-13.774,4.626-20.416,7.94l-21.767-19.576l-4.483,3.192l-0.271-0.229l-7.166,5.53l-8.175,5.827l0.166,0.354
			l-4.359,3.366l13.314,25.616c-5.148,5.369-9.721,11.146-13.697,17.254l-28.543-5.955l-10.17,22.48l23.865,16.429
			c-2.354,8.501-3.756,17.248-4.182,26.074l-27.885,9.278l2.508,24.545l29.219,2.229c2.213,8.287,5.353,16.431,9.465,24.286
			l-19.736,22.369l14.513,19.955l26.862-13c6.145,6.092,12.865,11.4,20.013,15.913l-5.927,29.818l22.578,9.954l17.013-25.227
			c8.101,2.087,16.413,3.293,24.788,3.641l10.055,29.291l24.518-2.746l2.058-30.769c7.831-2.192,15.524-5.24,22.961-9.139
			l23.685,20.498l19.816-14.698l-13.806-27.847c5.819-5.933,10.92-12.388,15.282-19.243l30.865,5.825l9.736-22.667l-25.859-17.083
			C1881.619,397.058,1882.829,388.868,1883.197,380.611z M1818.17,456.609c-44.479,28.905-103.977,16.278-132.882-28.203
			c-28.905-44.484-16.278-103.979,28.202-132.886c44.484-28.905,103.979-16.276,132.885,28.206
			C1875.282,368.207,1862.652,427.702,1818.17,456.609z"/>
	</g>
	<g>
		<path fill="#999999" d="M356.397,425.843l1.884-15.438l-18.119-5.592c-0.124-5.455-0.847-10.809-2.12-15.986l15.416-11.113
			l-6.133-14.294l-18.129,4.195c-2.867-4.674-6.25-9.024-10.078-12.977l7.604-17.053l-12.489-9.272l-13.34,12.533
			c-4.009-2.152-8.268-3.944-12.73-5.354l-1.275-18.409l-3.43-0.518l-0.023-0.223l-5.669-0.64l-6.257-0.944l-0.08,0.232
			l-3.452-0.387l-5.201,17.44c-4.685,0.175-9.288,0.786-13.767,1.812l-10.317-15.212l-14.463,5.723l3.607,17.904
			c-4.792,2.818-9.262,6.165-13.325,9.977l-16.697-8.022l-9.625,12.217l12.256,13.817c-2.631,4.726-4.78,9.788-6.361,15.149
			l-18.745,1.479l-2.177,15.399l17.867,5.89c0.112,5.455,0.828,10.804,2.087,15.98l-15.757,10.907l5.861,14.408l18.765-3.968
			c2.754,4.494,5.988,8.687,9.631,12.516l-8.288,17.675l12.308,9.506l14.418-13.035c4.508,2.44,9.331,4.436,14.407,5.929
			l1.741,19.668l15.419,2.028l5.954-18.661c5.239-0.137,10.378-0.825,15.358-2.019l11.425,16.169l14.35-5.996l-4.223-19.072
			c4.434-2.713,8.57-5.894,12.359-9.471l17.893,8.185l9.392-12.397l-13.073-14.182c2.497-4.569,4.534-9.454,6.054-14.609
			L356.397,425.843z M325.109,418.836c-6.409,32.818-38.213,54.229-71.033,47.817c-32.818-6.409-54.23-38.212-47.82-71.031
			c6.41-32.82,38.211-54.23,71.033-47.82C310.109,354.213,331.519,386.015,325.109,418.836z"/>
	</g>
	<g>
		<path fill="#999999" d="M196.672,807.97l1.916-15.69l-18.416-5.685c-0.126-5.545-0.862-10.984-2.154-16.247l15.668-11.296
			l-6.234-14.529l-18.426,4.268c-2.914-4.752-6.353-9.176-10.243-13.19l7.729-17.332l-12.693-9.425l-13.559,12.738
			c-4.075-2.187-8.403-4.009-12.938-5.44l-1.296-18.712l-3.486-0.524l-0.023-0.228l-5.763-0.65l-6.359-0.961l-0.081,0.238
			l-3.508-0.396l-5.286,17.728c-4.761,0.177-9.44,0.799-13.992,1.841L77.04,699.015l-14.7,5.815l3.667,18.198
			c-4.871,2.863-9.414,6.265-13.543,10.142l-16.97-8.154l-9.783,12.417l12.457,14.044c-2.674,4.8-4.858,9.946-6.465,15.396
			l-19.052,1.501l-2.212,15.654l18.159,5.984c0.114,5.543,0.841,10.981,2.122,16.243l-16.015,11.087l5.957,14.643l19.073-4.033
			c2.799,4.569,6.086,8.829,9.789,12.723L41.1,858.64l12.51,9.662l14.654-13.25c4.582,2.48,9.484,4.507,14.644,6.022l1.769,19.992
			l15.672,2.063l6.051-18.969c5.324-0.137,10.548-0.838,15.61-2.05l11.612,16.434l14.585-6.095l-4.292-19.387
			c4.506-2.755,8.71-5.988,12.562-9.622l18.185,8.315l9.545-12.602L170.92,824.74c2.537-4.644,4.608-9.606,6.153-14.849
			L196.672,807.97z M164.909,800.82c-6.514,33.357-38.839,55.117-72.197,48.604c-33.355-6.517-55.117-38.837-48.603-72.194
			c6.516-33.358,38.838-55.12,72.197-48.605C149.663,735.139,171.423,767.462,164.909,800.82z"/>
	</g>
	<g>
		<path fill="#999999" d="M725.616,322.029l1.983-16.249l-19.07-5.886c-0.131-5.741-0.893-11.375-2.231-16.826l16.224-11.695
			l-6.453-15.045l-19.082,4.417c-3.019-4.922-6.579-9.501-10.607-13.66l8.003-17.949l-13.145-9.759l-14.041,13.19
			c-4.22-2.265-8.702-4.149-13.399-5.635l-1.341-19.376l-3.611-0.544l-0.023-0.235l-5.968-0.672l-6.586-0.995l-0.084,0.246
			l-3.633-0.408l-5.474,18.356c-4.931,0.184-9.776,0.828-14.49,1.906l-10.857-16.012l-15.224,6.023l3.797,18.844
			c-5.044,2.966-9.748,6.488-14.024,10.502l-17.574-8.443l-10.13,12.858l12.9,14.542c-2.77,4.974-5.031,10.303-6.695,15.945
			l-19.729,1.556l-2.292,16.21l18.807,6.199c0.117,5.74,0.871,11.371,2.196,16.82l-16.584,11.48l6.169,15.163l19.752-4.175
			c2.898,4.73,6.303,9.143,10.137,13.173l-8.724,18.604l12.955,10.006l15.177-13.721c4.744,2.567,9.82,4.666,15.164,6.238
			l1.832,20.702l16.229,2.135l6.267-19.643c5.514-0.143,10.924-0.866,16.165-2.122l12.025,17.017l15.104-6.31l-4.445-20.076
			c4.666-2.854,9.02-6.202,13.008-9.967l18.833,8.612l9.884-13.049L698.947,339.4c2.627-4.809,4.771-9.951,6.372-15.377
			L725.616,322.029z M692.723,314.625c-6.746,34.544-40.221,57.076-74.766,50.331c-34.542-6.746-57.078-40.22-50.332-74.764
			c6.748-34.544,40.219-57.079,74.764-50.333C676.933,246.608,699.468,280.08,692.723,314.625z"/>
	</g>
	<g>
		<path fill="#999999" d="M410.125,643.597l27.316-10.374l-3.426-23.671l-28.596-0.978c-2.399-8.084-5.694-15.894-9.807-23.283
			l18.075-22.305l-14.861-18.738l-24.798,13.311c-5.099-4.791-10.712-9.146-16.778-13.018l5.428-27.85l-4.889-2.133l0.055-0.34
			l-8.166-3.203l-8.918-3.893l-0.211,0.313l-4.973-1.947l-14.66,23.835c-7.028-1.604-14.108-2.525-21.168-2.785l-9.273-26.696
			l-23.758,2.747l-1.762,28.027c-8.239,2.279-16.208,5.474-23.759,9.521l-21.608-18.559l-19.157,14.32l12.709,25.396
			c-5.787,5.971-10.992,12.636-15.473,19.971l-28.429-5.259l-9.358,22.009l24.195,15.852c-2.003,8.146-3.068,16.376-3.256,24.566
			l-27.741,9.936l2.976,23.729l29.45,1.568c2.302,7.772,5.439,15.284,9.327,22.422l-19.339,22.957l14.5,19.014l26.6-13.627
			c5.726,5.417,12.095,10.297,19.041,14.533l-5.236,29.905l22.095,9.146l16.266-25.354c7.834,1.886,15.741,2.905,23.612,3.114
			l10.539,28.561l23.699-3.2l1.313-30.007c7.663-2.265,15.071-5.344,22.122-9.149l23.321,19.271l18.879-14.68l-13.777-26.263
			c5.525-5.792,10.494-12.239,14.802-19.292l29.396,4.857l8.938-22.182l-24.688-15.512
			C408.901,660.031,409.956,651.794,410.125,643.597z M378.981,683.024c-22.572,46.198-78.323,65.347-124.521,42.775
			c-46.195-22.573-65.348-78.321-42.776-124.521c22.574-46.198,78.322-65.352,124.521-42.778
			C382.402,581.075,401.554,636.825,378.981,683.024z"/>
	</g>
	<g>
		<path fill="#999999" d="M727.97,567.109l32.524-12.352l-4.079-28.185l-34.048-1.163c-2.855-9.627-6.778-18.923-11.676-27.724
			l21.521-26.557l-17.695-22.312l-29.525,15.847c-6.071-5.703-12.754-10.891-19.978-15.496l6.463-33.16l-5.82-2.54l0.064-0.405
			l-9.723-3.813l-10.618-4.635l-0.252,0.375l-5.921-2.318l-17.455,28.378c-8.368-1.908-16.797-3.008-25.205-3.314l-11.041-31.789
			l-28.288,3.271l-2.099,33.373c-9.811,2.713-19.297,6.515-28.289,11.334l-25.729-22.097l-22.808,17.05l15.132,30.236
			c-6.89,7.11-13.088,15.047-18.422,23.779l-33.85-6.262l-11.143,26.206l28.81,18.875c-2.386,9.696-3.653,19.499-3.878,29.249
			l-33.029,11.828l3.542,28.254l35.064,1.871c2.741,9.252,6.478,18.198,11.105,26.694L448.6,656.943l17.267,22.638l31.672-16.226
			c6.816,6.451,14.4,12.261,22.671,17.306l-6.234,35.607l26.308,10.889l19.366-30.187c9.328,2.243,18.743,3.46,28.115,3.709
			l12.548,34.004l28.218-3.81l1.563-35.73c9.123-2.695,17.945-6.36,26.34-10.894l27.769,22.944l22.479-17.479l-16.402-31.271
			c6.577-6.897,12.493-14.57,17.623-22.968l35.002,5.781l10.644-26.41l-29.397-18.47C726.512,586.681,727.77,576.867,727.97,567.109
			z M690.888,614.057c-26.875,55.006-93.256,77.806-148.263,50.93c-55.002-26.875-77.808-93.256-50.932-148.261
			c26.878-55.007,93.255-77.812,148.264-50.934C694.961,492.669,717.765,559.047,690.888,614.057z"/>
	</g>
	<g>
		<path fill="#999999" d="M1326.949,581.136l2.883-21.229l-24.854-8.038c-0.07-7.517-0.969-14.902-2.622-22.058l21.438-15.021
			l-8.181-19.801l-25.051,5.444c-3.859-6.495-8.439-12.552-13.64-18.064l10.791-23.343l-17.028-13.006l-18.605,17.016
			c-5.483-3.038-11.317-5.588-17.436-7.612l-1.416-25.379l-4.715-0.777l-0.025-0.308l-7.798-0.982l-8.601-1.419l-0.113,0.319
			l-4.745-0.6l-7.487,23.926c-6.458,0.152-12.811,0.91-18.997,2.239l-13.927-21.146l-20.027,7.614l4.635,24.728
			c-6.653,3.791-12.871,8.317-18.537,13.495l-22.848-11.362l-13.48,16.649l16.621,19.259c-3.712,6.456-6.769,13.392-9.043,20.746
			l-25.847,1.688l-3.286,21.172l24.502,8.443c0.055,7.514,0.939,14.896,2.577,22.049l-21.904,14.734l7.806,19.949l25.922-5.114
			c3.707,6.241,8.084,12.075,13.029,17.418l-11.742,24.19l16.775,13.321l20.104-17.688c6.165,3.447,12.766,6.279,19.73,8.434
			l2.036,27.122l21.198,3.082l8.549-25.597c7.214-0.088,14.31-0.94,21.189-2.491l15.437,22.481l19.874-7.991l-5.464-26.352
			c6.158-3.651,11.917-7.954,17.2-12.81l24.495,11.602l13.162-16.9l-17.742-19.775c3.521-6.246,6.421-12.938,8.608-20.011
			L1326.949,581.136z M1283.984,570.902c-9.439,45.085-53.642,73.984-98.725,64.546c-45.085-9.438-73.983-53.639-64.547-98.726
			c9.438-45.086,53.643-73.982,98.725-64.545C1264.523,481.615,1293.422,525.816,1283.984,570.902z"/>
	</g>
	<g>
		<path fill="#999999" d="M1033.898,556.134l3.147-23.183l-27.141-8.776c-0.077-8.208-1.058-16.274-2.863-24.086l23.409-16.402
			l-8.935-21.622l-27.354,5.945c-4.214-7.094-9.216-13.707-14.894-19.727l11.783-25.489l-18.595-14.202l-20.317,18.581
			c-5.987-3.318-12.357-6.103-19.039-8.313l-1.545-27.713l-5.147-0.849l-0.029-0.335l-8.515-1.074l-9.391-1.549l-0.125,0.349
			l-5.182-0.654l-8.176,26.126c-7.053,0.167-13.988,0.994-20.744,2.445l-15.208-23.09l-21.869,8.315l5.061,27
			c-7.266,4.141-14.055,9.083-20.243,14.736l-24.947-12.407l-14.721,18.182l18.15,21.029c-4.054,7.051-7.391,14.624-9.875,22.654
			l-28.224,1.844l-3.588,23.119l26.755,9.22c0.059,8.205,1.025,16.269,2.813,24.077l-23.919,16.089l8.522,21.785l28.306-5.586
			c4.048,6.815,8.828,13.188,14.229,19.021l-12.822,26.416l18.318,14.547l21.951-19.314c6.732,3.766,13.94,6.856,21.545,9.208
			l2.225,29.616l23.147,3.366l9.335-27.95c7.877-0.096,15.625-1.028,23.139-2.722l16.855,24.551l21.702-8.727l-5.966-28.775
			c6.725-3.986,13.013-8.686,18.783-13.987l26.747,12.669l14.373-18.455l-19.374-21.595c3.847-6.821,7.012-14.128,9.4-21.851
			L1033.898,556.134z M986.982,544.959c-10.309,49.23-58.574,80.788-107.805,70.481c-49.23-10.308-80.789-58.571-70.482-107.805
			c10.306-49.232,58.574-80.787,107.804-70.481C965.73,447.461,997.287,495.727,986.982,544.959z"/>
	</g>
	<g>
		<path fill="#999999" d="M1608.859,457.511l33.927-12.299l-3.705-28.722l-35.271-1.745c-2.737-9.788-6.51-19.112-11.187-27.87
			l22.699-27.146l-17.647-22.967l-30.779,15.919c-7.326-7.119-15.43-13.412-24.154-18.778l5.865-34.265l-26.801-10.983
			l-18.297,28.754c-8.228-2.035-16.736-3.31-25.437-3.799l-10.778-32.628l-6.427,0.645l-0.144-0.393l-10.523,1.459l-11.727,1.175
			l-0.035,0.458l-6.403,0.889l-1.354,33.861c-8.375,2.473-16.399,5.697-24.006,9.606l-25.617-22.698l-23.462,16.985l14.749,30.643
			c-7.353,7.291-13.874,15.386-19.447,24.138l-33.82-6.792l-11.738,26.478l28.475,19.288c-2.574,9.731-4.122,19.861-4.507,30.261
			l-33.139,11.299l3.162,28.787l34.949,2.401c2.713,9.789,6.467,19.113,11.12,27.873l-23.403,26.937l17.207,23.297l32.032-15.8
			c7.037,6.843,14.803,12.917,23.136,18.149l-6.813,35.707l26.585,11.484l20.013-30.162c9.26,2.332,18.873,3.707,28.722,4.066
			l12.198,34.685l28.754-3.438l2.152-36.414c9.387-2.653,18.344-6.264,26.783-10.709l28.057,23.915l23.129-17.427l-16.401-32.471
			c6.751-6.934,12.753-14.574,17.94-22.772l36.056,6.524l11.233-26.691l-30.114-19.569
			C1607.063,477.265,1608.492,467.511,1608.859,457.511z M1476.959,565.959c-62.164,3.544-115.438-43.98-118.983-106.147
			c-3.544-62.169,43.98-115.438,106.147-118.983c62.168-3.545,115.438,43.979,118.982,106.147
			C1586.652,509.144,1539.127,562.413,1476.959,565.959z"/>
	</g>
</g>
<path fill="none" d="M1259.21,565.646c3.176-15.171,0.254-30.67-8.228-43.643c-8.481-12.973-21.508-21.866-36.679-25.041
	c-3.942-0.826-7.965-1.244-11.953-1.244c-27.274,0-51.132,19.408-56.729,46.147c-6.555,31.315,13.59,62.127,44.905,68.686
	c3.942,0.825,7.964,1.243,11.952,1.243C1229.752,611.794,1253.61,592.386,1259.21,565.646z"/>
<path fill="none" d="M1828.615,334.987c-10.973-16.782-27.823-28.287-47.45-32.396c-5.099-1.067-10.301-1.609-15.461-1.609
	c-35.286,0-66.151,25.107-73.389,59.7c-8.48,40.513,17.579,80.373,58.091,88.854c5.1,1.068,10.302,1.609,15.462,1.609
	c35.281,0,66.146-25.107,73.389-59.699C1843.366,371.821,1839.587,351.769,1828.615,334.987z"/>
<path fill="none" d="M897.802,460.192c-36.651,0-66.47,29.818-66.47,66.47c0,36.652,29.818,66.471,66.47,66.471
	s66.47-29.818,66.47-66.471C964.271,490.01,934.453,460.192,897.802,460.192z"/>
<path fill="none" d="M295.26,567.962c-40.875,0-74.129,33.254-74.129,74.129s33.254,74.129,74.129,74.129
	s74.129-33.254,74.129-74.129S336.135,567.962,295.26,567.962z"/>
<path fill="#999999" d="M897.802,450.192c-42.166,0-76.47,34.304-76.47,76.47c0,42.166,34.304,76.471,76.47,76.471
	s76.47-34.305,76.47-76.471C974.271,484.496,939.967,450.192,897.802,450.192z M895.302,452.691h2.5
	c8.141,0,16.141,1.314,23.779,3.906l2.368,0.803l-1.607,4.735l-2.367-0.804c-7.12-2.416-14.58-3.641-22.172-3.641h-2.5V452.691z
	 M856.592,465.224c6.738-4.528,14.115-7.891,21.926-9.995l2.414-0.65l1.3,4.828l-2.414,0.65c-7.281,1.961-14.157,5.096-20.438,9.316
	l-2.075,1.395l-2.789-4.15L856.592,465.224z M834.914,487.697c1.27-2.046,2.658-4.055,4.125-5.971l1.52-1.985l3.97,3.04l-1.52,1.985
	c-1.369,1.787-2.663,3.66-3.847,5.568l-1.319,2.124l-4.248-2.637L834.914,487.697z M827.01,548.322l-0.649-2.415
	c-1.678-6.246-2.529-12.721-2.529-19.246c0-5.632,0.636-11.246,1.89-16.685l0.562-2.437l4.872,1.124l-0.562,2.436
	c-1.169,5.071-1.762,10.307-1.762,15.562c0,6.087,0.793,12.126,2.358,17.949l0.648,2.414L827.01,548.322z M854.82,586.92
	l-1.984-1.521c-6.43-4.93-11.979-10.838-16.492-17.561l-1.394-2.076l4.152-2.786l1.393,2.075
	c4.209,6.271,9.384,11.781,15.382,16.379l1.984,1.521L854.82,586.92z M883.512,599.295l-2.436-0.563
	c-2.346-0.543-4.695-1.21-6.982-1.982l-2.368-0.8l1.6-4.737l2.369,0.801c2.132,0.72,4.322,1.342,6.509,1.848l2.436,0.563
	L883.512,599.295z M938.945,588.142c-10.072,6.753-21.771,10.948-33.83,12.133l-2.488,0.244l-0.489-4.977l2.488-0.244
	c11.241-1.104,22.145-5.014,31.534-11.309l2.076-1.393l2.785,4.153L938.945,588.142z M897.802,593.132
	c-36.651,0-66.47-29.818-66.47-66.471c0-36.651,29.818-66.47,66.47-66.47s66.47,29.818,66.47,66.47
	C964.271,563.314,934.453,593.132,897.802,593.132z M967.877,550.407c-2.595,7.66-6.418,14.811-11.362,21.253l-1.522,1.982
	l-3.966-3.044l1.522-1.983c4.611-6.007,8.175-12.672,10.593-19.812l0.803-2.368l4.735,1.604L967.877,550.407z M971.418,519.381
	c0.233,2.383,0.353,4.821,0.354,7.245l0.002,2.5l-5,0.004l-0.002-2.5c-0.002-2.263-0.113-4.538-0.331-6.761l-0.243-2.488
	l4.976-0.487L971.418,519.381z M966.219,498.383l-4.552,2.067l-1.034-2.276c-4.664-10.27-11.875-19.344-20.852-26.241l-1.982-1.523
	l3.046-3.965l1.982,1.523c9.625,7.395,17.356,17.125,22.358,28.138L966.219,498.383z"/>
<path fill="#999999" d="M295.26,557.962c-46.389,0-84.129,37.74-84.129,84.129s37.74,84.129,84.129,84.129
	c46.389,0,84.129-37.74,84.129-84.129S341.649,557.962,295.26,557.962z M327.492,567.031l2.265,1.058
	c8.087,3.776,15.468,8.831,21.938,15.025l1.806,1.729l-3.458,3.612l-1.806-1.729c-6.076-5.815-13.005-10.562-20.597-14.105
	l-2.265-1.058L327.492,567.031z M292.761,560.461h2.5c5.953,0,11.895,0.645,17.662,1.916l2.441,0.538l-1.076,4.883l-2.441-0.538
	c-5.414-1.193-10.994-1.799-16.585-1.799h-2.5V560.461z M275.697,562.822c1.721-0.423,3.479-0.795,5.225-1.104l2.462-0.437
	l0.873,4.924l-2.461,0.437c-1.64,0.29-3.29,0.639-4.904,1.036l-2.428,0.597l-1.194-4.855L275.697,562.822z M237.438,584.471
	c6.32-6.342,13.577-11.569,21.569-15.538l2.239-1.111l2.224,4.479l-2.239,1.111c-7.503,3.726-14.317,8.634-20.251,14.589
	l-1.765,1.771l-3.542-3.529L237.438,584.471z M218.488,614.292c2.018-5.572,4.657-10.938,7.845-15.95l1.342-2.109l4.219,2.684
	l-1.342,2.109c-2.992,4.704-5.469,9.74-7.363,14.97l-0.851,2.351l-4.701-1.703L218.488,614.292z M213.795,636.886
	c0.111-1.768,0.282-3.556,0.508-5.315l0.319-2.479l4.959,0.638l-0.319,2.479c-0.212,1.652-0.373,3.331-0.477,4.991l-0.157,2.494
	l-4.99-0.313L213.795,636.886z M224.054,682.106l-1.159-2.215c-4.147-7.923-6.941-16.422-8.305-25.261l-0.381-2.471l4.942-0.762
	l0.381,2.471c1.279,8.294,3.901,16.269,7.793,23.704l1.16,2.215L224.054,682.106z M247.628,708.435l-1.984-1.521
	c-4.704-3.605-9.027-7.734-12.848-12.271l-1.61-1.912l3.824-3.221l1.61,1.912c3.589,4.261,7.648,8.138,12.066,11.523l1.984,1.521
	L247.628,708.435z M268.092,719.13l-2.331-0.904c-1.66-0.645-3.315-1.35-4.919-2.097l-2.267-1.056l2.111-4.532l2.266,1.055
	c1.506,0.701,3.06,1.363,4.618,1.968l2.331,0.904L268.092,719.13z M309.521,722.476c-4.676,0.824-9.474,1.242-14.26,1.243
	c-4.129,0-8.274-0.312-12.32-0.925l-2.472-0.375l0.75-4.943l2.472,0.375c8.201,1.244,16.784,1.142,24.963-0.299l2.462-0.434
	l0.868,4.924L309.521,722.476z M342.142,708.922c-4.86,3.415-10.096,6.299-15.561,8.57l-2.309,0.959l-1.919-4.616l2.309-0.96
	c5.129-2.132,10.042-4.838,14.605-8.045l2.045-1.437l2.875,4.091L342.142,708.922z M295.26,716.22
	c-40.875,0-74.129-33.254-74.129-74.129s33.254-74.129,74.129-74.129s74.129,33.254,74.129,74.129S336.135,716.22,295.26,716.22z
	 M358.962,693.138c-1.113,1.387-2.283,2.752-3.477,4.056l-1.689,1.844l-3.687-3.377l1.688-1.844
	c1.121-1.224,2.219-2.505,3.264-3.808l1.564-1.95l3.9,3.129L358.962,693.138z M376.208,652.692
	c-1.151,8.875-3.74,17.44-7.695,25.459l-1.106,2.242l-4.484-2.211l1.106-2.242c3.711-7.524,6.141-15.563,7.221-23.891l0.321-2.479
	l4.958,0.644L376.208,652.692z M372.369,615.119l0.752,2.385c1.781,5.645,2.945,11.509,3.459,17.431l0.216,2.49l-4.981,0.433
	l-0.216-2.491c-0.482-5.558-1.575-11.061-3.246-16.358l-0.752-2.384L372.369,615.119z M361.734,594.636l1.392,2.077
	c0.985,1.471,1.935,2.993,2.824,4.528l1.253,2.163l-4.327,2.506l-1.253-2.163c-0.835-1.44-1.727-2.871-2.652-4.251l-1.391-2.077
	L361.734,594.636z"/>
<path fill="#999999" d="M1216.353,487.175c-4.615-0.966-9.326-1.456-14.002-1.456c-31.981,0-59.955,22.751-66.516,54.098
	c-7.686,36.712,15.931,72.833,52.644,80.521c4.615,0.967,9.325,1.456,14.001,1.456c31.979,0,59.954-22.752,66.518-54.1
	c3.724-17.785,0.299-35.955-9.645-51.164C1249.409,501.322,1234.138,490.897,1216.353,487.175z M1234.757,496.7l2.125,1.317
	c1.812,1.122,3.592,2.35,5.292,3.649l1.986,1.518l-3.035,3.973l-1.986-1.518c-1.571-1.2-3.217-2.335-4.89-3.372l-2.125-1.316
	L1234.757,496.7z M1185.32,490.485c10.302-2.776,21.421-2.981,31.821-0.591l2.437,0.56l-1.119,4.873l-2.437-0.56
	c-9.605-2.207-19.886-2.019-29.401,0.546l-2.414,0.65l-1.301-4.828L1185.32,490.485z M1150.358,513.956
	c4.362-5.697,9.592-10.615,15.543-14.616l2.074-1.395l2.79,4.149l-2.075,1.395c-5.499,3.697-10.331,8.241-14.361,13.506
	l-1.521,1.985l-3.97-3.04L1150.358,513.956z M1138.564,538.976c0.48-2.083,1.07-4.165,1.754-6.187l0.8-2.369l4.737,1.601
	l-0.801,2.368c-0.63,1.866-1.175,3.787-1.617,5.709l-0.562,2.436l-4.872-1.123L1138.564,538.976z M1149.361,592.299l-1.394-2.075
	c-5.983-8.917-9.704-19.276-10.759-29.958l-0.245-2.488l4.976-0.491l0.246,2.487c0.974,9.864,4.409,19.43,9.935,27.663l1.393,2.076
	L1149.361,592.299z M1183.766,616.638l-2.368-0.802c-6.783-2.297-13.117-5.681-18.825-10.058l-1.983-1.521l3.042-3.968l1.984,1.521
	c5.272,4.043,11.122,7.168,17.386,9.288l2.368,0.802L1183.766,616.638z M1145.622,541.865c5.597-26.739,29.454-46.147,56.729-46.147
	c3.988,0,8.011,0.418,11.953,1.244c15.171,3.175,28.197,12.067,36.679,25.041c8.481,12.973,11.403,28.472,8.228,43.643
	c-5.6,26.74-29.458,46.148-56.73,46.148c-3.988,0-8.01-0.418-11.952-1.243C1159.212,603.992,1139.067,573.181,1145.622,541.865z
	 M1208.877,618.966c-2.119,0.208-4.277,0.313-6.417,0.314l-2.5,0.001l-0.002-5l2.5-0.001c1.978-0.001,3.973-0.099,5.931-0.291
	l2.488-0.244l0.488,4.977L1208.877,618.966z M1254.408,593.638c-6.548,8.525-15.165,15.373-24.918,19.805l-2.276,1.034l-2.068-4.553
	l2.276-1.034c9.01-4.093,16.971-10.42,23.021-18.297l1.522-1.983l3.966,3.046L1254.408,593.638z M1267.939,553.76
	c-0.001,7.209-1.165,14.294-3.46,21.06l-0.803,2.368l-4.735-1.606l0.804-2.367c2.118-6.248,3.193-12.793,3.194-19.454v-2.5h5V553.76
	z M1266.325,539.023l-4.827,1.305l-0.652-2.413c-1.728-6.388-4.484-12.418-8.191-17.924l-1.396-2.074l4.146-2.793l1.396,2.074
	c4.016,5.962,7,12.493,8.871,19.412L1266.325,539.023z"/>
<path fill="#999999" d="M1836.985,329.515c-12.435-19.018-31.53-32.056-53.771-36.711c-5.771-1.208-11.662-1.821-17.51-1.821
	c-39.994,0-74.976,28.452-83.177,67.651c-9.61,45.91,19.921,91.08,65.83,100.691c5.771,1.208,11.663,1.821,17.511,1.821
	c39.988,0,74.969-28.451,83.176-67.65C1853.701,371.255,1849.419,348.533,1836.985,329.515z M1845.963,356.28
	c0.427,1.736,0.803,3.514,1.117,5.284l0.437,2.462l-4.923,0.874l-0.438-2.461c-0.295-1.664-0.647-3.333-1.049-4.964l-0.597-2.428
	l4.854-1.194L1845.963,356.28z M1822.298,315.817l1.771,1.765c6.416,6.394,11.703,13.735,15.714,21.818l1.111,2.24l-4.479,2.222
	l-1.111-2.239c-3.769-7.594-8.736-14.491-14.765-20.499l-1.771-1.765L1822.298,315.817z M1791.556,297.561l2.351,0.851
	c5.634,2.041,11.062,4.71,16.132,7.936l2.109,1.342l-2.684,4.219l-2.109-1.342c-4.763-3.029-9.86-5.537-15.151-7.453l-2.351-0.851
	L1791.556,297.561z M1768.56,293.509l2.495,0.157c1.791,0.113,3.6,0.286,5.375,0.515l2.479,0.319l-0.639,4.959l-2.479-0.319
	c-1.668-0.215-3.367-0.377-5.051-0.483l-2.495-0.157L1768.56,293.509z M1727.555,302.866c8.016-4.194,16.612-7.02,25.552-8.398
	l2.471-0.381l0.762,4.942l-2.471,0.381c-8.395,1.295-16.468,3.948-23.995,7.887l-2.215,1.159l-2.318-4.43L1727.555,302.866z
	 M1700.222,325.875c3.647-4.758,7.824-9.13,12.414-12.995l1.912-1.61l3.221,3.825l-1.912,1.61
	c-4.313,3.632-8.238,7.74-11.666,12.212l-1.521,1.984l-3.968-3.042L1700.222,325.875z M1688.778,346.222
	c0.647-1.669,1.361-3.344,2.121-4.977l1.056-2.266l4.532,2.111l-1.055,2.267c-0.715,1.533-1.385,3.105-1.992,4.673l-0.903,2.331
	l-4.662-1.808L1688.778,346.222z M1684.477,390.484c-0.833-4.727-1.256-9.58-1.256-14.423c0-4.172,0.314-8.365,0.935-12.462
	l0.374-2.472l4.943,0.749l-0.374,2.472c-0.582,3.85-0.878,7.791-0.878,11.714c0,4.554,0.396,9.114,1.18,13.555l0.435,2.462
	l-4.925,0.868L1684.477,390.484z M1699.622,425.524l-1.438-2.045c-3.452-4.913-6.369-10.208-8.669-15.739l-0.96-2.309l4.617-1.919
	l0.96,2.308c2.16,5.195,4.9,10.169,8.144,14.784l1.437,2.045L1699.622,425.524z M1716.1,442.056l-1.95-1.564
	c-1.392-1.117-2.771-2.3-4.102-3.516l-1.845-1.688l3.375-3.689l1.845,1.688c1.251,1.144,2.548,2.256,3.855,3.305l1.95,1.564
	L1716.1,442.056z M1757.537,458.26l-2.479-0.322c-8.976-1.165-17.64-3.784-25.75-7.785l-2.241-1.106l2.212-4.484l2.242,1.106
	c7.615,3.757,15.751,6.217,24.182,7.311l2.479,0.322L1757.537,458.26z M1790.65,454.818c-5.708,1.8-11.64,2.978-17.629,3.498
	l-2.491,0.216l-0.433-4.981l2.49-0.217c5.627-0.489,11.197-1.594,16.559-3.285l2.384-0.752l1.504,4.769L1790.65,454.818z
	 M1811.678,444.709c-1.489,0.998-3.03,1.958-4.58,2.856l-2.163,1.252l-2.506-4.327l2.163-1.253c1.457-0.843,2.904-1.746,4.305-2.683
	l2.077-1.391l2.782,4.155L1811.678,444.709z M1765.868,451.146c-5.16,0-10.362-0.541-15.462-1.609
	c-40.512-8.481-66.571-48.341-58.091-88.854c7.237-34.592,38.103-59.7,73.389-59.7c5.16,0,10.362,0.542,15.461,1.609
	c19.627,4.108,36.478,15.613,47.45,32.396c10.972,16.782,14.751,36.833,10.642,56.459
	C1832.014,426.039,1801.149,451.146,1765.868,451.146z M1840.634,410.959c-3.819,8.179-8.933,15.644-15.197,22.189l-1.729,1.806
	l-3.612-3.457l1.729-1.806c5.886-6.15,10.689-13.165,14.277-20.847l1.059-2.266l4.53,2.116L1840.634,410.959z M1848.35,376.068
	c0,6.023-0.652,12.033-1.939,17.864l-0.539,2.441l-4.883-1.078l0.539-2.441c1.209-5.478,1.822-11.125,1.822-16.786v-2.5h5V376.068z"
	/>
<g id="Calque_2">
	<g>
		<line fill="none" stroke="#999999" stroke-miterlimit="10" x1="1571.588" y1="638.946" x2="1571.588" y2="647.974"/>
		<line fill="none" stroke="#999999" stroke-miterlimit="10" x1="1576.679" y1="639.166" x2="1575.893" y2="648.16"/>
		<line fill="none" stroke="#999999" stroke-miterlimit="10" x1="1581.73" y1="639.831" x2="1580.166" y2="648.724"/>
		<line fill="none" stroke="#999999" stroke-miterlimit="10" x1="1586.705" y1="640.933" x2="1584.371" y2="649.653"/>
		<line fill="none" stroke="#999999" stroke-miterlimit="10" x1="1591.564" y1="642.464" x2="1588.48" y2="650.947"/>
		<line fill="none" stroke="#999999" stroke-miterlimit="10" x1="1596.275" y1="644.409" x2="1592.464" y2="652.596"/>
		<line fill="none" stroke="#999999" stroke-miterlimit="10" x1="1600.795" y1="646.76" x2="1596.288" y2="654.581"/>
		<line fill="none" stroke="#999999" stroke-miterlimit="10" x1="1605.096" y1="649.494" x2="1599.925" y2="656.894"/>
		<line fill="none" stroke="#999999" stroke-miterlimit="10" x1="1609.141" y1="652.592" x2="1603.346" y2="659.515"/>
		<line fill="none" stroke="#999999" stroke-miterlimit="10" x1="1612.898" y1="656.029" x2="1606.525" y2="662.424"/>
		<line fill="none" stroke="#999999" stroke-miterlimit="10" x1="1616.345" y1="659.782" x2="1609.439" y2="665.598"/>
		<line fill="none" stroke="#999999" stroke-miterlimit="10" x1="1619.452" y1="663.821" x2="1612.066" y2="669.012"/>
		<line fill="none" stroke="#999999" stroke-miterlimit="10" x1="1622.196" y1="668.114" x2="1614.388" y2="672.642"/>
		<line fill="none" stroke="#999999" stroke-miterlimit="10" x1="1624.557" y1="672.628" x2="1616.382" y2="676.461"/>
		<line fill="none" stroke="#999999" stroke-miterlimit="10" x1="1626.514" y1="677.33" x2="1618.037" y2="680.439"/>
		<line fill="none" stroke="#999999" stroke-miterlimit="10" x1="1628.057" y1="682.189" x2="1619.342" y2="684.545"/>
		<line fill="none" stroke="#999999" stroke-miterlimit="10" x1="1629.17" y1="687.16" x2="1620.283" y2="688.75"/>
		<line fill="none" stroke="#999999" stroke-miterlimit="10" x1="1629.844" y1="692.211" x2="1620.854" y2="693.02"/>
		<line fill="none" stroke="#999999" stroke-miterlimit="10" x1="1630.078" y1="697.3" x2="1621.053" y2="697.323"/>
		<line fill="none" stroke="#999999" stroke-miterlimit="10" x1="1629.868" y1="702.391" x2="1620.874" y2="701.629"/>
		<line fill="none" stroke="#999999" stroke-miterlimit="10" x1="1629.216" y1="707.445" x2="1620.322" y2="705.902"/>
		<line fill="none" stroke="#999999" stroke-miterlimit="10" x1="1628.125" y1="712.422" x2="1619.4" y2="710.111"/>
		<line fill="none" stroke="#999999" stroke-miterlimit="10" x1="1626.605" y1="717.285" x2="1618.116" y2="714.225"/>
		<line fill="none" stroke="#999999" stroke-miterlimit="10" x1="1624.671" y1="721.997" x2="1616.48" y2="718.209"/>
		<line fill="none" stroke="#999999" stroke-miterlimit="10" x1="1622.333" y1="726.525" x2="1614.502" y2="722.036"/>
		<line fill="none" stroke="#999999" stroke-miterlimit="10" x1="1619.607" y1="730.831" x2="1612.199" y2="725.679"/>
		<line fill="none" stroke="#999999" stroke-miterlimit="10" x1="1616.521" y1="734.883" x2="1609.587" y2="729.105"/>
		<line fill="none" stroke="#999999" stroke-miterlimit="10" x1="1613.092" y1="738.651" x2="1606.688" y2="732.293"/>
		<line fill="none" stroke="#999999" stroke-miterlimit="10" x1="1609.348" y1="742.107" x2="1603.521" y2="735.215"/>
		<line fill="none" stroke="#999999" stroke-miterlimit="10" x1="1605.318" y1="745.224" x2="1600.114" y2="737.852"/>
		<line fill="none" stroke="#999999" stroke-miterlimit="10" x1="1601.031" y1="747.979" x2="1596.488" y2="740.181"/>
		<line fill="none" stroke="#999999" stroke-miterlimit="10" x1="1596.521" y1="750.351" x2="1592.674" y2="742.185"/>
		<line fill="none" stroke="#999999" stroke-miterlimit="10" x1="1591.822" y1="752.318" x2="1588.699" y2="743.851"/>
		<line fill="none" stroke="#999999" stroke-miterlimit="10" x1="1586.97" y1="753.871" x2="1584.596" y2="745.163"/>
		<line fill="none" stroke="#999999" stroke-miterlimit="10" x1="1582.002" y1="754.995" x2="1580.395" y2="746.114"/>
		<line fill="none" stroke="#999999" stroke-miterlimit="10" x1="1576.952" y1="755.684" x2="1576.126" y2="746.696"/>
		<line fill="none" stroke="#999999" stroke-miterlimit="10" x1="1571.863" y1="755.931" x2="1571.821" y2="746.905"/>
		<line fill="none" stroke="#999999" stroke-miterlimit="10" x1="1566.771" y1="755.734" x2="1567.518" y2="746.738"/>
		<line fill="none" stroke="#999999" stroke-miterlimit="10" x1="1561.719" y1="755.094" x2="1563.241" y2="746.195"/>
		<line fill="none" stroke="#999999" stroke-miterlimit="10" x1="1556.739" y1="754.016" x2="1559.029" y2="745.284"/>
		<line fill="none" stroke="#999999" stroke-miterlimit="10" x1="1551.873" y1="752.51" x2="1554.914" y2="744.012"/>
		<line fill="none" stroke="#999999" stroke-miterlimit="10" x1="1547.156" y1="750.586" x2="1550.925" y2="742.383"/>
		<line fill="none" stroke="#999999" stroke-miterlimit="10" x1="1542.625" y1="748.259" x2="1547.093" y2="740.413"/>
		<line fill="none" stroke="#999999" stroke-miterlimit="10" x1="1538.313" y1="745.546" x2="1543.445" y2="738.119"/>
		<line fill="none" stroke="#999999" stroke-miterlimit="10" x1="1534.252" y1="742.467" x2="1540.014" y2="735.518"/>
		<line fill="none" stroke="#999999" stroke-miterlimit="10" x1="1530.475" y1="739.048" x2="1536.816" y2="732.625"/>
		<line fill="none" stroke="#999999" stroke-miterlimit="10" x1="1527.01" y1="735.313" x2="1533.889" y2="729.465"/>
		<line fill="none" stroke="#999999" stroke-miterlimit="10" x1="1523.885" y1="731.289" x2="1531.243" y2="726.064"/>
		<line fill="none" stroke="#999999" stroke-miterlimit="10" x1="1521.118" y1="727.01" x2="1528.905" y2="722.445"/>
		<line fill="none" stroke="#999999" stroke-miterlimit="10" x1="1518.734" y1="722.507" x2="1526.893" y2="718.635"/>
		<line fill="none" stroke="#999999" stroke-miterlimit="10" x1="1516.757" y1="717.813" x2="1525.218" y2="714.664"/>
		<line fill="none" stroke="#999999" stroke-miterlimit="10" x1="1515.191" y1="712.964" x2="1523.896" y2="710.565"/>
		<line fill="none" stroke="#999999" stroke-miterlimit="10" x1="1514.055" y1="707.995" x2="1522.936" y2="706.365"/>
		<line fill="none" stroke="#999999" stroke-miterlimit="10" x1="1513.354" y1="702.95" x2="1522.342" y2="702.098"/>
		<line fill="none" stroke="#999999" stroke-miterlimit="10" x1="1513.094" y1="697.861" x2="1522.123" y2="697.793"/>
		<line fill="none" stroke="#999999" stroke-miterlimit="10" x1="1513.277" y1="692.771" x2="1522.279" y2="693.489"/>
		<line fill="none" stroke="#999999" stroke-miterlimit="10" x1="1513.906" y1="687.715" x2="1522.809" y2="689.213"/>
		<line fill="none" stroke="#999999" stroke-miterlimit="10" x1="1514.971" y1="682.733" x2="1523.71" y2="684.998"/>
		<line fill="none" stroke="#999999" stroke-miterlimit="10" x1="1516.466" y1="677.862" x2="1524.977" y2="680.88"/>
		<line fill="none" stroke="#999999" stroke-miterlimit="10" x1="1518.376" y1="673.14" x2="1526.593" y2="676.887"/>
		<line fill="none" stroke="#999999" stroke-miterlimit="10" x1="1520.693" y1="668.602" x2="1528.553" y2="673.049"/>
		<line fill="none" stroke="#999999" stroke-miterlimit="10" x1="1523.396" y1="664.281" x2="1530.838" y2="669.397"/>
		<line fill="none" stroke="#999999" stroke-miterlimit="10" x1="1526.465" y1="660.213" x2="1533.436" y2="665.959"/>
		<line fill="none" stroke="#999999" stroke-miterlimit="10" x1="1529.877" y1="656.429" x2="1536.316" y2="662.756"/>
		<line fill="none" stroke="#999999" stroke-miterlimit="10" x1="1533.604" y1="652.954" x2="1539.469" y2="659.818"/>
		<line fill="none" stroke="#999999" stroke-miterlimit="10" x1="1537.617" y1="649.818" x2="1542.865" y2="657.166"/>
		<line fill="none" stroke="#999999" stroke-miterlimit="10" x1="1541.891" y1="647.041" x2="1546.479" y2="654.822"/>
		<line fill="none" stroke="#999999" stroke-miterlimit="10" x1="1546.391" y1="644.65" x2="1550.284" y2="652.799"/>
		<line fill="none" stroke="#999999" stroke-miterlimit="10" x1="1551.079" y1="642.657" x2="1554.249" y2="651.115"/>
		<line fill="none" stroke="#999999" stroke-miterlimit="10" x1="1555.924" y1="641.079" x2="1558.346" y2="649.781"/>
		<line fill="none" stroke="#999999" stroke-miterlimit="10" x1="1560.888" y1="639.932" x2="1562.545" y2="648.812"/>
		<line fill="none" stroke="#999999" stroke-miterlimit="10" x1="1565.936" y1="639.218" x2="1566.811" y2="648.207"/>
	</g>
	<g>
		<line fill="none" stroke="#999999" stroke-miterlimit="10" x1="104.511" y1="733.108" x2="104.511" y2="741.739"/>
		<line fill="none" stroke="#999999" stroke-miterlimit="10" x1="109.378" y1="733.32" x2="108.627" y2="741.918"/>
		<line fill="none" stroke="#999999" stroke-miterlimit="10" x1="114.207" y1="733.956" x2="112.711" y2="742.454"/>
		<line fill="none" stroke="#999999" stroke-miterlimit="10" x1="118.962" y1="735.008" x2="116.731" y2="743.346"/>
		<line fill="none" stroke="#999999" stroke-miterlimit="10" x1="123.608" y1="736.472" x2="120.661" y2="744.581"/>
		<line fill="none" stroke="#999999" stroke-miterlimit="10" x1="128.11" y1="738.331" x2="124.468" y2="746.156"/>
		<line fill="none" stroke="#999999" stroke-miterlimit="10" x1="132.432" y1="740.577" x2="128.123" y2="748.056"/>
		<line fill="none" stroke="#999999" stroke-miterlimit="10" x1="136.541" y1="743.191" x2="131.6" y2="750.267"/>
		<line fill="none" stroke="#999999" stroke-miterlimit="10" x1="140.407" y1="746.154" x2="134.87" y2="752.771"/>
		<line fill="none" stroke="#999999" stroke-miterlimit="10" x1="144" y1="749.44" x2="137.909" y2="755.55"/>
		<line fill="none" stroke="#999999" stroke-miterlimit="10" x1="147.294" y1="753.025" x2="140.695" y2="758.584"/>
		<line fill="none" stroke="#999999" stroke-miterlimit="10" x1="150.266" y1="756.885" x2="143.206" y2="761.849"/>
		<line fill="none" stroke="#999999" stroke-miterlimit="10" x1="152.888" y1="760.99" x2="145.423" y2="765.317"/>
		<line fill="none" stroke="#999999" stroke-miterlimit="10" x1="155.144" y1="765.307" x2="147.331" y2="768.97"/>
		<line fill="none" stroke="#999999" stroke-miterlimit="10" x1="157.015" y1="769.803" x2="148.914" y2="772.771"/>
		<line fill="none" stroke="#999999" stroke-miterlimit="10" x1="158.49" y1="774.444" x2="150.16" y2="776.697"/>
		<line fill="none" stroke="#999999" stroke-miterlimit="10" x1="159.553" y1="779.196" x2="151.059" y2="780.717"/>
		<line fill="none" stroke="#999999" stroke-miterlimit="10" x1="160.199" y1="784.023" x2="151.605" y2="784.799"/>
		<line fill="none" stroke="#999999" stroke-miterlimit="10" x1="160.423" y1="788.89" x2="151.794" y2="788.91"/>
		<line fill="none" stroke="#999999" stroke-miterlimit="10" x1="160.221" y1="793.756" x2="151.623" y2="793.026"/>
		<line fill="none" stroke="#999999" stroke-miterlimit="10" x1="159.597" y1="798.585" x2="151.097" y2="797.112"/>
		<line fill="none" stroke="#999999" stroke-miterlimit="10" x1="158.556" y1="803.344" x2="150.216" y2="801.135"/>
		<line fill="none" stroke="#999999" stroke-miterlimit="10" x1="157.104" y1="807.991" x2="148.989" y2="805.066"/>
		<line fill="none" stroke="#999999" stroke-miterlimit="10" x1="155.253" y1="812.498" x2="147.425" y2="808.875"/>
		<line fill="none" stroke="#999999" stroke-miterlimit="10" x1="153.019" y1="816.824" x2="145.534" y2="812.535"/>
		<line fill="none" stroke="#999999" stroke-miterlimit="10" x1="150.414" y1="820.94" x2="143.332" y2="816.017"/>
		<line fill="none" stroke="#999999" stroke-miterlimit="10" x1="147.462" y1="824.814" x2="140.836" y2="819.291"/>
		<line fill="none" stroke="#999999" stroke-miterlimit="10" x1="144.185" y1="828.416" x2="138.064" y2="822.34"/>
		<line fill="none" stroke="#999999" stroke-miterlimit="10" x1="140.606" y1="831.72" x2="135.038" y2="825.132"/>
		<line fill="none" stroke="#999999" stroke-miterlimit="10" x1="136.754" y1="834.699" x2="131.779" y2="827.651"/>
		<line fill="none" stroke="#999999" stroke-miterlimit="10" x1="132.657" y1="837.33" x2="128.313" y2="829.877"/>
		<line fill="none" stroke="#999999" stroke-miterlimit="10" x1="128.346" y1="839.6" x2="124.668" y2="831.795"/>
		<line fill="none" stroke="#999999" stroke-miterlimit="10" x1="123.854" y1="841.481" x2="120.87" y2="833.387"/>
		<line fill="none" stroke="#999999" stroke-miterlimit="10" x1="119.215" y1="842.965" x2="116.946" y2="834.641"/>
		<line fill="none" stroke="#999999" stroke-miterlimit="10" x1="114.466" y1="844.039" x2="112.931" y2="835.551"/>
		<line fill="none" stroke="#999999" stroke-miterlimit="10" x1="109.64" y1="844.697" x2="108.849" y2="836.105"/>
		<line fill="none" stroke="#999999" stroke-miterlimit="10" x1="104.776" y1="844.933" x2="104.736" y2="836.307"/>
		<line fill="none" stroke="#999999" stroke-miterlimit="10" x1="99.91" y1="844.745" x2="100.62" y2="836.146"/>
		<line fill="none" stroke="#999999" stroke-miterlimit="10" x1="95.077" y1="844.133" x2="96.534" y2="835.628"/>
		<line fill="none" stroke="#999999" stroke-miterlimit="10" x1="90.317" y1="843.104" x2="92.508" y2="834.757"/>
		<line fill="none" stroke="#999999" stroke-miterlimit="10" x1="85.666" y1="841.661" x2="88.574" y2="833.537"/>
		<line fill="none" stroke="#999999" stroke-miterlimit="10" x1="81.158" y1="839.823" x2="84.76" y2="831.984"/>
		<line fill="none" stroke="#999999" stroke-miterlimit="10" x1="76.826" y1="837.598" x2="81.097" y2="830.103"/>
		<line fill="none" stroke="#999999" stroke-miterlimit="10" x1="72.703" y1="835.006" x2="77.611" y2="827.908"/>
		<line fill="none" stroke="#999999" stroke-miterlimit="10" x1="68.823" y1="832.063" x2="74.33" y2="825.421"/>
		<line fill="none" stroke="#999999" stroke-miterlimit="10" x1="65.213" y1="828.795" x2="71.276" y2="822.655"/>
		<line fill="none" stroke="#999999" stroke-miterlimit="10" x1="61.9" y1="825.225" x2="68.475" y2="819.636"/>
		<line fill="none" stroke="#999999" stroke-miterlimit="10" x1="58.913" y1="821.379" x2="65.947" y2="816.385"/>
		<line fill="none" stroke="#999999" stroke-miterlimit="10" x1="56.269" y1="817.287" x2="63.713" y2="812.924"/>
		<line fill="none" stroke="#999999" stroke-miterlimit="10" x1="53.992" y1="812.983" x2="61.788" y2="809.282"/>
		<line fill="none" stroke="#999999" stroke-miterlimit="10" x1="52.099" y1="808.495" x2="60.188" y2="805.488"/>
		<line fill="none" stroke="#999999" stroke-miterlimit="10" x1="50.604" y1="803.861" x2="58.923" y2="801.569"/>
		<line fill="none" stroke="#999999" stroke-miterlimit="10" x1="49.516" y1="799.114" x2="58.005" y2="797.554"/>
		<line fill="none" stroke="#999999" stroke-miterlimit="10" x1="48.846" y1="794.288" x2="57.437" y2="793.474"/>
		<line fill="none" stroke="#999999" stroke-miterlimit="10" x1="48.599" y1="789.428" x2="57.229" y2="789.361"/>
		<line fill="none" stroke="#999999" stroke-miterlimit="10" x1="48.775" y1="784.561" x2="57.379" y2="785.245"/>
		<line fill="none" stroke="#999999" stroke-miterlimit="10" x1="49.375" y1="779.728" x2="57.886" y2="781.157"/>
		<line fill="none" stroke="#999999" stroke-miterlimit="10" x1="50.392" y1="774.965" x2="58.748" y2="777.131"/>
		<line fill="none" stroke="#999999" stroke-miterlimit="10" x1="51.821" y1="770.308" x2="59.957" y2="773.192"/>
		<line fill="none" stroke="#999999" stroke-miterlimit="10" x1="53.648" y1="765.794" x2="61.502" y2="769.375"/>
		<line fill="none" stroke="#999999" stroke-miterlimit="10" x1="55.862" y1="761.455" x2="63.376" y2="765.707"/>
		<line fill="none" stroke="#999999" stroke-miterlimit="10" x1="58.447" y1="757.325" x2="65.56" y2="762.217"/>
		<line fill="none" stroke="#999999" stroke-miterlimit="10" x1="61.38" y1="753.438" x2="68.041" y2="758.931"/>
		<line fill="none" stroke="#999999" stroke-miterlimit="10" x1="64.641" y1="749.819" x2="70.798" y2="755.868"/>
		<line fill="none" stroke="#999999" stroke-miterlimit="10" x1="68.204" y1="746.5" x2="73.811" y2="753.062"/>
		<line fill="none" stroke="#999999" stroke-miterlimit="10" x1="72.041" y1="743.502" x2="77.056" y2="750.526"/>
		<line fill="none" stroke="#999999" stroke-miterlimit="10" x1="76.126" y1="740.849" x2="80.511" y2="748.284"/>
		<line fill="none" stroke="#999999" stroke-miterlimit="10" x1="80.426" y1="738.561" x2="84.147" y2="746.35"/>
		<line fill="none" stroke="#999999" stroke-miterlimit="10" x1="84.908" y1="736.656" x2="87.938" y2="744.74"/>
		<line fill="none" stroke="#999999" stroke-miterlimit="10" x1="89.539" y1="735.149" x2="91.855" y2="743.467"/>
		<line fill="none" stroke="#999999" stroke-miterlimit="10" x1="94.284" y1="734.052" x2="95.867" y2="742.538"/>
		<line fill="none" stroke="#999999" stroke-miterlimit="10" x1="99.107" y1="733.367" x2="99.945" y2="741.962"/>
	</g>
	<g>
		<line fill="none" stroke="#999999" stroke-miterlimit="10" x1="630.176" y1="246.495" x2="630.176" y2="255.125"/>
		<line fill="none" stroke="#999999" stroke-miterlimit="10" x1="635.042" y1="246.707" x2="634.292" y2="255.304"/>
		<line fill="none" stroke="#999999" stroke-miterlimit="10" x1="639.872" y1="247.342" x2="638.376" y2="255.841"/>
		<line fill="none" stroke="#999999" stroke-miterlimit="10" x1="644.627" y1="248.395" x2="642.396" y2="256.731"/>
		<line fill="none" stroke="#999999" stroke-miterlimit="10" x1="649.273" y1="249.857" x2="646.326" y2="257.968"/>
		<line fill="none" stroke="#999999" stroke-miterlimit="10" x1="653.773" y1="251.719" x2="650.132" y2="259.542"/>
		<line fill="none" stroke="#999999" stroke-miterlimit="10" x1="658.097" y1="253.965" x2="653.788" y2="261.442"/>
		<line fill="none" stroke="#999999" stroke-miterlimit="10" x1="662.206" y1="256.579" x2="657.265" y2="263.652"/>
		<line fill="none" stroke="#999999" stroke-miterlimit="10" x1="666.072" y1="259.54" x2="660.534" y2="266.156"/>
		<line fill="none" stroke="#999999" stroke-miterlimit="10" x1="669.666" y1="262.826" x2="663.573" y2="268.937"/>
		<line fill="none" stroke="#999999" stroke-miterlimit="10" x1="672.959" y1="266.413" x2="666.359" y2="271.97"/>
		<line fill="none" stroke="#999999" stroke-miterlimit="10" x1="675.93" y1="270.272" x2="668.871" y2="275.235"/>
		<line fill="none" stroke="#999999" stroke-miterlimit="10" x1="678.553" y1="274.376" x2="671.088" y2="278.705"/>
		<line fill="none" stroke="#999999" stroke-miterlimit="10" x1="680.809" y1="278.692" x2="672.996" y2="282.355"/>
		<line fill="none" stroke="#999999" stroke-miterlimit="10" x1="682.68" y1="283.188" x2="674.578" y2="286.157"/>
		<line fill="none" stroke="#999999" stroke-miterlimit="10" x1="684.154" y1="287.83" x2="675.824" y2="290.083"/>
		<line fill="none" stroke="#999999" stroke-miterlimit="10" x1="685.218" y1="292.583" x2="676.724" y2="294.103"/>
		<line fill="none" stroke="#999999" stroke-miterlimit="10" x1="685.864" y1="297.41" x2="677.271" y2="298.184"/>
		<line fill="none" stroke="#999999" stroke-miterlimit="10" x1="686.087" y1="302.275" x2="677.459" y2="302.299"/>
		<line fill="none" stroke="#999999" stroke-miterlimit="10" x1="685.886" y1="307.143" x2="677.288" y2="306.413"/>
		<line fill="none" stroke="#999999" stroke-miterlimit="10" x1="685.262" y1="311.972" x2="676.761" y2="310.498"/>
		<line fill="none" stroke="#999999" stroke-miterlimit="10" x1="684.221" y1="316.73" x2="675.881" y2="314.521"/>
		<line fill="none" stroke="#999999" stroke-miterlimit="10" x1="682.77" y1="321.379" x2="674.654" y2="318.451"/>
		<line fill="none" stroke="#999999" stroke-miterlimit="10" x1="680.918" y1="325.884" x2="673.089" y2="322.263"/>
		<line fill="none" stroke="#999999" stroke-miterlimit="10" x1="678.683" y1="330.211" x2="671.198" y2="325.922"/>
		<line fill="none" stroke="#999999" stroke-miterlimit="10" x1="676.079" y1="334.326" x2="668.997" y2="329.402"/>
		<line fill="none" stroke="#999999" stroke-miterlimit="10" x1="673.127" y1="338.199" x2="666.5" y2="332.679"/>
		<line fill="none" stroke="#999999" stroke-miterlimit="10" x1="669.85" y1="341.803" x2="663.729" y2="335.725"/>
		<line fill="none" stroke="#999999" stroke-miterlimit="10" x1="666.271" y1="345.106" x2="660.703" y2="338.519"/>
		<line fill="none" stroke="#999999" stroke-miterlimit="10" x1="662.418" y1="348.085" x2="657.444" y2="341.038"/>
		<line fill="none" stroke="#999999" stroke-miterlimit="10" x1="658.321" y1="350.717" x2="653.979" y2="343.264"/>
		<line fill="none" stroke="#999999" stroke-miterlimit="10" x1="654.01" y1="352.985" x2="650.333" y2="345.18"/>
		<line fill="none" stroke="#999999" stroke-miterlimit="10" x1="649.52" y1="354.866" x2="646.534" y2="346.771"/>
		<line fill="none" stroke="#999999" stroke-miterlimit="10" x1="644.88" y1="356.351" x2="642.611" y2="348.027"/>
		<line fill="none" stroke="#999999" stroke-miterlimit="10" x1="640.13" y1="357.426" x2="638.596" y2="348.937"/>
		<line fill="none" stroke="#999999" stroke-miterlimit="10" x1="635.305" y1="358.084" x2="634.514" y2="349.492"/>
		<line fill="none" stroke="#999999" stroke-miterlimit="10" x1="630.439" y1="358.32" x2="630.401" y2="349.692"/>
		<line fill="none" stroke="#999999" stroke-miterlimit="10" x1="625.574" y1="358.132" x2="626.285" y2="349.531"/>
		<line fill="none" stroke="#999999" stroke-miterlimit="10" x1="620.742" y1="357.519" x2="622.199" y2="349.015"/>
		<line fill="none" stroke="#999999" stroke-miterlimit="10" x1="615.982" y1="356.49" x2="618.173" y2="348.143"/>
		<line fill="none" stroke="#999999" stroke-miterlimit="10" x1="611.331" y1="355.049" x2="614.239" y2="346.925"/>
		<line fill="none" stroke="#999999" stroke-miterlimit="10" x1="606.822" y1="353.21" x2="610.425" y2="345.369"/>
		<line fill="none" stroke="#999999" stroke-miterlimit="10" x1="602.49" y1="350.985" x2="606.762" y2="343.488"/>
		<line fill="none" stroke="#999999" stroke-miterlimit="10" x1="598.368" y1="348.392" x2="603.276" y2="341.295"/>
		<line fill="none" stroke="#999999" stroke-miterlimit="10" x1="594.488" y1="345.449" x2="599.995" y2="338.807"/>
		<line fill="none" stroke="#999999" stroke-miterlimit="10" x1="590.877" y1="342.181" x2="596.941" y2="336.041"/>
		<line fill="none" stroke="#999999" stroke-miterlimit="10" x1="587.564" y1="338.61" x2="594.14" y2="333.022"/>
		<line fill="none" stroke="#999999" stroke-miterlimit="10" x1="584.577" y1="334.765" x2="591.611" y2="329.77"/>
		<line fill="none" stroke="#999999" stroke-miterlimit="10" x1="581.934" y1="330.675" x2="589.378" y2="326.311"/>
		<line fill="none" stroke="#999999" stroke-miterlimit="10" x1="579.657" y1="326.369" x2="587.453" y2="322.669"/>
		<line fill="none" stroke="#999999" stroke-miterlimit="10" x1="577.764" y1="321.882" x2="585.854" y2="318.875"/>
		<line fill="none" stroke="#999999" stroke-miterlimit="10" x1="576.27" y1="317.246" x2="584.587" y2="314.954"/>
		<line fill="none" stroke="#999999" stroke-miterlimit="10" x1="575.181" y1="312.5" x2="583.669" y2="310.94"/>
		<line fill="none" stroke="#999999" stroke-miterlimit="10" x1="574.511" y1="307.676" x2="583.102" y2="306.861"/>
		<line fill="none" stroke="#999999" stroke-miterlimit="10" x1="574.264" y1="302.813" x2="582.895" y2="302.747"/>
		<line fill="none" stroke="#999999" stroke-miterlimit="10" x1="574.439" y1="297.946" x2="583.043" y2="298.632"/>
		<line fill="none" stroke="#999999" stroke-miterlimit="10" x1="575.04" y1="293.113" x2="583.55" y2="294.545"/>
		<line fill="none" stroke="#999999" stroke-miterlimit="10" x1="576.057" y1="288.351" x2="584.412" y2="290.517"/>
		<line fill="none" stroke="#999999" stroke-miterlimit="10" x1="577.486" y1="283.694" x2="585.621" y2="286.579"/>
		<line fill="none" stroke="#999999" stroke-miterlimit="10" x1="579.313" y1="279.18" x2="587.167" y2="282.762"/>
		<line fill="none" stroke="#999999" stroke-miterlimit="10" x1="581.527" y1="274.842" x2="589.041" y2="279.095"/>
		<line fill="none" stroke="#999999" stroke-miterlimit="10" x1="584.111" y1="270.713" x2="591.225" y2="275.604"/>
		<line fill="none" stroke="#999999" stroke-miterlimit="10" x1="587.045" y1="266.825" x2="593.705" y2="272.316"/>
		<line fill="none" stroke="#999999" stroke-miterlimit="10" x1="590.306" y1="263.206" x2="596.462" y2="269.256"/>
		<line fill="none" stroke="#999999" stroke-miterlimit="10" x1="593.868" y1="259.886" x2="599.477" y2="266.448"/>
		<line fill="none" stroke="#999999" stroke-miterlimit="10" x1="597.706" y1="256.888" x2="602.721" y2="263.913"/>
		<line fill="none" stroke="#999999" stroke-miterlimit="10" x1="601.791" y1="254.235" x2="606.176" y2="261.67"/>
		<line fill="none" stroke="#999999" stroke-miterlimit="10" x1="606.091" y1="251.947" x2="609.813" y2="259.736"/>
		<line fill="none" stroke="#999999" stroke-miterlimit="10" x1="610.573" y1="250.043" x2="613.604" y2="258.127"/>
		<line fill="none" stroke="#999999" stroke-miterlimit="10" x1="615.203" y1="248.536" x2="617.52" y2="256.853"/>
		<line fill="none" stroke="#999999" stroke-miterlimit="10" x1="619.948" y1="247.437" x2="621.532" y2="255.925"/>
		<line fill="none" stroke="#999999" stroke-miterlimit="10" x1="624.771" y1="246.755" x2="625.609" y2="255.349"/>
	</g>
</g>
</svg>
