<?xml version="1.0" encoding="utf-8"?>
<!-- Generator: Adobe Illustrator 16.0.0, SVG Export Plug-In . SVG Version: 6.00 Build 0)  -->
<!DOCTYPE svg PUBLIC "-//W3C//DTD SVG 1.1//EN" "http://www.w3.org/Graphics/SVG/1.1/DTD/svg11.dtd">
<svg version="1.1" id="Calque_2" xmlns="http://www.w3.org/2000/svg" xmlns:xlink="http://www.w3.org/1999/xlink" x="0px" y="0px"
	 width="128px" height="128px" viewBox="0 0 128 128" enable-background="new 0 0 128 128" xml:space="preserve">
<path fill="none" stroke="#FF0000" stroke-width="5" stroke-linecap="round" stroke-linejoin="round" stroke-miterlimit="10" d="
	M116.034,96.421H10.7c-3.177,0-5.775-2.601-5.775-5.774V19.898c0-3.177,2.598-5.775,5.775-5.775h105.334
	c3.177,0,5.774,2.598,5.774,5.775v70.749C121.811,93.82,119.211,96.421,116.034,96.421z"/>
<path fill="none" stroke="#FF0000" stroke-width="5" stroke-linecap="round" stroke-linejoin="round" stroke-miterlimit="10" d="
	M90.402,110.732H70.186V96.421H57.859v14.313H36.333c-2.297,0-4.173,1.877-4.173,4.175c0,2.296,1.876,4.174,4.173,4.174h54.069
	c2.298,0,4.174-1.878,4.174-4.174C94.575,112.611,92.699,110.732,90.402,110.732z"/>
<g>
	<g>
		<defs>
			<path id="SVGID_1_" d="M111.865,24.814c0.933,0,1.689,0.758,1.689,1.69V82.38c0,0.933-0.757,1.69-1.689,1.69H87.732
				c-0.933,0-1.689-0.758-1.689-1.69V26.505c0-0.933,0.757-1.69,1.689-1.69H111.865z"/>
		</defs>
		<clipPath id="SVGID_2_">
			<use xlink:href="#SVGID_1_"  overflow="visible"/>
		</clipPath>
		<g id="XMLID_21_" clip-path="url(#SVGID_2_)">
			<polygon id="XMLID_1063_" fill="#FF0000" points="42.636,242.224 44.68,244.27 50.468,244.27 42.636,236.443 			"/>
			<polygon id="XMLID_1064_" fill="#FF0000" points="42.636,230.662 56.252,244.27 62.032,244.27 42.636,224.872 			"/>
			<polygon id="XMLID_1065_" fill="#FF0000" points="42.636,219.09 67.82,244.27 73.595,244.27 42.636,213.311 			"/>
			<polygon id="XMLID_1066_" fill="#FF0000" points="42.636,207.53 79.384,244.27 85.165,244.27 42.636,201.748 			"/>
			<polygon id="XMLID_1067_" fill="#FF0000" points="42.636,195.958 90.945,244.27 96.731,244.27 42.636,190.179 			"/>
			<polygon id="XMLID_1068_" fill="#FF0000" points="42.636,184.388 102.521,244.27 108.307,244.27 42.636,178.606 			"/>
			<polygon id="XMLID_1069_" fill="#FF0000" points="42.636,172.825 114.077,244.27 119.869,244.27 42.636,167.035 			"/>
			<polygon id="XMLID_1070_" fill="#FF0000" points="42.636,161.254 125.648,244.27 131.431,244.27 42.636,155.474 			"/>
			<polygon id="XMLID_1071_" fill="#FF0000" points="42.636,149.693 137.216,244.27 142.996,244.27 42.636,143.911 			"/>
			<polygon id="XMLID_1072_" fill="#FF0000" points="42.636,138.122 148.782,244.27 154.563,244.27 42.636,132.341 			"/>
			<polygon id="XMLID_1073_" fill="#FF0000" points="42.636,126.56 160.344,244.27 166.134,244.27 42.636,120.779 			"/>
			<polygon id="XMLID_1074_" fill="#FF0000" points="42.636,114.998 171.904,244.27 177.695,244.27 42.636,109.205 			"/>
			<polygon id="XMLID_1075_" fill="#FF0000" points="42.636,103.43 183.481,244.27 189.256,244.27 42.636,97.646 			"/>
			<polygon id="XMLID_1076_" fill="#FF0000" points="42.636,91.854 195.053,244.27 200.833,244.27 42.636,86.077 			"/>
			<polygon id="XMLID_1077_" fill="#FF0000" points="42.636,80.285 206.618,244.27 212.398,244.27 42.636,74.503 			"/>
			<polygon id="XMLID_1078_" fill="#FF0000" points="42.636,68.721 218.181,244.27 223.971,244.27 42.636,62.943 			"/>
			<polygon id="XMLID_1079_" fill="#FF0000" points="42.636,57.158 229.741,244.27 235.531,244.27 42.636,51.375 			"/>
			<polygon id="XMLID_1080_" fill="#FF0000" points="42.636,45.593 241.313,244.27 247.094,244.27 42.636,39.806 			"/>
			<polygon id="XMLID_1081_" fill="#FF0000" points="42.636,34.03 252.874,244.27 258.659,244.27 42.636,28.247 			"/>
			<polygon id="XMLID_1082_" fill="#FF0000" points="42.636,22.458 264.445,244.27 270.226,244.27 42.636,16.678 			"/>
			<polygon id="XMLID_1083_" fill="#FF0000" points="42.636,10.89 276.006,244.27 281.791,244.27 42.636,5.114 			"/>
			<polygon id="XMLID_1084_" fill="#FF0000" points="42.636,-0.675 287.577,244.27 293.359,244.27 42.636,-6.458 			"/>
			<polygon id="XMLID_1085_" fill="#FF0000" points="42.636,-12.238 299.148,244.27 304.931,244.27 42.636,-18.021 			"/>
			<polygon id="XMLID_1086_" fill="#FF0000" points="42.636,-23.807 310.71,244.27 316.496,244.27 42.636,-29.59 			"/>
			<polygon id="XMLID_1087_" fill="#FF0000" points="42.636,-35.374 322.282,244.27 328.063,244.27 42.636,-41.154 			"/>
			<polygon id="XMLID_1088_" fill="#FF0000" points="42.636,-46.943 333.844,244.27 339.629,244.27 42.636,-52.723 			"/>
			<polygon id="XMLID_1089_" fill="#FF0000" points="42.636,-58.506 345.414,244.27 351.185,244.27 42.636,-64.287 			"/>
			<polygon id="XMLID_1090_" fill="#FF0000" points="42.636,-70.07 356.976,244.27 362.756,244.27 42.636,-75.853 			"/>
			<polygon id="XMLID_1091_" fill="#FF0000" points="42.636,-81.638 368.537,244.27 374.323,244.27 42.636,-87.422 			"/>
			<polygon id="XMLID_1092_" fill="#FF0000" points="42.636,-93.208 380.104,244.27 385.889,244.27 42.636,-98.991 			"/>
			<polygon id="XMLID_1093_" fill="#FF0000" points="42.636,-104.771 391.68,244.27 397.461,244.27 42.636,-110.555 			"/>
			<polygon id="XMLID_1094_" fill="#FF0000" points="406.131,241.379 45.529,-119.23 42.636,-119.23 42.636,-116.338 403.25,244.27 
				406.131,244.27 			"/>
			<polygon id="XMLID_1095_" fill="#FF0000" points="406.131,229.817 57.095,-119.23 51.313,-119.23 406.131,235.6 			"/>
			<polygon id="XMLID_1096_" fill="#FF0000" points="406.131,218.236 68.659,-119.23 62.876,-119.23 406.131,224.028 			"/>
			<polygon id="XMLID_1097_" fill="#FF0000" points="406.131,206.675 80.228,-119.23 74.444,-119.23 406.131,212.456 			"/>
			<polygon id="XMLID_1098_" fill="#FF0000" points="406.131,195.114 91.799,-119.23 86.019,-119.23 406.131,200.895 			"/>
			<polygon id="XMLID_1099_" fill="#FF0000" points="406.131,183.543 103.361,-119.23 97.575,-119.23 406.131,189.323 			"/>
			<polygon id="XMLID_1100_" fill="#FF0000" points="406.131,171.981 114.923,-119.23 109.142,-119.23 406.131,177.762 			"/>
			<polygon id="XMLID_1101_" fill="#FF0000" points="406.131,160.409 126.493,-119.23 120.708,-119.23 406.131,166.2 			"/>
			<polygon id="XMLID_1102_" fill="#FF0000" points="406.131,148.85 138.055,-119.23 132.274,-119.23 406.131,154.63 			"/>
			<polygon id="XMLID_1103_" fill="#FF0000" points="406.131,137.287 149.626,-119.23 143.846,-119.23 406.131,143.068 			"/>
			<polygon id="XMLID_1104_" fill="#FF0000" points="406.131,125.716 161.192,-119.23 155.406,-119.23 406.131,131.496 			"/>
			<polygon id="XMLID_1105_" fill="#FF0000" points="406.131,114.145 172.759,-119.23 166.978,-119.23 406.131,119.925 			"/>
			<polygon id="XMLID_1106_" fill="#FF0000" points="406.131,102.575 184.331,-119.23 178.545,-119.23 406.131,108.361 			"/>
			<polygon id="XMLID_1107_" fill="#FF0000" points="406.131,91.01 195.891,-119.23 190.111,-119.23 406.131,96.793 			"/>
			<polygon id="XMLID_1108_" fill="#FF0000" points="406.131,79.445 207.463,-119.23 201.677,-119.23 406.131,85.234 			"/>
			<polygon id="XMLID_1109_" fill="#FF0000" points="406.131,67.877 219.024,-119.23 213.233,-119.23 406.131,73.66 			"/>
			<polygon id="XMLID_1110_" fill="#FF0000" points="406.131,56.313 230.585,-119.23 224.804,-119.23 406.131,62.094 			"/>
			<polygon id="XMLID_1111_" fill="#FF0000" points="406.131,44.749 242.152,-119.23 236.37,-119.23 406.131,50.53 			"/>
			<polygon id="XMLID_1112_" fill="#FF0000" points="406.131,33.18 253.718,-119.23 247.947,-119.23 406.131,38.96 			"/>
			<polygon id="XMLID_1113_" fill="#FF0000" points="406.131,21.614 265.299,-119.23 259.514,-119.23 406.131,27.397 			"/>
			<polygon id="XMLID_1114_" fill="#FF0000" points="406.131,10.05 276.861,-119.23 271.069,-119.23 406.131,15.833 			"/>
			<polygon id="XMLID_1115_" fill="#FF0000" points="406.131,-1.519 288.423,-119.23 282.642,-119.23 406.131,4.264 			"/>
			<polygon id="XMLID_1116_" fill="#FF0000" points="406.131,-13.088 299.988,-119.23 294.207,-119.23 406.131,-7.307 			"/>
			<polygon id="XMLID_1117_" fill="#FF0000" points="406.131,-24.651 311.555,-119.23 305.774,-119.23 406.131,-18.871 			"/>
			<polygon id="XMLID_1118_" fill="#FF0000" points="406.131,-36.215 323.126,-119.23 317.335,-119.23 406.131,-30.435 			"/>
			<polygon id="XMLID_1119_" fill="#FF0000" points="406.131,-47.787 334.688,-119.23 328.896,-119.23 406.131,-41.999 			"/>
			<polygon id="XMLID_1120_" fill="#FF0000" points="406.131,-59.35 346.248,-119.23 340.468,-119.23 406.131,-53.567 			"/>
			<polygon id="XMLID_1121_" fill="#FF0000" points="406.131,-70.919 357.825,-119.23 352.039,-119.23 406.131,-65.136 			"/>
			<polygon id="XMLID_1122_" fill="#FF0000" points="406.131,-82.483 369.391,-119.23 363.611,-119.23 406.131,-76.703 			"/>
			<polygon id="XMLID_1123_" fill="#FF0000" points="406.131,-94.047 380.957,-119.23 375.172,-119.23 406.131,-88.271 			"/>
			<polygon id="XMLID_1124_" fill="#FF0000" points="406.131,-105.616 392.524,-119.23 386.743,-119.23 406.131,-99.835 			"/>
			<polygon id="XMLID_1125_" fill="#FF0000" points="406.131,-117.187 404.085,-119.23 398.305,-119.23 406.131,-111.398 			"/>
		</g>
	</g>
</g>
</svg>
