<?xml version="1.0" encoding="utf-8"?>
<!-- Generator: Adobe Illustrator 16.0.0, SVG Export Plug-In . SVG Version: 6.00 Build 0)  -->
<!DOCTYPE svg PUBLIC "-//W3C//DTD SVG 1.1//EN" "http://www.w3.org/Graphics/SVG/1.1/DTD/svg11.dtd">
<svg version="1.1" id="Calque_2" xmlns="http://www.w3.org/2000/svg" xmlns:xlink="http://www.w3.org/1999/xlink" x="0px" y="0px"
	 width="128px" height="128px" viewBox="0 0 128 128" enable-background="new 0 0 128 128" xml:space="preserve">
<path fill="none" stroke="#FF0000" stroke-width="5" stroke-linecap="round" stroke-linejoin="round" stroke-miterlimit="10" d="
	M116.034,96.421H10.7c-3.177,0-5.775-2.601-5.775-5.774V19.898c0-3.177,2.598-5.775,5.775-5.775h105.334
	c3.177,0,5.774,2.598,5.774,5.775v70.749C121.811,93.82,119.211,96.421,116.034,96.421z"/>
<path fill="none" stroke="#FF0000" stroke-width="5" stroke-linecap="round" stroke-linejoin="round" stroke-miterlimit="10" d="
	M90.402,110.732H70.186V96.421H57.859v14.313H36.333c-2.297,0-4.173,1.877-4.173,4.175c0,2.296,1.876,4.174,4.173,4.174h54.069
	c2.298,0,4.174-1.878,4.174-4.174C94.575,112.611,92.699,110.732,90.402,110.732z"/>
<g>
	<g>
		<g>
			<defs>
				<path id="SVGID_1_" d="M14.29,62.474c0-0.933,0.758-1.689,1.689-1.689h93.208c0.933,0,1.69,0.758,1.69,1.689v24.133
					c0,0.934-0.758,1.689-1.69,1.689H15.98c-0.933,0-1.689-0.757-1.689-1.689L14.29,62.474L14.29,62.474z"/>
			</defs>
			<clipPath id="SVGID_2_">
				<use xlink:href="#SVGID_1_"  overflow="visible"/>
			</clipPath>
			<g id="XMLID_21_" clip-path="url(#SVGID_2_)">
				<polygon id="XMLID_1063_" fill="#FF0000" points="231.7,131.702 233.745,129.658 233.745,123.871 225.919,131.702 				"/>
				<polygon id="XMLID_1064_" fill="#FF0000" points="220.138,131.702 233.745,118.087 233.745,112.307 214.348,131.702 				"/>
				<polygon id="XMLID_1065_" fill="#FF0000" points="208.565,131.702 233.745,106.519 233.745,100.743 202.786,131.702 				"/>
				<polygon id="XMLID_1066_" fill="#FF0000" points="197.005,131.702 233.745,94.955 233.745,89.174 191.224,131.702 				"/>
				<polygon id="XMLID_1067_" fill="#FF0000" points="185.434,131.702 233.745,83.394 233.745,77.608 179.655,131.702 				"/>
				<polygon id="XMLID_1068_" fill="#FF0000" points="173.864,131.702 233.745,71.817 233.745,66.032 168.081,131.702 				"/>
				<polygon id="XMLID_1069_" fill="#FF0000" points="162.301,131.702 233.745,60.262 233.745,54.47 156.511,131.702 				"/>
				<polygon id="XMLID_1070_" fill="#FF0000" points="150.729,131.702 233.745,48.69 233.745,42.907 144.95,131.702 				"/>
				<polygon id="XMLID_1071_" fill="#FF0000" points="139.169,131.702 233.745,37.123 233.745,31.343 133.387,131.702 				"/>
				<polygon id="XMLID_1072_" fill="#FF0000" points="127.598,131.702 233.745,25.557 233.745,19.776 121.816,131.702 				"/>
				<polygon id="XMLID_1073_" fill="#FF0000" points="116.036,131.702 233.745,13.995 233.745,8.205 110.255,131.702 				"/>
				<polygon id="XMLID_1074_" fill="#FF0000" points="104.474,131.702 233.745,2.435 233.745,-3.356 98.681,131.702 				"/>
				<polygon id="XMLID_1075_" fill="#FF0000" points="92.905,131.702 233.745,-9.142 233.745,-14.917 87.122,131.702 				"/>
				<polygon id="XMLID_1076_" fill="#FF0000" points="81.329,131.702 233.745,-20.714 233.745,-26.494 75.553,131.702 				"/>
				<polygon id="XMLID_1077_" fill="#FF0000" points="69.761,131.702 233.745,-32.279 233.745,-38.06 63.979,131.702 				"/>
				<polygon id="XMLID_1078_" fill="#FF0000" points="58.196,131.702 233.745,-43.843 233.745,-49.632 52.419,131.702 				"/>
				<polygon id="XMLID_1079_" fill="#FF0000" points="46.634,131.702 233.745,-55.402 233.745,-61.192 40.851,131.702 				"/>
				<polygon id="XMLID_1080_" fill="#FF0000" points="35.068,131.702 233.745,-66.974 233.745,-72.755 29.282,131.702 				"/>
				<polygon id="XMLID_1081_" fill="#FF0000" points="23.506,131.702 233.745,-78.535 233.745,-84.32 17.723,131.702 				"/>
				<polygon id="XMLID_1082_" fill="#FF0000" points="11.934,131.702 233.745,-90.106 233.745,-95.888 6.154,131.702 				"/>
				<polygon id="XMLID_1083_" fill="#FF0000" points="0.366,131.702 233.745,-101.667 233.745,-107.452 -5.41,131.702 				"/>
				<polygon id="XMLID_1084_" fill="#FF0000" points="-11.199,131.702 233.745,-113.238 233.745,-119.021 -16.982,131.702 				"/>
				<polygon id="XMLID_1085_" fill="#FF0000" points="-22.762,131.702 233.745,-124.81 233.745,-130.593 -28.545,131.702 				"/>
				<polygon id="XMLID_1086_" fill="#FF0000" points="-34.331,131.702 233.745,-136.372 233.745,-142.157 -40.114,131.702 				"/>
				<polygon id="XMLID_1087_" fill="#FF0000" points="-45.898,131.702 233.745,-147.942 233.745,-153.724 -51.678,131.702 				"/>
				<polygon id="XMLID_1088_" fill="#FF0000" points="-57.467,131.702 233.745,-159.505 233.745,-165.29 -63.247,131.702 				"/>
				<polygon id="XMLID_1089_" fill="#FF0000" points="-69.03,131.702 233.745,-171.075 233.745,-176.847 -74.812,131.702 				"/>
				<polygon id="XMLID_1090_" fill="#FF0000" points="-80.594,131.702 233.745,-182.638 233.745,-188.417 -86.377,131.702 				"/>
				<polygon id="XMLID_1091_" fill="#FF0000" points="-92.162,131.702 233.745,-194.198 233.745,-199.983 -97.946,131.702 				"/>
				<polygon id="XMLID_1092_" fill="#FF0000" points="-103.732,131.702 233.745,-205.765 233.745,-211.55 -109.516,131.702 				"/>
				<polygon id="XMLID_1093_" fill="#FF0000" points="-115.295,131.702 233.745,-217.341 233.745,-223.122 -121.079,131.702 				"/>
				<polygon id="XMLID_1094_" fill="#FF0000" points="230.854,-231.792 -129.754,128.81 -129.754,131.702 -126.862,131.702 
					233.745,-228.911 233.745,-231.792 				"/>
				<polygon id="XMLID_1095_" fill="#FF0000" points="219.292,-231.792 -129.754,117.243 -129.754,123.025 225.075,-231.792 				"/>
				<polygon id="XMLID_1096_" fill="#FF0000" points="207.712,-231.792 -129.754,105.68 -129.754,111.463 213.503,-231.792 				"/>
				<polygon id="XMLID_1097_" fill="#FF0000" points="196.15,-231.792 -129.754,94.11 -129.754,99.896 201.932,-231.792 				"/>
				<polygon id="XMLID_1098_" fill="#FF0000" points="184.59,-231.792 -129.754,82.54 -129.754,88.319 190.37,-231.792 				"/>
				<polygon id="XMLID_1099_" fill="#FF0000" points="173.019,-231.792 -129.754,70.978 -129.754,76.764 178.799,-231.792 				"/>
				<polygon id="XMLID_1100_" fill="#FF0000" points="161.456,-231.792 -129.754,59.416 -129.754,65.196 167.237,-231.792 				"/>
				<polygon id="XMLID_1101_" fill="#FF0000" points="149.885,-231.792 -129.754,47.846 -129.754,53.631 155.676,-231.792 				"/>
				<polygon id="XMLID_1102_" fill="#FF0000" points="138.325,-231.792 -129.754,36.284 -129.754,42.065 144.105,-231.792 				"/>
				<polygon id="XMLID_1103_" fill="#FF0000" points="126.763,-231.792 -129.754,24.713 -129.754,30.493 132.544,-231.792 				"/>
				<polygon id="XMLID_1104_" fill="#FF0000" points="115.191,-231.792 -129.754,13.147 -129.754,18.933 120.972,-231.792 				"/>
				<polygon id="XMLID_1105_" fill="#FF0000" points="103.62,-231.792 -129.754,1.58 -129.754,7.36 109.4,-231.792 				"/>
				<polygon id="XMLID_1106_" fill="#FF0000" points="92.051,-231.792 -129.754,-9.992 -129.754,-4.206 97.837,-231.792 				"/>
				<polygon id="XMLID_1107_" fill="#FF0000" points="80.485,-231.792 -129.754,-21.552 -129.754,-15.772 86.269,-231.792 				"/>
				<polygon id="XMLID_1108_" fill="#FF0000" points="68.921,-231.792 -129.754,-33.124 -129.754,-27.339 74.71,-231.792 				"/>
				<polygon id="XMLID_1109_" fill="#FF0000" points="57.353,-231.792 -129.754,-44.685 -129.754,-38.894 63.136,-231.792 				"/>
				<polygon id="XMLID_1110_" fill="#FF0000" points="45.789,-231.792 -129.754,-56.246 -129.754,-50.466 51.569,-231.792 				"/>
				<polygon id="XMLID_1111_" fill="#FF0000" points="34.225,-231.792 -129.754,-67.813 -129.754,-62.031 40.006,-231.792 				"/>
				<polygon id="XMLID_1112_" fill="#FF0000" points="22.656,-231.792 -129.754,-79.379 -129.754,-73.608 28.436,-231.792 				"/>
				<polygon id="XMLID_1113_" fill="#FF0000" points="11.09,-231.792 -129.754,-90.96 -129.754,-85.175 16.873,-231.792 				"/>
				<polygon id="XMLID_1114_" fill="#FF0000" points="-0.474,-231.792 -129.754,-102.522 -129.754,-96.729 5.309,-231.792 				"/>
				<polygon id="XMLID_1115_" fill="#FF0000" points="-12.043,-231.792 -129.754,-114.084 -129.754,-108.304 -6.26,-231.792 				"/>
				<polygon id="XMLID_1116_" fill="#FF0000" points="-23.612,-231.792 -129.754,-125.649 -129.754,-119.868 -17.831,-231.792 				
					"/>
				<polygon id="XMLID_1117_" fill="#FF0000" points="-35.175,-231.792 -129.754,-137.216 -129.754,-131.435 -29.396,-231.792 				
					"/>
				<polygon id="XMLID_1118_" fill="#FF0000" points="-46.739,-231.792 -129.754,-148.788 -129.754,-142.997 -40.959,-231.792 				
					"/>
				<polygon id="XMLID_1119_" fill="#FF0000" points="-58.312,-231.792 -129.754,-160.349 -129.754,-154.558 -52.523,-231.792 				
					"/>
				<polygon id="XMLID_1120_" fill="#FF0000" points="-69.874,-231.792 -129.754,-171.909 -129.754,-166.13 -64.091,-231.792 				
					"/>
				<polygon id="XMLID_1121_" fill="#FF0000" points="-81.443,-231.792 -129.754,-183.485 -129.754,-177.7 -75.66,-231.792 				"/>
				<polygon id="XMLID_1122_" fill="#FF0000" points="-93.007,-231.792 -129.754,-195.052 -129.754,-189.272 -87.228,-231.792 				
					"/>
				<polygon id="XMLID_1123_" fill="#FF0000" points="-104.571,-231.792 -129.754,-206.618 -129.754,-200.833 -98.795,-231.792 				
					"/>
				<polygon id="XMLID_1124_" fill="#FF0000" points="-116.141,-231.792 -129.754,-218.185 -129.754,-212.403 -110.359,-231.792 
									"/>
				<polygon id="XMLID_1125_" fill="#FF0000" points="-127.711,-231.792 -129.754,-229.747 -129.754,-223.966 -121.922,-231.792 
									"/>
			</g>
		</g>
	</g>
</g>
</svg>
