<?xml version="1.0" encoding="utf-8"?>
<!-- Generator: Adobe Illustrator 16.0.0, SVG Export Plug-In . SVG Version: 6.00 Build 0)  -->
<!DOCTYPE svg PUBLIC "-//W3C//DTD SVG 1.1//EN" "http://www.w3.org/Graphics/SVG/1.1/DTD/svg11.dtd">
<svg version="1.1" xmlns="http://www.w3.org/2000/svg" xmlns:xlink="http://www.w3.org/1999/xlink" x="0px" y="0px" width="1000px"
	 height="32px" viewBox="0 0 1000 32" enable-background="new 0 0 1000 32" xml:space="preserve">
<g id="Calque_2" display="none">
	<rect display="inline" fill="#333333" width="1000" height="32"/>
</g>
<g id="Calque_4" display="none">
	
		<image display="inline" overflow="visible" width="1000" height="24" xlink:href="../../../../../projeqtorV8.5/view/css/customIcons/grey/editorButtonsDisabled.png"  transform="matrix(0.9999 0 0 0.9999 0 4)">
	</image>
</g>
<g id="Calque_5" display="none">
	
		<image display="inline" overflow="visible" width="1000" height="24" xlink:href="../../../../../projeqtorV8.6/view/css/customIcons/new/editorButtonsEnabled.png"  transform="matrix(1 0 0 1 0 4)">
	</image>
</g>
<g id="FLAT" display="none">
	<path display="inline" fill="#333333" stroke="#FFFFFF" stroke-width="1.2563" stroke-miterlimit="10" d="M624.316,18.578
		c0,0.561-0.373,1.018-0.834,1.018H610.24c-0.459,0-0.833-0.457-0.833-1.018V6.019c0-0.563,0.374-1.018,0.833-1.018h13.242
		c0.461,0,0.834,0.456,0.834,1.018V18.578z"/>
	<path display="inline" fill="#FFFFFF" d="M621.294,13.937c0,0.166-0.138,0.303-0.309,0.303h-8.248c-0.17,0-0.309-0.137-0.309-0.303
		v-0.395c0-0.167,0.139-0.301,0.309-0.301h8.248c0.171,0,0.309,0.134,0.309,0.301V13.937z"/>
	<path display="inline" fill="#FFFFFF" d="M621.294,16.558c0,0.167-0.138,0.303-0.309,0.303h-8.248c-0.17,0-0.309-0.136-0.309-0.303
		v-0.394c0-0.168,0.139-0.303,0.309-0.303h8.248c0.171,0,0.309,0.135,0.309,0.303V16.558z"/>
	<path display="inline" fill="#FFFFFF" d="M621.294,8.443c0,0.166-0.138,0.302-0.309,0.302h-8.248c-0.17,0-0.309-0.136-0.309-0.302
		V8.048c0-0.167,0.139-0.302,0.309-0.302h8.248c0.171,0,0.309,0.135,0.309,0.302V8.443z"/>
	<path display="inline" fill="#FFFFFF" d="M621.294,11.064c0,0.167-0.138,0.302-0.309,0.302h-8.248c-0.17,0-0.309-0.135-0.309-0.302
		V10.67c0-0.167,0.139-0.303,0.309-0.303h8.248c0.171,0,0.309,0.135,0.309,0.303V11.064z"/>
	<g display="inline">
		<path fill="#FFFFFF" d="M246.312,3.835h-1.247V9.19c0,0.243-0.222,0.441-0.496,0.441h-7.878c-0.273,0-0.495-0.198-0.495-0.441
			V3.835h-1.012c-0.683,0-1.237,0.494-1.237,1.104v13.604c0,0.609,0.554,1.104,1.237,1.104h13.198c0.683,0,1.237-0.494,1.237-1.104
			v-11.2L246.312,3.835z"/>
	</g>
	<path display="inline" fill="#333333" d="M247.506,17.937c0,0.277-0.283,0.504-0.632,0.504h-10.047
		c-0.349,0-0.632-0.227-0.632-0.504v-6.213c0-0.279,0.283-0.504,0.632-0.504h10.047c0.35,0,0.632,0.225,0.632,0.504V17.937z"/>
	<path display="inline" fill="#FFFFFF" d="M243.502,8.514c0,0.17-0.14,0.306-0.313,0.306h-4.964c-0.173,0-0.313-0.136-0.313-0.306
		V4.751c0-0.168,0.14-0.305,0.313-0.305h4.964c0.172,0,0.313,0.137,0.313,0.305V8.514z"/>
	<path display="inline" fill="#FFFFFF" d="M246.255,14.063c0,0.168-0.14,0.306-0.313,0.306h-8.322c-0.172,0-0.312-0.138-0.312-0.306
		v-0.399c0-0.168,0.14-0.305,0.312-0.305h8.322c0.172,0,0.313,0.137,0.313,0.305V14.063z"/>
	<path display="inline" fill="#FFFFFF" d="M246.255,16.706c0,0.169-0.14,0.306-0.313,0.306h-8.322c-0.172,0-0.312-0.137-0.312-0.306
		v-0.397c0-0.168,0.14-0.305,0.312-0.305h8.322c0.172,0,0.313,0.137,0.313,0.305V16.706z"/>
	<g display="inline">
		<rect x="55.11" y="4" fill="#FFFFFF" width="16.298" height="5.248"/>
		<path fill="#FFFFFF" d="M50.792,10.17v12.556h4.319v5.177h16.298v-5.177h4.206V10.17H50.792z M72.911,16.625
			c-0.83,0-1.502-0.635-1.502-1.419c0-0.783,0.672-1.418,1.502-1.418s1.502,0.635,1.502,1.418
			C74.413,15.99,73.74,16.625,72.911,16.625z"/>
	</g>
	<g display="inline">
		<path fill="#FFFFFF" d="M20,4.013H0.979V28h24.094V8.011C23.093,6.45,21.98,5.575,20,4.013z M17.479,15.652v2.256
			c0,0.201-0.165,0.364-0.363,0.364h-0.854h-1.745v2.599c0,0.199-0.163,0.362-0.363,0.362h-2.257c-0.199,0-0.363-0.163-0.363-0.362
			v-2.599H8.935c-0.199,0-0.361-0.163-0.361-0.364v-2.256c0-0.199,0.163-0.362,0.361-0.362h1.736h0.863v-2.599
			c0-0.199,0.164-0.363,0.363-0.363h2.257c0.2,0,0.363,0.164,0.363,0.363v2.599h2.599c0.194,0,0.354,0.157,0.36,0.35
			C17.477,15.644,17.479,15.648,17.479,15.652L17.479,15.652z"/>
	</g>
	<rect x="27.587" y="25.196" display="inline" fill="#333333" width="1.109" height="1.11"/>
	<rect x="47.237" y="25.196" display="inline" fill="#333333" width="1.109" height="1.11"/>
	<path display="inline" fill="#FFFFFF" d="M97.897,28.08H79.171V4.192h14.784c1.539,1.554,2.402,2.426,3.942,3.98V28.08z"/>
	<path display="inline" fill="#333333" d="M93.955,4.192v3.98h3.942C96.357,6.618,95.494,5.746,93.955,4.192z"/>
	<rect x="78.33" y="11.002" display="inline" fill="#333333" width="18.051" height="6.84"/>
	
		<text transform="matrix(1 0 0 1 80.8838 17.209)" display="inline" fill="#FFFFFF" font-family="'MyriadPro-Bold'" font-size="7.1771">PDF</text>
	<path display="inline" fill="#FFFFFF" d="M374.397,28.08h-18.727V4.427h14.784c1.539,1.539,2.402,2.402,3.942,3.941V28.08z"/>
	<rect x="354.83" y="11.002" display="inline" fill="#333333" width="18.051" height="6.84"/>
	
		<text transform="matrix(1 0 0 1 357.5024 17.209)" display="inline" fill="#FFFFFF" font-family="'MyriadPro-Bold'" font-size="7.1771">CSV</text>
	<g display="inline">
		<path fill="#FFFFFF" d="M116.45,23.875h-15.695V4.05h12.391c1.291,1.291,2.014,2.014,3.305,3.304V23.875z"/>
		<path fill="#333333" d="M113.145,4.05v3.304h3.305C115.159,6.063,114.436,5.341,113.145,4.05z"/>
		<rect x="102.406" y="6.528" fill="#333333" width="4.544" height="0.825"/>
		<g>
			<g>
				<rect x="109.841" y="8.18" fill="#4A5159" width="4.956" height="0.826"/>
			</g>
			<g>
				<rect x="109.841" y="9.832" fill="#4A5159" width="4.956" height="0.827"/>
			</g>
			<g>
				<rect x="109.841" y="11.484" fill="#4A5159" width="4.956" height="0.826"/>
			</g>
			<g>
				<rect x="102.406" y="13.137" fill="#333333" width="12.391" height="0.826"/>
			</g>
			<g>
				<rect x="102.406" y="14.789" fill="#333333" width="12.391" height="0.826"/>
			</g>
		</g>
		<rect x="102.406" y="8.18" fill="#333333" width="6.609" height="4.131"/>
		<rect x="102.406" y="16.44" fill="#333333" width="12.391" height="5.781"/>
	</g>
	<g display="inline">
		<path fill="#FFFFFF" d="M124.825,28h-15.695V8.175h12.391c1.291,1.291,2.014,2.014,3.305,3.304V28z"/>
		<path fill="#333333" d="M121.52,8.175v3.304h3.305C123.534,10.188,122.811,9.466,121.52,8.175z"/>
		<rect x="110.781" y="10.653" fill="#333333" width="4.544" height="0.825"/>
		<g>
			<g>
				<rect x="118.216" y="12.305" fill="#333333" width="4.956" height="0.826"/>
			</g>
			<g>
				<rect x="118.216" y="13.957" fill="#333333" width="4.956" height="0.827"/>
			</g>
			<g>
				<rect x="118.216" y="15.609" fill="#333333" width="4.956" height="0.826"/>
			</g>
			<g>
				<rect x="110.781" y="17.262" fill="#333333" width="12.391" height="0.826"/>
			</g>
			<g>
				<rect x="110.781" y="18.914" fill="#333333" width="12.391" height="0.826"/>
			</g>
		</g>
		<rect x="110.781" y="12.305" fill="#333333" width="6.609" height="4.131"/>
		<rect x="110.781" y="20.565" fill="#333333" width="12.391" height="5.781"/>
	</g>
	<path display="inline" fill="#F2F9FF" d="M154.767,27.474c0,0.151,0.066,0.304,0.198,0.42s0.304,0.174,0.478,0.174h15.558
		c0.172,0,0.347-0.058,0.478-0.174c0.132-0.116,0.199-0.269,0.199-0.42V11.382h-16.911V27.474z"/>
	<path display="inline" fill="#F2F9FF" d="M173.27,10.382h-20.095V8.158c0-0.076,0.036-0.152,0.108-0.209
		c0.071-0.059,0.165-0.087,0.257-0.087h19.367c0.092,0,0.186,0.028,0.258,0.087c0.072,0.058,0.106,0.133,0.106,0.209V10.382z"/>
	<path display="inline" fill="#F2F9FF" d="M167.243,7.12h-1.646V5.934c0-0.023-0.006-0.067-0.053-0.105
		c-0.045-0.039-0.1-0.043-0.128-0.043h-4.384c-0.028,0-0.083,0.005-0.129,0.043c-0.046,0.038-0.055,0.082-0.055,0.105V7.12h-1.643
		V6.526h0.914V4.934c0-0.199,0.095-0.385,0.267-0.525c0.172-0.141,0.402-0.217,0.646-0.217h4.384c0.243,0,0.473,0.077,0.645,0.217
		c0.172,0.14,0.269,0.326,0.269,0.525v1.592h0.914V7.12z"/>
	<g display="inline">
		<path fill="#333333" d="M156.675,12.735v12.532c0,0.114,0.055,0.229,0.162,0.314c0.105,0.088,0.246,0.132,0.386,0.132
			c0.142,0,0.281-0.044,0.388-0.132c0.107-0.086,0.161-0.2,0.161-0.314V12.735H156.675z"/>
		<path fill="#333333" d="M160.604,12.735v12.532c0,0.114,0.053,0.229,0.161,0.314c0.108,0.088,0.248,0.132,0.387,0.132
			c0.139,0,0.28-0.044,0.387-0.132c0.106-0.086,0.161-0.2,0.161-0.314V12.735H160.604z"/>
		<path fill="#333333" d="M164.532,12.735v12.532c0,0.114,0.053,0.229,0.16,0.314c0.107,0.088,0.246,0.132,0.387,0.132
			c0.141,0,0.281-0.044,0.388-0.132c0.108-0.086,0.16-0.2,0.16-0.314V12.735H164.532z"/>
		<path fill="#333333" d="M168.458,12.735v12.532c0,0.114,0.055,0.229,0.161,0.314c0.107,0.088,0.248,0.132,0.389,0.132
			c0.139,0,0.28-0.044,0.387-0.132c0.107-0.086,0.16-0.2,0.16-0.314V12.735H168.458z"/>
	</g>
	<g display="inline">
		<polygon fill="#FFFFFF" points="190.894,19.393 197.249,25.75 189.496,27.145 		"/>
		<polygon fill="#FFFFFF" points="184.175,12.76 177.82,6.405 185.572,5.008 		"/>
		<g>
			<path fill="#FFFFFF" d="M182.622,21.189c-2.76-2.76-2.76-7.235,0-9.995c0.049-0.051,0.1-0.097,0.15-0.144l-2.92-3.176
				c-0.092,0.086-0.183,0.171-0.273,0.26c-4.454,4.455-4.454,11.673,0,16.128c2.077,2.076,4.756,3.186,7.475,3.324l0.671-4.33
				C185.881,23.283,184.028,22.596,182.622,21.189z"/>
			<path fill="#FFFFFF" d="M192.617,11.194c2.76,2.761,2.76,7.236,0,9.998c-0.218,0.217-0.447,0.414-0.686,0.598l2.903,3.264
				c0.301-0.244,0.593-0.51,0.873-0.789c4.454-4.453,4.454-11.674,0-16.128c-2.075-2.076-4.753-3.184-7.472-3.325l-0.611,4.313
				C189.431,9.125,191.238,9.815,192.617,11.194z"/>
		</g>
	</g>
	<g display="inline">
		<polygon fill="#FFFFFF" points="134.806,13.127 128.485,6.806 127.095,14.517 		"/>
		<g>
			<path fill="#FFFFFF" d="M133,21.351c2.766,2.769,7.252,2.769,10.018,0c2.767-2.766,2.767-7.251,0-10.018
				c-2.765-2.766-7.248-2.766-10.014-0.004l-2.807-2.844c4.378-4.345,11.448-4.336,15.813,0.03c4.375,4.375,4.375,11.468,0,15.843
				c-4.375,4.375-11.469,4.375-15.844,0c-2.155-2.152-3.246-4.968-3.278-7.79l4.042-0.479C130.864,17.985,131.552,19.903,133,21.351
				z"/>
		</g>
	</g>
	<polygon display="inline" fill="#333333" points="20,4.013 21.096,7.979 25.093,7.979 	"/>
	<polygon display="inline" fill="#6F6F6E" points="370.335,4.045 371.431,8.01 375.428,8.01 	"/>
	<path display="inline" fill="#FFFFFF" d="M898.571,28.016h-18.727V4.362h14.784c1.539,1.539,2.402,2.402,3.942,3.941V28.016z"/>
	<rect x="879.004" y="10.938" display="inline" fill="#333333" width="18.052" height="6.84"/>
	
		<text transform="matrix(1 0 0 1 880.8262 17.1445)" display="inline" fill="#FFFFFF" font-family="'MyriadPro-Bold'" font-size="7.1771">DOC</text>
	<polygon display="inline" fill="#6F6F6E" points="894.509,3.98 895.604,7.945 899.603,7.945 	"/>
	<path display="inline" fill="#FFFFFF" d="M922.196,28.016H903.47V4.362h14.784c1.539,1.539,2.402,2.402,3.942,3.941V28.016z"/>
	<rect x="902.629" y="10.938" display="inline" fill="#333333" width="18.052" height="6.84"/>
	
		<text transform="matrix(1 0 0 1 905.6855 17.1445)" display="inline" fill="#FFFFFF" font-family="'MyriadPro-Bold'" font-size="7.1771">XLS</text>
	<polygon display="inline" fill="#6F6F6E" points="918.134,3.98 919.229,7.945 923.228,7.945 	"/>
	<g display="inline">
		<path fill="#FFFFFF" d="M824.413,4.023h-22.819c-0.313,0-0.567,0.254-0.567,0.567v22.819c0,0.313,0.254,0.567,0.567,0.567h22.819
			c0.313,0,0.566-0.254,0.566-0.567V4.59C824.979,4.277,824.727,4.023,824.413,4.023z M820.222,13.36l-6.123,7.791
			c-0.336,0.429-0.826,0.701-1.367,0.766c-0.08,0.01-0.16,0.016-0.242,0.016c-0.459,0-0.902-0.154-1.268-0.441l-5.1-4.039
			c-0.883-0.699-1.031-1.98-0.33-2.862c0.697-0.881,1.984-1.028,2.867-0.33l3.492,2.768l4.857-6.179
			c0.693-0.886,1.977-1.039,2.865-0.347C820.761,11.195,820.917,12.475,820.222,13.36z"/>
	</g>
	<g display="inline">
		<path fill="#FFFFFF" d="M841.438,27.966c0-8.529-6.938-15.468-15.467-15.468v5c5.771,0,10.467,4.696,10.467,10.468
			c0,0.012-0.002,0.022-0.002,0.034h5C841.436,27.988,841.438,27.978,841.438,27.966z"/>
		<path fill="#FFFFFF" d="M825.971,3.742v5.006C836.526,8.877,845.079,17.44,845.189,28h5.005
			C850.084,14.682,839.284,3.871,825.971,3.742z"/>
	</g>
	<circle display="inline" fill="#FFFFFF" cx="829.408" cy="24.563" r="3.438"/>
	<g display="inline">
		<path fill="#FFFFFF" d="M866.313,27.966c0-8.529-6.938-15.468-15.467-15.468v5c5.771,0,10.467,4.696,10.467,10.468
			c0,0.012-0.002,0.022-0.002,0.034h5C866.311,27.988,866.313,27.978,866.313,27.966z"/>
		<path fill="#FFFFFF" d="M850.846,3.742v5.006C861.401,8.877,869.954,17.44,870.064,28h5.005
			C874.959,14.682,864.159,3.871,850.846,3.742z"/>
	</g>
	<circle display="inline" fill="#FFFFFF" cx="854.283" cy="24.563" r="3.438"/>
	<path display="inline" fill="#F08519" d="M873.184,5.537c-0.889-0.692-2.172-0.539-2.865,0.347l-4.857,6.179l-3.492-2.768
		c-0.883-0.698-2.17-0.551-2.867,0.33c-0.701,0.882-0.553,2.162,0.33,2.861l5.1,4.039c0.365,0.287,0.809,0.441,1.268,0.441
		c0.082,0,0.162-0.006,0.242-0.016c0.541-0.064,1.031-0.337,1.367-0.766l6.123-7.79C874.227,7.51,874.07,6.23,873.184,5.537z"/>
	<path display="inline" fill="#FFFFFF" d="M790.373,11.931c0,0.313-0.254,0.567-0.567,0.567h-3.238
		c-0.313,0-0.567-0.254-0.567-0.567V8.692c0-0.313,0.254-0.567,0.567-0.567h3.238c0.313,0,0.567,0.254,0.567,0.567V11.931z"/>
	<path display="inline" fill="#FFFFFF" d="M790.373,17.617c0,0.313-0.254,0.567-0.567,0.567h-3.238
		c-0.313,0-0.567-0.254-0.567-0.567v-3.239c0-0.313,0.254-0.567,0.567-0.567h3.238c0.313,0,0.567,0.254,0.567,0.567V17.617z"/>
	<path display="inline" fill="#FFFFFF" d="M790.373,23.49c0,0.313-0.254,0.567-0.567,0.567h-3.238c-0.313,0-0.567-0.254-0.567-0.567
		v-3.238c0-0.313,0.254-0.567,0.567-0.567h3.238c0.313,0,0.567,0.254,0.567,0.567V23.49z"/>
	<path display="inline" fill="#FFFFFF" d="M406.563,26c0,1.104-0.896,2-2,2H403c-1.104,0-2-0.896-2-2V6.043c0-1.104,0.896-2,2-2
		h1.563c1.104,0,2,0.896,2,2V26z"/>
	<path display="inline" fill="#FFFFFF" d="M415.625,26c0,1.104-0.896,2-2,2h-1.563c-1.104,0-2-0.896-2-2V6.043c0-1.104,0.896-2,2-2
		h1.563c1.104,0,2,0.896,2,2V26z"/>
	<path display="inline" fill="#FFFFFF" d="M424.813,26c0,1.104-0.896,2-2,2h-1.563c-1.104,0-2-0.896-2-2V6.043c0-1.104,0.896-2,2-2
		h1.563c1.104,0,2,0.896,2,2V26z"/>
	<path display="inline" fill="#FFFFFF" d="M556.781,25.84c0,1.104-0.896,2-2,2h-1.563c-1.104,0-2-0.896-2-2V5.883
		c0-1.104,0.896-2,2-2h1.563c1.104,0,2,0.896,2,2V25.84z"/>
	<path display="inline" fill="#FFFFFF" d="M577.771,9.446c-1.104,0-2-0.896-2-2V5.883c0-1.104,0.896-2,2-2h19.957
		c1.104,0,2,0.896,2,2v1.563c0,1.104-0.896,2-2,2H577.771z"/>
	<path display="inline" fill="#FFFFFF" d="M577.771,28.058c-1.104,0-2-0.508-2-1.136v-0.887c0-0.628,0.896-1.136,2-1.136h19.957
		c1.104,0,2,0.508,2,1.136v0.887c0,0.628-0.896,1.136-2,1.136H577.771z"/>
	<path display="inline" fill="#FFFFFF" d="M575.241,25.84c0,1.104-0.508,2-1.136,2h-0.887c-0.628,0-1.136-0.896-1.136-2V5.883
		c0-1.104,0.508-2,1.136-2h0.887c0.628,0,1.136,0.896,1.136,2V25.84z"/>
	<path display="inline" fill="#FFFFFF" d="M254.256,8.265c0,0.276-0.224,0.5-0.5,0.5h-2.117c-0.276,0-0.5-0.224-0.5-0.5V6.147
		c0-0.276,0.224-0.5,0.5-0.5h2.117c0.276,0,0.5,0.224,0.5,0.5V8.265z"/>
	<path display="inline" fill="#FFFFFF" d="M254.256,14.216c0,0.276-0.224,0.5-0.5,0.5h-2.117c-0.276,0-0.5-0.224-0.5-0.5v-2.117
		c0-0.276,0.224-0.5,0.5-0.5h2.117c0.276,0,0.5,0.224,0.5,0.5V14.216z"/>
	<path display="inline" fill="#FFFFFF" d="M254.256,20.168c0,0.275-0.224,0.5-0.5,0.5h-2.117c-0.276,0-0.5-0.225-0.5-0.5v-2.117
		c0-0.277,0.224-0.5,0.5-0.5h2.117c0.276,0,0.5,0.223,0.5,0.5V20.168z"/>
	<path display="inline" fill="#FFFFFF" d="M254.256,25.949c0,0.275-0.224,0.5-0.5,0.5h-2.117c-0.276,0-0.5-0.225-0.5-0.5v-2.117
		c0-0.277,0.224-0.5,0.5-0.5h2.117c0.276,0,0.5,0.223,0.5,0.5V25.949z"/>
	<path display="inline" fill="#FFFFFF" d="M274.831,8.153c0,0.338-0.227,0.611-0.508,0.611h-16.896
		c-0.281,0-0.508-0.273-0.508-0.611V6.259c0-0.338,0.227-0.611,0.508-0.611h16.896c0.281,0,0.508,0.273,0.508,0.611V8.153z"/>
	<path display="inline" fill="#FFFFFF" d="M274.92,8.147c0,0.276-0.224,0.5-0.5,0.5h-17c-0.276,0-0.5-0.224-0.5-0.5v-2
		c0-0.276,0.224-0.5,0.5-0.5h17c0.276,0,0.5,0.224,0.5,0.5V8.147z"/>
	<path display="inline" fill="#FFFFFF" d="M301,8.147c0,0.276-0.224,0.5-0.5,0.5h-23.08c-0.276,0-0.5-0.224-0.5-0.5v-2
		c0-0.276,0.224-0.5,0.5-0.5h23.08c0.276,0,0.5,0.224,0.5,0.5V8.147z"/>
	<path display="inline" fill="#FFFFFF" d="M326.083,8.147c0,0.276-0.224,0.5-0.5,0.5h-23.08c-0.276,0-0.5-0.224-0.5-0.5v-2
		c0-0.276,0.224-0.5,0.5-0.5h23.08c0.276,0,0.5,0.224,0.5,0.5V8.147z"/>
	<path display="inline" fill="#FFFFFF" d="M274.92,14.157c0,0.276-0.224,0.5-0.5,0.5h-17c-0.276,0-0.5-0.224-0.5-0.5v-2
		c0-0.276,0.224-0.5,0.5-0.5h17c0.276,0,0.5,0.224,0.5,0.5V14.157z"/>
	<path display="inline" fill="#FFFFFF" d="M274.92,20.107c0,0.277-0.224,0.5-0.5,0.5h-17c-0.276,0-0.5-0.223-0.5-0.5v-2
		c0-0.275,0.224-0.5,0.5-0.5h17c0.276,0,0.5,0.225,0.5,0.5V20.107z"/>
	<path display="inline" fill="#FFFFFF" d="M274.92,25.89c0,0.277-0.224,0.5-0.5,0.5h-17c-0.276,0-0.5-0.223-0.5-0.5v-2
		c0-0.275,0.224-0.5,0.5-0.5h17c0.276,0,0.5,0.225,0.5,0.5V25.89z"/>
	<path display="inline" fill="#FFFFFF" d="M301,25.89c0,0.277-0.224,0.5-0.5,0.5h-14.955c-0.276,0-0.5-0.223-0.5-0.5v-2
		c0-0.275,0.224-0.5,0.5-0.5H300.5c0.276,0,0.5,0.225,0.5,0.5V25.89z"/>
	<path display="inline" fill="#FFFFFF" d="M301,20.107c0,0.277-0.224,0.5-0.5,0.5h-14.955c-0.276,0-0.5-0.223-0.5-0.5v-2
		c0-0.275,0.224-0.5,0.5-0.5H300.5c0.276,0,0.5,0.225,0.5,0.5V20.107z"/>
	<path display="inline" fill="#FFFFFF" d="M301,13.691c0,0.277-0.224,0.5-0.5,0.5h-14.955c-0.276,0-0.5-0.223-0.5-0.5v-2
		c0-0.275,0.224-0.5,0.5-0.5H300.5c0.276,0,0.5,0.225,0.5,0.5V13.691z"/>
	<path display="inline" fill="#FFFFFF" d="M317.958,25.89c0,0.277-0.224,0.5-0.5,0.5h-14.955c-0.276,0-0.5-0.223-0.5-0.5v-2
		c0-0.275,0.224-0.5,0.5-0.5h14.955c0.276,0,0.5,0.225,0.5,0.5V25.89z"/>
	<path display="inline" fill="#FFFFFF" d="M317.958,20.107c0,0.277-0.224,0.5-0.5,0.5h-14.955c-0.276,0-0.5-0.223-0.5-0.5v-2
		c0-0.275,0.224-0.5,0.5-0.5h14.955c0.276,0,0.5,0.225,0.5,0.5V20.107z"/>
	<path display="inline" fill="#FFFFFF" d="M317.958,13.691c0,0.277-0.224,0.5-0.5,0.5h-14.955c-0.276,0-0.5-0.223-0.5-0.5v-2
		c0-0.275,0.224-0.5,0.5-0.5h14.955c0.276,0,0.5,0.225,0.5,0.5V13.691z"/>
	<polygon display="inline" fill="#FFFFFF" points="276.92,10.938 276.92,26.391 284,18.664 	"/>
	<polygon display="inline" fill="#FFFFFF" points="325.625,10.938 325.625,26.391 318.545,18.664 	"/>
	<path display="inline" fill="#FFFFFF" d="M474.215,7.096l-2.674,2.673l-2.783-2.784l2.674-2.673
		c-1.469-0.461-3.135-0.113-4.297,1.05c-1.164,1.164-1.512,2.83-1.05,4.298l-9.825,9.896c-1.468-0.462-3.136-0.114-4.299,1.05
		c-1.164,1.163-1.512,2.83-1.05,4.297l2.674-2.674l2.782,2.784l-2.673,2.673c1.468,0.462,3.135,0.114,4.298-1.048
		c1.163-1.163,1.511-2.83,1.05-4.298l9.828-9.897c1.467,0.461,3.135,0.113,4.297-1.05S474.676,8.563,474.215,7.096z"/>
	<polygon display="inline" fill="#FF9933" points="492.962,7.14 479.995,16.479 492.962,25.817 	"/>
	<polygon display="inline" fill="#FF9933" points="507.037,25.817 520.004,16.479 507.037,7.14 	"/>
	<path display="inline" fill="#F5F5F5" d="M548.189,6.613c-1.201-0.936-2.936-0.729-3.872,0.469l-9.031,13.219l-4.72-3.741
		c-1.193-0.943-2.934-0.744-3.876,0.446c-0.947,1.192-0.747,2.923,0.446,3.868l6.894,5.459c0.493,0.388,1.093,0.597,1.713,0.597
		c0.111,0,0.219-0.008,0.327-0.021c0.731-0.087,1.395-0.455,1.849-1.034l10.741-15.397C549.6,9.28,549.389,7.55,548.189,6.613z"/>
	<path display="inline" fill="#FFFFFF" d="M673.758,17.04c0,5.962-4.834,10.796-10.793,10.796c-5.965,0-10.797-4.834-10.797-10.796
		c0-5.961,4.832-10.792,10.797-10.792C668.924,6.248,673.758,11.079,673.758,17.04z"/>
	<path display="inline" fill="none" stroke="#333333" stroke-width="3" stroke-miterlimit="10" d="M671.918,17.039
		c0,4.822-3.913,8.728-8.73,8.728c-4.818,0-8.728-3.905-8.728-8.728c0-4.82,3.909-8.727,8.728-8.727
		C668.005,8.313,671.918,12.219,671.918,17.039z"/>
	<circle display="inline" fill="#333333" cx="663.187" cy="17.039" r="4.127"/>
	<path display="inline" fill="#FFFFFF" d="M662.405,14.121c0,1.181-0.957,2.137-2.135,2.137c-1.179,0-2.132-0.956-2.132-2.137
		c0-1.177,0.953-2.134,2.132-2.134C661.448,11.987,662.405,12.944,662.405,14.121z"/>
	<circle display="inline" fill="#FFFFFF" cx="660.271" cy="17.891" r="0.759"/>
	<path display="inline" fill="#FFFFFF" d="M347.202,6.47c-3.796-3.525-9.727-3.304-13.25,0.491c-3.017,3.25-3.281,8.06-0.916,11.589
		l-5.719,6.159c-0.856,0.923-0.802,2.366,0.123,3.224c0.925,0.859,2.367,0.806,3.223-0.117l5.762-6.205
		c3.663,1.95,8.313,1.295,11.271-1.891C351.218,15.924,350.997,9.992,347.202,6.47z M345.625,17.799
		c-2.462,2.651-6.607,2.806-9.259,0.345c-2.652-2.462-2.806-6.609-0.344-9.261c2.462-2.651,6.607-2.805,9.26-0.343
		C347.934,11.001,348.087,15.146,345.625,17.799z"/>
	<path display="inline" fill="none" stroke="#FFFFFF" stroke-width="2" stroke-miterlimit="10" d="M340.375,8.765
		c0,0,4.714,1.165,4.625,5.426"/>
	<polyline display="inline" fill="#FFFFFF" points="376,4.043 399.875,4.043 399.875,6.027 392,14.191 383.75,14.191 376,6.027 
		376,4.427 	"/>
	<polygon display="inline" fill="#FFFFFF" points="383.75,15.999 391.75,15.999 391.75,28.08 390.392,28.08 383.75,24.709 	"/>
	<path display="inline" fill="#FFFFFF" d="M439.472,15.745c4.134-0.653,7.295-4.184,7.295-8.922H429.4
		c0,4.739,3.162,8.27,7.296,8.922c0.099,0.025,0.172,0.098,0.172,0.191s-0.077,0.168-0.178,0.191c-4.131,0.65-7.29,4.155-7.29,8.892
		h17.367c0-4.737-3.159-8.242-7.292-8.892c-0.1-0.024-0.176-0.099-0.176-0.191S439.373,15.77,439.472,15.745z M436.868,18.565
		c0.192,0,0.347,0.131,0.347,0.293s-0.155,0.292-0.347,0.292c-0.192,0-0.348-0.13-0.348-0.292S436.676,18.565,436.868,18.565z
		 M442.853,24.406h-9.538c0.613-2.252,2.516-3.893,4.769-3.893C440.336,20.514,442.239,22.154,442.853,24.406z M437.845,16.143
		c-0.144,0-0.26-0.098-0.26-0.218c0-0.123,0.116-0.221,0.26-0.221c0.144,0,0.26,0.098,0.26,0.221
		C438.105,16.045,437.989,16.143,437.845,16.143z M438.431,17.539c0.335,0,0.608,0.23,0.608,0.514s-0.272,0.513-0.608,0.513
		c-0.336,0-0.608-0.229-0.608-0.513S438.095,17.539,438.431,17.539z M438.083,14.765c-2.992,0-5.571-2.042-6.73-4.968
		c1.858-1.567,4.872-1.567,6.73,0c1.858,1.567,4.872,1.567,6.73,0C443.655,12.722,441.077,14.765,438.083,14.765z"/>
	<path display="inline" fill="#FFFFFF" d="M429.226,4.998h17.715c0.765,0,1.39-0.225,1.39-0.5c0-0.275-0.625-0.5-1.39-0.5h-17.715
		c-0.765,0-1.39,0.225-1.39,0.5C427.836,4.773,428.461,4.998,429.226,4.998z"/>
	<path display="inline" fill="#FFFFFF" d="M446.941,27.083h-17.715c-0.765,0-1.39,0.206-1.39,0.457s0.625,0.457,1.39,0.457h17.715
		c0.765,0,1.39-0.206,1.39-0.457S447.706,27.083,446.941,27.083z"/>
	<rect x="56.537" y="17.838" display="inline" fill="#333333" width="13.52" height="8.487"/>
	<rect x="58.941" y="19.716" display="inline" fill="#FFFFFF" width="8.637" height="0.901"/>
	<rect x="58.941" y="21.969" display="inline" fill="#FFFFFF" width="8.637" height="0.901"/>
	<rect x="58.941" y="24.136" display="inline" fill="#FFFFFF" width="8.637" height="0.901"/>
	<g display="inline">
		<path fill="#FFFFFF" d="M223.344,7.077H202.78l10.512,8.639L223.344,7.077z M201.086,8.359v14.886l6.979-9.15L201.086,8.359z
			 M213.315,18.41l-3.723-3.06l-7.386,9.685h21.686l-7.239-9.494L213.315,18.41z M218.155,14.251l6.754,8.857V8.445L218.155,14.251z
			"/>
	</g>
	<g display="inline">
		<path fill="#FFFFFF" d="M44.765,4h-1.893v8.129c0,0.371-0.337,0.67-0.752,0.67H30.16c-0.416,0-0.752-0.299-0.752-0.67V4h-1.536
			c-1.038,0-1.878,0.75-1.878,1.674v20.651c0,0.925,0.841,1.675,1.878,1.675h20.034c1.038,0,1.878-0.75,1.878-1.675V9.323L44.765,4z
			"/>
	</g>
	<path display="inline" fill="#333333" d="M46.579,25.405c0,0.422-0.429,0.765-0.96,0.765H30.367c-0.529,0-0.959-0.343-0.959-0.765
		v-9.432c0-0.423,0.43-0.765,0.959-0.765h15.252c0.531,0,0.96,0.341,0.96,0.765V25.405z"/>
	<path display="inline" fill="#FFFFFF" d="M40.5,11.102c0,0.256-0.212,0.464-0.474,0.464H32.49c-0.262,0-0.474-0.208-0.474-0.464
		V5.39c0-0.256,0.212-0.463,0.474-0.463h7.537c0.261,0,0.474,0.207,0.474,0.463V11.102z"/>
	<path display="inline" fill="#FFFFFF" d="M44.679,19.524c0,0.255-0.212,0.464-0.474,0.464H31.572c-0.261,0-0.474-0.209-0.474-0.464
		v-0.605c0-0.255,0.213-0.462,0.474-0.462h12.634c0.261,0,0.474,0.207,0.474,0.462V19.524z"/>
	<path display="inline" fill="#FFFFFF" d="M44.679,23.539c0,0.255-0.212,0.463-0.474,0.463H31.572c-0.261,0-0.474-0.208-0.474-0.463
		v-0.604c0-0.256,0.213-0.463,0.474-0.463h12.634c0.261,0,0.474,0.207,0.474,0.463V23.539z"/>
	<rect x="601.976" y="26.17" display="inline" fill="#333333" width="0.726" height="0.725"/>
	<rect x="614.805" y="26.17" display="inline" fill="#333333" width="0.724" height="0.725"/>
	<g display="inline">
		<path fill="#FFFFFF" d="M613.19,12.331h-1.235v5.308c0,0.242-0.221,0.438-0.491,0.438h-7.808c-0.271,0-0.491-0.195-0.491-0.438
			v-5.308h-1.003c-0.678,0-1.227,0.49-1.227,1.094v13.481c0,0.604,0.549,1.094,1.227,1.094h13.079c0.678,0,1.226-0.49,1.226-1.094
			V15.806L613.19,12.331z"/>
	</g>
	<path display="inline" fill="#333333" d="M614.375,26.306c0,0.275-0.281,0.5-0.627,0.5h-9.957c-0.346,0-0.626-0.225-0.626-0.5
		v-6.156c0-0.277,0.28-0.5,0.626-0.5h9.957c0.346,0,0.627,0.223,0.627,0.5V26.306z"/>
	<path display="inline" fill="#333333" d="M612.457,17.666c0,0.221-0.233,0.399-0.52,0.399h-8.253c-0.286,0-0.52-0.179-0.52-0.399
		v-4.935c0-0.221,0.233-0.4,0.52-0.4h8.253c0.286,0,0.52,0.179,0.52,0.4V17.666z"/>
	<path display="inline" fill="#FFFFFF" d="M610.407,16.969c0,0.167-0.139,0.302-0.31,0.302h-4.921c-0.171,0-0.31-0.135-0.31-0.302
		v-3.73c0-0.167,0.139-0.303,0.31-0.303h4.921c0.171,0,0.31,0.135,0.31,0.303V16.969z"/>
	<g display="inline">
		<path fill="#FFFFFF" d="M238.406,12.261h-1.247v5.355c0,0.243-0.222,0.441-0.496,0.441h-7.878c-0.273,0-0.495-0.198-0.495-0.441
			v-5.355h-1.012c-0.683,0-1.237,0.494-1.237,1.104v13.604c0,0.609,0.554,1.104,1.237,1.104h13.198c0.683,0,1.237-0.494,1.237-1.104
			v-11.2L238.406,12.261z"/>
	</g>
	<path display="inline" fill="#333333" d="M239.601,26.362c0,0.277-0.283,0.504-0.632,0.504h-10.047
		c-0.349,0-0.632-0.227-0.632-0.504v-6.213c0-0.279,0.283-0.504,0.632-0.504h10.047c0.35,0,0.632,0.225,0.632,0.504V26.362z"/>
	<path display="inline" fill="#333333" d="M237.158,17.648c0,0.283-0.224,0.513-0.5,0.513h-7.868c-0.276,0-0.5-0.229-0.5-0.513
		v-4.875c0-0.283,0.224-0.513,0.5-0.513h7.868c0.276,0,0.5,0.229,0.5,0.513V17.648z"/>
	<path display="inline" fill="#FFFFFF" d="M235.597,16.939c0,0.17-0.14,0.306-0.313,0.306h-4.964c-0.173,0-0.313-0.136-0.313-0.306
		v-3.762c0-0.168,0.14-0.305,0.313-0.305h4.964c0.172,0,0.313,0.137,0.313,0.305V16.939z"/>
	<path display="inline" fill="#FFFFFF" d="M238.35,22.488c0,0.168-0.14,0.306-0.313,0.306h-8.322c-0.172,0-0.312-0.138-0.312-0.306
		v-0.399c0-0.168,0.14-0.305,0.312-0.305h8.322c0.172,0,0.313,0.137,0.313,0.305V22.488z"/>
	<path display="inline" fill="#FFFFFF" d="M238.35,25.132c0,0.169-0.14,0.306-0.313,0.306h-8.322c-0.172,0-0.312-0.137-0.312-0.306
		v-0.397c0-0.168,0.14-0.305,0.312-0.305h8.322c0.172,0,0.313,0.137,0.313,0.305V25.132z"/>
	<polygon display="inline" fill="#FFFFFF" points="582,22.248 593.5,22.248 587.75,16.943 	"/>
	<polygon display="inline" fill="#FFFFFF" points="568.568,21.611 568.568,10.111 563.264,15.861 	"/>
	<path display="inline" fill="#FFFFFF" d="M637.908,7.343h10.713c0.313,0,0.564,0.252,0.564,0.564v15.789
		c0,0.311-0.252,0.562-0.564,0.562h-10.713c-0.313,0-0.563-0.251-0.563-0.562V7.907C637.345,7.595,637.596,7.343,637.908,7.343z"/>
	<path display="inline" fill="#FFFFFF" d="M648.621,7.907v15.789h-10.713V7.907H648.621 M648.621,6.779h-10.713
		c-0.622,0-1.128,0.504-1.128,1.128v15.789c0,0.622,0.506,1.126,1.128,1.126h10.713c0.624,0,1.129-0.504,1.129-1.126V7.907
		C649.75,7.283,649.245,6.779,648.621,6.779z"/>
	<path display="inline" fill="#333333" d="M647.179,13.596h-1.376v-3.434c0-0.313-0.252-0.565-0.564-0.565h-6.766v1.692h5.639v2.305
		h-1.442l-0.299,0.35l2.554,2.981l2.571-2.981L647.179,13.596z M639.533,18.011v2.352l1.927,1.888l3.137-3.066l-3.13-3.069
		L639.533,18.011z"/>
	<path display="inline" fill="#FFFFFF" d="M640.164,3.959L626.067,6.43v18.741l14.097,2.471V3.959z"/>
	<path display="inline" fill="#333333" d="M631.707,15.501v-3.029h0.788c0.229-0.012,0.457,0.011,0.678,0.069
		c0.182,0.048,0.35,0.143,0.489,0.271c0.137,0.127,0.24,0.289,0.3,0.467c0.07,0.217,0.104,0.443,0.1,0.672
		c0.003,0.223-0.031,0.446-0.1,0.659c-0.118,0.375-0.413,0.669-0.789,0.784c-0.22,0.067-0.448,0.101-0.678,0.096h-0.748
		 M632.833,10.725l-2.82,0.164v9.587l1.693,0.1v-3.416h0.952c0.248,0.008,0.494-0.002,0.739-0.034
		c0.232-0.034,0.464-0.09,0.687-0.169c0.216-0.077,0.422-0.175,0.613-0.293c0.205-0.119,0.394-0.261,0.565-0.424
		c0.156-0.153,0.296-0.32,0.418-0.501c0.117-0.178,0.219-0.366,0.297-0.564c0.082-0.21,0.144-0.428,0.182-0.649
		c0.117-0.712,0.064-1.443-0.157-2.13c-0.13-0.377-0.354-0.714-0.648-0.981c-0.305-0.27-0.671-0.463-1.065-0.564
		C633.813,10.732,633.322,10.691,632.833,10.725"/>
	<g display="inline">
		<g>
			<rect x="676.016" y="5.558" fill="#FFFFFF" width="23.614" height="5.164"/>
			<g>
				<rect x="676.628" y="11.333" fill="#333333" width="22.309" height="15.876"/>
				<path fill="#FFFFFF" d="M698.324,11.945v14.652H677.24V11.945H698.324 M699.549,10.721h-23.533v17.101h23.533V10.721
					L699.549,10.721z"/>
			</g>
		</g>
		<rect x="678.837" y="14.307" fill="#FFFFFF" width="7.755" height="7.533"/>
		<rect x="687.231" y="14.307" fill="#FFFFFF" width="9.441" height="7.533"/>
		<g>
			<path fill="#333333" stroke="#FFFFFF" stroke-width="0.6121" stroke-miterlimit="10" d="M690.134,24.748l-4.576-3.521
				c-0.793-0.61-0.924-1.726-0.297-2.494l0,0c0.629-0.767,1.781-0.896,2.573-0.287l0,0l3.134,2.412l4.357-5.384
				c0.622-0.771,1.772-0.906,2.569-0.303l0,0c0.795,0.605,0.936,1.72,0.312,2.491l0,0l-5.492,6.79
				c-0.302,0.372-0.74,0.61-1.226,0.667l0,0c-0.073,0.008-0.146,0.013-0.218,0.013l0,0C690.86,25.132,690.46,24.998,690.134,24.748
				L690.134,24.748z"/>
		</g>
		
			<line fill="none" stroke="#3C3C3B" stroke-width="1.8364" stroke-linecap="round" stroke-linejoin="round" stroke-miterlimit="10" x1="679.068" y1="3.755" x2="679.068" y2="7.317"/>
		
			<line fill="none" stroke="#3C3C3B" stroke-width="1.8364" stroke-linecap="round" stroke-linejoin="round" stroke-miterlimit="10" x1="683.222" y1="3.755" x2="683.222" y2="7.317"/>
		
			<line fill="none" stroke="#3C3C3B" stroke-width="1.8364" stroke-linecap="round" stroke-linejoin="round" stroke-miterlimit="10" x1="687.272" y1="3.755" x2="687.272" y2="7.317"/>
		
			<line fill="none" stroke="#3C3C3B" stroke-width="1.8364" stroke-linecap="round" stroke-linejoin="round" stroke-miterlimit="10" x1="691.437" y1="3.755" x2="691.437" y2="7.317"/>
		
			<line fill="none" stroke="#3C3C3B" stroke-width="1.8364" stroke-linecap="round" stroke-linejoin="round" stroke-miterlimit="10" x1="695.72" y1="3.755" x2="695.72" y2="7.317"/>
	</g>
	<rect x="974.875" y="4" display="inline" fill="#FFFFFF" width="1" height="23.997"/>
	<rect x="925.875" y="24.875" display="inline" fill="#FFFFFF" width="23.875" height="3.122"/>
	<rect x="925.875" y="20.25" display="inline" fill="#FFFFFF" width="2.5" height="7.766"/>
	<rect x="947.25" y="20.25" display="inline" fill="#FFFFFF" width="2.5" height="7.766"/>
	<polygon display="inline" fill="#FFFFFF" points="935,4 940.875,4 940.875,12.75 946.625,12.75 937.813,21.875 929,12.938 
		935,12.938 	"/>
	<g display="inline">
		<path fill="none" d="M712.288,11.256h3.799l5.035,5.039l-5.035,5.037h-3.799l3.693-3.692H705.75v8.169
			c0,0.038,0.028,0.066,0.066,0.066h19.115c0.038,0,0.066-0.028,0.066-0.066V6.693c0-0.038-0.028-0.067-0.066-0.067h-19.115
			c-0.038,0-0.066,0.029-0.066,0.067v8.258h10.231L712.288,11.256z"/>
		<path fill="#FFFFFF" d="M724.932,4.626h-19.115c-1.143,0-2.066,0.924-2.066,2.067v7.258h2V6.693c0-0.038,0.028-0.067,0.066-0.067
			h19.115c0.038,0,0.066,0.029,0.066,0.067v19.115c0,0.038-0.028,0.066-0.066,0.066h-19.115c-0.038,0-0.066-0.028-0.066-0.066V18.64
			h-2v7.169c0,1.143,0.924,2.066,2.066,2.066h19.115c1.143,0,2.066-0.924,2.066-2.066V6.693
			C726.998,5.551,726.074,4.626,724.932,4.626z"/>
		<polygon fill="#FFFFFF" points="715.981,17.64 712.288,21.332 716.087,21.332 721.122,16.295 716.087,11.256 712.288,11.256 
			715.981,14.951 703.75,14.951 703.75,17.64 		"/>
	</g>
	<g display="inline">
		<path fill="#FFFFFF" d="M746.72,7.583V3.471h-15.425v24.679h19.538V7.583H746.72z M733.352,8.613h8.228v5.345h-8.228V8.613z
			 M748.776,24.85h-15.425V23.78h15.425V24.85z M748.776,22.469h-15.425v-1.07h15.425V22.469z M748.776,20.088h-15.425v-1.071
			h15.425V20.088z M748.776,18.065h-15.425v-1.068h15.425V18.065z M748.776,15.927h-15.425v-1.068h15.425V15.927z M748.776,13.789
			h-6.169V12.72h6.169V13.789z M748.776,11.651h-6.169v-1.07h6.169V11.651z M748.776,9.512h-6.169V8.444h6.169V9.512z"/>
		<path fill="#4D4D4D" d="M750.833,7.583c-1.606-1.606-2.508-2.506-4.113-4.113v4.113H750.833z"/>
	</g>
	<g display="inline">
		<path fill="#FFFFFF" d="M767.921,8.086V4.053h-15.125v24.198h19.157V8.086H767.921z M754.813,9.095h8.066v5.241h-8.066V9.095z
			 M763.613,25.017h-8.801v-1.05h8.801V25.017z M765.417,22.681h-10.604v-1.048h10.604V22.681z M767.308,20.346h-12.495v-1.049
			h12.495V20.346z M769.936,18.364h-15.123v-1.049h15.123V18.364z M769.936,16.268h-15.123v-1.048h15.123V16.268z M769.936,14.17
			h-6.048v-1.047h6.048V14.17z M769.936,12.075h-6.048v-1.05h6.048V12.075z M769.936,9.977h-6.048V8.929h6.048V9.977z"/>
		<path fill="#4D4D4D" d="M771.953,8.086c-1.575-1.575-2.458-2.458-4.032-4.033v4.033H771.953z"/>
	</g>
	<g display="inline">
		<path fill="#333333" d="M763.506,25.188l-3.885-3.077c-0.674-0.532-0.784-1.507-0.252-2.179l0,0
			c0.533-0.67,1.512-0.782,2.184-0.251l0,0l2.661,2.107l3.699-4.705c0.528-0.674,1.505-0.792,2.181-0.265l0,0
			c0.676,0.528,0.794,1.503,0.265,2.177l0,0l-4.662,5.934c-0.256,0.326-0.629,0.534-1.041,0.583l0,0
			c-0.063,0.007-0.123,0.012-0.185,0.012l0,0C764.122,25.524,763.782,25.407,763.506,25.188L763.506,25.188z"/>
	</g>
</g>
<g id="THIN">
	<g>
		<path fill="none" stroke="#000000" stroke-width="0.995" stroke-miterlimit="5" d="M12.05,7.44H7.304
			c-1.065,0-1.93,0.779-1.93,1.74v15.663c0,0.962,0.864,1.74,1.93,1.74h11.499c1.065,0,1.93-0.778,1.93-1.74v-7.996"/>
	</g>
	<g>
		
			<line fill="none" stroke="#000000" stroke-linecap="round" stroke-linejoin="round" stroke-miterlimit="10" x1="16.492" y1="8.971" x2="16.492" y2="15.006"/>
		
			<line fill="none" stroke="#000000" stroke-linecap="round" stroke-linejoin="round" stroke-miterlimit="10" x1="19.494" y1="11.988" x2="13.489" y2="11.988"/>
	</g>
	<g>
		
			<line fill="none" stroke="#000000" stroke-linecap="round" stroke-linejoin="round" stroke-miterlimit="10" x1="120.013" y1="17.935" x2="120.013" y2="22.149"/>
		
			<line fill="none" stroke="#000000" stroke-linecap="round" stroke-linejoin="round" stroke-miterlimit="10" x1="122.109" y1="20.042" x2="117.916" y2="20.042"/>
	</g>
	<text transform="matrix(1 0 0 1 81.4878 23.4209)" font-family="'Verdana-Bold'" font-size="8.6224">PDF</text>
	<g>
		<path fill="none" stroke="#000000" stroke-miterlimit="10" d="M128.305,20.21c1.143,4.014,4.829,6.956,9.21,6.956
			c5.292,0,9.583-4.29,9.583-9.583c0-5.292-4.291-9.583-9.583-9.583c-2.348,0-4.496,0.847-6.163,2.249"/>
	</g>
	<g>
		<path fill="none" stroke="#000000" stroke-linecap="round" stroke-linejoin="round" stroke-miterlimit="10" d="M132.851,5.725
			c-0.018,0.026-0.039,0.049-0.051,0.079l-1.625,4.062c-0.083,0.208,0.018,0.442,0.225,0.526l4.062,1.625
			c0.03,0.013,0.062,0.013,0.093,0.017"/>
	</g>
	
		<line fill="none" stroke="#000000" stroke-linecap="round" stroke-linejoin="round" stroke-miterlimit="10" x1="158.809" y1="13.237" x2="160.225" y2="24.295"/>
	
		<line fill="none" stroke="#000000" stroke-linecap="round" stroke-linejoin="round" stroke-miterlimit="10" x1="163.593" y1="13.237" x2="163.593" y2="24.295"/>
	
		<line fill="none" stroke="#000000" stroke-linecap="round" stroke-linejoin="round" stroke-miterlimit="10" x1="168.515" y1="13.237" x2="167.192" y2="24.295"/>
	<g>
		<path fill="none" stroke="#000000" stroke-miterlimit="10" d="M172.498,10.068h0.569c0.204,0,0.369-0.165,0.369-0.369V8.038
			c0-0.204-0.165-0.369-0.369-0.369h-7.333h-4.284h-7.333c-0.204,0-0.369,0.165-0.369,0.369v1.661c0,0.204,0.165,0.369,0.369,0.369
			h0.431"/>
		<path fill="none" stroke="#000000" stroke-miterlimit="10" d="M165.762,7.531V6.7c0-0.204-0.166-1.369-0.37-1.369h-3.599
			c-0.204,0-0.37,1.165-0.37,1.369v0.831c0,0.046,0.011,0.091,0.027,0.138h4.284C165.75,7.622,165.762,7.577,165.762,7.531z"/>
		<path fill="none" stroke="#000000" stroke-linecap="round" stroke-linejoin="round" stroke-miterlimit="10" d="M155.271,26.417
			c0,0.204,0.165,0.369,0.369,0.369h15.766c0.204,0,0.369-0.165,0.369-0.369l0.723-16.349h-17.949L155.271,26.417z"/>
		<line fill="none" stroke="#000000" stroke-miterlimit="10" x1="154.549" y1="10.068" x2="172.498" y2="10.068"/>
	</g>
	<g>
		<path fill="none" stroke="#000000" stroke-linecap="round" stroke-linejoin="round" stroke-miterlimit="10" d="M212.165,19.04
			l-11.128-9.563c-0.009,0.038-0.025,0.073-0.025,0.113v15.391c0,0.291,0.26,0.527,0.582,0.527h21.966
			c0.322,0,0.582-0.236,0.582-0.527V9.59c0-0.04-0.016-0.075-0.025-0.113l-11.128,9.563
			C212.761,19.235,212.393,19.235,212.165,19.04z"/>
		
			<path fill="none" stroke="#000000" stroke-width="0.5" stroke-linecap="round" stroke-linejoin="round" stroke-miterlimit="10" d="
			M201.037,9.478c0.059-0.236,0.279-0.415,0.557-0.415h21.966c0.278,0,0.499,0.179,0.557,0.415"/>
		<path fill="none" stroke="#000000" stroke-linecap="round" stroke-linejoin="round" stroke-miterlimit="10" d="M223.56,9.063
			h-21.966c-0.278,0-0.499,0.179-0.557,0.415l11.128,9.563c0.228,0.195,0.596,0.195,0.823,0l11.128-9.563
			C224.058,9.242,223.837,9.063,223.56,9.063z"/>
	</g>
	
		<line fill="none" stroke="#000000" stroke-linecap="round" stroke-linejoin="round" stroke-miterlimit="10" x1="215.697" y1="16.822" x2="222.871" y2="25.387"/>
	
		<line fill="none" stroke="#000000" stroke-linecap="round" stroke-linejoin="round" stroke-miterlimit="10" x1="210.148" y1="17.307" x2="203.379" y2="25.387"/>
	
		<line fill="none" stroke="#000000" stroke-linecap="round" stroke-linejoin="round" stroke-miterlimit="10" x1="257.129" y1="9.87" x2="273.129" y2="9.87"/>
	
		<line fill="none" stroke="#000000" stroke-linecap="round" stroke-linejoin="round" stroke-miterlimit="10" x1="257.129" y1="12.347" x2="273.129" y2="12.347"/>
	
		<line fill="none" stroke="#000000" stroke-linecap="round" stroke-linejoin="round" stroke-miterlimit="10" x1="257.129" y1="14.933" x2="273.129" y2="14.933"/>
	
		<line fill="none" stroke="#000000" stroke-linecap="round" stroke-linejoin="round" stroke-miterlimit="10" x1="257.129" y1="17.568" x2="273.129" y2="17.568"/>
	
		<line fill="none" stroke="#000000" stroke-linecap="round" stroke-linejoin="round" stroke-miterlimit="10" x1="257.129" y1="19.948" x2="273.129" y2="19.948"/>
	
		<line fill="none" stroke="#000000" stroke-linecap="round" stroke-linejoin="round" stroke-miterlimit="10" x1="257.129" y1="22.426" x2="273.129" y2="22.426"/>
	
		<line fill="none" stroke="#000000" stroke-linecap="round" stroke-linejoin="round" stroke-miterlimit="10" x1="253.129" y1="9.87" x2="254.258" y2="9.87"/>
	
		<line fill="none" stroke="#000000" stroke-linecap="round" stroke-linejoin="round" stroke-miterlimit="10" x1="253.129" y1="12.347" x2="254.258" y2="12.347"/>
	
		<line fill="none" stroke="#000000" stroke-linecap="round" stroke-linejoin="round" stroke-miterlimit="10" x1="253.129" y1="14.933" x2="254.258" y2="14.933"/>
	
		<line fill="none" stroke="#000000" stroke-linecap="round" stroke-linejoin="round" stroke-miterlimit="10" x1="253.129" y1="17.568" x2="254.258" y2="17.568"/>
	
		<line fill="none" stroke="#000000" stroke-linecap="round" stroke-linejoin="round" stroke-miterlimit="10" x1="253.129" y1="19.948" x2="254.258" y2="19.948"/>
	
		<line fill="none" stroke="#000000" stroke-linecap="round" stroke-linejoin="round" stroke-miterlimit="10" x1="253.129" y1="22.426" x2="254.258" y2="22.426"/>
	
		<line fill="none" stroke="#000000" stroke-linecap="round" stroke-linejoin="round" stroke-miterlimit="10" x1="284.516" y1="11.277" x2="298.213" y2="11.277"/>
	
		<line fill="none" stroke="#000000" stroke-linecap="round" stroke-linejoin="round" stroke-miterlimit="10" x1="286.379" y1="13.755" x2="298.213" y2="13.755"/>
	
		<line fill="none" stroke="#000000" stroke-linecap="round" stroke-linejoin="round" stroke-miterlimit="10" x1="287.48" y1="16.34" x2="298.213" y2="16.34"/>
	
		<line fill="none" stroke="#000000" stroke-linecap="round" stroke-linejoin="round" stroke-miterlimit="10" x1="287.48" y1="18.976" x2="298.213" y2="18.976"/>
	
		<line fill="none" stroke="#000000" stroke-linecap="round" stroke-linejoin="round" stroke-miterlimit="10" x1="286.379" y1="21.355" x2="298.213" y2="21.355"/>
	
		<line fill="none" stroke="#000000" stroke-linecap="round" stroke-linejoin="round" stroke-miterlimit="10" x1="284.516" y1="23.833" x2="298.213" y2="23.833"/>
	<g>
		<path fill="none" stroke="#000000" stroke-linecap="round" stroke-linejoin="round" stroke-miterlimit="10" d="M285.444,17.202
			l-7.527-7.528v15.762l7.527-7.527C285.639,17.714,285.639,17.397,285.444,17.202z"/>
	</g>
	
		<line fill="none" stroke="#000000" stroke-linecap="round" stroke-linejoin="round" stroke-miterlimit="10" x1="316.613" y1="23.834" x2="302.917" y2="23.833"/>
	
		<line fill="none" stroke="#000000" stroke-linecap="round" stroke-linejoin="round" stroke-miterlimit="10" x1="314.75" y1="21.355" x2="302.917" y2="21.355"/>
	
		<line fill="none" stroke="#000000" stroke-linecap="round" stroke-linejoin="round" stroke-miterlimit="10" x1="313.649" y1="18.771" x2="302.917" y2="18.771"/>
	
		<line fill="none" stroke="#000000" stroke-linecap="round" stroke-linejoin="round" stroke-miterlimit="10" x1="313.649" y1="16.135" x2="302.917" y2="16.135"/>
	
		<line fill="none" stroke="#000000" stroke-linecap="round" stroke-linejoin="round" stroke-miterlimit="10" x1="314.75" y1="13.755" x2="302.917" y2="13.755"/>
	
		<line fill="none" stroke="#000000" stroke-linecap="round" stroke-linejoin="round" stroke-miterlimit="10" x1="316.613" y1="11.278" x2="302.917" y2="11.278"/>
	<g>
		<path fill="none" stroke="#000000" stroke-linecap="round" stroke-linejoin="round" stroke-miterlimit="10" d="M315.686,17.908
			l7.527,7.528V9.674l-7.527,7.527C315.49,17.396,315.49,17.713,315.686,17.908z"/>
	</g>
	<path fill="none" stroke="#000000" stroke-miterlimit="10" d="M344.834,25.917c-0.276,0-0.551-0.113-0.749-0.337l-5.451-6.146
		c-0.367-0.413-0.329-1.045,0.084-1.411c0.413-0.367,1.045-0.33,1.412,0.085l5.451,6.146c0.367,0.413,0.329,1.045-0.084,1.411
		C345.307,25.834,345.07,25.917,344.834,25.917z"/>
	<polygon fill="none" stroke="#000000" stroke-linecap="round" stroke-linejoin="round" stroke-miterlimit="10" points="
		380.437,10.078 386.5,16.125 386.583,24.682 391,27.045 391,16.125 396.812,10.078 	"/>
	<path fill="none" stroke="#000000" stroke-linecap="round" stroke-linejoin="round" stroke-miterlimit="10" d="M408.875,26.5
		c0,0.276-0.224,0.5-0.5,0.5h-1.5c-0.276,0-0.5-0.224-0.5-0.5v-19c0-0.276,0.224-0.5,0.5-0.5h1.5c0.276,0,0.5,0.224,0.5,0.5V26.5z"
		/>
	<path fill="none" stroke="#000000" stroke-linecap="round" stroke-linejoin="round" stroke-miterlimit="10" d="M414.125,26.5
		c0,0.276-0.224,0.5-0.5,0.5h-1.5c-0.276,0-0.5-0.224-0.5-0.5v-19c0-0.276,0.224-0.5,0.5-0.5h1.5c0.276,0,0.5,0.224,0.5,0.5V26.5z"
		/>
	<path fill="none" stroke="#000000" stroke-linecap="round" stroke-linejoin="round" stroke-miterlimit="10" d="M419.375,26.5
		c0,0.276-0.224,0.5-0.5,0.5h-1.5c-0.276,0-0.5-0.224-0.5-0.5v-19c0-0.276,0.224-0.5,0.5-0.5h1.5c0.276,0,0.5,0.224,0.5,0.5V26.5z"
		/>
	<path fill="none" stroke="#000000" stroke-linecap="round" stroke-linejoin="round" stroke-miterlimit="10" d="M445.029,9.066
		c0,0.181-0.147,0.328-0.328,0.328h-13.844c-0.181,0-0.328-0.147-0.328-0.328V7.13c0-0.181,0.147-0.328,0.328-0.328h13.844
		c0.181,0,0.328,0.147,0.328,0.328V9.066z"/>
	<path fill="none" stroke="#000000" stroke-linecap="round" stroke-linejoin="round" stroke-miterlimit="10" d="M445.029,26.555
		c0,0.182-0.147,0.328-0.328,0.328h-13.844c-0.181,0-0.328-0.146-0.328-0.328v-1.937c0-0.181,0.147-0.328,0.328-0.328h13.844
		c0.181,0,0.328,0.147,0.328,0.328V26.555z"/>
	<path fill="none" stroke="#000000" stroke-linecap="round" stroke-linejoin="round" stroke-miterlimit="10" d="M432.143,9.395
		v2.742c0,0-0.082,0.602,0.875,1.395c0.958,0.793,2.818,2.271,2.818,2.271s0.52,0.411,0.52,1.012c0,0.603-0.493,0.985-0.493,0.985
		l-3.064,2.544c0,0-0.633,0.246-0.658,1.204c-0.026,0.958,0,2.742,0,2.742"/>
	<path fill="none" stroke="#000000" stroke-linecap="round" stroke-linejoin="round" stroke-miterlimit="10" d="M442.997,9.395
		v2.742c0,0,0.082,0.602-0.875,1.395c-0.958,0.793-2.818,2.271-2.818,2.271s-0.52,0.411-0.52,1.012c0,0.603,0.492,0.985,0.492,0.985
		l3.064,2.544c0,0,0.633,0.246,0.658,1.204c0.026,0.958,0,2.742,0,2.742"/>
	<polygon points="434.822,22.573 440.819,22.573 437.82,20.07 	"/>
	<polygon points="433.757,11.099 441.418,11.099 441.418,11.929 437.587,15.06 433.757,11.929 	"/>
	<path fill="none" stroke="#000000" stroke-linecap="round" stroke-linejoin="round" stroke-miterlimit="10" d="M457.827,20.084
		l8.383-8.097c0,0-1.528-4.936,3.957-4.779l-2.154,2.115l0.705,1.959l1.919,0.705l2.116-1.941c0,0,0.744,4.604-4.583,3.86
		l-8.344,8.266c0,0,1.538,4.896-3.957,4.66l2.038-2.115l-0.705-1.88l-1.88-0.665l-2.155,2.035
		C453.166,24.208,452.539,19.405,457.827,20.084z"/>
	<polygon fill="none" stroke="#000000" stroke-linecap="round" stroke-linejoin="round" stroke-miterlimit="10" points="492.688,8 
		492.688,24.188 481.688,16 	"/>
	<polygon fill="none" stroke="#000000" stroke-linecap="round" stroke-linejoin="round" stroke-miterlimit="10" points="508.536,8 
		508.536,24.188 519.536,16 	"/>
	<polygon fill="none" stroke="#000000" stroke-linecap="round" stroke-linejoin="round" stroke-miterlimit="10" points="
		568.445,21.732 568.445,12.455 562.141,17.147 	"/>
	<polygon fill="none" stroke="#000000" stroke-linecap="round" stroke-linejoin="round" stroke-miterlimit="10" points="
		716.171,13.072 716.171,19.591 720.601,16.293 	"/>
	<polygon fill="none" stroke="#000000" stroke-linecap="round" stroke-linejoin="round" stroke-miterlimit="10" points="
		583.174,22.635 592.451,22.635 587.759,16.33 	"/>
	<polygon fill="none" stroke="#000000" stroke-linecap="round" stroke-linejoin="round" stroke-miterlimit="10" points="
		530.758,16.382 528.25,19.107 536.154,26.466 548.255,9.022 544.767,7.278 535.608,21.506 	"/>
	<path fill="none" stroke="#000000" stroke-miterlimit="10" d="M398.249,7.5c0-0.276-0.224-0.5-0.5-0.5h-18.362
		c-0.276,0-0.5,0.224-0.5,0.5v2.078c0,0.276,0.224,0.5,0.5,0.5h18.362c0.276,0,0.5-0.224,0.5-0.5V7.5z"/>
	<path fill="none" stroke="#000000" stroke-miterlimit="10" d="M558.125,26.5c0,0.276-0.224,0.5-0.5,0.5H554
		c-0.276,0-0.5-0.224-0.5-0.5v-19c0-0.276,0.224-0.5,0.5-0.5h3.625c0.276,0,0.5,0.224,0.5,0.5V26.5z"/>
	<path fill="none" stroke="#000000" stroke-miterlimit="10" d="M578.313,11.625c-0.276,0-0.5-0.224-0.5-0.5V7.5
		c0-0.276,0.224-0.5,0.5-0.5h19c0.276,0,0.5,0.224,0.5,0.5v3.625c0,0.276-0.224,0.5-0.5,0.5H578.313z"/>
	<path d="M644.964,14.347h-1.031v-2.575c0-0.234-0.189-0.424-0.423-0.424h-4.072v1.269h3.228v1.729h-1.083l-0.224,0.263l1.915,2.236
		l1.929-2.236L644.964,14.347z M639.704,17.193v2.69l0.973,0.953l2.352-2.301l-2.347-2.301L639.704,17.193z"/>
	<path fill="none" stroke="#000000" stroke-miterlimit="10" d="M639.704,5.64l-10.571,1.853v17.343l10.571,1.853V5.64z"/>
	<path d="M633.361,15.776v-2.271h0.593c0.17-0.01,0.342,0.007,0.507,0.051c0.137,0.037,0.263,0.107,0.367,0.202
		c0.104,0.097,0.181,0.218,0.225,0.352c0.053,0.162,0.078,0.332,0.076,0.504c0.001,0.168-0.025,0.335-0.076,0.494
		c-0.088,0.281-0.31,0.502-0.592,0.588c-0.164,0.051-0.336,0.075-0.507,0.071h-0.563 M634.207,12.193l-2.114,0.123v7.188
		l1.268,0.076V17.02h0.715c0.186,0.006,0.371-0.002,0.555-0.026c0.175-0.025,0.349-0.067,0.515-0.126
		c0.162-0.057,0.316-0.131,0.461-0.221c0.152-0.089,0.295-0.195,0.423-0.317c0.117-0.115,0.222-0.24,0.313-0.376
		c0.089-0.133,0.164-0.274,0.224-0.423c0.062-0.156,0.106-0.32,0.136-0.486c0.088-0.535,0.048-1.082-0.119-1.598
		c-0.097-0.282-0.265-0.536-0.485-0.736c-0.229-0.202-0.503-0.348-0.799-0.423C634.941,12.199,634.574,12.168,634.207,12.193"/>
	<rect x="639.231" y="8.6" fill="none" width="6.815" height="13.32"/>
	<path fill="none" stroke="#000000" stroke-miterlimit="10" d="M639.704,24.575h6.343c0.467,0,0.846-0.379,0.846-0.847V8.6
		c0-0.467-0.379-0.846-0.846-0.846h-6.343"/>
	<g>
		<path fill="none" stroke="#000000" stroke-miterlimit="10" d="M663.096,10.376c-4.407,0-8.253,2.396-10.313,5.954
			c2.06,3.559,5.905,5.955,10.313,5.955s8.253-2.396,10.313-5.955C671.349,12.772,667.503,10.376,663.096,10.376z M666.389,19.625
			c-0.843,0.844-2.009,1.363-3.293,1.363c-2.573,0-4.657-2.087-4.657-4.656c0-1.941,1.188-3.605,2.878-4.304
			c0.546-0.229,1.148-0.355,1.779-0.355c2.573,0,4.657,2.086,4.657,4.658C667.753,17.617,667.232,18.781,666.389,19.625
			 M663.096,16.331"/>
	</g>
	<circle fill="none" stroke="#000000" stroke-miterlimit="10" cx="663.096" cy="16.331" r="2.074"/>
	<g>
		<path fill="none" stroke="#000000" stroke-miterlimit="10" d="M684.716,8.765V6.881c0-0.047-0.037-0.084-0.085-0.084H682.7
			c-0.046,0-0.084,0.038-0.084,0.084v1.884"/>
		<path fill="none" stroke="#000000" stroke-miterlimit="10" d="M694.5,8.765V6.881c0-0.047-0.038-0.084-0.085-0.084h-1.931
			c-0.047,0-0.085,0.038-0.085,0.084v1.884"/>
		<path fill="none" stroke="#000000" stroke-miterlimit="10" d="M697.54,8.765h-3.04v1.883c0,0.046-0.038,0.084-0.085,0.084h-1.931
			c-0.047,0-0.085-0.038-0.085-0.084V8.765h-7.684v1.883c0,0.046-0.037,0.084-0.085,0.084H682.7c-0.046,0-0.084-0.038-0.084-0.084
			V8.765h-3.267c-0.047,0-0.085,0.038-0.085,0.084V26.73c0,0.048,0.038,0.085,0.085,0.085h18.19c0.047,0,0.085-0.037,0.085-0.085
			V8.849C697.625,8.802,697.587,8.765,697.54,8.765z"/>
		<path fill="none" stroke="#000000" stroke-miterlimit="10" d="M692.399,8.765v1.883c0,0.046,0.038,0.084,0.085,0.084h1.931
			c0.047,0,0.085-0.038,0.085-0.084V8.765"/>
	</g>
	<line fill="none" stroke="#000000" stroke-miterlimit="10" x1="679.265" y1="14.288" x2="697.413" y2="14.288"/>
	<path fill="none" stroke="#000000" stroke-miterlimit="10" d="M709.466,10.627v-1.5l2.447-2.583c0,0,0.512-0.707,0.97-0.499
		s0.458,0.458,0.458,0.458v19.292c0,0,0.084,0.708-0.333,0.833s-0.75-0.208-0.75-0.208l-2.792-2.709"/>
	<circle fill="none" stroke="#000000" stroke-miterlimit="10" cx="710.108" cy="13.471" r="1.646"/>
	<path fill="none" stroke="#000000" stroke-linecap="round" stroke-linejoin="round" stroke-miterlimit="10" d="M704.507,20.2
		l2.188-3.875c0,0-0.391-1.037-0.875,0c-0.438,0.938-0.764,0.851-0.764,0.851s-0.955,0.243-0.549-0.845
		c0.449-1.203,0.935-1.881,0.935-1.881l2.722,0.5c0,0,0.375,0.688,1.031,0.844l0.914,1.406l1.055-0.656c0,0,0.656-0.063,0.75,0.5
		s-0.006,0.688-0.159,0.781s-1.778,0.813-1.778,0.813s-0.75,0.5-1.219-0.531l-1.094,1.563l1.219,1.063l-1.156,3.125
		c0,0-0.563,0.406-0.938,0.25s-0.344-0.531-0.313-0.875s0.719-2.156,0.719-2.156l-1.063-0.906l-0.844,1.625
		c0,0-0.293,0.656-1.1,0.219s-1.744-0.875-1.744-0.875s-0.406-0.406-0.25-0.906s0.563-0.563,0.938-0.375S704.507,20.2,704.507,20.2z
		"/>
	<path fill="none" stroke="#000000" stroke-linecap="round" stroke-linejoin="round" stroke-miterlimit="10" d="M789.875,11.197
		c0,0.276-0.224,0.5-0.5,0.5H786c-0.276,0-0.5-0.224-0.5-0.5V7.822c0-0.276,0.224-0.5,0.5-0.5h3.375c0.276,0,0.5,0.224,0.5,0.5
		V11.197z"/>
	<path fill="none" stroke="#000000" stroke-linecap="round" stroke-linejoin="round" stroke-miterlimit="10" d="M789.875,18.719
		c0,0.276-0.224,0.5-0.5,0.5H786c-0.276,0-0.5-0.224-0.5-0.5v-3.375c0-0.276,0.224-0.5,0.5-0.5h3.375c0.276,0,0.5,0.224,0.5,0.5
		V18.719z"/>
	<path fill="none" stroke="#000000" stroke-linecap="round" stroke-linejoin="round" stroke-miterlimit="10" d="M789.875,25.957
		c0,0.276-0.224,0.5-0.5,0.5H786c-0.276,0-0.5-0.224-0.5-0.5v-3.375c0-0.276,0.224-0.5,0.5-0.5h3.375c0.276,0,0.5,0.224,0.5,0.5
		V25.957z"/>
	<circle fill="none" stroke="#000000" stroke-miterlimit="10" cx="829.912" cy="22.302" r="3.098"/>
	<path fill="none" stroke="#000000" stroke-miterlimit="10" d="M827.876,10.055l0.278-3.385c0,0,7.433-0.772,12.798,4.593
		c5.365,5.363,4.888,13.012,4.888,13.012l-3.427,0.317c0,0,0.917-6.013-3.822-10.753C833.851,9.1,827.876,10.055,827.876,10.055z"/>
	<path fill="none" stroke="#000000" stroke-miterlimit="10" d="M836.479,15.951c0,0,3.417,2.4,3.321,8.787l-3.129-0.058
		c0,0-0.053-4.168-2.382-6.499c-2.33-2.33-6.499-2.382-6.499-2.382l-0.059-3.129C827.731,12.67,832.456,11.928,836.479,15.951z"/>
	<circle fill="none" stroke="#000000" stroke-miterlimit="10" cx="854.198" cy="22.302" r="3.098"/>
	<path fill="none" stroke="#000000" stroke-miterlimit="10" d="M860.765,15.951c0,0,3.417,2.4,3.321,8.787l-3.129-0.058
		c0,0-0.053-4.168-2.382-6.499c-2.33-2.33-6.499-2.382-6.499-2.382l-0.059-3.129C852.018,12.67,856.742,11.928,860.765,15.951z"/>
	<g>
		<path fill="none" stroke="#000000" stroke-miterlimit="10" d="M865.337,16.89c-0.034,0-0.069-0.001-0.104-0.003
			c-0.033-0.002-0.064-0.014-0.098-0.017c2.132,3.934,1.564,7.723,1.564,7.723l3.427-0.317c0,0,0.282-4.729-2.2-9.357l-1.059,1.259
			C866.486,16.63,865.926,16.89,865.337,16.89z"/>
		<path fill="none" stroke="#000000" stroke-miterlimit="10" d="M859.987,7.861c-3.978-1.558-7.547-1.19-7.547-1.19l-0.278,3.385
			c0,0,4.76-0.749,9.154,2.459l-1.495-2.209C859.298,9.532,859.395,8.528,859.987,7.861z"/>
		<path fill="none" stroke="#000000" stroke-miterlimit="10" d="M865.517,11.568c-0.016-0.016-0.03-0.033-0.046-0.049l0.039,0.057
			L865.517,11.568z"/>
		<path fill="none" stroke="#000000" stroke-miterlimit="10" d="M865.238,11.264c0.083,0.083,0.152,0.171,0.232,0.255l-2.337-3.456
			c-0.618-0.915-1.863-1.153-2.776-0.536c-0.142,0.096-0.262,0.211-0.37,0.333"/>
		<path fill="none" stroke="#000000" stroke-miterlimit="10" d="M867.926,14.918l5.576-6.63c0.711-0.845,0.603-2.107-0.243-2.818
			c-0.846-0.712-2.106-0.602-2.817,0.244l-4.925,5.855"/>
		<path fill="none" stroke="#000000" stroke-miterlimit="10" d="M861.316,12.514l2.364,3.496c0.332,0.492,0.867,0.801,1.454,0.86"/>
		<path fill="none" stroke="#000000" stroke-miterlimit="10" d="M862.877,13.839"/>
		<path fill="none" stroke="#000000" stroke-miterlimit="10" d="M865.517,11.568l-0.007,0.008l-0.039-0.057
			c-0.08-0.084-0.149-0.172-0.232-0.255"/>
		<path fill="none" stroke="#000000" stroke-miterlimit="10" d="M865.135,16.87c0.033,0.003,0.064,0.015,0.098,0.017
			c0.035,0.002,0.07,0.003,0.104,0.003c0.589,0,1.149-0.26,1.53-0.713l1.059-1.259"/>
		<path fill="none" stroke="#000000" stroke-miterlimit="10" d="M862.877,13.839"/>
		<path fill="none" stroke="#000000" stroke-miterlimit="10" d="M859.987,7.861c-0.593,0.667-0.689,1.671-0.166,2.444l1.495,2.209"
			/>
	</g>
	<path fill="none" stroke="#000000" stroke-miterlimit="10" d="M687.883,24.276c-0.256,0-0.503-0.098-0.69-0.276l-3.167-3.021
		c-0.399-0.381-0.414-1.014-0.033-1.414c0.382-0.398,1.014-0.414,1.414-0.033l2.326,2.219l4.091-5.826
		c0.316-0.452,0.94-0.561,1.393-0.244c0.452,0.317,0.562,0.941,0.244,1.393l-4.759,6.776c-0.167,0.239-0.431,0.393-0.72,0.421
		C687.948,24.274,687.915,24.276,687.883,24.276z"/>
	<path fill="none" stroke="#000000" stroke-miterlimit="10" d="M811.09,22.396c-0.327,0-0.644-0.125-0.884-0.354l-4.051-3.864
		c-0.512-0.487-0.53-1.297-0.043-1.81c0.488-0.509,1.297-0.529,1.809-0.042l2.977,2.839l5.233-7.454
		c0.405-0.578,1.203-0.717,1.781-0.312c0.579,0.406,0.719,1.204,0.313,1.782l-6.088,8.669c-0.214,0.307-0.551,0.503-0.921,0.539
		C811.174,22.394,811.131,22.396,811.09,22.396z"/>
	<circle fill="none" stroke="#000000" stroke-miterlimit="10" cx="812.108" cy="16.782" r="10"/>
	<path fill="none" stroke="#000000" stroke-miterlimit="10" d="M767.438,23.697c-0.206,0-0.405-0.078-0.557-0.223l-2.549-2.431
		c-0.321-0.307-0.333-0.816-0.026-1.139c0.307-0.32,0.815-0.333,1.138-0.026l1.873,1.786l3.293-4.69
		c0.255-0.363,0.757-0.451,1.12-0.195c0.364,0.255,0.452,0.758,0.197,1.121l-3.831,5.454c-0.135,0.193-0.347,0.316-0.579,0.339
		C767.49,23.695,767.463,23.697,767.438,23.697z"/>
	<g>
		<path fill="none" stroke="#000000" stroke-miterlimit="10" d="M768.078,13.873c-3.475,0-6.292,2.816-6.292,6.292
			c0,3.475,2.817,6.292,6.292,6.292c2.723,0,5.035-1.733,5.911-4.154"/>
		<path fill="none" stroke="#000000" stroke-miterlimit="10" d="M773.989,22.303c0.242-0.668,0.381-1.386,0.381-2.138
			c0-3.476-2.817-6.292-6.292-6.292"/>
	</g>
	<line fill="none" stroke="#000000" stroke-miterlimit="10" x1="734.584" y1="13.072" x2="740.668" y2="13.072"/>
	<line fill="none" stroke="#000000" stroke-miterlimit="10" x1="734.584" y1="16.331" x2="744.584" y2="16.331"/>
	<line fill="none" stroke="#000000" stroke-miterlimit="10" x1="735.418" y1="20.5" x2="735.418" y2="24.667"/>
	<line fill="none" stroke="#000000" stroke-miterlimit="10" x1="737.626" y1="24.667" x2="737.626" y2="22.584"/>
	<line fill="none" stroke="#000000" stroke-miterlimit="10" x1="739.584" y1="24.667" x2="739.584" y2="21.167"/>
	<line fill="none" stroke="#000000" stroke-miterlimit="10" x1="741.501" y1="24.667" x2="741.501" y2="19.591"/>
	<line fill="none" stroke="#000000" stroke-miterlimit="10" x1="743.251" y1="24.667" x2="743.251" y2="22.917"/>
	<line fill="none" stroke="#000000" stroke-miterlimit="10" x1="745.001" y1="24.667" x2="745.001" y2="21.167"/>
	<g>
		<g>
			<path fill="none" stroke="#000000" stroke-linecap="round" stroke-linejoin="round" stroke-miterlimit="10" d="M744.251,9.5
				V6.782h-12.084c-0.276,0-0.5,0.206-0.5,0.459v19.082c0,0.254,0.224,0.459,0.5,0.459H747c0.276,0,0.5-0.205,0.5-0.459V10h-2.749
				C744.475,10,744.251,9.776,744.251,9.5z"/>
		</g>
		
			<line fill="none" stroke="#000000" stroke-linecap="round" stroke-linejoin="round" stroke-miterlimit="10" x1="744.251" y1="6.782" x2="747.5" y2="10"/>
	</g>
	<g>
		<g>
			<path fill="none" stroke="#000000" stroke-linecap="round" stroke-linejoin="round" stroke-miterlimit="10" d="M969.251,9.5
				V6.782h-12.084c-0.276,0-0.5,0.206-0.5,0.459v19.082c0,0.254,0.224,0.459,0.5,0.459H972c0.276,0,0.5-0.205,0.5-0.459V10h-2.749
				C969.475,10,969.251,9.776,969.251,9.5z"/>
		</g>
		
			<line fill="none" stroke="#000000" stroke-linecap="round" stroke-linejoin="round" stroke-miterlimit="10" x1="969.251" y1="6.782" x2="972.5" y2="10"/>
	</g>
	<polygon fill="none" stroke="#000000" stroke-linecap="round" stroke-linejoin="round" stroke-miterlimit="10" points="
		929.125,11.732 946,11.732 937.563,21.293 	"/>
	<path fill="none" stroke="#000000" stroke-linecap="round" stroke-linejoin="round" stroke-miterlimit="10" d="M948.875,26.5
		c0,0.276-0.224,0.5-0.5,0.5h-21.25c-0.276,0-0.5-0.224-0.5-0.5v-2.375c0-0.276,0.224-0.5,0.5-0.5h21.25c0.276,0,0.5,0.224,0.5,0.5
		V26.5z"/>
	
		<path id="path6_3_" inkscape:connector-curvature="0" fill="none" stroke="#000000" stroke-width="0.5667" stroke-miterlimit="10" d="
		M889.375,26.401h-1.432c-3.489-0.638-6.986-1.222-10.483-1.833c-0.002-5.349,0-11.696,0-17.041
		c3.515-0.614,11.915-1.838,11.915-1.838V26.401z"/>
	
		<path id="path6_2_" inkscape:connector-curvature="0" fill="none" stroke="#000000" stroke-width="0.5667" stroke-miterlimit="10" d="
		M889.375,24.575V7.536h7.354c0.522-0.053,0.932,0.353,0.884,0.875c0.039,4.516-0.009,10.034,0.023,14.549
		c-0.023,0.463,0.045,0.977-0.223,1.389c-0.334,0.236-0.768,0.208-1.157,0.226H889.375z"/>
	<path id="path88" inkscape:connector-curvature="0" d="M882.196,13.26c0.435-0.024,0.871-0.043,1.306-0.065
		c0.306,1.546,0.617,3.091,0.946,4.633c0.261-1.593,0.547-3.179,0.824-4.767c0.458-0.017,0.916-0.041,1.372-0.068
		c-0.518,2.221-0.972,4.46-1.537,6.667c-0.383,0.199-0.956-0.009-1.41,0.022c-0.305-1.517-0.66-3.026-0.934-4.549
		c-0.268,1.482-0.616,2.949-0.923,4.421c-0.44-0.024-0.883-0.051-1.325-0.082c-0.38-2.017-0.827-4.021-1.183-6.042
		c0.392-0.019,0.786-0.034,1.179-0.049c0.235,1.46,0.504,2.914,0.711,4.377C881.546,16.259,881.875,14.76,882.196,13.26z"/>
	
		<line fill="none" stroke="#000000" stroke-width="0.5423" stroke-miterlimit="10" x1="890.499" y1="10.606" x2="896.494" y2="10.606"/>
	
		<line fill="none" stroke="#000000" stroke-width="0.5423" stroke-miterlimit="10" x1="890.499" y1="12.305" x2="896.494" y2="12.305"/>
	
		<line fill="none" stroke="#000000" stroke-width="0.5423" stroke-miterlimit="10" x1="890.499" y1="14.091" x2="896.494" y2="14.091"/>
	
		<line fill="none" stroke="#000000" stroke-width="0.5423" stroke-miterlimit="10" x1="890.499" y1="15.789" x2="896.494" y2="15.789"/>
	
		<line fill="none" stroke="#000000" stroke-width="0.5423" stroke-miterlimit="10" x1="890.499" y1="17.646" x2="896.494" y2="17.646"/>
	
		<line fill="none" stroke="#000000" stroke-width="0.5423" stroke-miterlimit="10" x1="890.499" y1="19.343" x2="896.494" y2="19.343"/>
	
		<line fill="none" stroke="#000000" stroke-width="0.5423" stroke-miterlimit="10" x1="890.499" y1="20.911" x2="896.494" y2="20.911"/>
	
		<line fill="none" stroke="#000000" stroke-width="0.5423" stroke-miterlimit="10" x1="890.499" y1="22.437" x2="896.494" y2="22.437"/>
	<path fill="none" stroke="#000000" stroke-width="0.3116" stroke-miterlimit="10" d="M914.858,24.378h7.121
		c0.525,0,0.95-0.425,0.95-0.949V8.66c0-0.524-0.425-0.949-0.95-0.949h-7.121V24.378z"/>
	<rect x="917.232" y="11.084" width="3.323" height="1.424"/>
	<rect x="917.232" y="13.458" width="3.323" height="1.425"/>
	<rect x="917.232" y="15.833" width="3.323" height="1.425"/>
	<rect x="917.232" y="18.207" width="3.323" height="1.424"/>
	<rect x="917.232" y="20.58" width="3.323" height="1.425"/>
	<rect x="914.858" y="11.084" width="1.424" height="1.424"/>
	<rect x="914.858" y="13.458" width="1.424" height="1.425"/>
	<rect x="914.858" y="15.833" width="1.424" height="1.425"/>
	<rect x="914.858" y="18.207" width="1.424" height="1.424"/>
	<rect x="914.858" y="20.58" width="1.424" height="1.425"/>
	<path fill="none" stroke="#000000" stroke-width="0.3116" stroke-miterlimit="10" d="M914.858,5.812l-11.87,2.08v16.782l11.87,2.08
		V5.812z"/>
	<path d="M911.468,12.509l-1.656,0.1l-1.012,2.374l-0.065,0.214l-0.049,0.161l-0.043,0.156l-0.034,0.128l0,0
		c0-0.063-0.014-0.124-0.042-0.181l-0.044-0.166l-0.048-0.156l-0.052-0.144l-0.868-2.254l-1.6,0.099l1.705,3.693l-1.885,3.694
		l1.562,0.095l1.049-2.421l0.048-0.167l0.038-0.147l0.034-0.123v-0.1l0,0l0.033,0.175l0.033,0.147l0.029,0.114l0.028,0.081
		l1.093,2.582l1.813,0.114l-2.042-4.068L911.468,12.509"/>
	<path fill="none" stroke="#217346" stroke-width="0.6232" stroke-miterlimit="10" d="M914.858,7.711"/>
	<path fill="none" stroke="#217346" stroke-width="0.6232" stroke-miterlimit="10" d="M914.858-1.602"/>
	<circle fill="none" stroke="#000000" stroke-miterlimit="10" cx="16.492" cy="11.988" r="6.438"/>
	<path fill="none" stroke="#000000" stroke-width="1.0004" stroke-miterlimit="10" d="M47.162,26c0,0.552-0.448,1-1,1H29.701
		c-0.552,0-1-0.448-1-1V7.938c0-0.553,0.448-1.001,1-1.001h16.461c0.552,0,1,0.448,1,1.001V26z"/>
	<path fill="none" stroke="#000000" stroke-width="0.9309" stroke-miterlimit="10" d="M43.67,25.937
		c0,0.588-0.365,1.063-0.815,1.063h-9.2c-0.45,0-0.815-0.476-0.815-1.063v-6.447c0-0.588,0.365-1.063,0.815-1.063h9.2
		c0.45,0,0.815,0.476,0.815,1.063V25.937z"/>
	<path fill="none" stroke="#000000" stroke-width="0.8674" stroke-miterlimit="10" d="M43.67,12.345
		c0,0.487-0.382,0.881-0.854,0.881h-6.865c-0.471,0-0.854-0.395-0.854-0.881V7.836c0-0.487,0.382-0.881,0.854-0.881h6.865
		c0.472,0,0.854,0.395,0.854,0.881V12.345z"/>
	<path fill="none" stroke="#000000" stroke-width="1.0004" stroke-miterlimit="10" d="M249.684,25.801
		c0,0.391-0.316,0.706-0.706,0.706H237.36c-0.39,0-0.706-0.315-0.706-0.706V13.054c0-0.39,0.316-0.706,0.706-0.706h11.618
		c0.39,0,0.706,0.316,0.706,0.706V25.801z"/>
	<g>
		<path fill="none" stroke="#000000" stroke-width="1.0004" stroke-miterlimit="10" d="M237.36,12.348h1.67V6.537
			c0-0.39-0.316-0.706-0.706-0.706h-11.618c-0.39,0-0.706,0.316-0.706,0.706v12.747c0,0.391,0.316,0.706,0.706,0.706h2.791
			c-0.318,0-0.575-0.335-0.575-0.75v-4.551c0-0.414,0.257-0.751,0.575-0.751h6.493c0.317,0,0.575,0.337,0.575,0.751v4.551
			c0,0.415-0.257,0.75-0.575,0.75h0.664v-6.937C236.654,12.664,236.97,12.348,237.36,12.348z M236.565,9.647
			c0,0.343-0.269,0.622-0.602,0.622h-4.845c-0.333,0-0.602-0.279-0.602-0.622V6.465c0-0.343,0.27-0.622,0.602-0.622h4.845
			c0.333,0,0.602,0.279,0.602,0.622V9.647z"/>
		<path fill="none" stroke="#000000" stroke-width="1.0004" stroke-miterlimit="10" d="M236.565,19.24v-4.551
			c0-0.414-0.257-0.751-0.575-0.751h-6.493c-0.318,0-0.575,0.337-0.575,0.751v4.551c0,0.415,0.257,0.75,0.575,0.75h6.493
			C236.308,19.99,236.565,19.655,236.565,19.24z"/>
		<path fill="none" stroke="#000000" stroke-width="1.0004" stroke-miterlimit="10" d="M235.963,5.843h-4.845
			c-0.333,0-0.602,0.279-0.602,0.622v3.183c0,0.343,0.27,0.622,0.602,0.622h4.845c0.333,0,0.602-0.279,0.602-0.622V6.465
			C236.565,6.122,236.296,5.843,235.963,5.843z"/>
	</g>
	<path fill="none" stroke="#000000" stroke-width="0.9309" stroke-miterlimit="10" d="M247.219,25.757
		c0,0.415-0.257,0.75-0.575,0.75h-6.493c-0.318,0-0.575-0.335-0.575-0.75v-4.551c0-0.414,0.257-0.751,0.575-0.751h6.493
		c0.317,0,0.575,0.337,0.575,0.751V25.757z"/>
	<path fill="none" stroke="#000000" stroke-width="0.8674" stroke-miterlimit="10" d="M247.219,16.164
		c0,0.343-0.269,0.622-0.602,0.622h-4.845c-0.333,0-0.602-0.279-0.602-0.622v-3.183c0-0.343,0.27-0.622,0.602-0.622h4.845
		c0.333,0,0.602,0.279,0.602,0.622V16.164z"/>
	<g>
		<path fill="none" stroke="#000000" stroke-width="0.8857" stroke-miterlimit="10" d="M56.375,15.229H52.75c-0.552,0-1,0.447-1,1
			v7.625c0,0.553,0.448,1,1,1h3.625v-3.813c0-0.553,0.448-1,1-1H68.75c0.552,0,1,0.447,1,1v3.813h3.75c0.552,0,1-0.447,1-1v-7.625
			c0-0.553-0.448-1-1-1h-3.75"/>
		<path fill="none" stroke="#000000" stroke-width="0.8857" stroke-miterlimit="10" d="M56.375,24.854v1.25c0,0.553,0.448,1,1,1
			H68.75c0.552,0,1-0.447,1-1v-1.25"/>
		<path fill="none" stroke="#000000" stroke-width="0.8857" stroke-miterlimit="10" d="M69.75,24.854v-3.813c0-0.553-0.448-1-1-1
			H57.375c-0.552,0-1,0.447-1,1v3.813"/>
		<path fill="none" stroke="#000000" stroke-width="0.8857" stroke-miterlimit="10" d="M69.75,7.229c0-0.553-0.448-1-1-1H57.375
			c-0.552,0-1,0.447-1,1v8H69.75V7.229z"/>
	</g>
	<line fill="none" stroke="#000000" stroke-width="0.8857" stroke-miterlimit="10" x1="58" y1="8.879" x2="64.25" y2="8.879"/>
	<line fill="none" stroke="#000000" stroke-width="0.8857" stroke-miterlimit="10" x1="58" y1="11.854" x2="67" y2="11.854"/>
	<path fill="none" stroke="#000000" stroke-width="0.8857" stroke-miterlimit="10" d="M55.509,17.547
		c0,0.485-0.394,0.879-0.879,0.879l0,0c-0.486,0-0.879-0.394-0.879-0.879l0,0c0-0.486,0.394-0.88,0.879-0.88l0,0
		C55.115,16.667,55.509,17.061,55.509,17.547L55.509,17.547z"/>
	<g>
		<path fill="none" stroke="#000000" stroke-miterlimit="10" d="M94.125,16.062V6c0-0.553-0.448-1-1-1H79.25c-0.552,0-1,0.447-1,1
			v20c0,0.553,0.448,1,1,1h13.875c0.552,0,1-0.447,1-1v-1.146"/>
	</g>
	<text transform="matrix(1 0 0 1 354.8633 23.4209)" font-family="'Verdana-Bold'" font-size="8.6224">CSV</text>
	<g>
		<path fill="none" stroke="#000000" stroke-miterlimit="10" d="M367.5,16.062V6c0-0.553-0.448-1-1-1h-13.875c-0.552,0-1,0.447-1,1
			v20c0,0.553,0.448,1,1,1H366.5c0.552,0,1-0.447,1-1v-1.146"/>
	</g>
	<circle fill="none" stroke="#000000" stroke-miterlimit="10" cx="120.012" cy="20.042" r="4.854"/>
	<g>
		<path fill="none" stroke="#000000" stroke-miterlimit="10" d="M115.159,20.042c0-2.682,2.173-4.854,4.854-4.854
			c0.754,0,1.459,0.187,2.096,0.494V11.25c0-0.553-0.448-1-1-1h-9c-0.552,0-1,0.447-1,1v14.5c0,0.553,0.448,1,1,1h9
			c0.552,0,1-0.447,1-1v-1.348c-0.637,0.307-1.342,0.493-2.096,0.493C117.332,24.896,115.159,22.724,115.159,20.042z"/>
	</g>
	<g>
		<path fill="none" stroke="#000000" stroke-miterlimit="10" d="M112.068,10.301h0.842V6c0-0.553-0.448-1-1-1h-9
			c-0.552,0-1,0.447-1,1v14.5c0,0.553,0.448,1,1,1h8.158V11.301C111.068,10.748,111.516,10.301,112.068,10.301z"/>
	</g>
	<line fill="none" stroke="#000000" stroke-width="0.8857" stroke-miterlimit="10" x1="103.66" y1="8.625" x2="109.91" y2="8.625"/>
	
		<line fill="none" stroke="#000000" stroke-width="0.8857" stroke-miterlimit="10" x1="103.66" y1="10.875" x2="107.902" y2="10.875"/>
	
		<line fill="none" stroke="#000000" stroke-width="0.8857" stroke-miterlimit="10" x1="103.66" y1="12.75" x2="107.902" y2="12.75"/>
	<line fill="none" stroke="#000000" stroke-width="0.8857" stroke-miterlimit="10" x1="103.66" y1="14.5" x2="107.902" y2="14.5"/>
	
		<line fill="none" stroke="#000000" stroke-width="0.8857" stroke-miterlimit="10" x1="103.664" y1="16.25" x2="107.906" y2="16.25"/>
	<path fill="none" stroke="#000000" stroke-linecap="round" stroke-linejoin="round" stroke-miterlimit="10" d="M194.111,23.572
		c0,0-2.395,2.35-5.767,2.35c-3.373,0-10.22-1.787-10.22-10.271h-1.733l3.062-4.898l2.861,4.847c0,0-1.209,0-1.533,0
		c0,0-0.408,9.455,7.512,9.455C192.157,25.055,194.111,23.572,194.111,23.572z"/>
	<path fill="none" stroke="#000000" stroke-linecap="round" stroke-linejoin="round" stroke-miterlimit="10" d="M181.156,8.928
		c0,0,2.395-2.351,5.767-2.351s10.22,1.788,10.22,10.27h1.733l-3.062,4.9l-2.861-4.85c0,0,1.209,0,1.533,0
		c0,0,0.408-9.452-7.512-9.452C183.11,7.447,181.156,8.928,181.156,8.928z"/>
	
		<circle fill="none" stroke="#000000" stroke-linecap="round" stroke-linejoin="round" stroke-miterlimit="10" cx="334.779" cy="13.029" r="6.051"/>
	<g>
		<path fill="none" stroke="#000000" stroke-miterlimit="10" d="M767.888,13.873c1.133,0,2.194,0.304,3.112,0.828V8.389
			c0-0.467-0.461-0.845-1.03-0.845h-17.76c-0.569,0-1.03,0.377-1.03,0.845v14.145c0,0.467,0.461,0.844,1.03,0.844h10.274
			c-0.561-0.941-0.889-2.037-0.889-3.212C761.596,16.689,764.413,13.873,767.888,13.873z"/>
	</g>
	<line fill="none" stroke="#000000" stroke-width="2" stroke-miterlimit="10" x1="751.152" y1="10.376" x2="758.902" y2="10.376"/>
	<line fill="none" stroke="#000000" stroke-width="2" stroke-miterlimit="10" x1="758.984" y1="12.455" x2="764.401" y2="12.455"/>
	<line fill="none" stroke="#000000" stroke-width="2" stroke-miterlimit="10" x1="754.203" y1="15.292" x2="759.746" y2="15.292"/>
	<line fill="none" stroke="#000000" stroke-width="2" stroke-miterlimit="10" x1="759.807" y1="17.371" x2="762.446" y2="17.371"/>
	<line fill="none" stroke="#000000" stroke-width="2" stroke-miterlimit="10" x1="750.819" y1="20.5" x2="760.777" y2="20.5"/>
	<path fill="none" stroke="#000000" stroke-width="1.0004" stroke-miterlimit="10" d="M623.673,25.866
		c0,0.308-0.249,0.557-0.557,0.557h-9.166c-0.308,0-0.557-0.249-0.557-0.557V15.809c0-0.307,0.249-0.557,0.557-0.557h9.166
		c0.308,0,0.557,0.25,0.557,0.557V25.866z"/>
	<g>
		<path fill="none" stroke="#000000" stroke-miterlimit="10" d="M613.329,17.371v-1.46c0-0.322,0.26-0.583,0.582-0.583h6.937V8.389
			c0-0.467-0.461-0.845-1.03-0.845h-17.76c-0.569,0-1.03,0.377-1.03,0.845v1.987V20.5v2.033c0,0.467,0.461,0.844,1.03,0.844h11.271
			V17.371"/>
	</g>
	<path fill="none" stroke="#000000" stroke-width="0.9309" stroke-miterlimit="10" d="M621.729,25.831
		c0,0.327-0.203,0.592-0.454,0.592h-5.122c-0.251,0-0.454-0.265-0.454-0.592v-3.59c0-0.327,0.203-0.593,0.454-0.593h5.122
		c0.251,0,0.454,0.266,0.454,0.593V25.831z"/>
	<path fill="none" stroke="#000000" stroke-width="0.8674" stroke-miterlimit="10" d="M621.729,18.263
		c0,0.271-0.213,0.491-0.476,0.491h-3.822c-0.263,0-0.476-0.22-0.476-0.491v-2.511c0-0.271,0.213-0.49,0.476-0.49h3.822
		c0.263,0,0.476,0.22,0.476,0.49V18.263z"/>
	<line fill="none" stroke="#000000" stroke-width="2" stroke-miterlimit="10" x1="601.027" y1="10.002" x2="609.875" y2="10.002"/>
	<line fill="none" stroke="#000000" stroke-width="2" stroke-miterlimit="10" x1="609.875" y1="11.939" x2="614.563" y2="11.939"/>
	<line fill="none" stroke="#000000" stroke-width="2" stroke-miterlimit="10" x1="602.674" y1="14.346" x2="607.299" y2="14.346"/>
	<line fill="none" stroke="#000000" stroke-width="2" stroke-miterlimit="10" x1="607.299" y1="16.533" x2="611.143" y2="16.533"/>
	<line fill="none" stroke="#000000" stroke-width="2" stroke-miterlimit="10" x1="601.014" y1="20.563" x2="609.889" y2="20.563"/>
</g>
</svg>
