<?xml version="1.0" encoding="utf-8"?>
<!-- Generator: Adobe Illustrator 16.0.0, SVG Export Plug-In . SVG Version: 6.00 Build 0)  -->
<!DOCTYPE svg PUBLIC "-//W3C//DTD SVG 1.1//EN" "http://www.w3.org/Graphics/SVG/1.1/DTD/svg11.dtd">
<svg version="1.1" id="Calque_1" xmlns="http://www.w3.org/2000/svg" xmlns:xlink="http://www.w3.org/1999/xlink" x="0px" y="0px"
	 width="128px" height="128px" viewBox="0 0 128 128" enable-background="new 0 0 128 128" xml:space="preserve">
<g id="Calque_1_2_" display="none">
	<g id="Calque_1_1_" display="inline">
		<path fill="none" stroke="#FF0000" stroke-width="5" stroke-linecap="round" stroke-linejoin="round" stroke-miterlimit="10" d="
			M103.665,114.025c0,2.779-0.479,7.588-5.031,5.031c-4.551-2.561-35.009-31.227-35.009-31.227s-32.879,30.202-35.424,31.227
			c-3.201,1.023-5.031-2.252-5.031-5.031V14.201c0-2.778,2.253-5.031,5.031-5.031h70.433c2.778,0,5.031,2.253,5.031,5.031V114.025z"
			/>
	</g>
	<g id="Calque_3" display="inline">
		<path fill="none" stroke="#FF0000" stroke-width="5" stroke-linecap="round" stroke-linejoin="round" stroke-miterlimit="10" d="
			M67.863,30.12l2.761,8.495c0.587,1.804,2.269,3.025,4.165,3.025h8.932c4.242,0,6.006,5.428,2.574,7.921l-7.227,5.25
			c-1.534,1.115-2.178,3.092-1.59,4.896l2.76,8.494c1.311,4.033-3.307,7.389-6.738,4.896l-7.227-5.25
			c-1.535-1.115-3.613-1.115-5.147,0l-7.227,5.25c-3.432,2.49-8.049-0.863-6.738-4.896l2.761-8.494
			c0.586-1.805-0.057-3.781-1.591-4.896l-7.227-5.25c-3.432-2.493-1.668-7.921,2.573-7.921h8.933c1.897,0,3.579-1.222,4.165-3.025
			l2.76-8.495C60.846,26.085,66.553,26.085,67.863,30.12z"/>
	</g>
	<g id="Calque_2" display="inline">
		
			<polygon fill="none" stroke="#FF0000" stroke-width="5" stroke-linecap="round" stroke-linejoin="round" stroke-miterlimit="10" points="
			64,24.667 57.167,42.833 39.167,42.833 53,55.333 48,73.333 63.625,63.625 79.167,73.333 74.667,55.167 89.5,43.667 70.5,43.667 
					"/>
	</g>
</g>
<g id="Calque_3_1_">
	<path fill="none" stroke="#FF0000" stroke-width="5" stroke-linecap="round" stroke-linejoin="round" stroke-miterlimit="10" d="
		M72.354,14.511l6.486,19.963c1.381,4.239,5.332,7.108,9.789,7.108h20.988c9.97,0,14.114,12.756,6.05,18.616L98.685,72.533
		c-3.604,2.62-5.118,7.266-3.736,11.507l6.485,19.961c3.081,9.479-7.771,17.363-15.834,11.507L68.616,103.17
		c-3.606-2.62-8.491-2.62-12.096,0l-16.983,12.338c-8.065,5.852-18.915-2.028-15.833-11.507l6.487-19.961
		c1.377-4.241-0.133-8.887-3.738-11.507L9.47,60.198c-8.066-5.859-3.92-18.616,6.046-18.616h20.992c4.458,0,8.41-2.871,9.787-7.108
		l6.487-19.963C55.863,5.028,69.273,5.028,72.354,14.511z"/>
</g>
</svg>
