<?xml version="1.0" encoding="utf-8"?>
<!-- Generator: Adobe Illustrator 16.0.0, SVG Export Plug-In . SVG Version: 6.00 Build 0)  -->
<!DOCTYPE svg PUBLIC "-//W3C//DTD SVG 1.1//EN" "http://www.w3.org/Graphics/SVG/1.1/DTD/svg11.dtd">
<svg version="1.1" id="Calque_1" xmlns="http://www.w3.org/2000/svg" xmlns:xlink="http://www.w3.org/1999/xlink" x="0px" y="0px"
	 width="128px" height="128px" viewBox="0 0 128 128" enable-background="new 0 0 128 128" xml:space="preserve">
<g id="Calque_2">
</g>
<g id="Calque_4">
</g>
<g id="Calque_1_1_" xmlns:serif="http://www.serif.com/">
	<g id="path17">
		<path fill="none" stroke="#FF0000" stroke-width="5" stroke-linecap="round" stroke-linejoin="round" stroke-miterlimit="10" d="
			M66.647,25.013c0.043,0.032,0.099,0.079,0.143,0.125l0.024,2.736l0.029,3.517l0.02,2.284l2.179,0.688l1.107,0.348
			c1.475,0.463,2.894,1.045,4.343,1.78c1.646,0.834,2.086,1.057,2.918,1.057c1.375,0,1.623-0.249,4.668-3.275
			c0.693-0.691,1.607-1.601,2.052-1.969h0.04c0.563,0.473,1.806,1.725,3.438,3.373l0.171,0.173c1.755,1.771,3.088,3.119,3.586,3.727
			c-0.382,0.455-1.283,1.358-1.971,2.049l-2.379,2.384l-1.59,1.597l1.005,2.018l0.769,1.542c0.774,1.556,1.307,2.863,1.779,4.363
			l0.35,1.105l0.685,2.182l2.287,0.019l3.517,0.028l2.735,0.024c0.045,0.046,0.095,0.101,0.126,0.146v9.992
			c-0.031,0.045-0.081,0.099-0.126,0.146l-2.739,0.023l-3.522,0.027l-2.311,0.021l-0.667,2.208l-0.25,0.824
			c-0.46,1.529-1.452,3.854-2.303,5.407l-0.354,0.645l-1.13,2.062l1.658,1.664l2.422,2.426c0.963,0.967,1.617,1.659,1.973,2.055
			c-0.479,0.565-1.792,1.884-3.526,3.619l-0.139,0.139c-1.677,1.676-2.95,2.953-3.536,3.445c-0.457-0.381-1.352-1.275-2.035-1.956
			c-3.102-3.09-3.288-3.274-4.657-3.274c-0.804,0-1.146,0.17-3.046,1.111c-1.591,0.788-2.743,1.259-4.258,1.735l-1.073,0.339
			l-2.18,0.685l-0.019,2.282l-0.03,3.517l-0.02,2.735c-0.033,0.033-0.071,0.07-0.106,0.096c-0.582,0.031-2.14,0.037-4.716,0.043
			l-0.979,0.003c-2.349,0-3.86-0.022-4.358-0.041c-0.041-0.019-0.091-0.053-0.128-0.087l-0.024-2.759l-0.029-3.521l-0.021-2.311
			l-2.209-0.668l-0.827-0.248c-1.496-0.453-3.691-1.385-5.337-2.267l-0.743-0.397l-2.052-1.104l-1.649,1.646l-2.428,2.42
			c-0.966,0.956-1.658,1.614-2.051,1.97c-0.599-0.498-2.034-1.934-3.664-3.568l-0.114-0.118c-1.661-1.659-2.925-2.932-3.42-3.522
			c0.383-0.457,1.286-1.36,1.973-2.05l2.378-2.388l1.595-1.596L36.89,76.42l-0.765-1.538c-0.782-1.567-1.314-2.872-1.78-4.36
			l-0.35-1.105l-0.684-2.183l-2.287-0.02l-3.521-0.028l-2.733-0.021c-0.046-0.046-0.095-0.1-0.127-0.145v-9.994
			c0.034-0.044,0.081-0.101,0.126-0.144l2.736-0.024l3.517-0.029l2.296-0.018l0.68-2.194l0.298-0.964
			c0.419-1.35,1.234-3.328,1.897-4.597l0.694-1.323l1.065-2.038l-1.619-1.631l-2.393-2.416c-0.744-0.748-1.643-1.656-2.006-2.101
			v-0.034c0.473-0.563,1.727-1.808,3.379-3.446l0.169-0.166c1.707-1.692,3.103-3.077,3.723-3.585
			c0.458,0.384,1.35,1.275,2.029,1.952c2.722,2.711,3.287,3.276,4.73,3.276c0.7,0,1.388-0.215,1.965-0.604
			c0.151-0.083,0.505-0.27,1.028-0.533c1.32-0.662,2.816-1.266,4.206-1.703l1.107-0.349l2.178-0.687l0.02-2.285l0.029-3.516
			l0.023-2.742c0.043-0.044,0.094-0.09,0.135-0.12L66.647,25.013"/>
	</g>
</g>
<g id="Calque_2_1_">
</g>
<circle fill="none" stroke="#FF0000" stroke-width="5" stroke-linecap="round" stroke-linejoin="round" stroke-miterlimit="10" cx="61.66" cy="62.028" r="58.885"/>
<line fill="none" stroke="#FF0000" stroke-width="5" stroke-linecap="round" stroke-linejoin="round" stroke-miterlimit="10" x1="104.33" y1="102.607" x2="121.409" y2="119.688"/>
</svg>
