<?xml version="1.0" encoding="utf-8"?>
<!-- Generator: Adobe Illustrator 16.0.0, SVG Export Plug-In . SVG Version: 6.00 Build 0)  -->
<!DOCTYPE svg PUBLIC "-//W3C//DTD SVG 1.1//EN" "http://www.w3.org/Graphics/SVG/1.1/DTD/svg11.dtd">
<svg version="1.1" id="Calque_1" xmlns="http://www.w3.org/2000/svg" xmlns:xlink="http://www.w3.org/1999/xlink" x="0px" y="0px"
	 width="128px" height="128px" viewBox="0 0 128 128" enable-background="new 0 0 128 128" xml:space="preserve">
<g id="Calque_2">
</g>
<g id="Calque_4">
</g>
<g id="Calque_2_1_">
</g>
<path fill="none" stroke="#FF0000" stroke-width="5" stroke-miterlimit="10" d="M99.088,152.741"/>
<path fill="none" stroke="#FF0000" stroke-width="5" stroke-miterlimit="10" d="M99.088,152.741"/>
<g>
	<path fill="none" stroke="#FF0000" stroke-width="5" stroke-linecap="round" stroke-linejoin="round" stroke-miterlimit="10" d="
		M58.509,35.984c0,0-5.263,0.468-8.07,2.744c0,0-5.614-7.388-18.246-4.663l6.667,11.149c0,0-5.965,5.964-6.667,11.577h-3.596
		c0,0-2.632-0.352-2.632,3.421c0,3.771,0,10.966,0,10.966s-0.351,1.665,2.632,1.665c2.982,0,3.859,0,3.859,0
		s2.983,7.018,11.052,9.825l-2.632,9.647c0,0-0.263,2.193,2.632,2.193c2.894,0,9.296,0,9.296,0s0.966,0.265,1.666-2.366
		c0.703-2.634,1.141-5.264,1.141-5.264s10,1.843,17.191,0.352l1.141,5.174c0,0,0.28,2.12,2.377,2.11c2.096-0.006,9.464,0,9.464,0
		s2.104,0.52,1.318-3.514c-0.794-4.035-2.194-9.209-2.194-9.209s13.548-6.564,12.019-22.63
		C93.696,25.239,58.509,35.984,58.509,35.984z"/>
</g>
<circle fill="none" stroke="#FF0000" stroke-width="5" stroke-linecap="round" stroke-linejoin="round" stroke-miterlimit="10" cx="61.5" cy="64" r="58.885"/>
<line fill="none" stroke="#FF0000" stroke-width="5" stroke-linecap="round" stroke-linejoin="round" stroke-miterlimit="10" x1="104.17" y1="104.579" x2="121.249" y2="121.659"/>
</svg>
