<?xml version="1.0" encoding="utf-8"?>
<!-- Generator: Adobe Illustrator 16.0.0, SVG Export Plug-In . SVG Version: 6.00 Build 0)  -->
<!DOCTYPE svg PUBLIC "-//W3C//DTD SVG 1.1//EN" "http://www.w3.org/Graphics/SVG/1.1/DTD/svg11.dtd">
<svg version="1.1"
	 id="svg42" xmlns:dc="http://purl.org/dc/elements/1.1/" xmlns:cc="http://creativecommons.org/ns#" xmlns:rdf="http://www.w3.org/1999/02/22-rdf-syntax-ns#" xmlns:svg="http://www.w3.org/2000/svg" xmlns:sodipodi="http://sodipodi.sourceforge.net/DTD/sodipodi-0.dtd" xmlns:inkscape="http://www.inkscape.org/namespaces/inkscape" sodipodi:docname="iconPlanning.svg" inkscape:version="1.0 (4035a4fb49, 2020-05-01)"
	 xmlns="http://www.w3.org/2000/svg" xmlns:xlink="http://www.w3.org/1999/xlink" x="0px" y="0px" width="128px" height="128px"
	 viewBox="0 0 128 128" enable-background="new 0 0 128 128" xml:space="preserve">
<sodipodi:namedview  pagecolor="#ffffff" bordercolor="#666666" borderopacity="1" objecttolerance="10" gridtolerance="10" guidetolerance="10" showgrid="false" inkscape:cx="62.793161" inkscape:cy="86.204818" inkscape:zoom="4.0603397" id="namedview44" inkscape:pageopacity="0" inkscape:pageshadow="2" inkscape:window-width="1920" inkscape:window-height="1017" inkscape:window-y="-8" inkscape:window-maximized="1" inkscape:current-layer="svg42" inkscape:window-x="-8">
	</sodipodi:namedview>
<g id="Calque_1" display="none">
	<g id="Calque_1_2_" display="inline">
		<g id="Calque_1_1_">
		</g>
		
			<line id="line3" fill="none" stroke="#FF0000" stroke-width="11" stroke-miterlimit="10" x1="5.1" y1="35.064" x2="58.226" y2="35.064"/>
		
			<line id="line5" fill="none" stroke="#FF0000" stroke-width="11" stroke-miterlimit="10" x1="58.226" y1="46.698" x2="86.372" y2="46.698"/>
		
			<line id="line7" fill="none" stroke="#FF0000" stroke-width="11" stroke-miterlimit="10" x1="17.83" y1="68.512" x2="45.601" y2="68.512"/>
		
			<line id="line9" fill="none" stroke="#FF0000" stroke-width="11" stroke-miterlimit="10" x1="45.601" y1="81.646" x2="68.682" y2="81.646"/>
		
			<line id="line11" fill="none" stroke="#FF0000" stroke-width="11" stroke-miterlimit="10" x1="67.805" y1="92.5" x2="113.844" y2="92.5"/>
		<path id="path13" fill="none" stroke="#FF0000" stroke-width="5" stroke-miterlimit="10" d="M124.111,105.398
			c0,3.594-2.688,6.509-6.006,6.509H11.022c-3.316,0-6.004-2.915-6.004-6.509V15.383c0-3.594,2.688-6.507,6.004-6.507h107.083
			c3.315,0,6.006,2.914,6.006,6.507V105.398z"/>
	</g>
	<g id="Calque_1_3_" display="inline">
	</g>
	
		<path id="path17" display="inline" fill="none" stroke="#FF0000" stroke-width="5" stroke-linecap="round" stroke-miterlimit="10" d="
		M120.105,121.5H13.022c-3.316,0-6.004-2.915-6.004-6.509V12.5"/>
	
		<line id="line19" display="inline" fill="none" stroke="#FF0000" stroke-width="11" stroke-miterlimit="10" x1="24.572" y1="26.21" x2="103.43" y2="26.21"/>
	
		<line id="line21" display="inline" fill="none" stroke="#FF0000" stroke-width="11" stroke-miterlimit="10" x1="17.501" y1="50.5" x2="65.251" y2="50.5"/>
	
		<line id="line23" display="inline" fill="none" stroke="#FF0000" stroke-width="11" stroke-miterlimit="10" x1="65.251" y1="67" x2="102.045" y2="67"/>
	
		<line id="line25" display="inline" fill="none" stroke="#FF0000" stroke-width="11" stroke-miterlimit="10" x1="33.251" y1="98.473" x2="81.002" y2="98.473"/>
</g>
<g id="Calque_2">
</g>
<path id="path29" fill="none" stroke="#FF0000" stroke-width="5" stroke-miterlimit="10" d="M124.658,113.507
	c0,5.955-4.826,10.781-10.781,10.781H15.354c-5.954,0-10.781-4.826-10.781-10.781V14.983c0-5.955,4.827-10.781,10.781-10.781h98.525
	c5.953,0,10.781,4.827,10.781,10.781v80.1L124.658,113.507z"/>
<line id="line31" fill="none" stroke="#FF0000" stroke-width="12" stroke-miterlimit="10" x1="13.498" y1="24.584" x2="47.168" y2="24.584"/>
<line id="line33" fill="none" stroke="#FF0000" stroke-width="12" stroke-miterlimit="10" x1="46.292" y1="78.417" x2="76.708" y2="78.417"/>
<line id="line37" fill="none" stroke="#FF0000" stroke-width="12" stroke-miterlimit="10" x1="47.143" y1="51.53" x2="94.702" y2="51.53"/>
<line id="line39" fill="none" stroke="#FF0000" stroke-width="12" stroke-miterlimit="10" x1="76.108" y1="104.037" x2="125.08" y2="104.037"/>
<path id="path2790" fill="none" stroke="#FF0000" stroke-width="1" d="M46.766,18.707L46.693,84.39"/>
<path id="path2790-1" fill="none" stroke="#FF0000" stroke-width="1" d="M76.174,72.547v37.509"/>
</svg>
