<?xml version="1.0" encoding="utf-8"?>
<!-- Generator: Adobe Illustrator 16.0.0, SVG Export Plug-In . SVG Version: 6.00 Build 0)  -->
<!DOCTYPE svg PUBLIC "-//W3C//DTD SVG 1.1//EN" "http://www.w3.org/Graphics/SVG/1.1/DTD/svg11.dtd">
<svg version="1.1" xmlns="http://www.w3.org/2000/svg" xmlns:xlink="http://www.w3.org/1999/xlink" x="0px" y="0px" width="128px"
	 height="128px" viewBox="0 0 128 128" enable-background="new 0 0 128 128" xml:space="preserve">
<g id="Calque_3">
</g>
<g id="Calque_2">
	<g>
		
			<rect x="7.835" y="11.209" fill="none" stroke="#FF0000" stroke-width="5" stroke-linecap="round" stroke-linejoin="round" stroke-miterlimit="10" width="30.721" height="111.212"/>
		
			<rect x="7.835" y="91.699" fill="none" stroke="#FF0000" stroke-width="5" stroke-linecap="round" stroke-linejoin="round" stroke-miterlimit="10" width="111.212" height="30.722"/>
		
			<line fill="none" stroke="#FF0000" stroke-width="5" stroke-linecap="round" stroke-linejoin="round" stroke-miterlimit="10" x1="50.053" y1="107.061" x2="50.053" y2="122.421"/>
		
			<line fill="none" stroke="#FF0000" stroke-width="5" stroke-linecap="round" stroke-linejoin="round" stroke-miterlimit="10" x1="61.55" y1="107.061" x2="61.55" y2="122.421"/>
		
			<line fill="none" stroke="#FF0000" stroke-width="5" stroke-linecap="round" stroke-linejoin="round" stroke-miterlimit="10" x1="73.045" y1="107.061" x2="73.045" y2="122.421"/>
		
			<line fill="none" stroke="#FF0000" stroke-width="5" stroke-linecap="round" stroke-linejoin="round" stroke-miterlimit="10" x1="84.539" y1="107.061" x2="84.539" y2="122.421"/>
		
			<line fill="none" stroke="#FF0000" stroke-width="5" stroke-linecap="round" stroke-linejoin="round" stroke-miterlimit="10" x1="96.036" y1="107.061" x2="96.036" y2="122.421"/>
		
			<line fill="none" stroke="#FF0000" stroke-width="5" stroke-linecap="round" stroke-linejoin="round" stroke-miterlimit="10" x1="107.533" y1="107.061" x2="107.533" y2="122.421"/>
	</g>
</g>
<g id="Calque_4" display="none">
	<g id="Calque_2_1_" display="inline">
		<g>
			<path fill="none" stroke="#FF0000" stroke-width="5" stroke-linecap="round" stroke-linejoin="round" stroke-miterlimit="10" d="
				M56.677,55.628c0,0.578-0.47,1.048-1.052,1.048H5.549c-0.58,0-1.049-0.472-1.049-1.048V5.548C4.5,4.969,4.969,4.5,5.549,4.5
				h50.078c0.58,0,1.05,0.469,1.05,1.048V55.628L56.677,55.628z"/>
			<circle fill="#FF0000" cx="16.429" cy="17.486" r="3.706"/>
			<path fill="none" stroke="#FF0000" stroke-width="5" stroke-miterlimit="10" d="M24.228,17.485h22.021"/>
			<circle fill="#FF0000" cx="16.429" cy="30.588" r="3.706"/>
			<path fill="none" stroke="#FF0000" stroke-width="5" stroke-miterlimit="10" d="M24.228,30.588h22.021"/>
			<circle fill="#FF0000" cx="16.429" cy="43.688" r="3.706"/>
			<path fill="none" stroke="#FF0000" stroke-width="5" stroke-miterlimit="10" d="M24.228,43.687h22.021"/>
		</g>
	</g>
</g>
</svg>
