<?xml version="1.0" encoding="utf-8"?>
<!-- Generator: Adobe Illustrator 16.0.0, SVG Export Plug-In . SVG Version: 6.00 Build 0)  -->
<!DOCTYPE svg PUBLIC "-//W3C//DTD SVG 1.1//EN" "http://www.w3.org/Graphics/SVG/1.1/DTD/svg11.dtd">
<svg version="1.1" id="Calque_1" xmlns="http://www.w3.org/2000/svg" xmlns:xlink="http://www.w3.org/1999/xlink" x="0px" y="0px"
	 width="128px" height="128px" viewBox="0 0 128 128" enable-background="new 0 0 128 128" xml:space="preserve">
<g id="Calque_1_2_">
	<g id="Calque_1_1_">
		<g id="Calque_2" display="none">
			<g display="inline">
				<path fill="none" d="M65.085,64.747c9.406,0,15.547-12.935,16.563-26.153h-30.49c-0.851,0.106-1.718,0.198-2.616,0.25
					C49.617,51.975,55.738,64.747,65.085,64.747z"/>
				<path fill="none" d="M92.959,75.411l-9.646-3.521L67.88,80.636l-5.938-0.091l-15.506-8.65l-9.566,3.521
					c-1.507,0.729-19.394,9.841-18.328,33.11c0.541,0.854,3.165,4.105,11.531,4.177c-0.264-4.405-0.719-14.237-0.156-22.854
					l4.739,0.312c-0.606,9.284,0.032,20.393,0.246,23.604c5.498,4.866,17.007,7.821,30.305,7.706
					c12.979-0.095,24.488-3.097,29.764-7.702c0.194-3.279,0.781-14.629,0.146-23.757l4.738-0.329
					c0.595,8.51,0.179,18.562-0.063,23.021c8.269-0.072,10.908-3.269,11.493-4.19C112.336,85.279,94.51,76.16,92.959,75.411z"/>
				<path fill="#FF0000" d="M35.814,38.594h6.227c0,0.002,0,0.004,0,0.006c-1.305,2.819-1.772,7.667,4.469,13.882
					c3.377,9.688,9.662,17.016,18.575,17.016c8.739,0,15.188-7.482,18.631-17.413c5.837-6.035,5.343-10.733,4.063-13.491h6.232
					c1.215,0,2.196-0.984,2.196-2.199c0-1.214-0.981-2.199-2.196-2.199H91.07c0.016-0.334,0.021-0.671,0.021-1.009
					c0-10.568-6.177-19.661-15.054-23.763c0.023,1.039,0.029,2.212,0.029,3.533v3.8c0,10.968-0.596,11.62-10.619,11.62
					c-10.028,0-10.623-0.652-10.623-11.62v-3.8c0-1.326,0.009-2.498,0.042-3.54c-8.881,4.101-15.063,13.198-15.063,23.77
					c0,0.341,0.03,0.673,0.046,1.009H35.81c-1.214,0-2.199,0.985-2.199,2.199C33.615,37.609,34.6,38.594,35.814,38.594z
					 M51.157,38.594h30.489c-1.019,13.218-7.155,26.153-16.563,26.153c-9.347,0-15.468-12.772-16.543-25.903
					C49.439,38.792,50.306,38.7,51.157,38.594z"/>
				<path fill="#FF0000" d="M94.869,71.063l-14.21-5.194L67.984,73.28h-6.221l-12.676-7.423L35.13,70.989l-0.173,0.071
					c-0.229,0.104-22.684,10.772-21.134,38.211l0.021,0.354l0.12,0.331c0.119,0.321,2.909,7.502,16.378,7.502
					c0.5,0,1.019-0.015,1.55-0.035c6.384,5.541,18.402,8.797,32.667,8.797c0.229,0,0.455-0.002,0.685-0.003
					c11.188-0.078,25.396-2.453,32.745-8.793c14.756,0.546,17.746-7.134,17.869-7.469l0.123-0.33l0.021-0.354
					C117.55,81.837,95.096,71.166,94.869,71.063z M111.283,108.508c-0.586,0.924-3.227,4.118-11.493,4.19
					c0.241-4.46,0.657-14.511,0.065-23.021l-4.74,0.331c0.637,9.127,0.05,20.477-0.146,23.754
					c-5.273,4.608-16.783,7.61-29.763,7.705c-13.298,0.115-24.808-2.84-30.305-7.707c-0.213-3.213-0.852-14.316-0.246-23.604
					l-4.739-0.311c-0.563,8.614-0.108,18.446,0.156,22.854c-8.366-0.067-10.99-3.319-11.531-4.175
					c-1.065-23.271,16.821-32.39,18.328-33.112l9.566-3.519l15.506,8.648l5.938,0.091l15.434-8.745l9.646,3.521
					C94.51,76.16,112.336,85.279,111.283,108.508z"/>
				<path fill="#FF0000" d="M73.372,8.367c-0.083-1.763-0.28-2.937-0.769-3.485c-0.771-0.865-3.103-0.907-7.153-0.907
					c-3.994,0-6.394,0-7.163,0.853c-0.487,0.541-0.682,1.733-0.763,3.539c2.496-0.824,5.156-1.275,7.921-1.275
					C68.214,7.091,70.876,7.542,73.372,8.367z"/>
				<path fill="#FF0000" d="M57.466,16.756c0,4.501,0,7.218,0.823,8.129c0.77,0.852,3.175,0.852,7.161,0.852
					c3.985,0,6.391,0,7.159-0.852c0.824-0.911,0.824-3.627,0.824-8.129v-3.8c0-1.835-0.004-3.353-0.063-4.589
					c-2.496-0.824-5.158-1.275-7.927-1.275c-2.765,0-5.425,0.451-7.921,1.275c-0.055,1.239-0.059,2.759-0.059,4.589v3.8H57.466z"/>
			</g>
		</g>
		<g id="Calque_3" display="none">
			<g display="inline">
				<path fill="#FF0000" d="M79.861,35.464C83.643,17.36,72.088,7.153,57.047,7.153c-26.96,0-22.255,29.539-22.255,29.539
					c0.029,0.003,0.058,0.004,0.087,0.007c-1.231,2.785-1.595,7.457,4.25,13.417c3.339,9.769,9.626,17.19,18.576,17.19
					c8.62,0,14.997-7.315,18.445-17.072C83.111,43.219,81.468,37.973,79.861,35.464z M57.705,62.58
					c-9.302,0-15.394-12.712-16.463-25.778c11.693-0.688,19.433-6.228,23.595-10.293c1.979,3.558,6.074,5.944,9.485,7.399
					C73.98,47.924,67.691,62.58,57.705,62.58z"/>
			</g>
			<g display="inline">
				<path fill="none" d="M52.523,117.361c-0.81-0.252-1.482-0.887-1.742-1.741L37.128,70.564c-0.232-0.77-0.098-1.563,0.309-2.188
					l-8.486,3.121c-1.233,0.594-20.855,10.446-19.47,35.433c0.221,0.514,2.729,5.713,13.817,5.713
					c0.459-0.002,0.944-0.017,1.438-0.033c0.035-0.002,0.071-0.004,0.105-0.004c0.631,0,1.243,0.229,1.721,0.646
					c5.126,4.449,14.591,7.326,25.879,7.976l-0.196-0.201L52.523,117.361z"/>
				<path fill="none" d="M86.488,71.518l-8.34-3.064c0.399,0.626,0.537,1.418,0.305,2.182L64.652,116.18
					c-0.257,0.854-0.926,1.484-1.732,1.738l0.236,3.104l-0.139,0.145c9.483-0.645,20.12-2.95,25.883-7.917
					c0.502-0.437,1.146-0.646,1.813-0.638c0.475,0.02,0.941,0.031,1.391,0.031c11.021-0.002,13.567-5.141,13.817-5.715
					C107.293,82.239,88.15,72.329,86.488,71.518z"/>
				<path fill="#FF0000" d="M88.604,66.707c-0.063-0.027-0.121-0.053-0.185-0.075l-13.565-4.993
					c-1.326-0.489-2.801,0.161-3.336,1.467l-1.795,4.373c-0.271,0.662-0.264,1.401,0.023,2.06c0.288,0.649,0.829,1.162,1.499,1.403
					l1.462,0.539l-8.791,29.019l-0.904-15.813c-0.014-0.24-0.06-0.475-0.135-0.69l2.426-3.442c0.455-0.646,0.596-1.46,0.383-2.221
					c-0.045-0.16-0.053-0.188-1.7-4.453c-0.416-1.078-1.477-1.751-2.623-1.675c-0.276,0.009-1.619,0.016-3.659,0.016
					c-2.043,0-3.385-0.007-3.663-0.016c-1.139-0.087-2.203,0.593-2.621,1.668c-2.023,5.204-2.023,5.204-1.583,6.215
					c0.072,0.165,0.159,0.317,0.263,0.466l2.427,3.442c-0.074,0.22-0.121,0.45-0.134,0.69L51.52,99.941l-8.645-28.526l1.304-0.479
					c0.671-0.246,1.213-0.756,1.5-1.41c0.286-0.651,0.294-1.396,0.021-2.061l-1.811-4.371c-0.541-1.302-2.014-1.945-3.333-1.459
					l-13.398,4.926c-0.032,0.01-0.063,0.021-0.093,0.035l-0.174,0.07c-0.033,0.016-0.064,0.027-0.095,0.042
					c-0.242,0.11-24.2,11.438-22.556,40.562l0.02,0.353c0.015,0.26,0.067,0.514,0.156,0.758l0.12,0.326
					c0.345,0.938,3.797,9.188,18.767,9.188c0.206,0,0.415-0.004,0.628-0.008c7.023,5.557,19.108,8.725,33.408,8.725h0.011
					l0.697-0.002c5.388-0.039,23.369-0.793,33.475-8.721c0.195,0.004,0.394,0.006,0.582,0.006
					c14.988-0.002,18.422-8.256,18.766-9.192l0.117-0.328c0.091-0.239,0.144-0.49,0.154-0.745l0.021-0.354
					C112.811,78.107,88.846,66.816,88.604,66.707z M52.245,78.835c-0.009-0.019,1.623-4.214,1.623-4.214
					c0.191,0.027,7.479,0.027,7.669,0c0,0,1.603,4.15,1.62,4.214l-2.592,3.683H54.84L52.245,78.835z M105.921,106.928
					c-0.25,0.574-2.796,5.713-13.817,5.715c-0.444,0-0.916-0.016-1.391-0.031c-0.665-0.01-1.311,0.201-1.813,0.638
					c-5.764,4.967-16.399,7.272-25.883,7.917l-5.315,3.396l-5.261-3.338c-11.288-0.646-20.753-3.521-25.879-7.975
					c-0.478-0.415-1.089-0.645-1.721-0.645c-0.034,0-0.071,0.002-0.105,0.004c-0.494,0.02-0.979,0.029-1.438,0.031
					c-11.088,0-13.596-5.199-13.817-5.711c-1.385-24.983,18.237-34.839,19.47-35.433l8.486-3.121
					c-0.406,0.627-0.541,1.422-0.309,2.188l13.653,45.057c0.26,0.854,0.933,1.488,1.742,1.74l2.49-32.729h5.376l2.53,33.281
					c0.807-0.254,1.476-0.888,1.731-1.739L78.452,70.63c0.231-0.764,0.099-1.556-0.306-2.182l8.342,3.067
					C88.15,72.329,107.293,82.239,105.921,106.928z"/>
				<path fill="#FFFFFF" d="M59.201,80.09l1.003-1.424c-0.146-0.378-0.307-0.8-0.463-1.2c-0.527,0.001-1.194,0.001-2.038,0.001
					c-0.849,0-1.517,0-2.045-0.001c-0.167,0.433-0.326,0.841-0.464,1.196l1.007,1.428H59.201z"/>
				<path fill="#FFFFFF" d="M60.564,82.518l2.592-3.683c-0.018-0.063-1.62-4.214-1.62-4.214c-0.19,0.027-7.478,0.027-7.669,0
					c0,0-1.631,4.195-1.623,4.214l2.596,3.683H60.564z"/>
			</g>
			<g display="inline">
				<path fill="#FF0000" d="M91.54,23.535c0,0.507-0.41,0.918-0.918,0.918h-4.017c-0.508,0-0.918-0.411-0.918-0.918v-4.016
					c0-0.507,0.41-0.918,0.918-0.918h4.017c0.508,0,0.918,0.411,0.918,0.918V23.535z"/>
				<path fill="#FF0000" d="M100.089,23.535c0,0.507-0.409,0.918-0.918,0.918h-4.017c-0.508,0-0.918-0.411-0.918-0.918v-4.016
					c0-0.507,0.41-0.918,0.918-0.918h4.017c0.509,0,0.918,0.411,0.918,0.918V23.535z"/>
				<path fill="#FF0000" d="M108.58,23.535c0,0.507-0.41,0.918-0.918,0.918h-4.016c-0.508,0-0.918-0.411-0.918-0.918v-4.016
					c0-0.507,0.41-0.918,0.918-0.918h4.016c0.508,0,0.918,0.411,0.918,0.918V23.535z"/>
			</g>
			<g display="inline">
				<path fill="none" d="M80.943,34.431c0,0.41-0.012,0.815-0.026,1.221h8.834v10.819l8.812-10.819h23.801V7.402H71.906v4.573
					C77.436,17.391,80.943,25.438,80.943,34.431z"/>
				<path fill="#FF0000" d="M124.273,2.402H69.995c-1.731,0-3.089,1.461-3.089,3.326V9.25c1.8,1.056,3.477,1.233,5,2.726V7.402
					h50.455v28.25H98.563l-8.812,10.819V35.652l-9.89-0.188c-0.063,1.708,0.809,3.566,0.506,5.188h4.384v19.877l16.188-19.877
					h23.334c1.729,0,3.09-1.461,3.09-3.326V5.729C127.361,3.863,126.006,2.402,124.273,2.402z"/>
			</g>
		</g>
	</g>
	<g id="Calque_2_1_" display="none">
		<g display="inline">
			<path fill="none" d="M64.723,62.345c9.405,0,15.547-12.934,16.563-26.153h-30.49c-0.851,0.106-1.718,0.198-2.616,0.25
				C49.254,49.573,55.375,62.345,64.723,62.345z"/>
			<path fill="none" d="M92.596,73.009l-9.646-3.52l-15.433,8.743l-5.938-0.09l-15.505-8.649l-9.566,3.518
				C35,73.739,17.113,82.854,18.179,106.124c0.541,0.854,3.165,4.104,11.531,4.174c-0.264-4.403-0.719-14.235-0.156-22.853
				l4.739,0.31c-0.606,9.287,0.032,20.394,0.246,23.604c5.498,4.867,17.007,7.822,30.305,7.707
				c12.979-0.094,24.488-3.096,29.764-7.703c0.194-3.279,0.781-14.629,0.146-23.756l4.738-0.33
				c0.595,8.51,0.179,18.561-0.063,23.021c8.268-0.071,10.906-3.268,11.491-4.19C111.973,82.878,94.146,73.759,92.596,73.009z"/>
			<path fill="#FF0000" d="M35.451,36.192h6.227c0,0.002,0,0.004,0,0.006c-1.305,2.819-1.772,7.667,4.469,13.882
				c3.377,9.688,9.662,17.016,18.576,17.016c8.738,0,15.188-7.48,18.631-17.414c5.836-6.035,5.342-10.733,4.063-13.491h6.231
				c1.215,0,2.197-0.984,2.197-2.199c0-1.214-0.982-2.199-2.197-2.199h-2.94c0.017-0.334,0.021-0.671,0.021-1.009
				c0-10.568-6.176-19.661-15.054-23.763c0.025,1.039,0.031,2.212,0.031,3.533v3.8c0,10.968-0.597,11.62-10.621,11.62
				c-10.028,0-10.623-0.652-10.623-11.62v-3.8c0-1.326,0.009-2.498,0.042-3.54c-8.881,4.101-15.063,13.198-15.063,23.77
				c0,0.341,0.03,0.673,0.046,1.009h-4.039c-1.214,0-2.199,0.985-2.199,2.199C33.252,35.207,34.237,36.192,35.451,36.192z
				 M50.794,36.192h30.489c-1.018,13.219-7.155,26.153-16.563,26.153c-9.349,0-15.47-12.771-16.545-25.903
				C49.076,36.39,49.943,36.298,50.794,36.192z"/>
			<path fill="#FF0000" d="M94.506,68.661l-14.21-5.197l-12.675,7.414H61.4l-12.677-7.422l-13.957,5.131l-0.173,0.072
				c-0.229,0.104-22.684,10.772-21.134,38.211l0.021,0.354l0.12,0.33c0.119,0.32,2.909,7.502,16.378,7.502
				c0.5,0,1.019-0.016,1.55-0.035c6.384,5.541,18.402,8.797,32.667,8.797c0.228,0,0.456-0.002,0.683-0.002
				c11.19-0.078,25.396-2.453,32.747-8.793c14.754,0.545,17.746-7.135,17.869-7.469l0.123-0.33l0.021-0.354
				C117.188,79.436,94.732,68.766,94.506,68.661z M110.92,106.105c-0.586,0.925-3.227,4.117-11.493,4.188
				c0.241-4.459,0.657-14.51,0.065-23.021l-4.74,0.332c0.637,9.127,0.051,20.478-0.146,23.754
				c-5.271,4.606-16.781,7.608-29.763,7.705c-13.298,0.115-24.808-2.84-30.305-7.707c-0.213-3.213-0.852-14.315-0.246-23.604
				l-4.739-0.31c-0.563,8.613-0.108,18.445,0.156,22.854c-8.366-0.066-10.99-3.318-11.531-4.174
				C17.113,82.852,34.999,73.732,36.506,73.01l9.566-3.518l15.506,8.646l5.938,0.092l15.436-8.746l9.646,3.521
				C94.146,73.759,111.973,82.878,110.92,106.105z"/>
			<path fill="#FF0000" d="M73.009,5.965c-0.083-1.763-0.28-2.937-0.769-3.485c-0.771-0.865-3.102-0.907-7.153-0.907
				c-3.994,0-6.394,0-7.163,0.853c-0.487,0.541-0.682,1.733-0.763,3.539c2.496-0.824,5.156-1.275,7.921-1.275
				C67.852,4.689,70.514,5.14,73.009,5.965z"/>
			<path fill="#FF0000" d="M57.103,14.354c0,4.501,0,7.218,0.823,8.129c0.77,0.852,3.175,0.852,7.161,0.852
				c3.985,0,6.392,0,7.159-0.852c0.824-0.911,0.824-3.627,0.824-8.129v-3.8c0-1.835-0.004-3.353-0.063-4.589
				C70.512,5.141,67.85,4.69,65.08,4.69c-2.766,0-5.426,0.451-7.921,1.275C57.104,7.204,57.1,8.724,57.1,10.554v3.8H57.103z"/>
		</g>
	</g>
	<g id="Calque_3_1_" display="none">
		<g display="inline">
			<path fill="#FF0000" d="M79.498,33.062c3.781-18.104-7.773-28.311-22.814-28.311c-26.96,0-22.255,29.539-22.255,29.539
				c0.029,0.003,0.058,0.004,0.087,0.007c-1.231,2.785-1.595,7.457,4.25,13.417c3.339,9.769,9.626,17.191,18.576,17.191
				c8.62,0,14.997-7.316,18.445-17.07C82.748,40.817,81.104,35.571,79.498,33.062z M57.342,60.179
				c-9.302,0-15.394-12.712-16.463-25.779c11.693-0.688,19.433-6.228,23.595-10.293c1.979,3.558,6.074,5.944,9.485,7.399
				C73.617,45.522,67.328,60.179,57.342,60.179z"/>
		</g>
		<g display="inline">
			<path fill="none" d="M52.16,114.96c-0.81-0.252-1.482-0.887-1.742-1.742L36.765,68.163c-0.232-0.769-0.098-1.563,0.309-2.188
				l-8.486,3.12c-1.233,0.595-20.855,10.447-19.47,35.436c0.221,0.514,2.729,5.713,13.817,5.713
				c0.459-0.002,0.944-0.019,1.438-0.033c0.035-0.002,0.071-0.004,0.105-0.004c0.631,0,1.243,0.229,1.721,0.644
				c5.126,4.448,14.591,7.325,25.879,7.976l-0.196-0.201L52.16,114.96z"/>
			<path fill="none" d="M86.125,69.116l-8.34-3.066c0.4,0.625,0.537,1.418,0.305,2.183l-13.801,45.545
				c-0.258,0.854-0.926,1.483-1.732,1.738l0.236,3.104l-0.139,0.144c9.483-0.644,20.12-2.951,25.883-7.919
				c0.502-0.434,1.146-0.645,1.813-0.635c0.477,0.019,0.941,0.031,1.393,0.031c11.021-0.002,13.566-5.142,13.816-5.716
				C106.93,79.837,87.787,69.927,86.125,69.116z"/>
			<path fill="#FF0000" d="M88.24,64.306c-0.063-0.027-0.121-0.053-0.186-0.076L74.49,59.237c-1.326-0.488-2.801,0.16-3.336,1.467
				l-1.795,4.373c-0.271,0.662-0.264,1.399,0.021,2.057c0.288,0.652,0.829,1.162,1.499,1.406l1.462,0.539l-8.791,29.016
				l-0.904-15.813c-0.014-0.24-0.06-0.476-0.135-0.691l2.425-3.442c0.455-0.646,0.597-1.459,0.383-2.222
				c-0.045-0.159-0.053-0.186-1.698-4.452c-0.416-1.078-1.478-1.75-2.623-1.675c-0.276,0.009-1.619,0.017-3.659,0.017
				c-2.043,0-3.385-0.008-3.663-0.017c-1.139-0.088-2.203,0.593-2.621,1.668c-2.023,5.203-2.023,5.203-1.583,6.216
				c0.072,0.164,0.159,0.317,0.263,0.465l2.427,3.442c-0.074,0.22-0.121,0.451-0.134,0.691L51.157,97.54l-8.645-28.526l1.304-0.479
				c0.671-0.246,1.213-0.758,1.5-1.41c0.286-0.654,0.294-1.396,0.021-2.063l-1.811-4.371c-0.541-1.303-2.014-1.945-3.333-1.459
				l-13.398,4.926c-0.032,0.01-0.063,0.021-0.093,0.035l-0.174,0.07c-0.033,0.016-0.064,0.027-0.095,0.041
				c-0.242,0.111-24.2,11.439-22.556,40.563l0.02,0.35c0.015,0.261,0.067,0.515,0.156,0.759l0.12,0.325
				c0.345,0.941,3.797,9.191,18.767,9.191c0.206,0,0.415-0.004,0.628-0.009c7.023,5.558,19.108,8.726,33.408,8.726h0.011
				l0.697-0.002c5.389-0.039,23.369-0.793,33.475-8.722c0.194,0.005,0.392,0.007,0.582,0.007
				c14.987-0.002,18.422-8.257,18.764-9.195l0.119-0.327c0.089-0.238,0.142-0.49,0.153-0.744l0.021-0.354
				C112.447,75.706,88.482,64.415,88.24,64.306z M51.882,76.434c-0.009-0.019,1.623-4.214,1.623-4.214
				c0.191,0.027,7.479,0.027,7.669,0c0,0,1.604,4.15,1.62,4.214l-2.593,3.685h-5.725L51.882,76.434z M105.559,104.525
				c-0.25,0.574-2.797,5.714-13.816,5.716c-0.446,0-0.916-0.017-1.393-0.031c-0.664-0.01-1.311,0.201-1.813,0.636
				c-5.764,4.967-16.398,7.274-25.883,7.918l-5.315,3.396l-5.261-3.34c-11.288-0.646-20.753-3.521-25.879-7.975
				c-0.478-0.414-1.089-0.643-1.721-0.643c-0.034,0-0.071,0.002-0.105,0.004c-0.494,0.018-0.979,0.029-1.438,0.031
				c-11.088,0-13.596-5.199-13.817-5.711c-1.385-24.983,18.236-34.838,19.47-35.43l8.486-3.121
				c-0.406,0.627-0.541,1.422-0.309,2.188l13.653,45.057c0.26,0.854,0.933,1.488,1.742,1.74l2.49-32.729h5.375l2.53,33.281
				c0.808-0.256,1.476-0.889,1.731-1.74l13.802-45.545c0.23-0.766,0.1-1.557-0.306-2.184l8.342,3.068
				C87.787,69.927,106.93,79.837,105.559,104.525z"/>
			<path fill="#FFFFFF" d="M58.838,77.688l1.003-1.424c-0.146-0.379-0.308-0.801-0.463-1.201c-0.527,0.002-1.194,0.002-2.038,0.002
				c-0.849,0-1.517,0-2.045-0.002c-0.167,0.436-0.326,0.844-0.464,1.197l1.007,1.428H58.838z"/>
			<path fill="#FFFFFF" d="M60.201,80.116l2.592-3.685c-0.018-0.063-1.62-4.214-1.62-4.214c-0.19,0.027-7.478,0.027-7.669,0
				c0,0-1.631,4.195-1.623,4.214l2.596,3.685H60.201z"/>
		</g>
		<g display="inline">
			<path fill="#FF0000" d="M91.177,21.133c0,0.507-0.409,0.918-0.918,0.918h-4.017c-0.508,0-0.918-0.411-0.918-0.918v-4.016
				c0-0.507,0.41-0.918,0.918-0.918h4.017c0.509,0,0.918,0.411,0.918,0.918V21.133z"/>
			<path fill="#FF0000" d="M99.727,21.133c0,0.507-0.41,0.918-0.918,0.918h-4.018c-0.508,0-0.918-0.411-0.918-0.918v-4.016
				c0-0.507,0.41-0.918,0.918-0.918h4.018c0.508,0,0.918,0.411,0.918,0.918V21.133z"/>
			<path fill="#FF0000" d="M108.217,21.133c0,0.507-0.41,0.918-0.918,0.918h-4.016c-0.508,0-0.918-0.411-0.918-0.918v-4.016
				c0-0.507,0.41-0.918,0.918-0.918h4.016c0.508,0,0.918,0.411,0.918,0.918V21.133z"/>
		</g>
		<g display="inline">
			<path fill="none" d="M80.58,32.029c0,0.41-0.012,0.815-0.025,1.221h8.834v10.819L98.2,33.25H122V5H71.543v4.573
				C77.072,14.989,80.58,23.036,80.58,32.029z"/>
			<path fill="#FF0000" d="M123.91,0H69.632c-1.731,0-3.089,1.461-3.089,3.326v3.522c1.8,1.056,3.477,1.233,5,2.726V5h50.455v28.25
				H98.199l-8.813,10.819V33.25l-9.891-0.188c-0.063,1.708,0.811,3.566,0.506,5.188h4.385v19.877l16.188-19.877h23.334
				c1.73,0,3.09-1.461,3.09-3.326V3.327C126.998,1.461,125.643,0,123.91,0z"/>
		</g>
	</g>
	<path fill="none" stroke="#FF0000" stroke-width="5" stroke-miterlimit="10" d="M85.637,27.766c0,5.17-1.455,9.949-3.919,13.82
		c-3.687,5.791-9.628,12.132-16.331,12.132c-6.594,0-12.451-6.222-16.148-11.853c-2.575-3.918-4.102-8.803-4.102-14.1
		c0-12.907,9.066-23.37,20.25-23.37C76.57,4.397,85.637,14.86,85.637,27.766z"/>
</g>
<g id="Calque_3_2_">
	<path fill="none" stroke="#FF0000" stroke-width="5" stroke-linecap="round" stroke-miterlimit="10" d="M22,77.71
		c0,0,3.531-15.71,28.198-16c0,0,3.376,8,15.188,8C77.2,69.71,80.027,62,80.027,62s25.838,0,29.438,16.29"/>
</g>
<circle fill="none" stroke="#FF0000" stroke-width="5" stroke-linecap="round" stroke-linejoin="round" stroke-miterlimit="10" cx="35.975" cy="107.244" r="13.975"/>
<line fill="none" stroke="#FF0000" stroke-width="5" stroke-linecap="round" stroke-linejoin="round" stroke-miterlimit="10" x1="49.949" y1="107.244" x2="121.755" y2="107.244"/>
<line fill="none" stroke="#FF0000" stroke-width="5" stroke-linecap="round" stroke-linejoin="round" stroke-miterlimit="10" x1="7.242" y1="107.244" x2="20.054" y2="107.244"/>
</svg>
