<?xml version="1.0" encoding="utf-8"?>
<!-- Generator: Adobe Illustrator 16.0.0, SVG Export Plug-In . SVG Version: 6.00 Build 0)  -->
<!DOCTYPE svg PUBLIC "-//W3C//DTD SVG 1.1//EN" "http://www.w3.org/Graphics/SVG/1.1/DTD/svg11.dtd">
<svg version="1.1" id="Calque_1" xmlns="http://www.w3.org/2000/svg" xmlns:xlink="http://www.w3.org/1999/xlink" x="0px" y="0px"
	 width="128px" height="128px" viewBox="0 0 128 128" enable-background="new 0 0 128 128" xml:space="preserve">
<g id="Calque_1_1_">
</g>
<path fill="none" stroke="#FF0000" stroke-width="5" stroke-linecap="round" stroke-linejoin="round" stroke-miterlimit="10" d="
	M114.046,9.771H12.852c-4.418,0-8,3.582-8,8v62.575c0,4.418,3.582,8,8,8h25.571v29.309l25.823-29.309h49.8c4.418,0,8-3.582,8-8
	V17.771C122.046,13.353,118.464,9.771,114.046,9.771z"/>
<g>
	<path fill="#FF0000" d="M45.348,64.248c0,0.844-0.308,1.545-0.921,2.102c-0.614,0.558-1.306,0.834-2.073,0.834
		c-0.538,0-1.018-0.135-1.439-0.401L19.667,54.055c-1.036-0.652-1.555-1.535-1.555-2.647c0-0.998,0.519-1.861,1.555-2.593
		l21.248-12.782c0.537-0.23,1.036-0.344,1.497-0.344c0.806,0,1.497,0.258,2.073,0.777c0.576,0.518,0.864,1.18,0.864,1.986
		c0,1.15-0.48,2.014-1.439,2.59L26.577,51.35l17.332,10.363C44.868,62.328,45.348,63.172,45.348,64.248z"/>
	<path fill="#FF0000" d="M68.266,26.934c0.498-0.307,1.037-0.46,1.612-0.46c0.806,0,1.487,0.279,2.044,0.835
		c0.557,0.557,0.835,1.238,0.835,2.044c0,0.423-0.077,0.845-0.229,1.267L55.194,73.979c-0.23,0.576-0.596,1.008-1.094,1.295
		c-0.5,0.289-1.037,0.433-1.612,0.433c-0.806,0-1.497-0.276-2.073-0.834s-0.864-1.238-0.864-2.045c0-0.384,0.096-0.806,0.288-1.267
		l17.333-43.359C67.4,27.664,67.768,27.242,68.266,26.934z"/>
	<path fill="#FF0000" d="M103.852,51.406c0,1.113-0.519,1.996-1.556,2.648L81.049,66.781c-0.423,0.268-0.902,0.402-1.439,0.402
		c-0.769,0-1.459-0.277-2.072-0.834c-0.614-0.558-0.921-1.259-0.921-2.103c0-1.076,0.479-1.92,1.438-2.535L95.387,51.35
		L78.055,41.041c-0.959-0.576-1.438-1.439-1.438-2.59c0-0.807,0.286-1.469,0.862-1.986c0.576-0.52,1.268-0.777,2.073-0.777
		c0.46,0,0.96,0.113,1.497,0.344l21.247,12.782C103.333,49.545,103.852,50.408,103.852,51.406z"/>
</g>
</svg>
