<?xml version="1.0" encoding="utf-8"?>
<!-- Generator: Adobe Illustrator 16.0.0, SVG Export Plug-In . SVG Version: 6.00 Build 0)  -->
<!DOCTYPE svg PUBLIC "-//W3C//DTD SVG 1.1//EN" "http://www.w3.org/Graphics/SVG/1.1/DTD/svg11.dtd">
<svg version="1.1" id="Calque_1" xmlns="http://www.w3.org/2000/svg" xmlns:xlink="http://www.w3.org/1999/xlink" x="0px" y="0px"
	 width="128px" height="128px" viewBox="0 0 128 128" enable-background="new 0 0 128 128" xml:space="preserve">
<g id="Calque_1_1_" xmlns:serif="http://www.serif.com/">
	<g id="path17">
		<path fill="none" stroke="#FF0000" stroke-width="5" stroke-linecap="round" stroke-linejoin="round" stroke-miterlimit="10" d="
			M94.811,54.036c0.041,0.032,0.095,0.076,0.138,0.121l0.021,2.617l0.028,3.365l0.018,2.186l2.086,0.656l1.059,0.333
			c1.41,0.443,2.769,1.001,4.157,1.705c1.573,0.796,1.994,1.01,2.789,1.01c1.317,0,1.555-0.236,4.467-3.134
			c0.664-0.66,1.539-1.531,1.964-1.884h0.038c0.539,0.453,1.728,1.65,3.292,3.229l0.161,0.164c1.681,1.696,2.958,2.984,3.433,3.565
			c-0.364,0.435-1.228,1.301-1.885,1.96l-2.275,2.282l-1.523,1.527l0.963,1.933l0.734,1.474c0.74,1.49,1.25,2.738,1.702,4.176
			l0.333,1.059l0.654,2.087l2.188,0.018l3.366,0.027l2.618,0.022c0.044,0.043,0.087,0.097,0.119,0.139v9.563
			c-0.032,0.042-0.075,0.096-0.119,0.139l-2.623,0.021l-3.37,0.028l-2.208,0.02l-0.641,2.113l-0.238,0.788
			c-0.442,1.464-1.39,3.69-2.204,5.177l-0.337,0.617l-1.082,1.973l1.588,1.593l2.317,2.322c0.92,0.924,1.55,1.59,1.889,1.965
			c-0.458,0.541-1.716,1.804-3.375,3.466l-0.13,0.131c-1.604,1.605-2.825,2.829-3.388,3.299c-0.436-0.365-1.293-1.222-1.946-1.874
			c-2.969-2.957-3.146-3.134-4.456-3.134c-0.771,0-1.098,0.163-2.917,1.064c-1.521,0.755-2.624,1.204-4.071,1.661l-1.028,0.324
			l-2.084,0.656l-0.017,2.185l-0.029,3.366l-0.02,2.617c-0.033,0.032-0.069,0.063-0.102,0.09c-0.558,0.031-2.05,0.035-4.513,0.043
			l-0.937,0.002c-2.248,0-3.693-0.021-4.172-0.039c-0.039-0.018-0.089-0.051-0.124-0.085l-0.022-2.639l-0.027-3.368l-0.019-2.21
			l-2.114-0.641l-0.79-0.24c-1.433-0.432-3.532-1.324-5.108-2.169l-0.708-0.381l-1.966-1.055l-1.577,1.573l-2.323,2.314
			c-0.924,0.919-1.589,1.55-1.964,1.889c-0.573-0.476-1.946-1.852-3.508-3.416l-0.108-0.112c-1.59-1.591-2.802-2.807-3.275-3.37
			c0.37-0.437,1.232-1.303,1.888-1.963l2.277-2.284l1.523-1.529l-0.961-1.932l-0.734-1.472c-0.747-1.5-1.257-2.748-1.705-4.174
			l-0.332-1.059l-0.657-2.088l-2.188-0.018l-3.368-0.026l-2.617-0.021c-0.042-0.042-0.087-0.095-0.121-0.138v-9.564
			c0.031-0.043,0.078-0.096,0.121-0.139l2.62-0.021l3.366-0.027l2.197-0.019l0.65-2.098l0.287-0.924c0.4-1.293,1.18-3.185,1.815-4.4
			l0.662-1.268l1.02-1.947l-1.547-1.562l-2.292-2.313c-0.712-0.716-1.572-1.585-1.92-2.008v-0.032
			c0.451-0.541,1.652-1.73,3.233-3.298l0.161-0.16c1.635-1.619,2.969-2.944,3.564-3.43c0.437,0.367,1.289,1.219,1.94,1.867
			c2.603,2.594,3.145,3.134,4.524,3.134c0.668,0,1.33-0.205,1.88-0.577c0.144-0.078,0.483-0.258,0.983-0.509
			c1.266-0.632,2.694-1.21,4.024-1.628l1.059-0.333l2.084-0.656l0.02-2.186l0.026-3.365l0.022-2.624
			c0.042-0.042,0.089-0.085,0.129-0.114H94.811"/>
	</g>
</g>
<g>
	
		<polyline fill="none" stroke="#FF0000" stroke-width="5" stroke-linecap="round" stroke-linejoin="round" stroke-miterlimit="10" points="
		42.154,84.553 4.659,84.553 4.659,25.324 98.789,25.324 98.789,43.91 	"/>
	
		<polyline fill="none" stroke="#FF0000" stroke-width="5" stroke-linecap="round" stroke-linejoin="round" stroke-miterlimit="10" points="
		4.659,25.324 51.724,62.497 98.789,25.324 	"/>
	
		<line fill="none" stroke="#FF0000" stroke-width="5" stroke-linecap="round" stroke-linejoin="round" stroke-miterlimit="10" x1="42.154" y1="54.939" x2="4.662" y2="84.549"/>
</g>
<polyline fill="none" stroke="#FF0000" stroke-width="5" stroke-linecap="round" stroke-linejoin="round" stroke-miterlimit="10" points="
	78.841,88.59 87.768,102.312 105.098,79.582 "/>
</svg>
