<?xml version="1.0" encoding="utf-8"?>
<!-- Generator: Adobe Illustrator 16.0.0, SVG Export Plug-In . SVG Version: 6.00 Build 0)  -->
<!DOCTYPE svg PUBLIC "-//W3C//DTD SVG 1.1//EN" "http://www.w3.org/Graphics/SVG/1.1/DTD/svg11.dtd">
<svg version="1.1" id="Calque_2" xmlns="http://www.w3.org/2000/svg" xmlns:xlink="http://www.w3.org/1999/xlink" x="0px" y="0px"
	 width="128px" height="128px" viewBox="0 0 128 128" enable-background="new 0 0 128 128" xml:space="preserve">
<path fill="none" stroke="#FF0000" stroke-width="5" stroke-linecap="round" stroke-linejoin="round" stroke-miterlimit="10" d="
	M63.787,29.433c0,0-0.991-16.799,15.035-16.799c16.025,0,35.83,0,35.83,0s7.347,0.21,7.347,8.816c0,8.606,0,78.715,0,78.715
	s0.075,6.19-8.606,6.19c-10.076,0-33.432,0-37.533,0c-4.104,0-11.831,4.011-11.831,15.137c0,0-0.241-15.137-12.349-15.137
	c-10.705,0-38.204,0-38.204,0S5.5,107.243,5.5,97.018c0-11.756,0-78.085,0-78.085s1.679-6.298,7.976-6.298
	c6.298,0,30.785,0,36.525,0C55.741,12.634,63.787,21.273,63.787,29.433z"/>
<line fill="none" stroke="#FF0000" stroke-width="5" stroke-linecap="round" stroke-linejoin="round" stroke-miterlimit="10" x1="63.787" y1="29.433" x2="63.787" y2="115.488"/>
<g>
	<path fill="none" stroke="#FF0000" stroke-width="5" stroke-linecap="round" stroke-linejoin="round" stroke-miterlimit="10" d="
		M109.939,43.162c0-5.448-4.463-9.908-9.91-9.908H85.412c-5.449,0-9.906,4.462-9.906,9.908v5.842c0,5.452,4.458,9.907,9.906,9.907
		h14.617c5.447,0,9.908,4.46,9.908,9.909v5.842c0,5.456-4.461,9.908-9.908,9.908H85.412c-5.449,0-9.906-4.457-9.906-9.908"/>
	
		<line fill="none" stroke="#FF0000" stroke-width="5" stroke-linecap="round" stroke-linejoin="round" stroke-miterlimit="10" x1="92.723" y1="33.254" x2="92.723" y2="23.162"/>
	
		<line fill="none" stroke="#FF0000" stroke-width="5" stroke-linecap="round" stroke-linejoin="round" stroke-miterlimit="10" x1="92.723" y1="94.668" x2="92.723" y2="84.57"/>
</g>
<line fill="none" stroke="#FF0000" stroke-width="5" stroke-linecap="round" stroke-linejoin="round" stroke-miterlimit="10" x1="21.01" y1="38.002" x2="42.9" y2="38.002"/>
<line fill="none" stroke="#FF0000" stroke-width="5" stroke-linecap="round" stroke-linejoin="round" stroke-miterlimit="10" x1="21.01" y1="52.905" x2="42.9" y2="52.905"/>
<line fill="none" stroke="#FF0000" stroke-width="5" stroke-linecap="round" stroke-linejoin="round" stroke-miterlimit="10" x1="21.01" y1="67.809" x2="42.9" y2="67.809"/>
<line fill="none" stroke="#FF0000" stroke-width="5" stroke-linecap="round" stroke-linejoin="round" stroke-miterlimit="10" x1="21.01" y1="82.712" x2="42.9" y2="82.712"/>
</svg>
