<?xml version="1.0" encoding="utf-8"?>
<!-- Generator: Adobe Illustrator 16.0.0, SVG Export Plug-In . SVG Version: 6.00 Build 0)  -->
<!DOCTYPE svg PUBLIC "-//W3C//DTD SVG 1.1//EN" "http://www.w3.org/Graphics/SVG/1.1/DTD/svg11.dtd">
<svg version="1.1" id="Calque_1" xmlns="http://www.w3.org/2000/svg" xmlns:xlink="http://www.w3.org/1999/xlink" x="0px" y="0px"
	 width="128px" height="128px" viewBox="0 0 128 128" enable-background="new 0 0 128 128" xml:space="preserve">
<g id="Calque_1_2_">
	<g id="Calque_1_1_" display="none">
		<g id="Calque_3" display="inline">
			<g>
				<g>
					
						<circle fill="none" stroke="#FF0000" stroke-width="5" stroke-linecap="round" stroke-linejoin="round" stroke-miterlimit="10" cx="64.506" cy="24.244" r="12.596"/>
					
						<polyline fill="none" stroke="#FF0000" stroke-width="5" stroke-linecap="round" stroke-linejoin="round" stroke-miterlimit="10" points="
						78.852,43.791 85.984,46.863 82.417,83.751 73.822,83.751 73.822,125.018 68.609,125.018 					"/>
					
						<polyline fill="none" stroke="#FF0000" stroke-width="5" stroke-linecap="round" stroke-linejoin="round" stroke-miterlimit="10" points="
						50.163,43.791 43.026,46.863 46.594,83.751 55.188,83.751 55.188,125.018 60.401,125.018 					"/>
				</g>
				<g>
					
						<circle fill="none" stroke="#FF0000" stroke-width="5" stroke-linecap="round" stroke-linejoin="round" stroke-miterlimit="10" cx="94.719" cy="17.01" r="12.597"/>
					
						<polyline fill="none" stroke="#FF0000" stroke-width="5" stroke-linecap="round" stroke-linejoin="round" stroke-miterlimit="10" points="
						85.4,92.741 85.4,117.783 90.615,117.783 					"/>
					
						<polyline fill="none" stroke="#FF0000" stroke-width="5" stroke-linecap="round" stroke-linejoin="round" stroke-miterlimit="10" points="
						109.063,36.558 116.197,39.628 112.632,76.52 104.035,76.52 104.035,117.783 98.822,117.783 					"/>
				</g>
				<g>
					
						<circle fill="none" stroke="#FF0000" stroke-width="5" stroke-linecap="round" stroke-linejoin="round" stroke-miterlimit="10" cx="34.292" cy="17.01" r="12.597"/>
					
						<polyline fill="none" stroke="#FF0000" stroke-width="5" stroke-linecap="round" stroke-linejoin="round" stroke-miterlimit="10" points="
						43.609,92.741 43.609,117.783 38.397,117.783 					"/>
					
						<polyline fill="none" stroke="#FF0000" stroke-width="5" stroke-linecap="round" stroke-linejoin="round" stroke-miterlimit="10" points="
						19.949,36.558 12.813,39.628 16.381,76.52 24.976,76.52 24.976,117.783 30.188,117.783 					"/>
				</g>
			</g>
		</g>
		<g id="Calque_2" display="inline">
		</g>
	</g>
	<g id="Calque_4" display="none">
		
			<circle display="inline" fill="none" stroke="#E42320" stroke-width="5" stroke-linecap="round" stroke-linejoin="round" stroke-miterlimit="10" cx="64.035" cy="73.591" r="9.893"/>
		
			<circle display="inline" fill="none" stroke="#E42320" stroke-width="5" stroke-linecap="round" stroke-linejoin="round" stroke-miterlimit="10" cx="25.664" cy="92.796" r="9.892"/>
		
			<circle display="inline" fill="none" stroke="#E42320" stroke-width="5" stroke-linecap="round" stroke-linejoin="round" stroke-miterlimit="10" cx="102.359" cy="92.796" r="9.892"/>
		
			<path display="inline" fill="none" stroke="#E42320" stroke-width="5" stroke-linecap="round" stroke-linejoin="round" stroke-miterlimit="10" d="
			M8.485,122.777v-9.139c0-3.209,2.514-5.813,5.615-5.813h23.319c3.101,0,5.615,2.604,5.615,5.813v9.432"/>
		
			<path display="inline" fill="none" stroke="#E42320" stroke-width="5" stroke-linecap="round" stroke-linejoin="round" stroke-miterlimit="10" d="
			M46.527,103.725v-9.138c0-3.21,2.514-5.812,5.614-5.812h23.32c3.102,0,5.615,2.602,5.615,5.812v9.431"/>
		
			<path display="inline" fill="none" stroke="#E42320" stroke-width="5" stroke-linecap="round" stroke-linejoin="round" stroke-miterlimit="10" d="
			M85.086,123.658v-10.018c0-3.211,2.514-5.813,5.614-5.813h23.319c3.103,0,5.612,2.603,5.612,5.813v10.019"/>
	</g>
	<g id="Calque_3_1_" display="none">
		
			<path display="inline" fill="none" stroke="#E42320" stroke-width="5" stroke-linecap="round" stroke-linejoin="round" stroke-miterlimit="10" d="
			M21.276,78.482c-3.97-7.104-6.232-15.292-6.232-24.007c0-27.223,22.068-49.291,49.291-49.291
			c27.224,0,49.291,22.067,49.291,49.291c0,8.769-2.291,17.005-6.306,24.139"/>
		
			<polyline display="inline" fill="none" stroke="#E42320" stroke-width="5" stroke-linecap="round" stroke-linejoin="round" stroke-miterlimit="10" points="
			48.794,28.674 64.334,54.474 75.762,47.434 		"/>
	</g>
	
		<line fill="none" stroke="#FF0000" stroke-width="5" stroke-linecap="round" stroke-linejoin="round" stroke-miterlimit="10" x1="17.988" y1="61.659" x2="17.988" y2="105.344"/>
	
		<line fill="none" stroke="#FF0000" stroke-width="5" stroke-linecap="round" stroke-linejoin="round" stroke-miterlimit="10" x1="39.156" y1="66.229" x2="39.156" y2="93.598"/>
	
		<line fill="none" stroke="#FF0000" stroke-width="5" stroke-linecap="round" stroke-linejoin="round" stroke-miterlimit="10" x1="89.811" y1="66.229" x2="89.811" y2="93.598"/>
	
		<line fill="none" stroke="#FF0000" stroke-width="5" stroke-linecap="round" stroke-linejoin="round" stroke-miterlimit="10" x1="111.518" y1="61.659" x2="111.518" y2="105.344"/>
	<ellipse fill="none" stroke="#FF0000" stroke-width="5" stroke-miterlimit="10" cx="65.273" cy="51.444" rx="60.849" ry="14.784"/>
</g>
</svg>
