<?xml version="1.0" encoding="utf-8"?>
<!-- Generator: Adobe Illustrator 16.0.0, SVG Export Plug-In . SVG Version: 6.00 Build 0)  -->
<!DOCTYPE svg PUBLIC "-//W3C//DTD SVG 1.1//EN" "http://www.w3.org/Graphics/SVG/1.1/DTD/svg11.dtd">
<svg version="1.1" id="Calque_3" xmlns="http://www.w3.org/2000/svg" xmlns:xlink="http://www.w3.org/1999/xlink" x="0px" y="0px"
	 width="128px" height="128px" viewBox="0 0 128 128" enable-background="new 0 0 128 128" xml:space="preserve">
<path fill="none" stroke="#FF0000" stroke-width="5" stroke-miterlimit="10" d="M54.878,87.283L39.935,72.34L24.628,87.646
	l-8.28-8.283c0,0-2.958-3.355-5.64-1.723c-1.793,1.09-1.71,2.762-1.71,4.09v33.766c0,1.328,1.077,2.406,2.406,2.406h34.212
	c1.329,0,3.982-0.662,4.309-3.063c0.218-1.8-1.263-3.154-1.263-3.154l-9.092-9.094L54.878,87.283z"/>
<path fill="none" stroke="#FF0000" stroke-width="5" stroke-miterlimit="10" d="M73.017,87.283L87.96,72.34l15.307,15.307
	l8.28-8.283c0,0,2.957-3.355,5.641-1.723c1.793,1.09,1.709,2.762,1.709,4.09v33.766c0,1.328-1.076,2.406-2.406,2.406H82.278
	c-1.329,0-3.981-0.662-4.31-3.063c-0.218-1.8,1.264-3.154,1.264-3.154l9.092-9.094L73.017,87.283z"/>
<path fill="none" stroke="#FF0000" stroke-width="5" stroke-miterlimit="10" d="M73.121,40.717l14.944,14.944l15.306-15.307
	l8.281,8.283c0,0,2.957,3.356,5.64,1.724c1.793-1.091,1.71-2.762,1.71-4.091V12.505c0-1.329-1.077-2.407-2.406-2.407H82.383
	c-1.328,0-3.981,0.662-4.309,3.063c-0.219,1.8,1.264,3.155,1.264,3.155l9.092,9.094L73.121,40.717z"/>
<path fill="none" stroke="#FF0000" stroke-width="5" stroke-miterlimit="10" d="M54.983,40.717L40.04,55.661L24.733,40.354
	l-8.281,8.283c0,0-2.957,3.356-5.64,1.724c-1.793-1.091-1.71-2.762-1.71-4.091V12.505c0-1.329,1.078-2.407,2.407-2.407h34.212
	c1.33,0,3.982,0.662,4.309,3.063c0.218,1.8-1.263,3.155-1.263,3.155l-9.092,9.094L54.983,40.717z"/>
</svg>
