<?xml version="1.0" encoding="utf-8"?>
<!-- Generator: Adobe Illustrator 16.0.0, SVG Export Plug-In . SVG Version: 6.00 Build 0)  -->
<!DOCTYPE svg PUBLIC "-//W3C//DTD SVG 1.1//EN" "http://www.w3.org/Graphics/SVG/1.1/DTD/svg11.dtd">
<svg version="1.1" id="Calque_1" xmlns="http://www.w3.org/2000/svg" xmlns:xlink="http://www.w3.org/1999/xlink" x="0px" y="0px"
	 width="22px" height="22px" viewBox="0 0 22 22" enable-background="new 0 0 22 22" xml:space="preserve">
<path fill="#FFFFFF" d="M19.682,2.437H2.279c-0.76,0-1.375,0.616-1.375,1.376v10.76c0,0.759,0.616,1.376,1.375,1.376h4.397v5.039
	l4.44-5.039h8.563c0.76,0,1.375-0.617,1.375-1.376V3.813C21.057,3.053,20.439,2.437,19.682,2.437z M11.863,11.111H4.492
	c-0.237,0-0.43-0.192-0.43-0.43s0.192-0.43,0.43-0.43h7.371c0.237,0,0.43,0.192,0.43,0.43S12.101,11.111,11.863,11.111z
	 M15.578,7.538H4.492c-0.237,0-0.43-0.192-0.43-0.43s0.192-0.43,0.43-0.43h11.086c0.237,0,0.43,0.192,0.43,0.43
	S15.815,7.538,15.578,7.538z"/>
</svg>
