<?xml version="1.0" encoding="utf-8"?>
<!-- Generator: Adobe Illustrator 16.0.0, SVG Export Plug-In . SVG Version: 6.00 Build 0)  -->
<!DOCTYPE svg PUBLIC "-//W3C//DTD SVG 1.1//EN" "http://www.w3.org/Graphics/SVG/1.1/DTD/svg11.dtd">
<svg version="1.1" id="Calque_1" xmlns:serif="http://www.serif.com/"
	 xmlns="http://www.w3.org/2000/svg" xmlns:xlink="http://www.w3.org/1999/xlink" x="0px" y="0px" width="128px" height="128px"
	 viewBox="-53 -53 128 128" enable-background="new -53 -53 128 128" xml:space="preserve">
<path fill="none" stroke="#FF0000" stroke-width="5" stroke-linecap="round" stroke-linejoin="round" stroke-miterlimit="10" d="
	M16.801,64.523h0.478c3.72-0.011,5.973-0.021,6.818-0.063c0.052-0.041,0.104-0.093,0.15-0.134l0.03-3.958l0.047-5.083l0.021-3.302
	l3.147-0.991l1.559-0.49c2.188-0.691,3.854-1.367,6.151-2.513c2.75-1.362,3.24-1.61,4.406-1.61c1.981,0,2.25,0.269,6.729,4.737
	c0.991,0.991,2.286,2.281,2.941,2.833c0.856-0.712,2.694-2.56,5.119-4.984l0.196-0.196c2.508-2.514,4.412-4.417,5.098-5.237
	c-0.505-0.568-1.455-1.569-2.848-2.973l-3.499-3.504l-2.404-2.41l1.636-2.977l0.511-0.935c1.229-2.25,2.662-5.614,3.328-7.822
	l0.361-1.188l0.965-3.199L61.08,18.5l5.093-0.041l3.963-0.036c0.063-0.063,0.135-0.145,0.176-0.207V3.768
	c-0.041-0.067-0.113-0.147-0.176-0.211l-3.952-0.034l-5.088-0.042l-3.308-0.028L56.797,0.3l-0.5-1.6
	c-0.687-2.17-1.456-4.056-2.575-6.308l-1.109-2.227l-1.455-2.921l2.301-2.307l3.438-3.449c1.001-0.996,2.301-2.302,2.848-2.959
	c-0.712-0.88-2.642-2.825-5.181-5.387l-0.247-0.248c-2.364-2.384-4.159-4.195-4.975-4.879h-0.052
	c-0.646,0.534-1.966,1.848-2.973,2.846c-4.396,4.378-4.758,4.737-6.749,4.737c-1.197,0-1.837-0.325-4.211-1.527
	c-2.105-1.065-4.154-1.907-6.285-2.578l-1.6-0.503L24.324-30l-0.031-3.303l-0.031-5.083l-0.03-3.956
	c-0.072-0.067-0.149-0.134-0.212-0.183h-7.219"/>
<path fill="none" stroke="#FF0000" stroke-width="5" stroke-linecap="round" stroke-linejoin="round" stroke-miterlimit="10" d="
	M11.3-0.998h30.662"/>
<path fill="none" stroke="#FF0000" stroke-width="5" stroke-linecap="round" stroke-linejoin="round" stroke-miterlimit="10" d="
	M11.3,11.82h30.662"/>
<path fill="none" stroke="#FF0000" stroke-width="5" stroke-linecap="round" stroke-linejoin="round" stroke-miterlimit="10" d="
	M11.3,24.823h30.662"/>
<path fill="#FF0000" d="M10.593-22.044c0-16.373-13.269-29.645-29.639-29.645c-16.373,0-29.643,13.273-29.643,29.645
	c0,11.519,6.585,21.482,16.188,26.389v9.833l8.403,8.4l-9.042,9.046l7.6,7.6l-6.917,6.916l7.439,7.438l-7.656,7.654l13.231,13.231
	l14.044-14.046V4.264h-0.03C4.085-0.669,10.593-10.588,10.593-22.044z M-19.047-21.824c-5.276,0-9.554-4.277-9.554-9.554
	c0-5.275,4.278-9.553,9.554-9.553s9.553,4.277,9.553,9.553C-9.494-26.101-13.771-21.824-19.047-21.824z"/>
</svg>
