<?xml version="1.0" encoding="utf-8"?>
<!-- Generator: Adobe Illustrator 16.0.0, SVG Export Plug-In . SVG Version: 6.00 Build 0)  -->
<!DOCTYPE svg PUBLIC "-//W3C//DTD SVG 1.1//EN" "http://www.w3.org/Graphics/SVG/1.1/DTD/svg11.dtd">
<svg version="1.1" id="Calque_2" xmlns="http://www.w3.org/2000/svg" xmlns:xlink="http://www.w3.org/1999/xlink" x="0px" y="0px"
	 width="128px" height="128px" viewBox="0 0 128 128" enable-background="new 0 0 128 128" xml:space="preserve">
<path fill="none" stroke="#FF0000" stroke-width="5" stroke-miterlimit="10" d="M123.09,107.68c0,2.438-1.978,4.416-4.416,4.416
	H8.453c-2.438,0-4.415-1.979-4.415-4.416V20.321c0-2.44,1.977-4.416,4.415-4.416h110.221c2.438,0,4.416,1.975,4.416,4.416V107.68z"
	/>
<line fill="none" stroke="#FF0000" stroke-width="5" stroke-miterlimit="10" x1="4.038" y1="38.551" x2="123.09" y2="38.551"/>
<path fill="#FF0000" d="M26.006,27.659c0,2.035-1.649,3.685-3.685,3.685h-0.371c-2.035,0-3.685-1.649-3.685-3.685v-0.371
	c0-2.035,1.649-3.685,3.685-3.685h0.371c2.036,0,3.685,1.649,3.685,3.685V27.659z"/>
<path fill="#FF0000" d="M39.471,27.659c0,2.035-1.649,3.685-3.684,3.685h-0.371c-2.035,0-3.685-1.649-3.685-3.685v-0.371
	c0-2.035,1.649-3.685,3.685-3.685h0.371c2.035,0,3.684,1.649,3.684,3.685V27.659z"/>
<path fill="#FF0000" d="M53.35,27.659c0,2.035-1.649,3.685-3.684,3.685h-0.371c-2.035,0-3.685-1.649-3.685-3.685v-0.371
	c0-2.035,1.649-3.685,3.685-3.685h0.371c2.035,0,3.684,1.649,3.684,3.685V27.659z"/>
<g>
	<path fill="#FF0000" d="M46.348,88.248c0,0.844-0.308,1.545-0.921,2.102c-0.614,0.557-1.306,0.834-2.073,0.834
		c-0.538,0-1.018-0.135-1.439-0.402L20.667,78.055c-1.036-0.652-1.555-1.535-1.555-2.648c0-0.998,0.519-1.861,1.555-2.592
		l21.248-12.783c0.537-0.23,1.036-0.344,1.497-0.344c0.806,0,1.497,0.258,2.073,0.777c0.576,0.518,0.864,1.18,0.864,1.986
		c0,1.15-0.48,2.014-1.439,2.59L27.577,75.35l17.332,10.363C45.868,86.328,46.348,87.172,46.348,88.248z"/>
	<path fill="#FF0000" d="M69.266,50.934c0.498-0.307,1.036-0.46,1.612-0.46c0.806,0,1.487,0.279,2.044,0.835
		c0.556,0.557,0.835,1.238,0.835,2.044c0,0.423-0.077,0.845-0.23,1.267L56.194,97.979c-0.23,0.576-0.596,1.008-1.094,1.295
		c-0.5,0.289-1.037,0.432-1.612,0.432c-0.806,0-1.497-0.277-2.073-0.834c-0.576-0.557-0.864-1.238-0.864-2.045
		c0-0.383,0.096-0.805,0.288-1.266l17.333-43.36C68.401,51.664,68.767,51.242,69.266,50.934z"/>
	<path fill="#FF0000" d="M104.851,75.406c0,1.113-0.518,1.996-1.555,2.648L82.049,90.781c-0.423,0.268-0.902,0.402-1.439,0.402
		c-0.769,0-1.46-0.277-2.073-0.834c-0.614-0.557-0.921-1.258-0.921-2.102c0-1.076,0.479-1.92,1.439-2.535L96.387,75.35
		L79.055,65.041c-0.96-0.576-1.439-1.439-1.439-2.59c0-0.807,0.287-1.469,0.863-1.986c0.576-0.52,1.267-0.777,2.073-0.777
		c0.46,0,0.959,0.113,1.497,0.344l21.247,12.783C104.333,73.545,104.851,74.408,104.851,75.406z"/>
</g>
</svg>
