<?xml version="1.0" encoding="utf-8"?>
<!-- Generator: Adobe Illustrator 16.0.0, SVG Export Plug-In . SVG Version: 6.00 Build 0)  -->
<!DOCTYPE svg PUBLIC "-//W3C//DTD SVG 1.1//EN" "http://www.w3.org/Graphics/SVG/1.1/DTD/svg11.dtd">
<svg version="1.1" id="Calque_1" xmlns="http://www.w3.org/2000/svg" xmlns:xlink="http://www.w3.org/1999/xlink" x="0px" y="0px"
	 width="128px" height="128px" viewBox="0 0 128 128" enable-background="new 0 0 128 128" xml:space="preserve">
<g id="Calque_2" display="none">
</g>
<g>
	<path fill="none" stroke="#FF0000" stroke-width="5" stroke-linecap="round" stroke-linejoin="round" stroke-miterlimit="10" d="
		M58.143,95.139h12.871H118.9c3.314,0,6.031-2.713,6.031-6.029v-9.266"/>
	<path fill="none" stroke="#FF0000" stroke-width="5" stroke-linecap="round" stroke-linejoin="round" stroke-miterlimit="10" d="
		M58.143,75.813h66.789V15.225c0-3.318-2.717-6.031-6.031-6.031H66.5"/>
	<path fill="none" stroke="#FF0000" stroke-width="5" stroke-linecap="round" stroke-linejoin="round" stroke-miterlimit="10" d="
		M71.014,118.807V95.139H58.143"/>
	<path fill="none" stroke="#FF0000" stroke-width="5" stroke-linecap="round" stroke-linejoin="round" stroke-miterlimit="10" d="
		M54.472,118.807h37.657"/>
</g>
<path fill="#FF0000" d="M63.593,30.956c0-16.373-13.269-29.645-29.639-29.645c-16.373,0-29.643,13.273-29.643,29.645
	c0,11.519,6.585,21.482,16.188,26.389v9.833l8.403,8.4l-9.042,9.046l7.6,7.6l-6.917,6.916l7.439,7.438l-7.656,7.654l13.231,13.231
	l14.044-14.046V57.264h-0.03C57.085,52.331,63.593,42.412,63.593,30.956z M33.953,31.176c-5.276,0-9.554-4.277-9.554-9.554
	c0-5.275,4.278-9.553,9.554-9.553s9.553,4.277,9.553,9.553C43.506,26.899,39.229,31.176,33.953,31.176z"/>
</svg>
