<?xml version="1.0" encoding="utf-8"?>
<!-- Generator: Adobe Illustrator 16.0.0, SVG Export Plug-In . SVG Version: 6.00 Build 0)  -->
<!DOCTYPE svg PUBLIC "-//W3C//DTD SVG 1.1//EN" "http://www.w3.org/Graphics/SVG/1.1/DTD/svg11.dtd">
<svg version="1.1" id="Calque_2" xmlns="http://www.w3.org/2000/svg" xmlns:xlink="http://www.w3.org/1999/xlink" x="0px" y="0px"
	 width="128px" height="128px" viewBox="0 0 128 128" enable-background="new 0 0 128 128" xml:space="preserve">
<line fill="none" stroke="#FF0000" stroke-width="5" stroke-linecap="round" stroke-linejoin="round" stroke-miterlimit="10" x1="53.484" y1="45.314" x2="89.582" y2="45.314"/>
<line fill="none" stroke="#FF0000" stroke-width="5" stroke-linecap="round" stroke-linejoin="round" stroke-miterlimit="10" x1="35.626" y1="45.314" x2="39.799" y2="45.314"/>
<line fill="none" stroke="#FF0000" stroke-width="5" stroke-linecap="round" stroke-linejoin="round" stroke-miterlimit="10" x1="35.626" y1="76.109" x2="39.799" y2="76.109"/>
<line fill="none" stroke="#FF0000" stroke-width="5" stroke-linecap="round" stroke-linejoin="round" stroke-miterlimit="10" x1="35.626" y1="106.906" x2="39.799" y2="106.906"/>
<line fill="none" stroke="#FF0000" stroke-width="5" stroke-linecap="round" stroke-linejoin="round" stroke-miterlimit="10" x1="53.484" y1="76.109" x2="89.582" y2="76.109"/>
<line fill="none" stroke="#FF0000" stroke-width="5" stroke-linecap="round" stroke-linejoin="round" stroke-miterlimit="10" x1="53.484" y1="106.906" x2="89.582" y2="106.906"/>
<path fill="none" stroke="#FF0000" stroke-width="5" stroke-miterlimit="10" d="M105.516,122.193c0,1.656-1.343,3-3,3H21.036
	c-1.657,0-3-1.344-3-3V23.5c0-1.657,1.343-3,3-3h81.479c1.656,0,3,1.343,3,3V122.193L105.516,122.193z"/>
<path fill="#FF0000" d="M84.201,5.5H43.799c-1.657,0-3,1.343-3,3v14c0,1.657,1.343,3,3,3h40.402c1.656,0,3-1.343,3-3v-14
	C87.201,6.843,85.857,5.5,84.201,5.5z M64,16.797c-1.877,0-3.398-1.521-3.398-3.398S62.123,10,64,10s3.398,1.521,3.398,3.398
	S65.877,16.797,64,16.797z"/>
</svg>
