<?xml version="1.0" encoding="utf-8"?>
<!-- Generator: Adobe Illustrator 16.0.0, SVG Export Plug-In . SVG Version: 6.00 Build 0)  -->
<!DOCTYPE svg PUBLIC "-//W3C//DTD SVG 1.1//EN" "http://www.w3.org/Graphics/SVG/1.1/DTD/svg11.dtd">
<svg version="1.1" id="Calque_1" xmlns="http://www.w3.org/2000/svg" xmlns:xlink="http://www.w3.org/1999/xlink" x="0px" y="0px"
	 width="128px" height="128px" viewBox="0 0 128 128" enable-background="new 0 0 128 128" xml:space="preserve">
<g>
	<g id="Calque_3">
		
			<line fill="none" stroke="#FF0000" stroke-width="5" stroke-linecap="round" stroke-linejoin="round" stroke-miterlimit="10" x1="2.012" y1="51.321" x2="43.67" y2="51.321"/>
		<path fill="none" stroke="#FF0000" stroke-width="5" stroke-linecap="round" stroke-linejoin="round" stroke-miterlimit="10" d="
			M10.685,51.321c0,0,1.319,20.927,26.574,29.028"/>
		<path fill="none" stroke="#FF0000" stroke-width="5" stroke-linecap="round" stroke-linejoin="round" stroke-miterlimit="10" d="
			M35.376,51.321c0,0-0.189,23.374-32.232,32.044"/>
		
			<line fill="none" stroke="#FF0000" stroke-width="5" stroke-linecap="round" stroke-linejoin="round" stroke-miterlimit="10" x1="22.842" y1="43.217" x2="26.517" y2="51.321"/>
	</g>
	<g>
		<path fill="#FF0000" d="M85.41,59.129c0,1.629-0.287,3.222-0.857,4.776c-0.567,1.556-1.382,2.864-2.443,3.921
			c-1.45,1.434-3.066,2.516-4.85,3.25c-1.783,0.732-4.002,1.1-6.658,1.1h-5.839v11.85H55.38v-36.38h15.441
			c2.313,0,4.263,0.199,5.853,0.599c1.588,0.399,2.992,0.998,4.214,1.796c1.469,0.96,2.588,2.19,3.359,3.688
			C85.021,55.229,85.41,57.028,85.41,59.129z M75.708,59.338c0-1.023-0.278-1.905-0.83-2.644c-0.553-0.74-1.197-1.256-1.932-1.548
			c-0.978-0.39-1.931-0.604-2.859-0.646c-0.929-0.04-2.166-0.062-3.715-0.062H64.76v10.873h2.689c1.595,0,2.912-0.099,3.948-0.292
			c1.029-0.196,1.9-0.587,2.6-1.171c0.602-0.52,1.035-1.142,1.304-1.865C75.575,61.26,75.708,60.378,75.708,59.338z"/>
		<path fill="#FF0000" d="M127.436,65.848c0,5.799-1.66,10.404-4.985,13.82c-3.323,3.412-7.917,5.115-13.778,5.115
			c-5.85,0-10.434-1.703-13.756-5.115c-3.324-3.414-4.986-8.02-4.986-13.82c0-5.847,1.663-10.469,4.986-13.865
			c3.32-3.396,7.906-5.094,13.756-5.094c5.831,0,10.415,1.698,13.757,5.094C125.767,55.379,127.436,60,127.436,65.848z M115,75.061
			c0.909-1.107,1.588-2.416,2.026-3.922c0.441-1.508,0.66-3.278,0.66-5.314c0-2.183-0.253-4.04-0.757-5.571
			c-0.505-1.531-1.165-2.769-1.979-3.717c-0.831-0.978-1.792-1.686-2.87-2.126c-1.085-0.441-2.212-0.658-3.386-0.658
			c-1.191,0-2.311,0.211-3.359,0.635c-1.053,0.425-2.014,1.125-2.897,2.102c-0.816,0.913-1.479,2.172-1.99,3.775
			c-0.515,1.605-0.768,3.466-0.768,5.583c0,2.168,0.243,4.013,0.745,5.535c0.495,1.523,1.15,2.764,1.968,3.727
			c0.814,0.963,1.767,1.67,2.857,2.125c1.092,0.455,2.239,0.686,3.448,0.686c1.204,0,2.352-0.23,3.443-0.697
			C113.229,76.758,114.186,76.039,115,75.061z"/>
	</g>
	<g id="Calque_2">
	</g>
</g>
</svg>
