<?xml version="1.0" encoding="utf-8"?>
<!-- Generator: Adobe Illustrator 16.0.0, SVG Export Plug-In . SVG Version: 6.00 Build 0)  -->
<!DOCTYPE svg PUBLIC "-//W3C//DTD SVG 1.1//EN" "http://www.w3.org/Graphics/SVG/1.1/DTD/svg11.dtd">
<svg version="1.1" id="Calque_1" xmlns="http://www.w3.org/2000/svg" xmlns:xlink="http://www.w3.org/1999/xlink" x="0px" y="0px"
	 width="128px" height="128px" viewBox="0 0 128 128" enable-background="new 0 0 128 128" xml:space="preserve">
<g id="Calque_2" display="none">
</g>
<polyline fill="none" stroke="#FF0000" stroke-width="5" stroke-linecap="round" stroke-linejoin="round" stroke-miterlimit="10" points="
	110.253,27.917 122.436,27.917 122.436,119.268 4.597,119.268 4.597,27.917 16.775,27.917 "/>
<line fill="none" stroke="#FF0000" stroke-width="5" stroke-linecap="round" stroke-linejoin="round" stroke-miterlimit="10" x1="69.936" y1="27.917" x2="97.42" y2="27.917"/>
<line fill="none" stroke="#FF0000" stroke-width="5" stroke-linecap="round" stroke-linejoin="round" stroke-miterlimit="10" x1="29.613" y1="27.917" x2="57.099" y2="27.917"/>
<rect x="43.924" y="61.44" fill="#FF0000" width="13.521" height="13.521"/>
<rect x="70.762" y="61.44" fill="#FF0000" width="13.523" height="13.521"/>
<rect x="97.604" y="61.44" fill="#FF0000" width="13.521" height="13.521"/>
<rect x="17.084" y="88.482" fill="#FF0000" width="13.522" height="13.522"/>
<rect x="43.924" y="88.482" fill="#FF0000" width="13.521" height="13.522"/>
<rect x="70.762" y="88.482" fill="#FF0000" width="13.523" height="13.522"/>
<rect x="97.604" y="88.482" fill="#FF0000" width="13.521" height="13.522"/>
<rect x="16.776" y="17.365" fill="none" stroke="#FF0000" stroke-width="5" stroke-linecap="round" stroke-linejoin="round" stroke-miterlimit="10" width="12.837" height="20.803"/>
<rect x="57.097" y="17.365" fill="none" stroke="#FF0000" stroke-width="5" stroke-linecap="round" stroke-linejoin="round" stroke-miterlimit="10" width="12.836" height="20.803"/>
<rect x="97.42" y="17.365" fill="none" stroke="#FF0000" stroke-width="5" stroke-linecap="round" stroke-linejoin="round" stroke-miterlimit="10" width="12.837" height="20.803"/>
</svg>
