<?xml version="1.0" encoding="utf-8"?>
<!-- Generator: Adobe Illustrator 16.0.0, SVG Export Plug-In . SVG Version: 6.00 Build 0)  -->
<!DOCTYPE svg PUBLIC "-//W3C//DTD SVG 1.1//EN" "http://www.w3.org/Graphics/SVG/1.1/DTD/svg11.dtd">
<svg version="1.1" id="Calque_1" xmlns="http://www.w3.org/2000/svg" xmlns:xlink="http://www.w3.org/1999/xlink" x="0px" y="0px"
	 width="128px" height="128px" viewBox="0 0 128 128" enable-background="new 0 0 128 128" xml:space="preserve">
<g id="Calque_2_2_" display="none">
	
		<line display="inline" fill="none" stroke="#FF0000" stroke-width="11" stroke-miterlimit="10" x1="4.536" y1="26.757" x2="57.662" y2="26.757"/>
	
		<line display="inline" fill="none" stroke="#FF0000" stroke-width="11" stroke-miterlimit="10" x1="57.662" y1="38.391" x2="85.809" y2="38.391"/>
	
		<line display="inline" fill="none" stroke="#FF0000" stroke-width="11" stroke-miterlimit="10" x1="9.136" y1="68.539" x2="36.907" y2="68.539"/>
	
		<line display="inline" fill="none" stroke="#FF0000" stroke-width="11" stroke-miterlimit="10" x1="36.907" y1="81.674" x2="45.117" y2="81.674"/>
	<path display="inline" fill="none" stroke="#FF0000" stroke-width="5" stroke-miterlimit="10" d="M40.352,111.936H10.458
		c-3.316,0-6.004-2.916-6.004-6.51V15.41c0-3.594,2.688-6.507,6.004-6.507h107.083c3.318,0,6.006,2.914,6.006,6.507v41.201"/>
</g>
<g>
	<path fill="#FF0000" d="M97.729,102.902c0,0.395-0.106,0.729-0.313,1.007c-0.213,0.276-0.467,0.415-0.768,0.415h-8.717
		c-0.301,0-0.555-0.145-0.768-0.432c-0.209-0.289-0.313-0.632-0.313-1.025c0-0.385,0.104-0.709,0.313-0.981
		c0.213-0.271,0.467-0.405,0.768-0.405h3.316V84.705h-3.268c-0.299,0-0.554-0.141-0.764-0.415c-0.211-0.276-0.315-0.613-0.315-1.007
		c0-0.397,0.104-0.73,0.315-1.01c0.21-0.275,0.465-0.414,0.764-0.414h5.428v19.621h2.16
		C95.567,101.48,97.729,101.225,97.729,102.902z"/>
</g>
<g>
	<path fill="none" stroke="#FF0000" stroke-width="5" stroke-miterlimit="10" d="M115.08,109.79c0,3.354-2.721,6.076-6.076,6.076
		H75.576c-3.355,0-6.076-2.722-6.076-6.076V76.361c0-3.355,2.721-6.076,6.076-6.076h33.428c3.355,0,6.076,2.721,6.076,6.076V109.79z
		"/>
	<g>
		
			<line fill="none" stroke="#FF0000" stroke-width="5" stroke-linecap="round" stroke-miterlimit="10" x1="79.617" y1="70.285" x2="79.617" y2="61.541"/>
		
			<line fill="none" stroke="#FF0000" stroke-width="5" stroke-linecap="round" stroke-miterlimit="10" x1="92.289" y1="70.285" x2="92.289" y2="61.541"/>
		
			<line fill="none" stroke="#FF0000" stroke-width="5" stroke-linecap="round" stroke-miterlimit="10" x1="104.962" y1="70.285" x2="104.962" y2="61.541"/>
	</g>
	<g>
		
			<line fill="none" stroke="#FF0000" stroke-width="5" stroke-linecap="round" stroke-miterlimit="10" x1="79.617" y1="124.609" x2="79.617" y2="115.866"/>
		
			<line fill="none" stroke="#FF0000" stroke-width="5" stroke-linecap="round" stroke-miterlimit="10" x1="92.289" y1="124.609" x2="92.289" y2="115.866"/>
		
			<line fill="none" stroke="#FF0000" stroke-width="5" stroke-linecap="round" stroke-miterlimit="10" x1="104.962" y1="124.609" x2="104.962" y2="115.866"/>
	</g>
	<g>
		
			<line fill="none" stroke="#FF0000" stroke-width="5" stroke-linecap="round" stroke-miterlimit="10" x1="115.079" y1="80.402" x2="124.824" y2="80.402"/>
		
			<line fill="none" stroke="#FF0000" stroke-width="5" stroke-linecap="round" stroke-miterlimit="10" x1="115.079" y1="93.075" x2="124.824" y2="93.075"/>
		
			<line fill="none" stroke="#FF0000" stroke-width="5" stroke-linecap="round" stroke-miterlimit="10" x1="115.079" y1="105.748" x2="124.824" y2="105.748"/>
	</g>
	<g>
		
			<line fill="none" stroke="#FF0000" stroke-width="5" stroke-linecap="round" stroke-miterlimit="10" x1="59.754" y1="80.402" x2="69.499" y2="80.402"/>
		
			<line fill="none" stroke="#FF0000" stroke-width="5" stroke-linecap="round" stroke-miterlimit="10" x1="59.754" y1="93.075" x2="69.499" y2="93.075"/>
		
			<line fill="none" stroke="#FF0000" stroke-width="5" stroke-linecap="round" stroke-miterlimit="10" x1="59.754" y1="105.748" x2="69.499" y2="105.748"/>
	</g>
</g>
<path id="path29_1_" fill="none" stroke="#FF0000" stroke-width="5" stroke-miterlimit="10" d="M67.868,124.288H14.354
	c-5.954,0-10.781-4.826-10.781-10.781V14.983c0-5.955,4.827-10.781,10.781-10.781h98.525c5.953,0,10.781,4.827,10.781,10.781v49.262
	"/>
<line id="line31" fill="none" stroke="#FF0000" stroke-width="12" stroke-miterlimit="10" x1="12.498" y1="24.584" x2="41.168" y2="24.584"/>
<line id="line33" fill="none" stroke="#FF0000" stroke-width="12" stroke-miterlimit="10" x1="40.292" y1="78.417" x2="53.756" y2="78.417"/>
<line id="line37" fill="none" stroke="#FF0000" stroke-width="12" stroke-miterlimit="10" x1="41.143" y1="51.53" x2="73.934" y2="51.53"/>
<path id="path2790" fill="none" stroke="#FF0000" d="M40.766,18.707l-0.073,65.684"/>
</svg>
