<?xml version="1.0" encoding="utf-8"?>
<!-- Generator: Adobe Illustrator 16.0.0, SVG Export Plug-In . SVG Version: 6.00 Build 0)  -->
<!DOCTYPE svg PUBLIC "-//W3C//DTD SVG 1.1//EN" "http://www.w3.org/Graphics/SVG/1.1/DTD/svg11.dtd">
<svg version="1.1" id="Calque_1" xmlns="http://www.w3.org/2000/svg" xmlns:xlink="http://www.w3.org/1999/xlink" x="0px" y="0px"
	 width="128px" height="128px" viewBox="0 0 128 128" enable-background="new 0 0 128 128" xml:space="preserve">
<path fill="none" stroke="#FF0000" stroke-width="5" stroke-miterlimit="10" d="M122.998,64.455
	c0,32.829-26.612,59.443-59.44,59.443c-32.829,0-59.442-26.614-59.442-59.443c0-32.826,26.613-59.44,59.442-59.44
	C96.386,5.014,122.998,31.629,122.998,64.455z"/>
<path fill="none" stroke="#FF0000" stroke-width="5" stroke-linecap="round" stroke-linejoin="round" stroke-miterlimit="10" d="
	M16.457,64.455c0-26.01,21.088-47.099,47.101-47.099c26.012,0,47.098,21.088,47.098,47.099"/>
<path fill="none" stroke="#FF0000" stroke-width="5" stroke-linecap="round" stroke-linejoin="round" stroke-miterlimit="10" d="
	M70.885,76.691c-7.718,4.112-14.38,2.082-17.283-3.319c-2.903-5.408,0.271-12.723,6.778-16.246
	c6.538-3.542,32.424-4.802,32.424-4.802S78.473,72.656,70.885,76.691z"/>
</svg>
