<?xml version="1.0" encoding="utf-8"?>
<!-- Generator: Adobe Illustrator 16.0.0, SVG Export Plug-In . SVG Version: 6.00 Build 0)  -->
<!DOCTYPE svg PUBLIC "-//W3C//DTD SVG 1.1//EN" "http://www.w3.org/Graphics/SVG/1.1/DTD/svg11.dtd">
<svg version="1.1" id="Calque_1" xmlns="http://www.w3.org/2000/svg" xmlns:xlink="http://www.w3.org/1999/xlink" x="0px" y="0px"
	 width="128px" height="128px" viewBox="0 0 128 128" enable-background="new 0 0 128 128" xml:space="preserve">
<g id="Layer_1" xmlns:svg="http://www.w3.org/2000/svg" xmlns:inkscape="http://www.inkscape.org/namespaces/inkscape" xmlns:rdf="http://www.w3.org/1999/02/22-rdf-syntax-ns#" xmlns:sodipodi="http://sodipodi.sourceforge.net/DTD/sodipodi-0.dtd" xmlns:cc="http://creativecommons.org/ns#" xmlns:dc="http://purl.org/dc/elements/1.1/" inkscape:version="1.0 (4035a4fb49, 2020-05-01)" sodipodi:docname="iconTicketDashboard.svg">
	
		<sodipodi:namedview  objecttolerance="10" inkscape:cy="128" gridtolerance="10" pagecolor="#ffffff" inkscape:zoom="2.8710938" showgrid="false" guidetolerance="10" inkscape:cx="128" borderopacity="1" bordercolor="#666666" id="namedview13" inkscape:window-maximized="1" inkscape:pageopacity="0" inkscape:window-height="1017" inkscape:window-width="1920" inkscape:window-x="-8" inkscape:window-y="-8" inkscape:pageshadow="2" inkscape:current-layer="Layer_1">
		</sodipodi:namedview>
</g>
<line fill="none" stroke="#FF0000" stroke-width="5" stroke-linecap="round" stroke-linejoin="round" stroke-miterlimit="10" x1="81.232" y1="109.79" x2="122.411" y2="93.419"/>
<polyline fill="none" stroke="#FF0000" stroke-width="5" stroke-linecap="round" stroke-linejoin="round" stroke-miterlimit="10" points="
	2.499,8.44 26.426,19.209 59.091,98.268 "/>
<path fill="none" stroke="#FF0000" stroke-width="5" stroke-miterlimit="10" d="M74.291,114.178c0,5.586-4.529,10.108-10.108,10.108
	c-5.583,0-10.109-4.522-10.109-10.108c0-5.578,4.525-10.105,10.109-10.105C69.762,104.07,74.291,108.6,74.291,114.178z"/>
<path fill="#FF0000" d="M68.826,45.663v33.104c0,0-0.629,4.395,4.866,4.395c5.488,0,30.282,0,30.282,0s4.08,0.314,4.08-6.432
	c0-6.75,0-31.066,0-31.066s-0.314-4.864-5.184-4.864c-4.858,0-8.939-2.511-8.939-6.432c0-3.926,5.02-5.806,8.314-5.806
	c0,0,1.938,0.353,1.938-1.082c0-1.426,0-3.217,0-3.217s0.258-0.716-1.995-0.716c-2.244,0-27.816,0-27.816,0
	s-1.586-0.105-1.586,1.173v3.018c0,0-0.104,0.867,2.194,0.867c2.304,0,7.572,1.486,7.572,5.883c0,4.401-4.092,6.291-8.235,6.291
	C70.18,40.774,68.826,44.356,68.826,45.663z"/>
</svg>
