<?xml version="1.0" encoding="utf-8"?>
<!-- Generator: Adobe Illustrator 16.0.0, SVG Export Plug-In . SVG Version: 6.00 Build 0)  -->
<!DOCTYPE svg PUBLIC "-//W3C//DTD SVG 1.1//EN" "http://www.w3.org/Graphics/SVG/1.1/DTD/svg11.dtd">
<svg version="1.1" id="Calque_1" xmlns="http://www.w3.org/2000/svg" xmlns:xlink="http://www.w3.org/1999/xlink" x="0px" y="0px"
	 width="128px" height="128px" viewBox="0 0 128 128" enable-background="new 0 0 128 128" xml:space="preserve">
<g id="Calque_1_1_" display="none">
	<g id="Calque_3" display="inline">
		<g>
			<g>
				
					<circle fill="none" stroke="#FF0000" stroke-width="5" stroke-linecap="round" stroke-linejoin="round" stroke-miterlimit="10" cx="64.506" cy="24.244" r="12.596"/>
				
					<polyline fill="none" stroke="#FF0000" stroke-width="5" stroke-linecap="round" stroke-linejoin="round" stroke-miterlimit="10" points="
					78.852,43.791 85.984,46.863 82.417,83.751 73.822,83.751 73.822,125.018 68.609,125.018 				"/>
				
					<polyline fill="none" stroke="#FF0000" stroke-width="5" stroke-linecap="round" stroke-linejoin="round" stroke-miterlimit="10" points="
					50.163,43.791 43.026,46.863 46.594,83.751 55.188,83.751 55.188,125.018 60.401,125.018 				"/>
			</g>
			<g>
				
					<circle fill="none" stroke="#FF0000" stroke-width="5" stroke-linecap="round" stroke-linejoin="round" stroke-miterlimit="10" cx="94.719" cy="17.01" r="12.597"/>
				
					<polyline fill="none" stroke="#FF0000" stroke-width="5" stroke-linecap="round" stroke-linejoin="round" stroke-miterlimit="10" points="
					85.4,92.741 85.4,117.783 90.615,117.783 				"/>
				
					<polyline fill="none" stroke="#FF0000" stroke-width="5" stroke-linecap="round" stroke-linejoin="round" stroke-miterlimit="10" points="
					109.063,36.558 116.197,39.628 112.632,76.52 104.035,76.52 104.035,117.783 98.822,117.783 				"/>
			</g>
			<g>
				
					<circle fill="none" stroke="#FF0000" stroke-width="5" stroke-linecap="round" stroke-linejoin="round" stroke-miterlimit="10" cx="34.292" cy="17.01" r="12.597"/>
				
					<polyline fill="none" stroke="#FF0000" stroke-width="5" stroke-linecap="round" stroke-linejoin="round" stroke-miterlimit="10" points="
					43.609,92.741 43.609,117.783 38.397,117.783 				"/>
				
					<polyline fill="none" stroke="#FF0000" stroke-width="5" stroke-linecap="round" stroke-linejoin="round" stroke-miterlimit="10" points="
					19.949,36.558 12.813,39.628 16.381,76.52 24.976,76.52 24.976,117.783 30.188,117.783 				"/>
			</g>
		</g>
	</g>
	<g id="Calque_2" display="inline">
	</g>
</g>
<g id="Calque_4" display="none">
	
		<circle display="inline" fill="none" stroke="#E42320" stroke-width="5" stroke-linecap="round" stroke-linejoin="round" stroke-miterlimit="10" cx="64.035" cy="73.591" r="9.893"/>
	
		<circle display="inline" fill="none" stroke="#E42320" stroke-width="5" stroke-linecap="round" stroke-linejoin="round" stroke-miterlimit="10" cx="25.664" cy="92.796" r="9.892"/>
	
		<circle display="inline" fill="none" stroke="#E42320" stroke-width="5" stroke-linecap="round" stroke-linejoin="round" stroke-miterlimit="10" cx="102.359" cy="92.796" r="9.892"/>
	
		<path display="inline" fill="none" stroke="#E42320" stroke-width="5" stroke-linecap="round" stroke-linejoin="round" stroke-miterlimit="10" d="
		M8.485,122.777v-9.139c0-3.209,2.514-5.813,5.615-5.813h23.319c3.101,0,5.615,2.604,5.615,5.813v9.432"/>
	
		<path display="inline" fill="none" stroke="#E42320" stroke-width="5" stroke-linecap="round" stroke-linejoin="round" stroke-miterlimit="10" d="
		M46.527,103.725v-9.138c0-3.21,2.514-5.812,5.614-5.812h23.32c3.102,0,5.615,2.602,5.615,5.812v9.431"/>
	
		<path display="inline" fill="none" stroke="#E42320" stroke-width="5" stroke-linecap="round" stroke-linejoin="round" stroke-miterlimit="10" d="
		M85.086,123.658v-10.018c0-3.211,2.514-5.813,5.614-5.813h23.319c3.103,0,5.612,2.603,5.612,5.813v10.019"/>
</g>
<polyline fill="none" stroke="#FF0000" stroke-width="5" stroke-linecap="round" stroke-linejoin="round" stroke-miterlimit="10" points="
	49.368,21.264 64.248,45.97 75.191,39.23 "/>
<g id="Calque_1_2_">
	<g id="Calque_1_3_" display="none">
		<g id="Calque_3_2_" display="inline">
			<g>
				<g>
					
						<circle fill="none" stroke="#FF0000" stroke-width="5" stroke-linecap="round" stroke-linejoin="round" stroke-miterlimit="10" cx="63.233" cy="46.701" r="12.596"/>
					
						<polyline fill="none" stroke="#FF0000" stroke-width="5" stroke-linecap="round" stroke-linejoin="round" stroke-miterlimit="10" points="
						77.578,66.248 84.711,69.32 81.145,106.208 72.549,106.208 72.549,147.475 67.336,147.475 					"/>
					
						<polyline fill="none" stroke="#FF0000" stroke-width="5" stroke-linecap="round" stroke-linejoin="round" stroke-miterlimit="10" points="
						48.89,66.248 41.753,69.32 45.321,106.208 53.915,106.208 53.915,147.475 59.128,147.475 					"/>
				</g>
				<g>
					
						<circle fill="none" stroke="#FF0000" stroke-width="5" stroke-linecap="round" stroke-linejoin="round" stroke-miterlimit="10" cx="93.445" cy="39.467" r="12.597"/>
					
						<polyline fill="none" stroke="#FF0000" stroke-width="5" stroke-linecap="round" stroke-linejoin="round" stroke-miterlimit="10" points="
						84.127,115.198 84.127,140.24 89.342,140.24 					"/>
					
						<polyline fill="none" stroke="#FF0000" stroke-width="5" stroke-linecap="round" stroke-linejoin="round" stroke-miterlimit="10" points="
						107.789,59.015 114.924,62.085 111.359,98.977 102.762,98.977 102.762,140.24 97.549,140.24 					"/>
				</g>
				<g>
					
						<circle fill="none" stroke="#FF0000" stroke-width="5" stroke-linecap="round" stroke-linejoin="round" stroke-miterlimit="10" cx="33.019" cy="39.467" r="12.597"/>
					
						<polyline fill="none" stroke="#FF0000" stroke-width="5" stroke-linecap="round" stroke-linejoin="round" stroke-miterlimit="10" points="
						42.336,115.198 42.336,140.24 37.124,140.24 					"/>
					
						<polyline fill="none" stroke="#FF0000" stroke-width="5" stroke-linecap="round" stroke-linejoin="round" stroke-miterlimit="10" points="
						18.676,59.015 11.54,62.085 15.108,98.977 23.703,98.977 23.703,140.24 28.915,140.24 					"/>
				</g>
			</g>
		</g>
		<g id="Calque_2_1_" display="inline">
		</g>
	</g>
	<g id="Calque_4_1_" display="none">
		
			<circle display="inline" fill="none" stroke="#E42320" stroke-width="5" stroke-linecap="round" stroke-linejoin="round" stroke-miterlimit="10" cx="62.762" cy="96.048" r="9.893"/>
		
			<circle display="inline" fill="none" stroke="#E42320" stroke-width="5" stroke-linecap="round" stroke-linejoin="round" stroke-miterlimit="10" cx="24.391" cy="115.253" r="9.892"/>
		
			<circle display="inline" fill="none" stroke="#E42320" stroke-width="5" stroke-linecap="round" stroke-linejoin="round" stroke-miterlimit="10" cx="101.086" cy="115.253" r="9.892"/>
		
			<path display="inline" fill="none" stroke="#E42320" stroke-width="5" stroke-linecap="round" stroke-linejoin="round" stroke-miterlimit="10" d="
			M7.212,145.234v-9.139c0-3.209,2.514-5.813,5.615-5.813h23.319c3.101,0,5.615,2.604,5.615,5.813v9.432"/>
		
			<path display="inline" fill="none" stroke="#E42320" stroke-width="5" stroke-linecap="round" stroke-linejoin="round" stroke-miterlimit="10" d="
			M45.254,126.182v-9.138c0-3.21,2.514-5.812,5.614-5.812h23.319c3.102,0,5.615,2.602,5.615,5.812v9.431"/>
		
			<path display="inline" fill="none" stroke="#E42320" stroke-width="5" stroke-linecap="round" stroke-linejoin="round" stroke-miterlimit="10" d="
			M83.813,146.115v-10.018c0-3.211,2.514-5.813,5.615-5.813h23.318c3.104,0,5.613,2.603,5.613,5.813v10.019"/>
	</g>
	<g id="Calque_3_1_" display="none">
		
			<path display="inline" fill="none" stroke="#E42320" stroke-width="5" stroke-linecap="round" stroke-linejoin="round" stroke-miterlimit="10" d="
			M20.003,100.939c-3.97-7.104-6.232-15.293-6.232-24.008c0-27.223,22.068-49.291,49.291-49.291s49.292,22.067,49.292,49.291
			c0,8.77-2.291,17.006-6.307,24.14"/>
		
			<polyline display="inline" fill="none" stroke="#E42320" stroke-width="5" stroke-linecap="round" stroke-linejoin="round" stroke-miterlimit="10" points="
			47.521,51.131 63.061,76.932 74.488,69.891 		"/>
	</g>
	
		<line fill="none" stroke="#FF0000" stroke-width="5" stroke-linecap="round" stroke-linejoin="round" stroke-miterlimit="10" x1="16.715" y1="84.116" x2="16.715" y2="124.801"/>
	
		<line fill="none" stroke="#FF0000" stroke-width="5" stroke-linecap="round" stroke-linejoin="round" stroke-miterlimit="10" x1="37.883" y1="88.686" x2="37.883" y2="116.055"/>
	
		<line fill="none" stroke="#FF0000" stroke-width="5" stroke-linecap="round" stroke-linejoin="round" stroke-miterlimit="10" x1="88.537" y1="88.686" x2="88.537" y2="116.055"/>
	
		<line fill="none" stroke="#FF0000" stroke-width="5" stroke-linecap="round" stroke-linejoin="round" stroke-miterlimit="10" x1="110.244" y1="84.116" x2="110.244" y2="124.801"/>
	<path fill="none" stroke="#FF0000" stroke-width="5" stroke-miterlimit="10" d="M92.525,60.839
		c19.23,2.484,32.324,7.401,32.324,13.062c0,8.166-27.244,14.785-60.849,14.785c-33.606,0-60.85-6.619-60.85-14.785
		c0-5.66,13.093-10.577,32.323-13.062"/>
</g>
<circle fill="none" stroke="#FF0000" stroke-width="5" stroke-linecap="round" stroke-linejoin="round" stroke-miterlimit="10" cx="64" cy="39.303" r="35.746"/>
</svg>
