<?xml version="1.0" encoding="utf-8"?>
<!-- Generator: Adobe Illustrator 16.0.0, SVG Export Plug-In . SVG Version: 6.00 Build 0)  -->
<!DOCTYPE svg PUBLIC "-//W3C//DTD SVG 1.1//EN" "http://www.w3.org/Graphics/SVG/1.1/DTD/svg11.dtd">
<svg version="1.1"
	 id="svg13" xmlns:svg="http://www.w3.org/2000/svg" xmlns:dc="http://purl.org/dc/elements/1.1/" xmlns:sodipodi="http://sodipodi.sourceforge.net/DTD/sodipodi-0.dtd" xmlns:cc="http://creativecommons.org/ns#" xmlns:inkscape="http://www.inkscape.org/namespaces/inkscape" xmlns:rdf="http://www.w3.org/1999/02/22-rdf-syntax-ns#" sodipodi:docname="iconImputation.svg" inkscape:version="1.0.1 (3bc2e813f5, 2020-09-07)"
	 xmlns="http://www.w3.org/2000/svg" xmlns:xlink="http://www.w3.org/1999/xlink" x="0px" y="0px" width="128px" height="128px"
	 viewBox="-40 -40 128 128" enable-background="new -40 -40 128 128" xml:space="preserve">
<sodipodi:namedview  inkscape:cx="24" id="namedview15" showgrid="false" pagecolor="#ffffff" objecttolerance="10" bordercolor="#666666" gridtolerance="10" inkscape:zoom="15.3125" inkscape:cy="24" guidetolerance="10" borderopacity="1" inkscape:window-maximized="1" inkscape:window-y="-8" inkscape:pageopacity="0" inkscape:window-x="-8" inkscape:window-height="1017" inkscape:window-width="1920" inkscape:current-layer="svg13" inkscape:pageshadow="2">
	</sodipodi:namedview>
<path id="path8" fill="#FE0000" d="M21.488,3.272V37.55h34.277C55.766,18.62,40.416,3.272,21.488,3.272z"/>
<path fill="none" stroke="#FF0000" stroke-width="5" stroke-linejoin="round" stroke-miterlimit="10" d="M69.725,0.006l-8.504-7.949
	c-0.744-0.717-1.929-0.697-2.646,0.047l-6.491,7.039c-6.592-5.23-12.608-8.741-21.377-9.853v-10.506h4.913
	c2.584,0,4.679-2.096,4.679-4.679v-4.913c0-2.584-2.095-4.679-4.679-4.679H9.862c-2.583,0-4.678,2.096-4.678,4.679v4.913
	c0,2.584,2.095,4.679,4.678,4.679h4.914v10.497c-23.32,2.918-39.367,22.801-39.367,46.911c0,26.121,21.174,47.295,47.295,47.295
	c26.12,0,47.295-21.174,47.295-47.295c0-10.854-1.772-18.312-7.921-26.29l6.691-7.25C69.489,1.909,70.467,0.724,69.725,0.006z"/>
</svg>
