<?xml version="1.0" encoding="utf-8"?>
<!-- Generator: Adobe Illustrator 16.0.0, SVG Export Plug-In . SVG Version: 6.00 Build 0)  -->
<!DOCTYPE svg PUBLIC "-//W3C//DTD SVG 1.1//EN" "http://www.w3.org/Graphics/SVG/1.1/DTD/svg11.dtd">
<svg version="1.1" id="Calque_1" xmlns="http://www.w3.org/2000/svg" xmlns:xlink="http://www.w3.org/1999/xlink" x="0px" y="0px"
	 width="128px" height="128px" viewBox="0 0 128 128" enable-background="new 0 0 128 128" xml:space="preserve">
<path fill="#FF0000" d="M67.275,1.76H5.026c-1.657,0-3,1.344-3,3v62.25c0,1.657,1.343,3,3,3h62.25c1.658,0,3-1.343,3-3V4.76
	C70.275,3.104,68.934,1.76,67.275,1.76z M17.256,55.332c-2.768,0-5.012-2.242-5.012-5.01s2.244-5.01,5.012-5.01
	c2.766,0,5.01,2.242,5.01,5.01S20.021,55.332,17.256,55.332z M17.256,40.095c-2.768,0-5.012-2.243-5.012-5.01
	c0-2.768,2.244-5.011,5.012-5.011c2.766,0,5.01,2.243,5.01,5.011C22.266,37.852,20.021,40.095,17.256,40.095z M17.256,24.857
	c-2.768,0-5.012-2.244-5.012-5.01c0-2.768,2.244-5.012,5.012-5.012c2.766,0,5.01,2.244,5.01,5.012
	C22.266,22.613,20.021,24.857,17.256,24.857z M55.883,54.48H32.154c-2.305,0-4.174-1.87-4.174-4.176s1.869-4.176,4.174-4.176h23.729
	c2.305,0,4.174,1.87,4.174,4.176S58.188,54.48,55.883,54.48z M55.883,39.242H32.154c-2.305,0-4.174-1.869-4.174-4.176
	c0-2.305,1.869-4.175,4.174-4.175h23.729c2.305,0,4.174,1.87,4.174,4.175C60.057,37.373,58.188,39.242,55.883,39.242z
	 M55.883,24.004H32.154c-2.305,0-4.174-1.869-4.174-4.175s1.869-4.175,4.174-4.175h23.729c2.305,0,4.174,1.869,4.174,4.175
	S58.188,24.004,55.883,24.004z"/>
<g id="svg7" xmlns:svg="http://www.w3.org/2000/svg" xmlns:inkscape="http://www.inkscape.org/namespaces/inkscape" xmlns:rdf="http://www.w3.org/1999/02/22-rdf-syntax-ns#" xmlns:sodipodi="http://sodipodi.sourceforge.net/DTD/sodipodi-0.dtd" xmlns:cc="http://creativecommons.org/ns#" xmlns:dc="http://purl.org/dc/elements/1.1/" inkscape:version="1.0 (4035a4fb49, 2020-05-01)" sodipodi:docname="iconOrganization.svg">
	<g>
		<g>
			<g>
				
					<path fill="#FF0000" stroke="#FF0000" stroke-width="5" stroke-linecap="round" stroke-linejoin="round" stroke-miterlimit="10" d="
					M90.701,106.656v11.98l-5.228,5.13c0,0-3.367,3.047-10.011,3.047s-10.01-3.047-10.01-3.047l-5.23-5.13v-11.98H90.701z"/>
				
					<path fill="none" stroke="#FF0000" stroke-width="5" stroke-linecap="round" stroke-linejoin="round" stroke-miterlimit="10" d="
					M75.463,41.914c15.88,0.013,28.751,12.894,28.751,28.779c0,0,1.399,8.587-9.971,21.262c-2.983,3.541-3.304,10.289-3.542,11.349
					c-0.225,1.003,0,3.351,0,3.351l-30.478,0.002l0,0c0,0,0.225-2.35,0-3.353c-0.24-1.06-0.561-7.805-3.543-11.347
					c-11.369-12.677-9.972-17.672-9.972-17.672"/>
			</g>
		</g>
		
			<line fill="none" stroke="#FF0000" stroke-width="5" stroke-linecap="round" stroke-linejoin="round" stroke-miterlimit="10" x1="76.567" y1="20.2" x2="76.567" y2="33.061"/>
		
			<line fill="none" stroke="#FF0000" stroke-width="5" stroke-linecap="round" stroke-linejoin="round" stroke-miterlimit="10" x1="111.665" y1="35.015" x2="102.568" y2="44.11"/>
		
			<line fill="none" stroke="#FF0000" stroke-width="5" stroke-linecap="round" stroke-linejoin="round" stroke-miterlimit="10" x1="126.005" y1="70.31" x2="113.144" y2="70.31"/>
		
			<line fill="none" stroke="#FF0000" stroke-width="5" stroke-linecap="round" stroke-linejoin="round" stroke-miterlimit="10" x1="111.191" y1="105.405" x2="102.095" y2="96.31"/>
		
			<line fill="none" stroke="#FF0000" stroke-width="5" stroke-linecap="round" stroke-linejoin="round" stroke-miterlimit="10" x1="40.8" y1="104.93" x2="49.895" y2="95.836"/>
	</g>
</g>
</svg>
