<?xml version="1.0" encoding="utf-8"?>
<!-- Generator: Adobe Illustrator 16.0.0, SVG Export Plug-In . SVG Version: 6.00 Build 0)  -->
<!DOCTYPE svg PUBLIC "-//W3C//DTD SVG 1.1//EN" "http://www.w3.org/Graphics/SVG/1.1/DTD/svg11.dtd">
<svg version="1.1" id="Calque_1" xmlns="http://www.w3.org/2000/svg" xmlns:xlink="http://www.w3.org/1999/xlink" x="0px" y="0px"
	 width="128px" height="128px" viewBox="0 0 128 128" enable-background="new 0 0 128 128" xml:space="preserve">
<g id="Calque_3" display="none">
	<g id="Icones" display="inline">
		<g id="Artboard" transform="translate(-1260.000000, -550.000000)">
			<g id="icone-signature-du-contrat-franchise" transform="translate(1249.000000, 539.000000)">
				<g id="Rectangle">
				</g>
				<defs>
					<filter id="Adobe_OpacityMaskFilter" filterUnits="userSpaceOnUse" x="17.792" y="14.53" width="118.208" height="120.625">
						<feColorMatrix  type="matrix" values="1 0 0 0 0  0 1 0 0 0  0 0 1 0 0  0 0 0 1 0"/>
					</filter>
				</defs>
				<mask maskUnits="userSpaceOnUse" x="17.792" y="14.53" width="118.208" height="120.625" id="mask-2_1_">
					<g filter="url(#Adobe_OpacityMaskFilter)">
						<rect id="path-1_1_" x="10.359" y="6.755" fill="#FFFFFF" width="135.157" height="135.158"/>
					</g>
				</mask>
				<g id="Group-16" mask="url(#mask-2_1_)">
					<g transform="translate(11.000000, 11.000000)">
						<path id="Fill-1" fill="#FF0000" d="M32.528,22.787c-0.777,0-1.407,0.605-1.407,1.352c0,0.744,0.63,1.352,1.407,1.352h47.193
							c0.775,0,1.407-0.608,1.407-1.352c0-0.746-0.632-1.352-1.407-1.352H32.528z"/>
						<path id="Fill-3" fill="#FF0000" d="M20.978,22.787h-0.664c-0.747,0-1.357,0.605-1.357,1.352c0,0.744,0.61,1.352,1.357,1.352
							h0.664c0.75,0,1.357-0.608,1.357-1.352C22.335,23.393,21.728,22.787,20.978,22.787"/>
						<path id="Fill-5" fill="#FF0000" d="M79.047,36.303c0.775,0,1.406-0.604,1.406-1.352c0-0.744-0.631-1.352-1.406-1.352H20.363
							c-0.774,0-1.406,0.607-1.406,1.352c0,0.746,0.632,1.352,1.406,1.352H79.047z"/>
						<path id="Fill-7" fill="#FF0000" d="M79.047,47.115c0.775,0,1.406-0.607,1.406-1.352c0-0.746-0.631-1.352-1.406-1.352H20.363
							c-0.774,0-1.406,0.605-1.406,1.352c0,0.744,0.632,1.352,1.406,1.352H79.047z"/>
						<path id="Fill-9" fill="#FF0000" d="M48.586,58.604c0.803,0,1.457-0.606,1.457-1.352c0-0.745-0.654-1.352-1.457-1.352h-1.141
							c-0.803,0-1.457,0.607-1.457,1.352c0,0.746,0.654,1.352,1.457,1.352H48.586z"/>
						<path id="Fill-11" fill="#FF0000" d="M37.81,58.604c0.784,0,1.42-0.606,1.42-1.352c0-0.745-0.636-1.352-1.42-1.352H20.379
							c-0.784,0-1.423,0.607-1.423,1.352c0,0.746,0.639,1.352,1.423,1.352H37.81z"/>
						<g id="Group-15">
							<g id="Clip-14">
							</g>
							<defs>
								
									<filter id="Adobe_OpacityMaskFilter_1_" filterUnits="userSpaceOnUse" x="6.792" y="3.53" width="118.208" height="120.625">
									<feColorMatrix  type="matrix" values="1 0 0 0 0  0 1 0 0 0  0 0 1 0 0  0 0 0 1 0"/>
								</filter>
							</defs>
							<mask maskUnits="userSpaceOnUse" x="6.792" y="3.53" width="118.208" height="120.625" id="mask-4_1_">
								<g filter="url(#Adobe_OpacityMaskFilter_1_)">
									<polygon id="path-3_1_" fill="#FFFFFF" points="6.792,3.53 124.999,3.53 124.999,124.154 6.792,124.154 									"/>
								</g>
							</mask>
							<path id="Fill-13" mask="url(#mask-4_1_)" fill="#FF0000" d="M99.139,29.468l11.826,6.835L74.639,99.3l-11.828-6.835
								L99.139,29.468z M105.314,18.76l11.826,6.838l-4.771,8.272l-11.829-6.836L105.314,18.76z M109.445,11.595
								c1.885-3.262,6.068-4.383,9.328-2.502c1.582,0.914,2.711,2.388,3.182,4.152c0.473,1.763,0.23,3.606-0.682,5.188l-2.729,4.73
								l-11.827-6.835L109.445,11.595z M62.158,95.334l10.324,5.968l-11.125,7.354L62.158,95.334z M90.563,121.346H30.73v-19.752
								c0-0.773-0.629-1.404-1.403-1.404H9.601V6.34h80.959v32.378l-9.465,16.413H58.459c-0.773,0-1.403,0.632-1.403,1.405
								c0,0.776,0.63,1.407,1.403,1.407h21.018l-4.718,8.177H20.796c-0.774,0-1.403,0.632-1.403,1.407
								c0,0.771,0.629,1.404,1.403,1.404h52.343l-4.716,8.18H20.796c-0.774,0-1.403,0.631-1.403,1.402
								c0,0.776,0.629,1.406,1.403,1.406h46.007l-7.125,12.354c-0.106,0.186-0.168,0.389-0.181,0.605L58.39,111.29
								c-0.034,0.533,0.235,1.03,0.697,1.3c0.168,0.1,0.357,0.158,0.564,0.18c0.489,0.004,12.27,0.01,20.053,0.013
								c0.774,0,1.403-0.632,1.403-1.406c0-0.772-0.629-1.405-1.403-1.405H64.467l11.465-7.582c0.178-0.121,0.332-0.283,0.438-0.466
								l14.192-24.612V121.346L90.563,121.346z M27.923,119.357L11.585,103h16.338V119.357z M8.195,3.53
								c-0.772,0-1.403,0.631-1.403,1.405v96.659c0,0.371,0.152,0.732,0.412,0.996l21.129,21.153
								c0.265,0.266,0.619,0.411,0.994,0.411h62.64c0.771,0,1.402-0.629,1.402-1.404V72.439l30.334-52.604
								c1.288-2.231,1.631-4.831,0.965-7.321c-0.666-2.488-2.262-4.568-4.488-5.858c-4.604-2.661-10.51-1.076-13.164,3.532
								L93.369,33.851V4.935c0-0.774-0.631-1.405-1.402-1.405H8.195z"/>
						</g>
					</g>
				</g>
			</g>
		</g>
	</g>
</g>
<g>
	<g id="Calque_3_3_">
		
			<line id="line77" fill="none" stroke="#FF0000" stroke-width="5" stroke-miterlimit="10" x1="92.281" y1="78.646" x2="73.865" y2="71.367"/>
	</g>
	<path id="path82" fill="none" stroke="#FF0000" stroke-width="5" stroke-miterlimit="10" d="M111.883,29.051L93.469,21.77
		l3.046-7.706c1.001-2.543,3.384-3.983,5.345-3.207l11.325,4.48c1.962,0.775,2.74,3.462,1.738,6.006L111.883,29.051z"/>
	
		<polyline id="polyline84" fill="none" stroke="#FF0000" stroke-width="5" stroke-linecap="round" stroke-linejoin="round" stroke-miterlimit="10" points="
		71.558,77.205 73.459,99.02 89.854,84.783 111.933,28.926 93.517,21.647 71.558,77.205 	"/>
</g>
<path fill="#FF0000" d="M66.25,1H4C2.343,1,1,2.343,1,4v62.25c0,1.656,1.343,3,3,3h62.25c1.656,0,3-1.344,3-3V4
	C69.25,2.343,67.906,1,66.25,1z M16.229,54.572c-2.768,0-5.011-2.242-5.011-5.01c0-2.77,2.243-5.012,5.011-5.012
	c2.767,0,5.01,2.242,5.01,5.012C21.239,52.33,18.996,54.572,16.229,54.572z M16.229,39.334c-2.768,0-5.011-2.242-5.011-5.009
	c0-2.768,2.243-5.011,5.011-5.011c2.767,0,5.01,2.243,5.01,5.011C21.239,37.09,18.996,39.334,16.229,39.334z M16.229,24.097
	c-2.768,0-5.011-2.244-5.011-5.01c0-2.768,2.243-5.012,5.011-5.012c2.767,0,5.01,2.244,5.01,5.012
	C21.239,21.853,18.996,24.097,16.229,24.097z M54.855,53.721H31.129c-2.305,0-4.174-1.871-4.174-4.178
	c0-2.305,1.869-4.176,4.174-4.176h23.726c2.307,0,4.175,1.871,4.175,4.176C59.031,51.85,57.162,53.721,54.855,53.721z
	 M54.855,38.482H31.129c-2.305,0-4.174-1.869-4.174-4.176c0-2.305,1.869-4.175,4.174-4.175h23.726c2.307,0,4.175,1.87,4.175,4.175
	C59.031,36.613,57.162,38.482,54.855,38.482z M54.855,23.244H31.129c-2.305,0-4.174-1.869-4.174-4.175
	c0-2.306,1.869-4.175,4.174-4.175h23.726c2.307,0,4.175,1.869,4.175,4.175C59.031,21.375,57.162,23.244,54.855,23.244z"/>
<polyline fill="none" stroke="#FF0000" stroke-width="5" stroke-linecap="round" stroke-linejoin="round" stroke-miterlimit="10" points="
	124.656,47.028 112.973,53.071 98.231,95.306 "/>
<line fill="none" stroke="#FF0000" stroke-width="5" stroke-linecap="round" stroke-linejoin="round" stroke-miterlimit="10" x1="48.798" y1="104.86" x2="80.221" y2="115.827"/>
<circle fill="none" stroke="#FF0000" stroke-width="5" stroke-miterlimit="10" cx="98.215" cy="113.965" r="12.421"/>
</svg>
