<?xml version="1.0" encoding="utf-8"?>
<!-- Generator: Adobe Illustrator 16.0.0, SVG Export Plug-In . SVG Version: 6.00 Build 0)  -->
<!DOCTYPE svg PUBLIC "-//W3C//DTD SVG 1.1//EN" "http://www.w3.org/Graphics/SVG/1.1/DTD/svg11.dtd">
<svg version="1.1" xmlns="http://www.w3.org/2000/svg" xmlns:xlink="http://www.w3.org/1999/xlink" x="0px" y="0px" width="128px"
	 height="128px" viewBox="0 0 128 128" enable-background="new 0 0 128 128" xml:space="preserve">
<g id="Calque_2">
	<path fill="none" stroke="#FF0000" stroke-width="5" stroke-linecap="round" stroke-linejoin="round" stroke-miterlimit="10" d="
		M92.831,101.18c0,3.92-3.17,7.092-7.09,7.092c-0.62,0-1.22-0.08-1.79-0.229c0,0-0.93-0.341-2.521-0.819
		c-0.959-0.291-2.17-0.632-3.56-0.961v18.239h46.63V77.87h-17.721c0.352-1.261,0.66-2.28,0.891-2.989
		c0.229-0.701,0.37-1.09,0.37-1.09c0.149-0.57,0.229-1.171,0.229-1.791c0-3.92-3.17-7.09-7.09-7.09c-3.91,0-7.08,3.17-7.08,7.09
		c0,0.62,0.08,1.221,0.229,1.791c0,0,0.568,1.559,1.261,4.079h-17.72V96.1c3.66-0.879,6.08-1.771,6.08-1.771
		c0.57-0.149,1.17-0.229,1.789-0.229C89.661,94.1,92.831,97.271,92.831,101.18z"/>
</g>
<g id="Calque_3">
	
		<polygon fill="none" stroke="#FF0000" stroke-width="5" stroke-linecap="round" stroke-linejoin="round" stroke-miterlimit="10" points="
		32.25,12 32.25,41.25 58.25,53 58.25,24 	"/>
	
		<polygon fill="none" stroke="#FF0000" stroke-width="5" stroke-linecap="round" stroke-linejoin="round" stroke-miterlimit="10" points="
		83.25,12 83.25,39.75 58.25,53 58.25,24 	"/>
	
		<polygon fill="none" stroke="#FF0000" stroke-width="5" stroke-linecap="round" stroke-linejoin="round" stroke-miterlimit="10" points="
		58.25,2.25 32.25,12 58.25,24 83.25,12 	"/>
	
		<polygon fill="none" stroke="#FF0000" stroke-width="5" stroke-linecap="round" stroke-linejoin="round" stroke-miterlimit="10" points="
		19.75,53 4.5,68.75 45.25,89.5 59.5,71.25 	"/>
	
		<polyline fill="none" stroke="#FF0000" stroke-width="5" stroke-linecap="round" stroke-linejoin="round" stroke-miterlimit="10" points="
		70.75,87.75 59.5,71.25 97.5,53 101.185,59 	"/>
	
		<polyline fill="none" stroke="#FF0000" stroke-width="5" stroke-linecap="round" stroke-linejoin="round" stroke-miterlimit="10" points="
		19.75,76.516 19.75,98 59.5,117 59.5,71.25 19.75,53 	"/>
	
		<polyline fill="none" stroke="#FF0000" stroke-width="5" stroke-linecap="round" stroke-linejoin="round" stroke-miterlimit="10" points="
		32.25,48.25 19.75,53 4.5,40.75 25,34.25 	"/>
	
		<polyline fill="none" stroke="#FF0000" stroke-width="5" stroke-linecap="round" stroke-linejoin="round" stroke-miterlimit="10" points="
		91,32.5 110.75,41 97.5,53 83.25,48.5 	"/>
	
		<line fill="none" stroke="#FF0000" stroke-width="5" stroke-linecap="round" stroke-linejoin="round" stroke-miterlimit="10" x1="59.5" y1="117" x2="70.75" y2="111"/>
</g>
</svg>
