<?xml version="1.0" encoding="utf-8"?>
<!-- Generator: Adobe Illustrator 16.0.0, SVG Export Plug-In . SVG Version: 6.00 Build 0)  -->
<!DOCTYPE svg PUBLIC "-//W3C//DTD SVG 1.1//EN" "http://www.w3.org/Graphics/SVG/1.1/DTD/svg11.dtd">
<svg version="1.1" id="Calque_2" xmlns="http://www.w3.org/2000/svg" xmlns:xlink="http://www.w3.org/1999/xlink" x="0px" y="0px"
	 width="128px" height="128px" viewBox="0 0 128 128" enable-background="new 0 0 128 128" xml:space="preserve">
<path fill="none" stroke="#FF0000" stroke-width="5" stroke-linecap="round" stroke-linejoin="round" stroke-miterlimit="10" d="
	M117.71,119.295c0,1.568-1.451,2.839-3.241,2.839H15.612c-1.79,0-3.241-1.271-3.241-2.839v-86.59c0-1.568,1.451-2.839,3.241-2.839
	h98.857c1.79,0,3.241,1.271,3.241,2.839V119.295z"/>
<path fill="#FF0000" stroke="#FF0000" stroke-width="5" stroke-linecap="round" stroke-linejoin="round" stroke-miterlimit="10" d="
	M41.141,17c0,1.657-1.428,3-3.188,3H15.635c-1.761,0-3.188-1.343-3.188-3V8c0-1.657,1.427-3,3.188-3h22.317
	c1.761,0,3.188,1.343,3.188,3V17z"/>
<path fill="none" stroke="#FF0000" stroke-width="5" stroke-linecap="round" stroke-linejoin="round" stroke-miterlimit="10" d="
	M77.806,17c0,1.657-1.43,3-3.188,3H52.3c-1.761,0-3.188-1.343-3.188-3V8c0-1.657,1.427-3,3.188-3h22.317
	c1.759,0,3.188,1.343,3.188,3V17z"/>
<path fill="none" stroke="#FF0000" stroke-width="5" stroke-linecap="round" stroke-linejoin="round" stroke-miterlimit="10" d="
	M114.47,17c0,1.657-1.429,3-3.188,3H88.964c-1.76,0-3.188-1.343-3.188-3V8c0-1.657,1.428-3,3.188-3h22.318
	c1.759,0,3.188,1.343,3.188,3V17z"/>
</svg>
