<?xml version="1.0" encoding="utf-8"?>
<!-- Generator: Adobe Illustrator 16.0.0, SVG Export Plug-In . SVG Version: 6.00 Build 0)  -->
<!DOCTYPE svg PUBLIC "-//W3C//DTD SVG 1.1//EN" "http://www.w3.org/Graphics/SVG/1.1/DTD/svg11.dtd">
<svg version="1.1" id="Calque_2" xmlns="http://www.w3.org/2000/svg" xmlns:xlink="http://www.w3.org/1999/xlink" x="0px" y="0px"
	 width="128px" height="128px" viewBox="0 0 128 128" enable-background="new 0 0 128 128" xml:space="preserve">
<path fill="#FF0000" d="M112.553,10.823H93.958c-1.84,0-3.328-1.489-3.328-3.329s1.488-3.329,3.328-3.329h26.63
	c1.84,0,3.329,1.489,3.329,3.329v26.63c0,1.84-1.489,3.329-3.329,3.329s-3.328-1.489-3.328-3.329V15.531L82.997,49.792
	c-1.3,1.301-3.406,1.301-4.707,0c-1.3-1.3-1.3-3.406,0-4.707L112.553,10.823L112.553,10.823z M117.26,60.754
	c0-1.84,1.488-3.329,3.328-3.329s3.329,1.489,3.329,3.329v46.601c0,9.193-7.451,16.645-16.645,16.645H20.727
	c-9.193,0-16.644-7.451-16.644-16.645V20.81c0-9.193,7.451-16.644,16.644-16.644h46.602c1.841,0,3.329,1.489,3.329,3.329
	s-1.488,3.329-3.329,3.329H20.727c-5.516,0-9.986,4.474-9.986,9.986v86.546c0,5.514,4.47,9.987,9.986,9.987h86.546
	c5.514,0,9.987-4.474,9.987-9.987V60.754z"/>
</svg>
