<?xml version="1.0" encoding="utf-8"?>
<!-- Generator: Adobe Illustrator 16.0.0, SVG Export Plug-In . SVG Version: 6.00 Build 0)  -->
<!DOCTYPE svg PUBLIC "-//W3C//DTD SVG 1.1//EN" "http://www.w3.org/Graphics/SVG/1.1/DTD/svg11.dtd">
<svg version="1.1"
	 id="Calque_1" xmlns:dc="http://purl.org/dc/elements/1.1/" xmlns:cc="http://creativecommons.org/ns#" xmlns:rdf="http://www.w3.org/1999/02/22-rdf-syntax-ns#" xmlns:svg="http://www.w3.org/2000/svg" xmlns:sodipodi="http://sodipodi.sourceforge.net/DTD/sodipodi-0.dtd" xmlns:inkscape="http://www.inkscape.org/namespaces/inkscape" sodipodi:docname="iconActiveFilter.svg" inkscape:version="1.0.1 (3bc2e813f5, 2020-09-07)"
	 xmlns="http://www.w3.org/2000/svg" xmlns:xlink="http://www.w3.org/1999/xlink" x="0px" y="0px" width="128px" height="128px"
	 viewBox="0 0 128 128" enable-background="new 0 0 128 128" xml:space="preserve">
<sodipodi:namedview  inkscape:cy="64" inkscape:cx="64" inkscape:zoom="5.7421875" showgrid="false" guidetolerance="10" gridtolerance="10" pagecolor="#ffffff" borderopacity="1" bordercolor="#666666" objecttolerance="10" id="namedview14" inkscape:window-width="1920" inkscape:pageshadow="2" inkscape:pageopacity="0" inkscape:document-rotation="0" inkscape:current-layer="Calque_1" inkscape:window-maximized="1" inkscape:window-y="-8" inkscape:window-x="-8" inkscape:window-height="1017">
	</sodipodi:namedview>
<g id="Calque_1_1_" display="none">
</g>
<polyline id="polyline3" fill="none" stroke="#FF0000" stroke-width="5.0994" stroke-linecap="round" stroke-linejoin="round" stroke-miterlimit="10" points="
	59.643,115.787 79.464,125.984 79.464,98.119 "/>
<polyline id="polyline5" fill="none" stroke="#FF0000" stroke-width="5.0994" stroke-linecap="round" stroke-linejoin="round" stroke-miterlimit="10" points="
	88.574,53.341 114.633,27.273 15.539,27.273 52.231,62.455 52.393,78.253 "/>
<path id="path7" fill="none" stroke="#FF0000" stroke-width="5" stroke-miterlimit="10" d="M123.331,12.247
	c0-1.592-1.354-2.881-3.024-2.881H9.186c-1.672,0-3.025,1.289-3.025,2.881v11.97c0,1.592,1.353,2.881,3.025,2.881h111.121
	c1.672,0,3.024-1.289,3.024-2.881V12.247z"/>
<g id="g11" transform="matrix(1,0,0,0.96139506,0,4.8636045)">
	<path id="path9" fill="#FF0000" d="M39.388,124.269c-3.42,0-6.649-1.317-9.093-3.709L5.501,96.294
		c-2.481-2.429-3.869-5.679-3.906-9.151c-0.038-3.473,1.279-6.751,3.708-9.233c2.465-2.519,5.765-3.906,9.291-3.906
		c3.419,0,6.649,1.317,9.092,3.711L39.54,93.228L76.438,58.31c2.424-2.294,5.597-3.557,8.934-3.557c3.609,0,6.964,1.443,9.443,4.064
		c2.388,2.522,3.648,5.822,3.554,9.294c-0.097,3.47-1.537,6.696-4.06,9.083l-45.984,43.518
		C45.899,123.005,42.726,124.269,39.388,124.269z"/>
</g>
</svg>
