<?xml version="1.0" encoding="utf-8"?>
<!-- Generator: Adobe Illustrator 16.0.0, SVG Export Plug-In . SVG Version: 6.00 Build 0)  -->
<!DOCTYPE svg PUBLIC "-//W3C//DTD SVG 1.1//EN" "http://www.w3.org/Graphics/SVG/1.1/DTD/svg11.dtd">
<svg version="1.1" id="Calque_1" xmlns="http://www.w3.org/2000/svg" xmlns:xlink="http://www.w3.org/1999/xlink" x="0px" y="0px"
	 width="128px" height="128px" viewBox="0 0 128 128" enable-background="new 0 0 128 128" xml:space="preserve">
<g>
	<g id="Calque_3">
		
			<line fill="none" stroke="#FF0000" stroke-width="5" stroke-linecap="round" stroke-linejoin="round" stroke-miterlimit="10" x1="2.19" y1="48.247" x2="45.368" y2="48.247"/>
		<path fill="none" stroke="#FF0000" stroke-width="5" stroke-linecap="round" stroke-linejoin="round" stroke-miterlimit="10" d="
			M11.179,48.247c0,0,1.367,21.69,27.545,30.088"/>
		<path fill="none" stroke="#FF0000" stroke-width="5" stroke-linecap="round" stroke-linejoin="round" stroke-miterlimit="10" d="
			M36.772,48.247c0,0-0.196,24.228-33.41,33.217"/>
		
			<line fill="none" stroke="#FF0000" stroke-width="5" stroke-linecap="round" stroke-linejoin="round" stroke-miterlimit="10" x1="23.781" y1="39.849" x2="27.589" y2="48.247"/>
	</g>
	<g>
		<path fill="#FF0000" d="M84.97,51.045H67.622v7.016h16.082v7.294H67.622v16.107h-9.674V43.75H84.97V51.045z"/>
		<path fill="#FF0000" d="M128,81.464h-11.878l-10.261-13.83h-4.506v13.83h-9.673V43.75h16.309c2.229,0,4.145,0.126,5.75,0.38
			c1.604,0.254,3.104,0.803,4.509,1.646c1.418,0.844,2.545,1.938,3.38,3.279c0.835,1.341,1.254,3.027,1.254,5.053
			c0,2.787-0.646,5.056-1.938,6.813c-1.292,1.756-3.137,3.215-5.532,4.381L128,81.464z M112.829,55.302
			c0-0.946-0.194-1.755-0.581-2.431c-0.391-0.677-1.058-1.208-2.002-1.597c-0.659-0.271-1.427-0.436-2.305-0.495
			c-0.878-0.059-1.897-0.088-3.064-0.088h-3.521v10.156h2.99c1.554,0,2.853-0.075,3.901-0.227c1.047-0.153,1.927-0.498,2.632-1.039
			c0.675-0.524,1.17-1.102,1.48-1.736C112.673,57.214,112.829,56.366,112.829,55.302z"/>
	</g>
</g>
<g id="Calque_2">
</g>
</svg>
