<?xml version="1.0" encoding="utf-8"?>
<!-- Generator: Adobe Illustrator 16.0.0, SVG Export Plug-In . SVG Version: 6.00 Build 0)  -->
<!DOCTYPE svg PUBLIC "-//W3C//DTD SVG 1.1//EN" "http://www.w3.org/Graphics/SVG/1.1/DTD/svg11.dtd">
<svg version="1.1" id="Calque_1" xmlns="http://www.w3.org/2000/svg" xmlns:xlink="http://www.w3.org/1999/xlink" x="0px" y="0px"
	 width="128px" height="128px" viewBox="0 0 128 128" enable-background="new 0 0 128 128" xml:space="preserve">
<g id="Calque_1_1_" display="none">
	<g display="inline">
		<g>
			<path fill="none" stroke="#FF0000" stroke-width="5" stroke-linecap="round" stroke-linejoin="round" stroke-miterlimit="10" d="
				M64.362,22.124c6.458,0,11.693,5.037,11.693,11.25c0,6.215-5.234,11.251-11.693,11.251"/>
			
				<polyline fill="none" stroke="#FF0000" stroke-width="5" stroke-linecap="round" stroke-linejoin="round" stroke-miterlimit="10" points="
				77.68,50.833 84.305,53.577 80.991,86.523 73.012,86.523 73.012,123.381 68.173,123.381 			"/>
			
				<polyline fill="none" stroke="#FF0000" stroke-width="5" stroke-linecap="round" stroke-linejoin="round" stroke-miterlimit="10" points="
				44.419,65.641 47.731,86.523 55.711,86.523 55.711,123.381 60.552,123.381 			"/>
		</g>
		<g>
			
				<ellipse fill="none" stroke="#FF0000" stroke-width="5" stroke-linecap="round" stroke-linejoin="round" stroke-miterlimit="10" cx="92.414" cy="26.914" rx="11.695" ry="11.251"/>
			
				<polyline fill="none" stroke="#FF0000" stroke-width="5" stroke-linecap="round" stroke-linejoin="round" stroke-miterlimit="10" points="
				83.762,94.553 83.762,116.918 88.604,116.918 			"/>
			
				<polyline fill="none" stroke="#FF0000" stroke-width="5" stroke-linecap="round" stroke-linejoin="round" stroke-miterlimit="10" points="
				105.73,44.373 112.355,47.115 109.045,80.063 101.063,80.063 101.063,116.918 96.225,116.918 			"/>
		</g>
		<g>
			
				<polyline fill="none" stroke="#FF0000" stroke-width="5" stroke-linecap="round" stroke-linejoin="round" stroke-miterlimit="10" points="
				44.96,94.553 44.96,116.918 40.122,116.918 			"/>
			
				<polyline fill="none" stroke="#FF0000" stroke-width="5" stroke-linecap="round" stroke-linejoin="round" stroke-miterlimit="10" points="
				18.231,65.641 19.681,80.063 27.66,80.063 27.66,116.918 32.499,116.918 			"/>
		</g>
	</g>
	<g id="Calque_2" display="inline">
	</g>
</g>
<g>
	<g>
		<g>
			<path fill="none" stroke="#FF0000" stroke-width="5" stroke-linecap="round" stroke-linejoin="round" stroke-miterlimit="10" d="
				M88.875,39.689"/>
		</g>
		<path fill="none" stroke="#FF0000" stroke-width="5" stroke-linecap="round" stroke-linejoin="round" stroke-miterlimit="10" d="
			M14.08,73.472c2.15,2.29,4.595,4.403,7.29,6.307l-0.003-0.002v23.552L37.162,87.53c6.304,2.009,13.207,3.122,20.446,3.122
			c29.704,0,53.785-18.646,53.785-41.646c0-17.894-14.574-33.151-35.032-39.044"/>
	</g>
	<g>
		<path fill="none" stroke="#FF0000" stroke-width="5" stroke-linecap="round" stroke-linejoin="round" stroke-miterlimit="10" d="
			M115.915,58.32c4.219,5.212,6.659,11.377,6.659,17.982c0,9.923-5.508,18.85-14.284,25.05h0.004v19.17l-12.86-12.859
			c-5.132,1.635-10.751,2.543-16.645,2.543c-15.112,0-28.438-5.931-36.307-14.948"/>
	</g>
</g>
<path fill="#FF0000" d="M66.25,1.05H4c-1.657,0-3,1.343-3,3v62.25c0,1.656,1.343,3,3,3h62.25c1.656,0,3-1.344,3-3V4.05
	C69.25,2.393,67.906,1.05,66.25,1.05z M16.229,54.622c-2.768,0-5.011-2.241-5.011-5.01s2.243-5.011,5.011-5.011
	c2.767,0,5.01,2.242,5.01,5.011S18.996,54.622,16.229,54.622z M16.229,39.385c-2.768,0-5.011-2.242-5.011-5.01
	s2.243-5.011,5.011-5.011c2.767,0,5.01,2.243,5.01,5.011C21.239,37.141,18.996,39.385,16.229,39.385z M16.229,24.147
	c-2.768,0-5.011-2.244-5.011-5.01c0-2.768,2.243-5.012,5.011-5.012c2.767,0,5.01,2.244,5.01,5.012
	C21.239,21.903,18.996,24.147,16.229,24.147z M54.855,53.771H31.129c-2.305,0-4.174-1.87-4.174-4.177
	c0-2.306,1.869-4.176,4.174-4.176h23.726c2.307,0,4.176,1.87,4.176,4.176C59.031,51.9,57.162,53.771,54.855,53.771z M54.855,38.532
	H31.129c-2.305,0-4.174-1.869-4.174-4.176c0-2.305,1.869-4.175,4.174-4.175h23.726c2.307,0,4.176,1.87,4.176,4.175
	C59.031,36.663,57.162,38.532,54.855,38.532z M54.855,23.294H31.129c-2.305,0-4.174-1.869-4.174-4.175
	c0-2.306,1.869-4.175,4.174-4.175h23.726c2.307,0,4.176,1.869,4.176,4.175C59.031,21.425,57.162,23.294,54.855,23.294z"/>
</svg>
