<?xml version="1.0" encoding="utf-8"?>
<!-- Generator: Adobe Illustrator 16.0.0, SVG Export Plug-In . SVG Version: 6.00 Build 0)  -->
<!DOCTYPE svg PUBLIC "-//W3C//DTD SVG 1.1//EN" "http://www.w3.org/Graphics/SVG/1.1/DTD/svg11.dtd">
<svg version="1.1" id="Calque_1" xmlns="http://www.w3.org/2000/svg" xmlns:xlink="http://www.w3.org/1999/xlink" x="0px" y="0px"
	 width="128px" height="128px" viewBox="0 0 128 128" enable-background="new 0 0 128 128" xml:space="preserve">
<g id="Calque_1_1_" display="none">
	<g id="Calque_2" display="inline">
	</g>
	<g display="inline">
		<g>
			
				<rect x="47.049" y="50.359" fill="none" stroke="#FF0000" stroke-width="5" stroke-linecap="round" stroke-linejoin="round" stroke-miterlimit="10" width="34.396" height="73.653"/>
			
				<rect x="12.653" y="73.539" fill="none" stroke="#FF0000" stroke-width="5" stroke-linecap="round" stroke-linejoin="round" stroke-miterlimit="10" width="34.396" height="50.473"/>
			
				<rect x="81.443" y="79.587" fill="none" stroke="#FF0000" stroke-width="5" stroke-linecap="round" stroke-linejoin="round" stroke-miterlimit="10" width="34.396" height="44.425"/>
			
				<polyline fill="none" stroke="#FF0000" stroke-width="5" stroke-linecap="round" stroke-linejoin="round" stroke-miterlimit="10" points="
				57.073,69.902 66.047,60.93 66.047,91.588 			"/>
			<path fill="none" stroke="#FF0000" stroke-width="5" stroke-linecap="round" stroke-linejoin="round" stroke-miterlimit="10" d="
				M19.379,93.488c0-5.784,4.689-10.475,10.472-10.475c5.783,0,10.474,4.688,10.474,10.475c0,5.783-4.691,10.472-10.474,10.472
				c0,0-10.472,0.804-10.472,10.574h20.945"/>
			<path fill="none" stroke="#FF0000" stroke-width="5" stroke-linecap="round" stroke-linejoin="round" stroke-miterlimit="10" d="
				M90.787,94.881c0-4.251,3.443-7.695,7.695-7.695c4.248,0,7.691,3.444,7.691,7.695c0,4.248-3.443,7.693-7.691,7.693l0.318-0.004
				c4.25,0,7.694,3.445,7.694,7.695s-3.444,7.694-7.694,7.694c-4.248,0-7.693-3.444-7.693-7.694"/>
		</g>
		<g>
			<path fill="none" stroke="#FF0000" stroke-width="5" stroke-linecap="round" stroke-linejoin="round" stroke-miterlimit="10" d="
				M73.663,13.712c0,5.024-4.073,13.01-9.101,13.01c-5.026,0-9.101-7.986-9.101-13.01c0-5.026,4.073-9.102,9.101-9.102
				S73.663,8.686,73.663,13.712z"/>
			
				<polyline fill="none" stroke="#FF0000" stroke-width="5" stroke-linecap="round" stroke-linejoin="round" stroke-miterlimit="10" points="
				61.039,25.382 61.051,29.633 45.213,33.987 45.213,42.404 83.281,42.404 83.281,33.943 68.018,29.486 67.988,25.483 			"/>
		</g>
	</g>
</g>
<g id="Calque_3" display="none">
	<g display="inline">
		
			<rect x="25.404" y="110.992" fill="none" stroke="#FF0000" stroke-width="5" stroke-linecap="round" stroke-linejoin="round" stroke-miterlimit="10" width="73.558" height="11.457"/>
		<path fill="none" stroke="#FF0000" stroke-width="5" stroke-linecap="round" stroke-linejoin="round" stroke-miterlimit="10" d="
			M69.616,80.077c10.684-4.937,27.896-18.67,27.896-50.824c0-7.766-1.021-13.778-3.371-18.34H29.578
			c-2.356,4.562-3.373,10.574-3.373,18.34c0,31.498,17.21,45.554,27.895,50.694v19.447H31.433v11.457h61.5V99.396H69.616V80.077z"/>
		<path fill="none" stroke="#FF0000" stroke-width="5" stroke-linecap="round" stroke-linejoin="round" stroke-miterlimit="10" d="
			M26.386,21.43H3.094c0,0-6.031,33.123,30.238,38.508"/>
		<path fill="none" stroke="#FF0000" stroke-width="5" stroke-linecap="round" stroke-linejoin="round" stroke-miterlimit="10" d="
			M98.086,21.43h23.294c0,0,6.031,33.123-30.239,38.508"/>
		
			<polygon fill="none" stroke="#FF0000" stroke-width="5" stroke-linecap="round" stroke-linejoin="round" stroke-miterlimit="10" points="
			61.859,24.51 66.377,36.395 79.077,37.019 69.17,44.99 72.498,57.262 61.859,50.303 51.215,57.262 54.546,44.99 44.64,37.019 
			57.338,36.395 		"/>
	</g>
</g>
<g id="Calque_4" display="none">
	<g display="inline">
		<g>
			
				<circle fill="none" stroke="#FF0000" stroke-width="5" stroke-linecap="round" stroke-linejoin="round" stroke-miterlimit="10" cx="98.706" cy="79.372" r="11.647"/>
			<path fill="none" stroke="#FF0000" stroke-width="5" stroke-linecap="round" stroke-linejoin="round" stroke-miterlimit="10" d="
				M98.706,101.636c-5.03-4.048-9.583-6.086-15.743-6.52c-0.434-6.16-2.473-10.714-6.52-15.743c4.047-5.029,6.086-9.585,6.52-15.743
				c6.16-0.436,10.713-2.474,15.743-6.521c5.03,4.047,9.585,6.086,15.745,6.521c0.432,6.158,2.47,10.714,6.52,15.743
				c-4.05,5.029-6.088,9.583-6.52,15.743C108.291,95.55,103.736,97.588,98.706,101.636z"/>
			
				<polyline fill="none" stroke="#FF0000" stroke-width="5" stroke-linecap="round" stroke-linejoin="round" stroke-miterlimit="10" points="
				97.411,100.643 90.029,124.043 79.527,120.73 87.4,95.777 			"/>
			
				<polyline fill="none" stroke="#FF0000" stroke-width="5" stroke-linecap="round" stroke-linejoin="round" stroke-miterlimit="10" points="
				100.002,100.643 107.385,124.043 117.885,120.73 110.012,95.777 			"/>
		</g>
		<g>
			
				<polyline fill="none" stroke="#FF0000" stroke-width="5" stroke-linecap="round" stroke-linejoin="round" stroke-miterlimit="10" points="
				123.609,84.744 123.609,94.223 119.085,94.223 			"/>
			
				<polyline fill="none" stroke="#FF0000" stroke-width="5" stroke-linecap="round" stroke-linejoin="round" stroke-miterlimit="10" points="
				76.443,94.223 3.317,94.223 3.317,10.442 123.609,10.442 123.609,72.624 			"/>
			
				<line fill="none" stroke="#FF0000" stroke-width="5" stroke-linecap="round" stroke-linejoin="round" stroke-miterlimit="10" x1="15.768" y1="29.167" x2="110.355" y2="29.167"/>
			
				<line fill="none" stroke="#FF0000" stroke-width="5" stroke-linecap="round" stroke-linejoin="round" stroke-miterlimit="10" x1="37.087" y1="19.994" x2="89.839" y2="19.994"/>
		</g>
	</g>
	<g display="inline">
		<g>
			<path fill="none" stroke="#FF0000" stroke-width="5" stroke-linecap="round" stroke-linejoin="round" stroke-miterlimit="10" d="
				M31.592,64.039c-4.171,0-7.551-3.379-7.551-7.548l0,0c0-4.171,3.379-7.55,7.551-7.55h10.991c4.169,0,7.55,3.379,7.55,7.55l0,0"/>
			<path fill="none" stroke="#FF0000" stroke-width="5" stroke-linecap="round" stroke-linejoin="round" stroke-miterlimit="10" d="
				M31.592,64.039h10.991c4.169,0,7.55,3.379,7.55,7.551l0,0c0,4.171-3.381,7.551-7.55,7.551H31.592
				c-4.171,0-7.551-3.379-7.551-7.551"/>
		</g>
		
			<line fill="none" stroke="#FF0000" stroke-width="5" stroke-linecap="round" stroke-linejoin="round" stroke-miterlimit="10" x1="37.086" y1="48.94" x2="37.086" y2="41.897"/>
		
			<line fill="none" stroke="#FF0000" stroke-width="5" stroke-linecap="round" stroke-linejoin="round" stroke-miterlimit="10" x1="37.086" y1="86.182" x2="37.086" y2="79.141"/>
	</g>
</g>
<g>
	<g>
		<path fill="none" stroke="#FF0000" stroke-width="5" stroke-linecap="round" stroke-linejoin="round" stroke-miterlimit="10" d="
			M64.361,50.759c-1.608,0-3.217-0.615-4.444-1.842c-2.455-2.456-2.455-6.437,0-8.89c1.228-1.228,2.836-1.84,4.444-1.84
			c1.609,0,3.22,0.613,4.445,1.84c2.455,2.454,2.455,6.435,0,8.89C67.581,50.144,65.971,50.759,64.361,50.759z"/>
		<path fill="none" stroke="#FF0000" stroke-width="5" stroke-linecap="round" stroke-linejoin="round" stroke-miterlimit="10" d="
			M49.14,67.406c-12.667-12.667-12.667-33.205,0-45.872"/>
		<path fill="none" stroke="#FF0000" stroke-width="5" stroke-linecap="round" stroke-linejoin="round" stroke-miterlimit="10" d="
			M79.585,67.406c12.667-12.667,12.667-33.205,0-45.872"/>
		<path fill="none" stroke="#FF0000" stroke-width="5" stroke-linecap="round" stroke-linejoin="round" stroke-miterlimit="10" d="
			M34.042,82.505c-21.006-21.006-21.006-55.061,0-76.065"/>
		<path fill="none" stroke="#FF0000" stroke-width="5" stroke-linecap="round" stroke-linejoin="round" stroke-miterlimit="10" d="
			M94.684,82.505c21.002-21.006,21.002-55.061,0-76.065"/>
	</g>
	
		<line fill="none" stroke="#FF0000" stroke-width="5" stroke-linecap="round" stroke-linejoin="round" stroke-miterlimit="10" x1="62.712" y1="50.535" x2="43.261" y2="122.012"/>
	
		<line fill="none" stroke="#FF0000" stroke-width="5" stroke-linecap="round" stroke-linejoin="round" stroke-miterlimit="10" x1="66.012" y1="50.535" x2="85.463" y2="122.012"/>
	
		<polyline fill="none" stroke="#FF0000" stroke-width="5" stroke-linecap="round" stroke-linejoin="round" stroke-miterlimit="10" points="
		46.234,111.09 78.648,96.968 54.462,80.849 70.647,67.571 	"/>
</g>
</svg>
