<?xml version="1.0" encoding="utf-8"?>
<!-- Generator: Adobe Illustrator 16.0.0, SVG Export Plug-In . SVG Version: 6.00 Build 0)  -->
<!DOCTYPE svg PUBLIC "-//W3C//DTD SVG 1.1//EN" "http://www.w3.org/Graphics/SVG/1.1/DTD/svg11.dtd">
<svg version="1.1" id="Calque_1" xmlns="http://www.w3.org/2000/svg" xmlns:xlink="http://www.w3.org/1999/xlink" x="0px" y="0px"
	 width="128px" height="128px" viewBox="0 0 128 128" enable-background="new 0 0 128 128" xml:space="preserve">
<g id="Calque_2" display="none">
	<g display="inline">
		<g>
			<g>
				<path fill="#FF0000" d="M1.539,64.363C1.542,30.05,29.334,2.259,63.624,2.259l0,0v3.155v3.157
					C32.817,8.628,7.912,33.537,7.858,64.363l0,0c0.054,30.788,24.959,55.696,55.766,55.761l0,0
					c30.8-0.065,55.715-24.974,55.772-55.761l0,0C119.339,33.537,94.424,8.628,63.624,8.571l0,0V5.414V2.259
					c34.287,0,62.078,27.791,62.078,62.104l0,0c-0.007,34.268-27.791,62.067-62.078,62.073l0,0
					C29.334,126.43,1.542,98.631,1.539,64.363L1.539,64.363z M42.098,109.907V93.436h6.773V60.889h-10.34l0.238-15.593h17.574
					c-4.993-2.652-8.387-7.896-8.391-13.935l0,0c0.003-8.705,7.047-15.758,15.751-15.758l0,0v3.156v3.155
					c-5.208,0.016-9.428,4.23-9.438,9.447l0,0c0.01,5.194,4.233,9.431,9.438,9.447l0,0c5.191-0.016,9.436-4.252,9.449-9.447l0,0
					c-0.014-5.21-4.248-9.432-9.449-9.447l0,0v-3.155v-3.156c8.693,0,15.762,7.047,15.762,15.758l0,0
					c0,6.039-3.415,11.291-8.408,13.935l0,0h5.238v48.153h10.145v13.302v3.156H42.098L42.098,109.907z M83.275,106.751v-3.155
					V106.751L83.275,106.751z M48.41,103.596h31.711v-3.832H69.982V51.607H44.987l-0.043,2.962h10.239v45.178h-6.766L48.41,103.596
					L48.41,103.596z"/>
			</g>
		</g>
	</g>
</g>
<circle fill="none" stroke="#FF0000" stroke-width="5" stroke-miterlimit="10" cx="64.419" cy="64.73" r="57.344"/>
<g>
	<circle fill="#FF0000" cx="65.379" cy="41.47" r="9.61"/>
	<polygon fill="#FF0000" points="48.136,57.575 73.248,57.575 73.248,89.869 80.703,89.869 80.703,97.6 50.883,97.6 50.883,89.869 
		57.357,89.869 57.357,64.442 48.136,64.442 	"/>
</g>
</svg>
