<?xml version="1.0" encoding="utf-8"?>
<!-- Generator: Adobe Illustrator 16.0.0, SVG Export Plug-In . SVG Version: 6.00 Build 0)  -->
<!DOCTYPE svg PUBLIC "-//W3C//DTD SVG 1.1//EN" "http://www.w3.org/Graphics/SVG/1.1/DTD/svg11.dtd">
<svg version="1.1" xmlns="http://www.w3.org/2000/svg" xmlns:xlink="http://www.w3.org/1999/xlink" x="0px" y="0px" width="128px"
	 height="128px" viewBox="0 0 128 128" enable-background="new 0 0 128 128" xml:space="preserve">
<g id="Calque_2" display="none">
	
		<path display="inline" fill="none" stroke="#FF0000" stroke-width="5" stroke-linecap="round" stroke-linejoin="round" stroke-miterlimit="10" d="
		M36.238,54.231v14.413h4.476"/>
	
		<path display="inline" fill="none" stroke="#FF0000" stroke-width="5" stroke-linecap="round" stroke-linejoin="round" stroke-miterlimit="10" d="
		M91.762,41.167V10.472c0-2.573-2.107-4.677-4.682-4.677H36.238v48.438h13.596"/>
	
		<path display="inline" fill="none" stroke="#FF0000" stroke-width="5" stroke-linecap="round" stroke-linejoin="round" stroke-miterlimit="10" d="
		M42.131,81.763h-5.893v9.049h5.792"/>
	
		<path display="inline" fill="none" stroke="#FF0000" stroke-width="5" stroke-linecap="round" stroke-linejoin="round" stroke-miterlimit="10" d="
		M36.238,5.795"/>
	
		<path display="inline" fill="none" stroke="#FF0000" stroke-width="5" stroke-linecap="round" stroke-linejoin="round" stroke-miterlimit="10" d="
		M40.714,68.645"/>
	
		<path display="inline" fill="none" stroke="#FF0000" stroke-width="5" stroke-linecap="round" stroke-linejoin="round" stroke-miterlimit="10" d="
		M40.714,81.764"/>
	
		<path display="inline" fill="none" stroke="#FF0000" stroke-width="5" stroke-linecap="round" stroke-linejoin="round" stroke-miterlimit="10" d="
		M40.714,90.812"/>
	
		<line display="inline" fill="none" stroke="#FF0000" stroke-width="5" stroke-linecap="round" stroke-linejoin="round" stroke-miterlimit="10" x1="36.238" y1="56.783" x2="36.238" y2="5.795"/>
	
		<path display="inline" fill="none" stroke="#FF0000" stroke-width="5" stroke-linecap="round" stroke-linejoin="round" stroke-miterlimit="10" d="
		M6.04,90.049c0,0.422,0.342,0.763,0.763,0.763h19.051c0.42,0,0.763-0.341,0.763-0.763V6.556c0-0.421-0.343-0.761-0.763-0.761H6.803
		c-0.421,0-0.763,0.34-0.763,0.761V90.049z"/>
	<circle display="inline" fill="#FF0000" cx="15.756" cy="77.476" r="4.763"/>
</g>
<g id="Calque_3">
	<path fill="none" stroke="#FF0000" stroke-width="5" stroke-linecap="round" stroke-linejoin="round" stroke-miterlimit="10" d="
		M41.032,89.288c-20.303,0-36.822-16.52-36.822-36.819c0-20.306,16.519-36.823,36.822-36.823c16.854,0,31.1,11.382,35.454,26.863"/>
	<path fill="none" stroke="#FF0000" stroke-width="5" stroke-linecap="round" stroke-linejoin="round" stroke-miterlimit="10" d="
		M41.032,79.419c-1.761,0-3.484-0.17-5.152-0.494c-12.407-2.411-21.804-13.357-21.804-26.459c0-14.862,12.094-26.955,26.956-26.955
		c12.314,0,22.728,8.302,25.936,19.604"/>
	<g>
		<path fill="none" stroke="#FF0000" stroke-width="5" stroke-linecap="round" stroke-miterlimit="10" d="M41.032,67.203
			c-8.063,0-14.622-6.561-14.622-14.622c-0.001-8.061,6.56-14.623,14.622-14.623 M41.032,33.196 M41.032,37.958
			c8.063,0,14.624,6.559,14.624,14.623"/>
	</g>
	<circle fill="#FF0000" cx="41.032" cy="52.469" r="7.219"/>
	<path fill="none" stroke="#FF0000" stroke-width="5" stroke-linecap="round" stroke-linejoin="round" stroke-miterlimit="10" d="
		M41.032,52.469L85.297,8.2"/>
	<path fill="none" stroke="#FF0000" stroke-width="2" stroke-linecap="round" stroke-linejoin="round" stroke-miterlimit="10" d="
		M78.633,24.825l-9.87-0.089l12.932-12.933l9.871,0.09L78.633,24.825z"/>
	<path fill="none" stroke="#FF0000" stroke-width="2" stroke-linecap="round" stroke-linejoin="round" stroke-miterlimit="10" d="
		M68.673,14.867l0.09,9.869l12.932-12.933l-0.089-9.87L68.673,14.867z"/>
</g>
<g id="svg15" xmlns:svg="http://www.w3.org/2000/svg" xmlns:inkscape="http://www.inkscape.org/namespaces/inkscape" xmlns:rdf="http://www.w3.org/1999/02/22-rdf-syntax-ns#" xmlns:sodipodi="http://sodipodi.sourceforge.net/DTD/sodipodi-0.dtd" xmlns:cc="http://creativecommons.org/ns#" xmlns:dc="http://purl.org/dc/elements/1.1/" sodipodi:docname="iconKanban.svg" inkscape:version="1.0 (4035a4fb49, 2020-05-01)">
	
		<sodipodi:namedview  bordercolor="#666666" borderopacity="1" inkscape:cx="24.979592" guidetolerance="10" showgrid="false" inkscape:zoom="15.3125" pagecolor="#ffffff" gridtolerance="10" inkscape:cy="24" id="namedview17" objecttolerance="10" inkscape:window-x="-8" inkscape:window-width="1920" inkscape:window-height="1017" inkscape:pageopacity="0" inkscape:document-rotation="0" inkscape:current-layer="svg15" inkscape:pageshadow="2" inkscape:window-y="-8" inkscape:window-maximized="1">
		</sodipodi:namedview>
	<title  id="title6"></title>
	<g>
		<path fill="#FF0000" d="M81.263,109.997c-1.071-1.071-1.606-2.42-1.606-4.047V91.096H64.8c-1.627,0-2.977-0.556-4.047-1.664
			c-1.072-1.107-1.607-2.476-1.607-4.103c0-1.625,0.535-2.976,1.607-4.047c1.07-1.07,2.42-1.607,4.047-1.607h14.854V64.818
			c0-1.551,0.571-2.881,1.719-3.99c1.146-1.108,2.457-1.663,3.937-1.663c1.624,0,2.974,0.537,4.046,1.608
			c1.07,1.072,1.607,2.421,1.607,4.045v14.855h14.854c1.553,0,2.9,0.555,4.047,1.664c1.146,1.107,1.719,2.477,1.719,4.102
			c0,1.553-0.572,2.884-1.719,3.99c-1.146,1.109-2.494,1.664-4.047,1.664H90.963v14.855c0,1.627-0.537,2.976-1.607,4.047
			c-1.072,1.072-2.422,1.607-4.046,1.607C83.683,111.604,82.332,111.068,81.263,109.997z"/>
	</g>
	<circle fill="none" stroke="#FF0000" stroke-width="5" stroke-miterlimit="10" cx="85.253" cy="85.384" r="37.729"/>
	<g id="Calque_1_1_" display="none">
	</g>
</g>
</svg>
