<?xml version="1.0" encoding="utf-8"?>
<!-- Generator: Adobe Illustrator 16.0.0, SVG Export Plug-In . SVG Version: 6.00 Build 0)  -->
<!DOCTYPE svg PUBLIC "-//W3C//DTD SVG 1.1//EN" "http://www.w3.org/Graphics/SVG/1.1/DTD/svg11.dtd">
<svg version="1.1" id="Calque_1" xmlns="http://www.w3.org/2000/svg" xmlns:xlink="http://www.w3.org/1999/xlink" x="0px" y="0px"
	 width="128px" height="128px" viewBox="0 0 128 128" enable-background="new 0 0 128 128" xml:space="preserve">
<g id="Calque_2" display="none">
	
		<image display="inline" overflow="visible" enable-background="new    " width="601" height="351" xlink:href="DB479347.jpeg"  transform="matrix(0.9983 0 0 0.9972 -236.0005 -110)">
	</image>
</g>
<g>
	<path fill="none" stroke="#FF0000" stroke-width="4" stroke-linecap="round" stroke-miterlimit="10" d="M76.246,68.573
		c1.667,0.936,3.449,1.488,5.244,1.682l1.118,4.046c1.896,0.037,3.781-0.227,5.579-0.779l-0.034-4.201
		c1.694-0.687,3.26-1.715,4.586-3.051l3.86,1.647c0.591-0.716,1.14-1.485,1.629-2.31c0.487-0.826,0.896-1.676,1.238-2.539
		l-3.304-2.589c0.535-1.805,0.681-3.673,0.469-5.489l3.697-1.991c-0.382-1.844-1.061-3.623-2.004-5.266l-4.086,0.971
		c-1.031-1.48-2.375-2.777-3.999-3.787l0.749-4.133c-1.728-0.876-3.537-1.443-5.366-1.72l-1.789,3.799
		c-1.858-0.116-3.715,0.148-5.455,0.764l-2.762-3.158c-1.7,0.774-3.287,1.82-4.69,3.12l1.853,3.765
		c-0.608,0.675-1.161,1.42-1.641,2.233c-0.479,0.812-0.867,1.654-1.165,2.512l-4.192,0.19c-0.464,1.854-0.617,3.748-0.478,5.613
		l4.101,0.897c0.295,1.823,0.96,3.577,1.956,5.15l-2.466,3.396c1.122,1.47,2.491,2.785,4.091,3.874L76.246,68.573z"/>
	
		<circle fill="none" stroke="#FF0000" stroke-width="4" stroke-linecap="round" stroke-miterlimit="10" cx="82.973" cy="56.584" r="6.931"/>
</g>
<g>
	<path fill="none" stroke="#FF0000" stroke-width="4" stroke-linecap="round" stroke-miterlimit="10" d="M56.176,107.119
		c0.317-0.037,0.633-0.082,0.951-0.136c1.75-0.297,3.408-0.817,4.949-1.521l4.656,3.59c1.206-0.776,2.334-1.65,3.382-2.606
		l-1.977-5.279c1.498-1.559,2.734-3.355,3.66-5.311l5.371-0.226c0.459-1.371,0.801-2.787,1.022-4.236l-4.543-2.567
		c0.115-1.564,0.05-3.167-0.224-4.782c-0.115-0.676-0.262-1.334-0.439-1.98l3.87-3.532c-0.503-1.345-1.11-2.63-1.815-3.846
		l-5.154,0.959c-1.392-1.905-3.104-3.54-5.048-4.832l0.738-5.521c-1.156-0.661-2.367-1.229-3.619-1.705l-3.623,4.398
		c-2.219-0.52-4.563-0.662-6.942-0.369l-3.314-5.224c-1.235,0.234-2.432,0.556-3.586,0.955l0.059,6.404
		c-2.012,1.058-3.802,2.439-5.314,4.069l-6.502-2.065c-0.724,0.926-1.381,1.9-1.974,2.915l4.559,5.332
		c-0.779,1.948-1.248,4.036-1.375,6.19l-6.604,2.72c0.054,0.954,0.155,1.913,0.318,2.878c0.036,0.211,0.082,0.419,0.123,0.626
		l7.13,1.19c0.645,1.964,1.584,3.775,2.753,5.396l-3.254,6.222c0.864,0.896,1.789,1.731,2.771,2.493l5.996-3.537
		c1.682,1.063,3.523,1.876,5.467,2.397l1.399,6.371c1.318,0.147,2.663,0.192,4.022,0.128L56.176,107.119z"/>
	
		<circle fill="none" stroke="#FF0000" stroke-width="4" stroke-linecap="round" stroke-miterlimit="10" cx="53.714" cy="87.29" r="11.896"/>
</g>
<path fill="none" stroke="#FF0000" stroke-width="5" stroke-linecap="round" stroke-linejoin="round" stroke-miterlimit="10" d="
	M79.161,11.991c26.796,11.23,27.305,35.984,27.305,35.984v42.876l16.846,16.076v12.25H65.634h-3.27H4.688v-12.25l16.843-16.076
	V47.975c0,0,0.511-24.754,27.308-35.984C48.839,11.991,64.003,4.862,79.161,11.991z"/>
</svg>
