<?xml version="1.0" encoding="utf-8"?>
<!-- Generator: Adobe Illustrator 16.0.0, SVG Export Plug-In . SVG Version: 6.00 Build 0)  -->
<!DOCTYPE svg PUBLIC "-//W3C//DTD SVG 1.1//EN" "http://www.w3.org/Graphics/SVG/1.1/DTD/svg11.dtd">
<svg version="1.1" id="Calque_2" xmlns="http://www.w3.org/2000/svg" xmlns:xlink="http://www.w3.org/1999/xlink" x="0px" y="0px"
	 width="128px" height="128px" viewBox="0 0 128 128" enable-background="new 0 0 128 128" xml:space="preserve">
<g id="Calque_2_2_" display="none">
	<g display="inline">
		<path fill="none" d="M63.4,67.604c9.407,0,15.547-12.935,16.563-26.15h-30.49c-0.851,0.106-1.718,0.198-2.616,0.25
			C47.932,54.831,54.053,67.604,63.4,67.604z"/>
		<path fill="none" d="M91.273,78.268l-9.646-3.521l-15.432,8.746L60.257,83.4l-15.506-8.65l-9.566,3.52
			c-1.507,0.729-19.394,9.84-18.328,33.111c0.541,0.855,3.165,4.105,11.531,4.176c-0.264-4.406-0.719-14.238-0.156-22.854
			l4.739,0.311c-0.606,9.285,0.032,20.396,0.246,23.604c5.498,4.866,17.007,7.821,30.305,7.707
			c12.979-0.097,24.488-3.099,29.764-7.705c0.194-3.279,0.78-14.627,0.146-23.754l4.738-0.332c0.596,8.51,0.18,18.563-0.063,23.021
			c8.268-0.072,10.908-3.268,11.492-4.188C110.65,88.135,92.824,79.016,91.273,78.268z"/>
		<path fill="#FF0000" d="M34.129,41.45h6.227c0,0.002,0,0.004,0,0.006c-1.305,2.819-1.772,7.667,4.469,13.882
			c3.377,9.688,9.662,17.016,18.576,17.016c8.738,0,15.188-7.48,18.631-17.413c5.836-6.035,5.342-10.733,4.063-13.491h6.229
			c1.215,0,2.196-0.984,2.196-2.199c0-1.214-0.981-2.199-2.196-2.199h-2.938c0.016-0.334,0.021-0.671,0.021-1.009
			c0-10.568-6.181-19.661-15.058-23.763c0.025,1.039,0.031,2.212,0.031,3.533v3.8c0,10.968-0.596,11.62-10.621,11.62
			c-10.028,0-10.623-0.652-10.623-11.62v-3.8c0-1.326,0.009-2.498,0.042-3.54c-8.881,4.101-15.063,13.198-15.063,23.77
			c0,0.341,0.03,0.673,0.046,1.009h-4.039c-1.214,0-2.199,0.985-2.199,2.199C31.93,40.465,32.915,41.45,34.129,41.45z M49.472,41.45
			h30.489c-1.016,13.219-7.154,26.153-16.563,26.153c-9.348,0-15.468-12.772-16.543-25.903
			C47.754,41.648,48.621,41.557,49.472,41.45z"/>
		<path fill="#FF0000" d="M93.184,73.918l-14.209-5.195l-12.676,7.414h-6.221l-12.676-7.424l-13.957,5.133l-0.173,0.07
			c-0.229,0.104-22.684,10.775-21.134,38.211l0.021,0.354l0.12,0.332c0.119,0.32,2.909,7.502,16.378,7.502
			c0.5,0,1.019-0.016,1.55-0.035c6.384,5.541,18.402,8.8,32.666,8.8c0.229,0,0.455-0.002,0.684-0.004
			c11.189-0.078,25.395-2.453,32.746-8.793c14.754,0.547,17.746-7.136,17.869-7.472l0.123-0.33l0.021-0.354
			C115.865,84.693,93.41,74.021,93.184,73.918z M109.598,111.363c-0.586,0.924-3.227,4.119-11.492,4.191
			c0.24-4.464,0.656-14.515,0.064-23.021l-4.74,0.33c0.637,9.127,0.051,20.477-0.146,23.754c-5.272,4.609-16.783,7.611-29.762,7.705
			c-13.298,0.115-24.809-2.84-30.306-7.707c-0.213-3.213-0.852-14.316-0.246-23.604L28.231,92.7
			c-0.563,8.614-0.108,18.446,0.156,22.854c-8.366-0.066-10.99-3.318-11.531-4.177c-1.065-23.271,16.821-32.388,18.328-33.11
			l9.566-3.52l15.506,8.648l5.938,0.092l15.437-8.746l9.646,3.521C92.824,79.016,110.65,88.135,109.598,111.363z"/>
		<path fill="#FF0000" d="M71.688,11.224c-0.084-1.763-0.278-2.937-0.77-3.485c-0.77-0.865-3.1-0.907-7.152-0.907
			c-3.995,0-6.395,0-7.164,0.853c-0.487,0.541-0.682,1.733-0.763,3.539c2.496-0.824,5.156-1.275,7.921-1.275
			C66.529,9.947,69.191,10.398,71.688,11.224z"/>
		<path fill="#FF0000" d="M55.781,19.612c0,4.501,0,7.218,0.823,8.129c0.77,0.852,3.175,0.852,7.162,0.852
			c3.984,0,6.391,0,7.158-0.852c0.824-0.911,0.824-3.627,0.824-8.129v-3.8c0-1.835-0.004-3.353-0.063-4.589
			c-2.496-0.824-5.158-1.275-7.931-1.275c-2.765,0-5.425,0.451-7.921,1.275c-0.055,1.239-0.059,2.759-0.059,4.589v3.8H55.781z"/>
	</g>
</g>
<g id="Calque_3_1_" display="none">
	<g display="inline">
		<path fill="#FF0000" d="M78.176,38.32c3.781-18.104-7.773-28.311-22.814-28.311c-26.96,0-22.255,29.539-22.255,29.539
			c0.029,0.003,0.058,0.004,0.087,0.007c-1.231,2.785-1.595,7.457,4.25,13.417c3.339,9.768,9.626,17.189,18.576,17.189
			c8.621,0,14.998-7.314,18.445-17.069C81.426,46.075,79.783,40.83,78.176,38.32z M56.02,65.436
			c-9.302,0-15.394-12.708-16.463-25.774c11.693-0.688,19.433-6.228,23.595-10.293c1.979,3.558,6.075,5.944,9.485,7.399
			C72.295,50.78,66.006,65.436,56.02,65.436z"/>
	</g>
	<g display="inline">
		<path fill="none" d="M50.838,120.217c-0.81-0.252-1.482-0.887-1.742-1.74L35.443,73.42c-0.232-0.768-0.098-1.563,0.309-2.188
			l-8.486,3.121c-1.233,0.594-20.855,10.442-19.47,35.432c0.221,0.514,2.729,5.713,13.817,5.713
			c0.459-0.002,0.944-0.016,1.438-0.033c0.035-0.002,0.071-0.004,0.105-0.004c0.631,0,1.243,0.229,1.721,0.645
			c5.126,4.449,14.591,7.326,25.879,7.976l-0.196-0.201L50.838,120.217z"/>
		<path fill="none" d="M84.803,74.373l-8.34-3.066c0.402,0.627,0.537,1.418,0.305,2.185l-13.801,45.545
			c-0.257,0.854-0.926,1.483-1.732,1.737l0.236,3.104l-0.139,0.144c9.482-0.644,20.119-2.947,25.883-7.916
			c0.502-0.437,1.146-0.646,1.813-0.638c0.478,0.019,0.941,0.031,1.394,0.031c11.021-0.002,13.565-5.142,13.815-5.715
			C105.607,85.096,86.465,75.186,84.803,74.373z"/>
		<path fill="#FF0000" d="M86.918,69.563c-0.063-0.024-0.121-0.053-0.184-0.071l-13.566-4.994c-1.326-0.488-2.801,0.162-3.336,1.467
			l-1.795,4.373c-0.27,0.662-0.264,1.399,0.023,2.062c0.289,0.647,0.83,1.162,1.5,1.401l1.461,0.539l-8.792,29.021l-0.903-15.814
			c-0.015-0.24-0.06-0.473-0.136-0.691l2.426-3.438c0.455-0.646,0.596-1.461,0.383-2.224c-0.045-0.159-0.053-0.188-1.699-4.452
			c-0.416-1.076-1.477-1.753-2.623-1.677c-0.276,0.011-1.619,0.019-3.659,0.019c-2.043,0-3.385-0.008-3.663-0.019
			c-1.139-0.086-2.203,0.595-2.621,1.668c-2.023,5.205-2.023,5.205-1.583,6.215c0.072,0.166,0.159,0.318,0.263,0.47l2.427,3.438
			c-0.074,0.223-0.121,0.451-0.134,0.691l-0.873,15.258L41.19,74.271l1.304-0.48c0.671-0.246,1.213-0.756,1.5-1.41
			c0.286-0.652,0.294-1.396,0.021-2.061l-1.811-4.371c-0.541-1.301-2.014-1.945-3.333-1.459l-13.398,4.926
			c-0.032,0.01-0.063,0.021-0.093,0.035l-0.174,0.07c-0.033,0.016-0.064,0.024-0.095,0.043c-0.242,0.106-24.2,11.438-22.556,40.561
			l0.02,0.352c0.015,0.26,0.067,0.517,0.156,0.758l0.12,0.326c0.345,0.939,3.797,9.189,18.767,9.189
			c0.206,0,0.415-0.004,0.628-0.008c7.023,5.557,19.108,8.725,33.408,8.725h0.011l0.697-0.002
			c5.388-0.039,23.369-0.793,33.474-8.721c0.195,0.004,0.393,0.006,0.582,0.006c14.988-0.002,18.422-8.256,18.764-9.193l0.119-0.328
			c0.09-0.237,0.143-0.487,0.154-0.746l0.021-0.354C111.125,80.963,87.16,69.672,86.918,69.563z M50.56,81.691
			c-0.009-0.021,1.623-4.215,1.623-4.215c0.191,0.024,7.479,0.024,7.669,0c0,0,1.603,4.147,1.621,4.215l-2.593,3.682h-5.725
			L50.56,81.691z M104.236,109.783c-0.25,0.574-2.797,5.713-13.818,5.715c-0.445,0-0.916-0.016-1.391-0.031
			c-0.664-0.01-1.313,0.201-1.813,0.637c-5.764,4.967-16.397,7.273-25.883,7.916l-5.315,3.396l-5.261-3.338
			c-11.288-0.646-20.753-3.521-25.879-7.973c-0.478-0.416-1.089-0.646-1.721-0.646c-0.034,0-0.071,0.002-0.105,0.004
			c-0.494,0.021-0.979,0.029-1.438,0.031c-11.088,0-13.596-5.199-13.817-5.711C6.41,84.802,26.032,74.945,27.265,74.352l8.486-3.121
			c-0.406,0.627-0.541,1.422-0.309,2.188l13.653,45.058c0.26,0.854,0.933,1.487,1.742,1.739l2.49-32.729h5.376l2.53,33.281
			c0.807-0.254,1.476-0.887,1.73-1.735l13.803-45.548c0.23-0.764,0.098-1.557-0.307-2.182l8.342,3.066
			C86.465,75.186,105.607,85.096,104.236,109.783z"/>
		<path fill="#FFFFFF" d="M57.516,82.945l1.003-1.424c-0.146-0.377-0.307-0.799-0.463-1.199c-0.527,0-1.194,0-2.038,0
			c-0.849,0-1.517,0-2.045,0c-0.167,0.432-0.326,0.84-0.464,1.195l1.007,1.428H57.516z"/>
		<path fill="#FFFFFF" d="M58.879,85.373l2.592-3.682c-0.018-0.064-1.62-4.215-1.62-4.215c-0.19,0.024-7.478,0.024-7.669,0
			c0,0-1.631,4.192-1.623,4.215l2.596,3.682H58.879z"/>
	</g>
	<g display="inline">
		<path fill="#FF0000" d="M89.855,26.392c0,0.507-0.41,0.918-0.918,0.918H84.92c-0.508,0-0.918-0.411-0.918-0.918v-4.016
			c0-0.507,0.41-0.918,0.918-0.918h4.018c0.508,0,0.918,0.411,0.918,0.918V26.392L89.855,26.392z"/>
		<path fill="#FF0000" d="M98.404,26.392c0,0.507-0.41,0.918-0.918,0.918h-4.021c-0.508,0-0.918-0.411-0.918-0.918v-4.016
			c0-0.507,0.41-0.918,0.918-0.918h4.021c0.508,0,0.918,0.411,0.918,0.918V26.392z"/>
		<path fill="#FF0000" d="M106.895,26.392c0,0.507-0.41,0.918-0.918,0.918h-4.016c-0.508,0-0.918-0.411-0.918-0.918v-4.016
			c0-0.507,0.41-0.918,0.918-0.918h4.016c0.508,0,0.918,0.411,0.918,0.918V26.392z"/>
	</g>
	<g display="inline">
		<path fill="none" d="M79.258,37.288c0,0.41-0.012,0.815-0.025,1.221h8.834v10.819l8.813-10.819h23.804v-28.25H70.221v4.573
			C75.75,20.248,79.258,28.294,79.258,37.288z"/>
		<path fill="#FF0000" d="M122.588,5.258H68.311c-1.729,0-3.09,1.461-3.09,3.326v3.522c1.801,1.056,3.479,1.233,5,2.726v-4.574
			h50.455v28.25H96.877l-8.811,10.819V38.508l-9.894-0.188c-0.063,1.708,0.812,3.566,0.509,5.188h4.385v19.876l16.188-19.876h23.334
			c1.732,0,3.09-1.461,3.09-3.326V8.585C125.676,6.719,124.32,5.258,122.588,5.258z"/>
	</g>
</g>
<circle fill="none" stroke="#FF0000" stroke-width="5" stroke-linecap="round" stroke-linejoin="round" stroke-miterlimit="10" cx="97.02" cy="98.274" r="26.589"/>
<polyline fill="none" stroke="#FF0000" stroke-width="5" stroke-linecap="round" stroke-linejoin="round" stroke-miterlimit="10" points="
	83.626,97.072 92.733,111.07 110.413,87.883 "/>
<g>
	<path fill="#FF0000" d="M56.991,56.514c0-7.701-4.372-13.391-12.143-13.391c-7.701,0-12.628,6.105-12.628,14.154
		c0,8.465,5.412,13.6,12.282,13.6C51.023,70.877,56.991,65.95,56.991,56.514z M44.709,65.117c-3.054,0-4.649-3.399-4.649-8.118
		c0-4.509,1.457-8.118,4.579-8.118c3.261,0,4.51,3.539,4.51,8.118C49.15,62.064,47.693,65.117,44.709,65.117z"/>
	<polygon fill="#FF0000" points="70.937,43.123 45.057,89.75 50.676,89.75 76.626,43.123 	"/>
	<path fill="#FF0000" d="M75.115,83.206c-1.698-1.199-2.565-3.971-2.514-7.472c0-4.511,1.388-8.119,4.579-8.119
		c3.261,0,4.44,3.539,4.44,8.119c0,0.301-0.005,0.594-0.016,0.881c2.317-1.651,4.908-2.943,7.695-3.788
		c-0.835-6.44-5.052-10.971-11.981-10.971c-7.701,0-12.628,6.106-12.628,14.154c0.052,6.36,3.121,10.84,7.529,12.674
		C72.974,86.736,73.947,84.899,75.115,83.206z"/>
</g>
<path fill="none" stroke="#FF0000" stroke-width="5" stroke-linecap="round" stroke-linejoin="round" stroke-miterlimit="10" d="
	M70.431,98.274c0-14.686,11.903-26.59,26.589-26.59c9.193,0,17.296,4.666,22.071,11.759l2.803-1.448L111.81,66.268l10.084-15.725
	l-16.595-8.579l0.867-18.66l-18.66,0.868L78.928,7.577L63.202,17.659L47.475,7.577l-8.578,16.595l-18.661-0.869l0.868,18.661
	L4.51,50.543l10.082,15.725L4.51,81.995l16.594,8.578l-0.868,18.66l18.661-0.869l8.578,16.596l15.727-10.082l15.726,10.082
	l2.619-5.068C74.818,115.067,70.431,107.186,70.431,98.274z"/>
</svg>
