<?xml version="1.0" encoding="utf-8"?>
<!-- Generator: Adobe Illustrator 16.0.0, SVG Export Plug-In . SVG Version: 6.00 Build 0)  -->
<!DOCTYPE svg PUBLIC "-//W3C//DTD SVG 1.1//EN" "http://www.w3.org/Graphics/SVG/1.1/DTD/svg11.dtd">
<svg version="1.1" id="Calque_1" xmlns="http://www.w3.org/2000/svg" xmlns:xlink="http://www.w3.org/1999/xlink" x="0px" y="0px"
	 width="128px" height="128px" viewBox="0 0 128 128" enable-background="new 0 0 128 128" xml:space="preserve">
<g>
	<g>
		<path fill="none" stroke="#FF0000" stroke-width="5" stroke-linecap="round" stroke-linejoin="round" stroke-miterlimit="10" d="
			M65.854,5.302c0,0,1.309,24.953-17.927,34.392c-2.682,1.366-3.485,2.732-3.492,3.875c0.009,1.143,0.812,2.51,3.491,3.875
			c19.239,9.441,17.93,34.394,17.93,34.394L13.249,81.84c0,0-1.309-24.953,17.929-34.393c2.679-1.367,3.484-2.734,3.492-3.875
			c-0.007-1.144-0.812-2.511-3.493-3.875C11.938,30.254,13.247,5.3,13.247,5.3L65.854,5.302z"/>
	</g>
</g>
<line fill="none" stroke="#FF0000" stroke-width="5" stroke-linecap="round" stroke-linejoin="round" stroke-miterlimit="10" x1="115.479" y1="25.867" x2="95.482" y2="83.154"/>
<line fill="none" stroke="#FF0000" stroke-width="5" stroke-linecap="round" stroke-linejoin="round" stroke-miterlimit="10" x1="28.432" y1="96.114" x2="71.055" y2="110.99"/>
<circle fill="none" stroke="#FF0000" stroke-width="5" stroke-miterlimit="10" cx="95.461" cy="108.464" r="16.848"/>
</svg>
