<?xml version="1.0" encoding="utf-8"?>
<!-- Generator: Adobe Illustrator 16.0.0, SVG Export Plug-In . SVG Version: 6.00 Build 0)  -->
<!DOCTYPE svg PUBLIC "-//W3C//DTD SVG 1.1//EN" "http://www.w3.org/Graphics/SVG/1.1/DTD/svg11.dtd">
<svg version="1.1" xmlns="http://www.w3.org/2000/svg" xmlns:xlink="http://www.w3.org/1999/xlink" x="0px" y="0px" width="128px"
	 height="128px" viewBox="0 0 128 128" enable-background="new 0 0 128 128" xml:space="preserve">
<g id="Calque_2">
	<circle fill="none" stroke="#FF0000" stroke-width="5" stroke-miterlimit="10" cx="65.313" cy="64.313" r="58.334"/>
</g>
<g id="Calque_3">
	<g>
		<path fill="none" stroke="#FF0000" stroke-width="5" stroke-miterlimit="10" d="M69.848,95.426c1.215,0,2.197,0.984,2.197,2.197
			v7.178c0,1.213-0.982,2.197-2.197,2.197H42.604c-1.213,0-2.197-0.984-2.197-2.197v-7.178c0-1.213,0.984-2.197,2.197-2.197H69.848z
			"/>
		<g>
			<g>
				<g>
					<path fill="none" stroke="#FF0000" stroke-width="5" stroke-miterlimit="10" d="M68.148,52.837V26.952
						c-0.004-2.94-2.381-5.319-5.319-5.323l0,0c-2.94,0.004-5.324,2.383-5.324,5.323l0,0v25.885l0,0"/>
				</g>
			</g>
		</g>
		<g>
			<g>
				<g>
					
						<path fill="none" stroke="#FF0000" stroke-width="5" stroke-linecap="round" stroke-linejoin="round" stroke-miterlimit="10" d="
						M57.21,31.39c0-2.942-2.381-5.319-5.319-5.319l0,0c-2.936,0-5.32,2.377-5.32,5.319l0,0v21.447l0,0"/>
				</g>
			</g>
		</g>
		<g>
			<g>
				<g>
					<path fill="none" stroke="#FF0000" stroke-miterlimit="10" d="M70.037,82.048"/>
					<path fill="none" stroke="#FF0000" stroke-miterlimit="10" d="M72.957,80.648"/>
					
						<path fill="none" stroke="#FF0000" stroke-width="5" stroke-linecap="round" stroke-linejoin="round" stroke-miterlimit="10" d="
						M46.276,41.745c0-2.939-2.384-5.319-5.322-5.319l0,0c-2.937,0-5.319,2.38-5.319,5.319l0,0c0,0,0,27.431,0,27.445
						c0,0,2.537,19.112,10.269,23.135c4.833,2.513,20.648,1.354,20.648,1.354c6.223-2.551,24.996-33.115,27.066-36.585l0,0
						c0.396-0.703,1.342-2.127,1.373-3.886l0,0c0-3.449-0.529-5.403-3.977-5.403l0,0c-2.139,0-4.035,1.074-5.156,2.713l0,0
						l-9.781,14.169l3.01-30.338c0-2.939-2.385-5.32-5.324-5.32l0,0c-2.939,0-5.316,2.381-5.318,5.32l0,0"/>
				</g>
			</g>
		</g>
	</g>
</g>
</svg>
