<?xml version="1.0" encoding="utf-8"?>
<!-- Generator: Adobe Illustrator 16.0.0, SVG Export Plug-In . SVG Version: 6.00 Build 0)  -->
<!DOCTYPE svg PUBLIC "-//W3C//DTD SVG 1.1//EN" "http://www.w3.org/Graphics/SVG/1.1/DTD/svg11.dtd">
<svg version="1.1" id="Calque_2" xmlns="http://www.w3.org/2000/svg" xmlns:xlink="http://www.w3.org/1999/xlink" x="0px" y="0px"
	 width="128px" height="128px" viewBox="0 0 128 128" enable-background="new 0 0 128 128" xml:space="preserve">
<line fill="none" stroke="#FF0000" stroke-width="5" stroke-miterlimit="10" x1="59.833" y1="41.134" x2="65.499" y2="41.134"/>
<path fill="#FF0000" d="M66.249,1H4C2.343,1,1,2.344,1,4v62.25c0,1.657,1.343,3,3,3h62.249c1.658,0,3-1.343,3-3V4
	C69.249,2.344,67.907,1,66.249,1z M16.229,54.572c-2.768,0-5.012-2.242-5.012-5.01s2.244-5.01,5.012-5.01
	c2.766,0,5.01,2.242,5.01,5.01S18.995,54.572,16.229,54.572z M16.229,39.335c-2.768,0-5.012-2.243-5.012-5.01
	c0-2.768,2.244-5.011,5.012-5.011c2.766,0,5.01,2.243,5.01,5.011C21.239,37.092,18.995,39.335,16.229,39.335z M16.229,24.098
	c-2.768,0-5.012-2.244-5.012-5.01c0-2.768,2.244-5.012,5.012-5.012c2.766,0,5.01,2.244,5.01,5.012
	C21.239,21.854,18.995,24.098,16.229,24.098z M54.856,53.721H31.128c-2.305,0-4.174-1.87-4.174-4.176s1.869-4.176,4.174-4.176
	h23.729c2.305,0,4.174,1.87,4.174,4.176S57.161,53.721,54.856,53.721z M54.856,38.482H31.128c-2.305,0-4.174-1.869-4.174-4.176
	c0-2.305,1.869-4.175,4.174-4.175h23.729c2.305,0,4.174,1.87,4.174,4.175C59.03,36.613,57.161,38.482,54.856,38.482z M54.856,23.244
	H31.128c-2.305,0-4.174-1.869-4.174-4.175s1.869-4.175,4.174-4.175h23.729c2.305,0,4.174,1.869,4.174,4.175
	S57.161,23.244,54.856,23.244z"/>
<line fill="none" stroke="#FF0000" stroke-width="5" stroke-linecap="round" stroke-miterlimit="10" x1="73.795" y1="59.021" x2="93.549" y2="59.021"/>
<line fill="none" stroke="#FF0000" stroke-width="5" stroke-linecap="round" stroke-miterlimit="10" x1="73.795" y1="76.99" x2="101.917" y2="76.99"/>
<line fill="none" stroke="#FF0000" stroke-width="5" stroke-linecap="round" stroke-miterlimit="10" x1="73.795" y1="91.876" x2="101.917" y2="91.876"/>
<line fill="none" stroke="#FF0000" stroke-width="5" stroke-linecap="round" stroke-miterlimit="10" x1="73.795" y1="106.763" x2="101.917" y2="106.763"/>
<g>
	<path fill="none" stroke="#FF0000" stroke-width="5" stroke-linecap="round" stroke-miterlimit="10" d="M52.512,75.15v46.08
		c0,2.301,1.865,4.166,4.166,4.166h64.553c2.301,0,4.166-1.865,4.166-4.166V44.002h-16.953c-2.301,0-4.166-1.865-4.166-4.166V23.785
		H74.646"/>
</g>
<line fill="none" stroke="#FF0000" stroke-width="5" stroke-linecap="round" stroke-linejoin="round" stroke-miterlimit="10" x1="105.672" y1="23.785" x2="125.396" y2="42.939"/>
</svg>
