<?xml version="1.0" encoding="utf-8"?>
<!-- Generator: Adobe Illustrator 16.0.0, SVG Export Plug-In . SVG Version: 6.00 Build 0)  -->
<!DOCTYPE svg PUBLIC "-//W3C//DTD SVG 1.1//EN" "http://www.w3.org/Graphics/SVG/1.1/DTD/svg11.dtd">
<svg version="1.1" id="Calque_1" xmlns="http://www.w3.org/2000/svg" xmlns:xlink="http://www.w3.org/1999/xlink" x="0px" y="0px"
	 width="128px" height="128px" viewBox="0 0 128 128" enable-background="new 0 0 128 128" xml:space="preserve">
<g id="Calque_4">
	<g>
		<path fill="none" stroke="#FF0000" stroke-miterlimit="10" d="M86.996,70.031c-0.002,4.377-1.261,8.755-3.776,12.577
			c-3.464,5.258-8.789,8.821-14.984,10.032c-1.531,0.299-5.015,0.488-6.358,0.344c-1.327-0.14-3.808-0.677-5.051-1.089
			c-8.005-2.655-13.818-9.299-15.493-17.707c-0.23-1.162-0.345-2.658-0.345-4.157"/>
		<path fill="none" stroke="#FF0000" stroke-width="5" stroke-miterlimit="10" d="M7.261,70.031v7.711
			c0.05,0.066,0.124,0.152,0.193,0.222l4.192,0.033l5.395,0.041l3.505,0.028l1.049,3.345l0.533,1.694
			c0.717,2.285,1.534,4.284,2.731,6.687l1.174,2.358l1.543,3.098l-2.441,2.448l-3.647,3.66c-1.053,1.057-2.434,2.443-3.025,3.145
			c0.757,0.902,2.697,2.851,5.245,5.398l0.176,0.179c2.5,2.506,4.699,4.71,5.618,5.475c0.598-0.543,1.667-1.554,3.146-3.026
			l3.72-3.71l2.532-2.52l3.146,1.69l1.138,0.608c2.522,1.354,5.888,2.784,8.18,3.477l1.267,0.383l3.387,1.026l0.029,3.541
			l0.044,5.396l0.034,4.227c0.059,0.055,0.135,0.106,0.199,0.137c0.765,0.029,3.083,0.062,6.682,0.062l1.502-0.003
			c3.944-0.013,6.337-0.021,7.228-0.07c0.054-0.041,0.111-0.092,0.162-0.143l0.033-4.192l0.045-5.392l0.026-3.501l3.34-1.052
			l1.648-0.52c2.316-0.73,4.084-1.45,6.52-2.66c2.916-1.444,3.441-1.705,4.674-1.705c2.098,0,2.382,0.283,7.138,5.021
			c1.049,1.046,2.42,2.417,3.117,3.001c0.901-0.755,2.856-2.713,5.425-5.284l0.211-0.21c2.656-2.662,4.673-4.682,5.406-5.551
			c-0.544-0.598-1.551-1.665-3.025-3.147l-3.71-3.721l-2.546-2.549l1.733-3.162l0.54-0.988c1.303-2.382,2.82-5.949,3.53-8.292
			l0.381-1.262l1.025-3.388l3.54-0.029l5.398-0.045l4.2-0.032c0.069-0.073,0.143-0.154,0.192-0.224v-7.711"/>
		<path fill="none" stroke="#FF0000" stroke-width="5" stroke-miterlimit="10" d="M40.989,70.031c0,1.499,0.115,2.995,0.345,4.157
			c1.674,8.408,7.486,15.049,15.493,17.707c1.243,0.412,3.726,0.949,5.051,1.089c1.343,0.145,4.827-0.045,6.358-0.344
			c6.195-1.211,11.521-4.774,14.984-10.032c2.516-3.822,3.774-8.2,3.776-12.577"/>
	</g>
</g>
<path fill="#FF0000" d="M66.25,1H4C2.343,1,1,2.343,1,4v62.25c0,1.656,1.343,3,3,3h62.25c1.656,0,3-1.344,3-3V4
	C69.25,2.343,67.906,1,66.25,1z M16.229,54.572c-2.768,0-5.011-2.241-5.011-5.01s2.243-5.011,5.011-5.011
	c2.767,0,5.01,2.242,5.01,5.011S18.996,54.572,16.229,54.572z M16.229,39.334c-2.768,0-5.011-2.242-5.011-5.01
	s2.243-5.011,5.011-5.011c2.767,0,5.01,2.243,5.01,5.011C21.239,37.09,18.996,39.334,16.229,39.334z M16.229,24.097
	c-2.768,0-5.011-2.244-5.011-5.01c0-2.768,2.243-5.012,5.011-5.012c2.767,0,5.01,2.244,5.01,5.012
	C21.239,21.853,18.996,24.097,16.229,24.097z M54.856,53.72H31.129c-2.305,0-4.174-1.87-4.174-4.177
	c0-2.306,1.869-4.176,4.174-4.176h23.727c2.307,0,4.176,1.87,4.176,4.176C59.032,51.85,57.163,53.72,54.856,53.72z M54.856,38.482
	H31.129c-2.305,0-4.174-1.869-4.174-4.176c0-2.305,1.869-4.175,4.174-4.175h23.727c2.307,0,4.176,1.87,4.176,4.175
	C59.032,36.613,57.163,38.482,54.856,38.482z M54.856,23.244H31.129c-2.305,0-4.174-1.869-4.174-4.175
	c0-2.306,1.869-4.175,4.174-4.175h23.727c2.307,0,4.176,1.869,4.176,4.175C59.032,21.375,57.163,23.244,54.856,23.244z"/>
<g>
	<g>
		<path fill="none" stroke="#FF0000" stroke-width="5" stroke-linecap="round" stroke-linejoin="round" stroke-miterlimit="10" d="
			M83.23,50.16c0,5.056,4.099,9.157,9.15,9.157h13.32c5.052,0,9.159-4.101,9.159-9.157l0,0c0-5.052-4.107-9.152-9.159-9.152h-13.32
			c-5.052,0-9.15-4.098-9.15-9.15l0,0c0-5.054,4.098-9.152,9.15-9.152h13.32c5.052,0,9.159,4.098,9.159,9.152l0,0"/>
	</g>
	
		<line fill="none" stroke="#FF0000" stroke-width="5" stroke-linecap="round" stroke-linejoin="round" stroke-miterlimit="10" x1="99.046" y1="22.706" x2="99.046" y2="14.171"/>
	
		<line fill="none" stroke="#FF0000" stroke-width="5" stroke-linecap="round" stroke-linejoin="round" stroke-miterlimit="10" x1="99.046" y1="67.848" x2="99.046" y2="59.312"/>
</g>
</svg>
