<?xml version="1.0" encoding="utf-8"?>
<!-- Generator: Adobe Illustrator 16.0.0, SVG Export Plug-In . SVG Version: 6.00 Build 0)  -->
<!DOCTYPE svg PUBLIC "-//W3C//DTD SVG 1.1//EN" "http://www.w3.org/Graphics/SVG/1.1/DTD/svg11.dtd">
<svg version="1.1" id="Calque_1" xmlns="http://www.w3.org/2000/svg" xmlns:xlink="http://www.w3.org/1999/xlink" x="0px" y="0px"
	 width="128px" height="128px" viewBox="0 0 128 128" enable-background="new 0 0 128 128" xml:space="preserve">
<g>
	<g id="Calque_3">
		
			<line fill="none" stroke="#FF0000" stroke-width="5" stroke-linecap="round" stroke-linejoin="round" stroke-miterlimit="10" x1="4.012" y1="51.508" x2="46.234" y2="51.508"/>
		<path fill="none" stroke="#FF0000" stroke-width="5" stroke-linecap="round" stroke-linejoin="round" stroke-miterlimit="10" d="
			M12.799,51.508c0,0,1.337,21.21,26.936,29.422"/>
		<path fill="none" stroke="#FF0000" stroke-width="5" stroke-linecap="round" stroke-linejoin="round" stroke-miterlimit="10" d="
			M37.826,51.508c0,0-0.191,23.692-32.67,32.479"/>
		
			<line fill="none" stroke="#FF0000" stroke-width="5" stroke-linecap="round" stroke-linejoin="round" stroke-miterlimit="10" x1="25.125" y1="43.295" x2="28.846" y2="51.508"/>
	</g>
	<g>
		<path fill="#FF0000" d="M73.888,84.705c-2.742,0-5.272-0.403-7.593-1.213c-2.319-0.807-4.313-2.014-5.98-3.615
			c-1.668-1.602-2.959-3.598-3.877-5.991c-0.915-2.394-1.373-5.16-1.373-8.296c0-2.923,0.437-5.572,1.313-7.949
			c0.874-2.378,2.145-4.418,3.813-6.118c1.601-1.635,3.586-2.898,5.956-3.789c2.369-0.892,4.958-1.337,7.767-1.337
			c1.551,0,2.948,0.086,4.196,0.261c1.247,0.175,2.398,0.4,3.455,0.681c1.104,0.313,2.104,0.665,3.008,1.051
			c0.901,0.39,1.689,0.749,2.364,1.078v8.94h-1.088c-0.463-0.394-1.045-0.863-1.745-1.404c-0.703-0.543-1.501-1.077-2.392-1.603
			c-0.907-0.525-1.891-0.969-2.946-1.331c-1.057-0.362-2.188-0.542-3.393-0.542c-1.338,0-2.607,0.21-3.814,0.631
			c-1.204,0.421-2.32,1.117-3.343,2.09c-0.975,0.938-1.763,2.183-2.365,3.732c-0.604,1.548-0.904,3.426-0.904,5.636
			c0,2.305,0.326,4.234,0.978,5.781c0.651,1.551,1.474,2.769,2.464,3.659c1.007,0.906,2.129,1.553,3.369,1.94
			c1.236,0.388,2.456,0.581,3.665,0.581c1.153,0,2.3-0.172,3.43-0.517c1.129-0.345,2.174-0.814,3.131-1.404
			c0.811-0.477,1.562-0.985,2.254-1.527c0.696-0.543,1.264-1.011,1.709-1.404h0.988v8.817c-0.923,0.414-1.808,0.801-2.648,1.165
			c-0.84,0.364-1.725,0.677-2.647,0.939c-1.207,0.347-2.339,0.612-3.393,0.792C77.189,84.614,75.736,84.705,73.888,84.705z"/>
		<path fill="#FF0000" d="M128,83.987h-9.822l-2.566-7.454h-13.646l-2.57,7.454h-9.581l13.621-36.875h10.949L128,83.987z
			 M113.325,69.772l-4.537-13.21l-4.537,13.21H113.325z"/>
	</g>
</g>
<g id="Calque_2">
</g>
</svg>
