<?xml version="1.0" encoding="utf-8"?>
<!-- Generator: Adobe Illustrator 16.0.0, SVG Export Plug-In . SVG Version: 6.00 Build 0)  -->
<!DOCTYPE svg PUBLIC "-//W3C//DTD SVG 1.1//EN" "http://www.w3.org/Graphics/SVG/1.1/DTD/svg11.dtd">
<svg version="1.1" id="Calque_2" xmlns="http://www.w3.org/2000/svg" xmlns:xlink="http://www.w3.org/1999/xlink" x="0px" y="0px"
	 width="128px" height="128px" viewBox="0 0 128 128" enable-background="new 0 0 128 128" xml:space="preserve">
<g>
	<path fill="none" stroke="#FF0000" stroke-width="5" stroke-linecap="round" stroke-linejoin="round" stroke-miterlimit="10" d="
		M83.385,46.263c0-6.134-5.023-11.156-11.156-11.156H55.77c-6.137,0-11.155,5.024-11.155,11.156v6.578
		c0,6.139,5.019,11.155,11.155,11.155h16.458c6.133,0,11.153,5.021,11.153,11.158v6.576c0,6.144-5.021,11.159-11.153,11.159H55.77
		c-6.137,0-11.155-5.021-11.155-11.159"/>
	
		<line fill="none" stroke="#FF0000" stroke-width="5" stroke-linecap="round" stroke-linejoin="round" stroke-miterlimit="10" x1="63.998" y1="35.106" x2="63.998" y2="23.742"/>
	
		<line fill="none" stroke="#FF0000" stroke-width="5" stroke-linecap="round" stroke-linejoin="round" stroke-miterlimit="10" x1="63.998" y1="104.257" x2="63.998" y2="92.89"/>
</g>
<path fill="none" stroke="#FF0000" stroke-width="5" stroke-miterlimit="10" d="M120.435,110.174
	c0,5.667-4.594,10.261-10.261,10.261H17.826c-5.667,0-10.261-4.594-10.261-10.261V17.826c0-5.667,4.594-10.261,10.261-10.261h92.348
	c5.667,0,10.261,4.594,10.261,10.261V110.174z"/>
</svg>
