<?xml version="1.0" encoding="utf-8"?>
<!-- Generator: Adobe Illustrator 16.0.0, SVG Export Plug-In . SVG Version: 6.00 Build 0)  -->
<!DOCTYPE svg PUBLIC "-//W3C//DTD SVG 1.1//EN" "http://www.w3.org/Graphics/SVG/1.1/DTD/svg11.dtd">
<svg version="1.1" id="Calque_1" xmlns="http://www.w3.org/2000/svg" xmlns:xlink="http://www.w3.org/1999/xlink" x="0px" y="0px"
	 width="128px" height="128px" viewBox="0 0 128 128" enable-background="new 0 0 128 128" xml:space="preserve">
<g>
	<circle fill="#FF0000" cx="67.174" cy="86.071" r="6.149"/>
	<circle fill="#FF0000" cx="89.277" cy="86.071" r="6.149"/>
	<circle fill="#FF0000" cx="45.297" cy="86.071" r="6.149"/>
</g>
<path fill="#FF0000" d="M66.25,1H4C2.343,1,1,2.343,1,4v62.25c0,1.656,1.343,3,3,3h62.25c1.656,0,3-1.344,3-3V4
	C69.25,2.343,67.906,1,66.25,1z M16.229,54.572c-2.768,0-5.011-2.242-5.011-5.01c0-2.77,2.243-5.012,5.011-5.012
	c2.767,0,5.01,2.242,5.01,5.012C21.239,52.33,18.996,54.572,16.229,54.572z M16.229,39.334c-2.768,0-5.011-2.242-5.011-5.01
	s2.243-5.01,5.011-5.01c2.767,0,5.01,2.242,5.01,5.01C21.239,37.09,18.996,39.334,16.229,39.334z M16.229,24.098
	c-2.768,0-5.011-2.244-5.011-5.011c0-2.769,2.243-5.013,5.011-5.013c2.767,0,5.01,2.244,5.01,5.013
	C21.239,21.854,18.996,24.098,16.229,24.098z M54.855,53.721H31.129c-2.305,0-4.174-1.871-4.174-4.178
	c0-2.305,1.869-4.176,4.174-4.176h23.726c2.307,0,4.176,1.871,4.176,4.176C59.031,51.85,57.162,53.721,54.855,53.721z
	 M54.855,38.482H31.129c-2.305,0-4.174-1.869-4.174-4.176c0-2.306,1.869-4.176,4.174-4.176h23.726c2.307,0,4.176,1.87,4.176,4.176
	C59.031,36.613,57.162,38.482,54.855,38.482z M54.855,23.244H31.129c-2.305,0-4.174-1.869-4.174-4.176
	c0-2.305,1.869-4.174,4.174-4.174h23.726c2.307,0,4.176,1.869,4.176,4.174C59.031,21.375,57.162,23.244,54.855,23.244z"/>
<polyline fill="none" stroke="#FF0000" stroke-width="5" stroke-linecap="round" stroke-linejoin="round" stroke-miterlimit="10" points="
	125.497,53.081 115.195,58.408 102.197,95.646 "/>
<line fill="none" stroke="#FF0000" stroke-width="5" stroke-linecap="round" stroke-linejoin="round" stroke-miterlimit="10" x1="58.615" y1="104.069" x2="86.32" y2="113.738"/>
<circle fill="none" stroke="#FF0000" stroke-width="5" stroke-miterlimit="10" cx="102.185" cy="112.096" r="10.951"/>
</svg>
