<?xml version="1.0" encoding="utf-8"?>
<!-- Generator: Adobe Illustrator 16.0.0, SVG Export Plug-In . SVG Version: 6.00 Build 0)  -->
<!DOCTYPE svg PUBLIC "-//W3C//DTD SVG 1.1//EN" "http://www.w3.org/Graphics/SVG/1.1/DTD/svg11.dtd">
<svg version="1.1" id="Calque_1" xmlns="http://www.w3.org/2000/svg" xmlns:xlink="http://www.w3.org/1999/xlink" x="0px" y="0px"
	 width="128px" height="128px" viewBox="0 0 128 128" enable-background="new 0 0 128 128" xml:space="preserve">
<g id="Calque_3_1_">
</g>
<g id="Calque_3" display="none">
	<g id="Icones" display="inline">
		<g id="Artboard" transform="translate(-1260.000000, -550.000000)">
			<g id="icone-signature-du-contrat-franchise" transform="translate(1249.000000, 539.000000)">
				<g id="Rectangle">
				</g>
				<defs>
					<filter id="Adobe_OpacityMaskFilter" filterUnits="userSpaceOnUse" x="17.292" y="14.03" width="119.208" height="121.625">
						<feColorMatrix  type="matrix" values="1 0 0 0 0  0 1 0 0 0  0 0 1 0 0  0 0 0 1 0"/>
					</filter>
				</defs>
				<mask maskUnits="userSpaceOnUse" x="17.292" y="14.03" width="119.208" height="121.625" id="mask-2_1_">
					<g filter="url(#Adobe_OpacityMaskFilter)">
						<rect id="path-1_1_" x="10.359" y="6.755" fill="#FFFFFF" width="135.157" height="135.158"/>
					</g>
				</mask>
				<g id="Group-16" mask="url(#mask-2_1_)">
					<g transform="translate(11.000000, 11.000000)">
						<path id="Fill-1" fill="none" stroke="#FF0000" stroke-miterlimit="10" d="M32.528,22.787c-0.777,0-1.407,0.605-1.407,1.352
							c0,0.744,0.63,1.352,1.407,1.352h47.193c0.775,0,1.407-0.608,1.407-1.352c0-0.746-0.632-1.352-1.407-1.352H32.528z"/>
						<path id="Fill-3" fill="none" stroke="#FF0000" stroke-miterlimit="10" d="M20.978,22.787h-0.664
							c-0.747,0-1.357,0.605-1.357,1.352c0,0.744,0.61,1.352,1.357,1.352h0.664c0.75,0,1.357-0.608,1.357-1.352
							C22.335,23.393,21.728,22.787,20.978,22.787"/>
						<path id="Fill-5" fill="none" stroke="#FF0000" stroke-miterlimit="10" d="M79.047,36.303c0.775,0,1.406-0.605,1.406-1.352
							c0-0.744-0.631-1.352-1.406-1.352H20.363c-0.774,0-1.406,0.607-1.406,1.352c0,0.746,0.632,1.352,1.406,1.352H79.047z"/>
						<path id="Fill-7" fill="none" stroke="#FF0000" stroke-miterlimit="10" d="M79.047,47.115c0.775,0,1.406-0.607,1.406-1.352
							c0-0.746-0.631-1.352-1.406-1.352H20.363c-0.774,0-1.406,0.605-1.406,1.352c0,0.744,0.632,1.352,1.406,1.352H79.047z"/>
						<path id="Fill-9" fill="none" stroke="#FF0000" stroke-miterlimit="10" d="M48.586,58.604c0.803,0,1.457-0.606,1.457-1.352
							c0-0.745-0.654-1.352-1.457-1.352h-1.141c-0.803,0-1.457,0.607-1.457,1.352c0,0.746,0.654,1.352,1.457,1.352H48.586z"/>
						<path id="Fill-11" fill="none" stroke="#FF0000" stroke-miterlimit="10" d="M37.81,58.604c0.784,0,1.42-0.606,1.42-1.352
							c0-0.745-0.636-1.352-1.42-1.352H20.379c-0.784,0-1.423,0.607-1.423,1.352c0,0.746,0.639,1.352,1.423,1.352H37.81z"/>
						<g id="Group-15">
							<g id="Clip-14">
							</g>
							<defs>
								
									<filter id="Adobe_OpacityMaskFilter_1_" filterUnits="userSpaceOnUse" x="6.292" y="3.03" width="119.208" height="121.625">
									<feColorMatrix  type="matrix" values="1 0 0 0 0  0 1 0 0 0  0 0 1 0 0  0 0 0 1 0"/>
								</filter>
							</defs>
							<mask maskUnits="userSpaceOnUse" x="6.292" y="3.03" width="119.208" height="121.625" id="mask-4_1_">
								<g filter="url(#Adobe_OpacityMaskFilter_1_)">
									<polygon id="path-3_1_" fill="#FFFFFF" points="6.792,3.53 124.999,3.53 124.999,124.154 6.792,124.154 									"/>
								</g>
							</mask>
							<path id="Fill-13" mask="url(#mask-4_1_)" fill="none" stroke="#FF0000" stroke-miterlimit="10" d="M99.139,29.468
								l11.826,6.835L74.639,99.3l-11.828-6.835L99.139,29.468z M105.314,18.76l11.826,6.838l-4.771,8.272l-11.829-6.836
								L105.314,18.76z M109.445,11.595c1.885-3.262,6.068-4.383,9.328-2.502c1.582,0.914,2.711,2.388,3.182,4.152
								c0.473,1.763,0.23,3.606-0.682,5.188l-2.729,4.73l-11.827-6.835L109.445,11.595z M62.158,95.334l10.324,5.969l-11.125,7.352
								L62.158,95.334z M90.563,121.346H30.73v-19.752c0-0.773-0.629-1.404-1.403-1.404H9.601V6.34h80.959v32.378l-9.469,16.413
								H58.459c-0.773,0-1.403,0.632-1.403,1.405c0,0.776,0.63,1.407,1.403,1.407h21.018l-4.718,8.177H20.796
								c-0.774,0-1.403,0.632-1.403,1.407c0,0.771,0.629,1.404,1.403,1.404h52.343l-4.716,8.18H20.796
								c-0.774,0-1.403,0.631-1.403,1.402c0,0.772,0.629,1.402,1.403,1.402h46.007L59.678,92.27
								c-0.104,0.188-0.168,0.391-0.181,0.604L58.39,111.29c-0.034,0.532,0.235,1.03,0.697,1.3c0.168,0.1,0.357,0.158,0.564,0.18
								c0.489,0.004,12.27,0.01,20.053,0.017c0.774,0,1.403-0.636,1.403-1.406s-0.629-1.401-1.403-1.401H64.467l11.465-7.582
								c0.178-0.121,0.332-0.283,0.438-0.47l14.192-24.608V121.346L90.563,121.346z M27.923,119.357L11.585,103h16.338V119.357z
								 M8.195,3.53c-0.772,0-1.403,0.631-1.403,1.405v96.659c0,0.371,0.152,0.732,0.412,0.996l21.129,21.153
								c0.265,0.266,0.619,0.411,0.994,0.411h62.64c0.771,0,1.402-0.629,1.402-1.404V72.439l30.334-52.604
								c1.288-2.231,1.631-4.831,0.965-7.321c-0.666-2.488-2.262-4.568-4.488-5.858c-4.604-2.661-10.51-1.076-13.164,3.532
								L93.369,33.851V4.935c0-0.774-0.631-1.405-1.402-1.405H8.195z"/>
						</g>
					</g>
				</g>
			</g>
		</g>
	</g>
</g>
<g>
	<path fill="none" stroke="#FF0000" stroke-width="5" stroke-miterlimit="10" d="M44.273,72.84v48.048
		c0,2.432,1.969,4.399,4.398,4.399h71.675c2.431,0,4.399-1.968,4.399-4.399v-81.54h-17.899c-2.43,0-4.398-1.969-4.398-4.398V18.003
		h-27.3"/>
</g>
<line fill="none" stroke="#FF0000" stroke-width="5" stroke-linecap="round" stroke-linejoin="round" stroke-miterlimit="10" x1="103.921" y1="18.003" x2="124.746" y2="38.226"/>
<polygon fill="none" stroke="#FF0000" stroke-width="5" stroke-linecap="round" stroke-linejoin="round" stroke-miterlimit="10" points="
	72.967,42.731 93.669,42.731 89.74,55.404 77.109,55.404 "/>
<polygon fill="none" stroke="#FF0000" stroke-width="5" stroke-linecap="round" stroke-linejoin="round" stroke-miterlimit="10" points="
	83.222,116.577 96.46,105.425 87.301,55.404 79.66,55.404 70.574,105.425 "/>
<path fill="#FF0000" d="M66.248,1H4C2.343,1,1,2.344,1,4v62.25c0,1.657,1.343,3,3,3h62.248c1.658,0,3-1.343,3-3V4
	C69.248,2.344,67.906,1,66.248,1z M16.229,54.572c-2.768,0-5.012-2.242-5.012-5.01s2.244-5.01,5.012-5.01
	c2.766,0,5.01,2.242,5.01,5.01S18.995,54.572,16.229,54.572z M16.229,39.335c-2.768,0-5.012-2.243-5.012-5.01
	c0-2.768,2.244-5.011,5.012-5.011c2.766,0,5.01,2.243,5.01,5.011C21.239,37.092,18.995,39.335,16.229,39.335z M16.229,24.098
	c-2.768,0-5.012-2.244-5.012-5.01c0-2.768,2.244-5.012,5.012-5.012c2.766,0,5.01,2.244,5.01,5.012
	C21.239,21.854,18.995,24.098,16.229,24.098z M54.856,53.721H31.128c-2.305,0-4.174-1.87-4.174-4.176s1.869-4.176,4.174-4.176
	h23.729c2.305,0,4.174,1.87,4.174,4.176S57.161,53.721,54.856,53.721z M54.856,38.482H31.128c-2.305,0-4.174-1.869-4.174-4.176
	c0-2.305,1.869-4.175,4.174-4.175h23.729c2.305,0,4.174,1.87,4.174,4.175C59.03,36.613,57.161,38.482,54.856,38.482z M54.856,23.244
	H31.128c-2.305,0-4.174-1.869-4.174-4.175s1.869-4.175,4.174-4.175h23.729c2.305,0,4.174,1.869,4.174,4.175
	S57.161,23.244,54.856,23.244z"/>
</svg>
