<?xml version="1.0" encoding="utf-8"?>
<!-- Generator: Adobe Illustrator 16.0.0, SVG Export Plug-In . SVG Version: 6.00 Build 0)  -->
<!DOCTYPE svg PUBLIC "-//W3C//DTD SVG 1.1//EN" "http://www.w3.org/Graphics/SVG/1.1/DTD/svg11.dtd">
<svg version="1.1" id="Calque_1" xmlns="http://www.w3.org/2000/svg" xmlns:xlink="http://www.w3.org/1999/xlink" x="0px" y="0px"
	 width="128px" height="128px" viewBox="0 0 128 128" enable-background="new 0 0 128 128" xml:space="preserve">
<g id="Calque_2_3_">
	<path fill="none" stroke="#FF0000" stroke-width="5" stroke-linecap="round" stroke-linejoin="round" stroke-miterlimit="10" d="
		M24.474,86.902l-1.22-2.446c-1.243-2.495-2.091-4.571-2.836-6.942l-0.553-1.762l-1.09-3.473l-3.639-0.029l-5.605-0.044
		l-4.353-0.035c-0.073-0.069-0.148-0.157-0.201-0.229V56.032c0.052-0.072,0.127-0.159,0.2-0.231l4.357-0.036l5.6-0.046l3.655-0.03
		l1.081-3.491l0.476-1.536c0.666-2.152,1.964-5.3,3.02-7.32l1.103-2.108l1.695-3.241l-2.574-2.597l-3.812-3.846
		c-1.183-1.193-2.614-2.638-3.195-3.343v-0.054c0.752-0.899,2.75-2.879,5.38-5.486l0.268-0.265c2.719-2.695,4.941-4.898,5.929-5.707
		c0.727,0.611,2.146,2.027,3.229,3.106c4.331,4.316,5.232,5.214,7.528,5.214c1.113,0,2.211-0.341,3.128-0.96
		c0.238-0.13,0.804-0.43,1.635-0.846c2.105-1.052,4.482-2.015,6.695-2.71l1.761-0.554l3.469-1.092l0.03-3.637l0.046-5.598
		l0.036-4.365c0.068-0.07,0.149-0.142,0.215-0.189h15.914"/>
	<path fill="none" stroke="#FF0000" stroke-width="5" stroke-linecap="round" stroke-linejoin="round" stroke-miterlimit="10" d="
		M22.24,105.523"/>
	<path fill="none" stroke="#FF0000" stroke-width="5" stroke-linecap="round" stroke-linejoin="round" stroke-miterlimit="10" d="
		M71.846,5.064c0.069,0.052,0.157,0.127,0.229,0.2l0.034,4.354l0.048,5.598l0.028,3.637l3.472,1.091l1.76,0.554
		c2.347,0.737,4.604,1.665,6.916,2.836c2.617,1.326,3.317,1.682,4.644,1.682c2.188,0,2.584-0.394,7.431-5.214
		c1.104-1.099,2.561-2.547,3.268-3.134h0.063c0.896,0.752,2.875,2.746,5.478,5.371l0.271,0.272c2.796,2.822,4.921,4.965,5.709,5.933
		c-0.604,0.724-2.041,2.163-3.135,3.259l-3.785,3.797l-2.534,2.542l1.602,3.214l1.224,2.452c1.231,2.48,2.078,4.558,2.832,6.947
		l0.553,1.761l1.091,3.472l3.642,0.03l5.601,0.046l4.354,0.036c0.071,0.073,0.146,0.161,0.198,0.233v15.908
		c-0.053,0.072-0.127,0.158-0.198,0.23l-4.361,0.035l-5.605,0.047l-3.676,0.031l-1.064,3.52l-0.396,1.312
		c-0.736,2.434-2.313,6.139-3.666,8.61l-0.563,1.026"/>
</g>
<path fill="none" stroke="#FF0000" stroke-width="5" stroke-linecap="round" stroke-linejoin="round" stroke-miterlimit="10" d="
	M77.601,57.105c0,4.131-1.029,7.949-2.771,11.043c-2.606,4.627-6.808,9.695-11.546,9.695c-4.662,0-8.802-4.972-11.416-9.471
	c-1.82-3.132-2.9-7.035-2.9-11.268c0-10.313,6.409-18.673,14.316-18.673C71.191,38.432,77.601,46.792,77.601,57.105z"/>
<path fill="none" stroke="#FF0000" stroke-width="5" stroke-linecap="round" stroke-linejoin="round" stroke-miterlimit="10" d="
	M64.042,123.845c-32.611,0-35.565-6.244-35.565-6.244s-3.987-23.76,21.404-30.398c0,0,4.095,6.943,14.078,6.943h0.084
	c9.983,0,14.078-6.943,14.078-6.943c25.391,6.639,21.404,30.398,21.404,30.398S96.652,123.845,64.042,123.845z"/>
</svg>
