<?xml version="1.0" encoding="utf-8"?>
<!-- Generator: Adobe Illustrator 16.0.0, SVG Export Plug-In . SVG Version: 6.00 Build 0)  -->
<!DOCTYPE svg PUBLIC "-//W3C//DTD SVG 1.1//EN" "http://www.w3.org/Graphics/SVG/1.1/DTD/svg11.dtd">
<svg version="1.1" id="Calque_2" xmlns="http://www.w3.org/2000/svg" xmlns:xlink="http://www.w3.org/1999/xlink" x="0px" y="0px"
	 width="128px" height="128px" viewBox="0 0 128 128" enable-background="new 0 0 128 128" xml:space="preserve">
<line fill="none" stroke="#FF0000" stroke-width="5" stroke-miterlimit="10" x1="26.3" y1="15.313" x2="44.167" y2="15.313"/>
<g>
	<path fill="none" stroke="#FF0000" stroke-width="5" stroke-miterlimit="10" d="M80.168,22.5V3.235H23.036c-2.761,0-5,2.239-5,5
		v111.958c0,2.762,2.239,5,5,5h77.479c2.762,0,5-2.238,5-5V27.5H85.168C82.406,27.5,80.168,25.262,80.168,22.5z"/>
</g>
<line fill="none" stroke="#FF0000" stroke-width="5" stroke-linecap="round" stroke-linejoin="round" stroke-miterlimit="10" x1="81.841" y1="3.235" x2="105.516" y2="26.224"/>
<g>
	<path fill="#FF0000" d="M73.405,48.098c-1.239-2.117-2.998-3.795-5.278-5.034c-2.282-1.237-4.887-1.857-7.819-1.857
		c-4.823,0-8.65,1.451-11.484,4.35c-2.834,2.9-4.252,6.663-4.252,11.289c0,1.108-0.342,2.003-1.026,2.688
		c-0.684,0.685-1.581,1.026-2.688,1.026c-1.108,0-2.02-0.342-2.736-1.026c-0.718-0.684-1.075-1.579-1.075-2.688
		c0-4.431,0.977-8.372,2.932-11.827c1.955-3.453,4.691-6.158,8.21-8.113c3.519-1.955,7.558-2.932,12.12-2.932
		c4.3,0,8.161,0.929,11.582,2.786s6.092,4.415,8.015,7.673c1.922,3.259,2.884,6.939,2.884,11.044c0,3.193-0.522,5.979-1.564,8.357
		c-1.043,2.379-2.362,4.481-3.958,6.304c-1.598,1.825-3.86,4.073-6.793,6.744l-1.76,1.563c-1.824,1.63-3.112,3.536-3.86,5.719
		c-0.75,2.184-1.124,4.349-1.124,6.499c0,1.109-0.359,2.037-1.075,2.786c-0.718,0.75-1.629,1.124-2.737,1.124
		c-1.109,0-2.021-0.374-2.737-1.124c-0.718-0.749-1.075-1.677-1.075-2.786c0-2.671,0.651-5.505,1.955-8.503
		c1.303-2.997,3.062-5.538,5.278-7.624l2.444-2.248c2.214-2.085,3.941-3.827,5.18-5.229c1.237-1.4,2.264-3.094,3.079-5.082
		c0.814-1.987,1.222-4.284,1.222-6.891C75.262,52.545,74.642,50.216,73.405,48.098z M63.973,102.1
		c1.14,1.109,1.711,2.478,1.711,4.105c0,1.563-0.571,2.9-1.711,4.008c-1.141,1.108-2.492,1.661-4.056,1.661
		c-1.629,0-2.981-0.553-4.056-1.661c-1.075-1.107-1.613-2.444-1.613-4.008c0-1.628,0.553-2.996,1.662-4.105
		c1.107-1.106,2.443-1.661,4.007-1.661S62.832,100.993,63.973,102.1z"/>
</g>
</svg>
