<?xml version="1.0" encoding="utf-8"?>
<!-- Generator: Adobe Illustrator 16.0.0, SVG Export Plug-In . SVG Version: 6.00 Build 0)  -->
<!DOCTYPE svg PUBLIC "-//W3C//DTD SVG 1.1//EN" "http://www.w3.org/Graphics/SVG/1.1/DTD/svg11.dtd">
<svg version="1.1" id="Calque_3_2_" xmlns="http://www.w3.org/2000/svg" xmlns:xlink="http://www.w3.org/1999/xlink" x="0px"
	 y="0px" width="128px" height="128px" viewBox="0 0 128 128" enable-background="new 0 0 128 128" xml:space="preserve">
<path fill="none" stroke="#FF0000" stroke-width="5" stroke-linecap="round" stroke-linejoin="round" stroke-miterlimit="10" d="
	M95.445,123.605h-62.89c-7.167,0-13.033-5.864-13.033-13.033V59.104c0-7.169,5.866-13.033,13.033-13.033h62.89
	c7.168,0,13.033,5.864,13.033,13.033v51.468C108.479,117.741,102.613,123.605,95.445,123.605z"/>
<path fill="none" stroke="#FF0000" stroke-width="5" stroke-linecap="round" stroke-linejoin="round" stroke-miterlimit="10" d="
	M33.535,46.071V35.559c0-16.756,13.709-30.465,30.467-30.465l0,0c16.756,0,30.465,13.709,30.465,30.465v10.513"/>
<path fill="#FF0000" d="M77.402,78.628c0-7.401-6-13.397-13.4-13.397c-7.402,0-13.401,5.996-13.401,13.397
	c0,5.288,3.069,9.846,7.517,12.026v7.91c0,3.234,2.648,5.883,5.885,5.883c3.235,0,5.882-2.648,5.882-5.883v-7.91
	C74.333,88.474,77.402,83.916,77.402,78.628z"/>
</svg>
