<?xml version="1.0" encoding="utf-8"?>
<!-- Generator: Adobe Illustrator 16.0.0, SVG Export Plug-In . SVG Version: 6.00 Build 0)  -->
<!DOCTYPE svg PUBLIC "-//W3C//DTD SVG 1.1//EN" "http://www.w3.org/Graphics/SVG/1.1/DTD/svg11.dtd">
<svg version="1.1" id="Calque_1" xmlns="http://www.w3.org/2000/svg" xmlns:xlink="http://www.w3.org/1999/xlink" x="0px" y="0px"
	 width="128px" height="128px" viewBox="0 0 128 128" enable-background="new 0 0 128 128" xml:space="preserve">
<g id="Calque_2_1_">
	
		<line fill="none" stroke="#FF0000" stroke-width="5" stroke-linecap="round" stroke-linejoin="round" stroke-miterlimit="10" x1="31.093" y1="76.012" x2="19.98" y2="87.18"/>
	
		<polyline fill="none" stroke="#FF0000" stroke-width="5" stroke-linecap="round" stroke-linejoin="round" stroke-miterlimit="10" points="
		56.182,75.724 43.296,87.18 43.296,75.739 	"/>
	
		<polyline fill="none" stroke="#FF0000" stroke-width="5" stroke-linecap="round" stroke-linejoin="round" stroke-miterlimit="10" points="
		19.98,87.18 19.98,122.648 122.626,122.648 122.626,41.735 102.889,41.735 102.889,87.132 89.9,87.132 89.9,65.757 67.503,87.132 
		67.503,74.665 	"/>
</g>
<path fill="#FF0000" d="M67.25,3.346H5c-1.657,0-3,1.343-3,3v62.25c0,1.657,1.343,3,3,3h62.25c1.658,0,3-1.343,3-3V6.346
	C70.25,4.689,68.908,3.346,67.25,3.346z M17.229,56.918c-2.768,0-5.011-2.242-5.011-5.01s2.243-5.01,5.011-5.01
	c2.767,0,5.01,2.242,5.01,5.01S19.996,56.918,17.229,56.918z M17.229,41.681c-2.768,0-5.011-2.243-5.011-5.01
	c0-2.768,2.243-5.011,5.011-5.011c2.767,0,5.01,2.243,5.01,5.011C22.239,39.438,19.996,41.681,17.229,41.681z M17.229,26.443
	c-2.768,0-5.011-2.243-5.011-5.01c0-2.768,2.243-5.011,5.011-5.011c2.767,0,5.01,2.243,5.01,5.011
	C22.239,24.2,19.996,26.443,17.229,26.443z M55.857,56.066H32.129c-2.305,0-4.174-1.87-4.174-4.176s1.869-4.176,4.174-4.176h23.728
	c2.305,0,4.174,1.87,4.174,4.176S58.162,56.066,55.857,56.066z M55.857,40.828H32.129c-2.305,0-4.174-1.869-4.174-4.176
	c0-2.305,1.869-4.175,4.174-4.175h23.728c2.305,0,4.174,1.87,4.174,4.175C60.031,38.959,58.162,40.828,55.857,40.828z M55.857,25.59
	H32.129c-2.305,0-4.174-1.87-4.174-4.175s1.869-4.175,4.174-4.175h23.728c2.305,0,4.174,1.87,4.174,4.175S58.162,25.59,55.857,25.59
	z"/>
</svg>
