<?xml version="1.0" encoding="utf-8"?>
<!-- Generator: Adobe Illustrator 16.0.0, SVG Export Plug-In . SVG Version: 6.00 Build 0)  -->
<!DOCTYPE svg PUBLIC "-//W3C//DTD SVG 1.1//EN" "http://www.w3.org/Graphics/SVG/1.1/DTD/svg11.dtd">
<svg version="1.1" id="Calque_1" xmlns="http://www.w3.org/2000/svg" xmlns:xlink="http://www.w3.org/1999/xlink" x="0px" y="0px"
	 width="128px" height="128px" viewBox="0 0 128 128" enable-background="new 0 0 128 128" xml:space="preserve">
<g id="Calque_1_2_" display="none">
	<g id="Calque_1_1_" display="inline">
	</g>
	
		<line display="inline" fill="none" stroke="#FF0000" stroke-width="11" stroke-miterlimit="10" x1="5.1" y1="35.064" x2="58.226" y2="35.064"/>
	
		<line display="inline" fill="none" stroke="#FF0000" stroke-width="11" stroke-miterlimit="10" x1="58.226" y1="46.698" x2="86.372" y2="46.698"/>
	
		<line display="inline" fill="none" stroke="#FF0000" stroke-width="11" stroke-miterlimit="10" x1="17.83" y1="68.512" x2="45.601" y2="68.512"/>
	
		<line display="inline" fill="none" stroke="#FF0000" stroke-width="11" stroke-miterlimit="10" x1="45.601" y1="81.646" x2="68.682" y2="81.646"/>
	
		<line display="inline" fill="none" stroke="#FF0000" stroke-width="11" stroke-miterlimit="10" x1="67.805" y1="92.5" x2="113.844" y2="92.5"/>
	<path display="inline" fill="none" stroke="#FF0000" stroke-width="5" stroke-miterlimit="10" d="M124.111,105.398
		c0,3.594-2.688,6.509-6.006,6.509H11.022c-3.316,0-6.004-2.915-6.004-6.509V15.383c0-3.594,2.688-6.507,6.004-6.507h107.083
		c3.315,0,6.006,2.914,6.006,6.507V105.398z"/>
</g>
<g id="Calque_3" display="none">
	<g id="Calque_2" display="inline">
		<g>
			<g>
				
					<path fill="none" stroke="#FF0000" stroke-width="5" stroke-linecap="round" stroke-linejoin="round" stroke-miterlimit="10" d="
					M102.314,74.566c2.097-2.56,1.719-6.362-0.838-8.459c-2.563-2.099-6.369-1.717-8.463,0.84l2.211-2.699
					c2.098-2.559,1.719-6.365-0.843-8.462c-2.562-2.097-6.364-1.72-8.464,0.839l4.066-4.967c2.099-2.558,1.72-6.365-0.84-8.461
					c-2.561-2.097-6.365-1.719-8.463,0.84L97.898,23.03c2.096-2.559,1.719-6.366-0.84-8.463c-2.562-2.096-6.367-1.717-8.463,0.842
					L63.857,45.604l1.516-9.225c0.535-3.261-1.697-6.37-4.96-6.906c-3.265-0.536-6.372,1.696-6.908,4.959
					c0,0-19.643,43.707-11.642,50.261l16.662,13.647c8,6.558,28.286-4.852,28.545-5.172L102.314,74.566L102.314,74.566z"/>
				
					<rect x="21.373" y="90.455" transform="matrix(0.7735 0.6338 -0.6338 0.7735 73.9362 -5.974)" fill="none" stroke="#FF0000" stroke-width="5" stroke-linecap="round" stroke-linejoin="round" stroke-miterlimit="10" width="47.907" height="20.006"/>
			</g>
			<path fill="none" stroke="#FF0000" stroke-width="5" stroke-linecap="round" stroke-linejoin="round" stroke-miterlimit="10" d="
				M82.213,9.857c5-6.103,14.001-6.998,20.104-1.997c6.104,4.999,6.996,14.001,1.996,20.104"/>
		</g>
	</g>
</g>
<g id="Calque_3_1_">
</g>
<g>
	<path fill="#FF0000" d="M127.397,94.598c-0.127-0.092-18.615-31.252-46.8-31.398c-28.176,0.146-46.667,31.306-46.801,31.398
		l-0.602,0.992l0.593,1.012c0.125,0.092,18.198,31.255,46.81,31.398c28.622-0.145,46.685-31.308,46.81-31.398L128,95.59
		L127.397,94.598z M80.152,120.806c-13.688-0.031-25.003-11.113-25.037-25.197C55.148,81.516,66.46,70.42,80.152,70.396
		c13.688,0.023,25.003,11.115,25.036,25.211C105.155,109.695,93.841,120.773,80.152,120.806z"/>
	<path fill="#FF0000" d="M80.598,83.047c-6.725,0.009-12.363,5.465-12.392,12.553c0.028,7.083,5.667,12.543,12.392,12.553
		c6.725-0.01,12.364-5.471,12.393-12.553C92.967,88.512,87.322,83.056,80.598,83.047z"/>
</g>
<path id="path29_1_" fill="none" stroke="#FF0000" stroke-width="5" stroke-miterlimit="10" d="M45.167,124.288H14.354
	c-5.954,0-10.781-4.826-10.781-10.781V14.983c0-5.955,4.827-10.781,10.781-10.781h98.525c5.953,0,10.781,4.827,10.781,10.781V77.5"
	/>
<line id="line31" fill="none" stroke="#FF0000" stroke-width="12" stroke-miterlimit="10" x1="12.498" y1="24.584" x2="46.168" y2="24.584"/>
<line id="line37" fill="none" stroke="#FF0000" stroke-width="12" stroke-miterlimit="10" x1="46.143" y1="51.53" x2="93.702" y2="51.53"/>
<path id="path2790" fill="none" stroke="#FF0000" d="M45.766,18.707l-0.073,65.684"/>
</svg>
