<?xml version="1.0" encoding="UTF-8" standalone="no"?>
<!DOCTYPE svg PUBLIC "-//W3C//DTD SVG 1.1//EN" "http://www.w3.org/Graphics/SVG/1.1/DTD/svg11.dtd">
<svg width="100%" height="100%" viewBox="0 0 128 128" version="1.1" xmlns="http://www.w3.org/2000/svg" xmlns:xlink="http://www.w3.org/1999/xlink" xml:space="preserve" xmlns:serif="http://www.serif.com/" style="fill-rule:evenodd;clip-rule:evenodd;stroke-linecap:round;stroke-linejoin:round;stroke-miterlimit:10;">
    <g id="Calque_3">
        <path d="M105.188,35.833L105.188,24.951L2.701,24.951L2.701,42.566C2.701,42.566 13.587,41.12 13.587,55.11C13.587,66.829 2.701,66.829 2.701,66.829L2.701,80.933L25.166,80.933" style="fill:none;fill-rule:nonzero;stroke:rgb(255,0,0);stroke-width:5px;"/>
    </g>
    <circle cx="78.648" cy="79.214" r="26.793" style="fill:none;stroke:rgb(255,0,0);stroke-width:5px;"/>
    <path d="M76.731,64.693L76.731,79.516L89.242,92.025" style="fill:none;fill-rule:nonzero;stroke:rgb(255,0,0);stroke-width:5px;"/>
    <g id="path17">
        <path d="M84.836,33.344C84.89,33.384 84.958,33.443 85.015,33.499L85.042,36.888L85.079,41.245L85.1,44.076L87.802,44.924L89.172,45.356C90.996,45.929 92.756,46.652 94.554,47.563C96.591,48.595 97.136,48.872 98.167,48.872C99.87,48.872 100.178,48.566 103.949,44.814C104.808,43.959 105.942,42.832 106.491,42.375L106.539,42.375C107.238,42.96 108.777,44.513 110.802,46.555L111.012,46.766C113.187,48.963 114.841,50.63 115.455,51.384C114.983,51.947 113.866,53.067 113.015,53.921L110.07,56.876L108.097,58.855L109.342,61.356L110.293,63.265C111.253,65.195 111.911,66.813 112.497,68.671L112.927,70.042L113.776,72.743L116.61,72.767L120.967,72.802L124.356,72.83C124.413,72.887 124.471,72.955 124.511,73.012L124.511,85.393C124.471,85.449 124.412,85.517 124.356,85.574L120.96,85.601L116.598,85.637L113.737,85.661L112.907,88.4L112.6,89.42C112.026,91.315 110.798,94.197 109.746,96.123L109.308,96.922L107.908,99.477L109.966,101.539L112.965,104.547C114.156,105.744 114.972,106.606 115.409,107.092C114.818,107.792 113.187,109.426 111.04,111.578L110.87,111.747C108.794,113.826 107.214,115.409 106.485,116.018C105.922,115.545 104.812,114.438 103.964,113.591C100.12,109.763 99.891,109.533 98.196,109.533C97.198,109.533 96.774,109.744 94.418,110.911C92.449,111.889 91.021,112.472 89.146,113.062L87.815,113.482L85.117,114.332L85.096,117.161L85.059,121.519L85.032,124.908C84.99,124.949 84.944,124.991 84.901,125.024C84.179,125.064 82.247,125.069 79.059,125.079L77.844,125.082C74.936,125.082 73.062,125.057 72.444,125.033C72.392,125.008 72.331,124.966 72.283,124.923L72.256,121.507L72.22,117.144L72.197,114.284L69.459,113.454L68.436,113.143C66.582,112.583 63.862,111.428 61.824,110.334L60.905,109.842L58.362,108.475L56.317,110.512L53.31,113.51C52.114,114.699 51.252,115.516 50.767,115.955C50.025,115.339 48.247,113.557 46.226,111.53L46.08,111.387C44.022,109.326 42.453,107.752 41.842,107.024C42.32,106.456 43.435,105.336 44.286,104.482L47.234,101.524L49.208,99.544L47.961,97.042L47.011,95.136C46.044,93.195 45.384,91.579 44.804,89.733L44.374,88.363L43.525,85.66L40.692,85.638L36.33,85.604L32.941,85.577C32.885,85.521 32.826,85.453 32.785,85.398L32.785,73.012C32.826,72.955 32.884,72.888 32.941,72.831L36.332,72.804L40.691,72.769L43.536,72.746L44.376,70.028L44.747,68.833C45.266,67.158 46.276,64.708 47.097,63.136L47.956,61.495L49.275,58.972L47.272,56.952L44.305,53.958C43.384,53.03 42.271,51.905 41.819,51.356L41.819,51.313C42.404,50.614 43.959,49.072 46.006,47.044L46.214,46.838C48.33,44.74 50.06,43.025 50.829,42.396C51.394,42.871 52.499,43.973 53.341,44.813C56.713,48.172 57.414,48.871 59.201,48.871C60.067,48.871 60.921,48.606 61.636,48.124C61.822,48.023 62.261,47.79 62.908,47.466C64.547,46.647 66.396,45.897 68.119,45.357L69.489,44.926L72.189,44.076L72.212,41.245L72.248,36.888L72.275,33.491C72.329,33.436 72.39,33.381 72.442,33.345L84.836,33.345" style="fill:none;fill-rule:nonzero;stroke:rgb(255,0,0);stroke-width:5px;"/>
    </g>
</svg>
