<?xml version="1.0" encoding="utf-8"?>
<!-- Generator: Adobe Illustrator 16.0.0, SVG Export Plug-In . SVG Version: 6.00 Build 0)  -->
<!DOCTYPE svg PUBLIC "-//W3C//DTD SVG 1.1//EN" "http://www.w3.org/Graphics/SVG/1.1/DTD/svg11.dtd">
<svg version="1.1" id="Calque_1" xmlns="http://www.w3.org/2000/svg" xmlns:xlink="http://www.w3.org/1999/xlink" x="0px" y="0px"
	 width="128px" height="128px" viewBox="0 0 128 128" enable-background="new 0 0 128 128" xml:space="preserve">
<g id="Calque_2" display="none">
</g>
<g id="Calque_2_2_" display="none">
</g>
<path fill="none" stroke="#FF0000" stroke-width="5" stroke-miterlimit="10" d="M112.945,60.557
	c11.332-14.394,8.854-35.245-5.539-46.575C93.015,2.649,72.161,5.133,60.83,19.525c-7.973,10.126-9.08,23.443-4.034,34.403
	l-6.806,8.645l1.573,13.201l-14.21,1.694l1.421,11.94l-10.867,1.293l1.391,11.688L17.27,103.82l2.474,20.79l22.068-2.628
	L80.68,72.616l-0.027-0.021C92.431,74.843,105.017,70.628,112.945,60.557z M86.736,40.235c-4.639-3.651-5.438-10.373-1.787-15.011
	c3.651-4.638,10.373-5.437,15.011-1.786c4.639,3.652,5.438,10.372,1.787,15.01C98.095,43.087,91.374,43.887,86.736,40.235z"/>
</svg>
