<?xml version="1.0" encoding="utf-8"?>
<!-- Generator: Adobe Illustrator 16.0.0, SVG Export Plug-In . SVG Version: 6.00 Build 0)  -->
<!DOCTYPE svg PUBLIC "-//W3C//DTD SVG 1.1//EN" "http://www.w3.org/Graphics/SVG/1.1/DTD/svg11.dtd">
<svg version="1.1" id="Calque_1" xmlns:serif="http://www.serif.com/"
	 xmlns="http://www.w3.org/2000/svg" xmlns:xlink="http://www.w3.org/1999/xlink" x="0px" y="0px" width="128px" height="128px"
	 viewBox="356.945 233.64 128 128" enable-background="new 356.945 233.64 128 128" xml:space="preserve">
<g>
	<path fill="none" stroke="#FF0000" stroke-width="5" stroke-linecap="round" stroke-linejoin="round" stroke-miterlimit="10" d="
		M473.377,256.808h-68.976c-3.244,0-5.87,2.625-5.87,5.87v10.493h38.961c3.244,0,5.87,2.626,5.87,5.871v43.079h30.015
		c3.244,0,5.87-2.626,5.87-5.871v-53.577C479.247,259.434,476.615,256.808,473.377,256.808z"/>
	<path fill="none" stroke="#FF0000" stroke-width="5" stroke-linecap="round" stroke-linejoin="round" stroke-miterlimit="10" d="
		M414.808,273.166h-46.297c-3.244,0-5.87,2.625-5.87,5.871v53.565c0,3.246,2.625,5.872,5.87,5.872h68.975
		c3.245,0,5.871-2.626,5.871-5.872v-10.486"/>
	<path fill="none" stroke="#FF0000" stroke-width="5" stroke-linecap="round" stroke-linejoin="round" stroke-miterlimit="10" d="
		M443.358,322.116v-43.079c0-3.24-2.626-5.871-5.871-5.871h-22.684"/>
</g>
<g>
	<path fill="none" stroke="#FF0000" stroke-width="5" stroke-linecap="round" stroke-linejoin="round" stroke-miterlimit="10" d="
		M403.111,288.558v34.523"/>
	<path fill="none" stroke="#FF0000" stroke-width="5" stroke-linecap="round" stroke-linejoin="round" stroke-miterlimit="10" d="
		M385.423,305.817h35.157"/>
</g>
</svg>
