<?xml version="1.0" encoding="utf-8"?>
<!-- Generator: Adobe Illustrator 16.0.0, SVG Export Plug-In . SVG Version: 6.00 Build 0)  -->
<!DOCTYPE svg PUBLIC "-//W3C//DTD SVG 1.1//EN" "http://www.w3.org/Graphics/SVG/1.1/DTD/svg11.dtd">
<svg version="1.1" id="Calque_2" xmlns="http://www.w3.org/2000/svg" xmlns:xlink="http://www.w3.org/1999/xlink" x="0px" y="0px"
	 width="128px" height="128px" viewBox="0 0 128 128" enable-background="new 0 0 128 128" xml:space="preserve">
<g>
	<g>
		<path fill="none" stroke="#FF0000" stroke-width="5" stroke-linecap="round" stroke-linejoin="round" stroke-miterlimit="10" d="
			M62.424,97.994c-3.851,0-6.967-3.117-6.967-6.966l0,0c0-3.847,3.117-6.965,6.967-6.965h10.139c3.845,0,6.965,3.118,6.965,6.965
			l0,0"/>
		<path fill="none" stroke="#FF0000" stroke-width="5" stroke-linecap="round" stroke-linejoin="round" stroke-miterlimit="10" d="
			M62.424,97.994h10.139c3.845,0,6.965,3.118,6.965,6.963l0,0c0,3.848-3.12,6.965-6.965,6.965H62.424
			c-3.851,0-6.967-3.117-6.967-6.965"/>
	</g>
	
		<line fill="none" stroke="#FF0000" stroke-width="5" stroke-linecap="round" stroke-linejoin="round" stroke-miterlimit="10" x1="67.49" y1="84.063" x2="67.49" y2="77.568"/>
	
		<line fill="none" stroke="#FF0000" stroke-width="5" stroke-linecap="round" stroke-linejoin="round" stroke-miterlimit="10" x1="67.49" y1="118.422" x2="67.49" y2="111.923"/>
</g>
<g>
	<path fill="none" stroke="#FF0000" stroke-width="5" stroke-linecap="round" stroke-linejoin="round" stroke-miterlimit="10" d="
		M73.068,39.003c11.61,0,9.595-3.054,9.595-3.054l11.304-22.916L78.69,19.144l-10.691-8.86"/>
	<path fill="none" stroke="#FF0000" stroke-width="5" stroke-linecap="round" stroke-linejoin="round" stroke-miterlimit="10" d="
		M73.068,49.015c9.165,0,12.344-4.207,12.344-4.207l-2.749-8.859"/>
	<path fill="none" stroke="#FF0000" stroke-width="5" stroke-linecap="round" stroke-linejoin="round" stroke-miterlimit="10" d="
		M24.077,73.364c-9.125,15.33-11.181,33.653,15.986,46.469c12.076,5.696,27.936,5.327,27.936,5.327s16.375,0.038,28.219-5.767
		c52.504-25.727-10.806-74.585-10.806-74.585"/>
</g>
<path fill="#FF0000" d="M67.107,1.926H4.858c-1.657,0-3,1.343-3,3v62.25c0,1.657,1.343,3,3,3h62.25c1.658,0,3-1.343,3-3V4.926
	C70.107,3.269,68.766,1.926,67.107,1.926z M17.087,55.498c-2.768,0-5.011-2.242-5.011-5.01s2.243-5.01,5.011-5.01
	c2.767,0,5.01,2.242,5.01,5.01S19.854,55.498,17.087,55.498z M17.087,40.261c-2.768,0-5.011-2.243-5.011-5.01
	c0-2.768,2.243-5.011,5.011-5.011c2.767,0,5.01,2.243,5.01,5.011C22.097,38.018,19.854,40.261,17.087,40.261z M17.087,25.023
	c-2.768,0-5.011-2.243-5.011-5.01c0-2.768,2.243-5.011,5.011-5.011c2.767,0,5.01,2.243,5.01,5.011
	C22.097,22.78,19.854,25.023,17.087,25.023z M55.714,54.646H31.987c-2.305,0-4.174-1.87-4.174-4.176s1.869-4.176,4.174-4.176h23.728
	c2.306,0,4.175,1.87,4.175,4.176S58.02,54.646,55.714,54.646z M55.714,39.408H31.987c-2.305,0-4.174-1.869-4.174-4.176
	c0-2.305,1.869-4.175,4.174-4.175h23.728c2.306,0,4.175,1.87,4.175,4.175C59.889,37.539,58.02,39.408,55.714,39.408z M55.714,24.17
	H31.987c-2.305,0-4.174-1.87-4.174-4.175s1.869-4.175,4.174-4.175h23.728c2.306,0,4.175,1.87,4.175,4.175S58.02,24.17,55.714,24.17z
	"/>
</svg>
