<?xml version="1.0" encoding="utf-8"?>
<!-- Generator: Adobe Illustrator 16.0.0, SVG Export Plug-In . SVG Version: 6.00 Build 0)  -->
<!DOCTYPE svg PUBLIC "-//W3C//DTD SVG 1.1//EN" "http://www.w3.org/Graphics/SVG/1.1/DTD/svg11.dtd">
<svg version="1.1" id="Calque_2" xmlns="http://www.w3.org/2000/svg" xmlns:xlink="http://www.w3.org/1999/xlink" x="0px" y="0px"
	 width="128px" height="128px" viewBox="0 0 128 128" enable-background="new 0 0 128 128" xml:space="preserve">
<polygon fill="none" stroke="#FF0000" stroke-width="5" stroke-linecap="round" stroke-linejoin="round" stroke-miterlimit="10" points="
	58.061,76.084 118.88,76.084 88.471,104.322 "/>
<polygon fill="none" stroke="#FF0000" stroke-width="5" stroke-linecap="round" stroke-linejoin="round" stroke-miterlimit="10" points="
	58.061,118.984 118.88,118.984 97.771,95.687 88.471,104.322 79.171,95.687 "/>
<line fill="none" stroke="#FF0000" stroke-width="5" stroke-linecap="round" stroke-linejoin="round" stroke-miterlimit="10" x1="118.88" y1="76.084" x2="118.88" y2="118.984"/>
<line fill="none" stroke="#FF0000" stroke-width="5" stroke-linecap="round" stroke-linejoin="round" stroke-miterlimit="10" x1="23.506" y1="118.984" x2="58.061" y2="118.984"/>
<line fill="none" stroke="#FF0000" stroke-width="5" stroke-linecap="round" stroke-linejoin="round" stroke-miterlimit="10" x1="33.444" y1="105.431" x2="58.031" y2="105.431"/>
<line fill="none" stroke="#FF0000" stroke-width="5" stroke-linecap="round" stroke-linejoin="round" stroke-miterlimit="10" x1="41.103" y1="90.769" x2="58.617" y2="90.769"/>
<line fill="none" stroke="#FF0000" stroke-width="5" stroke-linecap="round" stroke-linejoin="round" stroke-miterlimit="10" x1="49.933" y1="76.106" x2="59.537" y2="76.106"/>
<line fill="none" stroke="#FF0000" stroke-width="5" stroke-miterlimit="10" x1="15.435" y1="30.305" x2="31.578" y2="30.305"/>
<line fill="none" stroke="#FF0000" stroke-width="5" stroke-miterlimit="10" x1="15.435" y1="43.424" x2="54.311" y2="43.424"/>
<g>
	<path fill="none" stroke="#FF0000" stroke-width="5" stroke-miterlimit="10" d="M82.49,118.5"/>
	<path fill="none" stroke="#FF0000" stroke-width="5" stroke-linecap="round" stroke-miterlimit="10" d="M87.008,65.833V30.474
		H68.623c-2.495,0-4.518-2.022-4.518-4.518V8.55h-51.62c-2.495,0-4.518,2.023-4.518,4.518V109.5"/>
</g>
<line fill="none" stroke="#FF0000" stroke-width="5" stroke-linecap="round" stroke-linejoin="round" stroke-miterlimit="10" x1="65.616" y1="8.55" x2="87.008" y2="29.321"/>
</svg>
