<?xml version="1.0" encoding="utf-8"?>
<!-- Generator: Adobe Illustrator 16.0.0, SVG Export Plug-In . SVG Version: 6.00 Build 0)  -->
<!DOCTYPE svg PUBLIC "-//W3C//DTD SVG 1.1//EN" "http://www.w3.org/Graphics/SVG/1.1/DTD/svg11.dtd">
<svg version="1.1" xmlns="http://www.w3.org/2000/svg" xmlns:xlink="http://www.w3.org/1999/xlink" x="0px" y="0px" width="128px"
	 height="128px" viewBox="0 0 128 128" enable-background="new 0 0 128 128" xml:space="preserve">
<g id="Calque_1">
	<g id="Calque_3" display="none">
		<g display="inline">
			<g>
				
					<circle fill="none" stroke="#FF0000" stroke-width="5" stroke-linecap="round" stroke-linejoin="round" stroke-miterlimit="10" cx="59.272" cy="69.415" r="7.812"/>
				
					<circle fill="none" stroke="#FF0000" stroke-width="5" stroke-linecap="round" stroke-linejoin="round" stroke-miterlimit="10" cx="59.272" cy="69.415" r="7.812"/>
				
					<circle fill="none" stroke="#FF0000" stroke-width="5" stroke-linecap="round" stroke-linejoin="round" stroke-miterlimit="10" cx="59.273" cy="69.415" r="22.62"/>
				
					<circle fill="none" stroke="#FF0000" stroke-width="5" stroke-linecap="round" stroke-linejoin="round" stroke-miterlimit="10" cx="59.273" cy="69.415" r="38.346"/>
				
					<circle fill="none" stroke="#FF0000" stroke-width="5" stroke-linecap="round" stroke-linejoin="round" stroke-miterlimit="10" cx="59.273" cy="69.415" r="54.632"/>
			</g>
			
				<line fill="none" stroke="#FF0000" stroke-width="5" stroke-linecap="round" stroke-linejoin="round" stroke-miterlimit="10" x1="113.904" y1="16.864" x2="124.872" y2="16.864"/>
			
				<line fill="none" stroke="#FF0000" stroke-width="5" stroke-linecap="round" stroke-linejoin="round" stroke-miterlimit="10" x1="113.904" y1="16.864" x2="113.904" y2="5.898"/>
			
				<line fill="none" stroke="#FF0000" stroke-width="5" stroke-linecap="round" stroke-linejoin="round" stroke-miterlimit="10" x1="59.272" y1="69.415" x2="113.904" y2="16.864"/>
		</g>
	</g>
	<g id="Calque_2_1_" display="none">
		<g display="inline">
			<path fill="none" stroke="#FF0000" stroke-width="5" stroke-linecap="round" stroke-linejoin="round" stroke-miterlimit="10" d="
				M211.38,143.066v-38.012h5.935V94.807H173.5v10.248h5.932v38.012c-13.17,6.059-22.313,19.354-22.313,34.803
				c0,21.146,17.146,38.294,38.294,38.294c21.146,0,38.29-17.146,38.29-38.294C233.697,162.421,224.55,149.121,211.38,143.066z"/>
			<path fill="none" stroke="#FF0000" stroke-width="5" stroke-linecap="round" stroke-linejoin="round" stroke-miterlimit="10" d="
				M226.303,177.277c0,17.063-13.832,30.896-30.895,30.896c-17.067,0-30.898-13.833-30.898-30.896c0,0,5.887-20.312,32.211-9.277
				C223.044,179.032,226.303,177.277,226.303,177.277z"/>
			
				<circle fill="none" stroke="#FF0000" stroke-width="5" stroke-linecap="round" stroke-linejoin="round" stroke-miterlimit="10" cx="213.662" cy="160.402" r="4.315"/>
		</g>
	</g>
	<g id="Calque_5" display="none">
	</g>
	<path fill="none" stroke="#FF0000" stroke-width="5" stroke-linecap="round" stroke-linejoin="round" stroke-miterlimit="10" d="
		M84.642,118.814V91.396L69.028,75.781V36.847c3.335,0,6.061-2.727,6.061-6.062c0-3.333-2.726-6.062-6.061-6.062H44.784
		c-3.333,0-6.06,2.729-6.06,6.062c0,3.335,2.728,6.062,6.06,6.062v38.936h0.002l-27.795,27.796
		c-3.364,3.362-4.562,8.544-2.629,13.211c1.932,4.665,6.443,7.487,11.199,7.487h62.69c0.394,0,0.784-0.025,1.174-0.067
		c-1.162-0.145-2.289-0.642-3.183-1.533C85.174,121.607,84.642,120.214,84.642,118.814z"/>
	<path fill="none" stroke="#FF0000" stroke-width="5" stroke-miterlimit="10" d="M85.198,93.706v25.707
		c0,1.312,0.498,2.618,1.497,3.616c0.838,0.839,1.897,1.305,2.987,1.438"/>
</g>
<g id="Calque_2">
	<path fill="none" stroke="#FF0000" stroke-width="5" stroke-miterlimit="10" d="M89.683,124.469
		c0.209,0.026,0.418,0.063,0.629,0.063h11.463c1.309,0,2.615-0.501,3.613-1.499c0.998-0.999,1.496-2.309,1.496-3.617V17.409
		c1.021,0,2.036-0.389,2.813-1.165c0.775-0.777,1.166-1.795,1.166-2.813c0-1.019-0.391-2.036-1.166-2.813
		c-0.774-0.777-1.795-1.166-2.813-1.166H85.198c-1.018,0-2.035,0.389-2.813,1.166c-0.777,0.776-1.166,1.794-1.166,2.813
		c0,1.018,0.389,2.035,1.166,2.813c0.773,0.776,1.795,1.165,2.813,1.165v76.297"/>
</g>
</svg>
