<?xml version="1.0" encoding="utf-8"?>
<!-- Generator: Adobe Illustrator 16.0.0, SVG Export Plug-In . SVG Version: 6.00 Build 0)  -->
<!DOCTYPE svg PUBLIC "-//W3C//DTD SVG 1.1//EN" "http://www.w3.org/Graphics/SVG/1.1/DTD/svg11.dtd">
<svg version="1.1" id="Calque_1" xmlns="http://www.w3.org/2000/svg" xmlns:xlink="http://www.w3.org/1999/xlink" x="0px" y="0px"
	 width="128px" height="128px" viewBox="0 0 128 128" enable-background="new 0 0 128 128" xml:space="preserve">
<path fill="none" stroke="#FF0000" stroke-width="5" stroke-linecap="round" stroke-linejoin="round" d="M75.268,106.443
	c2.94-12.75-4.904-23.219,3.433-32.854c8.3-7.589,12.368-2.84,25.501-2.298s19.218-16.337,17.254-32.03
	c-1.959-15.693-20.197-27.303-31.479-30.894C78.699,4.775,53.199,2.255,34.565,13.3C15.929,24.347,3.671,44.656,6.612,71.291
	c1.987,17.984,10.789,40.762,28.933,48.011C53.689,126.55,72.324,119.193,75.268,106.443z"/>
<circle fill="#FF0000" cx="97.964" cy="37.79" r="8.336"/>
<circle fill="#FF0000" cx="76.882" cy="24.4" r="8.337"/>
<circle fill="#FF0000" cx="51.295" cy="25.476" r="8.336"/>
<circle fill="#FF0000" cx="31.045" cy="41.073" r="8.337"/>
<circle fill="#FF0000" cx="22.708" cy="65.099" r="8.337"/>
<circle fill="#FF0000" cx="29.419" cy="88.787" r="8.336"/>
</svg>
