<?xml version="1.0" encoding="utf-8"?>
<!-- Generator: Adobe Illustrator 16.0.0, SVG Export Plug-In . SVG Version: 6.00 Build 0)  -->
<!DOCTYPE svg PUBLIC "-//W3C//DTD SVG 1.1//EN" "http://www.w3.org/Graphics/SVG/1.1/DTD/svg11.dtd">
<svg version="1.1" id="Calque_2" xmlns="http://www.w3.org/2000/svg" xmlns:xlink="http://www.w3.org/1999/xlink" x="0px" y="0px"
	 width="128px" height="128px" viewBox="0 0 128 128" enable-background="new 0 0 128 128" xml:space="preserve">
<g>
	<path fill="none" stroke="#FF0000" stroke-width="5" stroke-linecap="round" stroke-linejoin="round" stroke-miterlimit="10" d="
		M90.863,41.196c0.781-2.077-0.279-4.415-2.354-5.195l-5.57-2.096c-2.079-0.782-4.416,0.28-5.196,2.356l-0.836,2.225
		c-0.783,2.078,0.278,4.415,2.354,5.195l5.571,2.096c2.075,0.78,3.136,3.12,2.354,5.199l-0.836,2.223
		c-0.783,2.079-3.12,3.137-5.197,2.356l-5.569-2.097c-2.079-0.782-3.137-3.117-2.355-5.195"/>
	
		<line fill="none" stroke="#FF0000" stroke-width="5" stroke-linecap="round" stroke-linejoin="round" stroke-miterlimit="10" x1="85.723" y1="34.952" x2="87.17" y2="31.106"/>
	
		<line fill="none" stroke="#FF0000" stroke-width="5" stroke-linecap="round" stroke-linejoin="round" stroke-miterlimit="10" x1="76.918" y1="58.355" x2="78.365" y2="54.508"/>
</g>
<path fill="#FF0000" d="M66.25,1H4C2.343,1,1,2.343,1,4v62.25c0,1.656,1.343,3,3,3h62.25c1.656,0,3-1.344,3-3V4
	C69.25,2.343,67.906,1,66.25,1z M16.229,54.572c-2.768,0-5.011-2.241-5.011-5.01s2.243-5.011,5.011-5.011
	c2.767,0,5.01,2.242,5.01,5.011S18.996,54.572,16.229,54.572z M16.229,39.334c-2.768,0-5.011-2.242-5.011-5.01
	s2.243-5.011,5.011-5.011c2.767,0,5.01,2.243,5.01,5.011C21.239,37.09,18.996,39.334,16.229,39.334z M16.229,24.097
	c-2.768,0-5.011-2.244-5.011-5.01c0-2.768,2.243-5.012,5.011-5.012c2.767,0,5.01,2.244,5.01,5.012
	C21.239,21.853,18.996,24.097,16.229,24.097z M54.856,53.72H31.129c-2.305,0-4.174-1.87-4.174-4.177
	c0-2.306,1.869-4.176,4.174-4.176h23.727c2.307,0,4.176,1.87,4.176,4.176C59.032,51.85,57.163,53.72,54.856,53.72z M54.856,38.482
	H31.129c-2.305,0-4.174-1.869-4.174-4.176c0-2.305,1.869-4.175,4.174-4.175h23.727c2.307,0,4.176,1.87,4.176,4.175
	C59.032,36.613,57.163,38.482,54.856,38.482z M54.856,23.244H31.129c-2.305,0-4.174-1.869-4.174-4.175
	c0-2.306,1.869-4.175,4.174-4.175h23.727c2.307,0,4.176,1.869,4.176,4.175C59.032,21.375,57.163,23.244,54.856,23.244z"/>
<polyline fill="none" stroke="#FF0000" stroke-width="5" stroke-linecap="round" stroke-linejoin="round" stroke-miterlimit="10" points="
	123.135,54.081 112.833,59.408 99.835,96.646 "/>
<line fill="none" stroke="#FF0000" stroke-width="5" stroke-linecap="round" stroke-linejoin="round" stroke-miterlimit="10" x1="56.252" y1="105.069" x2="83.958" y2="114.738"/>
<circle fill="none" stroke="#FF0000" stroke-width="5" stroke-miterlimit="10" cx="99.822" cy="113.096" r="10.951"/>
<path fill="none" stroke="#FF0000" stroke-width="5" stroke-linecap="round" stroke-miterlimit="10" d="M75.452,16.06l32.07,12.064
	c1.49,0.562,2.245,2.224,1.684,3.714l-23.36,62.095c-0.563,1.493-2.224,2.248-3.715,1.688L46.295,82.139
	c-1.491-0.561-2.244-2.225-1.683-3.716l2.095-5.569"/>
</svg>
