<?xml version="1.0" encoding="utf-8"?>
<!-- Generator: Adobe Illustrator 16.0.0, SVG Export Plug-In . SVG Version: 6.00 Build 0)  -->
<!DOCTYPE svg PUBLIC "-//W3C//DTD SVG 1.1//EN" "http://www.w3.org/Graphics/SVG/1.1/DTD/svg11.dtd">
<svg version="1.1" id="Calque_1" xmlns="http://www.w3.org/2000/svg" xmlns:xlink="http://www.w3.org/1999/xlink" x="0px" y="0px"
	 width="128px" height="128px" viewBox="0 0 128 128" enable-background="new 0 0 128 128" xml:space="preserve">
<g id="Calque_1_1_" display="none">
	<g id="Calque_2" display="inline">
		<g>
			<path fill="none" d="M65.085,64.747c9.406,0,15.547-12.935,16.563-26.153h-30.49c-0.851,0.106-1.718,0.198-2.616,0.25
				C49.617,51.975,55.738,64.747,65.085,64.747z"/>
			<path fill="none" d="M92.959,75.411l-9.646-3.521L67.88,80.636l-5.938-0.091l-15.506-8.65l-9.566,3.52
				c-1.507,0.729-19.394,9.841-18.328,33.111c0.541,0.854,3.165,4.105,11.531,4.176c-0.264-4.405-0.719-14.237-0.156-22.854
				l4.739,0.311c-0.606,9.285,0.032,20.393,0.246,23.604c5.498,4.867,17.007,7.822,30.305,7.707
				c12.979-0.095,24.488-3.097,29.764-7.703c0.194-3.279,0.781-14.629,0.146-23.756l4.738-0.33
				c0.595,8.51,0.179,18.562-0.063,23.021c8.269-0.072,10.908-3.269,11.493-4.19C112.336,85.279,94.51,76.16,92.959,75.411z"/>
			<path fill="#FF0000" d="M35.814,38.594h6.227c0,0.002,0,0.004,0,0.006c-1.305,2.819-1.772,7.667,4.469,13.882
				c3.377,9.688,9.662,17.016,18.575,17.016c8.739,0,15.188-7.482,18.631-17.413c5.837-6.035,5.343-10.733,4.063-13.491h6.232
				c1.215,0,2.197-0.984,2.197-2.199c0-1.214-0.982-2.199-2.197-2.199H91.07c0.016-0.334,0.021-0.671,0.021-1.009
				c0-10.568-6.177-19.661-15.054-23.763c0.024,1.039,0.03,2.212,0.03,3.533v3.8c0,10.968-0.596,11.62-10.621,11.62
				c-10.027,0-10.622-0.652-10.622-11.62v-3.8c0-1.326,0.009-2.498,0.042-3.54c-8.881,4.101-15.063,13.198-15.063,23.77
				c0,0.341,0.03,0.673,0.046,1.009h-4.039c-1.214,0-2.199,0.985-2.199,2.199C33.615,37.609,34.6,38.594,35.814,38.594z
				 M51.157,38.594h30.489c-1.018,13.218-7.155,26.153-16.563,26.153c-9.347,0-15.468-12.772-16.543-25.903
				C49.439,38.792,50.306,38.7,51.157,38.594z"/>
			<path fill="#FF0000" d="M94.869,71.063l-14.21-5.195l-12.675,7.412h-6.221l-12.676-7.422L35.13,70.989l-0.173,0.071
				c-0.229,0.104-22.684,10.773-21.134,38.211l0.021,0.354l0.12,0.331c0.119,0.321,2.909,7.502,16.378,7.502
				c0.5,0,1.019-0.015,1.55-0.035c6.384,5.541,18.402,8.797,32.667,8.797c0.229,0,0.455-0.002,0.684-0.003
				c11.189-0.078,25.396-2.453,32.746-8.793c14.755,0.546,17.746-7.134,17.869-7.469l0.123-0.33l0.021-0.354
				C117.55,81.837,95.096,71.166,94.869,71.063z M111.283,108.508c-0.586,0.924-3.227,4.118-11.493,4.19
				c0.241-4.46,0.657-14.511,0.065-23.021l-4.74,0.331c0.637,9.127,0.05,20.477-0.146,23.754c-5.273,4.608-16.783,7.61-29.763,7.705
				c-13.298,0.115-24.808-2.84-30.305-7.707c-0.213-3.213-0.852-14.316-0.246-23.604l-4.739-0.311
				c-0.563,8.614-0.108,18.446,0.156,22.854c-8.366-0.067-10.99-3.319-11.531-4.175c-1.065-23.271,16.821-32.389,18.328-33.112
				l9.566-3.519l15.506,8.649l5.938,0.091l15.434-8.746l9.646,3.521C94.51,76.16,112.336,85.279,111.283,108.508z"/>
			<path fill="#FF0000" d="M73.372,8.367c-0.083-1.763-0.28-2.937-0.769-3.485c-0.771-0.865-3.102-0.907-7.153-0.907
				c-3.994,0-6.394,0-7.163,0.853c-0.487,0.541-0.682,1.733-0.763,3.539c2.496-0.824,5.156-1.275,7.921-1.275
				C68.214,7.091,70.876,7.542,73.372,8.367z"/>
			<path fill="#FF0000" d="M57.466,16.756c0,4.501,0,7.218,0.823,8.129c0.77,0.852,3.175,0.852,7.161,0.852
				c3.985,0,6.391,0,7.159-0.852c0.824-0.911,0.824-3.627,0.824-8.129v-3.8c0-1.835-0.004-3.353-0.063-4.589
				c-2.496-0.824-5.158-1.275-7.927-1.275c-2.765,0-5.425,0.451-7.921,1.275c-0.055,1.239-0.059,2.759-0.059,4.589v3.8H57.466z"/>
		</g>
	</g>
	<path display="inline" fill="none" d="M59.547,117.361c-0.81-0.252-1.482-0.887-1.742-1.741L44.151,70.564
		c-0.232-0.769-0.098-1.563,0.309-2.188l-8.486,3.121c-1.233,0.594-20.854,10.446-19.469,35.433
		c0.221,0.514,2.729,5.713,13.817,5.713c0.459-0.002,0.944-0.017,1.438-0.033c0.035-0.002,0.071-0.004,0.105-0.004
		c0.631,0,1.243,0.229,1.721,0.645c5.126,4.449,14.591,7.326,25.879,7.975l-0.196-0.201L59.547,117.361z"/>
	<path display="inline" fill="none" d="M93.514,71.518l-8.342-3.065c0.403,0.626,0.537,1.418,0.305,2.182L71.676,116.18
		c-0.257,0.854-0.926,1.484-1.732,1.738l0.236,3.104l-0.139,0.144c9.482-0.644,20.119-2.95,25.884-7.917
		c0.503-0.436,1.146-0.646,1.812-0.637c0.478,0.019,0.943,0.031,1.394,0.031c11.021-0.002,13.565-5.141,13.815-5.715
		C114.316,82.239,95.174,72.329,93.514,71.518z"/>
	<path display="inline" fill="#33FF33" d="M95.626,66.707c-0.062-0.027-0.121-0.053-0.185-0.075l-13.564-4.993
		c-1.327-0.489-2.801,0.161-3.337,1.467l-1.795,4.373c-0.271,0.662-0.263,1.401,0.024,2.059c0.287,0.65,0.828,1.162,1.498,1.404
		l1.463,0.539l-8.791,29.018l-0.904-15.813c-0.014-0.24-0.061-0.475-0.135-0.691l2.426-3.442c0.455-0.646,0.595-1.46,0.382-2.221
		c-0.044-0.16-0.052-0.187-1.699-4.453c-0.415-1.078-1.477-1.751-2.622-1.675c-0.277,0.009-1.619,0.016-3.66,0.016
		c-2.042,0-3.385-0.007-3.663-0.016c-1.139-0.087-2.203,0.593-2.621,1.668c-2.023,5.204-2.023,5.204-1.583,6.215
		c0.072,0.165,0.159,0.318,0.263,0.466l2.427,3.442c-0.074,0.22-0.121,0.451-0.134,0.691l-0.873,15.258l-8.645-28.525l1.304-0.479
		c0.671-0.246,1.213-0.756,1.5-1.41c0.286-0.654,0.294-1.398,0.021-2.063l-1.811-4.371c-0.541-1.302-2.014-1.945-3.333-1.459
		l-13.397,4.927c-0.032,0.01-0.063,0.021-0.093,0.035l-0.174,0.068c-0.033,0.018-0.064,0.025-0.095,0.042
		c-0.242,0.108-24.2,11.438-22.556,40.563l0.02,0.35c0.015,0.26,0.067,0.514,0.156,0.758l0.12,0.326
		c0.345,0.941,3.797,9.191,18.767,9.191c0.206,0,0.415-0.004,0.628-0.008c7.023,5.557,19.108,8.725,33.408,8.725h0.011l0.696-0.002
		c5.389-0.039,23.369-0.793,33.476-8.721c0.195,0.004,0.39,0.006,0.581,0.006c14.989-0.002,18.423-8.256,18.764-9.195l0.121-0.328
		c0.086-0.239,0.139-0.49,0.153-0.745l0.021-0.354C119.833,78.107,95.869,66.816,95.626,66.707z M59.268,78.835
		c-0.009-0.019,1.623-4.214,1.623-4.214c0.191,0.027,7.479,0.027,7.669,0c0,0,1.603,4.15,1.619,4.214l-2.594,3.683h-5.724
		L59.268,78.835z M112.943,106.928c-0.25,0.574-2.795,5.713-13.816,5.715c-0.447,0-0.916-0.016-1.391-0.031
		c-0.666-0.01-1.313,0.201-1.813,0.637c-5.765,4.967-16.399,7.273-25.884,7.917l-5.314,3.396l-5.262-3.338
		c-11.288-0.646-20.753-3.521-25.879-7.974c-0.478-0.415-1.089-0.644-1.721-0.644c-0.034,0-0.071,0.002-0.105,0.004
		c-0.494,0.019-0.979,0.029-1.438,0.031c-11.088,0-13.596-5.199-13.817-5.711c-1.384-24.984,18.237-34.839,19.47-35.433l8.486-3.121
		c-0.406,0.627-0.541,1.422-0.309,2.188l13.653,45.057c0.26,0.854,0.933,1.488,1.742,1.74l2.49-32.729h5.376l2.528,33.281
		c0.809-0.254,1.478-0.888,1.731-1.739L85.475,70.63c0.232-0.764,0.102-1.556-0.305-2.182l8.342,3.067
		C95.174,72.329,114.316,82.239,112.943,106.928z"/>
	<path display="inline" fill="#FFFFFF" d="M66.225,80.09l1.004-1.424c-0.146-0.378-0.308-0.8-0.463-1.2
		c-0.527,0.001-1.195,0.001-2.039,0.001c-0.849,0-1.517,0-2.042-0.001c-0.167,0.433-0.326,0.841-0.464,1.196l1.007,1.428H66.225z"/>
	<path display="inline" fill="#FFFFFF" d="M67.588,82.518l2.592-3.683c-0.018-0.063-1.619-4.214-1.619-4.214
		c-0.188,0.027-7.479,0.027-7.667,0c0,0-1.631,4.195-1.623,4.214l2.596,3.683H67.588z"/>
	<path display="inline" fill="none" stroke="#FF0000" stroke-width="4" stroke-miterlimit="10" d="M84.975,32.14
		c0,5.844-1.455,11.245-3.918,15.62c-3.687,6.545-9.629,13.713-16.332,13.713c-6.594,0-12.451-7.032-16.146-13.396
		c-2.574-4.43-4.102-9.951-4.102-15.938c0-14.587,9.066-26.413,20.25-26.413C75.909,5.726,84.975,17.553,84.975,32.14z"/>
</g>
<g>
	<g>
		<g>
			
				<line fill="none" stroke="#FF0000" stroke-width="5" stroke-linecap="round" stroke-linejoin="round" x1="99.697" y1="66.416" x2="82.81" y2="38.082"/>
			<g>
				<circle fill="#FF0000" cx="82.81" cy="38.082" r="4.567"/>
			</g>
		</g>
	</g>
	<g>
		
			<line fill="none" stroke="#FF0000" stroke-width="5" stroke-linecap="round" stroke-linejoin="round" stroke-miterlimit="10" x1="88.229" y1="58.95" x2="74.896" y2="58.95"/>
		
			<line fill="none" stroke="#FF0000" stroke-width="5" stroke-linecap="round" stroke-linejoin="round" stroke-miterlimit="10" x1="74.896" y1="73.368" x2="94.666" y2="73.368"/>
		<path fill="none" stroke="#FF0000" stroke-width="5" stroke-linecap="round" stroke-linejoin="round" stroke-miterlimit="10" d="
			M106.255,73.368h8.238c2.561,0,4.635-2.075,4.635-4.636v-5.149c0-2.561-2.074-4.635-4.635-4.635h-12.617"/>
	</g>
	
		<circle fill="none" stroke="#FF0000" stroke-width="5" stroke-linecap="round" stroke-linejoin="round" stroke-miterlimit="10" cx="98.786" cy="105.555" r="20.341"/>
	
		<line fill="none" stroke="#FF0000" stroke-width="5" stroke-linecap="round" stroke-linejoin="round" stroke-miterlimit="10" x1="98.785" y1="94.483" x2="98.785" y2="116.628"/>
	
		<line fill="none" stroke="#FF0000" stroke-width="5" stroke-linecap="round" stroke-linejoin="round" stroke-miterlimit="10" x1="88.229" y1="105.556" x2="110.502" y2="105.556"/>
	
		<line fill="none" stroke="#FF0000" stroke-width="5" stroke-linecap="round" stroke-linejoin="round" stroke-miterlimit="10" x1="53.211" y1="81.865" x2="53.211" y2="99.118"/>
	
		<line fill="none" stroke="#FF0000" stroke-width="5" stroke-linecap="round" stroke-linejoin="round" stroke-miterlimit="10" x1="63.403" y1="81.865" x2="63.403" y2="99.118"/>
	
		<line fill="none" stroke="#FF0000" stroke-width="5" stroke-linecap="round" stroke-linejoin="round" stroke-miterlimit="10" x1="73.294" y1="81.865" x2="73.294" y2="99.118"/>
	<path fill="none" stroke="#FF0000" stroke-width="5" stroke-linecap="round" stroke-linejoin="round" stroke-miterlimit="10" d="
		M72.007,110.705H46.516c0,0-4.635,0.258-6.18-7.467c-1.545-7.725-3.604-29.87-3.604-29.87"/>
	
		<line fill="none" stroke="#FF0000" stroke-width="5" stroke-linecap="round" stroke-linejoin="round" stroke-miterlimit="10" x1="109.602" y1="73.368" x2="109.602" y2="84.183"/>
</g>
<path fill="#FF0000" d="M66.25,1.317H4c-1.657,0-3,1.343-3,3v62.25c0,1.657,1.343,3,3,3h62.25c1.658,0,3-1.343,3-3V4.317
	C69.25,2.661,67.908,1.317,66.25,1.317z M16.23,54.89c-2.768,0-5.011-2.242-5.011-5.01s2.243-5.01,5.011-5.01
	c2.767,0,5.01,2.242,5.01,5.01S18.997,54.89,16.23,54.89z M16.23,39.652c-2.768,0-5.011-2.243-5.011-5.01
	c0-2.768,2.243-5.011,5.011-5.011c2.767,0,5.01,2.243,5.01,5.011C21.24,37.409,18.997,39.652,16.23,39.652z M16.23,24.415
	c-2.768,0-5.011-2.243-5.011-5.01c0-2.768,2.243-5.011,5.011-5.011c2.767,0,5.01,2.243,5.01,5.011
	C21.24,22.171,18.997,24.415,16.23,24.415z M54.857,54.038H31.129c-2.305,0-4.174-1.87-4.174-4.176s1.869-4.176,4.174-4.176h23.728
	c2.305,0,4.174,1.87,4.174,4.176S57.162,54.038,54.857,54.038z M54.857,38.8H31.129c-2.305,0-4.174-1.869-4.174-4.176
	c0-2.305,1.869-4.175,4.174-4.175h23.728c2.305,0,4.174,1.87,4.174,4.175C59.031,36.931,57.162,38.8,54.857,38.8z M54.857,23.562
	H31.129c-2.305,0-4.174-1.87-4.174-4.175s1.869-4.175,4.174-4.175h23.728c2.305,0,4.174,1.87,4.174,4.175
	S57.162,23.562,54.857,23.562z"/>
</svg>
