<?xml version="1.0" encoding="utf-8"?>
<!-- Generator: Adobe Illustrator 16.0.0, SVG Export Plug-In . SVG Version: 6.00 Build 0)  -->
<!DOCTYPE svg PUBLIC "-//W3C//DTD SVG 1.1//EN" "http://www.w3.org/Graphics/SVG/1.1/DTD/svg11.dtd">
<svg version="1.1" id="Calque_1" xmlns="http://www.w3.org/2000/svg" xmlns:xlink="http://www.w3.org/1999/xlink" x="0px" y="0px"
	 width="128px" height="128px" viewBox="0 0 128 128" enable-background="new 0 0 128 128" xml:space="preserve">
<g id="Calque_1_1_" display="none">
</g>
<g>
	<path fill="#FF0000" d="M64.085,32.547c0.017,0,0.038,0,0.06,0c0.461-0.016,11.382-0.385,18.519-7.527
		c7.143-7.142,7.517-18.064,7.527-18.525c0.017-0.597-0.211-1.177-0.635-1.6c-0.423-0.418-0.905-0.64-1.6-0.635
		c-0.461,0.011-11.383,0.385-18.525,7.527c-7.136,7.142-7.516,18.064-7.526,18.52c-0.017,0.597,0.217,1.177,0.64,1.6
		C62.952,32.314,63.51,32.547,64.085,32.547z M72.513,14.868c4.034-4.04,9.799-5.477,13.063-5.981
		c-0.504,3.254-1.936,8.997-5.992,13.053c-4.035,4.035-9.794,5.477-13.059,5.981C67.024,24.667,68.456,18.919,72.513,14.868z"/>
	<path fill="#FF0000" d="M90.051,69.158C88.598,47.965,79.237,37.228,62.22,37.228c-25.233,0-27.424,23.265-27.885,32.749
		c-9.49,4.843-15.553,14.648-15.553,25.342c0,15.694,12.771,28.466,28.465,28.466h31.675c15.695,0,28.461-12.771,28.461-28.466
		C107.383,83.931,100.474,73.594,90.051,69.158z M78.922,119.43H47.247c-13.297,0-24.111-10.813-24.111-24.111
		c0-9.436,5.581-18.059,14.208-21.963c0.749-0.336,1.242-1.068,1.28-1.887c0.878-20.391,8.378-29.887,23.596-29.887
		c15.054,0,22.543,9.279,23.568,29.197c0.043,0.873,0.602,1.633,1.421,1.931c9.463,3.477,15.819,12.56,15.819,22.608
		C103.028,108.616,92.214,119.43,78.922,119.43z"/>
	<path fill="#FF0000" d="M54.015,90.21c1.41,1.41,3.688,1.41,5.092,0c1.41-1.41,1.985-7.082,1.985-7.082s-5.667,0.58-7.077,1.984
		C52.61,86.522,52.61,88.8,54.015,90.21z"/>
	<path fill="#FF0000" d="M72.149,90.21c1.404-1.41,1.404-3.688,0-5.098c-1.41-1.404-7.077-1.984-7.077-1.984
		s0.575,5.672,1.979,7.082C68.461,91.62,70.739,91.62,72.149,90.21z"/>
	<path fill="#FF0000" d="M61.916,63.849c-0.602,0.618-14.772,15.19-14.772,25.168c0,10.304,7.147,18.692,15.938,18.692
		c8.785,0,15.938-8.389,15.938-18.692c0-9.979-14.17-24.55-14.771-25.168C63.629,63.225,62.529,63.225,61.916,63.849z
		 M63.082,104.44c-6.985,0-12.674-6.92-12.674-15.423c0-6.535,8.287-16.888,12.674-21.649c4.388,4.762,12.674,15.114,12.674,21.649
		C75.756,97.521,70.072,104.44,63.082,104.44z"/>
</g>
</svg>
