<?xml version="1.0" encoding="utf-8"?>
<!-- Generator: Adobe Illustrator 16.0.0, SVG Export Plug-In . SVG Version: 6.00 Build 0)  -->
<!DOCTYPE svg PUBLIC "-//W3C//DTD SVG 1.1//EN" "http://www.w3.org/Graphics/SVG/1.1/DTD/svg11.dtd">
<svg version="1.1" id="Calque_1" xmlns="http://www.w3.org/2000/svg" xmlns:xlink="http://www.w3.org/1999/xlink" x="0px" y="0px"
	 width="128px" height="128px" viewBox="0 0 128 128" enable-background="new 0 0 128 128" xml:space="preserve">
<g id="Calque_2" display="none">
</g>
<g>
	<path fill="#FF0000" d="M104.979,50.326L92.65,66.546v0.261l19.595-2.597v8.825L92.65,70.699v0.259l12.457,15.573l-8.176,4.671
		l-7.785-18.167h-0.26l-8.435,18.298l-7.397-4.672l12.328-15.832V70.57l-19.205,2.465V64.21l19.076,2.466v-0.258L73.055,50.585
		l7.918-4.542l8.043,18.04h0.262l7.914-18.169L104.979,50.326z"/>
</g>
<path fill="#FF0000" d="M63.593,30.956c0-16.373-13.269-29.645-29.639-29.645c-16.373,0-29.643,13.273-29.643,29.645
	c0,11.519,6.585,21.482,16.188,26.389v9.833l8.403,8.4l-9.042,9.046l7.6,7.6l-6.917,6.916l7.439,7.438l-7.656,7.654l13.231,13.231
	l14.044-14.046V57.264h-0.03C57.085,52.331,63.593,42.412,63.593,30.956z M33.953,31.176c-5.276,0-9.554-4.277-9.554-9.554
	c0-5.275,4.278-9.553,9.554-9.553s9.553,4.277,9.553,9.553C43.506,26.899,39.229,31.176,33.953,31.176z"/>
</svg>
