<?xml version="1.0" encoding="utf-8"?>
<!-- Generator: Adobe Illustrator 16.0.0, SVG Export Plug-In . SVG Version: 6.00 Build 0)  -->
<!DOCTYPE svg PUBLIC "-//W3C//DTD SVG 1.1//EN" "http://www.w3.org/Graphics/SVG/1.1/DTD/svg11.dtd">
<svg version="1.1" id="Calque_1" xmlns="http://www.w3.org/2000/svg" xmlns:xlink="http://www.w3.org/1999/xlink" x="0px" y="0px"
	 width="128px" height="128px" viewBox="0 0 128 128" enable-background="new 0 0 128 128" xml:space="preserve">
<g id="Calque_3_3_">
	<path fill="none" stroke="#FF0000" stroke-width="5" stroke-linecap="round" stroke-miterlimit="10" d="M9.269,48.263
		c-1.498,0-2.711-1.213-2.711-2.71v-5.29c0-1.498,1.213-2.711,2.711-2.711H81.5c1.498,0,2.712,1.213,2.712,2.711v5.29
		c0,1.498-1.214,2.71-2.712,2.71"/>
	
		<line fill="none" stroke="#FF0000" stroke-width="5" stroke-linecap="round" stroke-miterlimit="10" x1="38.343" y1="16.943" x2="16.565" y2="37.552"/>
	
		<line fill="none" stroke="#FF0000" stroke-width="5" stroke-linecap="round" stroke-miterlimit="10" x1="51.761" y1="18.343" x2="73.037" y2="37.552"/>
	<path fill="none" stroke="#FF0000" stroke-width="5" stroke-linecap="round" stroke-miterlimit="10" d="M78.098,48.357
		L75.93,73.938c0,1.496-1.215,2.711-2.712,2.711H16.911c-1.497,0-2.71-1.215-2.71-2.711l-2.169-25.581"/>
</g>
<line fill="none" stroke="#FF0000" stroke-width="5" stroke-linecap="round" stroke-linejoin="round" stroke-miterlimit="10" x1="115.479" y1="23.867" x2="95.482" y2="81.154"/>
<line fill="none" stroke="#FF0000" stroke-width="5" stroke-linecap="round" stroke-linejoin="round" stroke-miterlimit="10" x1="28.432" y1="94.114" x2="71.055" y2="108.99"/>
<circle fill="none" stroke="#FF0000" stroke-width="5" stroke-miterlimit="10" cx="95.461" cy="106.464" r="16.848"/>
</svg>
