<?xml version="1.0" encoding="utf-8"?>
<!-- Generator: Adobe Illustrator 16.0.0, SVG Export Plug-In . SVG Version: 6.00 Build 0)  -->
<!DOCTYPE svg PUBLIC "-//W3C//DTD SVG 1.1//EN" "http://www.w3.org/Graphics/SVG/1.1/DTD/svg11.dtd">
<svg version="1.1" id="Calque_1" xmlns="http://www.w3.org/2000/svg" xmlns:xlink="http://www.w3.org/1999/xlink" x="0px" y="0px"
	 width="128px" height="128px" viewBox="0 0 128 128" enable-background="new 0 0 128 128" xml:space="preserve">
<g id="Calque_1_1_" display="none">
</g>
<path fill="none" stroke="#FF0000" stroke-width="5" stroke-miterlimit="10" d="M95.093,64"/>
<polygon fill="none" stroke="#FF0000" stroke-width="5" stroke-linecap="round" stroke-linejoin="round" stroke-miterlimit="10" points="
	59.039,64 101.146,33.438 101.146,94.563 "/>
<path fill="none" stroke="#FF0000" stroke-width="5" stroke-miterlimit="10" d="M27.006,22.234c0,0.979-0.793,1.772-1.772,1.772
	H10.173c-0.979,0-1.772-0.793-1.772-1.772V7.173c0-0.979,0.793-1.772,1.772-1.772h15.062c0.979,0,1.772,0.793,1.772,1.772V22.234z"
	/>
<path fill="none" stroke="#FF0000" stroke-width="5" stroke-miterlimit="10" d="M27.006,55.079c0,0.979-0.793,1.772-1.772,1.772
	H10.173c-0.979,0-1.772-0.794-1.772-1.772V40.018c0-0.979,0.793-1.772,1.772-1.772h15.062c0.979,0,1.772,0.794,1.772,1.772V55.079z"
	/>
<path fill="none" stroke="#FF0000" stroke-width="5" stroke-miterlimit="10" d="M27.006,87.925c0,0.979-0.793,1.771-1.772,1.771
	H10.173c-0.979,0-1.772-0.793-1.772-1.771V72.863c0-0.979,0.793-1.772,1.772-1.772h15.062c0.979,0,1.772,0.794,1.772,1.772V87.925z"
	/>
<path fill="none" stroke="#FF0000" stroke-width="5" stroke-miterlimit="10" d="M27.006,120.77c0,0.979-0.793,1.771-1.772,1.771
	H10.173c-0.979,0-1.772-0.793-1.772-1.771v-15.062c0-0.979,0.793-1.771,1.772-1.771h15.062c0.979,0,1.772,0.792,1.772,1.771V120.77z
	"/>
</svg>
