<?xml version="1.0" encoding="utf-8"?>
<!-- Generator: Adobe Illustrator 16.0.0, SVG Export Plug-In . SVG Version: 6.00 Build 0)  -->
<!DOCTYPE svg PUBLIC "-//W3C//DTD SVG 1.1//EN" "http://www.w3.org/Graphics/SVG/1.1/DTD/svg11.dtd">
<svg version="1.1" id="Calque_2_1_" xmlns="http://www.w3.org/2000/svg" xmlns:xlink="http://www.w3.org/1999/xlink" x="0px"
	 y="0px" width="128px" height="128px" viewBox="0 0 128 128" enable-background="new 0 0 128 128" xml:space="preserve">
<polyline fill="none" stroke="#FF0000" stroke-width="5" stroke-linecap="round" stroke-linejoin="round" stroke-miterlimit="10" points="
	74.742,34.174 114.105,32.557 111.312,68.904 55.853,124.525 19.857,88.528 34.056,74.467 "/>
<circle fill="none" stroke="#FF0000" stroke-width="5" stroke-linecap="round" stroke-linejoin="round" stroke-miterlimit="10" cx="92.225" cy="51.915" r="6.644"/>
<path fill="#FF0000" d="M67.564,1.875H5.315c-1.657,0-3,1.343-3,3v62.25c0,1.658,1.343,3,3,3h62.249c1.658,0,3-1.342,3-3V4.875
	C70.564,3.219,69.223,1.875,67.564,1.875z M17.545,55.448c-2.768,0-5.011-2.242-5.011-5.01s2.243-5.01,5.011-5.01
	c2.766,0,5.01,2.242,5.01,5.01S20.311,55.448,17.545,55.448z M17.545,40.21c-2.768,0-5.011-2.243-5.011-5.01
	c0-2.768,2.243-5.011,5.011-5.011c2.766,0,5.01,2.243,5.01,5.011C22.555,37.967,20.311,40.21,17.545,40.21z M17.545,24.973
	c-2.768,0-5.011-2.243-5.011-5.01c0-2.768,2.243-5.011,5.011-5.011c2.766,0,5.01,2.243,5.01,5.011
	C22.555,22.729,20.311,24.973,17.545,24.973z M56.172,54.596H32.444c-2.305,0-4.174-1.87-4.174-4.176s1.869-4.176,4.174-4.176
	h23.729c2.305,0,4.174,1.87,4.174,4.176S58.477,54.596,56.172,54.596z M56.172,39.358H32.444c-2.305,0-4.174-1.869-4.174-4.176
	c0-2.305,1.869-4.175,4.174-4.175h23.729c2.305,0,4.174,1.87,4.174,4.175C60.346,37.489,58.477,39.358,56.172,39.358z M56.172,24.12
	H32.444c-2.305,0-4.174-1.87-4.174-4.175s1.869-4.175,4.174-4.175h23.729c2.305,0,4.174,1.87,4.174,4.175S58.477,24.12,56.172,24.12
	z"/>
</svg>
