<?xml version="1.0" encoding="utf-8"?>
<!-- Generator: Adobe Illustrator 16.0.0, SVG Export Plug-In . SVG Version: 6.00 Build 0)  -->
<!DOCTYPE svg PUBLIC "-//W3C//DTD SVG 1.1//EN" "http://www.w3.org/Graphics/SVG/1.1/DTD/svg11.dtd">
<svg version="1.1" id="Calque_1" xmlns="http://www.w3.org/2000/svg" xmlns:xlink="http://www.w3.org/1999/xlink" x="0px" y="0px"
	 width="128px" height="128px" viewBox="0 0 128 128" enable-background="new 0 0 128 128" xml:space="preserve">
<g id="Calque_2" display="none">
</g>
<g>
	<path fill="none" stroke="#FF0000" stroke-width="5" stroke-linecap="round" stroke-linejoin="round" stroke-miterlimit="10" d="
		M103.381,79.17c0-1.277,1.045-2.32,2.324-2.32h15.742c1.277,0,2.324,1.043,2.324,2.32v33.861v7.834
		c0,1.275-1.047,2.318-2.324,2.318h-15.742c-1.279,0-2.324-1.043-2.324-2.318V79.17"/>
	<path fill="none" stroke="#FF0000" stroke-width="5" stroke-linecap="round" stroke-linejoin="round" stroke-miterlimit="10" d="
		M113.779,76.85V54.618c0-1.891-1.549-3.438-3.438-3.438H72.456c-1.894,0-3.437,1.547-3.437,3.438v65.126
		c0,1.893,1.543,3.439,3.437,3.439h33.073h4.812"/>
</g>
<g id="Calque_3_1_">
</g>
<g>
	<g>
		<g>
			<path fill="none" stroke="#FF0000" stroke-width="5" stroke-linecap="round" stroke-linejoin="round" stroke-miterlimit="10" d="
				M69.02,107.898h-4.438H53.526H7.675c-1.944,0-3.534-1.592-3.534-3.539v-9.104V54.833v-25.81c0,0-0.408-3.417,3.552-3.417
				s92.734,0,92.734,0c1.942,0,3.535,1.588,3.535,3.535V51.18"/>
		</g>
	</g>
</g>
<line fill="none" stroke="#FF0000" stroke-width="5" stroke-linecap="round" stroke-linejoin="round" stroke-miterlimit="10" x1="54.046" y1="107.898" x2="54.046" y2="121.723"/>
<line fill="none" stroke="#FF0000" stroke-width="5" stroke-linecap="round" stroke-linejoin="round" stroke-miterlimit="10" x1="78.699" y1="123.318" x2="24.174" y2="123.318"/>
</svg>
