<?xml version="1.0" encoding="utf-8"?>
<!-- Generator: Adobe Illustrator 16.0.0, SVG Export Plug-In . SVG Version: 6.00 Build 0)  -->
<!DOCTYPE svg PUBLIC "-//W3C//DTD SVG 1.1//EN" "http://www.w3.org/Graphics/SVG/1.1/DTD/svg11.dtd">
<svg version="1.1" id="Calque_1" xmlns="http://www.w3.org/2000/svg" xmlns:xlink="http://www.w3.org/1999/xlink" x="0px" y="0px"
	 width="128px" height="128px" viewBox="0 0 128 128" enable-background="new 0 0 128 128" xml:space="preserve">
<g id="Calque_2_1_">
	<path fill="none" stroke="#FF0000" stroke-width="5" stroke-linecap="round" stroke-linejoin="round" stroke-miterlimit="10" d="
		M75.359,48.748c0,0-0.824-13.97,12.502-13.97c13.328,0,29.797,0,29.797,0s6.109,0.174,6.109,7.332c0,7.156,0,65.457,0,65.457
		s0.063,5.147-7.158,5.147c-8.379,0-27.801,0-31.211,0c-3.412,0-9.838,3.336-9.838,12.588c0,0-0.2-12.588-10.27-12.588
		c-8.901,0-31.769,0-31.769,0s-6.633,0.738-6.633-7.765c0-9.776,0-30.783,0-30.783"/>
	
		<line fill="none" stroke="#FF0000" stroke-width="5" stroke-linecap="round" stroke-linejoin="round" stroke-miterlimit="10" x1="75.359" y1="48.748" x2="75.359" y2="120.309"/>
	<g>
		<path fill="none" stroke="#FF0000" stroke-width="5" stroke-linecap="round" stroke-linejoin="round" stroke-miterlimit="10" d="
			M113.738,60.164c0-4.53-3.711-8.239-8.24-8.239H93.342c-4.531,0-8.238,3.71-8.238,8.239v4.857c0,4.535,3.709,8.239,8.238,8.239
			h12.156c4.529,0,8.238,3.709,8.238,8.24v4.857c0,4.537-3.709,8.24-8.238,8.24H93.342c-4.531,0-8.238-3.707-8.238-8.24"/>
		
			<line fill="none" stroke="#FF0000" stroke-width="5" stroke-linecap="round" stroke-linejoin="round" stroke-miterlimit="10" x1="99.422" y1="51.925" x2="99.422" y2="43.533"/>
		
			<line fill="none" stroke="#FF0000" stroke-width="5" stroke-linecap="round" stroke-linejoin="round" stroke-miterlimit="10" x1="99.422" y1="102.995" x2="99.422" y2="94.599"/>
	</g>
	
		<line fill="none" stroke="#FF0000" stroke-width="5" stroke-linecap="round" stroke-linejoin="round" stroke-miterlimit="10" x1="39.787" y1="93.053" x2="57.99" y2="93.053"/>
</g>
<g id="Calque_1_2_">
	<g id="Calque_1_1_">
		<g id="Calque_4">
		</g>
		<g>
			<path fill="#FF0000" d="M45.242,20.377c0.019,0.008,0.033,0.016,0.051,0.024"/>
		</g>
	</g>
</g>
<path fill="#FF0000" d="M66.25,1H4C2.344,1,1,2.344,1,4v62.25c0,1.656,1.344,3,3,3h62.25c1.658,0,3-1.344,3-3V4
	C69.25,2.344,67.908,1,66.25,1z M16.23,54.572c-2.768,0-5.012-2.242-5.012-5.01s2.244-5.01,5.012-5.01c2.766,0,5.01,2.242,5.01,5.01
	S18.996,54.572,16.23,54.572z M16.23,39.335c-2.768,0-5.012-2.243-5.012-5.01c0-2.768,2.244-5.011,5.012-5.011
	c2.766,0,5.01,2.243,5.01,5.011C21.24,37.092,18.996,39.335,16.23,39.335z M16.23,24.098c-2.768,0-5.012-2.244-5.012-5.01
	c0-2.768,2.244-5.012,5.012-5.012c2.766,0,5.01,2.244,5.01,5.012C21.24,21.854,18.996,24.098,16.23,24.098z M54.857,53.721H31.129
	c-2.305,0-4.174-1.87-4.174-4.176s1.869-4.176,4.174-4.176h23.729c2.305,0,4.174,1.87,4.174,4.176S57.162,53.721,54.857,53.721z
	 M54.857,38.482H31.129c-2.305,0-4.174-1.869-4.174-4.176c0-2.305,1.869-4.175,4.174-4.175h23.729c2.305,0,4.174,1.87,4.174,4.175
	C59.031,36.613,57.162,38.482,54.857,38.482z M54.857,23.244H31.129c-2.305,0-4.174-1.869-4.174-4.175s1.869-4.175,4.174-4.175
	h23.729c2.305,0,4.174,1.869,4.174,4.175S57.162,23.244,54.857,23.244z"/>
</svg>
