<?xml version="1.0" encoding="UTF-8" standalone="no"?>
<svg
   xmlns:dc="http://purl.org/dc/elements/1.1/"
   xmlns:cc="http://creativecommons.org/ns#"
   xmlns:rdf="http://www.w3.org/1999/02/22-rdf-syntax-ns#"
   xmlns:svg="http://www.w3.org/2000/svg"
   xmlns="http://www.w3.org/2000/svg"
   xmlns:sodipodi="http://sodipodi.sourceforge.net/DTD/sodipodi-0.dtd"
   xmlns:inkscape="http://www.inkscape.org/namespaces/inkscape"
   version="1.1"
   id="Calque_1"
   x="0px"
   y="0px"
   width="128px"
   height="128px"
   viewBox="0 0 128 128"
   enable-background="new 0 0 128 128"
   xml:space="preserve"
   sodipodi:docname="iconCalendarYellowUpdate.svg"
   inkscape:version="1.0.1 (3bc2e813f5, 2020-09-07)"><metadata
   id="metadata22"><rdf:RDF><cc:Work
       rdf:about=""><dc:format>image/svg+xml</dc:format><dc:type
         rdf:resource="http://purl.org/dc/dcmitype/StillImage" /><dc:title /></cc:Work></rdf:RDF></metadata><defs
   id="defs20">
	
		
	
		
	
		
	
		
	
		
	
		
</defs><sodipodi:namedview
   pagecolor="#ffffff"
   bordercolor="#666666"
   borderopacity="1"
   objecttolerance="10"
   gridtolerance="10"
   guidetolerance="10"
   inkscape:pageopacity="0"
   inkscape:pageshadow="2"
   inkscape:window-width="1920"
   inkscape:window-height="1017"
   id="namedview18"
   showgrid="false"
   inkscape:zoom="5.7421875"
   inkscape:cx="63.999139"
   inkscape:cy="66.616341"
   inkscape:window-x="-8"
   inkscape:window-y="-8"
   inkscape:window-maximized="1"
   inkscape:current-layer="Calque_1"
   inkscape:document-rotation="0" />
<g
   id="Calque_2"
   display="none">
</g>
<polyline
   fill="none"
   stroke="#ffcc00"
   stroke-width="5"
   stroke-linecap="round"
   stroke-linejoin="round"
   stroke-miterlimit="10"
   points="   114.337,15.074 126.973,15.074 126.973,125.839 4.729,125.839 4.729,15.074 17.363,15.074  "
   id="polyline3"
   style="stroke:#ff8d37;stroke-opacity:1"
   transform="translate(-1.6517007,-0.95510204)" /><line
   fill="none"
   stroke="#ffcc00"
   stroke-width="5"
   stroke-linecap="round"
   stroke-linejoin="round"
   stroke-miterlimit="10"
   x1="71.559464"
   y1="13.944749"
   x2="88.218147"
   y2="13.944749"
   id="line5"
   style="stroke:#ff8d37;stroke-opacity:1" /><line
   fill="none"
   stroke="#ffcc00"
   stroke-width="5"
   stroke-linecap="round"
   stroke-linejoin="round"
   stroke-miterlimit="10"
   x1="29.028299"
   y1="14.118898"
   x2="57.542301"
   y2="14.118898"
   id="line7"
   style="stroke:#ff8d37;stroke-opacity:1" /><rect
   x="15.7113"
   y="3.1728978"
   fill="none"
   stroke="#ffcc00"
   stroke-width="5"
   stroke-linecap="round"
   stroke-linejoin="round"
   stroke-miterlimit="10"
   width="13.316"
   height="21.58"
   id="rect9"
   style="stroke:#ff8d37;stroke-opacity:1" /><rect
   x="57.540302"
   y="3.1728978"
   fill="none"
   stroke="#ffcc00"
   stroke-width="5"
   stroke-linecap="round"
   stroke-linejoin="round"
   stroke-miterlimit="10"
   width="13.318"
   height="21.58"
   id="rect11"
   style="stroke:#ff8d37;stroke-opacity:1" />
<g
   id="Calque_1_5_"
   transform="matrix(0.46659201,0,0,0.46644671,47.669455,47.27694)"
   style="stroke-width:2.14353"><g
     id="Calque_1_2_"
     display="none"
     style="stroke-width:3.50803"><g
       id="Calque_1_1_"
       display="inline"
       style="stroke-width:5.7411" /><line
       id="line3"
       display="inline"
       fill="none"
       stroke="#ff0000"
       stroke-width="23.5789"
       stroke-miterlimit="10"
       x1="5.0999999"
       y1="35.063999"
       x2="58.226002"
       y2="35.063999" /><line
       id="line5-2"
       display="inline"
       fill="none"
       stroke="#ff0000"
       stroke-width="23.5789"
       stroke-miterlimit="10"
       x1="58.226002"
       y1="46.698002"
       x2="86.372002"
       y2="46.698002" /><line
       id="line7-1"
       display="inline"
       fill="none"
       stroke="#ff0000"
       stroke-width="23.5789"
       stroke-miterlimit="10"
       x1="17.83"
       y1="68.512001"
       x2="45.601002"
       y2="68.512001" /><line
       id="line9"
       display="inline"
       fill="none"
       stroke="#ff0000"
       stroke-width="23.5789"
       stroke-miterlimit="10"
       x1="45.601002"
       y1="81.646004"
       x2="68.681999"
       y2="81.646004" /><line
       id="line11"
       display="inline"
       fill="none"
       stroke="#ff0000"
       stroke-width="23.5789"
       stroke-miterlimit="10"
       x1="67.805"
       y1="92.5"
       x2="113.844"
       y2="92.5" /><path
       id="path13"
       display="inline"
       fill="none"
       stroke="#ff0000"
       stroke-width="10.7177"
       stroke-miterlimit="10"
       d="m 124.111,105.398 c 0,3.594 -2.688,6.509 -6.006,6.509 H 11.022 c -3.316,0 -6.004,-2.915 -6.004,-6.509 V 15.383 c 0,-3.594 2.688,-6.507 6.004,-6.507 h 107.083 c 3.314,0 6.006,2.914 6.006,6.507 z" /></g><g
     id="Calque_1_3_"
     display="none"
     style="stroke-width:3.50803" /><g
     id="Calque_3"
     display="none"
     style="stroke-width:3.50803"><g
       id="Calque_2-3"
       display="inline"
       style="stroke-width:5.7411"><g
         id="g25"
         style="stroke-width:2.14353"><g
           id="g21"
           style="stroke-width:2.14353"><path
             id="path17"
             fill="none"
             stroke="#ff0000"
             stroke-width="10.7177"
             stroke-linecap="round"
             stroke-linejoin="round"
             stroke-miterlimit="10"
             d="m 102.314,74.566 c 2.097,-2.561 1.719,-6.362 -0.838,-8.459 -2.563,-2.1 -6.369,-1.717 -8.463,0.84 l 2.211,-2.699 c 2.098,-2.559 1.719,-6.365 -0.844,-8.462 -2.563,-2.097 -6.363,-1.72 -8.464,0.839 l 4.065,-4.967 c 2.1,-2.558 1.721,-6.365 -0.84,-8.461 -2.561,-2.097 -6.365,-1.719 -8.463,0.84 L 97.898,23.03 c 2.096,-2.559 1.719,-6.366 -0.84,-8.463 -2.563,-2.096 -6.367,-1.717 -8.463,0.842 l -24.738,30.195 1.516,-9.225 c 0.535,-3.261 -1.697,-6.37 -4.96,-6.906 -3.265,-0.536 -6.372,1.696 -6.908,4.959 0,0 -19.643,43.707 -11.642,50.261 L 58.525,98.34 c 8,6.559 28.286,-4.852 28.545,-5.172 z" /><rect
             id="rect19"
             x="21.372999"
             y="90.455002"
             transform="matrix(-0.7735,-0.6338,0.6338,-0.7735,16.7151,206.8895)"
             fill="none"
             stroke="#ff0000"
             stroke-width="10.7177"
             stroke-linecap="round"
             stroke-linejoin="round"
             stroke-miterlimit="10"
             width="47.907001"
             height="20.006001" /></g><path
           id="path23"
           fill="none"
           stroke="#ff0000"
           stroke-width="10.7177"
           stroke-linecap="round"
           stroke-linejoin="round"
           stroke-miterlimit="10"
           d="m 82.213,9.857 c 5,-6.103 14.001,-6.998 20.104,-1.997 6.104,4.999 6.996,14.001 1.996,20.104" /></g></g></g><g
     id="Calque_1_4_"
     style="stroke-width:2.14353"><g
       id="Calque_2_2_"
       display="none"
       style="stroke-width:3.50803"><g
         id="g41"
         display="inline"
         style="stroke-width:5.7411"><path
           id="path29"
           fill="none"
           d="m 29.546,122.527 c 9.541,0 15.769,-13.118 16.8,-26.525 H 15.422 c -0.864,0.107 -1.744,0.203 -2.654,0.254 1.091,13.316 7.299,26.271 16.778,26.271 z"
           style="stroke-width:9.39567" /><path
           id="path31"
           fill="none"
           d="m 57.818,133.346 -9.784,-3.572 -15.653,8.869 -6.023,-0.093 -15.726,-8.772 -9.703,3.57 c -1.527,0.736 -19.669,9.98 -18.588,33.582 0.549,0.866 3.209,4.163 11.695,4.234 -0.268,-4.467 -0.73,-14.439 -0.159,-23.18 l 4.807,0.313 c -0.615,9.418 0.032,20.686 0.249,23.939 5.576,4.937 17.249,7.934 30.737,7.813 13.163,-0.095 24.837,-3.141 30.187,-7.813 0.197,-3.324 0.793,-14.838 0.149,-24.094 l 4.805,-0.334 c 0.604,8.631 0.183,18.822 -0.063,23.349 8.39,-0.072 11.063,-3.315 11.655,-4.251 1.068,-23.552 -17.012,-32.802 -18.585,-33.56 z"
           style="stroke-width:9.39567" /><path
           id="path33"
           fill="#ff0000"
           d="m -0.141,96.002 h 6.316 c 0,0.003 0,0.005 0,0.006 -1.323,2.859 -1.797,7.776 4.533,14.08 3.425,9.826 9.799,17.258 18.838,17.258 8.864,0 15.404,-7.589 18.897,-17.658 5.919,-6.123 5.419,-10.888 4.121,-13.686 h 6.32 c 1.232,0 2.229,-0.997 2.229,-2.229 0,-1.232 -0.997,-2.23 -2.229,-2.23 h -2.982 c 0.016,-0.34 0.022,-0.682 0.022,-1.023 0,-10.719 -6.266,-19.938 -15.27,-24.102 0.025,1.055 0.032,2.243 0.032,3.583 v 3.854 c 0,11.125 -0.604,11.785 -10.772,11.785 -10.171,0 -10.775,-0.66 -10.775,-11.785 V 70 c 0,-1.344 0.01,-2.533 0.043,-3.591 -9.006,4.159 -15.276,13.386 -15.276,24.111 0,0.347 0.031,0.685 0.047,1.022 h -4.097 c -1.23,0 -2.229,0.998 -2.229,2.229 0.003,1.234 1,2.231 2.232,2.231 z m 15.563,0 h 30.922 c -1.031,13.407 -7.257,26.525 -16.799,26.525 -9.48,0 -15.688,-12.955 -16.778,-26.271 0.911,-0.051 1.791,-0.147 2.655,-0.254 z"
           style="stroke-width:9.39567" /><path
           id="path35"
           fill="#ff0000"
           d="m 59.756,128.934 -14.412,-5.271 -12.856,7.521 h -6.309 l -12.859,-7.527 -14.155,5.203 -0.176,0.072 c -0.232,0.105 -23.006,10.928 -21.435,38.756 l 0.021,0.358 0.122,0.336 c 0.121,0.324 2.95,7.606 16.611,7.606 0.506,0 1.034,-0.014 1.572,-0.034 6.475,5.62 18.664,8.922 33.131,8.922 0.232,0 0.462,-0.002 0.694,-0.002 11.348,-0.079 25.756,-2.488 33.211,-8.919 14.964,0.554 18,-7.236 18.125,-7.575 l 0.123,-0.334 0.023,-0.358 C 82.758,139.861 59.985,129.04 59.756,128.934 Z M 76.4,166.911 c -0.592,0.937 -3.271,4.178 -11.654,4.249 0.244,-4.521 0.666,-14.717 0.066,-23.348 l -4.811,0.336 c 0.646,9.254 0.052,20.769 -0.146,24.092 -5.348,4.674 -17.023,7.717 -30.187,7.813 -13.488,0.117 -25.162,-2.881 -30.737,-7.813 -0.216,-3.262 -0.864,-14.521 -0.249,-23.939 l -4.807,-0.313 c -0.571,8.736 -0.109,18.709 0.159,23.18 -8.486,-0.068 -11.146,-3.367 -11.695,-4.232 -1.08,-23.605 17.062,-32.854 18.589,-33.586 l 9.703,-3.57 15.726,8.773 6.022,0.092 15.654,-8.871 9.783,3.57 c 1.575,0.76 19.655,10.01 18.584,33.567 z"
           style="stroke-width:9.39567" /><path
           id="path37"
           fill="#ff0000"
           d="m 37.951,65.346 c -0.083,-1.788 -0.283,-2.979 -0.78,-3.535 -0.781,-0.877 -3.145,-0.919 -7.255,-0.919 -4.051,0 -6.484,0 -7.264,0.865 -0.495,0.548 -0.693,1.757 -0.775,3.589 2.532,-0.835 5.229,-1.294 8.034,-1.294 2.81,0 5.508,0.457 8.04,1.294 z"
           style="stroke-width:9.39567" /><path
           id="path39"
           fill="#ff0000"
           d="m 21.82,73.854 c 0,4.566 0,7.321 0.834,8.244 0.781,0.865 3.22,0.865 7.262,0.865 4.042,0 6.483,0 7.261,-0.865 0.836,-0.923 0.836,-3.678 0.836,-8.244 V 70 c 0,-1.861 -0.004,-3.4 -0.064,-4.654 -2.532,-0.835 -5.232,-1.294 -8.039,-1.294 -2.805,0 -5.503,0.459 -8.035,1.294 -0.055,1.256 -0.059,2.801 -0.059,4.654 v 3.854 z"
           style="stroke-width:9.39567" /></g></g><g
       id="Calque_3_2_"
       display="none"
       style="stroke-width:3.50803"><g
         id="g46"
         display="inline"
         style="stroke-width:5.7411"><path
           id="path44"
           fill="#ff0000"
           d="M 44.534,92.829 C 48.369,74.468 36.651,64.114 21.396,64.114 c -27.344,0 -22.572,29.96 -22.572,29.96 0.03,0.003 0.059,0.004 0.089,0.007 -1.249,2.823 -1.618,7.563 4.31,13.606 3.387,9.91 9.763,17.436 18.84,17.436 8.744,0 15.212,-7.419 18.708,-17.313 7.059,-7.119 5.392,-12.437 3.763,-14.981 z M 22.062,120.33 c -9.435,0 -15.613,-12.893 -16.698,-26.145 11.859,-0.699 19.71,-6.317 23.93,-10.439 2.008,3.607 6.161,6.027 9.621,7.505 -0.346,14.216 -6.724,29.079 -16.853,29.079 z"
           style="stroke-width:9.39567" /></g><g
         id="g58"
         display="inline"
         style="stroke-width:5.7411"><path
           id="path48"
           fill="none"
           d="m 16.806,175.893 c -0.821,-0.258 -1.502,-0.899 -1.766,-1.769 L 1.191,128.428 c -0.234,-0.777 -0.099,-1.585 0.314,-2.219 l -8.607,3.165 c -1.25,0.603 -21.152,10.594 -19.747,35.938 0.224,0.521 2.767,5.795 14.013,5.795 0.466,-0.002 0.958,-0.021 1.459,-0.034 0.035,-0.003 0.071,-0.003 0.106,-0.003 0.64,0 1.261,0.229 1.745,0.654 5.199,4.51 14.798,7.428 26.247,8.084 l -0.199,-0.203 z"
           style="stroke-width:9.39567" /><path
           id="path50"
           fill="none"
           d="m 51.255,129.395 -8.458,-3.107 c 0.407,0.636 0.545,1.438 0.31,2.214 l -13.998,46.19 c -0.26,0.867 -0.938,1.509 -1.756,1.766 l 0.239,3.146 -0.141,0.146 c 9.617,-0.65 20.406,-2.992 26.251,-8.029 0.509,-0.438 1.163,-0.654 1.839,-0.646 0.482,0.021 0.954,0.03 1.411,0.03 11.178,-0.002 13.762,-5.215 14.014,-5.797 1.389,-25.038 -18.025,-35.091 -19.711,-35.913 z"
           style="stroke-width:9.39567" /><path
           id="path52"
           fill="#ff0000"
           d="m 53.4,124.518 c -0.063,-0.025 -0.123,-0.055 -0.188,-0.078 l -13.757,-5.063 c -1.345,-0.495 -2.84,0.164 -3.383,1.488 l -1.82,4.435 c -0.276,0.671 -0.267,1.423 0.023,2.089 0.291,0.659 0.84,1.178 1.52,1.426 l 1.484,0.547 -8.917,29.43 -0.917,-16.037 c -0.013,-0.243 -0.061,-0.479 -0.136,-0.701 l 2.46,-3.488 c 0.462,-0.655 0.604,-1.48 0.388,-2.254 -0.045,-0.16 -0.053,-0.188 -1.723,-4.517 -0.422,-1.096 -1.499,-1.776 -2.66,-1.7 -0.281,0.012 -1.643,0.018 -3.712,0.018 -2.072,0 -3.433,-0.006 -3.715,-0.018 -1.154,-0.088 -2.234,0.604 -2.658,1.692 -2.052,5.276 -2.052,5.276 -1.606,6.303 0.073,0.169 0.162,0.322 0.268,0.476 l 2.462,3.488 c -0.075,0.225 -0.123,0.458 -0.136,0.701 l -0.886,15.477 -8.768,-28.934 1.322,-0.482 c 0.681,-0.252 1.231,-0.77 1.522,-1.434 0.29,-0.663 0.298,-1.418 0.021,-2.091 l -1.836,-4.435 c -0.549,-1.318 -2.043,-1.974 -3.381,-1.479 l -13.588,4.996 c -0.033,0.01 -0.064,0.021 -0.095,0.035 l -0.176,0.068 c -0.034,0.019 -0.065,0.027 -0.096,0.043 -0.245,0.111 -24.545,11.604 -22.877,41.143 l 0.021,0.354 c 0.015,0.264 0.068,0.521 0.158,0.771 l 0.123,0.331 c 0.35,0.951 3.851,9.318 19.034,9.318 0.209,0 0.421,-0.004 0.637,-0.01 7.123,5.637 19.38,8.85 33.883,8.85 h 0.011 l 0.707,-0.002 c 5.464,-0.039 23.702,-0.805 33.951,-8.846 0.198,0.004 0.398,0.008 0.59,0.008 15.202,-0.004 18.685,-8.375 19.03,-9.326 l 0.123,-0.332 c 0.09,-0.239 0.143,-0.495 0.154,-0.756 l 0.021,-0.355 C 77.953,136.079 53.646,124.627 53.4,124.518 Z m -36.877,12.298 c -0.008,-0.021 1.646,-4.273 1.646,-4.273 0.194,0.027 7.586,0.027 7.779,0 0,0 1.625,4.209 1.642,4.273 l -2.629,3.733 h -5.806 z m 54.44,28.493 c -0.252,0.582 -2.834,5.795 -14.013,5.797 -0.451,0 -0.929,-0.017 -1.411,-0.029 -0.674,-0.012 -1.329,0.201 -1.839,0.645 -5.846,5.038 -16.633,7.381 -26.251,8.03 l -5.392,3.442 -5.335,-3.387 c -11.449,-0.654 -21.048,-3.572 -26.247,-8.086 -0.484,-0.422 -1.104,-0.652 -1.745,-0.652 -0.035,0 -0.073,0.004 -0.106,0.005 -0.502,0.021 -0.994,0.028 -1.459,0.03 -11.246,0 -13.79,-5.271 -14.013,-5.793 -1.404,-25.338 18.497,-35.334 19.748,-35.936 l 8.606,-3.165 c -0.412,0.638 -0.548,1.442 -0.313,2.22 l 13.847,45.698 c 0.264,0.866 0.947,1.508 1.768,1.765 l 2.525,-33.191 h 5.453 l 2.567,33.754 c 0.818,-0.258 1.496,-0.896 1.754,-1.766 l 14,-46.191 c 0.233,-0.773 0.099,-1.579 -0.312,-2.213 l 8.46,3.107 c 1.686,0.824 21.1,10.877 19.708,35.916 z"
           style="stroke-width:9.39567" /><path
           id="path54"
           fill="#ffffff"
           d="m 23.58,138.091 1.018,-1.444 c -0.148,-0.385 -0.312,-0.813 -0.469,-1.219 -0.535,0.002 -1.211,0.002 -2.067,0.002 -0.861,0 -1.538,0 -2.075,-0.002 -0.168,0.439 -0.331,0.854 -0.469,1.215 l 1.021,1.448 z"
           style="stroke-width:9.39567" /><path
           id="path56"
           fill="#ffffff"
           d="m 24.961,140.552 2.63,-3.735 c -0.019,-0.063 -1.644,-4.271 -1.644,-4.271 -0.193,0.025 -7.584,0.025 -7.778,0 0,0 -1.654,4.255 -1.646,4.271 l 2.633,3.735 z"
           style="stroke-width:9.39567" /></g><g
         id="g66"
         display="inline"
         style="stroke-width:5.7411"><path
           id="path60"
           fill="#ff0000"
           d="m 56.377,80.73 c 0,0.514 -0.415,0.931 -0.93,0.931 h -4.074 c -0.516,0 -0.931,-0.417 -0.931,-0.931 v -4.074 c 0,-0.516 0.416,-0.932 0.931,-0.932 h 4.074 c 0.515,0 0.93,0.416 0.93,0.932 z"
           style="stroke-width:9.39567" /><path
           id="path62"
           fill="#ff0000"
           d="m 65.049,80.73 c 0,0.514 -0.414,0.931 -0.931,0.931 h -4.073 c -0.517,0 -0.932,-0.417 -0.932,-0.931 v -4.074 c 0,-0.516 0.415,-0.932 0.932,-0.932 h 4.073 c 0.517,0 0.931,0.416 0.931,0.932 z"
           style="stroke-width:9.39567" /><path
           id="path64"
           fill="#ff0000"
           d="m 73.662,80.73 c 0,0.514 -0.416,0.931 -0.934,0.931 h -4.07 c -0.516,0 -0.932,-0.417 -0.932,-0.931 v -4.074 c 0,-0.516 0.416,-0.932 0.932,-0.932 h 4.07 c 0.518,0 0.934,0.416 0.934,0.932 z"
           style="stroke-width:9.39567" /></g><g
         id="g72"
         display="inline"
         style="stroke-width:5.7411"><path
           id="path68"
           fill="none"
           d="m 45.631,91.782 c 0,0.415 -0.011,0.823 -0.026,1.237 h 8.96 v 10.973 L 63.502,93.019 H 87.645 V 64.367 H 36.464 v 4.638 c 5.61,5.492 9.167,13.655 9.167,22.777 z"
           style="stroke-width:9.39567" /><path
           id="path70"
           fill="#ff0000"
           d="m 89.576,59.296 h -55.05 c -1.755,0 -3.132,1.482 -3.132,3.374 v 3.571 c 1.824,1.071 3.526,1.251 5.071,2.765 V 64.367 H 87.639 V 93.02 H 63.501 l -8.938,10.976 V 93.02 L 44.534,92.83 c -0.063,1.73 0.82,3.615 0.513,5.262 h 4.445 v 20.16 L 65.91,98.092 h 23.666 c 1.758,0 3.135,-1.482 3.135,-3.374 V 62.67 c -0.002,-1.894 -1.377,-3.374 -3.135,-3.374 z"
           style="stroke-width:9.39567" /></g></g></g></g><g
   id="Calque_3_3_"
   style="stroke:#ff8d37;stroke-width:2.98575;stroke-opacity:1"
   transform="matrix(0.33611312,0,0,0.33373865,69.873885,1.6135014)"><line
     id="line77"
     fill="none"
     stroke="#FF0000"
     stroke-width="14.9288"
     stroke-miterlimit="10"
     x1="51.303001"
     y1="106.105"
     x2="24.780001"
     y2="78.379997"
     style="stroke:#ff8d37;stroke-opacity:1" /></g><g
   id="Calque_2_1_"
   transform="matrix(0.40110397,0,0,0.40138136,66.025665,-2.774686)"
   style="stroke:#ff8d37;stroke-width:2.93066;stroke-opacity:1"><line
     id="line80"
     fill="none"
     stroke="#FF0000"
     stroke-width="12.4612"
     stroke-miterlimit="10"
     x1="81.468002"
     y1="22.834999"
     x2="24.780001"
     y2="78.379997"
     style="stroke:#ff8d37;stroke-opacity:1" /><path
     id="path82"
     fill="none"
     stroke="#FF0000"
     stroke-width="12.4612"
     stroke-miterlimit="10"
     d="M 105.435,47.397 81.063,23.025 88.826,15.264 c 2.56,-2.561 6.713,-2.56 9.271,0 l 15.101,15.101 c 2.561,2.56 2.561,6.71 0,9.271 z"
     style="stroke:#ff8d37;stroke-opacity:1" /><polyline
     id="polyline84"
     fill="none"
     stroke="#FF0000"
     stroke-width="12.4612"
     stroke-linecap="round"
     stroke-linejoin="round"
     stroke-miterlimit="10"
     points="   24.78,78.38 18.714,109.006 48.748,102.939 105.435,47.397  "
     style="stroke:#ff8d37;stroke-opacity:1" /></g></svg>
