<?xml version="1.0" encoding="utf-8"?>
<!-- Generator: Adobe Illustrator 16.0.0, SVG Export Plug-In . SVG Version: 6.00 Build 0)  -->
<!DOCTYPE svg PUBLIC "-//W3C//DTD SVG 1.1//EN" "http://www.w3.org/Graphics/SVG/1.1/DTD/svg11.dtd">
<svg version="1.1" id="Calque_1" xmlns="http://www.w3.org/2000/svg" xmlns:xlink="http://www.w3.org/1999/xlink" x="0px" y="0px"
	 width="128px" height="128px" viewBox="0 0 128 128" enable-background="new 0 0 128 128" xml:space="preserve">
<g id="Calque_1_1_" display="none">
</g>
<g>
	<path fill="none" stroke="#FF0000" stroke-width="5" stroke-linecap="round" stroke-linejoin="round" stroke-miterlimit="10" d="
		M41.339,75.581c0-4.785-3.913-8.694-8.697-8.694H19.809c-4.781,0-8.695,3.909-8.695,8.694v5.128c0,4.785,3.914,8.697,8.695,8.697
		h12.833c4.785,0,8.697,3.913,8.697,8.7v5.126c0,4.784-3.913,8.697-8.697,8.697H19.809c-4.781,0-8.695-3.913-8.695-8.697"/>
	
		<line fill="none" stroke="#FF0000" stroke-width="5" stroke-linecap="round" stroke-linejoin="round" stroke-miterlimit="10" x1="26.227" y1="66.887" x2="26.227" y2="58.024"/>
	
		<line fill="none" stroke="#FF0000" stroke-width="5" stroke-linecap="round" stroke-linejoin="round" stroke-miterlimit="10" x1="26.227" y1="120.794" x2="26.227" y2="111.93"/>
</g>
<g id="Calque_2" display="none">
	
		<polyline display="inline" fill="none" stroke="#FF0000" stroke-width="5" stroke-linecap="round" stroke-linejoin="round" stroke-miterlimit="10" points="
		-15.692,71.884 -1.538,71.884 8.923,54.038 27.539,99.884 47.385,40.5 58.154,70.191 79.077,70.191 	"/>
	
		<circle display="inline" fill="none" stroke="#FF0000" stroke-width="5" stroke-linecap="round" stroke-linejoin="round" stroke-miterlimit="10" cx="89.385" cy="69.884" r="10.308"/>
	<g display="inline">
		<path fill="none" stroke="#FF0000" stroke-width="5" stroke-linecap="round" stroke-linejoin="round" stroke-miterlimit="10" d="
			M89.385,34.5V17c0-1.657-1.343-3-3-3H72"/>
		<path fill="none" stroke="#FF0000" stroke-width="5" stroke-linecap="round" stroke-linejoin="round" stroke-miterlimit="10" d="
			M12,14H-1.5c-1.657,0-3,1.343-3,3v17.5"/>
		<path fill="none" stroke="#FF0000" stroke-width="5" stroke-linecap="round" stroke-linejoin="round" stroke-miterlimit="10" d="
			M72,115h14.385c1.657,0,3-1.343,3-3V94.5"/>
		<path fill="none" stroke="#FF0000" stroke-width="5" stroke-linecap="round" stroke-linejoin="round" stroke-miterlimit="10" d="
			M-4.5,94.5V112c0,1.657,1.343,3,3,3H12"/>
	</g>
</g>
<g>
	
		<line id="line16" fill="none" stroke="#FF0000" stroke-width="5" stroke-linecap="round" stroke-linejoin="round" stroke-miterlimit="10" x1="64.521" y1="87.927" x2="64.521" y2="28.122"/>
	
		<line id="line18" fill="none" stroke="#FF0000" stroke-width="5" stroke-linecap="round" stroke-linejoin="round" stroke-miterlimit="10" x1="47.06" y1="26.504" x2="81.04" y2="26.504"/>
	
		<path id="path22" fill="none" stroke="#FF0000" stroke-width="5" stroke-linecap="round" stroke-linejoin="round" stroke-miterlimit="10" d="
		M7.319,43.888c0,0.174,0.627,0.316,1.4,0.316h35.013c0.773,0,1.401-0.142,1.401-0.316V9.269c0-0.175-0.628-0.316-1.401-0.316H8.72
		c-0.773,0-1.4,0.141-1.4,0.316V43.888z"/>
	
		<path id="path22-1" fill="none" stroke="#FF0000" stroke-width="5" stroke-linecap="round" stroke-linejoin="round" stroke-miterlimit="10" d="
		M83.161,45.109c0,0.176,0.628,0.317,1.4,0.317h35.014c0.772,0,1.4-0.142,1.4-0.317V10.49c0-0.175-0.628-0.316-1.4-0.316H84.562
		c-0.772,0-1.4,0.141-1.4,0.316V45.109z"/>
	
		<path id="path22-3" fill="none" stroke="#FF0000" stroke-width="5" stroke-linecap="round" stroke-linejoin="round" stroke-miterlimit="10" d="
		M83.517,104.393c0,0.177,0.627,0.317,1.401,0.317h35.012c0.773,0,1.401-0.141,1.401-0.317V69.773c0-0.174-0.628-0.315-1.401-0.315
		H84.918c-0.774,0-1.401,0.142-1.401,0.315V104.393z"/>
	
		<line id="line18-4" fill="none" stroke="#FF0000" stroke-width="5" stroke-linecap="round" stroke-linejoin="round" stroke-miterlimit="10" x1="65.036" y1="87.973" x2="83.004" y2="87.973"/>
</g>
</svg>
