<?xml version="1.0" encoding="utf-8"?>
<!-- Generator: Adobe Illustrator 16.0.0, SVG Export Plug-In . SVG Version: 6.00 Build 0)  -->
<!DOCTYPE svg PUBLIC "-//W3C//DTD SVG 1.1//EN" "http://www.w3.org/Graphics/SVG/1.1/DTD/svg11.dtd">
<svg version="1.1" id="Calque_1" xmlns="http://www.w3.org/2000/svg" xmlns:xlink="http://www.w3.org/1999/xlink" x="0px" y="0px"
	 width="128px" height="128px" viewBox="0 0 128 128" enable-background="new 0 0 128 128" xml:space="preserve">
<g id="Calque_2" display="none">
</g>
<g>
	
		<line fill="none" stroke="#FF0000" stroke-width="5" stroke-linecap="round" stroke-linejoin="round" stroke-miterlimit="10" x1="44.504" y1="122.893" x2="123.725" y2="122.893"/>
	
		<line fill="none" stroke="#FF0000" stroke-width="5" stroke-linecap="round" stroke-linejoin="round" stroke-miterlimit="10" x1="7.083" y1="122.893" x2="20.914" y2="122.893"/>
	
		<polyline fill="none" stroke="#FF0000" stroke-width="5" stroke-linecap="round" stroke-linejoin="round" stroke-miterlimit="10" points="
		16.116,116.279 8.343,116.279 8.343,76.208 16.716,76.208 	"/>
	
		<polyline fill="none" stroke="#FF0000" stroke-width="5" stroke-linecap="round" stroke-linejoin="round" stroke-miterlimit="10" points="
		57.898,53.428 61.935,53.428 61.935,116.279 49.102,116.279 	"/>
	
		<rect x="68.87" y="63.357" fill="none" stroke="#FF0000" stroke-width="5" stroke-linecap="round" stroke-linejoin="round" stroke-miterlimit="10" width="23.33" height="52.922"/>
	
		<rect x="99.135" y="42.674" fill="none" stroke="#FF0000" stroke-width="5" stroke-linecap="round" stroke-linejoin="round" stroke-miterlimit="10" width="23.328" height="73.605"/>
	
		<circle fill="none" stroke="#FF0000" stroke-width="5" stroke-linecap="round" stroke-linejoin="round" stroke-miterlimit="10" cx="80.535" cy="41.93" r="5.989"/>
	
		<circle fill="none" stroke="#FF0000" stroke-width="5" stroke-linecap="round" stroke-linejoin="round" stroke-miterlimit="10" cx="110.799" cy="15.571" r="5.99"/>
	
		<line fill="none" stroke="#FF0000" stroke-width="5" stroke-linecap="round" stroke-linejoin="round" stroke-miterlimit="10" x1="85.032" y1="38.014" x2="106.286" y2="19.502"/>
	
		<line fill="none" stroke="#FF0000" stroke-width="5" stroke-linecap="round" stroke-linejoin="round" stroke-miterlimit="10" x1="66.457" y1="37" x2="74.889" y2="39.953"/>
</g>
<path fill="#FF0000" d="M61.935,30.567c0-16.373-13.269-29.645-29.639-29.645c-16.373,0-29.644,13.273-29.644,29.645
	c0,11.519,6.585,21.481,16.188,26.39v9.833l8.402,8.4l-9.042,9.046l7.6,7.6l-6.917,6.916l7.439,7.438l-7.656,7.654L31.9,127.076
	l14.044-14.046V56.875h-0.03C55.427,51.941,61.935,42.023,61.935,30.567z M32.294,30.788c-5.275,0-9.553-4.277-9.553-9.554
	c0-5.275,4.277-9.553,9.553-9.553c5.276,0,9.554,4.277,9.554,9.553C41.848,26.51,37.571,30.788,32.294,30.788z"/>
</svg>
