<?xml version="1.0" encoding="utf-8"?>
<!-- Generator: Adobe Illustrator 16.0.0, SVG Export Plug-In . SVG Version: 6.00 Build 0)  -->
<!DOCTYPE svg PUBLIC "-//W3C//DTD SVG 1.1//EN" "http://www.w3.org/Graphics/SVG/1.1/DTD/svg11.dtd">
<svg version="1.1" id="Calque_1" xmlns="http://www.w3.org/2000/svg" xmlns:xlink="http://www.w3.org/1999/xlink" x="0px" y="0px"
	 width="128px" height="128px" viewBox="0 0 128 128" enable-background="new 0 0 128 128" xml:space="preserve">
<g>
	<g>
		<path fill="none" stroke="#FF0000" stroke-width="5" stroke-linecap="round" stroke-linejoin="round" stroke-miterlimit="10" d="
			M46.011,49.135c-3.576,0-6.475-2.899-6.475-6.475l0,0c0-3.577,2.897-6.475,6.475-6.475h9.424c3.577,0,6.48,2.898,6.48,6.475l0,0"
			/>
		<path fill="none" stroke="#FF0000" stroke-width="5" stroke-linecap="round" stroke-linejoin="round" stroke-miterlimit="10" d="
			M46.011,49.135h9.424c3.577,0,6.48,2.899,6.48,6.475l0,0c0,3.577-2.903,6.479-6.48,6.479h-9.424c-3.576,0-6.475-2.901-6.475-6.479
			"/>
	</g>
	
		<line fill="none" stroke="#FF0000" stroke-width="5" stroke-linecap="round" stroke-linejoin="round" stroke-miterlimit="10" x1="50.727" y1="36.185" x2="50.727" y2="30.144"/>
	
		<line fill="none" stroke="#FF0000" stroke-width="5" stroke-linecap="round" stroke-linejoin="round" stroke-miterlimit="10" x1="50.727" y1="68.124" x2="50.727" y2="62.088"/>
</g>
<path fill="none" stroke="#FF0000" stroke-width="5" stroke-miterlimit="10" d="M80.764,31.905"/>
<path fill="none" stroke="#FF0000" stroke-width="5" stroke-miterlimit="10" d="M80.764,31.905"/>
<path fill="none" stroke="#FF0000" stroke-width="5" stroke-miterlimit="10" d="M92.456,73.009c0,0.767-0.621,1.388-1.388,1.388
	H11.225c-0.766,0-1.387-0.621-1.387-1.388V24.38c0-0.766,0.621-1.387,1.387-1.387h79.843c0.767,0,1.388,0.621,1.388,1.387V73.009z"
	/>
<line fill="none" stroke="#FF0000" stroke-width="5" stroke-linecap="round" stroke-linejoin="round" stroke-miterlimit="10" x1="120.479" y1="23.867" x2="100.482" y2="81.154"/>
<line fill="none" stroke="#FF0000" stroke-width="5" stroke-linecap="round" stroke-linejoin="round" stroke-miterlimit="10" x1="33.432" y1="94.114" x2="76.055" y2="108.99"/>
<circle fill="none" stroke="#FF0000" stroke-width="5" stroke-miterlimit="10" cx="100.461" cy="106.464" r="16.848"/>
</svg>
