<?xml version="1.0" encoding="utf-8"?>
<!-- Generator: Adobe Illustrator 16.0.0, SVG Export Plug-In . SVG Version: 6.00 Build 0)  -->
<!DOCTYPE svg PUBLIC "-//W3C//DTD SVG 1.1//EN" "http://www.w3.org/Graphics/SVG/1.1/DTD/svg11.dtd">
<svg version="1.1" id="Calque_1" xmlns="http://www.w3.org/2000/svg" xmlns:xlink="http://www.w3.org/1999/xlink" x="0px" y="0px"
	 width="128px" height="128px" viewBox="0 0 128 128" enable-background="new 0 0 128 128" xml:space="preserve">
<g id="Calque_2" display="none">
	<g display="inline">
		<g>
			<g>
				<path fill="#FF0000" d="M64.317,110.502c-25.531,0-46.297-20.766-46.297-46.29c0-25.523,20.766-46.289,46.297-46.289
					c25.523,0,46.289,20.766,46.289,46.289C110.605,89.736,89.841,110.502,64.317,110.502z M64.317,23.494
					c-22.453,0-40.727,18.266-40.727,40.719c0,22.454,18.273,40.719,40.727,40.719c22.455,0,40.719-18.266,40.719-40.719
					C105.036,41.759,86.771,23.494,64.317,23.494z"/>
			</g>
		</g>
		<g>
			<g>
				<g>
					<rect x="2.653" y="61.806" fill="#FF0000" width="40.469" height="5.571"/>
				</g>
			</g>
			<g>
				<g>
					<rect x="61.903" y="85.4" fill="#FF0000" width="5.57" height="40.477"/>
				</g>
			</g>
			<g>
				<g>
					<rect x="85.505" y="61.048" fill="#FF0000" width="40.478" height="5.579"/>
				</g>
			</g>
			<g>
				<g>
					<rect x="61.146" y="2.541" fill="#FF0000" width="5.579" height="40.484"/>
				</g>
			</g>
		</g>
	</g>
</g>
<path fill="none" stroke="#FF0000" stroke-width="5" stroke-miterlimit="10" d="M13.816,35.124L3.591,22.342
	c0,0,55.6-37.706,119.509,0l-8.309,12.782"/>
<line fill="none" stroke="#FF0000" stroke-width="5" stroke-miterlimit="10" x1="33.479" y1="9.631" x2="38.101" y2="27.455"/>
<line fill="none" stroke="#FF0000" stroke-width="5" stroke-miterlimit="10" x1="63.345" y1="23.621" x2="63.345" y2="5.591"/>
<line fill="none" stroke="#FF0000" stroke-width="5" stroke-miterlimit="10" x1="90.506" y1="27.455" x2="96.538" y2="10.528"/>
<circle fill="none" stroke="#FF0000" stroke-width="5" stroke-miterlimit="10" cx="66.022" cy="83.135" r="18.075"/>
<g>
	<path fill="none" stroke="#FF0000" stroke-width="5" stroke-linejoin="round" stroke-miterlimit="10" d="M96.416,71.628
		l0.046,0.047l10.963-25.099l-29.923,6.12c-16.812-6.341-35.581,2.147-41.921,18.958c-6.341,16.814,2.148,35.582,18.959,41.923
		s35.581-2.146,41.923-18.96C99.374,86.898,99.128,78.78,96.416,71.628z"/>
</g>
</svg>
