<?xml version="1.0" encoding="utf-8"?>
<!-- Generator: Adobe Illustrator 16.0.0, SVG Export Plug-In . SVG Version: 6.00 Build 0)  -->
<!DOCTYPE svg PUBLIC "-//W3C//DTD SVG 1.1//EN" "http://www.w3.org/Graphics/SVG/1.1/DTD/svg11.dtd">
<svg version="1.1" id="Calque_1" xmlns="http://www.w3.org/2000/svg" xmlns:xlink="http://www.w3.org/1999/xlink" x="0px" y="0px"
	 width="128px" height="128px" viewBox="0 0 128 128" enable-background="new 0 0 128 128" xml:space="preserve">
<g id="Calque_1_1_">
	<g>
		<path fill="none" stroke="#FF0000" stroke-width="5" stroke-linecap="round" stroke-linejoin="round" stroke-miterlimit="10" d="
			M73.51,52.513h41.558c5.139,0,9.342,4.202,9.342,9.34v53.801c0,5.137-4.203,9.342-9.342,9.342H39.155V73.719"/>
		<path fill="none" stroke="#FF0000" stroke-width="5" stroke-linecap="round" stroke-linejoin="round" stroke-miterlimit="10" d="
			M124.409,101.502h-15.488c-7.014,0-12.748-5.734-12.748-12.748l0,0c0-7.01,5.734-12.748,12.748-12.748h15.485"/>
		
			<circle fill="none" stroke="#FF0000" stroke-width="5" stroke-linecap="round" stroke-linejoin="round" cx="107.206" cy="88.754" r="1.823"/>
	</g>
</g>
<path fill="#FF0000" d="M66.463,1.325H4.213c-1.657,0-3,1.344-3,3v62.25c0,1.656,1.343,3,3,3h62.25c1.658,0,3-1.344,3-3V4.325
	C69.463,2.668,68.121,1.325,66.463,1.325z M16.443,54.897c-2.768,0-5.012-2.242-5.012-5.01s2.244-5.01,5.012-5.01
	c2.766,0,5.01,2.242,5.01,5.01S19.208,54.897,16.443,54.897z M16.443,39.66c-2.768,0-5.012-2.243-5.012-5.01
	c0-2.768,2.244-5.011,5.012-5.011c2.766,0,5.01,2.243,5.01,5.011C21.453,37.417,19.208,39.66,16.443,39.66z M16.443,24.422
	c-2.768,0-5.012-2.244-5.012-5.01c0-2.768,2.244-5.012,5.012-5.012c2.766,0,5.01,2.244,5.01,5.012
	C21.453,22.178,19.208,24.422,16.443,24.422z M55.07,54.045H31.341c-2.305,0-4.174-1.87-4.174-4.176s1.869-4.176,4.174-4.176H55.07
	c2.305,0,4.174,1.87,4.174,4.176S57.375,54.045,55.07,54.045z M55.07,38.807H31.341c-2.305,0-4.174-1.869-4.174-4.176
	c0-2.305,1.869-4.175,4.174-4.175H55.07c2.305,0,4.174,1.87,4.174,4.175C59.244,36.938,57.375,38.807,55.07,38.807z M55.07,23.569
	H31.341c-2.305,0-4.174-1.869-4.174-4.175s1.869-4.175,4.174-4.175H55.07c2.305,0,4.174,1.869,4.174,4.175
	S57.375,23.569,55.07,23.569z"/>
</svg>
