<?xml version="1.0" encoding="utf-8"?>
<!-- Generator: Adobe Illustrator 16.0.0, SVG Export Plug-In . SVG Version: 6.00 Build 0)  -->
<!DOCTYPE svg PUBLIC "-//W3C//DTD SVG 1.1//EN" "http://www.w3.org/Graphics/SVG/1.1/DTD/svg11.dtd">
<svg version="1.1" xmlns="http://www.w3.org/2000/svg" xmlns:xlink="http://www.w3.org/1999/xlink" x="0px" y="0px" width="128px"
	 height="128px" viewBox="0 0 128 128" enable-background="new 0 0 128 128" xml:space="preserve">
<g id="Calque_3">
	<g>
		<g>
			<path fill="none" stroke="#FF0000" stroke-width="5" stroke-linecap="round" stroke-linejoin="round" stroke-miterlimit="10" d="
				M90.611,18.195c-18.464-9.641-39.82-8.025-56.231,2.377l16.2,25.507c7.601-4.821,17.494-5.571,26.046-1.104L90.611,18.195z"/>
			<path fill="none" stroke="#FF0000" stroke-width="5" stroke-linecap="round" stroke-linejoin="round" stroke-miterlimit="10" d="
				M8.329,70.463c0.84,19.412,11.724,37.862,30.188,47.502L52.5,91.185c-8.548-4.464-13.59-13.002-13.982-21.99L8.329,70.463z"/>
			<path fill="none" stroke="#FF0000" stroke-width="5" stroke-linecap="round" stroke-linejoin="round" stroke-miterlimit="10" d="
				M94.745,115.59c8.077-5.123,14.957-12.375,19.703-21.462c4.747-9.09,6.765-18.882,6.348-28.44l-30.188,1.289
				c0.191,4.425-0.742,8.958-2.94,13.168c-2.197,4.209-5.384,7.568-9.123,9.94L94.745,115.59z"/>
		</g>
		
			<circle fill="none" stroke="#FF0000" stroke-width="5" stroke-linecap="round" stroke-linejoin="round" stroke-miterlimit="10" cx="64.563" cy="68.081" r="15.615"/>
	</g>
</g>
<g id="Calque_2_1_">
</g>
</svg>
