<?xml version="1.0" encoding="utf-8"?>
<!-- Generator: Adobe Illustrator 16.0.0, SVG Export Plug-In . SVG Version: 6.00 Build 0)  -->
<!DOCTYPE svg PUBLIC "-//W3C//DTD SVG 1.1//EN" "http://www.w3.org/Graphics/SVG/1.1/DTD/svg11.dtd">
<svg version="1.1" id="Calque_1" xmlns="http://www.w3.org/2000/svg" xmlns:xlink="http://www.w3.org/1999/xlink" x="0px" y="0px"
	 width="128px" height="128px" viewBox="0 0 128 128" enable-background="new 0 0 128 128" xml:space="preserve">
<g>
	<g>
		<path fill="none" stroke="#FF0000" stroke-width="5" stroke-linecap="round" stroke-linejoin="round" stroke-miterlimit="10" d="
			M55.498,98.523l19.3,10.715l39.208-24.258c0.453-0.283,0.979-0.436,1.51-0.436c1.904,0,3.567,1.301,4.027,3.146l0.4,1.588
			c0.509,2.051-0.26,4.205-1.957,5.467L76.549,122.52c-1.156,0.861-2.459,1.498-3.852,1.883l-1.959,0.541
			c-1.319,0.373-2.725,0.344-4.021-0.094l-41.072-13.623c-1.869-0.621-3.917-0.473-5.679,0.41l-13.081,6.418"/>
		<path fill="none" stroke="#FF0000" stroke-width="5" stroke-linecap="round" stroke-linejoin="round" stroke-miterlimit="10" d="
			M10.207,94.102l26.384-8.992c1.108-0.365,2.289-0.479,3.445-0.336l45.307-10.262c2.046,0.258,3.515,2.082,3.339,4.135
			l-0.214,2.459c-0.194,2.205-2.017,3.91-4.233,3.951l-23.585,11.4l-9.513,4.666"/>
	</g>
</g>
<g id="Calque_2">
</g>
<g>
	<g>
		<path fill="none" stroke="#FF0000" stroke-width="5" stroke-linecap="round" stroke-linejoin="round" stroke-miterlimit="10" d="
			M61.683,35.738c-2.629,0-4.758-2.131-4.758-4.758l0,0c0-2.63,2.129-4.76,4.758-4.76h6.926c2.629,0,4.76,2.13,4.76,4.76l0,0"/>
		<path fill="none" stroke="#FF0000" stroke-width="5" stroke-linecap="round" stroke-linejoin="round" stroke-miterlimit="10" d="
			M61.683,35.738h6.926c2.629,0,4.76,2.13,4.76,4.757l0,0c0,2.629-2.131,4.761-4.76,4.761h-6.926c-2.629,0-4.758-2.132-4.758-4.761"
			/>
	</g>
	
		<line fill="none" stroke="#FF0000" stroke-width="5" stroke-linecap="round" stroke-linejoin="round" stroke-miterlimit="10" x1="65.148" y1="26.22" x2="65.148" y2="21.781"/>
	
		<line fill="none" stroke="#FF0000" stroke-width="5" stroke-linecap="round" stroke-linejoin="round" stroke-miterlimit="10" x1="65.148" y1="49.695" x2="65.148" y2="45.258"/>
</g>
<path fill="none" stroke="#FF0000" stroke-width="5" stroke-miterlimit="10" d="M95.859,18.327"/>
<path fill="none" stroke="#FF0000" stroke-width="5" stroke-miterlimit="10" d="M95.859,18.327"/>
<path fill="none" stroke="#FF0000" stroke-width="5" stroke-miterlimit="10" d="M107.984,60.953c0,0.794-0.644,1.438-1.438,1.438
	h-82.8c-0.794,0-1.438-0.645-1.438-1.438v-50.43c0-0.794,0.644-1.438,1.438-1.438h82.8c0.795,0,1.438,0.645,1.438,1.438V60.953
	L107.984,60.953z"/>
</svg>
