<?xml version="1.0" encoding="utf-8"?>
<!-- Generator: Adobe Illustrator 16.0.0, SVG Export Plug-In . SVG Version: 6.00 Build 0)  -->
<!DOCTYPE svg PUBLIC "-//W3C//DTD SVG 1.1//EN" "http://www.w3.org/Graphics/SVG/1.1/DTD/svg11.dtd">
<svg version="1.1" id="Calque_2" xmlns="http://www.w3.org/2000/svg" xmlns:xlink="http://www.w3.org/1999/xlink" x="0px" y="0px"
	 width="128px" height="128px" viewBox="0 0 128 128" enable-background="new 0 0 128 128" xml:space="preserve">
<path fill="none" stroke="#FF0000" stroke-width="5" stroke-linecap="round" stroke-linejoin="round" stroke-miterlimit="10" d="
	M73.346,40.14c0,5.838-1.452,11.236-3.913,15.609c-3.685,6.541-9.622,13.705-16.321,13.705c-6.588,0-12.442-7.028-16.135-13.389
	c-2.573-4.426-4.1-9.943-4.1-15.925c0-14.577,9.06-26.396,20.237-26.396C64.289,13.746,73.346,25.562,73.346,40.14z"/>
<path fill="none" stroke="#FF0000" stroke-width="5" stroke-linecap="round" stroke-linejoin="round" stroke-miterlimit="10" d="
	M109.351,46.8c0,4.092-1.02,7.876-2.745,10.94c-2.58,4.583-6.745,9.605-11.439,9.605c-4.617,0-8.719-4.926-11.308-9.383
	c-1.803-3.101-2.873-6.969-2.873-11.162c0-10.216,6.35-18.499,14.184-18.499C103,28.301,109.351,36.583,109.351,46.8z"/>
<path fill="none" stroke="#FF0000" stroke-width="5" stroke-linecap="round" stroke-linejoin="round" stroke-miterlimit="10" d="
	M74.64,76.012c2.311-1.578,5.182-2.914,8.743-3.846c0,0,3.417,5.793,11.747,5.793h0.071c8.329,0,11.746-5.793,11.746-5.793
	c21.188,5.539,17.861,25.365,17.861,25.365s-2.102,4.564-24.687,5.148"/>
<path fill="none" stroke="#FF0000" stroke-width="5" stroke-miterlimit="10" d="M52.542,124.984
	c-44.346,0-48.364-8.491-48.364-8.491s-5.421-32.309,29.104-41.335c0,0,5.569,9.439,19.144,9.439h0.115
	c13.575,0,19.144-9.439,19.144-9.439c34.527,9.026,29.105,41.335,29.105,41.335S96.89,124.984,52.542,124.984z"/>
</svg>
