<?xml version="1.0" encoding="utf-8"?>
<!-- Generator: Adobe Illustrator 16.0.0, SVG Export Plug-In . SVG Version: 6.00 Build 0)  -->
<!DOCTYPE svg PUBLIC "-//W3C//DTD SVG 1.1//EN" "http://www.w3.org/Graphics/SVG/1.1/DTD/svg11.dtd">
<svg version="1.1" xmlns="http://www.w3.org/2000/svg" xmlns:xlink="http://www.w3.org/1999/xlink" x="0px" y="0px" width="128px"
	 height="128px" viewBox="0 0 128 128" enable-background="new 0 0 128 128" xml:space="preserve">
<g id="Calque_3">
</g>
<g id="Calque_2">
	<g>
		<g>
			<path fill="none" stroke="#FF0000" stroke-width="5" stroke-linecap="round" stroke-linejoin="round" d="M78.127,71.305
				c11.129-5.328,24.863-2.664,33.114,7.256c7.794,9.366,8.333,22.369,2.245,32.186"/>
			<g>
				
					<polyline fill="none" stroke="#FF0000" stroke-width="5" stroke-linecap="round" stroke-linejoin="round" stroke-miterlimit="10" points="
					123.09,108.902 112.346,112.438 109.598,101.471 				"/>
			</g>
		</g>
		<g>
			<path fill="none" stroke="#FF0000" stroke-width="5" stroke-linecap="round" stroke-linejoin="round" d="M101.932,121.104
				c-11.129,5.33-24.863,2.664-33.114-7.254c-7.792-9.368-8.333-22.369-2.247-32.188"/>
			<g>
				
					<polyline fill="none" stroke="#FF0000" stroke-width="5" stroke-linecap="round" stroke-linejoin="round" stroke-miterlimit="10" points="
					56.97,83.509 67.713,79.971 70.461,90.94 				"/>
			</g>
		</g>
	</g>
	<path fill="none" stroke="#FF0000" stroke-width="5" stroke-miterlimit="10" d="M62.167,117.833h-32c-2.761,0-5-2.238-5-5v-93
		v-9.667c0-2.761,2.239-5,5-5h79.667c2.762,0,5,2.239,5,5v55.667"/>
	<path fill="none" stroke="#FF0000" stroke-width="5" stroke-miterlimit="10" d="M62.167,117.833H8.5c-2.761,0-5-2.239-5-5V49.5
		c0-2.761,2.239-5,5-5h10.334"/>
	<line fill="none" stroke="#FF0000" stroke-width="5" stroke-miterlimit="10" x1="32.833" y1="15.833" x2="91.167" y2="15.833"/>
	<line fill="none" stroke="#FF0000" stroke-width="5" stroke-miterlimit="10" x1="32.833" y1="34.167" x2="91.167" y2="34.167"/>
	<line fill="none" stroke="#FF0000" stroke-width="5" stroke-miterlimit="10" x1="32.833" y1="50.833" x2="91.167" y2="50.833"/>
	<line fill="none" stroke="#FF0000" stroke-width="5" stroke-miterlimit="10" x1="32.833" y1="67.955" x2="45.167" y2="67.955"/>
	<line fill="none" stroke="#FF0000" stroke-width="5" stroke-miterlimit="10" x1="32.833" y1="86.288" x2="45.167" y2="86.288"/>
	<line fill="none" stroke="#FF0000" stroke-width="5" stroke-miterlimit="10" x1="32.833" y1="102.955" x2="45.167" y2="102.955"/>
</g>
<g id="Calque_4" display="none">
	<g id="Calque_2_1_" display="inline">
		<g>
			<path fill="none" stroke="#FF0000" stroke-width="5" stroke-linecap="round" stroke-linejoin="round" stroke-miterlimit="10" d="
				M56.677,55.628c0,0.578-0.47,1.048-1.052,1.048H5.549c-0.58,0-1.049-0.472-1.049-1.048V5.548C4.5,4.969,4.969,4.5,5.549,4.5
				h50.078c0.58,0,1.05,0.469,1.05,1.048V55.628L56.677,55.628z"/>
			<circle fill="#FF0000" cx="16.429" cy="17.486" r="3.706"/>
			<path fill="none" stroke="#FF0000" stroke-width="5" stroke-miterlimit="10" d="M24.228,17.485h22.021"/>
			<circle fill="#FF0000" cx="16.429" cy="30.588" r="3.706"/>
			<path fill="none" stroke="#FF0000" stroke-width="5" stroke-miterlimit="10" d="M24.228,30.588h22.021"/>
			<circle fill="#FF0000" cx="16.429" cy="43.688" r="3.706"/>
			<path fill="none" stroke="#FF0000" stroke-width="5" stroke-miterlimit="10" d="M24.228,43.687h22.021"/>
		</g>
	</g>
</g>
</svg>
