<?xml version="1.0" encoding="utf-8"?>
<!-- Generator: Adobe Illustrator 16.0.0, SVG Export Plug-In . SVG Version: 6.00 Build 0)  -->
<!DOCTYPE svg PUBLIC "-//W3C//DTD SVG 1.1//EN" "http://www.w3.org/Graphics/SVG/1.1/DTD/svg11.dtd">
<svg version="1.1" xmlns="http://www.w3.org/2000/svg" xmlns:xlink="http://www.w3.org/1999/xlink" x="0px" y="0px" width="128px"
	 height="128px" viewBox="0 0 128 128" enable-background="new 0 0 128 128" xml:space="preserve">
<g id="Calque_1">
	<g id="Calque_1_1_" xmlns:serif="http://www.serif.com/">
		<g id="path17">
			<path fill="none" stroke="#FF0000" stroke-width="5" stroke-linecap="round" stroke-linejoin="round" stroke-miterlimit="10" d="
				M18.725,77.645l-0.572-1.82l-1.127-3.592l-3.763-0.031l-5.797-0.044L2.964,72.12c-0.076-0.074-0.154-0.164-0.208-0.237V55.428
				c0.053-0.075,0.131-0.165,0.207-0.239l4.506-0.038l5.791-0.048l3.781-0.03l1.118-3.61l0.492-1.588
				c0.689-2.227,2.031-5.481,3.123-7.571l1.141-2.179l1.753-3.352l-2.662-2.686l-3.943-3.978c-1.223-1.233-2.702-2.728-3.304-3.458
				v-0.055c0.778-0.93,2.845-2.978,5.564-5.674l0.277-0.274c2.812-2.787,5.11-5.066,6.132-5.903
				c0.751,0.632,2.219,2.097,3.339,3.212c4.479,4.464,5.411,5.393,7.786,5.393c1.15,0,2.287-0.353,3.235-0.993
				c0.245-0.134,0.831-0.444,1.69-0.875c2.178-1.088,4.636-2.083,6.924-2.803l1.821-0.573l3.587-1.129l0.031-3.762l0.048-5.79
				l0.038-4.514c0.07-0.073,0.153-0.147,0.222-0.195h16.458"/>
			<path fill="none" stroke="#FF0000" stroke-width="5" stroke-linecap="round" stroke-linejoin="round" stroke-miterlimit="10" d="
				M71.911,2.716c0.073,0.053,0.165,0.131,0.239,0.207l0.036,4.503l0.049,5.79l0.029,3.762l3.59,1.128l1.82,0.573
				c2.426,0.762,4.763,1.722,7.152,2.933c2.707,1.372,3.432,1.74,4.802,1.74c2.262,0,2.672-0.407,7.681-5.393
				c1.145-1.136,2.649-2.634,3.38-3.241h0.064c0.928,0.778,2.974,2.84,5.664,5.555l0.278,0.282c2.891,2.917,5.089,5.134,5.905,6.135
				c-0.626,0.749-2.111,2.237-3.242,3.371l-3.915,3.927l-2.622,2.629l1.656,3.324l1.266,2.536c1.274,2.565,2.149,4.715,2.929,7.185
				l0.571,1.821l1.128,3.591l3.764,0.03l5.792,0.048l4.504,0.038c0.075,0.075,0.152,0.166,0.206,0.241v16.452
				c-0.054,0.074-0.131,0.163-0.206,0.239l-4.512,0.037l-5.798,0.048l-3.801,0.032l-1.102,3.64l-0.41,1.354
				c-0.761,2.518-2.392,6.349-3.791,8.905l-0.581,1.063l-1.861,3.394l2.732,2.741l3.986,3.994c1.583,1.591,2.666,2.735,3.25,3.383
				c-0.788,0.931-2.954,3.103-5.808,5.961l-0.224,0.226c-2.76,2.762-4.86,4.866-5.828,5.676c-0.75-0.628-2.224-2.101-3.349-3.225
				c-5.106-5.087-5.412-5.392-7.663-5.392c-1.326,0-1.89,0.28-5.021,1.831c-2.615,1.299-4.515,2.072-7.005,2.858l-1.77,0.558
				l-3.585,1.129l-0.029,3.76l-0.05,5.791l-0.034,4.503c-0.057,0.055-0.118,0.11-0.174,0.154c-0.959,0.053-3.527,0.062-7.765,0.073
				l-1.613,0.004c-3.866,0-6.355-0.034-7.177-0.065c-0.07-0.032-0.152-0.088-0.215-0.146l-0.038-4.54l-0.048-5.796l-0.031-3.802
				l-3.638-1.103l-1.36-0.412"/>
		</g>
	</g>
	<g id="Calque_2">
	</g>
</g>
<g id="Calque_3">
	<path fill="none" stroke="#FF0000" stroke-width="5" stroke-linecap="round" stroke-linejoin="round" stroke-miterlimit="10" d="
		M39.761,98.447L72.46,65.746c5.837,1.53,12.31,0.015,16.886-4.563c5.267-5.265,6.487-13.044,3.661-19.475L82.329,52.386
		c-1.495,1.5-3.946,1.5-5.444,0l-3.258-3.258c-1.5-1.498-1.5-3.95,0-5.448l10.787-10.789c-6.507-3.068-14.516-1.913-19.896,3.466
		c-4.576,4.577-6.092,11.048-4.562,16.885L27.258,85.939c-5.836-1.528-12.311-0.013-16.885,4.565
		c-5.268,5.265-6.49,13.045-3.661,19.475l10.675-10.678c1.498-1.497,3.949-1.497,5.447,0l3.259,3.26
		c1.496,1.497,1.496,3.947,0,5.445l-10.792,10.791c6.51,3.067,14.516,1.912,19.896-3.465
		C39.776,110.755,41.292,104.284,39.761,98.447z"/>
</g>
<g id="Calque_2_2_" display="none">
	<g id="Calque_2_1_" display="inline">
		<g id="Calque_3_1_">
			<g>
				
					<path fill="#FFFFFF" stroke="#FF0000" stroke-width="5" stroke-linecap="round" stroke-linejoin="round" stroke-miterlimit="10" d="
					M56.654,55.605c0,0.578-0.469,1.049-1.049,1.049H5.548c-0.579,0-1.048-0.471-1.048-1.049V5.548C4.5,4.969,4.969,4.5,5.548,4.5
					h50.058c0.58,0,1.049,0.469,1.049,1.048V55.605L56.654,55.605z"/>
				<circle fill="#FF0000" cx="16.424" cy="17.481" r="3.704"/>
				<line fill="none" stroke="#FF0000" stroke-width="4" stroke-miterlimit="10" x1="24.219" y1="17.481" x2="46.23" y2="17.481"/>
				<circle fill="#FF0000" cx="16.424" cy="30.577" r="3.704"/>
				<line fill="none" stroke="#FF0000" stroke-width="4" stroke-miterlimit="10" x1="24.219" y1="30.578" x2="46.23" y2="30.578"/>
				<circle fill="#FF0000" cx="16.424" cy="43.673" r="3.704"/>
				<line fill="none" stroke="#FF0000" stroke-width="4" stroke-miterlimit="10" x1="24.219" y1="43.672" x2="46.23" y2="43.672"/>
			</g>
		</g>
	</g>
</g>
</svg>
