<?xml version="1.0" encoding="utf-8"?>
<!-- Generator: Adobe Illustrator 16.0.0, SVG Export Plug-In . SVG Version: 6.00 Build 0)  -->
<!DOCTYPE svg PUBLIC "-//W3C//DTD SVG 1.1//EN" "http://www.w3.org/Graphics/SVG/1.1/DTD/svg11.dtd">
<svg version="1.1" id="Calque_1" xmlns="http://www.w3.org/2000/svg" xmlns:xlink="http://www.w3.org/1999/xlink" x="0px" y="0px"
	 width="128px" height="128px" viewBox="0 0 128 128" enable-background="new 0 0 128 128" xml:space="preserve">
<g id="Calque_2" display="none">
	
		<image display="inline" overflow="visible" enable-background="new    " width="601" height="351" xlink:href="DEA9C8B7.jpeg"  transform="matrix(0.9983 0 0 0.9972 -236.0005 -110)">
	</image>
</g>
<g id="Calque_3">
	<g>
		<circle fill="#FF0000" cx="45.526" cy="52.375" r="5.046"/>
		
			<line fill="none" stroke="#FF0000" stroke-width="4" stroke-linecap="round" stroke-miterlimit="10" x1="56.143" y1="52.375" x2="86.129" y2="52.375"/>
		<circle fill="#FF0000" cx="45.526" cy="70.214" r="5.046"/>
		
			<line fill="none" stroke="#FF0000" stroke-width="4" stroke-linecap="round" stroke-miterlimit="10" x1="56.143" y1="70.216" x2="86.129" y2="70.216"/>
		<circle fill="#FF0000" cx="45.526" cy="88.053" r="5.046"/>
		
			<line fill="none" stroke="#FF0000" stroke-width="4" stroke-linecap="round" stroke-miterlimit="10" x1="56.143" y1="88.052" x2="86.129" y2="88.052"/>
	</g>
</g>
<path fill="none" stroke="#FF0000" stroke-width="5" stroke-linecap="round" stroke-linejoin="round" stroke-miterlimit="10" d="
	M79.85,12.814c26.796,11.23,27.305,35.984,27.305,35.984v42.875L124,107.75V120H66.322h-3.27H5.377v-12.25L22.22,91.674V48.798
	c0,0,0.511-24.754,27.308-35.984C49.528,12.814,64.691,5.685,79.85,12.814z"/>
</svg>
