<?xml version="1.0" encoding="utf-8"?>
<!-- Generator: Adobe Illustrator 16.0.0, SVG Export Plug-In . SVG Version: 6.00 Build 0)  -->
<!DOCTYPE svg PUBLIC "-//W3C//DTD SVG 1.1//EN" "http://www.w3.org/Graphics/SVG/1.1/DTD/svg11.dtd">
<svg version="1.1" id="Calque_1" xmlns="http://www.w3.org/2000/svg" xmlns:xlink="http://www.w3.org/1999/xlink" x="0px" y="0px"
	 width="22px" height="22px" viewBox="0 0 22 22" enable-background="new 0 0 22 22" xml:space="preserve">
<g id="Calque_2">
	<g>
		<path fill="none" stroke="#FFFFFF" stroke-width="2" stroke-linecap="round" stroke-linejoin="round" stroke-miterlimit="10" d="
			M11.233,8.195l-0.051-0.227c-0.049-0.222-0.079-0.448-0.088-0.674c-0.031-0.912,0.294-1.781,0.916-2.446l2.471-2.652
			c0.623-0.667,1.47-1.052,2.381-1.083c0.912-0.032,1.781,0.292,2.445,0.916c0.668,0.622,1.053,1.466,1.086,2.378
			c0.03,0.912-0.295,1.781-0.918,2.448l-2.473,2.65c-0.621,0.666-1.464,1.051-2.374,1.083c-0.226,0.008-0.452-0.008-0.675-0.044
			l-0.229-0.036"/>
		<path fill="none" stroke="#FFFFFF" stroke-width="2" stroke-linecap="round" stroke-linejoin="round" stroke-miterlimit="10" d="
			M10.585,13.878l0.057,0.226c0.052,0.213,0.082,0.435,0.089,0.662c0.031,0.908-0.292,1.779-0.917,2.447l-2.471,2.648
			c-0.623,0.668-1.467,1.052-2.379,1.086c-0.911,0.029-1.781-0.297-2.448-0.918c-0.666-0.623-1.05-1.469-1.083-2.377
			c-0.03-0.912,0.295-1.781,0.914-2.449l2.475-2.648C5.444,11.887,6.287,11.5,7.2,11.468c0.22-0.006,0.446,0.006,0.672,0.044
			l0.231,0.039"/>
	</g>
</g>
<g id="Calque_3">
	
		<line fill="none" stroke="#FFFFFF" stroke-width="0.8253" stroke-linecap="round" stroke-linejoin="round" stroke-miterlimit="10" x1="13.953" y1="7.821" x2="7.901" y2="14.268"/>
</g>
</svg>
