<?xml version="1.0" encoding="utf-8"?>
<!-- Generator: Adobe Illustrator 16.0.0, SVG Export Plug-In . SVG Version: 6.00 Build 0)  -->
<!DOCTYPE svg PUBLIC "-//W3C//DTD SVG 1.1//EN" "http://www.w3.org/Graphics/SVG/1.1/DTD/svg11.dtd">
<svg version="1.1" id="Calque_1" xmlns:serif="http://www.serif.com/"
	 xmlns="http://www.w3.org/2000/svg" xmlns:xlink="http://www.w3.org/1999/xlink" x="0px" y="0px" width="128px" height="128px"
	 viewBox="233.64 356.945 128 128" enable-background="new 233.64 356.945 128 128" xml:space="preserve">
<g id="Calque_3">
	<path fill="none" stroke="#FF0000" stroke-width="5" stroke-linecap="round" stroke-linejoin="round" stroke-miterlimit="10" d="
		M336.591,392.609v-10.31h-97.098v16.688c0,0,10.313-1.371,10.313,11.885c0,11.103-10.313,11.103-10.313,11.103v13.361h21.283"/>
</g>
<path fill="none" stroke="#FF0000" stroke-width="5" stroke-linecap="round" stroke-linejoin="round" stroke-miterlimit="10" d="
	M309.63,419.952v14.043l11.854,11.852"/>
<g id="path17">
	<path fill="none" stroke="#FF0000" stroke-width="5" stroke-linecap="round" stroke-linejoin="round" stroke-miterlimit="10" d="
		M317.31,390.251c0.051,0.037,0.116,0.093,0.169,0.146l0.025,3.211l0.036,4.127l0.02,2.682l2.56,0.803l1.298,0.41
		c1.728,0.542,3.396,1.227,5.099,2.09c1.931,0.977,2.448,1.242,3.424,1.242c1.614,0,1.905-0.291,5.478-3.845
		c0.814-0.81,1.889-1.877,2.408-2.311h0.047c0.662,0.553,2.119,2.026,4.038,3.959l0.198,0.2c2.062,2.082,3.629,3.661,4.21,4.375
		c-0.447,0.534-1.507,1.595-2.312,2.403l-2.79,2.8l-1.869,1.876l1.181,2.368l0.899,1.81c0.91,1.829,1.532,3.361,2.087,5.122
		l0.408,1.299l0.805,2.56l2.685,0.022l4.129,0.032l3.209,0.026c0.056,0.055,0.11,0.119,0.148,0.174v11.729
		c-0.038,0.054-0.093,0.118-0.148,0.171l-3.216,0.026l-4.132,0.035l-2.712,0.022l-0.785,2.594l-0.292,0.968
		c-0.543,1.795-1.708,4.525-2.704,6.35l-0.413,0.757l-1.328,2.422l1.95,1.953l2.842,2.851c1.128,1.134,1.9,1.949,2.314,2.409
		c-0.56,0.665-2.104,2.213-4.14,4.252l-0.16,0.159c-1.966,1.97-3.463,3.47-4.154,4.047c-0.534-0.448-1.586-1.497-2.389-2.3
		c-3.642-3.626-3.858-3.845-5.465-3.845c-0.945,0-1.349,0.199-3.58,1.306c-1.864,0.926-3.218,1.479-4.994,2.039l-1.261,0.396
		l-2.557,0.807l-0.02,2.679l-0.035,4.129L317.497,477c-0.042,0.039-0.084,0.079-0.126,0.11c-0.684,0.038-2.514,0.042-5.535,0.052
		l-1.149,0.003c-2.757,0-4.531-0.022-5.116-0.045c-0.05-0.024-0.108-0.064-0.153-0.105l-0.026-3.236l-0.032-4.134l-0.022-2.71
		l-2.593-0.785l-0.972-0.296c-1.755-0.53-4.333-1.624-6.263-2.661l-0.871-0.466l-2.409-1.295l-1.938,1.931l-2.849,2.839
		c-1.133,1.127-1.949,1.901-2.409,2.317c-0.703-0.584-2.388-2.272-4.302-4.192l-0.139-0.135c-1.949-1.953-3.437-3.445-4.016-4.136
		c0.454-0.537,1.51-1.599,2.316-2.406l2.792-2.804l1.87-1.875l-1.181-2.371l-0.9-1.805c-0.916-1.841-1.541-3.371-2.091-5.119
		l-0.407-1.299l-0.804-2.562l-2.685-0.021l-4.132-0.032l-3.211-0.026c-0.052-0.051-0.109-0.115-0.147-0.169v-11.733
		c0.039-0.055,0.093-0.119,0.147-0.173l3.213-0.024l4.13-0.033l2.696-0.022l0.795-2.576l0.352-1.131
		c0.492-1.587,1.449-3.908,2.227-5.398l0.814-1.555l1.25-2.391l-1.897-1.913l-2.812-2.837c-0.873-0.879-1.927-1.945-2.355-2.466
		v-0.041c0.555-0.663,2.028-2.122,3.967-4.043l0.198-0.197c2.004-1.987,3.643-3.611,4.373-4.208c0.534,0.45,1.582,1.495,2.379,2.291
		c3.194,3.182,3.859,3.845,5.552,3.845c0.821,0,1.63-0.252,2.307-0.708c0.177-0.097,0.592-0.316,1.205-0.623
		c1.553-0.778,3.305-1.487,4.937-2l1.299-0.407l2.558-0.806l0.021-2.682l0.035-4.127l0.025-3.219
		c0.051-0.052,0.108-0.105,0.158-0.137h11.742"/>
</g>
</svg>
