<?xml version="1.0" encoding="utf-8"?>
<!-- Generator: Adobe Illustrator 16.0.0, SVG Export Plug-In . SVG Version: 6.00 Build 0)  -->
<!DOCTYPE svg PUBLIC "-//W3C//DTD SVG 1.1//EN" "http://www.w3.org/Graphics/SVG/1.1/DTD/svg11.dtd">
<svg version="1.1" xmlns="http://www.w3.org/2000/svg" xmlns:xlink="http://www.w3.org/1999/xlink" x="0px" y="0px" width="128px"
	 height="128px" viewBox="0 0 128 128" enable-background="new 0 0 128 128" xml:space="preserve">
<g id="Calque_2">
	<g>
		<path fill="none" stroke="#FF0000" stroke-width="5" stroke-linecap="round" stroke-linejoin="round" stroke-miterlimit="10" d="
			M46.143,61.452l-1.383,0.263c-1.355,0.255-2.733,0.388-4.103,0.396c-5.526-0.008-10.72-2.157-14.617-6.059L10.501,40.534
			c-3.907-3.917-6.055-9.119-6.055-14.641c0-5.532,2.148-10.725,6.055-14.623c3.906-3.907,9.103-6.059,14.631-6.063
			c5.53,0.004,10.727,2.156,14.632,6.063l15.531,15.534c3.902,3.897,6.051,9.084,6.051,14.605c0,1.362-0.136,2.735-0.401,4.08
			l-0.271,1.377"/>
		<path fill="none" stroke="#FF0000" stroke-width="5" stroke-linecap="round" stroke-linejoin="round" stroke-miterlimit="10" d="
			M80.42,66.574l1.376-0.288c1.286-0.273,2.641-0.403,4.025-0.403c5.512,0,10.707,2.15,14.618,6.06l15.526,15.528
			c3.91,3.909,6.055,9.1,6.07,14.633c-0.016,5.526-2.16,10.725-6.07,14.627c-3.911,3.902-9.107,6.054-14.618,6.063
			c-5.528-0.009-10.725-2.16-14.634-6.054l-15.527-15.541c-3.909-3.904-6.066-9.093-6.073-14.618c0-1.337,0.134-2.707,0.411-4.067
			l0.277-1.388"/>
	</g>
</g>
<g id="Calque_3">
	
		<line fill="none" stroke="#FF0000" stroke-width="5" stroke-linecap="round" stroke-linejoin="round" stroke-miterlimit="10" x1="44.454" y1="44.907" x2="82.211" y2="82.909"/>
</g>
</svg>
