<?xml version="1.0" encoding="utf-8"?>
<!-- Generator: Adobe Illustrator 16.0.0, SVG Export Plug-In . SVG Version: 6.00 Build 0)  -->
<!DOCTYPE svg PUBLIC "-//W3C//DTD SVG 1.1//EN" "http://www.w3.org/Graphics/SVG/1.1/DTD/svg11.dtd">
<svg version="1.1" id="Calque_1" xmlns="http://www.w3.org/2000/svg" xmlns:xlink="http://www.w3.org/1999/xlink" x="0px" y="0px"
	 width="128px" height="128px" viewBox="0 0 128 128" enable-background="new 0 0 128 128" xml:space="preserve">
<g id="Calque_1_1_" display="none">
</g>
<g>
	
		<line fill="none" stroke="#FF0000" stroke-width="5" stroke-linecap="round" stroke-linejoin="round" stroke-miterlimit="10" x1="73.605" y1="125.496" x2="73.605" y2="23.625"/>
	
		<polyline fill="none" stroke="#FF0000" stroke-width="5" stroke-linecap="round" stroke-linejoin="round" stroke-miterlimit="10" points="
		73.605,23.625 122.701,51.969 73.605,80.313 	"/>
</g>
<path fill="#FF0000" d="M66.25,1H4C2.343,1,1,2.344,1,4v62.25c0,1.658,1.343,3,3,3h62.25c1.657,0,3-1.342,3-3V4
	C69.25,2.344,67.907,1,66.25,1z M16.229,54.574c-2.769,0-5.012-2.244-5.012-5.012s2.243-5.01,5.012-5.01
	c2.767,0,5.01,2.242,5.01,5.01S18.996,54.574,16.229,54.574z M16.229,39.336c-2.769,0-5.012-2.244-5.012-5.01
	c0-2.769,2.243-5.012,5.012-5.012c2.767,0,5.01,2.243,5.01,5.012C21.239,37.092,18.996,39.336,16.229,39.336z M16.229,24.098
	c-2.769,0-5.012-2.243-5.012-5.01c0-2.769,2.243-5.012,5.012-5.012c2.767,0,5.01,2.243,5.01,5.012
	C21.239,21.854,18.996,24.098,16.229,24.098z M54.855,53.721H31.129c-2.306,0-4.175-1.871-4.175-4.176s1.869-4.174,4.175-4.174
	h23.727c2.307,0,4.176,1.869,4.176,4.174S57.162,53.721,54.855,53.721z M54.855,38.482H31.129c-2.306,0-4.175-1.871-4.175-4.175
	c0-2.306,1.869-4.175,4.175-4.175h23.727c2.307,0,4.176,1.869,4.176,4.175C59.031,36.611,57.162,38.482,54.855,38.482z
	 M54.855,23.246H31.129c-2.306,0-4.175-1.871-4.175-4.176s1.869-4.175,4.175-4.175h23.727c2.307,0,4.176,1.87,4.176,4.175
	S57.162,23.246,54.855,23.246z"/>
</svg>
