<?xml version="1.0" encoding="utf-8"?>
<!-- Generator: Adobe Illustrator 16.0.0, SVG Export Plug-In . SVG Version: 6.00 Build 0)  -->
<!DOCTYPE svg PUBLIC "-//W3C//DTD SVG 1.1//EN" "http://www.w3.org/Graphics/SVG/1.1/DTD/svg11.dtd">
<svg version="1.1" id="Calque_1" xmlns="http://www.w3.org/2000/svg" xmlns:xlink="http://www.w3.org/1999/xlink" x="0px" y="0px"
	 width="128px" height="128px" viewBox="0 0 128 128" enable-background="new 0 0 128 128" xml:space="preserve">
<g id="Calque_3">
	<g id="Calque_3_2_">
		
			<line fill="none" stroke="#FF0000" stroke-width="5" stroke-linecap="round" stroke-linejoin="round" stroke-miterlimit="10" x1="114.8" y1="17.169" x2="94.968" y2="88.819"/>
		
			<line fill="none" stroke="#FF0000" stroke-width="5" stroke-linecap="round" stroke-linejoin="round" stroke-miterlimit="10" x1="43.968" y1="102.205" x2="77.561" y2="111.503"/>
		<circle fill="none" stroke="#FF0000" stroke-width="5" stroke-miterlimit="10" cx="96.234" cy="108.321" r="13.01"/>
	</g>
</g>
<path fill="#FF0000" d="M66.25,1H4C2.344,1,1,2.342,1,4v62.25c0,1.656,1.344,3,3,3h62.25c1.656,0,3-1.344,3-3V4
	C69.25,2.342,67.906,1,66.25,1z M16.229,54.571c-2.768,0-5.01-2.241-5.01-5.01s2.242-5.011,5.01-5.011s5.011,2.242,5.011,5.011
	S18.996,54.571,16.229,54.571z M16.229,39.334c-2.768,0-5.01-2.242-5.01-5.01s2.242-5.011,5.01-5.011s5.011,2.243,5.011,5.011
	C21.239,37.09,18.996,39.334,16.229,39.334z M16.229,24.097c-2.768,0-5.01-2.244-5.01-5.011c0-2.768,2.242-5.012,5.01-5.012
	s5.011,2.244,5.011,5.012C21.239,21.853,18.996,24.097,16.229,24.097z M54.855,53.72H31.129c-2.305,0-4.174-1.87-4.174-4.177
	c0-2.306,1.869-4.176,4.174-4.176h23.727c2.307,0,4.176,1.87,4.176,4.176C59.031,51.85,57.162,53.72,54.855,53.72z M54.855,38.481
	H31.129c-2.305,0-4.174-1.869-4.174-4.176c0-2.306,1.869-4.175,4.174-4.175h23.727c2.307,0,4.176,1.869,4.176,4.175
	C59.031,36.612,57.162,38.481,54.855,38.481z M54.855,23.244H31.129c-2.305,0-4.174-1.869-4.174-4.176
	c0-2.306,1.869-4.175,4.174-4.175h23.727c2.307,0,4.176,1.869,4.176,4.175C59.031,21.375,57.162,23.244,54.855,23.244z"/>
</svg>
