<?xml version="1.0" encoding="utf-8"?>
<!-- Generator: Adobe Illustrator 16.0.0, SVG Export Plug-In . SVG Version: 6.00 Build 0)  -->
<!DOCTYPE svg PUBLIC "-//W3C//DTD SVG 1.1//EN" "http://www.w3.org/Graphics/SVG/1.1/DTD/svg11.dtd">
<svg version="1.1" id="Calque_1" xmlns="http://www.w3.org/2000/svg" xmlns:xlink="http://www.w3.org/1999/xlink" x="0px" y="0px"
	 width="128px" height="128px" viewBox="0 0 128 128" enable-background="new 0 0 128 128" xml:space="preserve">
<g id="Calque_1_2_">
	<g id="Calque_1_1_" xmlns:serif="http://www.serif.com/">
		<g id="path17">
			<path fill="none" stroke="#FF0000" stroke-width="5" stroke-linecap="round" stroke-linejoin="round" stroke-miterlimit="10" d="
				M46.52,105.953c-2.382-0.72-1.495-0.482-4.115-1.889l-1.18-0.633l-3.268-1.757l-2.627,2.617l-3.864,3.853
				c-1.537,1.527-2.644,2.578-3.268,3.144c-0.952-0.792-3.237-3.082-5.834-5.687l-0.183-0.187c-2.644-2.646-4.66-4.669-5.446-5.604
				c0.614-0.729,2.048-2.168,3.141-3.267l3.788-3.801L26.2,90.2l-1.602-3.216l-1.22-2.448c-1.243-2.495-2.091-4.571-2.836-6.943
				l-0.553-1.761l-1.09-3.473L15.26,72.33l-5.605-0.044l-4.353-0.035c-0.073-0.071-0.148-0.159-0.201-0.229V56.11
				c0.052-0.072,0.127-0.159,0.2-0.231l4.357-0.036l5.6-0.046l3.655-0.03l1.081-3.491l0.476-1.536c0.666-2.152,1.964-5.3,3.02-7.32
				l1.103-2.108l1.695-3.241l-2.574-2.597l-3.812-3.846c-1.183-1.193-2.614-2.638-3.195-3.343v-0.054
				c0.752-0.899,2.75-2.879,5.38-5.486l0.268-0.265c2.719-2.695,4.941-4.898,5.929-5.707c0.727,0.611,2.146,2.027,3.229,3.106
				c4.331,4.316,5.232,5.214,7.528,5.214c1.113,0,2.211-0.341,3.128-0.96c0.238-0.13,0.804-0.43,1.635-0.846
				c2.105-1.052,4.482-2.015,6.695-2.71l1.761-0.554l3.469-1.092l0.03-3.637l0.046-5.598l0.036-4.365
				c0.068-0.07,0.149-0.142,0.215-0.189h15.913"/>
			<path fill="none" stroke="#FF0000" stroke-width="5" stroke-linecap="round" stroke-linejoin="round" stroke-miterlimit="10" d="
				M71.969,5.142c0.07,0.052,0.158,0.127,0.23,0.2l0.035,4.354l0.047,5.598l0.029,3.637l3.471,1.091l1.76,0.554
				c2.346,0.737,4.605,1.665,6.916,2.836c2.617,1.326,3.318,1.682,4.643,1.682c2.188,0,2.584-0.394,7.43-5.214
				c1.104-1.099,2.563-2.547,3.27-3.134h0.063c0.896,0.752,2.875,2.746,5.478,5.371l0.271,0.272c2.795,2.822,4.92,4.965,5.709,5.933
				c-0.604,0.724-2.041,2.163-3.135,3.259l-3.785,3.797l-2.535,2.542l1.603,3.214l1.224,2.452c1.231,2.48,1.324,2.169,2.078,4.558"
				/>
		</g>
		<path id="path19_2_" fill="none" stroke="#FF0000" stroke-width="5" stroke-linecap="round" stroke-miterlimit="10" d="
			M43.111,76.022c-1.092-2.011-1.994-4.495-2.63-7.692c-0.481-2.418-0.48-6.247,0.002-8.671c1.965-9.871,9.304-17.207,19.187-19.178
			c2.396-0.478,6.232-0.476,8.66,0.003c2.282,0.451,4.432,1.186,6.416,2.184"/>
	</g>
	<g id="Calque_2">
	</g>
</g>
<path fill="none" stroke="#FF0000" stroke-width="5" stroke-linecap="round" stroke-linejoin="round" stroke-miterlimit="10" d="
	M85.221,60.311"/>
<path fill="none" stroke="#FF0000" stroke-width="5" stroke-linecap="round" stroke-linejoin="round" stroke-miterlimit="10" d="
	M75.05,60.311"/>
<circle fill="none" stroke="#FF0000" stroke-width="5" stroke-linecap="round" stroke-linejoin="round" stroke-miterlimit="10" cx="86.04" cy="86.102" r="37.96"/>
<polyline fill="none" stroke="#FF0000" stroke-width="5" stroke-linecap="round" stroke-linejoin="round" stroke-miterlimit="10" points="
	67.161,85.471 79.997,105.201 104.921,72.518 "/>
</svg>
