<?xml version="1.0" encoding="utf-8"?>
<!-- Generator: Adobe Illustrator 16.0.0, SVG Export Plug-In . SVG Version: 6.00 Build 0)  -->
<!DOCTYPE svg PUBLIC "-//W3C//DTD SVG 1.1//EN" "http://www.w3.org/Graphics/SVG/1.1/DTD/svg11.dtd">
<svg version="1.1" id="Calque_1" xmlns="http://www.w3.org/2000/svg" xmlns:xlink="http://www.w3.org/1999/xlink" x="0px" y="0px"
	 width="22px" height="22px" viewBox="0 0 22 22" enable-background="new 0 0 22 22" xml:space="preserve">
<g id="Layer_1_1_">
	
		<path id="path2" fill="#FFFFFF" stroke="#FFFFFF" stroke-width="0.75" stroke-linecap="round" stroke-linejoin="round" stroke-miterlimit="10" d="
		M5.661,20.785c1.364,0,2.646-0.531,3.61-1.494L20.227,8.337c1.627-1.627,1.627-4.275,0-5.902s-4.274-1.627-5.901,0l-9.739,9.739
		c-0.612,0.613-0.949,1.426-0.95,2.291c0,0.867,0.337,1.68,0.949,2.291c0.612,0.613,1.426,0.949,2.292,0.949
		c0.865,0,1.679-0.336,2.291-0.949l7.979-7.979l-0.623-0.623l-7.979,7.98c-0.445,0.445-1.038,0.691-1.67,0.691
		c-0.63,0-1.223-0.246-1.668-0.691c-0.445-0.444-0.691-1.038-0.691-1.668c0.001-0.631,0.247-1.225,0.692-1.67l9.737-9.74
		c1.285-1.284,3.375-1.284,4.658,0c1.283,1.284,1.283,3.374,0,4.658L8.65,18.668c-0.799,0.799-1.861,1.238-2.989,1.238
		c-2.331,0-4.227-1.896-4.227-4.227c0-1.131,0.439-2.191,1.238-2.99L12.746,2.617l-0.623-0.622L2.05,12.068
		c-0.964,0.963-1.496,2.246-1.496,3.611C0.554,18.494,2.846,20.785,5.661,20.785z"/>
</g>
</svg>
