<?xml version="1.0" encoding="utf-8"?>
<!-- Generator: Adobe Illustrator 16.0.0, SVG Export Plug-In . SVG Version: 6.00 Build 0)  -->
<!DOCTYPE svg PUBLIC "-//W3C//DTD SVG 1.1//EN" "http://www.w3.org/Graphics/SVG/1.1/DTD/svg11.dtd">
<svg version="1.1"
	 id="Layer_1" xmlns:dc="http://purl.org/dc/elements/1.1/" xmlns:sodipodi="http://sodipodi.sourceforge.net/DTD/sodipodi-0.dtd" xmlns:inkscape="http://www.inkscape.org/namespaces/inkscape" xmlns:rdf="http://www.w3.org/1999/02/22-rdf-syntax-ns#" xmlns:cc="http://creativecommons.org/ns#" xmlns:svg="http://www.w3.org/2000/svg" inkscape:version="1.0 (4035a4fb49, 2020-05-01)" sodipodi:docname="iconTicket.svg"
	 xmlns="http://www.w3.org/2000/svg" xmlns:xlink="http://www.w3.org/1999/xlink" x="0px" y="0px" width="128px" height="128px"
	 viewBox="0 0 128 128" enable-background="new 0 0 128 128" xml:space="preserve">
<sodipodi:namedview  inkscape:cx="22.296444" pagecolor="#ffffff" inkscape:cy="24.881783" borderopacity="1" bordercolor="#666666" showgrid="false" objecttolerance="10" guidetolerance="10" gridtolerance="10" inkscape:zoom="14.75" id="namedview27" inkscape:window-width="1920" inkscape:pageopacity="0" inkscape:window-y="-8" inkscape:document-rotation="0" inkscape:current-layer="Layer_1" inkscape:window-height="1017" inkscape:window-maximized="1" inkscape:snap-global="false" inkscape:window-x="-8" inkscape:pageshadow="2">
	</sodipodi:namedview>
<circle fill="none" stroke="#FF0000" stroke-width="5" stroke-linecap="round" stroke-linejoin="round" stroke-miterlimit="10" cx="64.674" cy="65.367" r="33.576"/>
<polyline fill="none" stroke="#FF0000" stroke-width="5" stroke-linecap="round" stroke-linejoin="round" stroke-miterlimit="10" points="
	88.383,41.698 88.436,41.647 94.373,35.708 "/>
<circle fill="#FF0000" cx="98.375" cy="31.709" r="5.658"/>
<polyline fill="none" stroke="#FF0000" stroke-width="5" stroke-linecap="round" stroke-linejoin="round" stroke-miterlimit="10" points="
	40.962,89.122 40.952,89.131 34.972,95.109 "/>
<circle fill="#FF0000" cx="30.974" cy="99.109" r="5.658"/>
<polyline fill="none" stroke="#FF0000" stroke-width="5" stroke-linecap="round" stroke-linejoin="round" stroke-miterlimit="10" points="
	40.962,41.698 40.911,41.647 34.972,35.708 "/>
<circle fill="#FF0000" cx="30.974" cy="31.709" r="5.658"/>
<polyline fill="none" stroke="#FF0000" stroke-width="5" stroke-linecap="round" stroke-linejoin="round" stroke-miterlimit="10" points="
	88.383,89.122 88.395,89.131 94.373,95.109 "/>
<circle fill="#FF0000" cx="98.375" cy="99.109" r="5.659"/>
<polyline fill="none" stroke="#FF0000" stroke-width="5" stroke-linecap="round" stroke-linejoin="round" stroke-miterlimit="10" points="
	98.208,65.406 98.248,65.406 108.259,65.406 "/>
<path fill="#FF0000" d="M116.262,73.411c-4.416,0-7.998-3.582-7.998-8.001s3.582-8.001,7.998-8.001c4.42,0,8.002,3.582,8.002,8.001
	S120.682,73.411,116.262,73.411z"/>
<polyline fill="none" stroke="#FF0000" stroke-width="5" stroke-linecap="round" stroke-linejoin="round" stroke-miterlimit="10" points="
	31.139,65.406 31.098,65.406 21.087,65.406 "/>
<circle fill="#FF0000" cx="13.086" cy="65.41" r="8.001"/>
<polyline fill="none" stroke="#FF0000" stroke-width="5" stroke-linecap="round" stroke-linejoin="round" stroke-miterlimit="10" points="
	64.676,31.877 64.676,31.79 64.676,21.823 "/>
<circle fill="#FF0000" cx="64.674" cy="13.822" r="8.001"/>
<line fill="none" stroke="#FF0000" stroke-width="5" stroke-linecap="round" stroke-linejoin="round" stroke-miterlimit="10" x1="64.676" y1="109.124" x2="64.676" y2="98.943"/>
<circle fill="#FF0000" cx="64.674" cy="117.124" r="8.001"/>
<g>
	
		<line fill="none" stroke="#FF0000" stroke-width="5" stroke-linecap="round" stroke-linejoin="round" stroke-miterlimit="10" x1="81.583" y1="49.972" x2="48.103" y2="83.452"/>
	
		<line fill="none" stroke="#FF0000" stroke-width="5" stroke-linecap="round" stroke-linejoin="round" stroke-miterlimit="10" x1="81.583" y1="83.452" x2="48.103" y2="49.972"/>
</g>
</svg>
