<?xml version="1.0" encoding="utf-8"?>
<!-- Generator: Adobe Illustrator 16.0.0, SVG Export Plug-In . SVG Version: 6.00 Build 0)  -->
<!DOCTYPE svg PUBLIC "-//W3C//DTD SVG 1.1//EN" "http://www.w3.org/Graphics/SVG/1.1/DTD/svg11.dtd">
<svg version="1.1"
	 id="svg42" xmlns:dc="http://purl.org/dc/elements/1.1/" xmlns:cc="http://creativecommons.org/ns#" xmlns:inkscape="http://www.inkscape.org/namespaces/inkscape" xmlns:sodipodi="http://sodipodi.sourceforge.net/DTD/sodipodi-0.dtd" xmlns:svg="http://www.w3.org/2000/svg" xmlns:rdf="http://www.w3.org/1999/02/22-rdf-syntax-ns#" inkscape:version="1.0 (4035a4fb49, 2020-05-01)" sodipodi:docname="iconPlanning.svg"
	 xmlns="http://www.w3.org/2000/svg" xmlns:xlink="http://www.w3.org/1999/xlink" x="0px" y="0px" width="128px" height="128px"
	 viewBox="0 0 128 128" enable-background="new 0 0 128 128" xml:space="preserve">
<sodipodi:namedview  bordercolor="#666666" borderopacity="1" showgrid="false" guidetolerance="10" inkscape:cx="62.793161" gridtolerance="10" inkscape:zoom="4.0603397" pagecolor="#ffffff" id="namedview44" inkscape:cy="86.204818" objecttolerance="10" inkscape:window-maximized="1" inkscape:window-width="1920" inkscape:pageshadow="2" inkscape:pageopacity="0" inkscape:window-y="-8" inkscape:window-height="1017" inkscape:window-x="-8" inkscape:current-layer="svg42">
	</sodipodi:namedview>
<g id="Calque_1" display="none">
	<g id="Calque_1_2_" display="inline">
		<g id="Calque_1_1_">
		</g>
		
			<line id="line3" fill="none" stroke="#FF0000" stroke-width="11" stroke-miterlimit="10" x1="5.1" y1="35.064" x2="58.226" y2="35.064"/>
		
			<line id="line5" fill="none" stroke="#FF0000" stroke-width="11" stroke-miterlimit="10" x1="58.226" y1="46.698" x2="86.372" y2="46.698"/>
		
			<line id="line7" fill="none" stroke="#FF0000" stroke-width="11" stroke-miterlimit="10" x1="17.83" y1="68.512" x2="45.601" y2="68.512"/>
		
			<line id="line9" fill="none" stroke="#FF0000" stroke-width="11" stroke-miterlimit="10" x1="45.601" y1="81.646" x2="68.682" y2="81.646"/>
		
			<line id="line11" fill="none" stroke="#FF0000" stroke-width="11" stroke-miterlimit="10" x1="67.805" y1="92.5" x2="113.844" y2="92.5"/>
		<path id="path13" fill="none" stroke="#FF0000" stroke-width="5" stroke-miterlimit="10" d="M124.111,105.398
			c0,3.594-2.688,6.509-6.006,6.509H11.022c-3.316,0-6.004-2.915-6.004-6.509V15.383c0-3.594,2.688-6.507,6.004-6.507h107.083
			c3.314,0,6.006,2.914,6.006,6.507V105.398z"/>
	</g>
	<g id="Calque_1_3_" display="inline">
	</g>
	
		<path id="path17" display="inline" fill="none" stroke="#FF0000" stroke-width="5" stroke-linecap="round" stroke-miterlimit="10" d="
		M120.105,121.5H13.022c-3.316,0-6.004-2.915-6.004-6.509V12.5"/>
	
		<line id="line19" display="inline" fill="none" stroke="#FF0000" stroke-width="11" stroke-miterlimit="10" x1="24.572" y1="26.21" x2="103.43" y2="26.21"/>
	
		<line id="line21" display="inline" fill="none" stroke="#FF0000" stroke-width="11" stroke-miterlimit="10" x1="17.501" y1="50.5" x2="65.251" y2="50.5"/>
	
		<line id="line23" display="inline" fill="none" stroke="#FF0000" stroke-width="11" stroke-miterlimit="10" x1="65.251" y1="67" x2="102.045" y2="67"/>
	
		<line id="line25" display="inline" fill="none" stroke="#FF0000" stroke-width="11" stroke-miterlimit="10" x1="33.251" y1="98.473" x2="81.002" y2="98.473"/>
</g>
<g id="Calque_2">
</g>
<g>
	<g>
		<path fill="none" stroke="#FF0000" stroke-width="5" stroke-linecap="round" stroke-linejoin="round" stroke-miterlimit="10" d="
			M61.52,99.761l14.496,7.967l40.152-24.842c0.465-0.29,1.001-0.441,1.546-0.441c1.951,0,3.654,1.328,4.125,3.22l0.411,1.624
			c0.52,2.103-0.267,4.308-2.006,5.601l-42.436,31.514c-1.184,0.883-2.519,1.534-3.943,1.928l-2.005,0.556
			c-1.354,0.38-2.791,0.344-4.12-0.098l-42.061-13.951c-1.914-0.635-4.009-0.483-5.816,0.422L6.467,119.83"/>
		<path fill="none" stroke="#FF0000" stroke-width="5" stroke-linecap="round" stroke-linejoin="round" stroke-miterlimit="10" d="
			M9.87,92.228l27.02-9.208c1.136-0.38,2.344-0.496,3.528-0.346l46.396,5.877c2.096,0.265,3.601,2.133,3.419,4.234l-0.217,2.518
			c-0.199,2.259-2.065,4.004-4.337,4.048l-24.159,0.41l-9.743-0.346"/>
		<path fill="none" stroke="#FF0000" stroke-width="5" stroke-linecap="round" stroke-linejoin="round" stroke-miterlimit="10" d="
			M84.893,88.307l18.021-7.151c0.971-0.342,2.029-0.344,2.999-0.004l0,0c2.212,0.774,3.694,2.864,3.694,5.21v0.582"/>
	</g>
	<g>
		<g>
			<g>
				
					<path fill="none" stroke="#FF0000" stroke-width="5" stroke-linecap="round" stroke-linejoin="round" stroke-miterlimit="10" d="
					M59.247,38.674c-2.632,0-4.765-2.134-4.765-4.766l0,0c0-2.632,2.133-4.764,4.765-4.764h6.936c2.632,0,4.767,2.132,4.767,4.764
					l0,0"/>
				
					<path fill="none" stroke="#FF0000" stroke-width="5" stroke-linecap="round" stroke-linejoin="round" stroke-miterlimit="10" d="
					M59.247,38.674h6.936c2.632,0,4.767,2.132,4.767,4.766l0,0c0,2.632-2.135,4.764-4.767,4.764h-6.936
					c-2.632,0-4.765-2.132-4.765-4.764"/>
			</g>
			
				<line fill="none" stroke="#FF0000" stroke-width="5" stroke-linecap="round" stroke-linejoin="round" stroke-miterlimit="10" x1="62.715" y1="29.144" x2="62.715" y2="24.7"/>
			
				<line fill="none" stroke="#FF0000" stroke-width="5" stroke-linecap="round" stroke-linejoin="round" stroke-miterlimit="10" x1="62.715" y1="52.648" x2="62.715" y2="48.204"/>
		</g>
		
			<circle fill="none" stroke="#FF0000" stroke-width="5" stroke-linecap="round" stroke-linejoin="round" stroke-miterlimit="10" cx="62.715" cy="38.674" r="29.43"/>
	</g>
</g>
</svg>
