<?xml version="1.0" encoding="utf-8"?>
<!-- Generator: Adobe Illustrator 16.0.0, SVG Export Plug-In . SVG Version: 6.00 Build 0)  -->
<!DOCTYPE svg PUBLIC "-//W3C//DTD SVG 1.1//EN" "http://www.w3.org/Graphics/SVG/1.1/DTD/svg11.dtd">
<svg version="1.1" id="Calque_1" xmlns="http://www.w3.org/2000/svg" xmlns:xlink="http://www.w3.org/1999/xlink" x="0px" y="0px"
	 width="128px" height="128px" viewBox="0 0 128 128" enable-background="new 0 0 128 128" xml:space="preserve">
<ellipse fill="none" stroke="#FF0000" stroke-width="5" stroke-miterlimit="10" cx="46.881" cy="17.08" rx="43.985" ry="13.375"/>
<path fill="none" stroke="#FF0000" stroke-width="5" stroke-linecap="round" stroke-miterlimit="10" d="M2.898,18.262v87.496
	c0,7.388,19.691,13.376,43.983,13.376c8.229,0,15.931-0.688,22.517-1.884"/>
<line fill="none" stroke="#FF0000" stroke-width="5" stroke-linecap="round" stroke-linejoin="round" stroke-miterlimit="10" x1="90.866" y1="17.081" x2="90.866" y2="40.14"/>
<path fill="none" stroke="#FF0000" stroke-width="5" stroke-linecap="round" stroke-linejoin="round" stroke-miterlimit="10" d="
	M2.898,51.356c19.053,12.871,53.074,10.06,53.074,10.06"/>
<path fill="none" stroke="#FF0000" stroke-width="5" stroke-linecap="round" stroke-linejoin="round" stroke-miterlimit="10" d="
	M2.898,80.721c14.727,9.432,33.758,10.342,46.456,9.597"/>
<g id="Calque_2">
</g>
<g id="Calque_2_1_">
	<g>
		<path fill="#FF0000" d="M82.49,108.222c-1.072-1.071-1.605-2.42-1.605-4.047V89.32H66.026c-1.627,0-2.977-0.556-4.047-1.664
			c-1.071-1.105-1.606-2.476-1.606-4.103c0-1.625,0.535-2.976,1.606-4.047c1.07-1.07,2.42-1.607,4.047-1.607h14.854V63.043
			c0-1.551,0.57-2.881,1.719-3.99c1.146-1.108,2.457-1.663,3.938-1.663c1.623,0,2.975,0.537,4.045,1.608s1.607,2.42,1.607,4.045
			v14.854h14.854c1.555,0,2.9,0.557,4.047,1.664c1.146,1.105,1.721,2.479,1.721,4.104c0,1.553-0.57,2.884-1.721,3.99
			c-1.146,1.107-2.492,1.662-4.047,1.662H92.189v14.855c0,1.627-0.537,2.976-1.607,4.047c-1.07,1.07-2.422,1.605-4.045,1.605
			C84.91,109.828,83.559,109.293,82.49,108.222z"/>
	</g>
	<circle fill="none" stroke="#FF0000" stroke-width="5" stroke-miterlimit="10" cx="86.479" cy="83.609" r="37.729"/>
</g>
</svg>
