<?xml version="1.0" encoding="utf-8"?>
<!-- Generator: Adobe Illustrator 16.0.0, SVG Export Plug-In . SVG Version: 6.00 Build 0)  -->
<!DOCTYPE svg PUBLIC "-//W3C//DTD SVG 1.1//EN" "http://www.w3.org/Graphics/SVG/1.1/DTD/svg11.dtd">
<svg version="1.1" xmlns="http://www.w3.org/2000/svg" xmlns:xlink="http://www.w3.org/1999/xlink" x="0px" y="0px" width="128px"
	 height="128px" viewBox="0 0 128 128" enable-background="new 0 0 128 128" xml:space="preserve">
<g id="svg9" xmlns:dc="http://purl.org/dc/elements/1.1/" xmlns:cc="http://creativecommons.org/ns#" xmlns:rdf="http://www.w3.org/1999/02/22-rdf-syntax-ns#" xmlns:svg="http://www.w3.org/2000/svg" xmlns:sodipodi="http://sodipodi.sourceforge.net/DTD/sodipodi-0.dtd" xmlns:inkscape="http://www.inkscape.org/namespaces/inkscape" inkscape:version="1.0 (4035a4fb49, 2020-05-01)" sodipodi:docname="iconProject.svg">
	
		<sodipodi:namedview  inkscape:cy="20.329412" inkscape:cx="24" inkscape:zoom="17.708333" showgrid="false" guidetolerance="10" gridtolerance="10" objecttolerance="10" bordercolor="#666666" pagecolor="#ffffff" borderopacity="1" id="namedview11" inkscape:current-layer="svg9" inkscape:window-maximized="1" inkscape:window-y="-8" inkscape:window-x="-8" inkscape:window-height="1017" inkscape:window-width="1920" inkscape:pageshadow="2" inkscape:pageopacity="0" inkscape:document-rotation="0">
		</sodipodi:namedview>
	<title  id="title2"></title>
	<rect x="-125.277" y="51.392" fill="#FF0000" width="0" height="0"/>
	<line fill="none" stroke="#FF0000" stroke-width="5" stroke-miterlimit="10" x1="2.38" y1="63.217" x2="126.048" y2="63.217"/>
	<path fill="none" stroke="#FF0000" stroke-width="5" stroke-miterlimit="10" d="M78.034,79.884c0,0.553-0.447,1-1,1h-25.64
		c-0.552,0-1-0.447-1-1V64.217c0-0.552,0.448-1,1-1h25.64c0.553,0,1,0.448,1,1V79.884z"/>
	<path fill="none" stroke="#FF0000" stroke-width="5" stroke-miterlimit="10" d="M86.867,13.923c0-0.552-0.447-1-1-1H42.133
		c-0.552,0-1,0.448-1,1v10.396c0,0.552,0.448,1,1,1h43.734c0.553,0,1-0.448,1-1V13.923z"/>
</g>
<g id="Calque_2">
	<path fill="none" stroke="#FF0000" stroke-width="5" stroke-miterlimit="10" d="M126.048,106.801c0,2.762-2.238,5-5,5H7.38
		c-2.761,0-5-2.238-5-5V31.319c0-2.761,2.239-5,5-5h113.668c2.762,0,5,2.239,5,5V106.801z"/>
</g>
</svg>
