<?xml version="1.0" encoding="utf-8"?>
<!-- Generator: Adobe Illustrator 16.0.0, SVG Export Plug-In . SVG Version: 6.00 Build 0)  -->
<!DOCTYPE svg PUBLIC "-//W3C//DTD SVG 1.1//EN" "http://www.w3.org/Graphics/SVG/1.1/DTD/svg11.dtd">
<svg version="1.1" id="Calque_1" xmlns="http://www.w3.org/2000/svg" xmlns:xlink="http://www.w3.org/1999/xlink" x="0px" y="0px"
	 width="128px" height="128px" viewBox="0 0 128 128" enable-background="new 0 0 128 128" xml:space="preserve">
<g id="Layer_1_1_">
	<path id="path2" fill="#FF0000" d="M34.126,120.496c7.63,0,14.804-2.973,20.197-8.359l61.295-61.288
		c9.104-9.103,9.104-23.918,0-33.021s-23.92-9.103-33.022,0L28.105,72.314c-3.423,3.433-5.308,7.979-5.313,12.818
		c0,4.852,1.885,9.397,5.308,12.818c3.423,3.431,7.98,5.311,12.824,5.311c4.841,0,9.395-1.88,12.818-5.311L98.387,53.31
		l-3.485-3.486L50.255,94.473c-2.489,2.49-5.808,3.867-9.343,3.867c-3.524,0-6.843-1.377-9.332-3.867
		c-2.489-2.486-3.866-5.81-3.866-9.332c0.005-3.531,1.382-6.853,3.871-9.345L86.07,21.303c7.19-7.185,18.883-7.185,26.063,0
		c7.182,7.182,7.182,18.877,0,26.06L50.849,108.65c-4.469,4.469-10.411,6.928-16.722,6.928c-13.042,0-23.65-10.609-23.65-23.646
		c0-6.322,2.456-12.262,6.925-16.729l56.364-56.354l-3.485-3.48L13.921,71.727c-5.393,5.389-8.368,12.566-8.368,20.205
		C5.554,107.678,18.377,120.496,34.126,120.496z"/>
</g>
</svg>
