<?xml version="1.0" encoding="utf-8"?>
<!-- Generator: Adobe Illustrator 16.0.0, SVG Export Plug-In . SVG Version: 6.00 Build 0)  -->
<!DOCTYPE svg PUBLIC "-//W3C//DTD SVG 1.1//EN" "http://www.w3.org/Graphics/SVG/1.1/DTD/svg11.dtd">
<svg version="1.1" id="Calque_1" xmlns="http://www.w3.org/2000/svg" xmlns:xlink="http://www.w3.org/1999/xlink" x="0px" y="0px"
	 width="128px" height="128px" viewBox="0 0 128 128" enable-background="new 0 0 128 128" xml:space="preserve">
<g>
	<path fill="none" stroke="#FF0000" stroke-width="5" stroke-linecap="round" stroke-linejoin="round" stroke-miterlimit="10" d="
		M123,79.093c0,8.111-6.577,14.688-14.689,14.688c-2.983,0-5.741-0.89-8.057-2.409c0,0-3.001-1.609-6.503-2.148v33.045H61.506
		c1.611-6.502,3.167-10.761,3.167-10.761c0.278-1.056,0.425-2.187,0.425-3.317c0-7.26-5.871-13.132-13.112-13.132
		c-7.262,0-13.134,5.872-13.134,13.132c0,1.131,0.148,2.262,0.427,3.317c0,0,0.629,1.723,1.518,4.667
		c0.501,1.668,1.075,3.741,1.65,6.094H7.383V88.983c5.964,1.518,9.797,2.927,9.797,2.927c1.056,0.277,2.167,0.426,3.317,0.426
		c7.241,0,13.132-5.872,13.132-13.133c0-7.242-5.891-13.113-13.132-13.113c-1.15,0-2.261,0.148-3.317,0.425
		c0,0-1.722,0.629-4.667,1.52c-1.445,0.427-3.167,0.908-5.13,1.407V35.917h33.172c-0.222-4.019-2.259-7.836-2.259-7.836
		c-1.538-2.315-2.408-5.075-2.408-8.056c0-8.095,6.575-14.67,14.669-14.67c8.113,0,14.688,6.575,14.688,14.67
		c0,2.981-0.87,5.741-2.408,8.056c0,0-2.036,3.817-2.279,7.836h33.192V68.96c1.742-0.261,3.372-0.813,4.559-1.277
		c1.185-0.463,1.944-0.871,1.944-0.871c2.315-1.52,5.073-2.408,8.057-2.408C116.423,64.403,123,70.979,123,79.093z"/>
</g>
</svg>
