<?xml version="1.0" encoding="utf-8"?>
<!-- Generator: Adobe Illustrator 16.0.0, SVG Export Plug-In . SVG Version: 6.00 Build 0)  -->
<!DOCTYPE svg PUBLIC "-//W3C//DTD SVG 1.1//EN" "http://www.w3.org/Graphics/SVG/1.1/DTD/svg11.dtd">
<svg version="1.1" id="Calque_1" xmlns="http://www.w3.org/2000/svg" xmlns:xlink="http://www.w3.org/1999/xlink" x="0px" y="0px"
	 width="128px" height="128px" viewBox="0 0 128 128" enable-background="new 0 0 128 128" xml:space="preserve">
<g id="Calque_2" display="none">
	<g display="inline">
		<path fill="none" stroke="#000000" stroke-width="2" stroke-linecap="round" stroke-linejoin="round" stroke-miterlimit="10" d="
			M-293.012-69.888c2.487-5.484,8.021-9.322,14.408-9.322l0,0c8.694,0,15.809,7.114,15.809,15.808v6.764"/>
		<path fill="none" stroke="#000000" stroke-width="2" stroke-linecap="round" stroke-linejoin="round" stroke-miterlimit="10" d="
			M-262.794-53.17c-2.285,0.536-3.122-0.866-3.135-3.007c-0.014-2.14-0.185-7.225-0.185-7.225c0-6.887-5.602-12.49-12.49-12.49
			c-5.669,0-10.469,3.797-11.989,8.982c0,0-1.671,2.799-3.099-0.056"/>
		<path fill="none" stroke="#000000" stroke-width="2" stroke-linecap="round" stroke-linejoin="round" stroke-miterlimit="10" d="
			M-293.691-62.278c3.979,2.331,5.917-3.164,7.307-5.973c1.39-2.81,4.503-4.321,7.781-4.321c5.057,0,9.172,4.113,9.172,9.17
			c0,0-0.871,15.484,6.638,13.839"/>
		<path fill="none" stroke="#000000" stroke-width="2" stroke-linecap="round" stroke-linejoin="round" stroke-miterlimit="10" d="
			M-293.691-58.345c3.432,0.799,6.076-0.747,7.597-2.457c1.198-1.347,1.463-2.762,1.463-2.762c1.091-4.003,2.8-5.69,6.027-5.69
			c3.228,0,5.852,2.626,5.852,5.853c0,0-0.143,9.465,1.959,11.634"/>
		<path fill="none" stroke="#000000" stroke-width="2" stroke-linecap="round" stroke-linejoin="round" stroke-miterlimit="10" d="
			M-293.691-54.141c11.449,0.474,12.554-9.262,12.554-9.262c0-1.396,1.137-2.534,2.533-2.534c1.397,0,2.534,1.137,2.534,2.534"/>
		<path fill="none" stroke="#000000" stroke-width="2" stroke-linecap="round" stroke-linejoin="round" stroke-miterlimit="10" d="
			M-278.604-62.278c0,0,1.274,10.375-15.088,12.002"/>
		<path fill="none" stroke="#000000" stroke-width="2" stroke-linecap="round" stroke-linejoin="round" stroke-miterlimit="10" d="
			M-275.082-51.404c0,0,4.986,6.076,12.123,5.037"/>
		<path fill="none" stroke="#000000" stroke-width="2" stroke-linecap="round" stroke-linejoin="round" stroke-miterlimit="10" d="
			M-294.287-46.653c0,0,12.87-1.061,16.383-7.146"/>
		<path fill="none" stroke="#000000" stroke-width="2" stroke-linecap="round" stroke-linejoin="round" stroke-miterlimit="10" d="
			M-275.618-60.511c0,0-1.114,3.533,0.537,5.655"/>
		<path fill="none" stroke="#000000" stroke-width="2" stroke-linecap="round" stroke-linejoin="round" stroke-miterlimit="10" d="
			M-293.307-42.84c0,0,10.72-1.295,15.837-6.212"/>
		<path fill="none" stroke="#000000" stroke-width="2" stroke-linecap="round" stroke-linejoin="round" stroke-miterlimit="10" d="
			M-275.533-46.888c0,0,4.16,4.731,11.342,4.731"/>
		<path fill="none" stroke="#000000" stroke-width="2" stroke-linecap="round" stroke-linejoin="round" stroke-miterlimit="10" d="
			M-291.502-39.521c0,0,10.113-1.357,13.259-4.884c0,0,4.513,4.908,11.722,5.941"/>
		<path fill="none" stroke="#000000" stroke-width="2" stroke-linecap="round" stroke-linejoin="round" stroke-miterlimit="10" d="
			M-289.101-36.504c0,0,8.289-1.627,10.521-3.503c0,0,7.591,4.508,9.215,4.186"/>
		<path fill="none" stroke="#000000" stroke-width="2" stroke-linecap="round" stroke-linejoin="round" stroke-miterlimit="10" d="
			M-284.881-34.126c0,0,4.943-3.553,12.548,0.517"/>
	</g>
	<g display="inline">
		<path fill="none" stroke="#000000" stroke-width="2" stroke-linecap="round" stroke-linejoin="round" stroke-miterlimit="10" d="
			M-293.012,156.404c2.487-5.483,8.021-9.323,14.408-9.323l0,0c8.694,0,15.809,7.114,15.809,15.81v6.764"/>
		<path fill="none" stroke="#000000" stroke-width="2" stroke-linecap="round" stroke-linejoin="round" stroke-miterlimit="10" d="
			M-262.794,173.122c-2.285,0.535-3.122-0.867-3.135-3.007c-0.014-2.141-0.185-7.225-0.185-7.225c0-6.89-5.602-12.49-12.49-12.49
			c-5.669,0-10.469,3.798-11.989,8.98c0,0-1.671,2.801-3.099-0.057"/>
		<path fill="none" stroke="#000000" stroke-width="2" stroke-linecap="round" stroke-linejoin="round" stroke-miterlimit="10" d="
			M-293.691,164.014c3.979,2.332,5.917-3.164,7.307-5.974c1.39-2.81,4.503-4.321,7.781-4.321c5.057,0,9.172,4.114,9.172,9.172
			c0,0-0.871,15.484,6.638,13.84"/>
		<path fill="none" stroke="#000000" stroke-width="2" stroke-linecap="round" stroke-linejoin="round" stroke-miterlimit="10" d="
			M-293.691,167.947c3.432,0.8,6.076-0.748,7.597-2.457c1.198-1.348,1.463-2.762,1.463-2.762c1.091-4.004,2.8-5.69,6.027-5.69
			c3.228,0,5.852,2.625,5.852,5.853c0,0-0.143,9.465,1.959,11.635"/>
		<path fill="none" stroke="#000000" stroke-width="2" stroke-linecap="round" stroke-linejoin="round" stroke-miterlimit="10" d="
			M-293.691,172.15c11.449,0.476,12.554-9.26,12.554-9.26c0-1.397,1.137-2.535,2.533-2.535c1.397,0,2.534,1.138,2.534,2.535"/>
		<path fill="none" stroke="#000000" stroke-width="2" stroke-linecap="round" stroke-linejoin="round" stroke-miterlimit="10" d="
			M-278.604,164.014c0,0,1.274,10.377-15.088,12.002"/>
		<path fill="none" stroke="#000000" stroke-width="2" stroke-linecap="round" stroke-linejoin="round" stroke-miterlimit="10" d="
			M-275.082,174.889c0,0,1.654,2.016,4.42,3.526"/>
		<path fill="none" stroke="#000000" stroke-width="2" stroke-linecap="round" stroke-linejoin="round" stroke-miterlimit="10" d="
			M-294.287,179.639c0,0,12.87-1.06,16.383-7.146"/>
		<path fill="none" stroke="#000000" stroke-width="2" stroke-linecap="round" stroke-linejoin="round" stroke-miterlimit="10" d="
			M-275.618,165.781c0,0-1.114,3.533,0.537,5.654"/>
		<path fill="none" stroke="#000000" stroke-width="2" stroke-linecap="round" stroke-linejoin="round" stroke-miterlimit="10" d="
			M-293.307,183.451c0,0,10.72-1.295,15.837-6.211"/>
		<path fill="none" stroke="#000000" stroke-width="2" stroke-linecap="round" stroke-linejoin="round" stroke-miterlimit="10" d="
			M-275.533,179.404c0,0,1.04,1.182,2.976,2.363"/>
		<path fill="none" stroke="#000000" stroke-width="2" stroke-linecap="round" stroke-linejoin="round" stroke-miterlimit="10" d="
			M-291.502,186.771c0,0,10.113-1.357,13.259-4.885c0,0,1.26,1.449,3.796,2.993"/>
		<path fill="none" stroke="#000000" stroke-width="2" stroke-linecap="round" stroke-linejoin="round" stroke-miterlimit="10" d="
			M-289.101,189.788c0,0,8.289-1.626,10.521-3.503c0,0,1.025,0.615,2.54,1.438"/>
		<path fill="none" stroke="#000000" stroke-width="2" stroke-linecap="round" stroke-linejoin="round" stroke-miterlimit="10" d="
			M-284.881,192.167c0,0,2.479-1.908,6.977-1.265"/>
	</g>
	<g display="inline">
		<path fill="none" stroke="#000000" stroke-width="2" stroke-linecap="round" stroke-linejoin="round" stroke-miterlimit="10" d="
			M-293.012,5.748c2.487-5.484,8.021-9.322,14.408-9.322l0,0c8.694,0,15.809,7.114,15.809,15.809v6.764"/>
		<path fill="none" stroke="#000000" stroke-width="2" stroke-linecap="round" stroke-linejoin="round" stroke-miterlimit="10" d="
			M-262.794,22.466c-2.285,0.536-3.122-0.866-3.135-3.007c-0.014-2.14-0.185-7.225-0.185-7.225c0-6.887-5.602-12.49-12.49-12.49
			c-5.669,0-10.469,3.797-11.989,8.982c0,0-1.671,2.799-3.099-0.057"/>
		<path fill="none" stroke="#000000" stroke-width="2" stroke-linecap="round" stroke-linejoin="round" stroke-miterlimit="10" d="
			M-293.691,13.358c3.979,2.331,5.917-3.164,7.307-5.974c1.39-2.81,4.503-4.321,7.781-4.321c5.057,0,9.172,4.113,9.172,9.171
			c0,0-0.42,7.471,1.839,11.482"/>
		<path fill="none" stroke="#000000" stroke-width="2" stroke-linecap="round" stroke-linejoin="round" stroke-miterlimit="10" d="
			M-293.691,17.292c3.432,0.799,6.076-0.748,7.597-2.457c1.198-1.348,1.463-2.763,1.463-2.763c1.091-4.003,2.8-5.69,6.027-5.69
			c3.228,0,5.852,2.626,5.852,5.853c0,0-0.143,9.465,1.959,11.635"/>
		<path fill="none" stroke="#000000" stroke-width="2" stroke-linecap="round" stroke-linejoin="round" stroke-miterlimit="10" d="
			M-293.691,21.495c11.449,0.476,12.554-9.261,12.554-9.261c0-1.396,1.137-2.533,2.533-2.533c1.397,0,2.534,1.137,2.534,2.533"/>
		<path fill="none" stroke="#000000" stroke-width="2" stroke-linecap="round" stroke-linejoin="round" stroke-miterlimit="10" d="
			M-278.604,13.358c0,0,1.274,10.375-15.088,12.002"/>
		<path fill="none" stroke="#000000" stroke-width="2" stroke-linecap="round" stroke-linejoin="round" stroke-miterlimit="10" d="
			M-275.082,24.232c0,0,0.582,0.71,1.634,1.604"/>
		<path fill="none" stroke="#000000" stroke-width="2" stroke-linecap="round" stroke-linejoin="round" stroke-miterlimit="10" d="
			M-294.287,28.983c0,0,12.87-1.061,16.383-7.146"/>
		<path fill="none" stroke="#000000" stroke-width="2" stroke-linecap="round" stroke-linejoin="round" stroke-miterlimit="10" d="
			M-275.618,15.125c0,0-1.114,3.533,0.537,5.655"/>
		<path fill="none" stroke="#000000" stroke-width="2" stroke-linecap="round" stroke-linejoin="round" stroke-miterlimit="10" d="
			M-293.307,32.796c0,0,10.72-1.295,15.837-6.212"/>
		<path fill="none" stroke="#000000" stroke-width="2" stroke-linecap="round" stroke-linejoin="round" stroke-miterlimit="10" d="
			M-291.502,36.115c0,0,10.113-1.357,13.259-4.884c0,0,0.429,0.466,1.233,1.142"/>
		<path fill="none" stroke="#000000" stroke-width="2" stroke-linecap="round" stroke-linejoin="round" stroke-miterlimit="10" d="
			M-289.101,39.133c0,0,8.289-1.627,10.521-3.503c0,0,0.964,0.572,2.279,1.295"/>
		<path fill="none" stroke="#000000" stroke-width="2" stroke-linecap="round" stroke-linejoin="round" stroke-miterlimit="10" d="
			M-284.881,41.511c0,0,4.943-3.553,12.548,0.517"/>
	</g>
	<g display="inline">
		<g>
			<path fill="none" stroke="#000000" stroke-width="2" stroke-linecap="round" stroke-linejoin="round" stroke-miterlimit="10" d="
				M-217.702-69.888c2.487-5.484,8.021-9.322,14.408-9.322l0,0c8.695,0,15.809,7.114,15.809,15.808v6.764"/>
			<path fill="none" stroke="#000000" stroke-width="2" stroke-linecap="round" stroke-linejoin="round" stroke-miterlimit="10" d="
				M-218.384-66.969c0.712,1.416,1.474,1.438,2.071,1.107"/>
			<path fill="none" stroke="#000000" stroke-width="2" stroke-linecap="round" stroke-linejoin="round" stroke-miterlimit="10" d="
				M-189.082-53.153c0.424,0.13,0.957,0.137,1.597-0.014"/>
			<path fill="none" stroke="#000000" stroke-width="2" stroke-linecap="round" stroke-linejoin="round" stroke-miterlimit="10" d="
				M-212.249-72.098c2.265-2.344,5.444-3.797,8.954-3.797c6.891,0,12.494,5.602,12.494,12.493c0,0,0.08,2.446,0.13,4.661"/>
			<path fill="none" stroke="#000000" stroke-width="2" stroke-linecap="round" stroke-linejoin="round" stroke-miterlimit="10" d="
				M-191.269-50.563c0.928,0.914,2.165,1.353,3.783,1"/>
			<path fill="none" stroke="#000000" stroke-width="2" stroke-linecap="round" stroke-linejoin="round" stroke-miterlimit="10" d="
				M-208.509-71.091c1.482-0.978,3.316-1.482,5.214-1.482c5.057,0,9.17,4.115,9.17,9.17c0,0-0.085,1.554,0.037,3.626"/>
			<path fill="none" stroke="#000000" stroke-width="2" stroke-linecap="round" stroke-linejoin="round" stroke-miterlimit="10" d="
				M-218.384-62.28c1.813,1.065,3.201,0.503,4.309-0.689"/>
			<path fill="none" stroke="#000000" stroke-width="2" stroke-linecap="round" stroke-linejoin="round" stroke-miterlimit="10" d="
				M-197.239-58.31c0-0.007,0-0.007,0-0.007c-0.237-2.668-0.201-5.085-0.201-5.085c0-3.229-2.625-5.854-5.855-5.854
				c-1.409,0-2.531,0.324-3.438,1.021"/>
			<path fill="none" stroke="#000000" stroke-width="2" stroke-linecap="round" stroke-linejoin="round" stroke-miterlimit="10" d="
				M-218.384-58.346c3.431,0.798,6.078-0.748,7.603-2.46c0.597-0.668,0.964-1.359,1.18-1.884"/>
			<path fill="none" stroke="#000000" stroke-width="2" stroke-linecap="round" stroke-linejoin="round" stroke-miterlimit="10" d="
				M-218.381-54.141c11.45,0.474,12.555-9.262,12.555-9.262c0-1.396,1.136-2.534,2.533-2.534s2.534,1.137,2.534,2.534"/>
			<path fill="none" stroke="#000000" stroke-width="2" stroke-linecap="round" stroke-linejoin="round" stroke-miterlimit="10" d="
				M-203.293-62.278c0,0,1.275,10.375-15.088,12.002"/>
			<path fill="none" stroke="#000000" stroke-width="2" stroke-linecap="round" stroke-linejoin="round" stroke-miterlimit="10" d="
				M-199.771-51.404c0,0,4.986,6.076,12.123,5.037"/>
			<path fill="none" stroke="#000000" stroke-width="2" stroke-linecap="round" stroke-linejoin="round" stroke-miterlimit="10" d="
				M-218.976-46.653c0,0,12.869-1.061,16.382-7.146"/>
			<path fill="none" stroke="#000000" stroke-width="2" stroke-linecap="round" stroke-linejoin="round" stroke-miterlimit="10" d="
				M-200.308-60.511c0,0-1.114,3.533,0.537,5.655"/>
			<path fill="none" stroke="#000000" stroke-width="2" stroke-linecap="round" stroke-linejoin="round" stroke-miterlimit="10" d="
				M-202.158-49.052c-0.884,0.848-1.941,1.596-3.078,2.243"/>
			<path fill="none" stroke="#000000" stroke-width="2" stroke-linecap="round" stroke-linejoin="round" stroke-miterlimit="10" d="
				M-213.012-43.824c-2.84,0.726-4.984,0.985-4.984,0.985"/>
			<path fill="none" stroke="#000000" stroke-width="2" stroke-linecap="round" stroke-linejoin="round" stroke-miterlimit="10" d="
				M-200.224-46.888c0,0,4.161,4.731,11.344,4.731"/>
			<path fill="none" stroke="#000000" stroke-width="2" stroke-linecap="round" stroke-linejoin="round" stroke-miterlimit="10" d="
				M-203.366-43.982c0.158-0.129,0.302-0.272,0.431-0.424c0,0,4.517,4.913,11.724,5.941"/>
			<path fill="none" stroke="#000000" stroke-width="2" stroke-linecap="round" stroke-linejoin="round" stroke-miterlimit="10" d="
				M-212.371-40.242c-2.172,0.496-3.82,0.719-3.82,0.719"/>
			<path fill="none" stroke="#000000" stroke-width="2" stroke-linecap="round" stroke-linejoin="round" stroke-miterlimit="10" d="
				M-205.1-38.969c0.763-0.332,1.403-0.684,1.827-1.036c0,0,7.596,4.51,9.221,4.187"/>
			<path fill="none" stroke="#000000" stroke-width="2" stroke-linecap="round" stroke-linejoin="round" stroke-miterlimit="10" d="
				M-213.789-36.502c0,0,2.834-0.561,5.639-1.395"/>
			<path fill="none" stroke="#000000" stroke-width="2" stroke-linecap="round" stroke-linejoin="round" stroke-miterlimit="10" d="
				M-209.571-34.126c0,0,6.274-3.06,12.548,0.517"/>
		</g>
		
			<circle fill="none" stroke="#000000" stroke-width="2" stroke-linecap="round" stroke-linejoin="round" stroke-miterlimit="10" cx="-211.566" cy="-67.218" r="4.94"/>
		
			<circle fill="none" stroke="#000000" stroke-width="2" stroke-linecap="round" stroke-linejoin="round" stroke-miterlimit="10" cx="-193.709" cy="-54.856" r="4.94"/>
		
			<circle fill="none" stroke="#000000" stroke-width="2" stroke-linecap="round" stroke-linejoin="round" stroke-miterlimit="10" cx="-208.17" cy="-42.84" r="4.94"/>
	</g>
	<g display="inline">
		<path fill="none" stroke="#000000" stroke-width="2" stroke-linecap="round" stroke-linejoin="round" stroke-miterlimit="10" d="
			M-142.337-69.888c2.488-5.484,8.021-9.322,14.408-9.322l0,0c8.695,0,15.809,7.114,15.809,15.808v6.764"/>
		<path fill="none" stroke="#000000" stroke-width="2" stroke-linecap="round" stroke-linejoin="round" stroke-miterlimit="10" d="
			M-112.12-53.17c-2.284,0.536-3.12-0.866-3.135-3.007c-0.013-2.14-0.185-7.225-0.185-7.225c0-6.887-5.603-12.49-12.489-12.49
			c-5.669,0-10.469,3.797-11.988,8.982c0,0-1.672,2.799-3.1-0.056"/>
		<path fill="none" stroke="#000000" stroke-width="2" stroke-linecap="round" stroke-linejoin="round" stroke-miterlimit="10" d="
			M-143.017-62.278c3.98,2.331,5.917-3.164,7.307-5.973c1.39-2.81,4.503-4.321,7.781-4.321c5.057,0,9.171,4.113,9.171,9.17
			c0,0-0.515,9.158,2.662,12.64"/>
		<path fill="none" stroke="#000000" stroke-width="2" stroke-linecap="round" stroke-linejoin="round" stroke-miterlimit="10" d="
			M-143.017-58.345c3.432,0.799,6.076-0.747,7.597-2.457c1.198-1.347,1.463-2.762,1.463-2.762c1.091-4.003,2.8-5.69,6.028-5.69
			c3.227,0,5.853,2.626,5.853,5.853c0,0-0.144,9.465,1.959,11.634"/>
		<path fill="none" stroke="#000000" stroke-width="2" stroke-linecap="round" stroke-linejoin="round" stroke-miterlimit="10" d="
			M-143.017-54.141c11.45,0.474,12.555-9.262,12.555-9.262c0-1.396,1.136-2.534,2.533-2.534s2.534,1.137,2.534,2.534"/>
		<path fill="none" stroke="#000000" stroke-width="2" stroke-linecap="round" stroke-linejoin="round" stroke-miterlimit="10" d="
			M-127.929-62.278c0,0,1.275,10.375-15.088,12.002"/>
		<path fill="none" stroke="#000000" stroke-width="2" stroke-linecap="round" stroke-linejoin="round" stroke-miterlimit="10" d="
			M-124.406-51.404c0,0,1.734,2.114,4.622,3.635"/>
		<path fill="none" stroke="#000000" stroke-width="2" stroke-linecap="round" stroke-linejoin="round" stroke-miterlimit="10" d="
			M-143.612-46.653c0,0,12.87-1.061,16.384-7.146"/>
		<path fill="none" stroke="#000000" stroke-width="2" stroke-linecap="round" stroke-linejoin="round" stroke-miterlimit="10" d="
			M-124.944-60.511c0,0-1.113,3.533,0.538,5.655"/>
		<path fill="none" stroke="#000000" stroke-width="2" stroke-linecap="round" stroke-linejoin="round" stroke-miterlimit="10" d="
			M-142.632-42.84c0,0,10.72-1.295,15.837-6.212"/>
		<path fill="none" stroke="#000000" stroke-width="2" stroke-linecap="round" stroke-linejoin="round" stroke-miterlimit="10" d="
			M-124.859-46.888c0,0,1.366,1.551,3.882,2.878"/>
		<path fill="none" stroke="#000000" stroke-width="2" stroke-linecap="round" stroke-linejoin="round" stroke-miterlimit="10" d="
			M-140.827-39.521c0,0,10.113-1.357,13.259-4.884c0,0,2.041,2.219,5.568,3.987"/>
		<path fill="none" stroke="#000000" stroke-width="2" stroke-linecap="round" stroke-linejoin="round" stroke-miterlimit="10" d="
			M-138.426-36.504c0,0,8.289-1.627,10.521-3.503c0,0,3.138,1.863,5.81,3.109"/>
		<path fill="none" stroke="#000000" stroke-width="2" stroke-linecap="round" stroke-linejoin="round" stroke-miterlimit="10" d="
			M-134.206-34.126c0,0,4.754-3.417,12.111,0.289"/>
	</g>
	<g display="inline">
		<path fill="none" stroke="#000000" stroke-width="2" stroke-linecap="round" stroke-linejoin="round" stroke-miterlimit="10" d="
			M-107.946-34.103c0,1.132-0.926,2.059-2.059,2.059h-9.936c-1.133,0-2.06-0.926-2.06-2.059v-8.132c0-1.132,0.927-2.058,2.06-2.058
			h9.936c1.133,0,2.059,0.926,2.059,2.058V-34.103z"/>
		<path fill="none" stroke="#000000" stroke-width="2" stroke-linecap="round" stroke-linejoin="round" stroke-miterlimit="10" d="
			M-119.786-44.293v-1.661c0-2.647,2.166-4.813,4.813-4.813l0,0c2.647,0,4.813,2.166,4.813,4.813v1.661"/>
		<path fill="none" stroke="#000000" stroke-width="2" stroke-linecap="round" stroke-linejoin="round" stroke-miterlimit="10" d="
			M-113.126-39.025c0-1.02-0.827-1.848-1.847-1.848c-1.021,0-1.848,0.828-1.848,1.848c0,0.729,0.424,1.357,1.037,1.658v1.091
			c0,0.446,0.364,0.811,0.811,0.811c0.447,0,0.812-0.365,0.812-0.811v-1.091C-113.549-37.668-113.126-38.296-113.126-39.025z"/>
	</g>
	<g display="inline">
		<g>
			<path fill="none" stroke="#000000" stroke-width="2" stroke-linecap="round" stroke-linejoin="round" stroke-miterlimit="10" d="
				M-66.972-69.888c2.487-5.484,8.021-9.322,14.408-9.322l0,0c8.694,0,15.809,7.114,15.809,15.808v6.764"/>
			<path fill="none" stroke="#000000" stroke-width="2" stroke-linecap="round" stroke-linejoin="round" stroke-miterlimit="10" d="
				M-36.755-53.17c-2.285,0.536-3.121-0.866-3.135-3.007c-0.014-2.14-0.184-7.225-0.184-7.225c0-6.887-5.604-12.49-12.49-12.49
				c-5.67,0-10.47,3.797-11.988,8.982c0,0-1.672,2.799-3.1-0.056"/>
			<path fill="none" stroke="#000000" stroke-width="2" stroke-linecap="round" stroke-linejoin="round" stroke-miterlimit="10" d="
				M-67.651-62.278c3.98,2.331,5.917-3.164,7.307-5.973c1.39-2.809,4.503-4.321,7.781-4.321c5.057,0,9.17,4.113,9.17,9.17
				c0,0-0.527,9.404,2.792,12.776"/>
			<path fill="none" stroke="#000000" stroke-width="2" stroke-linecap="round" stroke-linejoin="round" stroke-miterlimit="10" d="
				M-67.651-58.345c3.431,0.799,6.075-0.747,7.597-2.457c1.197-1.347,1.463-2.762,1.463-2.762c1.09-4.003,2.801-5.69,6.028-5.69
				s5.853,2.626,5.853,5.853c0,0-0.144,9.465,1.958,11.634"/>
			<path fill="none" stroke="#000000" stroke-width="2" stroke-linecap="round" stroke-linejoin="round" stroke-miterlimit="10" d="
				M-67.651-54.141c11.449,0.474,12.554-9.262,12.554-9.262c0-1.396,1.137-2.534,2.534-2.534c1.396,0,2.533,1.137,2.533,2.534"/>
			<path fill="none" stroke="#000000" stroke-width="2" stroke-linecap="round" stroke-linejoin="round" stroke-miterlimit="10" d="
				M-52.563-62.278c0,0,1.274,10.375-15.088,12.002"/>
			<path fill="none" stroke="#000000" stroke-width="2" stroke-linecap="round" stroke-linejoin="round" stroke-miterlimit="10" d="
				M-49.042-51.404c0,0,1.393,1.695,3.758,3.142"/>
			<path fill="none" stroke="#000000" stroke-width="2" stroke-linecap="round" stroke-linejoin="round" stroke-miterlimit="10" d="
				M-68.247-46.653c0,0,12.87-1.061,16.383-7.146"/>
			<path fill="none" stroke="#000000" stroke-width="2" stroke-linecap="round" stroke-linejoin="round" stroke-miterlimit="10" d="
				M-49.579-60.511c0,0-1.113,3.533,0.537,5.655"/>
			<path fill="none" stroke="#000000" stroke-width="2" stroke-linecap="round" stroke-linejoin="round" stroke-miterlimit="10" d="
				M-67.267-42.84c0,0,10.72-1.295,15.837-6.212"/>
			<path fill="none" stroke="#000000" stroke-width="2" stroke-linecap="round" stroke-linejoin="round" stroke-miterlimit="10" d="
				M-49.494-46.888c0,0,1.039,1.182,2.976,2.363"/>
			<path fill="none" stroke="#000000" stroke-width="2" stroke-linecap="round" stroke-linejoin="round" stroke-miterlimit="10" d="
				M-65.463-39.521c0,0,10.113-1.357,13.26-4.884c0,0,1.517,1.649,4.196,3.237"/>
			<path fill="none" stroke="#000000" stroke-width="2" stroke-linecap="round" stroke-linejoin="round" stroke-miterlimit="10" d="
				M-63.062-36.504c0,0,8.289-1.627,10.521-3.503c0,0,2.231,1.325,4.533,2.488"/>
			<path fill="none" stroke="#000000" stroke-width="2" stroke-linecap="round" stroke-linejoin="round" stroke-miterlimit="10" d="
				M-58.841-34.126c0,0,4.213-3.056,10.898-0.25"/>
		</g>
		<g>
			<path fill="none" stroke="#000000" stroke-width="2" stroke-linecap="round" stroke-linejoin="round" stroke-miterlimit="10" d="
				M-34.425-34.281c0,1.09-0.891,1.98-1.98,1.98h-9.556c-1.089,0-1.981-0.891-1.981-1.98v-7.82c0-1.09,0.893-1.98,1.981-1.98h9.556
				c1.09,0,1.98,0.891,1.98,1.98V-34.281z"/>
			<path fill="none" stroke="#000000" stroke-width="2" stroke-linecap="round" stroke-linejoin="round" stroke-miterlimit="10" d="
				M-45.813-44.082v-1.598c0-2.546,2.084-4.629,4.629-4.629l0,0c1.245,0,2.378,0.498,3.212,1.303"/>
			<path fill="none" stroke="#000000" stroke-width="2" stroke-linecap="round" stroke-linejoin="round" stroke-miterlimit="10" d="
				M-39.406-39.015c0-0.98-0.795-1.776-1.777-1.776c-0.98,0-1.775,0.795-1.775,1.776c0,0.701,0.406,1.306,0.996,1.594v1.049
				c0,0.429,0.351,0.78,0.779,0.78c0.43,0,0.78-0.351,0.78-0.78v-1.049C-39.813-37.709-39.406-38.314-39.406-39.015z"/>
		</g>
	</g>
	
		<circle display="inline" fill="none" stroke="#000000" stroke-width="2" stroke-linecap="round" stroke-linejoin="round" stroke-miterlimit="10" cx="-267.427" cy="33.298" r="9.585"/>
	
		<polyline display="inline" fill="none" stroke="#000000" stroke-width="2" stroke-linecap="round" stroke-linejoin="round" stroke-miterlimit="10" points="
		-272.254,33.298 -268.972,38.344 -262.599,29.985 	"/>
	<g display="inline">
		<g>
			<path fill="none" stroke="#000000" stroke-width="2" stroke-linecap="round" stroke-linejoin="round" stroke-miterlimit="10" d="
				M-218.408,5.748c2.488-5.484,8.022-9.322,14.408-9.322l0,0c8.696,0,15.809,7.114,15.809,15.809v6.764"/>
			<path fill="none" stroke="#000000" stroke-width="2" stroke-linecap="round" stroke-linejoin="round" stroke-miterlimit="10" d="
				M-188.191,22.466c-2.284,0.536-3.121-0.866-3.134-3.007c-0.013-2.14-0.185-7.225-0.185-7.225c0-6.887-5.603-12.49-12.49-12.49
				c-5.67,0-10.468,3.797-11.988,8.982c0,0-1.672,2.799-3.099-0.057"/>
			<path fill="none" stroke="#000000" stroke-width="2" stroke-linecap="round" stroke-linejoin="round" stroke-miterlimit="10" d="
				M-219.087,13.358c3.98,2.331,5.917-3.164,7.306-5.974c1.39-2.81,4.504-4.321,7.781-4.321c5.057,0,9.171,4.113,9.171,9.171
				c0,0-0.42,7.471,1.839,11.482"/>
			<path fill="none" stroke="#000000" stroke-width="2" stroke-linecap="round" stroke-linejoin="round" stroke-miterlimit="10" d="
				M-219.087,17.292c3.431,0.799,6.076-0.748,7.597-2.457c1.197-1.348,1.462-2.763,1.462-2.763c1.091-4.003,2.801-5.69,6.028-5.69
				c3.228,0,5.853,2.626,5.853,5.853c0,0-0.144,9.465,1.958,11.635"/>
			<path fill="none" stroke="#000000" stroke-width="2" stroke-linecap="round" stroke-linejoin="round" stroke-miterlimit="10" d="
				M-219.087,21.495c11.449,0.476,12.555-9.261,12.555-9.261c0-1.396,1.136-2.533,2.533-2.533s2.534,1.137,2.534,2.533"/>
			<path fill="none" stroke="#000000" stroke-width="2" stroke-linecap="round" stroke-linejoin="round" stroke-miterlimit="10" d="
				M-204,13.358c0,0,1.275,10.375-15.087,12.002"/>
			<path fill="none" stroke="#000000" stroke-width="2" stroke-linecap="round" stroke-linejoin="round" stroke-miterlimit="10" d="
				M-200.478,24.232c0,0,0.583,0.71,1.635,1.604"/>
			<path fill="none" stroke="#000000" stroke-width="2" stroke-linecap="round" stroke-linejoin="round" stroke-miterlimit="10" d="
				M-219.682,28.983c0,0,12.87-1.061,16.383-7.146"/>
			<path fill="none" stroke="#000000" stroke-width="2" stroke-linecap="round" stroke-linejoin="round" stroke-miterlimit="10" d="
				M-201.015,15.125c0,0-1.113,3.533,0.537,5.655"/>
			<path fill="none" stroke="#000000" stroke-width="2" stroke-linecap="round" stroke-linejoin="round" stroke-miterlimit="10" d="
				M-218.703,32.796c0,0,10.72-1.295,15.837-6.212"/>
			<path fill="none" stroke="#000000" stroke-width="2" stroke-linecap="round" stroke-linejoin="round" stroke-miterlimit="10" d="
				M-216.899,36.115c0,0,10.114-1.357,13.259-4.884c0,0,0.429,0.466,1.233,1.142"/>
			<path fill="none" stroke="#000000" stroke-width="2" stroke-linecap="round" stroke-linejoin="round" stroke-miterlimit="10" d="
				M-214.497,39.133c0,0,8.289-1.627,10.521-3.503c0,0,0.964,0.572,2.279,1.295"/>
			<path fill="none" stroke="#000000" stroke-width="2" stroke-linecap="round" stroke-linejoin="round" stroke-miterlimit="10" d="
				M-210.276,41.511c0,0,4.942-3.553,12.547,0.517"/>
		</g>
		<g>
			
				<circle fill="none" stroke="#000000" stroke-width="2" stroke-linecap="round" stroke-linejoin="round" stroke-miterlimit="10" cx="-192.823" cy="33.298" r="9.584"/>
			
				<line fill="none" stroke="#000000" stroke-width="2" stroke-linecap="round" stroke-linejoin="round" stroke-miterlimit="10" x1="-189.254" y1="29.729" x2="-196.39" y2="36.866"/>
			
				<line fill="none" stroke="#000000" stroke-width="2" stroke-linecap="round" stroke-linejoin="round" stroke-miterlimit="10" x1="-189.254" y1="36.866" x2="-196.39" y2="29.729"/>
		</g>
	</g>
	<g display="inline">
		<g>
			<path fill="none" stroke="#000000" stroke-width="2" stroke-linecap="round" stroke-linejoin="round" stroke-miterlimit="10" d="
				M-143.804,5.748c2.488-5.484,8.022-9.322,14.409-9.322l0,0c8.694,0,15.809,7.114,15.809,15.809v6.764"/>
			<path fill="none" stroke="#000000" stroke-width="2" stroke-linecap="round" stroke-linejoin="round" stroke-miterlimit="10" d="
				M-113.586,22.466c-2.285,0.536-3.122-0.866-3.136-3.007c-0.014-2.14-0.185-7.225-0.185-7.225c0-6.887-5.604-12.49-12.49-12.49
				c-5.669,0-10.468,3.797-11.988,8.982c0,0-1.672,2.799-3.099-0.057"/>
			<path fill="none" stroke="#000000" stroke-width="2" stroke-linecap="round" stroke-linejoin="round" stroke-miterlimit="10" d="
				M-144.483,13.358c3.98,2.331,5.917-3.164,7.307-5.974c1.39-2.81,4.503-4.321,7.781-4.321c5.057,0,9.171,4.113,9.171,9.171
				c0,0-0.42,7.471,1.84,11.482"/>
			<path fill="none" stroke="#000000" stroke-width="2" stroke-linecap="round" stroke-linejoin="round" stroke-miterlimit="10" d="
				M-144.483,17.292c3.431,0.799,6.076-0.748,7.597-2.457c1.198-1.348,1.463-2.763,1.463-2.763c1.09-4.003,2.8-5.69,6.027-5.69
				c3.228,0,5.852,2.626,5.852,5.853c0,0-0.143,9.465,1.959,11.635"/>
			<path fill="none" stroke="#000000" stroke-width="2" stroke-linecap="round" stroke-linejoin="round" stroke-miterlimit="10" d="
				M-144.483,21.495c11.449,0.476,12.554-9.261,12.554-9.261c0-1.396,1.137-2.533,2.533-2.533c1.397,0,2.535,1.137,2.535,2.533"/>
			<path fill="none" stroke="#000000" stroke-width="2" stroke-linecap="round" stroke-linejoin="round" stroke-miterlimit="10" d="
				M-129.395,13.358c0,0,1.274,10.375-15.088,12.002"/>
			<path fill="none" stroke="#000000" stroke-width="2" stroke-linecap="round" stroke-linejoin="round" stroke-miterlimit="10" d="
				M-125.874,24.232c0,0,0.583,0.71,1.634,1.604"/>
			<path fill="none" stroke="#000000" stroke-width="2" stroke-linecap="round" stroke-linejoin="round" stroke-miterlimit="10" d="
				M-145.078,28.983c0,0,12.87-1.061,16.383-7.146"/>
			<path fill="none" stroke="#000000" stroke-width="2" stroke-linecap="round" stroke-linejoin="round" stroke-miterlimit="10" d="
				M-126.411,15.125c0,0-1.113,3.533,0.537,5.655"/>
			<path fill="none" stroke="#000000" stroke-width="2" stroke-linecap="round" stroke-linejoin="round" stroke-miterlimit="10" d="
				M-144.098,32.796c0,0,10.72-1.295,15.836-6.212"/>
			<path fill="none" stroke="#000000" stroke-width="2" stroke-linecap="round" stroke-linejoin="round" stroke-miterlimit="10" d="
				M-142.294,36.115c0,0,10.113-1.357,13.26-4.884c0,0,0.428,0.466,1.232,1.142"/>
			<path fill="none" stroke="#000000" stroke-width="2" stroke-linecap="round" stroke-linejoin="round" stroke-miterlimit="10" d="
				M-139.893,39.133c0,0,8.29-1.627,10.521-3.503c0,0,0.964,0.572,2.279,1.295"/>
			<path fill="none" stroke="#000000" stroke-width="2" stroke-linecap="round" stroke-linejoin="round" stroke-miterlimit="10" d="
				M-135.673,41.511c0,0,4.944-3.553,12.548,0.517"/>
		</g>
		
			<circle fill="none" stroke="#000000" stroke-width="2" stroke-linecap="round" stroke-linejoin="round" stroke-miterlimit="10" cx="-118.219" cy="33.298" r="9.584"/>
		
			<line fill="none" stroke="#000000" stroke-width="2" stroke-linecap="round" stroke-linejoin="round" stroke-miterlimit="10" x1="-113.173" y1="33.298" x2="-123.265" y2="33.298"/>
		
			<line fill="none" stroke="#000000" stroke-width="2" stroke-linecap="round" stroke-linejoin="round" stroke-miterlimit="10" x1="-118.219" y1="38.344" x2="-118.219" y2="28.252"/>
	</g>
	<g display="inline">
		<g>
			<path fill="none" stroke="#000000" stroke-width="2" stroke-linecap="round" stroke-linejoin="round" stroke-miterlimit="10" d="
				M-69.2,5.748c2.487-5.484,8.022-9.322,14.408-9.322l0,0c8.696,0,15.81,7.114,15.81,15.809v6.764"/>
			<path fill="none" stroke="#000000" stroke-width="2" stroke-linecap="round" stroke-linejoin="round" stroke-miterlimit="10" d="
				M-38.982,22.466c-2.284,0.536-3.121-0.866-3.135-3.007c-0.014-2.14-0.185-7.225-0.185-7.225c0-6.887-5.603-12.49-12.49-12.49
				c-5.669,0-10.468,3.797-11.988,8.982c0,0-1.672,2.799-3.099-0.057"/>
			<path fill="none" stroke="#000000" stroke-width="2" stroke-linecap="round" stroke-linejoin="round" stroke-miterlimit="10" d="
				M-69.879,13.358c3.979,2.331,5.917-3.164,7.306-5.974c1.392-2.81,4.504-4.321,7.781-4.321c5.058,0,9.172,4.113,9.172,9.171
				c0,0-0.42,7.471,1.839,11.482"/>
			<path fill="none" stroke="#000000" stroke-width="2" stroke-linecap="round" stroke-linejoin="round" stroke-miterlimit="10" d="
				M-69.879,17.292c3.431,0.799,6.075-0.748,7.597-2.457c1.198-1.348,1.463-2.763,1.463-2.763c1.091-4.003,2.801-5.69,6.027-5.69
				c3.228,0,5.853,2.626,5.853,5.853c0,0-0.144,9.465,1.959,11.635"/>
			<path fill="none" stroke="#000000" stroke-width="2" stroke-linecap="round" stroke-linejoin="round" stroke-miterlimit="10" d="
				M-69.879,21.495c11.449,0.476,12.554-9.261,12.554-9.261c0-1.396,1.137-2.533,2.533-2.533c1.397,0,2.534,1.137,2.534,2.533"/>
			<path fill="none" stroke="#000000" stroke-width="2" stroke-linecap="round" stroke-linejoin="round" stroke-miterlimit="10" d="
				M-54.792,13.358c0,0,1.274,10.375-15.087,12.002"/>
			<path fill="none" stroke="#000000" stroke-width="2" stroke-linecap="round" stroke-linejoin="round" stroke-miterlimit="10" d="
				M-51.27,24.232c0,0,0.583,0.71,1.635,1.604"/>
			<path fill="none" stroke="#000000" stroke-width="2" stroke-linecap="round" stroke-linejoin="round" stroke-miterlimit="10" d="
				M-70.474,28.983c0,0,12.869-1.061,16.382-7.146"/>
			<path fill="none" stroke="#000000" stroke-width="2" stroke-linecap="round" stroke-linejoin="round" stroke-miterlimit="10" d="
				M-51.807,15.125c0,0-1.114,3.533,0.537,5.655"/>
			<path fill="none" stroke="#000000" stroke-width="2" stroke-linecap="round" stroke-linejoin="round" stroke-miterlimit="10" d="
				M-69.494,32.796c0,0,10.72-1.295,15.836-6.212"/>
			<path fill="none" stroke="#000000" stroke-width="2" stroke-linecap="round" stroke-linejoin="round" stroke-miterlimit="10" d="
				M-67.69,36.115c0,0,10.113-1.357,13.26-4.884c0,0,0.428,0.466,1.232,1.142"/>
			<path fill="none" stroke="#000000" stroke-width="2" stroke-linecap="round" stroke-linejoin="round" stroke-miterlimit="10" d="
				M-65.289,39.133c0,0,8.289-1.627,10.521-3.503c0,0,0.964,0.572,2.278,1.295"/>
			<path fill="none" stroke="#000000" stroke-width="2" stroke-linecap="round" stroke-linejoin="round" stroke-miterlimit="10" d="
				M-61.068,41.511c0,0,4.942-3.553,12.548,0.517"/>
		</g>
		
			<circle fill="none" stroke="#000000" stroke-width="2" stroke-linecap="round" stroke-linejoin="round" stroke-miterlimit="10" cx="-43.614" cy="33.298" r="9.584"/>
		
			<line fill="none" stroke="#000000" stroke-width="2" stroke-linecap="round" stroke-linejoin="round" stroke-miterlimit="10" x1="-38.568" y1="33.298" x2="-48.66" y2="33.298"/>
	</g>
	<g display="inline">
		<g>
			<path fill="none" stroke="#000000" stroke-width="2" stroke-linecap="round" stroke-linejoin="round" stroke-miterlimit="10" d="
				M-289.524,84.324c1.888-4.163,6.088-7.076,10.936-7.076l0,0c6.6,0,11.999,5.4,11.999,12v5.133"/>
			<path fill="none" stroke="#000000" stroke-width="2" stroke-linecap="round" stroke-linejoin="round" stroke-miterlimit="10" d="
				M-266.59,97.014c-1.733,0.406-2.368-0.658-2.379-2.283c-0.01-1.623-0.14-5.48-0.14-5.48c0-5.229-4.253-9.48-9.48-9.48
				c-4.303,0-7.946,2.883-9.099,6.817c0,0-1.27,2.125-2.353-0.043"/>
			<path fill="none" stroke="#000000" stroke-width="2" stroke-linecap="round" stroke-linejoin="round" stroke-miterlimit="10" d="
				M-290.041,90.102c3.021,1.771,4.491-2.401,5.546-4.535c1.055-2.133,3.418-3.278,5.906-3.278c3.839,0,6.961,3.123,6.961,6.962
				c0,0-0.661,11.752,5.038,10.503"/>
			<path fill="none" stroke="#000000" stroke-width="2" stroke-linecap="round" stroke-linejoin="round" stroke-miterlimit="10" d="
				M-290.041,93.086c2.604,0.605,4.612-0.568,5.766-1.865c0.91-1.021,1.11-2.097,1.11-2.097c0.828-3.038,2.126-4.317,4.575-4.317
				c2.45,0,4.442,1.991,4.442,4.441c0,0-0.108,7.184,1.487,8.83"/>
			<path fill="none" stroke="#000000" stroke-width="2" stroke-linecap="round" stroke-linejoin="round" stroke-miterlimit="10" d="
				M-290.041,96.275c8.69,0.359,9.529-7.027,9.529-7.027c0-1.061,0.863-1.924,1.923-1.924c1.061,0,1.923,0.863,1.923,1.924"/>
			<path fill="none" stroke="#000000" stroke-width="2" stroke-linecap="round" stroke-linejoin="round" stroke-miterlimit="10" d="
				M-278.589,90.102c0,0,0.968,7.873-11.452,9.109"/>
			<path fill="none" stroke="#000000" stroke-width="2" stroke-linecap="round" stroke-linejoin="round" stroke-miterlimit="10" d="
				M-275.916,98.354c0,0,3.785,4.612,9.202,3.824"/>
			<path fill="none" stroke="#000000" stroke-width="2" stroke-linecap="round" stroke-linejoin="round" stroke-miterlimit="10" d="
				M-290.492,101.96c0,0,9.768-0.806,12.435-5.424"/>
			<path fill="none" stroke="#000000" stroke-width="2" stroke-linecap="round" stroke-linejoin="round" stroke-miterlimit="10" d="
				M-276.323,91.441c0,0-0.845,2.683,0.407,4.291"/>
			<path fill="none" stroke="#000000" stroke-width="2" stroke-linecap="round" stroke-linejoin="round" stroke-miterlimit="10" d="
				M-289.749,104.854c0,0,8.137-0.98,12.021-4.715"/>
			<path fill="none" stroke="#000000" stroke-width="2" stroke-linecap="round" stroke-linejoin="round" stroke-miterlimit="10" d="
				M-276.258,101.781c0,0,3.158,3.592,8.61,3.592"/>
			<path fill="none" stroke="#000000" stroke-width="2" stroke-linecap="round" stroke-linejoin="round" stroke-miterlimit="10" d="
				M-288.379,107.373c0,0,7.676-1.03,10.064-3.707c0,0,3.426,3.727,8.897,4.51"/>
			<path fill="none" stroke="#000000" stroke-width="2" stroke-linecap="round" stroke-linejoin="round" stroke-miterlimit="10" d="
				M-286.557,109.663c0,0,6.292-1.233,7.986-2.659c0,0,5.761,3.423,6.994,3.178"/>
			<path fill="none" stroke="#000000" stroke-width="2" stroke-linecap="round" stroke-linejoin="round" stroke-miterlimit="10" d="
				M-283.353,111.469c0,0,3.751-2.695,9.524,0.393"/>
		</g>
		<path fill="none" stroke="#000000" stroke-width="2" stroke-linecap="round" stroke-linejoin="round" stroke-miterlimit="10" d="
			M-268.564,74.025h4.708c3.214,0,5.844,2.629,5.844,5.844v4.938"/>
		<path fill="none" stroke="#000000" stroke-width="2" stroke-linecap="round" stroke-linejoin="round" stroke-miterlimit="10" d="
			M-299.07,84.807v-4.938c0-3.215,2.63-5.844,5.844-5.844h4.613"/>
		<path fill="none" stroke="#000000" stroke-width="2" stroke-linecap="round" stroke-linejoin="round" stroke-miterlimit="10" d="
			M-288.613,115.083h-4.613c-3.214,0-5.844-2.63-5.844-5.844v-4.386"/>
		<path fill="none" stroke="#000000" stroke-width="2" stroke-linecap="round" stroke-linejoin="round" stroke-miterlimit="10" d="
			M-258.011,104.854v4.387c0,3.214-2.63,5.844-5.844,5.844h-4.708"/>
	</g>
	<g display="inline">
		<g>
			<path fill="none" stroke="#000000" stroke-width="2" stroke-linecap="round" stroke-linejoin="round" stroke-miterlimit="10" d="
				M-218.449,80.829c2.488-5.487,8.019-9.321,14.407-9.321c4.343,0,8.299,1.777,11.162,4.646c2.87,2.861,4.646,6.812,4.646,11.162
				v3.912"/>
			<path fill="none" stroke="#000000" stroke-width="2" stroke-linecap="round" stroke-linejoin="round" stroke-miterlimit="10" d="
				M-219.125,83.749c1.425,2.856,3.101,0.058,3.101,0.058c1.517-5.185,6.314-8.98,11.983-8.98c6.89,0,12.493,5.604,12.493,12.492
				c0,0,0.064,1.929,0.122,3.912"/>
			<path fill="none" stroke="#000000" stroke-width="2" stroke-linecap="round" stroke-linejoin="round" stroke-miterlimit="10" d="
				M-191.621,100.494c0.871,0.676,1.985,0.971,3.388,0.662"/>
			<path fill="none" stroke="#000000" stroke-width="2" stroke-linecap="round" stroke-linejoin="round" stroke-miterlimit="10" d="
				M-219.125,88.439c3.978,2.33,5.913-3.164,7.308-5.979c1.388-2.807,4.502-4.314,7.775-4.314c5.063,0,9.177,4.112,9.177,9.17
				c0,0-0.093,1.697,0.051,3.912"/>
			<path fill="none" stroke="#000000" stroke-width="2" stroke-linecap="round" stroke-linejoin="round" stroke-miterlimit="10" d="
				M-213.019,91.229c0.575-0.396,1.072-0.848,1.489-1.313c1.201-1.347,1.46-2.765,1.46-2.765c1.093-3.998,2.805-5.688,6.028-5.688
				c3.229,0,5.854,2.626,5.854,5.854c0,0-0.029,1.748,0.115,3.912"/>
			<path fill="none" stroke="#000000" stroke-width="2" stroke-linecap="round" stroke-linejoin="round" stroke-miterlimit="10" d="
				M-207.984,91.229c1.201-2.049,1.41-3.912,1.41-3.912c0-1.4,1.136-2.539,2.532-2.539c1.402,0,2.539,1.139,2.539,2.539"/>
			<path fill="none" stroke="#000000" stroke-width="2" stroke-linecap="round" stroke-linejoin="round" stroke-miterlimit="10" d="
				M-204.042,88.439c0,0,0.143,1.172-0.288,2.789"/>
			<path fill="none" stroke="#000000" stroke-width="2" stroke-linecap="round" stroke-linejoin="round" stroke-miterlimit="10" d="
				M-199.36,100.494c1.87,1.711,5.869,4.604,10.969,3.855"/>
			<path fill="none" stroke="#000000" stroke-width="2" stroke-linecap="round" stroke-linejoin="round" stroke-miterlimit="10" d="
				M-219.722,104.063c0,0,7.423-0.61,12.529-3.566"/>
			<path fill="none" stroke="#000000" stroke-width="2" stroke-linecap="round" stroke-linejoin="round" stroke-miterlimit="10" d="
				M-201.058,90.209c0,0-0.129,0.402-0.229,1.021"/>
			<path fill="none" stroke="#000000" stroke-width="2" stroke-linecap="round" stroke-linejoin="round" stroke-miterlimit="10" d="
				M-218.742,107.877c0,0,10.72-1.296,15.836-6.212"/>
			<path fill="none" stroke="#000000" stroke-width="2" stroke-linecap="round" stroke-linejoin="round" stroke-miterlimit="10" d="
				M-200.97,103.829c0,0,4.162,4.731,11.344,4.731"/>
			<path fill="none" stroke="#000000" stroke-width="2" stroke-linecap="round" stroke-linejoin="round" stroke-miterlimit="10" d="
				M-216.938,111.195c0,0,10.113-1.356,13.259-4.885c0,0,4.514,4.907,11.723,5.941"/>
			<path fill="none" stroke="#000000" stroke-width="2" stroke-linecap="round" stroke-linejoin="round" stroke-miterlimit="10" d="
				M-214.537,114.214c0,0,8.29-1.628,10.521-3.504c0,0,7.591,4.509,9.215,4.188"/>
			<path fill="none" stroke="#000000" stroke-width="2" stroke-linecap="round" stroke-linejoin="round" stroke-miterlimit="10" d="
				M-210.316,116.592c0,0,4.942-3.553,12.548,0.516"/>
		</g>
		
			<rect x="-227.763" y="91.23" fill="none" stroke="#000000" stroke-width="2" stroke-linecap="round" stroke-linejoin="round" stroke-miterlimit="10" width="47.574" height="9.261"/>
		<g>
			
				<circle fill="none" stroke="#000000" stroke-width="2" stroke-linecap="round" stroke-linejoin="round" stroke-miterlimit="10" cx="-220.049" cy="95.861" r="1.236"/>
			
				<circle fill="none" stroke="#000000" stroke-width="2" stroke-linecap="round" stroke-linejoin="round" stroke-miterlimit="10" cx="-214.692" cy="95.861" r="1.236"/>
			
				<circle fill="none" stroke="#000000" stroke-width="2" stroke-linecap="round" stroke-linejoin="round" stroke-miterlimit="10" cx="-209.334" cy="95.861" r="1.236"/>
			
				<circle fill="none" stroke="#000000" stroke-width="2" stroke-linecap="round" stroke-linejoin="round" stroke-miterlimit="10" cx="-203.976" cy="95.861" r="1.236"/>
			
				<circle fill="none" stroke="#000000" stroke-width="2" stroke-linecap="round" stroke-linejoin="round" stroke-miterlimit="10" cx="-198.619" cy="95.861" r="1.236"/>
			
				<circle fill="none" stroke="#000000" stroke-width="2" stroke-linecap="round" stroke-linejoin="round" stroke-miterlimit="10" cx="-193.261" cy="95.861" r="1.236"/>
			
				<circle fill="none" stroke="#000000" stroke-width="2" stroke-linecap="round" stroke-linejoin="round" stroke-miterlimit="10" cx="-187.903" cy="95.861" r="1.236"/>
		</g>
	</g>
	<g display="inline">
		<g>
			<path fill="none" stroke="#000000" stroke-width="2" stroke-linecap="round" stroke-linejoin="round" stroke-miterlimit="10" d="
				M-142.622,80.674c2.488-5.482,8.021-9.32,14.409-9.32l0,0c8.694,0,15.808,7.112,15.808,15.809v6.764"/>
			<path fill="none" stroke="#000000" stroke-width="2" stroke-linecap="round" stroke-linejoin="round" stroke-miterlimit="10" d="
				M-115.133,96.438c-0.277-0.531-0.401-1.238-0.406-2.054c-0.014-2.14-0.185-7.225-0.185-7.225c0-6.888-5.604-12.49-12.489-12.49
				c-5.67,0-10.469,3.798-11.989,8.981c0,0-1.672,2.8-3.099-0.055"/>
			<path fill="none" stroke="#000000" stroke-width="2" stroke-linecap="round" stroke-linejoin="round" stroke-miterlimit="10" d="
				M-112.405,97.393c-1.416,0.332-2.276-0.08-2.728-0.953"/>
			<path fill="none" stroke="#000000" stroke-width="2" stroke-linecap="round" stroke-linejoin="round" stroke-miterlimit="10" d="
				M-143.301,88.285c3.98,2.33,5.917-3.165,7.307-5.975c1.39-2.812,4.503-4.321,7.782-4.321c5.057,0,9.17,4.112,9.17,9.171
				c0,0-0.43,7.666,1.93,11.638"/>
			<path fill="none" stroke="#000000" stroke-width="2" stroke-linecap="round" stroke-linejoin="round" stroke-miterlimit="10" d="
				M-143.301,92.218c3.431,0.8,6.075-0.747,7.597-2.457c1.198-1.348,1.464-2.762,1.464-2.762c1.09-4.004,2.8-5.69,6.028-5.69
				c3.227,0,5.853,2.625,5.853,5.854c0,0-0.145,9.465,1.958,11.635"/>
			<path fill="none" stroke="#000000" stroke-width="2" stroke-linecap="round" stroke-linejoin="round" stroke-miterlimit="10" d="
				M-143.301,96.422c11.449,0.475,12.554-9.262,12.554-9.262c0-1.396,1.137-2.533,2.534-2.533c1.396,0,2.533,1.137,2.533,2.533"/>
			<path fill="none" stroke="#000000" stroke-width="2" stroke-linecap="round" stroke-linejoin="round" stroke-miterlimit="10" d="
				M-128.213,88.285c0,0,1.274,10.374-15.088,12.001"/>
			<path fill="none" stroke="#000000" stroke-width="2" stroke-linecap="round" stroke-linejoin="round" stroke-miterlimit="10" d="
				M-124.691,99.158c0,0,0.558,0.681,1.567,1.546"/>
			<path fill="none" stroke="#000000" stroke-width="2" stroke-linecap="round" stroke-linejoin="round" stroke-miterlimit="10" d="
				M-143.896,103.909c0,0,12.869-1.06,16.383-7.146"/>
			<path fill="none" stroke="#000000" stroke-width="2" stroke-linecap="round" stroke-linejoin="round" stroke-miterlimit="10" d="
				M-125.228,90.051c0,0-1.114,3.533,0.536,5.655"/>
			<path fill="none" stroke="#000000" stroke-width="2" stroke-linecap="round" stroke-linejoin="round" stroke-miterlimit="10" d="
				M-142.916,107.723c0,0,10.72-1.296,15.837-6.213"/>
			<path fill="none" stroke="#000000" stroke-width="2" stroke-linecap="round" stroke-linejoin="round" stroke-miterlimit="10" d="
				M-125.144,103.674c0,0,0.698,0.795,2.017,1.73"/>
			<path fill="none" stroke="#000000" stroke-width="2" stroke-linecap="round" stroke-linejoin="round" stroke-miterlimit="10" d="
				M-141.112,111.041c0,0,10.114-1.357,13.259-4.884c0,0,1.354,1.472,3.762,2.974"/>
			<path fill="none" stroke="#000000" stroke-width="2" stroke-linecap="round" stroke-linejoin="round" stroke-miterlimit="10" d="
				M-138.711,114.059c0,0,8.29-1.627,10.521-3.502c0,0,2.238,1.328,4.544,2.491"/>
			<path fill="none" stroke="#000000" stroke-width="2" stroke-linecap="round" stroke-linejoin="round" stroke-miterlimit="10" d="
				M-134.49,116.438c0,0,4.943-3.554,12.548,0.518"/>
		</g>
		<path fill="none" stroke="#000000" stroke-width="2" stroke-linecap="round" stroke-linejoin="round" stroke-miterlimit="10" d="
			M-114.973,98.014c0,0,0.21,1.389,8.124,1.389c0,0-1.061,3.265,0,7.017c1.061,3.754,0.489,7.101,0.489,7.101
			s-3.968,3.371-8.613,4.82c-4.646-1.449-8.613-4.82-8.613-4.82s-0.571-3.347,0.489-7.101c1.061-3.752,0-7.017,0-7.017
			C-115.183,99.4-114.973,98.014-114.973,98.014z"/>
	</g>
	<g display="inline">
		<g>
			<path fill="none" stroke="#000000" stroke-width="2" stroke-linecap="round" stroke-linejoin="round" stroke-miterlimit="10" d="
				M-67.012,80.109c2.487-5.483,8.021-9.322,14.409-9.322l0,0c8.693,0,15.808,7.113,15.808,15.809v6.764"/>
			<path fill="none" stroke="#000000" stroke-width="2" stroke-linecap="round" stroke-linejoin="round" stroke-miterlimit="10" d="
				M-36.795,96.828c-2.284,0.535-3.121-0.867-3.135-3.008c-0.014-2.141-0.184-7.227-0.184-7.227c0-6.887-5.604-12.488-12.49-12.488
				c-5.67,0-10.47,3.797-11.988,8.98c0,0-1.672,2.801-3.1-0.057"/>
			<path fill="none" stroke="#000000" stroke-width="2" stroke-linecap="round" stroke-linejoin="round" stroke-miterlimit="10" d="
				M-67.691,87.721c3.98,2.33,5.917-3.164,7.307-5.975c1.39-2.811,4.503-4.321,7.781-4.321c5.057,0,9.171,4.114,9.171,9.171
				c0,0-0.871,15.484,6.638,13.84"/>
			<path fill="none" stroke="#000000" stroke-width="2" stroke-linecap="round" stroke-linejoin="round" stroke-miterlimit="10" d="
				M-44.792,98.229"/>
			<path fill="none" stroke="#000000" stroke-width="2" stroke-linecap="round" stroke-linejoin="round" stroke-miterlimit="10" d="
				M-67.691,91.652c3.432,0.8,6.075-0.748,7.597-2.457c1.198-1.348,1.464-2.762,1.464-2.762c1.09-4.004,2.8-5.69,6.027-5.69
				s5.853,2.626,5.853,5.853c0,0-0.115,7.606,1.376,10.745"/>
			<path fill="none" stroke="#000000" stroke-width="2" stroke-linecap="round" stroke-linejoin="round" stroke-miterlimit="10" d="
				M-67.691,95.857c11.449,0.475,12.554-9.264,12.554-9.264c0-1.396,1.137-2.531,2.534-2.531c1.396,0,2.533,1.137,2.533,2.531"/>
			<path fill="none" stroke="#000000" stroke-width="2" stroke-linecap="round" stroke-linejoin="round" stroke-miterlimit="10" d="
				M-52.603,87.721c0,0,1.273,10.375-15.089,12.002"/>
			<path fill="none" stroke="#000000" stroke-width="2" stroke-linecap="round" stroke-linejoin="round" stroke-miterlimit="10" d="
				M-39.4,103.691c0.818,0.064,1.55,0.068,2.441-0.062"/>
			<path fill="none" stroke="#000000" stroke-width="2" stroke-linecap="round" stroke-linejoin="round" stroke-miterlimit="10" d="
				M-49.081,98.594c0,0,0.059,0.073,0.175,0.201"/>
			<path fill="none" stroke="#000000" stroke-width="2" stroke-linecap="round" stroke-linejoin="round" stroke-miterlimit="10" d="
				M-68.286,103.346c0,0,12.869-1.061,16.383-7.146"/>
			<path fill="none" stroke="#000000" stroke-width="2" stroke-linecap="round" stroke-linejoin="round" stroke-miterlimit="10" d="
				M-49.619,89.486c0,0-1.112,3.533,0.538,5.656"/>
			<path fill="none" stroke="#000000" stroke-width="2" stroke-linecap="round" stroke-linejoin="round" stroke-miterlimit="10" d="
				M-67.307,107.157c0,0,10.72-1.296,15.837-6.212"/>
			<path fill="none" stroke="#000000" stroke-width="2" stroke-linecap="round" stroke-linejoin="round" stroke-miterlimit="10" d="
				M-40.913,107.607c0.852,0.146,1.76,0.232,2.724,0.232"/>
			<path fill="none" stroke="#000000" stroke-width="2" stroke-linecap="round" stroke-linejoin="round" stroke-miterlimit="10" d="
				M-65.503,110.477c0,0,10.114-1.355,13.26-4.884c0,0,4.514,4.908,11.723,5.942"/>
			<path fill="none" stroke="#000000" stroke-width="2" stroke-linecap="round" stroke-linejoin="round" stroke-miterlimit="10" d="
				M-63.101,113.494c0,0,8.289-1.627,10.521-3.503c0,0,7.591,4.509,9.215,4.187"/>
			<path fill="none" stroke="#000000" stroke-width="2" stroke-linecap="round" stroke-linejoin="round" stroke-miterlimit="10" d="
				M-58.881,115.873c0,0,4.943-3.553,12.548,0.516"/>
		</g>
		<g>
			
				<circle fill="none" stroke="#000000" stroke-width="2" stroke-linecap="round" stroke-linejoin="round" stroke-miterlimit="10" cx="-45.254" cy="103.443" r="5.859"/>
			<path fill="none" stroke="#000000" stroke-width="2" stroke-linecap="round" stroke-linejoin="round" stroke-miterlimit="10" d="
				M-45.255,100.044c0.87,0,1.74,0.332,2.404,0.995c0.663,0.663,0.996,1.534,0.996,2.402"/>
			
				<line fill="none" stroke="#000000" stroke-width="2" stroke-linecap="round" stroke-linejoin="round" stroke-miterlimit="10" x1="-41.111" y1="107.586" x2="-39.271" y2="109.426"/>
			<path fill="none" stroke="#000000" stroke-width="2" stroke-linecap="round" stroke-linejoin="round" stroke-miterlimit="10" d="
				M-30.309,118.143l-0.245,0.246c-0.507,0.508-1.336,0.508-1.842,0l-6.998-6.998c-0.506-0.506-0.506-1.334,0-1.841l0.246-0.245
				c0.506-0.508,1.334-0.508,1.841,0l6.998,6.997C-29.802,116.809-29.802,117.637-30.309,118.143z"/>
		</g>
	</g>
	<g display="inline">
		
			<polygon fill="none" stroke="#000000" stroke-width="2" stroke-linecap="round" stroke-linejoin="round" stroke-miterlimit="10" points="
			-269.365,176.475 -260.519,191.797 -278.211,191.797 		"/>
		
			<line fill="none" stroke="#000000" stroke-width="2" stroke-linecap="round" stroke-linejoin="round" stroke-miterlimit="10" x1="-269.365" y1="181.984" x2="-269.365" y2="186.285"/>
		
			<line fill="none" stroke="#000000" stroke-width="2" stroke-linecap="round" stroke-linejoin="round" stroke-miterlimit="10" x1="-269.365" y1="189.081" x2="-269.365" y2="189.543"/>
	</g>
	<g display="inline">
		<g>
			<path fill="none" stroke="#000000" stroke-width="2" stroke-linecap="round" stroke-linejoin="round" stroke-miterlimit="10" d="
				M-191.671,194.848h-22.468c-0.792,0-1.438-0.646-1.438-1.438v-48.161c0-0.791,0.647-1.438,1.438-1.438h22.468
				c0.791,0,1.438,0.646,1.438,1.438v48.161C-190.233,194.199-190.881,194.848-191.671,194.848z"/>
			
				<circle fill="none" stroke="#000000" stroke-width="2" stroke-linecap="round" stroke-linejoin="round" stroke-miterlimit="10" cx="-202.905" cy="189.3" r="2.309"/>
			
				<line fill="none" stroke="#000000" stroke-width="2" stroke-linecap="round" stroke-linejoin="round" stroke-miterlimit="10" x1="-215.578" y1="150.449" x2="-190.233" y2="150.449"/>
			
				<line fill="none" stroke="#000000" stroke-width="2" stroke-linecap="round" stroke-linejoin="round" stroke-miterlimit="10" x1="-215.578" y1="183.622" x2="-190.233" y2="183.622"/>
			
				<line fill="none" stroke="#000000" stroke-width="2" stroke-linecap="round" stroke-linejoin="round" stroke-miterlimit="10" x1="-204.114" y1="147.129" x2="-201.696" y2="147.129"/>
		</g>
		<g>
			<path fill="none" stroke="#000000" stroke-width="2" stroke-linecap="round" stroke-linejoin="round" stroke-miterlimit="10" d="
				M-211.833,158.939c1.535-3.383,4.949-5.75,8.888-5.75l0,0c5.364,0,9.751,4.388,9.751,9.75v4.172"/>
			<path fill="none" stroke="#000000" stroke-width="2" stroke-linecap="round" stroke-linejoin="round" stroke-miterlimit="10" d="
				M-193.193,169.252c-1.409,0.331-1.925-0.534-1.933-1.854c-0.008-1.32-0.114-4.457-0.114-4.457c0-4.248-3.457-7.705-7.705-7.705
				c-3.497,0-6.458,2.344-7.396,5.541c0,0-1.031,1.727-1.912-0.034"/>
			<path fill="none" stroke="#000000" stroke-width="2" stroke-linecap="round" stroke-linejoin="round" stroke-miterlimit="10" d="
				M-212.251,163.634c2.456,1.438,3.649-1.95,4.507-3.685c0.858-1.733,2.778-2.666,4.8-2.666c3.12,0,5.657,2.537,5.657,5.656
				c0,0-0.538,9.553,4.094,8.537"/>
			<path fill="none" stroke="#000000" stroke-width="2" stroke-linecap="round" stroke-linejoin="round" stroke-miterlimit="10" d="
				M-212.251,166.061c2.117,0.494,3.748-0.461,4.686-1.516c0.74-0.831,0.903-1.704,0.903-1.704c0.672-2.47,1.727-3.51,3.718-3.51
				c1.991,0,3.61,1.618,3.61,3.608c0,0-0.089,5.838,1.208,7.178"/>
			<path fill="none" stroke="#000000" stroke-width="2" stroke-linecap="round" stroke-linejoin="round" stroke-miterlimit="10" d="
				M-212.251,168.652c7.063,0.293,7.744-5.713,7.744-5.713c0-0.86,0.701-1.563,1.563-1.563c0.862,0,1.563,0.701,1.563,1.563"/>
			<path fill="none" stroke="#000000" stroke-width="2" stroke-linecap="round" stroke-linejoin="round" stroke-miterlimit="10" d="
				M-202.944,163.634c0,0,0.786,6.399-9.307,7.403"/>
			<path fill="none" stroke="#000000" stroke-width="2" stroke-linecap="round" stroke-linejoin="round" stroke-miterlimit="10" d="
				M-200.772,170.342c0,0,3.076,3.748,7.478,3.107"/>
			<path fill="none" stroke="#000000" stroke-width="2" stroke-linecap="round" stroke-linejoin="round" stroke-miterlimit="10" d="
				M-212.618,173.271c0,0,7.939-0.653,10.106-4.407"/>
			<path fill="none" stroke="#000000" stroke-width="2" stroke-linecap="round" stroke-linejoin="round" stroke-miterlimit="10" d="
				M-201.104,164.725c0,0-0.687,2.18,0.332,3.487"/>
			<path fill="none" stroke="#000000" stroke-width="2" stroke-linecap="round" stroke-linejoin="round" stroke-miterlimit="10" d="
				M-212.014,175.624c0,0,6.612-0.8,9.769-3.831"/>
			<path fill="none" stroke="#000000" stroke-width="2" stroke-linecap="round" stroke-linejoin="round" stroke-miterlimit="10" d="
				M-201.051,173.128c0,0,2.567,2.918,6.998,2.918"/>
			<path fill="none" stroke="#000000" stroke-width="2" stroke-linecap="round" stroke-linejoin="round" stroke-miterlimit="10" d="
				M-210.901,177.672c0,0,6.239-0.838,8.179-3.013c0,0,2.784,3.026,7.231,3.665"/>
			<path fill="none" stroke="#000000" stroke-width="2" stroke-linecap="round" stroke-linejoin="round" stroke-miterlimit="10" d="
				M-209.419,179.533c0,0,5.113-1.004,6.49-2.162c0,0,4.682,2.781,5.684,2.584"/>
			<path fill="none" stroke="#000000" stroke-width="2" stroke-linecap="round" stroke-linejoin="round" stroke-miterlimit="10" d="
				M-206.816,181c0,0,3.049-2.191,7.74,0.316"/>
		</g>
	</g>
	<g display="inline">
		<g>
			<path fill="none" stroke="#000000" stroke-width="2" stroke-linecap="round" stroke-linejoin="round" stroke-miterlimit="10" d="
				M-138.009,160.107c1.805-3.979,5.818-6.762,10.45-6.762l0,0c6.306,0,11.465,5.157,11.465,11.465v4.904"/>
			<path fill="none" stroke="#000000" stroke-width="2" stroke-linecap="round" stroke-linejoin="round" stroke-miterlimit="10" d="
				M-116.094,172.23c-1.657,0.39-2.264-0.627-2.273-2.182c-0.01-1.552-0.134-5.238-0.134-5.238c0-4.994-4.063-9.06-9.058-9.06
				c-4.112,0-7.592,2.754-8.694,6.517c0,0-1.212,2.027-2.248-0.041"/>
			<path fill="none" stroke="#000000" stroke-width="2" stroke-linecap="round" stroke-linejoin="round" stroke-miterlimit="10" d="
				M-138.501,165.626c2.887,1.69,4.292-2.294,5.299-4.332c1.008-2.037,3.266-3.134,5.643-3.134c3.667,0,6.651,2.982,6.651,6.65
				c0,0-0.631,11.229,4.814,10.037"/>
			<path fill="none" stroke="#000000" stroke-width="2" stroke-linecap="round" stroke-linejoin="round" stroke-miterlimit="10" d="
				M-138.501,168.479c2.489,0.58,4.407-0.541,5.51-1.783c0.869-0.975,1.061-2.002,1.061-2.002c0.792-2.901,2.031-4.127,4.372-4.127
				c2.341,0,4.245,1.904,4.245,4.244c0,0-0.104,6.863,1.42,8.438"/>
			<path fill="none" stroke="#000000" stroke-width="2" stroke-linecap="round" stroke-linejoin="round" stroke-miterlimit="10" d="
				M-138.501,171.527c8.304,0.345,9.105-6.717,9.105-6.717c0-1.014,0.825-1.838,1.837-1.838c1.014,0,1.838,0.824,1.838,1.838"/>
			<path fill="none" stroke="#000000" stroke-width="2" stroke-linecap="round" stroke-linejoin="round" stroke-miterlimit="10" d="
				M-127.559,165.626c0,0,0.924,7.524-10.942,8.705"/>
			<path fill="none" stroke="#000000" stroke-width="2" stroke-linecap="round" stroke-linejoin="round" stroke-miterlimit="10" d="
				M-125.005,173.514c0,0,3.616,4.406,8.792,3.652"/>
			<path fill="none" stroke="#000000" stroke-width="2" stroke-linecap="round" stroke-linejoin="round" stroke-miterlimit="10" d="
				M-138.933,176.959c0,0,9.334-0.77,11.882-5.184"/>
			<path fill="none" stroke="#000000" stroke-width="2" stroke-linecap="round" stroke-linejoin="round" stroke-miterlimit="10" d="
				M-125.394,166.908c0,0-0.809,2.563,0.389,4.102"/>
			<path fill="none" stroke="#000000" stroke-width="2" stroke-linecap="round" stroke-linejoin="round" stroke-miterlimit="10" d="
				M-138.222,179.725c0,0,7.775-0.938,11.486-4.506"/>
			<path fill="none" stroke="#000000" stroke-width="2" stroke-linecap="round" stroke-linejoin="round" stroke-miterlimit="10" d="
				M-125.332,176.788c0,0,3.017,3.431,8.226,3.431"/>
			<path fill="none" stroke="#000000" stroke-width="2" stroke-linecap="round" stroke-linejoin="round" stroke-miterlimit="10" d="
				M-136.914,182.13c0,0,7.334-0.983,9.616-3.542c0,0,3.273,3.561,8.501,4.311"/>
			<path fill="none" stroke="#000000" stroke-width="2" stroke-linecap="round" stroke-linejoin="round" stroke-miterlimit="10" d="
				M-135.172,184.318c0,0,6.012-1.18,7.631-2.541c0,0,5.504,3.271,6.682,3.037"/>
			<path fill="none" stroke="#000000" stroke-width="2" stroke-linecap="round" stroke-linejoin="round" stroke-miterlimit="10" d="
				M-132.111,186.043c0,0,3.585-2.576,9.101,0.375"/>
		</g>
		<g>
			<g>
				<g>
					<g>
						<path fill="none" stroke="#000000" stroke-width="2" stroke-linecap="round" stroke-linejoin="round" d="M-149.755,172.879
							c-0.546-4.027-0.006-8.252,1.79-12.229c5.094-11.286,18.366-16.313,29.655-11.234"/>
						<g>
							<polygon points="-121.046,152.118 -113.874,152.059 -117.512,145.876 							"/>
						</g>
					</g>
				</g>
			</g>
			<g>
				<g>
					<g>
						<path fill="none" stroke="#000000" stroke-width="2" stroke-linecap="round" stroke-linejoin="round" d="M-105.434,165.866
							c0.791,4.327,0.32,8.934-1.627,13.247c-5.099,11.296-18.388,16.318-29.684,11.222c-0.994-0.448-1.939-0.96-2.833-1.528"/>
						<g>
							<polygon points="-136.482,186.545 -143.585,185.55 -140.896,192.199 							"/>
						</g>
					</g>
				</g>
			</g>
		</g>
	</g>
	<g display="inline">
		<g>
			<path fill="none" stroke="#000000" stroke-width="2" stroke-linecap="round" stroke-linejoin="round" stroke-miterlimit="10" d="
				M-36.756,157.439c0.506,1.543,0.78,3.188,0.78,4.896v6.765"/>
			<path fill="none" stroke="#000000" stroke-width="2" stroke-linecap="round" stroke-linejoin="round" stroke-miterlimit="10" d="
				M-65.188,153.98c2.801-4.467,7.771-7.453,13.404-7.453l0,0c5.281,0,9.979,2.625,12.854,6.634"/>
			<path fill="none" stroke="#000000" stroke-width="2" stroke-linecap="round" stroke-linejoin="round" stroke-miterlimit="10" d="
				M-65.187,160.029c-0.521,0.115-1.123-0.131-1.687-1.258"/>
			<path fill="none" stroke="#000000" stroke-width="2" stroke-linecap="round" stroke-linejoin="round" stroke-miterlimit="10" d="
				M-41.319,155.523c-2.231-3.416-6.089-5.68-10.465-5.68c-4.773,0-8.93,2.692-11.031,6.639"/>
			<path fill="none" stroke="#000000" stroke-width="2" stroke-linecap="round" stroke-linejoin="round" stroke-miterlimit="10" d="
				M-35.976,172.566c-2.284,0.537-3.121-0.865-3.135-3.006c-0.014-2.142-0.185-7.227-0.185-7.227c0-0.777-0.071-1.541-0.208-2.279"
				/>
			<path fill="none" stroke="#000000" stroke-width="2" stroke-linecap="round" stroke-linejoin="round" stroke-miterlimit="10" d="
				M-42.613,162.336c0,0-0.871,15.484,6.638,13.84"/>
			<path fill="none" stroke="#000000" stroke-width="2" stroke-linecap="round" stroke-linejoin="round" stroke-miterlimit="10" d="
				M-59.898,158.182c0.114-0.244,0.226-0.479,0.333-0.695c1.39-2.81,4.503-4.319,7.781-4.319c3.481,0,6.516,1.95,8.069,4.813"/>
			<path fill="none" stroke="#000000" stroke-width="2" stroke-linecap="round" stroke-linejoin="round" stroke-miterlimit="10" d="
				M-66.873,163.46c1.656,0.97,2.959,0.584,4.015-0.397"/>
			<path fill="none" stroke="#000000" stroke-width="2" stroke-linecap="round" stroke-linejoin="round" stroke-miterlimit="10" d="
				M-45.854,165.709c0.155,2.943,0.604,6.945,1.88,8.262"/>
			<path fill="none" stroke="#000000" stroke-width="2" stroke-linecap="round" stroke-linejoin="round" stroke-miterlimit="10" d="
				M-57.555,161.307c1.1-3.38,2.787-4.822,5.771-4.822c2.668,0,4.924,1.793,5.626,4.238"/>
			<path fill="none" stroke="#000000" stroke-width="2" stroke-linecap="round" stroke-linejoin="round" stroke-miterlimit="10" d="
				M-66.873,167.395c3.003,0.698,5.403-0.396,6.975-1.828"/>
			<path fill="none" stroke="#000000" stroke-width="2" stroke-linecap="round" stroke-linejoin="round" stroke-miterlimit="10" d="
				M-54.841,164.355c0.427-1.179,0.522-2.021,0.522-2.021c0-1.396,1.137-2.533,2.534-2.533c1.396,0,2.533,1.139,2.533,2.533"/>
			<path fill="none" stroke="#000000" stroke-width="2" stroke-linecap="round" stroke-linejoin="round" stroke-miterlimit="10" d="
				M-66.873,171.598c4.713,0.195,7.673-1.34,9.524-3.213"/>
			<path fill="none" stroke="#000000" stroke-width="2" stroke-linecap="round" stroke-linejoin="round" stroke-miterlimit="10" d="
				M-58.615,173.407c-2.07,0.96-4.761,1.707-8.258,2.056"/>
			<path fill="none" stroke="#000000" stroke-width="2" stroke-linecap="round" stroke-linejoin="round" stroke-miterlimit="10" d="
				M-51.784,163.46c0,0,0.169,1.378-0.408,3.209"/>
			<path fill="none" stroke="#000000" stroke-width="2" stroke-linecap="round" stroke-linejoin="round" stroke-miterlimit="10" d="
				M-38.71,179.453c0.82,0.066,1.679,0.048,2.571-0.081"/>
			<path fill="none" stroke="#000000" stroke-width="2" stroke-linecap="round" stroke-linejoin="round" stroke-miterlimit="10" d="
				M-56.343,176.247c1.588-0.745,3.053-1.679,4.151-2.84"/>
			<path fill="none" stroke="#000000" stroke-width="2" stroke-linecap="round" stroke-linejoin="round" stroke-miterlimit="10" d="
				M-67.467,179.085c0,0,1.321-0.108,3.233-0.458"/>
			<path fill="none" stroke="#000000" stroke-width="2" stroke-linecap="round" stroke-linejoin="round" stroke-miterlimit="10" d="
				M-48.995,169.318c0.138,0.555,0.367,1.094,0.733,1.563"/>
			<path fill="none" stroke="#000000" stroke-width="2" stroke-linecap="round" stroke-linejoin="round" stroke-miterlimit="10" d="
				M-62.11,182.061c3.56-0.861,8.468-2.5,11.46-5.375"/>
			<path fill="none" stroke="#000000" stroke-width="2" stroke-linecap="round" stroke-linejoin="round" stroke-miterlimit="10" d="
				M-48.715,178.852c0,0,2.167,2.461,6.07,3.834"/>
			<path fill="none" stroke="#000000" stroke-width="2" stroke-linecap="round" stroke-linejoin="round" stroke-miterlimit="10" d="
				M-64.684,186.217c0,0,10.114-1.357,13.259-4.884c0,0,4.514,4.908,11.723,5.94"/>
			<path fill="none" stroke="#000000" stroke-width="2" stroke-linecap="round" stroke-linejoin="round" stroke-miterlimit="10" d="
				M-62.282,189.234c0,0,8.289-1.629,10.521-3.504c0,0,7.592,4.508,9.216,4.188"/>
			<path fill="none" stroke="#000000" stroke-width="2" stroke-linecap="round" stroke-linejoin="round" stroke-miterlimit="10" d="
				M-58.062,191.611c0,0,4.943-3.553,12.548,0.517"/>
		</g>
		
			<line fill="none" stroke="#000000" stroke-width="2" stroke-linecap="round" stroke-linejoin="round" stroke-miterlimit="10" x1="-31.978" y1="149.368" x2="-73.024" y2="190.396"/>
		
			<line fill="none" stroke="#000000" stroke-width="2" stroke-linecap="round" stroke-linejoin="round" stroke-miterlimit="10" x1="-31.987" y1="190.406" x2="-73.015" y2="149.357"/>
	</g>
	<g display="inline">
		<g>
			<path fill="none" stroke="#FF0000" stroke-width="3" stroke-linecap="round" stroke-linejoin="round" stroke-miterlimit="10" d="
				M16.732,188.059c5.886-12.973,18.975-22.052,34.083-22.052l0,0c20.568,0,37.397,16.828,37.397,37.396v16"/>
			<path fill="none" stroke="#FF0000" stroke-width="3" stroke-linecap="round" stroke-linejoin="round" stroke-miterlimit="10" d="
				M88.213,227.604c-5.404,1.27-7.385-2.049-7.416-7.11S80.359,203.4,80.359,203.4c0-16.291-13.252-29.545-29.543-29.545
				c-13.412,0-24.765,8.98-28.359,21.248c0,0-3.956,6.621-7.332-0.133"/>
			<path fill="none" stroke="#FF0000" stroke-width="3" stroke-linecap="round" stroke-linejoin="round" stroke-miterlimit="10" d="
				M15.125,206.061c9.416,5.516,13.996-7.482,17.285-14.131c3.288-6.646,10.652-10.221,18.406-10.221
				c11.963,0,21.696,9.729,21.696,21.691c0,0-1.221,21.664,6.295,29.9"/>
			<path fill="none" stroke="#FF0000" stroke-width="3" stroke-linecap="round" stroke-linejoin="round" stroke-miterlimit="10" d="
				M15.125,215.365c8.118,1.891,14.372-1.77,17.971-5.813c2.835-3.188,3.461-6.534,3.461-6.534
				c2.581-9.47,6.625-13.461,14.259-13.461c7.634,0,13.844,6.211,13.844,13.844c0,0-0.341,22.392,4.634,27.521"/>
			<path fill="none" stroke="#FF0000" stroke-width="3" stroke-linecap="round" stroke-linejoin="round" stroke-miterlimit="10" d="
				M15.125,225.313c27.084,1.119,29.697-21.91,29.697-21.91c0-3.305,2.689-5.992,5.994-5.992c3.304,0,5.993,2.688,5.993,5.992"/>
			<path fill="none" stroke="#FF0000" stroke-width="3" stroke-linecap="round" stroke-linejoin="round" stroke-miterlimit="10" d="
				M50.815,206.061c0,0,3.016,24.543-35.691,28.394"/>
			<path fill="none" stroke="#FF0000" stroke-width="3" stroke-linecap="round" stroke-linejoin="round" stroke-miterlimit="10" d="
				M59.146,231.784c0,0,4.104,5.001,10.936,8.598"/>
			<path fill="none" stroke="#FF0000" stroke-width="3" stroke-linecap="round" stroke-linejoin="round" stroke-miterlimit="10" d="
				M13.717,243.021c0,0,30.444-2.508,38.755-16.903"/>
			<path fill="none" stroke="#FF0000" stroke-width="3" stroke-linecap="round" stroke-linejoin="round" stroke-miterlimit="10" d="
				M57.876,210.24c0,0-2.634,8.357,1.27,13.377"/>
			<path fill="none" stroke="#FF0000" stroke-width="3" stroke-linecap="round" stroke-linejoin="round" stroke-miterlimit="10" d="
				M16.035,252.041c0,0,25.358-3.063,37.461-14.693"/>
			<path fill="none" stroke="#FF0000" stroke-width="3" stroke-linecap="round" stroke-linejoin="round" stroke-miterlimit="10" d="
				M58.076,242.467c0,0,3.23,3.67,9.183,6.809"/>
			<path fill="none" stroke="#FF0000" stroke-width="3" stroke-linecap="round" stroke-linejoin="round" stroke-miterlimit="10" d="
				M20.303,259.891c0,0,23.923-3.209,31.365-11.552c0,0,4.827,5.252,13.172,9.433"/>
			<path fill="none" stroke="#FF0000" stroke-width="3" stroke-linecap="round" stroke-linejoin="round" stroke-miterlimit="10" d="
				M25.984,267.029c0,0,19.608-3.85,24.886-8.286c0,0,7.423,4.407,13.741,7.354"/>
			<path fill="none" stroke="#FF0000" stroke-width="3" stroke-linecap="round" stroke-linejoin="round" stroke-miterlimit="10" d="
				M35.966,272.654c0,0,11.245-8.082,28.647,0.684"/>
		</g>
		<g>
			<path fill="none" stroke="#FF0000" stroke-width="3" stroke-linecap="round" stroke-linejoin="round" stroke-miterlimit="10" d="
				M98.084,272.71c0,2.679-2.191,4.871-4.868,4.871H69.712c-2.681,0-4.872-2.192-4.872-4.871v-19.237
				c0-2.676,2.191-4.867,4.872-4.867h23.504c2.677,0,4.868,2.191,4.868,4.867V272.71z"/>
			<path fill="none" stroke="#FF0000" stroke-width="3" stroke-linecap="round" stroke-linejoin="round" stroke-miterlimit="10" d="
				M70.078,248.604v-3.93c0-6.262,5.121-11.385,11.384-11.385l0,0c6.265,0,11.386,5.123,11.386,11.385v3.93"/>
			<path fill="none" stroke="#FF0000" stroke-width="3" stroke-linecap="round" stroke-linejoin="round" stroke-miterlimit="10" d="
				M85.831,261.068c0-2.414-1.956-4.373-4.369-4.373c-2.411,0-4.369,1.959-4.369,4.373c0,1.725,1.003,3.209,2.453,3.92v2.58
				c0,1.055,0.861,1.918,1.916,1.918c1.056,0,1.92-0.863,1.92-1.918v-2.58C84.833,264.277,85.831,262.793,85.831,261.068z"/>
		</g>
	</g>
	<g display="inline">
		<g id="path17_1_">
			<path fill="#FFFFFF" d="M88.798,159.977c0.024,0.021,0.058,0.047,0.085,0.074l0.014,1.604l0.019,2.063l0.011,1.341l1.278,0.399
				l0.646,0.205c0.864,0.271,1.696,0.612,2.549,1.045c0.963,0.487,1.223,0.619,1.709,0.619c0.808,0,0.951-0.146,2.736-1.922
				c0.406-0.404,0.942-0.938,1.202-1.152h0.021h0.002c0.332,0.274,1.061,1.011,2.019,1.978l0.101,0.103
				c1.028,1.039,1.813,1.828,2.104,2.185c-0.225,0.269-0.752,0.797-1.154,1.201l-1.395,1.397l-0.934,0.937l0.59,1.184l0.449,0.904
				c0.453,0.914,0.766,1.678,1.043,2.56l0.202,0.647l0.401,1.278l1.341,0.011l2.063,0.019l1.604,0.014
				c0.027,0.026,0.055,0.06,0.074,0.086v2.929v2.933c-0.02,0.024-0.047,0.057-0.074,0.084l-1.605,0.014l-2.063,0.019l-1.354,0.013
				l-0.394,1.295l-0.146,0.481c-0.271,0.896-0.854,2.261-1.353,3.172l-0.207,0.379l-0.663,1.21l0.975,0.976l1.42,1.424
				c0.563,0.565,0.949,0.976,1.156,1.203c-0.279,0.334-1.052,1.104-2.068,2.123l-0.079,0.079c-0.981,0.983-1.729,1.733-2.075,2.021
				c-0.266-0.223-0.792-0.748-1.191-1.146c-1.819-1.813-1.929-1.92-2.729-1.92c-0.475,0-0.673,0.102-1.788,0.65
				c-0.933,0.464-1.606,0.738-2.494,1.02l-0.631,0.199l-1.274,0.4l-0.013,1.338l-0.018,2.063l-0.015,1.604
				c-0.02,0.02-0.041,0.041-0.063,0.057c-0.342,0.018-1.256,0.021-2.764,0.025l-0.574,0.002c-1.377,0-2.264-0.016-2.557-0.023
				c-0.023-0.012-0.056-0.031-0.076-0.053l-0.014-1.615l-0.018-2.064l-0.014-1.354l-1.295-0.395l-0.482-0.146
				c-0.878-0.266-2.165-0.811-3.13-1.33l-0.437-0.232l-1.203-0.646l-0.968,0.966l-1.423,1.418c-0.566,0.563-0.975,0.948-1.204,1.155
				c-0.351-0.291-1.192-1.136-2.147-2.095l-0.066-0.067c-0.977-0.976-1.718-1.719-2.006-2.063c0.227-0.269,0.754-0.799,1.154-1.2
				l1.396-1.4l0.934-0.938l-0.59-1.184l-0.449-0.902c-0.457-0.918-0.771-1.685-1.045-2.557l-0.203-0.648l-0.399-1.278l-1.341-0.012
				l-2.063-0.017l-1.604-0.015c-0.027-0.024-0.055-0.06-0.074-0.084v-2.933v-2.93c0.02-0.025,0.047-0.058,0.073-0.084l1.604-0.015
				l2.063-0.019l1.347-0.011l0.396-1.286l0.177-0.563c0.246-0.793,0.724-1.953,1.11-2.697l0.406-0.774l0.625-1.192l-0.947-0.957
				l-1.403-1.416c-0.437-0.438-0.963-0.974-1.179-1.231c0-0.005,0-0.011,0-0.017v-0.004c0.277-0.33,1.015-1.062,1.981-2.021
				l0.099-0.099c1.002-0.992,1.82-1.806,2.186-2.103c0.27,0.226,0.79,0.746,1.188,1.144c1.597,1.59,1.929,1.92,2.772,1.92
				c0.41,0,0.813-0.125,1.151-0.354c0.089-0.047,0.297-0.157,0.604-0.312c0.773-0.39,1.65-0.741,2.465-0.998l0.648-0.203
				l1.277-0.401l0.012-1.34l0.017-2.063l0.015-1.605c0.024-0.025,0.056-0.055,0.078-0.07h2.938h2.927"/>
		</g>
	</g>
	<g display="inline">
		<g id="path17">
			<path fill="#FF0000" d="M88.762,160.002c0.025,0.02,0.059,0.047,0.086,0.074l0.012,1.602l0.02,2.063l0.012,1.34l1.277,0.401
				l0.646,0.203c0.863,0.271,1.695,0.612,2.547,1.045c0.966,0.487,1.224,0.619,1.709,0.619c0.809,0,0.953-0.146,2.738-1.92
				c0.405-0.404,0.941-0.938,1.201-1.154h0.02h0.005c0.329,0.276,1.059,1.013,2.017,1.979l0.102,0.102
				c1.029,1.039,1.812,1.828,2.103,2.186c-0.224,0.266-0.752,0.797-1.153,1.201l-1.396,1.396l-0.935,0.938l0.59,1.184l0.449,0.902
				c0.455,0.914,0.767,1.68,1.043,2.559l0.205,0.648l0.399,1.279l1.341,0.012l2.063,0.016l1.604,0.014
				c0.027,0.027,0.057,0.063,0.074,0.086v2.932v2.932c-0.021,0.025-0.047,0.059-0.074,0.086l-1.605,0.012l-2.063,0.018l-1.354,0.012
				l-0.393,1.297l-0.146,0.482c-0.271,0.895-0.852,2.26-1.351,3.172l-0.206,0.377l-0.664,1.209l0.975,0.977l1.419,1.426
				c0.563,0.564,0.948,0.973,1.157,1.202c-0.279,0.332-1.051,1.104-2.067,2.122l-0.08,0.08c-0.981,0.984-1.729,1.732-2.075,2.021
				c-0.266-0.225-0.792-0.748-1.191-1.148c-1.818-1.813-1.928-1.92-2.729-1.92c-0.474,0-0.673,0.102-1.788,0.652
				c-0.932,0.463-1.605,0.738-2.492,1.018l-0.633,0.199l-1.275,0.4l-0.012,1.34l-0.018,2.063l-0.014,1.604
				c-0.021,0.021-0.043,0.039-0.063,0.056c-0.341,0.021-1.255,0.021-2.766,0.026h-0.572c-1.377,0-2.266-0.012-2.557-0.022
				c-0.023-0.012-0.056-0.03-0.076-0.051l-0.014-1.617l-0.018-2.063l-0.012-1.354l-1.297-0.394L81,197.771
				c-0.878-0.268-2.165-0.813-3.13-1.33l-0.435-0.232l-1.205-0.646l-0.967,0.963l-1.424,1.418c-0.564,0.564-0.975,0.949-1.203,1.158
				c-0.352-0.293-1.191-1.137-2.148-2.094l-0.066-0.068c-0.975-0.975-1.717-1.721-2.006-2.063c0.227-0.271,0.754-0.799,1.156-1.203
				l1.396-1.398l0.935-0.938l-0.59-1.188l-0.449-0.898c-0.459-0.92-0.771-1.686-1.045-2.561l-0.202-0.646l-0.401-1.275l-1.341-0.014
				l-2.063-0.016l-1.604-0.016c-0.027-0.025-0.055-0.059-0.074-0.086v-2.93v-2.93c0.02-0.027,0.047-0.059,0.073-0.086l1.604-0.012
				l2.063-0.02l1.348-0.014l0.397-1.283l0.175-0.566c0.246-0.791,0.725-1.949,1.111-2.693l0.406-0.775l0.623-1.195l-0.947-0.955
				l-1.402-1.418c-0.438-0.438-0.963-0.971-1.177-1.229c0-0.008,0-0.014,0-0.02v-0.002c0.276-0.332,1.013-1.061,1.979-2.021
				l0.1-0.099c1.002-0.992,1.82-1.804,2.185-2.103c0.271,0.226,0.79,0.746,1.188,1.146c1.596,1.59,1.928,1.92,2.771,1.92
				c0.41,0,0.814-0.125,1.152-0.354c0.088-0.049,0.296-0.158,0.604-0.313c0.773-0.387,1.649-0.741,2.465-0.998l0.647-0.203
				l1.278-0.401l0.011-1.34l0.017-2.063l0.014-1.606c0.025-0.025,0.057-0.052,0.08-0.068h2.938h2.928 M89.131,158.16h-3.299h-3.301
				l-0.331,0.133c-0.421,0.17-0.866,0.586-1.068,0.998l-0.153,0.311l-0.017,2.063l-0.017,2.062l-0.649,0.205
				c-0.912,0.286-1.872,0.676-2.735,1.106c-0.408,0.205-0.765,0.396-0.793,0.422c-0.029,0.026-0.092,0.049-0.139,0.049
				s-0.709-0.62-1.473-1.383c-1.62-1.615-1.737-1.694-2.498-1.694c-0.795,0-0.813,0.014-3.473,2.649
				c-2.654,2.631-2.623,2.588-2.625,3.424c0,0.791,0.063,0.888,1.711,2.55l1.402,1.416l-0.404,0.776
				c-0.439,0.842-0.963,2.106-1.24,3.006l-0.174,0.563l-2.063,0.019l-2.063,0.017l-0.315,0.155
				c-0.401,0.197-0.828,0.658-0.998,1.078l-0.129,0.319v3.3v3.301l0.129,0.317c0.17,0.421,0.597,0.882,0.998,1.078l0.315,0.156
				l2.062,0.016l2.063,0.019l0.203,0.647c0.303,0.966,0.65,1.82,1.152,2.826l0.449,0.901l-1.396,1.4
				c-1.627,1.633-1.705,1.747-1.705,2.51c0,0.806-0.021,0.774,2.623,3.426c2.447,2.453,2.536,2.527,3.157,2.646
				c0.084,0.017,0.177,0.022,0.272,0.022c0.293,0,0.623-0.069,0.877-0.196c0.134-0.065,0.802-0.687,1.646-1.528l1.426-1.418
				l0.435,0.231c1.075,0.577,2.469,1.17,3.468,1.471l0.482,0.146l0.017,2.063l0.019,2.063l0.152,0.313
				c0.281,0.572,0.875,1.008,1.508,1.104c0.137,0.021,1.346,0.035,2.809,0.035c0.189,0,0.385,0,0.58,0
				c3.104-0.01,3.105-0.01,3.425-0.137c0.421-0.17,0.883-0.596,1.08-0.998l0.153-0.314l0.019-2.063l0.019-2.063l0.631-0.196
				c0.971-0.309,1.746-0.623,2.758-1.125c0.512-0.254,0.947-0.461,0.971-0.461s0.666,0.623,1.43,1.383
				c1.612,1.608,1.736,1.695,2.486,1.695c0.004,0,0.008,0,0.011,0c0.815,0,0.781,0.023,3.454-2.65
				c2.471-2.475,2.498-2.508,2.617-3.139c0.063-0.332-0.01-0.809-0.176-1.143c-0.065-0.133-0.688-0.803-1.529-1.646l-1.419-1.424
				l0.208-0.381c0.557-1.02,1.189-2.508,1.496-3.521l0.146-0.481l2.063-0.019l2.063-0.018l0.315-0.154
				c0.401-0.196,0.828-0.658,0.997-1.08l0.13-0.317v-3.299V178.4l-0.13-0.317c-0.169-0.42-0.596-0.883-0.997-1.08l-0.315-0.153
				l-2.062-0.019l-2.063-0.017l-0.203-0.647c-0.306-0.974-0.65-1.824-1.149-2.828l-0.449-0.901l1.396-1.397
				c1.623-1.629,1.699-1.742,1.703-2.511c0.004-0.795-0.011-0.812-2.647-3.473c-2.632-2.656-2.587-2.623-3.425-2.623
				c-0.01,0-0.018,0-0.027,0c-0.766,0-0.881,0.082-2.495,1.688c-0.766,0.762-1.411,1.385-1.438,1.385
				c-0.024,0-0.42-0.188-0.877-0.422c-0.938-0.476-1.873-0.856-2.825-1.158l-0.649-0.202l-0.017-2.063l-0.019-2.062l-0.151-0.315
				c-0.197-0.402-0.658-0.828-1.079-0.998L89.131,158.16L89.131,158.16z"/>
		</g>
		<path id="path19" fill="#FF0000" d="M85.061,190.463c-0.508-0.053-1.457-0.258-1.933-0.416c-3.063-1.016-5.286-3.557-5.927-6.773
			c-0.178-0.891-0.176-2.301,0.001-3.191c0.724-3.637,3.427-6.338,7.067-7.063c0.881-0.177,2.295-0.177,3.188,0
			c2.417,0.479,4.432,1.819,5.766,3.849c1.926,2.926,1.926,6.702,0,9.629c-1.324,2.012-3.361,3.375-5.73,3.838
			C86.904,190.445,85.572,190.518,85.061,190.463L85.061,190.463z M87.045,188.475c1.389-0.242,2.715-0.93,3.7-1.914
			c0.985-0.982,1.671-2.313,1.913-3.701c0.105-0.605,0.105-1.752,0-2.359c-0.499-2.859-2.684-5.063-5.57-5.607
			c-0.605-0.115-1.843-0.115-2.447,0c-2.188,0.416-3.969,1.75-4.949,3.715c-0.489,0.98-0.705,1.914-0.705,3.076
			c0,1.176,0.216,2.096,0.725,3.104c0.979,1.941,2.792,3.299,4.932,3.688C85.213,188.574,86.458,188.576,87.045,188.475
			L87.045,188.475z"/>
	</g>
</g>
<path fill="#FF0000" d="M63.593,30.956c0-16.373-13.269-29.645-29.639-29.645c-16.373,0-29.643,13.273-29.643,29.645
	c0,11.519,6.585,21.482,16.188,26.389v9.833l8.403,8.4l-9.042,9.046l7.6,7.6l-6.917,6.916l7.439,7.438l-7.656,7.654l13.231,13.231
	l14.044-14.046V57.264h-0.03C57.085,52.331,63.593,42.412,63.593,30.956z M33.953,31.176c-5.276,0-9.554-4.277-9.554-9.554
	c0-5.275,4.278-9.553,9.554-9.553s9.553,4.277,9.553,9.553C43.506,26.899,39.229,31.176,33.953,31.176z"/>
<path fill="#FF0000" d="M99.344,64.849c2.73,4.908,11.049,10.281,15.754,12.291c-0.558-15.934-10.342-32.747-24.129-32.747
	c-12.837,0-28.104,14.977-25.913,36.101C81.192,79.543,93.594,70.458,99.344,64.849z"/>
<path fill="none" stroke="#FF0000" stroke-width="5" stroke-linecap="round" stroke-linejoin="round" stroke-miterlimit="10" d="
	M116.168,78.598c0,7.586-1.889,14.599-5.087,20.277c-4.787,8.496-12.499,17.803-21.202,17.803c-8.557,0-16.162-9.129-20.96-17.39
	c-3.341-5.751-5.325-12.919-5.325-20.69c0-18.935,11.771-34.288,26.287-34.288C104.399,44.31,116.168,59.661,116.168,78.598z"/>
<ellipse fill="#FF0000" cx="81.833" cy="87.5" rx="2.667" ry="2.333"/>
<ellipse fill="#FF0000" cx="97.167" cy="87.5" rx="2.667" ry="2.333"/>
</svg>
