<?xml version="1.0" encoding="utf-8"?>
<!-- Generator: Adobe Illustrator 16.0.0, SVG Export Plug-In . SVG Version: 6.00 Build 0)  -->
<!DOCTYPE svg PUBLIC "-//W3C//DTD SVG 1.1//EN" "http://www.w3.org/Graphics/SVG/1.1/DTD/svg11.dtd">
<svg version="1.1" id="Calque_1" xmlns="http://www.w3.org/2000/svg" xmlns:xlink="http://www.w3.org/1999/xlink" x="0px" y="0px"
	 width="128px" height="128px" viewBox="0 0 128 128" enable-background="new 0 0 128 128" xml:space="preserve">
<g id="Calque_2">
</g>
<g id="Calque_4">
</g>
<g id="Calque_2_1_">
</g>
<g>
	<g>
		<path fill="none" stroke="#FF0000" stroke-width="5" stroke-linecap="round" stroke-linejoin="round" stroke-miterlimit="10" d="
			M51.479,60.391c-7.296,0-13.209-5.917-13.209-13.212l0,0c0-7.296,5.91-13.21,13.209-13.21h19.223c7.3,0,13.224,5.914,13.224,13.21
			l0,0"/>
		<path fill="none" stroke="#FF0000" stroke-width="5" stroke-linecap="round" stroke-linejoin="round" stroke-miterlimit="10" d="
			M51.479,60.391h19.223c7.3,0,13.224,5.91,13.224,13.207l0,0c0,7.296-5.924,13.216-13.224,13.216H51.479
			c-7.296,0-13.209-5.92-13.209-13.216"/>
	</g>
	
		<line fill="none" stroke="#FF0000" stroke-width="5" stroke-linecap="round" stroke-linejoin="round" stroke-miterlimit="10" x1="61.098" y1="33.969" x2="61.098" y2="21.644"/>
	
		<line fill="none" stroke="#FF0000" stroke-width="5" stroke-linecap="round" stroke-linejoin="round" stroke-miterlimit="10" x1="61.098" y1="99.125" x2="61.098" y2="86.813"/>
</g>
<path fill="none" stroke="#FF0000" stroke-width="5" stroke-miterlimit="10" d="M99.088,152.741"/>
<path fill="none" stroke="#FF0000" stroke-width="5" stroke-miterlimit="10" d="M99.088,152.741"/>
<circle fill="none" stroke="#FF0000" stroke-width="5" stroke-linecap="round" stroke-linejoin="round" stroke-miterlimit="10" cx="61.099" cy="60.384" r="58.885"/>
<line fill="none" stroke="#FF0000" stroke-width="5" stroke-linecap="round" stroke-linejoin="round" stroke-miterlimit="10" x1="103.769" y1="100.964" x2="120.848" y2="118.044"/>
</svg>
