<?xml version="1.0" encoding="utf-8"?>
<!-- Generator: Adobe Illustrator 16.0.0, SVG Export Plug-In . SVG Version: 6.00 Build 0)  -->
<!DOCTYPE svg PUBLIC "-//W3C//DTD SVG 1.1//EN" "http://www.w3.org/Graphics/SVG/1.1/DTD/svg11.dtd">
<svg version="1.1" id="Calque_1" xmlns="http://www.w3.org/2000/svg" xmlns:xlink="http://www.w3.org/1999/xlink" x="0px" y="0px"
	 width="128px" height="128px" viewBox="0 0 128 128" enable-background="new 0 0 128 128" xml:space="preserve">
<g id="Calque_1_2_" display="none">
	<g id="Calque_1_1_" display="inline">
	</g>
	<g id="Calque_3_1_" display="inline">
		<path fill="#FF0000" d="M118.268,70.604c-0.05,0.053-0.104,0.101-0.154,0.149c-0.26,2.604-0.696,5.161-1.316,7.647
			c-5.934,4.563-13.438,8.088-22.441,10.533c0.988-2.654,1.809-5.382,2.479-8.146l-7.004,7.005
			c-0.314,0.827-0.643,1.648-0.987,2.462c-0.604,0.128-1.221,0.241-1.835,0.36l-5.604,5.604c1.693-0.234,3.361-0.494,4.984-0.787
			c-3.111,5.881-7.033,11.194-11.529,15.606c-1.385,3.317-3.409,6.385-6.021,8.994c-1.465,1.465-3.065,2.739-4.772,3.829
			c0.214,0.003,0.425,0.018,0.641,0.019c0.002,0,0.004,0,0.007,0c0.002,0,0.004,0,0.008,0c32.143-0.103,58.293-26.334,58.293-58.478
			c0-0.36-0.015-0.719-0.021-1.08C121.736,66.585,120.169,68.703,118.268,70.604z M73.336,118.536
			c7.75-6.121,14.288-14.62,18.791-24.288c8.614-2.02,16.078-4.922,22.331-8.688C107.52,102.666,92.036,115.441,73.336,118.536z"/>
		<path fill="#FF0000" d="M18.132,99.052c-2.806-3.899-5.144-8.159-6.916-12.7c2.98,1.644,6.035,3.116,9.17,4.443
			c0.659-1.507,1.458-2.962,2.372-4.361c-4.782-1.994-9.364-4.354-13.782-7.117c-0.908-3.661-1.463-7.461-1.629-11.357H28.37
			c0.14,3.619,0.587,7.299,1.32,10.975c1.424-1.099,2.933-2.056,4.511-2.869c-0.464-2.717-0.77-5.431-0.881-8.104h19.018
			l4.944-4.945H33.318c0.353-8.607,2.522-17.273,6.086-25.249c6.97-1.45,14.63-2.362,22.88-2.728V58.01l4.944-4.944V35.014
			c1.604,0.1,4.086,0.299,7.182,0.674c0.859-1.619,1.876-3.161,3.031-4.61c-4.564-0.63-8.15-0.907-10.213-1.024V9.812
			c5.972,3.932,11.422,9.357,15.947,15.765c1.338-0.979,2.744-1.835,4.208-2.573c-3.896-5.565-8.444-10.464-13.431-14.409
			c9.588,1.581,18.384,5.542,25.771,11.247c0.379-0.015,0.758-0.028,1.139-0.028c2.5,0,5.003,0.329,7.428,0.947
			C97.048,9.757,81.691,2.935,64.773,2.875c-0.006,0-0.012-0.001-0.018-0.001c-0.004,0-0.007,0.001-0.011,0.001
			c-28.32,0.09-52.278,19.134-59.879,45.054c-0.043,0.117-0.075,0.235-0.102,0.356c-1.569,5.471-2.427,11.237-2.427,17.199
			c0,15.955,6.024,30.545,15.909,41.621C17.846,104.416,17.804,101.71,18.132,99.052z M62.285,30.086
			c-7.17,0.305-13.876,0.988-20.083,2.065c5.068-9.156,12.012-17.035,20.083-22.338V30.086z M55.553,8.594
			c-7.998,6.333-14.749,15.018-19.526,24.805c-9.207,2.1-17.205,5.142-23.946,9.114C19.779,24.889,36.033,11.812,55.553,8.594z
			 M9.34,50.274c6.34-4.789,14.48-8.513,24.156-11.102c-3.003,7.646-4.819,15.771-5.128,23.84H7.347
			C7.534,58.623,8.219,54.36,9.34,50.274z"/>
	</g>
	<g id="Calque_2_1_" display="inline">
		<g id="Calque_3">
			<path fill="none" stroke="#FF0000" stroke-width="5" stroke-linecap="round" stroke-linejoin="round" stroke-miterlimit="10" d="
				M65.24,99.453l32.32-32.322c5.77,1.516,12.166,0.014,16.688-4.508c5.204-5.206,6.412-12.895,3.618-19.25l-10.556,10.553
				c-1.479,1.48-3.899,1.48-5.383,0l-3.222-3.222c-1.479-1.48-1.479-3.903,0-5.383l10.665-10.664
				c-6.434-3.034-14.35-1.891-19.666,3.425c-4.521,4.523-6.021,10.92-4.51,16.69L52.88,87.091
				c-5.769-1.512-12.167-0.014-16.689,4.513c-5.206,5.205-6.413,12.895-3.618,19.248l10.552-10.554c1.48-1.479,3.903-1.479,5.383,0
				l3.222,3.224c1.479,1.479,1.479,3.899,0,5.381l-10.665,10.666c6.433,3.031,14.346,1.893,19.665-3.426
				C65.255,111.619,66.753,105.223,65.24,99.453z"/>
		</g>
	</g>
</g>
<circle fill="none" stroke="#FF0000" stroke-width="5" stroke-linecap="round" stroke-linejoin="round" stroke-miterlimit="10" cx="30.667" cy="31.333" r="16.167"/>
<circle fill="none" stroke="#FF0000" stroke-width="5" stroke-linecap="round" stroke-linejoin="round" stroke-miterlimit="10" cx="30.667" cy="102.988" r="16.167"/>
<circle fill="none" stroke="#FF0000" stroke-width="5" stroke-linecap="round" stroke-linejoin="round" stroke-miterlimit="10" cx="98.221" cy="66.642" r="16.167"/>
<line fill="none" stroke="#FF0000" stroke-width="5" stroke-linecap="round" stroke-linejoin="round" stroke-miterlimit="10" x1="46.833" y1="31.333" x2="114.388" y2="31.333"/>
<line fill="none" stroke="#FF0000" stroke-width="5" stroke-linecap="round" stroke-linejoin="round" stroke-miterlimit="10" x1="13.056" y1="66.643" x2="80.61" y2="66.643"/>
<line fill="none" stroke="#FF0000" stroke-width="5" stroke-linecap="round" stroke-linejoin="round" stroke-miterlimit="10" x1="48.699" y1="102.989" x2="116.254" y2="102.989"/>
</svg>
