<?xml version="1.0" encoding="utf-8"?>
<!-- Generator: Adobe Illustrator 16.0.0, SVG Export Plug-In . SVG Version: 6.00 Build 0)  -->
<!DOCTYPE svg PUBLIC "-//W3C//DTD SVG 1.1//EN" "http://www.w3.org/Graphics/SVG/1.1/DTD/svg11.dtd">
<svg version="1.1" id="Calque_1" xmlns="http://www.w3.org/2000/svg" xmlns:xlink="http://www.w3.org/1999/xlink" x="0px" y="0px"
	 width="128px" height="128px" viewBox="0 0 128 128" enable-background="new 0 0 128 128" xml:space="preserve">
<g id="Calque_1_1_" display="none">
</g>
<path fill="none" stroke="#FF0000" stroke-width="5" stroke-miterlimit="10" d="M118.591,109.914c0,4.943-4.009,8.952-8.952,8.952
	H18.417c-4.944,0-8.952-4.009-8.952-8.952V18.692c0-4.944,4.008-8.952,8.952-8.952h91.222c4.943,0,8.952,4.008,8.952,8.952V109.914z
	"/>
<g id="Calque_4">
	<g>
		<path fill="#FF0000" d="M67.045,80.418H54.09c-0.034-1.861-0.05-2.997-0.05-3.402c0-4.201,0.694-7.656,2.082-10.365
			c1.388-2.708,4.167-5.757,8.332-9.146c4.167-3.386,6.657-5.605,7.471-6.656c1.251-1.658,1.88-3.487,1.88-5.487
			c0-2.776-1.111-5.156-3.328-7.138c-2.22-1.981-5.207-2.972-8.968-2.972c-3.626,0-6.656,1.034-9.094,3.1
			c-2.44,2.066-4.116,5.216-5.031,9.45l-13.108-1.625c0.373-6.063,2.955-11.211,7.749-15.445c4.792-4.234,11.083-6.351,18.875-6.351
			c8.198,0,14.713,2.143,19.561,6.427c4.844,4.285,7.266,9.272,7.266,14.962c0,3.15-0.891,6.131-2.668,8.941
			c-1.776,2.813-5.578,6.64-11.406,11.482c-3.014,2.509-4.885,4.522-5.612,6.047C67.311,73.764,66.977,76.49,67.045,80.418z
			 M54.09,99.623V85.348h14.277v14.275H54.09z"/>
	</g>
</g>
</svg>
