<?xml version="1.0" encoding="utf-8"?>
<!-- Generator: Adobe Illustrator 16.0.0, SVG Export Plug-In . SVG Version: 6.00 Build 0)  -->
<!DOCTYPE svg PUBLIC "-//W3C//DTD SVG 1.1//EN" "http://www.w3.org/Graphics/SVG/1.1/DTD/svg11.dtd">
<svg version="1.1" id="Calque_1" xmlns="http://www.w3.org/2000/svg" xmlns:xlink="http://www.w3.org/1999/xlink" x="0px" y="0px"
	 width="128px" height="128px" viewBox="0 0 128 128" enable-background="new 0 0 128 128" xml:space="preserve">
<g id="Calque_1_1_">
	<g id="Calque_2" display="none">
	</g>
	<g>
		
			<line fill="none" stroke="#FF0000" stroke-width="5" stroke-linecap="round" stroke-linejoin="round" stroke-miterlimit="10" x1="121.869" y1="16.144" x2="69.527" y2="16.144"/>
		
			<line fill="none" stroke="#FF0000" stroke-width="5" stroke-linecap="round" stroke-linejoin="round" stroke-miterlimit="10" x1="72.852" y1="45.942" x2="66.911" y2="45.942"/>
		
			<line fill="none" stroke="#FF0000" stroke-width="5" stroke-linecap="round" stroke-linejoin="round" stroke-miterlimit="10" x1="121.869" y1="45.942" x2="81.48" y2="45.942"/>
		
			<line fill="none" stroke="#FF0000" stroke-width="5" stroke-linecap="round" stroke-linejoin="round" stroke-miterlimit="10" x1="106.895" y1="75.739" x2="58.585" y2="75.739"/>
		
			<line fill="none" stroke="#FF0000" stroke-width="5" stroke-linecap="round" stroke-linejoin="round" stroke-miterlimit="10" x1="121.869" y1="75.739" x2="114.939" y2="75.739"/>
		
			<line fill="none" stroke="#FF0000" stroke-width="5" stroke-linecap="round" stroke-linejoin="round" stroke-miterlimit="10" x1="77.165" y1="105.537" x2="56.178" y2="105.537"/>
		
			<line fill="none" stroke="#FF0000" stroke-width="5" stroke-linecap="round" stroke-linejoin="round" stroke-miterlimit="10" x1="121.869" y1="105.537" x2="85.436" y2="105.537"/>
		
			<line fill="none" stroke="#FF0000" stroke-width="5" stroke-linecap="round" stroke-linejoin="round" stroke-miterlimit="10" x1="72.85" y1="37.672" x2="72.85" y2="54.211"/>
		
			<line fill="none" stroke="#FF0000" stroke-width="5" stroke-linecap="round" stroke-linejoin="round" stroke-miterlimit="10" x1="114.938" y1="67.471" x2="114.938" y2="84.008"/>
		
			<line fill="none" stroke="#FF0000" stroke-width="5" stroke-linecap="round" stroke-linejoin="round" stroke-miterlimit="10" x1="77.165" y1="97.268" x2="77.165" y2="113.809"/>
	</g>
</g>
<path fill="#FF0000" d="M61.474,30.567c0-16.373-13.269-29.645-29.639-29.645c-16.373,0-29.644,13.273-29.644,29.645
	c0,11.519,6.585,21.481,16.188,26.39v9.833l8.402,8.4l-9.042,9.046l7.6,7.6l-6.917,6.916l7.439,7.438l-7.656,7.654l13.232,13.231
	l14.044-14.046V56.875h-0.03C54.966,51.941,61.474,42.023,61.474,30.567z M31.833,30.787c-5.275,0-9.553-4.277-9.553-9.553
	c0-5.275,4.277-9.553,9.553-9.553c5.276,0,9.554,4.277,9.554,9.553C41.387,26.51,37.109,30.787,31.833,30.787z"/>
</svg>
