<?xml version="1.0" encoding="utf-8"?>
<!-- Generator: Adobe Illustrator 16.0.0, SVG Export Plug-In . SVG Version: 6.00 Build 0)  -->
<!DOCTYPE svg PUBLIC "-//W3C//DTD SVG 1.1//EN" "http://www.w3.org/Graphics/SVG/1.1/DTD/svg11.dtd">
<svg version="1.1" id="Calque_1" xmlns="http://www.w3.org/2000/svg" xmlns:xlink="http://www.w3.org/1999/xlink" x="0px" y="0px"
	 width="128px" height="128px" viewBox="0 0 128 128" enable-background="new 0 0 128 128" xml:space="preserve">
<g id="Calque_2" display="none">
</g>
<g id="Calque_2_1_" display="none">
</g>
<polyline fill="none" stroke="#FF0000" stroke-width="5" stroke-linecap="round" stroke-linejoin="round" stroke-miterlimit="10" points="
	20.58,37.939 32.843,56.793 56.662,25.562 "/>
<path fill="none" stroke="#FF0000" stroke-width="5" stroke-linecap="round" stroke-linejoin="round" stroke-miterlimit="10" d="
	M114.039,57.391H67.938c3.2-5.176,5.052-11.274,5.052-17.81c0-18.739-15.188-33.93-33.928-33.93
	c-18.737,0-33.928,15.191-33.928,33.93c0,18.738,15.191,33.929,33.928,33.929c4.344,0,8.492-0.825,12.309-2.313v48.866
	c0,1.032,0.839,1.873,1.875,1.873h60.793c1.035,0,1.876-0.841,1.876-1.873V59.268C115.915,58.231,115.074,57.391,114.039,57.391z"/>
<line fill="none" stroke="#FF0000" stroke-width="5" stroke-linecap="round" stroke-linejoin="round" x1="69.81" y1="73.51" x2="98.396" y2="105.559"/>
<line fill="none" stroke="#FF0000" stroke-width="5" stroke-linecap="round" stroke-linejoin="round" x1="98.396" y1="73.51" x2="69.81" y2="105.559"/>
</svg>
