<?xml version="1.0" encoding="utf-8"?>
<!-- Generator: Adobe Illustrator 16.0.0, SVG Export Plug-In . SVG Version: 6.00 Build 0)  -->
<!DOCTYPE svg PUBLIC "-//W3C//DTD SVG 1.1//EN" "http://www.w3.org/Graphics/SVG/1.1/DTD/svg11.dtd">
<svg version="1.1" id="Calque_2_1_" xmlns="http://www.w3.org/2000/svg" xmlns:xlink="http://www.w3.org/1999/xlink" x="0px"
	 y="0px" width="128px" height="128px" viewBox="0 0 128 128" enable-background="new 0 0 128 128" xml:space="preserve">
<path fill="none" stroke="#FF0000" stroke-width="5" stroke-linecap="round" stroke-linejoin="round" stroke-miterlimit="10" d="
	M107.501,85.102l-0.002-42.199c5.912-3.452,9.884-9.862,9.884-17.203c0-8.447-5.259-15.667-12.682-18.557l-0.003,17.127
	c0.003,2.402-1.964,4.367-4.366,4.367h-5.226c-2.405,0-4.37-1.965-4.37-4.369V6.96c-7.682,2.761-13.181,10.11-13.179,18.739
	c0.002,7.341,3.974,13.749,9.885,17.202L87.44,85.098c-5.908,3.458-9.883,9.864-9.881,17.205
	c-0.002,8.447,5.259,15.666,12.683,18.556v-17.127c0-2.404,1.966-4.37,4.367-4.368l5.229,0.003c2.398-0.003,4.366,1.963,4.364,4.365
	v17.308c7.683-2.76,13.18-10.107,13.18-18.736C117.383,94.961,113.411,88.552,107.501,85.102z"/>
<g>
	<polygon fill="#FF0000" points="21.708,16.146 51.714,16.146 46.021,34.517 27.713,34.517 	"/>
	<polygon fill="#FF0000" points="36.574,123.186 55.762,107.02 42.483,34.517 31.406,34.517 18.243,107.02 	"/>
</g>
</svg>
