<?xml version="1.0" encoding="utf-8"?>
<!-- Generator: Adobe Illustrator 16.0.0, SVG Export Plug-In . SVG Version: 6.00 Build 0)  -->
<!DOCTYPE svg PUBLIC "-//W3C//DTD SVG 1.1//EN" "http://www.w3.org/Graphics/SVG/1.1/DTD/svg11.dtd">
<svg version="1.1" id="Calque_1" xmlns:serif="http://www.serif.com/"
	 xmlns="http://www.w3.org/2000/svg" xmlns:xlink="http://www.w3.org/1999/xlink" x="0px" y="0px" width="128px" height="128px"
	 viewBox="0 0 128 128" enable-background="new 0 0 128 128" xml:space="preserve">
<path fill="none" stroke="#FF0000" stroke-width="5" stroke-linecap="round" stroke-linejoin="round" stroke-miterlimit="10" d="
	M75.895,52.223c20.312,0,36.835,16.523,36.835,36.835c-0.002,20.307-16.523,36.832-36.835,36.832
	c-20.31,0-36.834-16.525-36.834-36.832c0-4.939,0.977-9.654,2.748-13.962"/>
<path fill="none" stroke="#FF0000" stroke-width="5" stroke-linecap="round" stroke-linejoin="round" stroke-miterlimit="10" d="
	M75.895,66.383c12.499,0,22.669,10.171,22.669,22.671c-0.001,12.503-10.17,22.67-22.669,22.67s-22.67-10.171-22.67-22.67
	c0-4.688,1.431-9.048,3.877-12.667"/>
<circle fill="#FF0000" cx="75.895" cy="89.058" r="7.221"/>
<path fill="none" stroke="#FF0000" stroke-width="5.1104" stroke-linecap="round" stroke-linejoin="round" stroke-miterlimit="10" d="
	M75.895,89.058l44.279-44.284"/>
<polygon fill="#FF0000" points="116.569,48.38 116.48,38.507 103.544,51.444 103.634,61.316 113.508,61.406 126.443,48.471 "/>
<path fill="#FF0000" d="M66.25,1H4C2.343,1,1,2.343,1,4v62.25c0,1.656,1.343,3,3,3h62.25c1.656,0,3-1.344,3-3V4
	C69.25,2.343,67.906,1,66.25,1z M16.229,54.572c-2.768,0-5.01-2.242-5.01-5.01c0-2.77,2.243-5.012,5.01-5.012
	s5.011,2.242,5.011,5.012C21.239,52.33,18.996,54.572,16.229,54.572z M16.229,39.334c-2.768,0-5.01-2.242-5.01-5.01
	s2.243-5.011,5.01-5.011s5.011,2.243,5.011,5.011C21.239,37.09,18.996,39.334,16.229,39.334z M16.229,24.097
	c-2.768,0-5.01-2.244-5.01-5.01c0-2.768,2.243-5.012,5.01-5.012s5.011,2.244,5.011,5.012C21.239,21.853,18.996,24.097,16.229,24.097
	z M54.855,53.721H31.129c-2.305,0-4.174-1.871-4.174-4.178c0-2.305,1.869-4.176,4.174-4.176h23.727c2.307,0,4.176,1.871,4.176,4.176
	C59.031,51.85,57.162,53.721,54.855,53.721z M54.855,38.482H31.129c-2.305,0-4.174-1.869-4.174-4.176
	c0-2.305,1.869-4.175,4.174-4.175h23.727c2.307,0,4.176,1.87,4.176,4.175C59.031,36.613,57.162,38.482,54.855,38.482z
	 M54.855,23.244H31.129c-2.305,0-4.174-1.869-4.174-4.175c0-2.306,1.869-4.175,4.174-4.175h23.727c2.307,0,4.176,1.869,4.176,4.175
	C59.031,21.375,57.162,23.244,54.855,23.244z"/>
</svg>
