<?xml version="1.0" encoding="utf-8"?>
<!-- Generator: Adobe Illustrator 16.0.0, SVG Export Plug-In . SVG Version: 6.00 Build 0)  -->
<!DOCTYPE svg PUBLIC "-//W3C//DTD SVG 1.1//EN" "http://www.w3.org/Graphics/SVG/1.1/DTD/svg11.dtd">
<svg version="1.1" id="Calque_1" xmlns="http://www.w3.org/2000/svg" xmlns:xlink="http://www.w3.org/1999/xlink" x="0px" y="0px"
	 width="128px" height="128px" viewBox="0 0 128 128" enable-background="new 0 0 128 128" xml:space="preserve">
<path fill="none" stroke="#FF0000" stroke-width="5" stroke-miterlimit="10" d="M75.78,39.843h42.821
	c3.687,0,6.676,2.99,6.676,6.678v68.943h0.002c0,3.689-2.992,6.678-6.68,6.678H12.066c-3.688,0-6.677-2.99-6.677-6.678V72.451"/>
<g>
	<path fill="none" stroke="#FF0000" stroke-width="5" stroke-miterlimit="10" d="M94.412,110.261
		c2.171,1.521,4.813,2.417,7.666,2.417c7.395,0,13.387-5.992,13.387-13.384c0-7.393-5.992-13.385-13.387-13.385
		c-2.854,0-5.495,0.896-7.666,2.418"/>
	<path fill="#FF0000" stroke="#FF0000" stroke-width="5" stroke-miterlimit="10" d="M88.693,99.294c0-4.538,2.26-8.547,5.716-10.965
		c-2.171-1.522-4.813-2.418-7.669-2.418c-7.393,0-13.385,5.99-13.385,13.383c0,7.392,5.992,13.384,13.385,13.384
		c2.854,0,5.498-0.896,7.669-2.415C90.955,107.84,88.693,103.831,88.693,99.294z"/>
	<path fill="none" stroke="#FF0000" stroke-width="5" stroke-miterlimit="10" d="M94.412,88.329
		c-3.457,2.418-5.719,6.427-5.719,10.965c0,4.537,2.262,8.546,5.719,10.969"/>
</g>
<polyline fill="#FF0000" stroke="#FF0000" stroke-width="5" stroke-miterlimit="10" points="75.559,54.016 125.275,54.016 
	125.275,65.781 75.336,65.781 "/>
<path fill="#FF0000" d="M66.249,1H4C2.343,1,1,2.344,1,4v62.25c0,1.657,1.343,3,3,3h62.249c1.658,0,3-1.343,3-3V4
	C69.249,2.344,67.907,1,66.249,1z M16.229,54.572c-2.768,0-5.012-2.242-5.012-5.01s2.244-5.01,5.012-5.01
	c2.766,0,5.01,2.242,5.01,5.01S18.995,54.572,16.229,54.572z M16.229,39.335c-2.768,0-5.012-2.243-5.012-5.01
	c0-2.768,2.244-5.011,5.012-5.011c2.766,0,5.01,2.243,5.01,5.011C21.239,37.092,18.995,39.335,16.229,39.335z M16.229,24.098
	c-2.768,0-5.012-2.244-5.012-5.01c0-2.768,2.244-5.012,5.012-5.012c2.766,0,5.01,2.244,5.01,5.012
	C21.239,21.854,18.995,24.098,16.229,24.098z M54.856,53.721H31.128c-2.305,0-4.174-1.87-4.174-4.176s1.869-4.176,4.174-4.176
	h23.729c2.305,0,4.174,1.87,4.174,4.176S57.161,53.721,54.856,53.721z M54.856,38.482H31.128c-2.305,0-4.174-1.869-4.174-4.176
	c0-2.305,1.869-4.175,4.174-4.175h23.729c2.305,0,4.174,1.87,4.174,4.175C59.03,36.613,57.161,38.482,54.856,38.482z M54.856,23.244
	H31.128c-2.305,0-4.174-1.869-4.174-4.175s1.869-4.175,4.174-4.175h23.729c2.305,0,4.174,1.869,4.174,4.175
	S57.161,23.244,54.856,23.244z"/>
</svg>
