<?xml version="1.0" encoding="utf-8"?>
<!-- Generator: Adobe Illustrator 16.0.0, SVG Export Plug-In . SVG Version: 6.00 Build 0)  -->
<!DOCTYPE svg PUBLIC "-//W3C//DTD SVG 1.1//EN" "http://www.w3.org/Graphics/SVG/1.1/DTD/svg11.dtd">
<svg version="1.1" id="Calque_4" xmlns="http://www.w3.org/2000/svg" xmlns:xlink="http://www.w3.org/1999/xlink" x="0px" y="0px"
	 width="128px" height="128px" viewBox="0 0 128 128" enable-background="new 0 0 128 128" xml:space="preserve">
<g>
	<path fill="#FF0000" d="M55.176,80.469c0,1.478-0.259,2.921-0.775,4.33c-0.517,1.411-1.255,2.596-2.215,3.556
		c-1.314,1.299-2.78,2.281-4.396,2.945c-1.617,0.665-3.629,0.997-6.036,0.997h-5.294v10.742h-8.505V70.06h13.998
		c2.097,0,3.865,0.181,5.305,0.542c1.44,0.362,2.713,0.905,3.821,1.628c1.329,0.872,2.344,1.986,3.045,3.345
		C54.825,76.933,55.176,78.564,55.176,80.469z M46.382,80.658c0-0.928-0.251-1.727-0.753-2.397c-0.502-0.67-1.085-1.138-1.75-1.403
		c-0.886-0.354-1.75-0.549-2.591-0.586c-0.842-0.036-1.964-0.055-3.367-0.055h-1.462v9.856h2.437c1.447,0,2.639-0.089,3.577-0.266
		c0.938-0.177,1.724-0.53,2.359-1.061c0.546-0.472,0.941-1.035,1.185-1.69S46.382,81.602,46.382,80.658z"/>
	<path fill="#FF0000" d="M91.003,86.582c0,3.071-0.701,5.822-2.104,8.251c-1.402,2.429-3.175,4.293-5.315,5.593
		c-1.609,0.975-3.374,1.653-5.294,2.037c-1.919,0.385-4.193,0.576-6.821,0.576H59.839V70.06H71.8c2.688,0,5.006,0.225,6.955,0.675
		c1.948,0.451,3.588,1.09,4.917,1.916c2.273,1.389,4.064,3.26,5.371,5.615S91.003,83.393,91.003,86.582z M82.21,86.516
		c0-2.17-0.396-4.027-1.186-5.57s-2.041-2.75-3.754-3.621c-0.871-0.429-1.761-0.72-2.669-0.875s-2.278-0.232-4.108-0.232h-2.148
		v20.643h2.148c2.022,0,3.507-0.092,4.452-0.276c0.944-0.185,1.867-0.521,2.769-1.008c1.55-0.887,2.687-2.071,3.41-3.556
		C81.848,90.536,82.21,88.701,82.21,86.516z"/>
	<path fill="#FF0000" d="M119.766,76.438h-15.173v6.135h14.065v6.379h-14.065v14.087h-8.461V70.06h23.634V76.438z"/>
</g>
<g>
	<path fill="none" stroke="#FF0000" stroke-width="5" stroke-miterlimit="10" d="M90.23,64.323V11.391
		c0-2.908-2.354-5.261-5.262-5.261H11.975c-2.908,0-5.261,2.353-5.261,5.261v105.218c0,2.908,2.353,5.261,5.261,5.261h72.994
		c2.908,0,5.262-2.353,5.262-5.261v-6.026"/>
</g>
</svg>
