<?xml version="1.0" encoding="utf-8"?>
<!-- Generator: Adobe Illustrator 16.0.0, SVG Export Plug-In . SVG Version: 6.00 Build 0)  -->
<!DOCTYPE svg PUBLIC "-//W3C//DTD SVG 1.1//EN" "http://www.w3.org/Graphics/SVG/1.1/DTD/svg11.dtd">
<svg version="1.1" id="Calque_2" xmlns="http://www.w3.org/2000/svg" xmlns:xlink="http://www.w3.org/1999/xlink" x="0px" y="0px"
	 width="128px" height="128px" viewBox="0 0 128 128" enable-background="new 0 0 128 128" xml:space="preserve">
<g>
	<path fill="none" stroke="#FF0000" stroke-width="5" stroke-miterlimit="10" d="M57.868,73.509v48.434
		c0,2.124,1.721,3.844,3.844,3.844h59.563c2.124,0,3.844-1.72,3.844-3.844v-71.26h-15.642c-2.123,0-3.844-1.721-3.844-3.844V32.028
		H74.147"/>
</g>
<line fill="none" stroke="#FF0000" stroke-width="5" stroke-linecap="round" stroke-linejoin="round" stroke-miterlimit="10" x1="106.919" y1="32.028" x2="125.119" y2="49.702"/>
<g>
	<path fill="#FF0000" d="M100.433,66.519c-0.951-1.628-2.304-2.918-4.057-3.87c-1.753-0.951-3.758-1.428-6.011-1.428
		c-3.707,0-6.649,1.115-8.828,3.344c-2.179,2.229-3.27,5.123-3.27,8.679c0,0.852-0.263,1.54-0.789,2.066
		c-0.525,0.526-1.215,0.789-2.066,0.789s-1.553-0.263-2.103-0.789c-0.553-0.525-0.826-1.215-0.826-2.066
		c0-3.407,0.75-6.436,2.254-9.092c1.503-2.655,3.606-4.735,6.311-6.237c2.706-1.503,5.812-2.254,9.318-2.254
		c3.306,0,6.274,0.714,8.903,2.142c2.63,1.428,4.684,3.394,6.163,5.899c1.477,2.505,2.217,5.334,2.217,8.491
		c0,2.454-0.402,4.596-1.202,6.425c-0.802,1.828-1.817,3.443-3.044,4.846c-1.229,1.403-2.967,3.131-5.222,5.184l-1.354,1.203
		c-1.402,1.253-2.392,2.717-2.967,4.396c-0.577,1.678-0.864,3.343-0.864,4.996c0,0.851-0.276,1.565-0.827,2.141
		c-0.551,0.577-1.252,0.864-2.104,0.864s-1.553-0.287-2.104-0.864c-0.553-0.575-0.827-1.29-0.827-2.141
		c0-2.054,0.501-4.232,1.504-6.538c1.001-2.303,2.354-4.257,4.058-5.86l1.879-1.729c1.702-1.604,3.029-2.942,3.982-4.021
		c0.951-1.076,1.74-2.378,2.367-3.906c0.625-1.527,0.939-3.293,0.939-5.297C101.861,69.937,101.385,68.146,100.433,66.519z
		 M93.184,108.032c0.876,0.853,1.314,1.906,1.314,3.157c0,1.201-0.438,2.229-1.314,3.081c-0.877,0.852-1.916,1.276-3.118,1.276
		c-1.253,0-2.292-0.425-3.119-1.276c-0.825-0.853-1.239-1.879-1.239-3.081c0-1.252,0.425-2.305,1.277-3.157
		c0.851-0.849,1.878-1.275,3.081-1.275C91.268,106.757,92.307,107.183,93.184,108.032z"/>
</g>
<path fill="#FF0000" d="M66.25,1H4C2.343,1,1,2.343,1,4v62.25c0,1.656,1.343,3,3,3h62.25c1.656,0,3-1.344,3-3V4
	C69.25,2.343,67.906,1,66.25,1z M16.229,54.572c-2.768,0-5.011-2.241-5.011-5.01s2.243-5.011,5.011-5.011
	c2.767,0,5.01,2.242,5.01,5.011S18.996,54.572,16.229,54.572z M16.229,39.334c-2.768,0-5.011-2.242-5.011-5.01
	s2.243-5.011,5.011-5.011c2.767,0,5.01,2.243,5.01,5.011C21.239,37.09,18.996,39.334,16.229,39.334z M16.229,24.097
	c-2.768,0-5.011-2.244-5.011-5.01c0-2.768,2.243-5.012,5.011-5.012c2.767,0,5.01,2.244,5.01,5.012
	C21.239,21.853,18.996,24.097,16.229,24.097z M54.856,53.72H31.129c-2.305,0-4.174-1.87-4.174-4.177
	c0-2.306,1.869-4.176,4.174-4.176h23.727c2.307,0,4.176,1.87,4.176,4.176C59.032,51.85,57.163,53.72,54.856,53.72z M54.856,38.482
	H31.129c-2.305,0-4.174-1.869-4.174-4.176c0-2.305,1.869-4.175,4.174-4.175h23.727c2.307,0,4.176,1.87,4.176,4.175
	C59.032,36.613,57.163,38.482,54.856,38.482z M54.856,23.244H31.129c-2.305,0-4.174-1.869-4.174-4.175
	c0-2.306,1.869-4.175,4.174-4.175h23.727c2.307,0,4.176,1.869,4.176,4.175C59.032,21.375,57.163,23.244,54.856,23.244z"/>
</svg>
