<?xml version="1.0" encoding="utf-8"?>
<!-- Generator: Adobe Illustrator 16.0.0, SVG Export Plug-In . SVG Version: 6.00 Build 0)  -->
<!DOCTYPE svg PUBLIC "-//W3C//DTD SVG 1.1//EN" "http://www.w3.org/Graphics/SVG/1.1/DTD/svg11.dtd">
<svg version="1.1"
	 id="Livello_1" xmlns:svg="http://www.w3.org/2000/svg" xmlns:sodipodi="http://sodipodi.sourceforge.net/DTD/sodipodi-0.dtd" xmlns:rdf="http://www.w3.org/1999/02/22-rdf-syntax-ns#" xmlns:inkscape="http://www.inkscape.org/namespaces/inkscape" xmlns:dc="http://purl.org/dc/elements/1.1/" xmlns:cc="http://creativecommons.org/ns#" inkscape:version="1.0 (4035a4fb49, 2020-05-01)" sodipodi:docname="iconHome.svg"
	 xmlns="http://www.w3.org/2000/svg" xmlns:xlink="http://www.w3.org/1999/xlink" x="0px" y="0px" width="128px" height="128px"
	 viewBox="0 0 128 128" enable-background="new 0 0 128 128" xml:space="preserve">
<sodipodi:namedview  id="namedview7" inkscape:zoom="2.8710938" bordercolor="#666666" guidetolerance="10" objecttolerance="10" borderopacity="1" showgrid="false" inkscape:cx="7.8240306" pagecolor="#ffffff" inkscape:cy="41.675131" gridtolerance="10" inkscape:pageopacity="0" inkscape:window-y="0" inkscape:window-x="0" inkscape:pageshadow="2" inkscape:window-width="1519" inkscape:current-layer="Livello_1" inkscape:window-height="845" inkscape:window-maximized="0">
	</sodipodi:namedview>
<title  id="title2"></title>
<path fill="none" stroke="#FF0000" stroke-width="5" stroke-linecap="round" stroke-linejoin="round" stroke-miterlimit="10" d="
	M50.404,95.251l44.557-44.559c7.953,2.088,16.773,0.019,23.008-6.216c7.175-7.176,8.84-17.776,4.988-26.536l-14.549,14.547
	c-2.039,2.041-5.378,2.041-7.42,0l-4.438-4.441c-2.043-2.041-2.043-5.38,0-7.421l14.701-14.701
	c-8.869-4.182-19.782-2.609-27.111,4.723c-6.234,6.236-8.302,15.053-6.216,23.008L33.368,78.209
	c-7.955-2.082-16.775-0.016-23.008,6.222c-7.177,7.173-8.841,17.775-4.988,26.535L19.92,96.417c2.041-2.042,5.38-2.042,7.42,0
	l4.44,4.444c2.041,2.036,2.041,5.377,0,7.415l-14.702,14.703c8.869,4.181,19.779,2.609,27.11-4.722
	C50.423,112.021,52.491,103.204,50.404,95.251z"/>
</svg>
