<?xml version="1.0" encoding="utf-8"?>
<!-- Generator: Adobe Illustrator 16.0.0, SVG Export Plug-In . SVG Version: 6.00 Build 0)  -->
<!DOCTYPE svg PUBLIC "-//W3C//DTD SVG 1.1//EN" "http://www.w3.org/Graphics/SVG/1.1/DTD/svg11.dtd">
<svg version="1.1" id="Calque_1" xmlns="http://www.w3.org/2000/svg" xmlns:xlink="http://www.w3.org/1999/xlink" x="0px" y="0px"
	 width="128px" height="128px" viewBox="0 0 128 128" enable-background="new 0 0 128 128" xml:space="preserve">
<g id="Calque_2" display="none">
</g>
<g>
	<path fill="none" stroke="#FF0000" stroke-width="5" stroke-linecap="round" stroke-linejoin="round" stroke-miterlimit="10" d="
		M61.982,77.381C72.459,87.507,85.056,95.102,98.78,99.687c0.888-2.604,2.665-7.813,2.665-7.813l21.325,21.984l-32.058,9.476
		c0,0,1.777-5.211,2.666-7.813c-16.976-4.226-33.586-15.316-46.276-28.795"/>
	<path fill="none" stroke="#FF0000" stroke-width="5" stroke-linecap="round" stroke-linejoin="round" stroke-miterlimit="10" d="
		M61.982,77.381C72.459,67.148,85.056,59.475,98.78,54.842c0.888,2.631,2.665,7.896,2.665,7.896l21.325-22.217l-32.058-9.575
		c0,0,1.777,5.263,2.666,7.896C76.403,43.111,62.608,51.379,49.917,65"/>
</g>
<path fill="#FF0000" d="M66.25,1H4C2.343,1,1,2.343,1,4v62.25c0,1.656,1.343,3,3,3h62.25c1.656,0,3-1.344,3-3V4
	C69.25,2.343,67.906,1,66.25,1z M16.229,54.572c-2.768,0-5.011-2.242-5.011-5.01c0-2.77,2.243-5.012,5.011-5.012
	c2.767,0,5.01,2.242,5.01,5.012C21.239,52.33,18.996,54.572,16.229,54.572z M16.229,39.334c-2.768,0-5.011-2.242-5.011-5.01
	s2.243-5.011,5.011-5.011c2.767,0,5.01,2.243,5.01,5.011C21.239,37.09,18.996,39.334,16.229,39.334z M16.229,24.097
	c-2.768,0-5.011-2.244-5.011-5.01c0-2.768,2.243-5.012,5.011-5.012c2.767,0,5.01,2.244,5.01,5.012
	C21.239,21.853,18.996,24.097,16.229,24.097z M54.855,53.721H31.129c-2.305,0-4.174-1.871-4.174-4.178
	c0-2.305,1.869-4.176,4.174-4.176h23.726c2.307,0,4.176,1.871,4.176,4.176C59.031,51.85,57.162,53.721,54.855,53.721z
	 M54.855,38.482H31.129c-2.305,0-4.174-1.869-4.174-4.176c0-2.305,1.869-4.175,4.174-4.175h23.726c2.307,0,4.176,1.87,4.176,4.175
	C59.031,36.613,57.162,38.482,54.855,38.482z M54.855,23.244H31.129c-2.305,0-4.174-1.869-4.174-4.175
	c0-2.306,1.869-4.175,4.174-4.175h23.726c2.307,0,4.176,1.869,4.176,4.175C59.031,21.375,57.162,23.244,54.855,23.244z"/>
</svg>
