<?xml version="1.0" encoding="utf-8"?>
<!-- Generator: Adobe Illustrator 16.0.0, SVG Export Plug-In . SVG Version: 6.00 Build 0)  -->
<!DOCTYPE svg PUBLIC "-//W3C//DTD SVG 1.1//EN" "http://www.w3.org/Graphics/SVG/1.1/DTD/svg11.dtd">
<svg version="1.1" id="Calque_1" xmlns="http://www.w3.org/2000/svg" xmlns:xlink="http://www.w3.org/1999/xlink" x="0px" y="0px"
	 width="128px" height="128px" viewBox="0 0 128 128" enable-background="new 0 0 128 128" xml:space="preserve">
<g id="Calque_1_3_" display="none">
	<g id="Calque_1_2_" display="inline">
		<g id="Calque_1_1_" display="none">
		</g>
		<line fill="none" stroke="#FF0000" stroke-width="11" stroke-miterlimit="10" x1="5.1" y1="26.094" x2="58.226" y2="26.094"/>
		<line fill="none" stroke="#FF0000" stroke-width="11" stroke-miterlimit="10" x1="58.226" y1="37.728" x2="86.372" y2="37.728"/>
		<line fill="none" stroke="#FF0000" stroke-width="11" stroke-miterlimit="10" x1="14.017" y1="68.512" x2="41.788" y2="68.512"/>
		<line fill="none" stroke="#FF0000" stroke-width="11" stroke-miterlimit="10" x1="41.788" y1="81.646" x2="49.415" y2="81.646"/>
		<path fill="none" stroke="#FF0000" stroke-width="5" stroke-miterlimit="10" d="M45.971,111.907H11.022
			c-3.316,0-6.004-2.915-6.004-6.509V15.383c0-3.594,2.688-6.507,6.004-6.507h107.083c3.316,0,6.006,2.914,6.006,6.507v41.316"/>
	</g>
</g>
<path id="path29_1_" fill="none" stroke="#FF0000" stroke-width="5" stroke-miterlimit="10" d="M53.5,124.288H14.354
	c-5.954,0-10.781-4.826-10.781-10.781V14.983c0-5.955,4.827-10.781,10.781-10.781h98.525c5.953,0,10.781,4.827,10.781,10.781V51.53"
	/>
<line id="line31" fill="none" stroke="#FF0000" stroke-width="12" stroke-miterlimit="10" x1="12.498" y1="24.584" x2="41.168" y2="24.584"/>
<line id="line37" fill="none" stroke="#FF0000" stroke-width="12" stroke-miterlimit="10" x1="41.143" y1="51.53" x2="73.934" y2="51.53"/>
<path id="path2790" fill="none" stroke="#FF0000" d="M40.766,18.707l-0.073,45.139"/>
<g>
	<path fill="#FF0000" d="M97.688,104.056c0,0.475-0.128,0.881-0.379,1.214c-0.256,0.334-0.563,0.499-0.925,0.499H85.888
		c-0.363,0-0.669-0.172-0.925-0.519c-0.251-0.348-0.375-0.76-0.375-1.236c0-0.464,0.124-0.855,0.375-1.183
		c0.256-0.325,0.562-0.487,0.925-0.487h3.996V82.138h-3.936c-0.36,0-0.668-0.167-0.922-0.499c-0.253-0.332-0.38-0.738-0.38-1.213
		c0-0.479,0.127-0.88,0.38-1.215c0.254-0.334,0.562-0.498,0.922-0.498h6.537v23.632h2.603
		C95.084,102.344,97.688,102.035,97.688,104.056z"/>
</g>
<path fill="none" stroke="#FF0000" stroke-width="5" stroke-miterlimit="10" d="M114.96,109.618c0,3.508-2.845,6.352-6.351,6.352
	H73.666c-3.508,0-6.352-2.844-6.352-6.352V74.676c0-3.508,2.844-6.352,6.352-6.352h34.943c3.506,0,6.351,2.844,6.351,6.352V109.618
	L114.96,109.618z"/>
<g>
	
		<line fill="none" stroke="#FF0000" stroke-width="5" stroke-linecap="round" stroke-miterlimit="10" x1="77.89" y1="68.324" x2="77.89" y2="59.367"/>
	<path fill="none" stroke="#FF0000" stroke-width="5" stroke-linecap="round" stroke-miterlimit="10" d="M84.514,68.324"/>
	
		<line fill="none" stroke="#FF0000" stroke-width="5" stroke-linecap="round" stroke-miterlimit="10" x1="91.138" y1="68.324" x2="91.138" y2="59.367"/>
	<path fill="none" stroke="#FF0000" stroke-width="5" stroke-linecap="round" stroke-miterlimit="10" d="M97.76,68.324"/>
	
		<line fill="none" stroke="#FF0000" stroke-width="5" stroke-linecap="round" stroke-miterlimit="10" x1="104.384" y1="68.324" x2="104.384" y2="59.367"/>
</g>
<g>
	
		<line fill="none" stroke="#FF0000" stroke-width="5" stroke-linecap="round" stroke-miterlimit="10" x1="77.89" y1="124.928" x2="77.89" y2="115.97"/>
	
		<line fill="none" stroke="#FF0000" stroke-width="5" stroke-linecap="round" stroke-miterlimit="10" x1="91.138" y1="124.928" x2="91.138" y2="115.97"/>
	
		<line fill="none" stroke="#FF0000" stroke-width="5" stroke-linecap="round" stroke-miterlimit="10" x1="104.384" y1="124.928" x2="104.384" y2="115.97"/>
</g>
<g>
	
		<line fill="none" stroke="#FF0000" stroke-width="5" stroke-linecap="round" stroke-miterlimit="10" x1="114.959" y1="78.899" x2="123.916" y2="78.899"/>
	
		<line fill="none" stroke="#FF0000" stroke-width="5" stroke-linecap="round" stroke-miterlimit="10" x1="114.959" y1="92.146" x2="123.916" y2="92.146"/>
	
		<line fill="none" stroke="#FF0000" stroke-width="5" stroke-linecap="round" stroke-miterlimit="10" x1="114.959" y1="105.395" x2="123.916" y2="105.395"/>
</g>
<g>
	
		<line fill="none" stroke="#FF0000" stroke-width="5" stroke-linecap="round" stroke-miterlimit="10" x1="58.358" y1="78.899" x2="67.314" y2="78.899"/>
	
		<line fill="none" stroke="#FF0000" stroke-width="5" stroke-linecap="round" stroke-miterlimit="10" x1="58.358" y1="92.146" x2="67.314" y2="92.146"/>
	
		<line fill="none" stroke="#FF0000" stroke-width="5" stroke-linecap="round" stroke-miterlimit="10" x1="58.358" y1="105.395" x2="67.314" y2="105.395"/>
</g>
</svg>
