<?xml version="1.0" encoding="utf-8"?>
<!-- Generator: Adobe Illustrator 16.0.0, SVG Export Plug-In . SVG Version: 6.00 Build 0)  -->
<!DOCTYPE svg PUBLIC "-//W3C//DTD SVG 1.1//EN" "http://www.w3.org/Graphics/SVG/1.1/DTD/svg11.dtd">
<svg version="1.1" id="Calque_1" xmlns="http://www.w3.org/2000/svg" xmlns:xlink="http://www.w3.org/1999/xlink" x="0px" y="0px"
	 width="128px" height="128px" viewBox="0 0 128 128" enable-background="new 0 0 128 128" xml:space="preserve">
<g id="Calque_3" display="none">
	<g display="inline">
		<g>
			
				<circle fill="none" stroke="#FF0000" stroke-width="5" stroke-linecap="round" stroke-linejoin="round" stroke-miterlimit="10" cx="59.272" cy="69.415" r="7.812"/>
			
				<circle fill="none" stroke="#FF0000" stroke-width="5" stroke-linecap="round" stroke-linejoin="round" stroke-miterlimit="10" cx="59.272" cy="69.415" r="7.812"/>
			
				<circle fill="none" stroke="#FF0000" stroke-width="5" stroke-linecap="round" stroke-linejoin="round" stroke-miterlimit="10" cx="59.273" cy="69.415" r="22.62"/>
			
				<circle fill="none" stroke="#FF0000" stroke-width="5" stroke-linecap="round" stroke-linejoin="round" stroke-miterlimit="10" cx="59.273" cy="69.415" r="38.346"/>
			
				<circle fill="none" stroke="#FF0000" stroke-width="5" stroke-linecap="round" stroke-linejoin="round" stroke-miterlimit="10" cx="59.273" cy="69.415" r="54.632"/>
		</g>
		
			<line fill="none" stroke="#FF0000" stroke-width="5" stroke-linecap="round" stroke-linejoin="round" stroke-miterlimit="10" x1="113.904" y1="16.864" x2="124.872" y2="16.864"/>
		
			<line fill="none" stroke="#FF0000" stroke-width="5" stroke-linecap="round" stroke-linejoin="round" stroke-miterlimit="10" x1="113.904" y1="16.864" x2="113.904" y2="5.898"/>
		
			<line fill="none" stroke="#FF0000" stroke-width="5" stroke-linecap="round" stroke-linejoin="round" stroke-miterlimit="10" x1="59.272" y1="69.415" x2="113.904" y2="16.864"/>
	</g>
</g>
<g>
	<path fill="none" stroke="#FF0000" stroke-width="5" stroke-linecap="round" stroke-linejoin="round" stroke-miterlimit="10" d="
		M79.975,51.583V13.571h5.935V3.323H42.093v10.248h5.932v38.012c-13.17,6.055-22.316,19.354-22.316,34.799
		c0,21.147,17.144,38.294,38.294,38.294c21.146,0,38.29-17.146,38.29-38.294C102.292,70.938,93.145,57.638,79.975,51.583z"/>
	<path fill="#FF0000" d="M93.293,86.27c0,16.18-13.114,29.294-29.292,29.294c-16.181,0-29.294-13.114-29.294-29.294
		c0,0,5.58-19.253,30.538-8.795C90.202,87.935,93.293,86.27,93.293,86.27z"/>
</g>
<g id="Calque_5" display="none">
</g>
<g id="Calque_4">
</g>
</svg>
