<?xml version="1.0" encoding="utf-8"?>
<!-- Generator: Adobe Illustrator 16.0.0, SVG Export Plug-In . SVG Version: 6.00 Build 0)  -->
<!DOCTYPE svg PUBLIC "-//W3C//DTD SVG 1.1//EN" "http://www.w3.org/Graphics/SVG/1.1/DTD/svg11.dtd">
<svg version="1.1" id="Calque_1" xmlns="http://www.w3.org/2000/svg" xmlns:xlink="http://www.w3.org/1999/xlink" x="0px" y="0px"
	 width="128px" height="128px" viewBox="0 0 128 128" enable-background="new 0 0 128 128" xml:space="preserve">
<path fill="#1A1A1A" d="M57.887,107.436c0.102-0.078,0.188-0.164,0.29-0.242c-0.109,0.084-0.229,0.16-0.336,0.238
	C57.86,107.432,57.872,107.436,57.887,107.436z"/>
<path fill="none" stroke="#FF0000" stroke-width="5" stroke-linecap="round" stroke-linejoin="round" stroke-miterlimit="10" d="
	M73.602,87.663c0.943-0.027,1.884-0.052,2.813-0.114c8.069,8.318,20.292,12.269,33.496,11.328
	c-5.956-2.922-10.968-7.261-14.385-13.002c-0.392-0.684-0.709-1.411-1.05-2.113c17.482-6.54,29.624-20.55,29.624-36.833
	c0-22.52-23.172-40.774-51.752-40.774c-23.996,0-44.114,12.896-49.958,30.363 M22.386,36.533c-1.111,3.326-1.76,6.797-1.76,10.397
	c0,22.527,23.152,40.782,51.723,40.782c0.409,0,0.804-0.036,1.209-0.048"/>
<path fill="none" stroke="#FF0000" stroke-width="5" stroke-linecap="round" stroke-linejoin="round" stroke-miterlimit="10" d="
	M15.315,61.754c-2.924,1.625-5.612,6.174-5.612,6.174c-2.869,4.261-4.495,9.119-4.495,14.277c0,12.183,9.082,22.662,22.16,27.555
	c-0.255,0.527-0.492,1.07-0.785,1.582c-2.556,4.293-6.305,7.54-10.762,9.726c9.877,0.703,19.021-2.252,25.058-8.475
	c0.695,0.047,1.4,0.065,2.105,0.085 M43.019,112.68c0.302,0.009,0.597,0.038,0.904,0.038c12.06,0,22.829-4.35,29.923-11.167"/>
<circle fill="#FF0000" cx="47.195" cy="47.221" r="6.966"/>
<circle fill="#FF0000" cx="72.295" cy="47.221" r="6.966"/>
<circle fill="#FF0000" cx="97.533" cy="47.221" r="6.966"/>
</svg>
