<?xml version="1.0" encoding="utf-8"?>
<!-- Generator: Adobe Illustrator 16.0.0, SVG Export Plug-In . SVG Version: 6.00 Build 0)  -->
<!DOCTYPE svg PUBLIC "-//W3C//DTD SVG 1.1//EN" "http://www.w3.org/Graphics/SVG/1.1/DTD/svg11.dtd">
<svg version="1.1" id="Calque_1" xmlns="http://www.w3.org/2000/svg" xmlns:xlink="http://www.w3.org/1999/xlink" x="0px" y="0px"
	 width="128px" height="128px" viewBox="0 0 128 128" enable-background="new 0 0 128 128" xml:space="preserve">
<g id="Calque_1_1_" display="none">
</g>
<path fill="none" stroke="#FF0000" stroke-width="5" stroke-miterlimit="10" d="M64.541,104.29"/>
<polygon fill="none" stroke="#FF0000" stroke-width="5" stroke-linecap="round" stroke-linejoin="round" stroke-miterlimit="10" points="
	64.541,68.236 95.104,110.344 33.979,110.344 "/>
<path fill="none" stroke="#FF0000" stroke-width="5" stroke-miterlimit="10" d="M106.307,36.204c-0.979,0-1.771-0.793-1.771-1.772
	V19.37c0-0.979,0.793-1.772,1.771-1.772h15.063c0.979,0,1.771,0.793,1.771,1.772v15.062c0,0.979-0.793,1.772-1.771,1.772H106.307z"
	/>
<path fill="none" stroke="#FF0000" stroke-width="5" stroke-miterlimit="10" d="M73.463,36.204c-0.979,0-1.773-0.793-1.773-1.772
	V19.37c0-0.979,0.794-1.772,1.773-1.772h15.061c0.979,0,1.771,0.793,1.771,1.772v15.062c0,0.979-0.793,1.772-1.771,1.772H73.463z"/>
<path fill="none" stroke="#FF0000" stroke-width="5" stroke-miterlimit="10" d="M40.616,36.204c-0.979,0-1.771-0.793-1.771-1.772
	V19.37c0-0.979,0.793-1.772,1.771-1.772h15.062c0.979,0,1.772,0.793,1.772,1.772v15.062c0,0.979-0.794,1.772-1.772,1.772H40.616z"/>
<path fill="none" stroke="#FF0000" stroke-width="5" stroke-miterlimit="10" d="M7.771,36.204C6.793,36.204,6,35.41,6,34.432V19.37
	c0-0.979,0.793-1.772,1.771-1.772h15.062c0.979,0,1.771,0.793,1.771,1.772v15.062c0,0.979-0.792,1.772-1.771,1.772H7.771z"/>
</svg>
