<?xml version="1.0" encoding="utf-8"?>
<!-- Generator: Adobe Illustrator 16.0.0, SVG Export Plug-In . SVG Version: 6.00 Build 0)  -->
<!DOCTYPE svg PUBLIC "-//W3C//DTD SVG 1.1//EN" "http://www.w3.org/Graphics/SVG/1.1/DTD/svg11.dtd">
<svg version="1.1" xmlns="http://www.w3.org/2000/svg" xmlns:xlink="http://www.w3.org/1999/xlink" x="0px" y="0px" width="128px"
	 height="128px" viewBox="0 0 128 128" enable-background="new 0 0 128 128" xml:space="preserve">
<g id="Calque_2">
	<g>
		
			<path fill="none" stroke="#FF0000" stroke-width="5.5686" stroke-linecap="round" stroke-linejoin="round" stroke-miterlimit="10" d="
			M18.846,52.257c5.844,0,11.065,2.651,14.538,6.813c3.472-4.161,8.694-6.813,14.537-6.813c5.94,0,12.052,2.74,15.523,7.021
			c3.471-4.28,7.951-7.021,13.89-7.021c6.199,0,11.687,2.994,15.14,7.602c3.453-4.607,8.94-7.602,15.141-7.602
			c7.806,0,14.505,4.729,17.4,11.475C123.584,31.259,96.271,5.369,63.444,5.369c-31.748,0-57.287,24.218-60.259,55.187
			C6.591,55.547,12.333,52.257,18.846,52.257z"/>
	</g>
	
		<path fill="none" stroke="#FF0000" stroke-width="5.5686" stroke-linecap="round" stroke-linejoin="round" stroke-miterlimit="10" d="
		M33.384,59.07c0-52.152,30.06-53.701,30.06-53.701s29.03-0.465,29.03,54.49"/>
	
		<path fill="none" stroke="#FF0000" stroke-width="5.5686" stroke-linecap="round" stroke-linejoin="round" stroke-miterlimit="10" d="
		M63.444,5.369v53.909v49.017c0,0,0.656,12.907-10.298,12.907c-9.094,0-8.067-8.067-8.067-8.067"/>
</g>
<g id="Calque_3">
</g>
</svg>
