<?xml version="1.0" encoding="utf-8"?>
<!-- Generator: Adobe Illustrator 16.0.0, SVG Export Plug-In . SVG Version: 6.00 Build 0)  -->
<!DOCTYPE svg PUBLIC "-//W3C//DTD SVG 1.1//EN" "http://www.w3.org/Graphics/SVG/1.1/DTD/svg11.dtd">
<svg version="1.1" id="Calque_1" xmlns="http://www.w3.org/2000/svg" xmlns:xlink="http://www.w3.org/1999/xlink" x="0px" y="0px"
	 width="128px" height="128px" viewBox="0 0 128 128" enable-background="new 0 0 128 128" xml:space="preserve">
<path fill="#FF0000" d="M66.25,1H4C2.343,1,1,2.343,1,4v62.25c0,1.656,1.343,3,3,3h62.25c1.656,0,3-1.344,3-3V4
	C69.25,2.343,67.906,1,66.25,1z M16.229,54.572c-2.768,0-5.011-2.242-5.011-5.01c0-2.77,2.243-5.012,5.011-5.012
	c2.767,0,5.01,2.242,5.01,5.012C21.239,52.33,18.996,54.572,16.229,54.572z M16.229,39.334c-2.768,0-5.011-2.242-5.011-5.009
	c0-2.768,2.243-5.011,5.011-5.011c2.767,0,5.01,2.243,5.01,5.011C21.239,37.09,18.996,39.334,16.229,39.334z M16.229,24.097
	c-2.768,0-5.011-2.244-5.011-5.01c0-2.768,2.243-5.012,5.011-5.012c2.767,0,5.01,2.244,5.01,5.012
	C21.239,21.853,18.996,24.097,16.229,24.097z M54.855,53.721H31.129c-2.305,0-4.174-1.871-4.174-4.178
	c0-2.305,1.869-4.176,4.174-4.176h23.726c2.307,0,4.176,1.871,4.176,4.176C59.031,51.85,57.162,53.721,54.855,53.721z
	 M54.855,38.482H31.129c-2.305,0-4.174-1.869-4.174-4.176c0-2.305,1.869-4.175,4.174-4.175h23.726c2.307,0,4.176,1.87,4.176,4.175
	C59.031,36.613,57.162,38.482,54.855,38.482z M54.855,23.244H31.129c-2.305,0-4.174-1.869-4.174-4.175
	c0-2.306,1.869-4.175,4.174-4.175h23.726c2.307,0,4.176,1.869,4.176,4.175C59.031,21.375,57.162,23.244,54.855,23.244z"/>
<polyline fill="none" stroke="#FF0000" stroke-width="5" stroke-linecap="round" stroke-linejoin="round" stroke-miterlimit="10" points="
	125.358,55.922 115.057,61.249 102.059,98.486 "/>
<line fill="none" stroke="#FF0000" stroke-width="5" stroke-linecap="round" stroke-linejoin="round" stroke-miterlimit="10" x1="58.476" y1="106.91" x2="86.182" y2="116.579"/>
<circle fill="none" stroke="#FF0000" stroke-width="5" stroke-miterlimit="10" cx="102.046" cy="114.937" r="10.951"/>
<g>
	<path fill="none" stroke="#FF0000" stroke-width="5" stroke-linecap="round" stroke-linejoin="round" stroke-miterlimit="10" d="
		M81.821,70.8c0.002-2.219-1.811-4.036-4.027-4.04l-5.951-0.009c-2.223-0.002-4.039,1.811-4.041,4.028L67.8,73.156
		c-0.006,2.221,1.809,4.037,4.025,4.039l5.953,0.01c2.217,0.003,4.031,1.822,4.027,4.043l-0.004,2.376
		c-0.004,2.222-1.822,4.031-4.041,4.029l-5.951-0.012c-2.221-0.002-4.029-1.818-4.027-4.039"/>
	
		<line fill="none" stroke="#FF0000" stroke-width="5" stroke-linecap="round" stroke-linejoin="round" stroke-miterlimit="10" x1="74.817" y1="66.756" x2="74.823" y2="62.646"/>
	
		<line fill="none" stroke="#FF0000" stroke-width="5" stroke-linecap="round" stroke-linejoin="round" stroke-miterlimit="10" x1="74.778" y1="91.761" x2="74.784" y2="87.649"/>
</g>
<circle fill="none" stroke="#FF0000" stroke-width="5" stroke-linecap="round" stroke-linejoin="round" stroke-miterlimit="10" cx="74.801" cy="77.204" r="25.216"/>
</svg>
