<?xml version="1.0" encoding="utf-8"?>
<!-- Generator: Adobe Illustrator 16.0.0, SVG Export Plug-In . SVG Version: 6.00 Build 0)  -->
<!DOCTYPE svg PUBLIC "-//W3C//DTD SVG 1.1//EN" "http://www.w3.org/Graphics/SVG/1.1/DTD/svg11.dtd">
<svg version="1.1" id="Calque_1" xmlns="http://www.w3.org/2000/svg" xmlns:xlink="http://www.w3.org/1999/xlink" x="0px" y="0px"
	 width="128px" height="128px" viewBox="0 0 128 128" enable-background="new 0 0 128 128" xml:space="preserve">
<path fill="#FF0000" stroke="#FF0000" stroke-miterlimit="10" d="M100.55,83.147c0,0.581-0.209,1.079-0.627,1.496
	c-0.418,0.418-0.917,0.628-1.499,0.628c-0.944,0-1.614-0.435-2.014-1.308l-3.65-8.824H71.68l-3.65,8.824
	c-0.291,0.873-0.943,1.308-1.96,1.308c-0.618,0-1.118-0.208-1.499-0.628C64.189,84.228,64,83.729,64,83.147
	c0-0.362,0.053-0.673,0.161-0.927l16.017-38.021c0.399-0.98,1.088-1.471,2.068-1.471c0.981,0,1.651,0.49,2.018,1.471l16.068,38.075
	C100.476,82.529,100.55,82.82,100.55,83.147z M73.206,71.49h18.083l-9.043-21.844L73.206,71.49z"/>
<g id="Calque_3">
	
		<line fill="none" stroke="#FF0000" stroke-width="5" stroke-linecap="round" stroke-linejoin="round" stroke-miterlimit="10" x1="23.312" y1="38.145" x2="66.469" y2="38.145"/>
	<path fill="none" stroke="#FF0000" stroke-width="5" stroke-linecap="round" stroke-linejoin="round" stroke-miterlimit="10" d="
		M32.295,38.145c0,0,1.366,21.677,27.531,30.073"/>
	<path fill="none" stroke="#FF0000" stroke-width="5" stroke-linecap="round" stroke-linejoin="round" stroke-miterlimit="10" d="
		M57.876,38.145c0,0-0.196,24.214-33.393,33.197"/>
	
		<line fill="none" stroke="#FF0000" stroke-width="5" stroke-linecap="round" stroke-linejoin="round" stroke-miterlimit="10" x1="44.891" y1="29.749" x2="48.697" y2="38.145"/>
</g>
<g>
	<g>
		<path fill="none" stroke="#FF0000" stroke-width="5" stroke-linecap="round" stroke-linejoin="round" stroke-miterlimit="10" d="
			M63.403,11.604c-32.648,0-59.116,20.494-59.116,45.776c0,13.397,7.437,25.448,19.285,33.819h-0.004v25.885l17.364-17.363
			c6.929,2.209,14.513,3.434,22.471,3.434c32.65,0,59.117-20.493,59.117-45.773C122.518,32.098,96.053,11.604,63.403,11.604z"/>
	</g>
</g>
</svg>
