<?xml version="1.0" encoding="utf-8"?>
<!-- Generator: Adobe Illustrator 16.0.0, SVG Export Plug-In . SVG Version: 6.00 Build 0)  -->
<!DOCTYPE svg PUBLIC "-//W3C//DTD SVG 1.1//EN" "http://www.w3.org/Graphics/SVG/1.1/DTD/svg11.dtd">
<svg version="1.1" id="Calque_1" xmlns:serif="http://www.serif.com/"
	 xmlns="http://www.w3.org/2000/svg" xmlns:xlink="http://www.w3.org/1999/xlink" x="0px" y="0px" width="128px" height="128px"
	 viewBox="-53 -53 128 128" enable-background="new -53 -53 128 128" xml:space="preserve">
<path fill="#FF0000" d="M13.249-52H-49c-1.657,0-3,1.344-3,3v62.25c0,1.657,1.343,3,3,3h62.249c1.658,0,3-1.343,3-3V-49
	C16.249-50.656,14.907-52,13.249-52z M-36.771,1.572c-2.768,0-5.012-2.242-5.012-5.01s2.244-5.01,5.012-5.01
	c2.766,0,5.01,2.242,5.01,5.01S-34.005,1.572-36.771,1.572z M-36.771-13.665c-2.768,0-5.012-2.243-5.012-5.01
	c0-2.768,2.244-5.011,5.012-5.011c2.766,0,5.01,2.243,5.01,5.011C-31.761-15.908-34.005-13.665-36.771-13.665z M-36.771-28.902
	c-2.768,0-5.012-2.244-5.012-5.01c0-2.768,2.244-5.012,5.012-5.012c2.766,0,5.01,2.244,5.01,5.012
	C-31.761-31.146-34.005-28.902-36.771-28.902z M1.856,0.721h-23.729c-2.305,0-4.174-1.87-4.174-4.176s1.869-4.176,4.174-4.176H1.856
	c2.305,0,4.174,1.87,4.174,4.176S4.161,0.721,1.856,0.721z M1.856-14.518h-23.729c-2.305,0-4.174-1.869-4.174-4.176
	c0-2.305,1.869-4.175,4.174-4.175H1.856c2.305,0,4.174,1.87,4.174,4.175C6.03-16.387,4.161-14.518,1.856-14.518z M1.856-29.756
	h-23.729c-2.305,0-4.174-1.869-4.174-4.175s1.869-4.175,4.174-4.175H1.856c2.305,0,4.174,1.869,4.174,4.175
	S4.161-29.756,1.856-29.756z"/>
<rect x="29.064" y="9.158" transform="matrix(0.9279 -0.3728 0.3728 0.9279 -6.0419 18.9001)" fill="none" stroke="#FF0000" stroke-width="6.0074" stroke-linecap="round" stroke-linejoin="round" stroke-miterlimit="10" width="33.568" height="31.829"/>
<line fill="none" stroke="#FF0000" stroke-width="5" stroke-linecap="round" stroke-linejoin="round" stroke-miterlimit="10" x1="42.017" y1="60.238" x2="67.676" y2="50.037"/>
<line fill="none" stroke="#FF0000" stroke-width="5" stroke-linecap="round" stroke-linejoin="round" stroke-miterlimit="10" x1="7.867" y1="3.796" x2="28.221" y2="53.059"/>
<path fill="none" stroke="#FF0000" stroke-width="5" stroke-miterlimit="10" d="M37.691,62.972c0,3.48-2.822,6.299-6.299,6.299
	c-3.479,0-6.3-2.818-6.3-6.299c0-3.477,2.82-6.298,6.3-6.298C34.869,56.674,37.691,59.495,37.691,62.972z"/>
</svg>
