<?xml version="1.0" encoding="utf-8"?>
<!-- Generator: Adobe Illustrator 16.0.0, SVG Export Plug-In . SVG Version: 6.00 Build 0)  -->
<!DOCTYPE svg PUBLIC "-//W3C//DTD SVG 1.1//EN" "http://www.w3.org/Graphics/SVG/1.1/DTD/svg11.dtd">
<svg version="1.1" id="Calque_1" xmlns="http://www.w3.org/2000/svg" xmlns:xlink="http://www.w3.org/1999/xlink" x="0px" y="0px"
	 width="128px" height="128px" viewBox="0 0 128 128" enable-background="new 0 0 128 128" xml:space="preserve">
<g id="Calque_2">
</g>
<g id="Calque_2_1_">
</g>
<rect x="15.331" y="2.362" fill="none" stroke="#FF0000" stroke-width="5" stroke-linecap="round" stroke-linejoin="round" stroke-miterlimit="10" width="96.276" height="123.177"/>
<line fill="none" stroke="#FF0000" stroke-width="5" stroke-linecap="round" stroke-linejoin="round" stroke-miterlimit="10" x1="39.131" y1="13.959" x2="39.131" y2="28.909"/>
<line fill="none" stroke="#FF0000" stroke-width="5" stroke-linecap="round" stroke-linejoin="round" stroke-miterlimit="10" x1="61.646" y1="18.683" x2="61.646" y2="28.909"/>
<line fill="none" stroke="#FF0000" stroke-width="5" stroke-linecap="round" stroke-linejoin="round" stroke-miterlimit="10" x1="83.355" y1="21.434" x2="83.355" y2="28.909"/>
<g id="Calque_1_1_" xmlns:serif="http://www.serif.com/">
	<g id="path17">
		<path fill="none" stroke="#FF0000" stroke-width="5" stroke-linecap="round" stroke-linejoin="round" stroke-miterlimit="10" d="
			M66.307,48.024c0.037,0.028,0.084,0.068,0.123,0.106l0.018,2.321l0.025,2.984l0.016,1.939l1.851,0.582l0.938,0.295
			c1.25,0.393,2.455,0.887,3.687,1.512c1.396,0.706,1.77,0.896,2.475,0.896c1.167,0,1.378-0.21,3.961-2.779
			c0.589-0.586,1.365-1.358,1.741-1.671h0.034c0.478,0.401,1.532,1.464,2.919,2.863l0.144,0.145c1.49,1.504,2.623,2.646,3.043,3.163
			c-0.322,0.385-1.088,1.152-1.671,1.736l-2.018,2.024l-1.352,1.354l0.854,1.713l0.652,1.308c0.657,1.322,1.107,2.431,1.51,3.704
			l0.294,0.938l0.581,1.852l1.941,0.016l2.984,0.024l2.321,0.02c0.038,0.039,0.079,0.086,0.106,0.124v8.48
			c-0.027,0.038-0.068,0.084-0.106,0.123l-2.325,0.019l-2.988,0.025l-1.959,0.017l-0.568,1.875l-0.211,0.699
			c-0.393,1.297-1.233,3.272-1.954,4.59l-0.3,0.548l-0.959,1.749l1.409,1.413l2.054,2.059c0.816,0.82,1.374,1.41,1.675,1.743
			c-0.405,0.48-1.521,1.6-2.993,3.073l-0.115,0.116c-1.423,1.424-2.505,2.508-3.004,2.925c-0.386-0.323-1.146-1.082-1.726-1.661
			c-2.633-2.622-2.79-2.779-3.951-2.779c-0.684,0-0.974,0.145-2.587,0.944c-1.349,0.669-2.327,1.067-3.611,1.473l-0.912,0.287
			l-1.848,0.582l-0.015,1.938l-0.025,2.985l-0.018,2.321c-0.029,0.028-0.061,0.057-0.09,0.079c-0.495,0.027-1.818,0.031-4.002,0.038
			l-0.831,0.002c-1.993,0-3.275-0.018-3.699-0.034c-0.036-0.017-0.078-0.045-0.11-0.075l-0.02-2.34l-0.024-2.987l-0.017-1.96
			l-1.875-0.568l-0.701-0.212c-1.271-0.384-3.133-1.175-4.53-1.925l-0.628-0.337l-1.742-0.936l-1.4,1.395l-2.06,2.054
			c-0.819,0.814-1.409,1.374-1.742,1.675c-0.507-0.422-1.726-1.643-3.11-3.031l-0.097-0.099c-1.41-1.41-2.484-2.488-2.903-2.988
			c0.328-0.388,1.092-1.155,1.674-1.74l2.02-2.026l1.351-1.355l-0.854-1.715l-0.65-1.305c-0.663-1.33-1.114-2.437-1.512-3.701
			l-0.295-0.938l-0.581-1.852l-1.94-0.016l-2.988-0.023l-2.32-0.019c-0.039-0.038-0.079-0.085-0.107-0.122v-8.481
			c0.028-0.039,0.068-0.085,0.106-0.123l2.323-0.02l2.985-0.025l1.948-0.016l0.576-1.861l0.254-0.818
			c0.355-1.146,1.047-2.825,1.609-3.902l0.588-1.123l0.903-1.728l-1.372-1.384l-2.032-2.051c-0.63-0.636-1.393-1.406-1.703-1.781
			v-0.029c0.401-0.479,1.466-1.535,2.868-2.925l0.143-0.141c1.449-1.437,2.634-2.611,3.16-3.042c0.388,0.326,1.144,1.08,1.722,1.655
			c2.308,2.3,2.789,2.779,4.013,2.779c0.593,0,1.178-0.182,1.667-0.512c0.127-0.068,0.429-0.229,0.872-0.45
			c1.122-0.561,2.389-1.074,3.568-1.444l0.939-0.295l1.849-0.582l0.017-1.939l0.024-2.984l0.019-2.327
			c0.037-0.038,0.08-0.076,0.115-0.101H66.307"/>
	</g>
</g>
<g id="Calque_2_2_">
</g>
</svg>
