<?xml version="1.0" encoding="utf-8"?>
<!-- Generator: Adobe Illustrator 16.0.0, SVG Export Plug-In . SVG Version: 6.00 Build 0)  -->
<!DOCTYPE svg PUBLIC "-//W3C//DTD SVG 1.1//EN" "http://www.w3.org/Graphics/SVG/1.1/DTD/svg11.dtd">
<svg version="1.1" id="Calque_1" xmlns="http://www.w3.org/2000/svg" xmlns:xlink="http://www.w3.org/1999/xlink" x="0px" y="0px"
	 width="128px" height="128px" viewBox="0 0 128 128" enable-background="new 0 0 128 128" xml:space="preserve">
<path fill="none" stroke="#FF0000" stroke-width="5.6099" stroke-linecap="round" stroke-linejoin="round" stroke-miterlimit="10" d="
	M56.198,26.457c0,0-8.415,0.748-12.903,4.387c0,0-8.976-11.814-29.172-7.454l10.659,17.825c0,0-9.536,9.537-10.659,18.513h-5.75
	c0,0-4.208-0.562-4.208,5.47c0,6.03,0,17.531,0,17.531s-0.561,2.664,4.208,2.664c4.769,0,6.171,0,6.171,0s4.769,11.22,17.671,15.708
	l-4.208,15.426c0,0-0.42,3.508,4.208,3.508c4.628,0,14.866,0,14.866,0s1.543,0.421,2.665-3.786c1.122-4.208,1.823-8.416,1.823-8.416
	s15.989,2.945,27.489,0.562l1.823,8.274c0,0,0.449,3.39,3.802,3.376c3.351-0.01,15.132,0,15.132,0s3.366,0.831,2.104-5.62
	c-1.263-6.452-3.506-14.727-3.506-14.727s21.659-10.493,19.215-36.184C112.463,9.275,56.198,26.457,56.198,26.457z"/>
<ellipse transform="matrix(-0.9281 -0.3723 0.3723 -0.9281 36.1828 121.5707)" fill="#FF0000" cx="29.83" cy="57.292" rx="2.992" ry="5.422"/>
<path fill="none" stroke="#FF0000" stroke-width="5.6099" stroke-linecap="round" stroke-miterlimit="10" d="M117.628,63.515
	c0,0,0.957,1.572,6.878-6.222"/>
</svg>
