<?xml version="1.0" encoding="utf-8"?>
<!-- Generator: Adobe Illustrator 16.0.0, SVG Export Plug-In . SVG Version: 6.00 Build 0)  -->
<!DOCTYPE svg PUBLIC "-//W3C//DTD SVG 1.1//EN" "http://www.w3.org/Graphics/SVG/1.1/DTD/svg11.dtd">
<svg version="1.1" id="Calque_1" xmlns="http://www.w3.org/2000/svg" xmlns:xlink="http://www.w3.org/1999/xlink" x="0px" y="0px"
	 width="128px" height="128px" viewBox="0 0 128 128" enable-background="new 0 0 128 128" xml:space="preserve">
<g id="Calque_3">
	
		<line fill="none" stroke="#FF0000" stroke-width="5" stroke-linecap="round" stroke-linejoin="round" stroke-miterlimit="10" x1="4.65" y1="53.468" x2="45.406" y2="53.468"/>
	<path fill="none" stroke="#FF0000" stroke-width="5" stroke-linecap="round" stroke-linejoin="round" stroke-miterlimit="10" d="
		M13.133,53.468c0,0,1.291,20.474,26,28.402"/>
	<path fill="none" stroke="#FF0000" stroke-width="5" stroke-linecap="round" stroke-linejoin="round" stroke-miterlimit="10" d="
		M37.291,53.468c0,0-0.186,22.869-31.535,31.351"/>
	
		<line fill="none" stroke="#FF0000" stroke-width="5" stroke-linecap="round" stroke-linejoin="round" stroke-miterlimit="10" x1="25.029" y1="45.54" x2="28.623" y2="53.468"/>
</g>
<g>
	<path fill="#FF0000" d="M89.979,71.636c0,4.398-1.337,7.769-4.015,10.11c-2.678,2.344-6.622,3.516-11.835,3.516
		c-5.21,0-9.15-1.174-11.82-3.516c-2.67-2.342-4.004-5.703-4.004-10.088V48.926h9.229v22.208c0,2.47,0.516,4.312,1.552,5.521
		c1.034,1.212,2.717,1.817,5.046,1.817c2.294,0,3.969-0.581,5.031-1.745c1.062-1.162,1.588-3.026,1.588-5.594V48.926h9.23v22.709
		H89.979z"/>
	<path fill="#FF0000" d="M127.056,73.332c0,3.507-1.484,6.355-4.46,8.546c-2.973,2.192-7.007,3.288-12.105,3.288
		c-2.947,0-5.519-0.26-7.711-0.776c-2.19-0.52-4.24-1.175-6.152-1.973v-8.535h1.004c1.895,1.514,4.019,2.677,6.368,3.49
		s4.61,1.22,6.779,1.22c0.556,0,1.288-0.049,2.199-0.145c0.908-0.095,1.649-0.255,2.223-0.478c0.699-0.288,1.278-0.646,1.732-1.075
		c0.452-0.43,0.679-1.067,0.679-1.912c0-0.78-0.332-1.454-0.992-2.02c-0.664-0.566-1.63-1-2.907-1.303
		c-1.337-0.318-2.749-0.616-4.244-0.896c-1.487-0.278-2.885-0.633-4.192-1.063c-2.996-0.972-5.152-2.29-6.468-3.956
		c-1.316-1.665-1.971-3.733-1.971-6.203c0-3.314,1.484-6.021,4.458-8.116c2.973-2.094,6.795-3.144,11.464-3.144
		c2.343,0,4.658,0.226,6.941,0.68c2.286,0.454,4.268,1.024,5.943,1.708v8.201h-0.98c-1.438-1.149-3.191-2.108-5.271-2.881
		c-2.083-0.772-4.205-1.159-6.372-1.159c-0.764,0-1.525,0.053-2.284,0.156c-0.758,0.104-1.485,0.299-2.186,0.585
		c-0.621,0.24-1.156,0.602-1.603,1.088s-0.67,1.041-0.67,1.662c0,0.939,0.356,1.662,1.074,2.163c0.718,0.503,2.07,0.961,4.063,1.376
		c1.311,0.27,2.563,0.532,3.767,0.788c1.206,0.255,2.498,0.606,3.888,1.053c2.726,0.894,4.735,2.108,6.034,3.645
		C126.407,68.884,127.056,70.878,127.056,73.332z"/>
</g>
<g id="Calque_2">
</g>
</svg>
