<?xml version="1.0" encoding="utf-8"?>
<!-- Generator: Adobe Illustrator 16.0.0, SVG Export Plug-In . SVG Version: 6.00 Build 0)  -->
<!DOCTYPE svg PUBLIC "-//W3C//DTD SVG 1.1//EN" "http://www.w3.org/Graphics/SVG/1.1/DTD/svg11.dtd">
<svg version="1.1" id="Calque_1" xmlns="http://www.w3.org/2000/svg" xmlns:xlink="http://www.w3.org/1999/xlink" x="0px" y="0px"
	 width="128px" height="128px" viewBox="0 0 128 128" enable-background="new 0 0 128 128" xml:space="preserve">
<g id="Calque_2" display="none">
	
		<image display="inline" overflow="visible" enable-background="new    " width="601" height="351" xlink:href="EC9676A4.jpeg"  transform="matrix(0.9983 0 0 0.9972 -236.0005 -110)">
	</image>
</g>
<g id="Calque_1_1_">
	<path fill="none" stroke="#FF0000" stroke-width="5" stroke-linecap="round" stroke-linejoin="round" stroke-miterlimit="10" d="
		M78.991,13.241c26.796,11.23,27.305,35.984,27.305,35.984v42.876l16.846,16.076v12.25H65.464h-3.27H4.519v-12.25l16.843-16.076
		V49.225c0,0,0.511-24.754,27.308-35.984C48.669,13.241,63.833,6.111,78.991,13.241z"/>
	<g>
		<g>
			<path fill="none" stroke="#FF0000" stroke-width="5" stroke-linecap="round" stroke-linejoin="round" d="M52.223,49.959
				c11.128-5.328,24.863-2.664,33.114,7.256c7.794,9.366,8.333,22.369,2.245,32.186"/>
			<g>
				
					<polyline fill="none" stroke="#FF0000" stroke-width="5" stroke-linecap="round" stroke-linejoin="round" stroke-miterlimit="10" points="
					97.185,87.557 86.441,91.093 83.693,80.125 				"/>
			</g>
		</g>
		<g>
			<path fill="none" stroke="#FF0000" stroke-width="5" stroke-linecap="round" stroke-linejoin="round" d="M76.028,99.759
				c-11.129,5.33-24.864,2.664-33.115-7.254c-7.792-9.368-8.333-22.369-2.247-32.188"/>
			<g>
				
					<polyline fill="none" stroke="#FF0000" stroke-width="5" stroke-linecap="round" stroke-linejoin="round" stroke-miterlimit="10" points="
					31.066,62.163 41.809,58.625 44.556,69.595 				"/>
			</g>
		</g>
	</g>
</g>
</svg>
