<?xml version="1.0" encoding="utf-8"?>
<!-- Generator: Adobe Illustrator 16.0.0, SVG Export Plug-In . SVG Version: 6.00 Build 0)  -->
<!DOCTYPE svg PUBLIC "-//W3C//DTD SVG 1.1//EN" "http://www.w3.org/Graphics/SVG/1.1/DTD/svg11.dtd">
<svg version="1.1" id="Calque_1" xmlns:serif="http://www.serif.com/"
	 xmlns="http://www.w3.org/2000/svg" xmlns:xlink="http://www.w3.org/1999/xlink" x="0px" y="0px" width="128px" height="128px"
	 viewBox="0 0 128 128" enable-background="new 0 0 128 128" xml:space="preserve">
<g id="Calque_3">
	<path fill="none" stroke="#FF0000" stroke-width="5" stroke-linecap="round" stroke-linejoin="round" stroke-miterlimit="10" d="
		M6.12,73.397v7.066c16.944,0,15.561,14.133,15.561,14.133c0,12.366-15.561,14.011-15.561,14.011v16.374h120v-16.374
		c0,0-13.561-0.722-13.561-13.608c0-12.892,13.561-14.563,13.561-14.563V59.984H74.458"/>
	<g>
		<g>
			
				<path fill="none" stroke="#FF0000" stroke-width="5" stroke-linecap="round" stroke-linejoin="round" stroke-dasharray="5,10" d="
				M89.081,59.981v64.998"/>
		</g>
	</g>
</g>
<path fill="#FF0000" d="M66.25,1H4C2.343,1,1,2.343,1,4v62.25c0,1.656,1.343,3,3,3h62.25c1.656,0,3-1.344,3-3V4
	C69.25,2.343,67.906,1,66.25,1z M16.229,54.572c-2.768,0-5.011-2.241-5.011-5.01s2.243-5.011,5.011-5.011
	c2.767,0,5.01,2.242,5.01,5.011S18.996,54.572,16.229,54.572z M16.229,39.334c-2.768,0-5.011-2.242-5.011-5.01
	s2.243-5.011,5.011-5.011c2.767,0,5.01,2.243,5.01,5.011C21.239,37.09,18.996,39.334,16.229,39.334z M16.229,24.097
	c-2.768,0-5.011-2.244-5.011-5.01c0-2.768,2.243-5.012,5.011-5.012c2.767,0,5.01,2.244,5.01,5.012
	C21.239,21.853,18.996,24.097,16.229,24.097z M54.856,53.72H31.129c-2.305,0-4.174-1.87-4.174-4.177
	c0-2.306,1.869-4.176,4.174-4.176h23.727c2.307,0,4.176,1.87,4.176,4.176C59.032,51.85,57.163,53.72,54.856,53.72z M54.856,38.482
	H31.129c-2.305,0-4.174-1.869-4.174-4.176c0-2.305,1.869-4.175,4.174-4.175h23.727c2.307,0,4.176,1.87,4.176,4.175
	C59.032,36.613,57.163,38.482,54.856,38.482z M54.856,23.244H31.129c-2.305,0-4.174-1.869-4.174-4.175
	c0-2.306,1.869-4.175,4.174-4.175h23.727c2.307,0,4.176,1.869,4.176,4.175C59.032,21.375,57.163,23.244,54.856,23.244z"/>
</svg>
