<?xml version="1.0" encoding="utf-8"?>
<!-- Generator: Adobe Illustrator 16.0.0, SVG Export Plug-In . SVG Version: 6.00 Build 0)  -->
<!DOCTYPE svg PUBLIC "-//W3C//DTD SVG 1.1//EN" "http://www.w3.org/Graphics/SVG/1.1/DTD/svg11.dtd">
<svg version="1.1" id="Calque_1" xmlns="http://www.w3.org/2000/svg" xmlns:xlink="http://www.w3.org/1999/xlink" x="0px" y="0px"
	 width="128px" height="128px" viewBox="0 0 128 128" enable-background="new 0 0 128 128" xml:space="preserve">
<g>
	<path fill="none" stroke="#FF0000" stroke-width="5" stroke-linecap="round" stroke-linejoin="round" stroke-miterlimit="10" d="
		M96.511,73.878c0-3.632-2.974-6.603-6.604-6.603c-3.629,0-6.601,2.971-6.601,6.603v-3.835c0-3.632-2.971-6.6-6.603-6.6
		c-3.628,0-6.6,2.971-6.6,6.6v-7.047c0-3.631-2.97-6.602-6.601-6.602c-3.63,0-6.603,2.972-6.603,6.602V33.183
		c0-3.63-2.97-6.601-6.598-6.601c-3.631,0-6.603,2.971-6.603,6.601v42.856l-5.129-8.888c-1.814-3.145-5.873-4.231-9.018-2.417
		c-3.145,1.816-4.233,5.873-2.417,9.019c0,0,13.727,50.781,25.081,50.781h23.647c11.354,0,20.646-23.799,20.646-24.253
		L96.511,73.878L96.511,73.878z"/>
</g>
<path fill="none" stroke="#FF0000" stroke-width="7" stroke-linecap="round" stroke-linejoin="round" stroke-miterlimit="10" d="
	M27.321,30.109c0-12.528,10.155-22.682,22.681-22.682c12.53,0,22.684,10.156,22.684,22.682"/>
</svg>
