<?xml version="1.0" encoding="utf-8"?>
<!-- Generator: Adobe Illustrator 16.0.0, SVG Export Plug-In . SVG Version: 6.00 Build 0)  -->
<!DOCTYPE svg PUBLIC "-//W3C//DTD SVG 1.1//EN" "http://www.w3.org/Graphics/SVG/1.1/DTD/svg11.dtd">
<svg version="1.1" id="Calque_1" xmlns="http://www.w3.org/2000/svg" xmlns:xlink="http://www.w3.org/1999/xlink" x="0px" y="0px"
	 width="128px" height="128px" viewBox="0 0 128 128" enable-background="new 0 0 128 128" xml:space="preserve">
<g id="Calque_3" display="none">
	<g id="Icones" display="inline">
		<g id="Artboard" transform="translate(-1260.000000, -550.000000)">
			<g id="icone-signature-du-contrat-franchise" transform="translate(1249.000000, 539.000000)">
				<g id="Rectangle">
				</g>
				<defs>
					<filter id="Adobe_OpacityMaskFilter" filterUnits="userSpaceOnUse" x="30.928" y="41.599" width="105.63" height="107.768">
						<feColorMatrix  type="matrix" values="1 0 0 0 0  0 1 0 0 0  0 0 1 0 0  0 0 0 1 0"/>
					</filter>
				</defs>
				<mask maskUnits="userSpaceOnUse" x="30.928" y="41.599" width="105.63" height="107.768" id="mask-2_2_">
					<g filter="url(#Adobe_OpacityMaskFilter)">
						<rect id="path-1_2_" x="24.849" y="35.217" fill="#FFFFFF" width="119.632" height="119.633"/>
					</g>
				</mask>
				<g id="Group-16" mask="url(#mask-2_2_)">
					<g transform="translate(11.000000, 11.000000)">
						<path id="Fill-1" fill="none" stroke="#FF0000" stroke-miterlimit="10" d="M43.208,48.143c-0.688,0-1.245,0.536-1.245,1.197
							c0,0.659,0.558,1.197,1.245,1.197h41.772c0.687,0,1.245-0.538,1.245-1.197c0-0.66-0.559-1.197-1.245-1.197H43.208z"/>
						<path id="Fill-3" fill="none" stroke="#FF0000" stroke-miterlimit="10" d="M32.984,48.143h-0.588
							c-0.661,0-1.201,0.536-1.201,1.197c0,0.659,0.54,1.197,1.201,1.197h0.588c0.664,0,1.201-0.538,1.201-1.197
							C34.186,48.68,33.648,48.143,32.984,48.143"/>
						<path id="Fill-5" fill="none" stroke="#FF0000" stroke-miterlimit="10" d="M84.383,60.107c0.687,0,1.245-0.535,1.245-1.197
							c0-0.659-0.559-1.197-1.245-1.197H32.44c-0.685,0-1.245,0.537-1.245,1.197c0,0.66,0.56,1.197,1.245,1.197H84.383z"/>
						<path id="Fill-7" fill="none" stroke="#FF0000" stroke-miterlimit="10" d="M84.383,69.678c0.687,0,1.245-0.537,1.245-1.197
							s-0.559-1.196-1.245-1.196H32.44c-0.685,0-1.245,0.535-1.245,1.196c0,0.659,0.56,1.197,1.245,1.197H84.383z"/>
						<path id="Fill-9" fill="none" stroke="#FF0000" stroke-miterlimit="10" d="M57.421,79.847c0.711,0,1.29-0.536,1.29-1.197
							c0-0.659-0.579-1.197-1.29-1.197h-1.01c-0.71,0-1.29,0.537-1.29,1.197s0.58,1.197,1.29,1.197H57.421z"/>
						<path id="Fill-11" fill="none" stroke="#FF0000" stroke-miterlimit="10" d="M47.883,79.847c0.694,0,1.257-0.536,1.257-1.197
							c0-0.659-0.563-1.197-1.257-1.197H32.454c-0.694,0-1.259,0.537-1.259,1.197s0.565,1.197,1.259,1.197H47.883z"/>
						<g id="Group-15">
							<g id="Clip-14">
							</g>
							<defs>
								
									<filter id="Adobe_OpacityMaskFilter_1_" filterUnits="userSpaceOnUse" x="19.928" y="30.599" width="105.63" height="107.768">
									<feColorMatrix  type="matrix" values="1 0 0 0 0  0 1 0 0 0  0 0 1 0 0  0 0 0 1 0"/>
								</filter>
							</defs>
							<mask maskUnits="userSpaceOnUse" x="19.928" y="30.599" width="105.63" height="107.768" id="mask-4_2_">
								<g filter="url(#Adobe_OpacityMaskFilter_1_)">
									<polygon id="path-3_2_" fill="#FFFFFF" points="20.428,31.099 125.057,31.099 125.057,137.868 20.428,137.868 									"/>
								</g>
							</mask>
							<path id="Fill-13" mask="url(#mask-4_2_)" fill="none" stroke="#FF0000" stroke-miterlimit="10" d="M102.167,54.057
								l10.468,6.05l-32.153,55.76l-10.47-6.05L102.167,54.057z M107.633,44.579l10.468,6.052l-4.223,7.322l-10.471-6.051
								L107.633,44.579z M111.289,38.237c1.669-2.887,5.372-3.879,8.257-2.214c1.4,0.809,2.399,2.113,2.816,3.675
								c0.418,1.561,0.204,3.192-0.604,4.592l-2.416,4.187l-10.469-6.05L111.289,38.237z M69.435,112.357l9.138,5.282l-9.848,6.509
								L69.435,112.357z M94.576,135.381h-52.96v-17.483c0-0.684-0.557-1.242-1.242-1.242h-17.46V33.586h71.66v28.659l-8.378,14.528
								H66.16c-0.685,0-1.242,0.559-1.242,1.243c0,0.686,0.558,1.245,1.242,1.245h18.604l-4.177,7.238H32.823
								c-0.685,0-1.242,0.56-1.242,1.245c0,0.683,0.557,1.242,1.242,1.242h46.33l-4.174,7.24H32.823
								c-0.685,0-1.242,0.559-1.242,1.241c0,0.687,0.557,1.245,1.242,1.245h40.722l-6.306,10.935
								c-0.095,0.165-0.148,0.344-0.16,0.536l-0.98,16.295c-0.03,0.472,0.208,0.913,0.617,1.151c0.148,0.088,0.315,0.14,0.499,0.159
								c0.434,0.004,10.86,0.009,17.75,0.012c0.686,0,1.242-0.56,1.242-1.244c0-0.684-0.557-1.244-1.242-1.244H71.478l10.148-6.711
								c0.157-0.107,0.293-0.25,0.388-0.412l12.563-21.785V135.381L94.576,135.381z M39.131,133.622L24.67,119.144h14.461V133.622z
								 M21.669,31.099c-0.683,0-1.242,0.558-1.242,1.243v85.556c0,0.329,0.135,0.647,0.365,0.882l18.702,18.724
								c0.234,0.235,0.548,0.363,0.88,0.363h55.444c0.684,0,1.241-0.557,1.241-1.243V92.094l26.85-46.562
								c1.141-1.976,1.444-4.276,0.854-6.48c-0.59-2.202-2.002-4.043-3.973-5.185c-4.075-2.355-9.303-0.953-11.652,3.126
								L97.06,57.937V32.342c0-0.685-0.558-1.243-1.241-1.243H21.669z"/>
						</g>
					</g>
				</g>
			</g>
		</g>
	</g>
</g>
<g id="Calque_4">
	<g>
		<path fill="none" stroke="#FF0000" stroke-width="5" stroke-linecap="round" stroke-linejoin="round" stroke-miterlimit="10" d="
			M19.951,124.901L19.951,124.901h15.287c1.467,0,56.603,0,56.603,0"/>
		<path fill="none" stroke="#FF0000" stroke-width="5" stroke-linecap="round" stroke-linejoin="round" stroke-miterlimit="10" d="
			M19.396,124.901"/>
		<path fill="none" stroke="#FF0000" stroke-width="5" stroke-linecap="round" stroke-linejoin="round" stroke-miterlimit="10" d="
			M37.894,124.901"/>
	</g>
</g>
<g>
	<g id="Calque_3_3_">
		<line fill="none" stroke="#FF0000" stroke-width="5" stroke-miterlimit="10" x1="120.9" y1="101.707" x2="102.88" y2="101.707"/>
	</g>
	<line fill="none" stroke="#FF0000" stroke-width="5" stroke-miterlimit="10" x1="102.88" y1="59.932" x2="102.88" y2="101.604"/>
	<path fill="none" stroke="#FF0000" stroke-width="5" stroke-miterlimit="10" d="M120.979,60.146h-18.098l-0.002-5.758
		c-0.004-1.901,1.537-3.443,3.438-3.445l11.215-0.008c1.901-0.001,3.443,1.538,3.445,3.44L120.979,60.146z"/>
	
		<polyline fill="none" stroke="#FF0000" stroke-width="5" stroke-linecap="round" stroke-linejoin="round" stroke-miterlimit="10" points="
		102.88,101.604 112.01,115.224 120.979,101.811 120.979,60.141 	"/>
</g>
<g id="Calque_2_2_">
	<g id="Calque_2">
		
			<polyline fill="none" stroke="#FF0000" stroke-width="5" stroke-linecap="round" stroke-linejoin="round" stroke-miterlimit="10" points="
			91.843,124.901 91.843,50.935 80.28,50.935 80.28,90.419 71.663,90.419 71.663,73.651 54.092,90.419 54.092,73.574 36.672,90.455 
			36.672,73.651 19.951,90.455 		"/>
		
			<line fill="none" stroke="#FF0000" stroke-width="5" stroke-linecap="round" stroke-linejoin="round" stroke-miterlimit="10" x1="19.951" y1="90.455" x2="19.951" y2="124.901"/>
	</g>
</g>
<path fill="#FF0000" d="M67.24,1.838H4.99c-1.656,0-3,1.344-3,3v62.25c0,1.658,1.344,3,3,3h62.25c1.658,0,3-1.342,3-3V4.838
	C70.24,3.182,68.898,1.838,67.24,1.838z M17.22,55.411c-2.768,0-5.012-2.242-5.012-5.01s2.244-5.01,5.012-5.01
	c2.766,0,5.01,2.242,5.01,5.01S19.986,55.411,17.22,55.411z M17.22,40.173c-2.768,0-5.012-2.243-5.012-5.01
	c0-2.768,2.244-5.011,5.012-5.011c2.766,0,5.01,2.243,5.01,5.011C22.23,37.93,19.986,40.173,17.22,40.173z M17.22,24.936
	c-2.768,0-5.012-2.244-5.012-5.01c0-2.768,2.244-5.012,5.012-5.012c2.766,0,5.01,2.244,5.01,5.012
	C22.23,22.692,19.986,24.936,17.22,24.936z M55.847,54.559H32.119c-2.305,0-4.174-1.87-4.174-4.176s1.869-4.176,4.174-4.176h23.729
	c2.305,0,4.174,1.87,4.174,4.176S58.152,54.559,55.847,54.559z M55.847,39.321H32.119c-2.305,0-4.174-1.869-4.174-4.176
	c0-2.305,1.869-4.175,4.174-4.175h23.729c2.305,0,4.174,1.87,4.174,4.175C60.021,37.452,58.152,39.321,55.847,39.321z
	 M55.847,24.083H32.119c-2.305,0-4.174-1.869-4.174-4.175s1.869-4.175,4.174-4.175h23.729c2.305,0,4.174,1.869,4.174,4.175
	S58.152,24.083,55.847,24.083z"/>
</svg>
