<?xml version="1.0" encoding="utf-8"?>
<!-- Generator: Adobe Illustrator 16.0.0, SVG Export Plug-In . SVG Version: 6.00 Build 0)  -->
<!DOCTYPE svg PUBLIC "-//W3C//DTD SVG 1.1//EN" "http://www.w3.org/Graphics/SVG/1.1/DTD/svg11.dtd">
<svg version="1.1" id="Calque_1" xmlns="http://www.w3.org/2000/svg" xmlns:xlink="http://www.w3.org/1999/xlink" x="0px" y="0px"
	 width="128px" height="128px" viewBox="0 0 128 128" enable-background="new 0 0 128 128" xml:space="preserve">
<g id="Calque_2" display="none">
	<g display="inline">
		<g>
			<g>
				
					<path fill="none" stroke="#FF0000" stroke-width="5" stroke-linecap="round" stroke-linejoin="round" stroke-miterlimit="10" d="
					M116.063,106.984H13.682c-5.126,0-9.32-4.194-9.32-9.32V33.583c0-5.126,4.194-9.319,9.32-9.319h102.378
					c5.127,0,9.318,4.192,9.318,9.319v64.082C125.381,102.79,121.188,106.984,116.063,106.984z"/>
				
					<rect x="4.362" y="42.646" fill="none" stroke="#FF0000" stroke-width="5" stroke-linecap="round" stroke-linejoin="round" stroke-miterlimit="10" width="121.019" height="16.85"/>
			</g>
			
				<line fill="none" stroke="#FF0000" stroke-width="5" stroke-linecap="round" stroke-linejoin="round" stroke-miterlimit="10" x1="14.439" y1="74.625" x2="53.41" y2="74.625"/>
			
				<circle fill="none" stroke="#FF0000" stroke-width="5" stroke-linecap="round" stroke-linejoin="round" stroke-miterlimit="10" cx="104.143" cy="89.142" r="7.335"/>
		</g>
	</g>
</g>
<g>
	<path fill="none" stroke="#FF0000" stroke-width="5" stroke-linecap="round" stroke-linejoin="round" stroke-miterlimit="10" d="
		M125.397,37.592c0,0-8.09,9.751-25.103,6.847c-17.013-2.905-35.475-6.017-41.492-4.566c-3.229,0.781-7.832,3.651-11.629,7.396
		c-3.744,3.795-6.614,8.399-7.393,11.627c-1.453,6.017,1.659,24.479,4.564,41.492c2.904,17.013-6.846,25.103-6.846,25.103"/>
	<path fill="none" stroke="#FF0000" stroke-width="5" stroke-linecap="round" stroke-linejoin="round" stroke-miterlimit="10" d="
		M91.14,3.334c0,0-9.751,8.091-6.846,25.103c2.905,17.013,6.016,35.476,4.564,41.493c-0.779,3.229-3.65,7.833-7.395,11.628
		c-3.796,3.744-8.399,6.615-11.628,7.395c-6.017,1.451-24.481-1.659-41.493-4.564c-17.012-2.905-25.103,6.846-25.103,6.846"/>
	
		<line fill="none" stroke="#FF0000" stroke-width="5" stroke-linecap="round" stroke-linejoin="round" stroke-miterlimit="10" x1="46.354" y1="66.013" x2="61.915" y2="81.575"/>
	
		<line fill="none" stroke="#FF0000" stroke-width="5" stroke-linecap="round" stroke-linejoin="round" stroke-miterlimit="10" x1="66.271" y1="46.099" x2="81.832" y2="61.657"/>
	
		<line fill="none" stroke="#FF0000" stroke-width="5" stroke-linecap="round" stroke-linejoin="round" stroke-miterlimit="10" x1="46.004" y1="66.364" x2="61.563" y2="81.926"/>
	
		<line fill="none" stroke="#FF0000" stroke-width="5" stroke-linecap="round" stroke-linejoin="round" stroke-miterlimit="10" x1="50.743" y1="50.837" x2="77.091" y2="77.185"/>
	
		<line fill="none" stroke="#FF0000" stroke-width="5" stroke-linecap="round" stroke-linejoin="round" stroke-miterlimit="10" x1="89.092" y1="23.276" x2="104.651" y2="38.838"/>
	
		<line fill="none" stroke="#FF0000" stroke-width="5" stroke-linecap="round" stroke-linejoin="round" stroke-miterlimit="10" x1="23.184" y1="89.186" x2="38.743" y2="104.745"/>
	
		<line fill="none" stroke="#FF0000" stroke-width="5" stroke-linecap="round" stroke-linejoin="round" stroke-miterlimit="10" x1="93.481" y1="8.1" x2="119.827" y2="34.447"/>
	
		<line fill="none" stroke="#FF0000" stroke-width="5" stroke-linecap="round" stroke-linejoin="round" stroke-miterlimit="10" x1="8.006" y1="93.575" x2="34.354" y2="119.921"/>
</g>
</svg>
