<?xml version="1.0" encoding="utf-8"?>
<!-- Generator: Adobe Illustrator 16.0.0, SVG Export Plug-In . SVG Version: 6.00 Build 0)  -->
<!DOCTYPE svg PUBLIC "-//W3C//DTD SVG 1.1//EN" "http://www.w3.org/Graphics/SVG/1.1/DTD/svg11.dtd">
<svg version="1.1" id="Calque_2" xmlns="http://www.w3.org/2000/svg" xmlns:xlink="http://www.w3.org/1999/xlink" x="0px" y="0px"
	 width="128px" height="128px" viewBox="0 0 128 128" enable-background="new 0 0 128 128" xml:space="preserve">
<polyline fill="none" stroke="#FF0000" stroke-width="5" stroke-linecap="round" stroke-linejoin="round" stroke-miterlimit="10" points="
	31.401,43.951 35.167,48.314 47.146,37.533 "/>
<line fill="none" stroke="#FF0000" stroke-width="5" stroke-linecap="round" stroke-linejoin="round" stroke-miterlimit="10" x1="59.297" y1="38.73" x2="71.961" y2="38.73"/>
<line fill="none" stroke="#FF0000" stroke-width="5" stroke-linecap="round" stroke-linejoin="round" stroke-miterlimit="10" x1="59.297" y1="48.314" x2="83.769" y2="48.314"/>
<polyline fill="none" stroke="#FF0000" stroke-width="5" stroke-linecap="round" stroke-linejoin="round" stroke-miterlimit="10" points="
	31.401,74.746 35.167,79.11 47.146,68.328 "/>
<line fill="none" stroke="#FF0000" stroke-width="5" stroke-linecap="round" stroke-linejoin="round" stroke-miterlimit="10" x1="59.297" y1="69.526" x2="71.961" y2="69.526"/>
<line fill="none" stroke="#FF0000" stroke-width="5" stroke-linecap="round" stroke-linejoin="round" stroke-miterlimit="10" x1="59.297" y1="79.11" x2="83.769" y2="79.11"/>
<polyline fill="none" stroke="#FF0000" stroke-width="5" stroke-linecap="round" stroke-linejoin="round" stroke-miterlimit="10" points="
	43.619,96.49 31.115,96.49 31.115,109.775 43.619,109.775 43.619,96.49 "/>
<line fill="none" stroke="#FF0000" stroke-width="5" stroke-linecap="round" stroke-linejoin="round" stroke-miterlimit="10" x1="59.297" y1="100.322" x2="71.961" y2="100.322"/>
<line fill="none" stroke="#FF0000" stroke-width="5" stroke-linecap="round" stroke-linejoin="round" stroke-miterlimit="10" x1="59.297" y1="109.906" x2="83.769" y2="109.906"/>
<path fill="none" stroke="#FF0000" stroke-width="5" stroke-miterlimit="10" d="M105.516,122.193c0,1.657-1.343,3-3,3H21.036
	c-1.657,0-3-1.343-3-3V23.5c0-1.657,1.343-3,3-3h81.479c1.657,0,3,1.343,3,3V122.193z"/>
<path fill="#FF0000" d="M84.201,5.5H43.799c-1.657,0-3,1.343-3,3v14c0,1.657,1.343,3,3,3h40.402c1.657,0,3-1.343,3-3v-14
	C87.201,6.843,85.858,5.5,84.201,5.5z M64,16.797c-1.877,0-3.398-1.521-3.398-3.398S62.123,10,64,10s3.398,1.521,3.398,3.398
	S65.877,16.797,64,16.797z"/>
</svg>
