<?xml version="1.0" encoding="utf-8"?>
<!-- Generator: Adobe Illustrator 16.0.0, SVG Export Plug-In . SVG Version: 6.00 Build 0)  -->
<!DOCTYPE svg PUBLIC "-//W3C//DTD SVG 1.1//EN" "http://www.w3.org/Graphics/SVG/1.1/DTD/svg11.dtd">
<svg version="1.1" id="Calque_1" xmlns="http://www.w3.org/2000/svg" xmlns:xlink="http://www.w3.org/1999/xlink" x="0px" y="0px"
	 width="128px" height="128px" viewBox="0 0 128 128" enable-background="new 0 0 128 128" xml:space="preserve">
<g id="Calque_1_2_" display="none">
	<g id="Calque_1_1_" display="inline">
	</g>
	
		<line display="inline" fill="none" stroke="#FF0000" stroke-width="11" stroke-miterlimit="10" x1="5.1" y1="35.064" x2="58.226" y2="35.064"/>
	
		<line display="inline" fill="none" stroke="#FF0000" stroke-width="11" stroke-miterlimit="10" x1="58.226" y1="46.698" x2="86.372" y2="46.698"/>
	
		<line display="inline" fill="none" stroke="#FF0000" stroke-width="11" stroke-miterlimit="10" x1="17.83" y1="68.512" x2="45.601" y2="68.512"/>
	
		<line display="inline" fill="none" stroke="#FF0000" stroke-width="11" stroke-miterlimit="10" x1="45.601" y1="81.646" x2="68.682" y2="81.646"/>
	
		<line display="inline" fill="none" stroke="#FF0000" stroke-width="11" stroke-miterlimit="10" x1="67.805" y1="92.5" x2="113.844" y2="92.5"/>
	<path display="inline" fill="none" stroke="#FF0000" stroke-width="5" stroke-miterlimit="10" d="M124.111,105.398
		c0,3.594-2.688,6.509-6.006,6.509H11.022c-3.316,0-6.004-2.915-6.004-6.509V15.383c0-3.594,2.688-6.507,6.004-6.507h107.083
		c3.314,0,6.006,2.914,6.006,6.507V105.398z"/>
</g>
<g id="Calque_1_3_" display="none">
</g>
<polyline fill="none" stroke="#FF0000" stroke-width="5" stroke-linecap="round" stroke-linejoin="round" stroke-miterlimit="10" points="
	72.469,92.825 91.514,92.825 107.59,76.75 "/>
<g id="Calque_3" display="none">
	<g id="Calque_2" display="inline">
		<g>
			<g>
				
					<path fill="none" stroke="#FF0000" stroke-width="5" stroke-linecap="round" stroke-linejoin="round" stroke-miterlimit="10" d="
					M102.314,74.566c2.097-2.561,1.719-6.362-0.838-8.459c-2.563-2.1-6.369-1.717-8.463,0.84l2.211-2.699
					c2.098-2.559,1.719-6.365-0.844-8.462c-2.563-2.097-6.363-1.72-8.464,0.839l4.065-4.967c2.1-2.558,1.721-6.365-0.84-8.461
					c-2.561-2.097-6.365-1.719-8.463,0.84L97.898,23.03c2.096-2.559,1.719-6.366-0.84-8.463c-2.563-2.096-6.367-1.717-8.463,0.842
					L63.857,45.604l1.516-9.225c0.535-3.261-1.697-6.37-4.96-6.906c-3.265-0.536-6.372,1.696-6.908,4.959
					c0,0-19.643,43.707-11.642,50.261L58.525,98.34c8,6.559,28.286-4.852,28.545-5.172L102.314,74.566L102.314,74.566z"/>
				
					<rect x="21.373" y="90.455" transform="matrix(-0.7735 -0.6338 0.6338 -0.7735 16.7151 206.8895)" fill="none" stroke="#FF0000" stroke-width="5" stroke-linecap="round" stroke-linejoin="round" stroke-miterlimit="10" width="47.907" height="20.006"/>
			</g>
			<path fill="none" stroke="#FF0000" stroke-width="5" stroke-linecap="round" stroke-linejoin="round" stroke-miterlimit="10" d="
				M82.213,9.857c5-6.103,14.001-6.998,20.104-1.997c6.104,4.999,6.996,14.001,1.996,20.104"/>
		</g>
	</g>
</g>
<g id="Calque_2_2_">
</g>
<circle fill="none" stroke="#FF0000" stroke-width="5" stroke-linecap="round" stroke-linejoin="round" stroke-miterlimit="10" cx="90.862" cy="89.633" r="34.563"/>
<path id="path29_1_" fill="none" stroke="#FF0000" stroke-width="5" stroke-miterlimit="10" d="M61.682,122.648H13.381
	c-5.954,0-10.781-4.826-10.781-10.781V13.343c0-5.955,4.827-10.781,10.781-10.781h98.525c5.953,0,10.781,4.827,10.781,10.781V58.84"
	/>
<line id="line31" fill="none" stroke="#FF0000" stroke-width="12" stroke-miterlimit="10" x1="11.525" y1="22.944" x2="45.195" y2="22.944"/>
<line id="line33" fill="none" stroke="#FF0000" stroke-width="12" stroke-miterlimit="10" x1="44.319" y1="68.514" x2="55.145" y2="68.514"/>
<line id="line37" fill="none" stroke="#FF0000" stroke-width="12" stroke-miterlimit="10" x1="45.17" y1="41.627" x2="92.729" y2="41.627"/>
<path id="path2790" fill="none" stroke="#FF0000" d="M44.793,17.067l-0.072,57.404"/>
</svg>
