<?xml version="1.0" encoding="UTF-8" standalone="no"?>
<svg
   xmlns:dc="http://purl.org/dc/elements/1.1/"
   xmlns:cc="http://creativecommons.org/ns#"
   xmlns:rdf="http://www.w3.org/1999/02/22-rdf-syntax-ns#"
   xmlns:svg="http://www.w3.org/2000/svg"
   xmlns="http://www.w3.org/2000/svg"
   xmlns:sodipodi="http://sodipodi.sourceforge.net/DTD/sodipodi-0.dtd"
   xmlns:inkscape="http://www.inkscape.org/namespaces/inkscape"
   version="1.1"
   id="Calque_1"
   sodipodi:docname="iconEditBlack.svg"
   inkscape:version="1.0.1 (3bc2e813f5, 2020-09-07)"
   x="0px"
   y="0px"
   width="128px"
   height="128px"
   viewBox="0 0 128 128"
   enable-background="new 0 0 128 128"
   xml:space="preserve"><metadata
   id="metadata54"><rdf:RDF><cc:Work
       rdf:about=""><dc:format>image/svg+xml</dc:format><dc:type
         rdf:resource="http://purl.org/dc/dcmitype/StillImage" /></cc:Work></rdf:RDF></metadata><defs
   id="defs52" />
<sodipodi:namedview
   id="namedview88"
   gridtolerance="10"
   inkscape:cy="64"
   bordercolor="#666666"
   inkscape:cx="64"
   guidetolerance="10"
   showgrid="false"
   objecttolerance="10"
   borderopacity="1"
   inkscape:zoom="5.7421875"
   pagecolor="#ffffff"
   inkscape:window-height="1017"
   inkscape:pageopacity="0"
   inkscape:window-width="1920"
   inkscape:window-y="-8"
   inkscape:window-x="-8"
   inkscape:window-maximized="1"
   inkscape:current-layer="Calque_1"
   inkscape:pageshadow="2"
   inkscape:document-rotation="0">
	</sodipodi:namedview>
<g
   id="Calque_1_5_"
   style="stroke:#505050;stroke-opacity:1">
	<g
   id="Calque_1_2_"
   display="none"
   style="stroke:#505050;stroke-opacity:1">
		<g
   id="Calque_1_1_"
   display="inline"
   style="stroke:#505050;stroke-opacity:1">
		</g>
		
			<line
   id="line3"
   display="inline"
   fill="none"
   stroke="#FF0000"
   stroke-width="11"
   stroke-miterlimit="10"
   x1="5.1"
   y1="35.064"
   x2="58.226"
   y2="35.064"
   style="stroke:#505050;stroke-opacity:1" />
		
			<line
   id="line5"
   display="inline"
   fill="none"
   stroke="#FF0000"
   stroke-width="11"
   stroke-miterlimit="10"
   x1="58.226"
   y1="46.698"
   x2="86.372"
   y2="46.698"
   style="stroke:#505050;stroke-opacity:1" />
		
			<line
   id="line7"
   display="inline"
   fill="none"
   stroke="#FF0000"
   stroke-width="11"
   stroke-miterlimit="10"
   x1="17.83"
   y1="68.512"
   x2="45.601"
   y2="68.512"
   style="stroke:#505050;stroke-opacity:1" />
		
			<line
   id="line9"
   display="inline"
   fill="none"
   stroke="#FF0000"
   stroke-width="11"
   stroke-miterlimit="10"
   x1="45.601"
   y1="81.646"
   x2="68.682"
   y2="81.646"
   style="stroke:#505050;stroke-opacity:1" />
		
			<line
   id="line11"
   display="inline"
   fill="none"
   stroke="#FF0000"
   stroke-width="11"
   stroke-miterlimit="10"
   x1="67.805"
   y1="92.5"
   x2="113.844"
   y2="92.5"
   style="stroke:#505050;stroke-opacity:1" />
		<path
   id="path13"
   display="inline"
   fill="none"
   stroke="#FF0000"
   stroke-width="5"
   stroke-miterlimit="10"
   d="M124.111,105.398    c0,3.594-2.688,6.509-6.006,6.509H11.022c-3.316,0-6.004-2.915-6.004-6.509V15.383c0-3.594,2.688-6.507,6.004-6.507h107.083    c3.314,0,6.006,2.914,6.006,6.507V105.398z"
   style="stroke:#505050;stroke-opacity:1" />
	</g>
	<g
   id="Calque_1_3_"
   display="none"
   style="stroke:#505050;stroke-opacity:1">
	</g>
	<g
   id="Calque_3"
   display="none"
   style="stroke:#505050;stroke-opacity:1">
		<g
   id="Calque_2"
   display="inline"
   style="stroke:#505050;stroke-opacity:1">
			<g
   id="g25"
   style="stroke:#505050;stroke-opacity:1">
				<g
   id="g21"
   style="stroke:#505050;stroke-opacity:1">
					
						<path
   id="path17"
   fill="none"
   stroke="#FF0000"
   stroke-width="5"
   stroke-linecap="round"
   stroke-linejoin="round"
   stroke-miterlimit="10"
   d="       M102.314,74.566c2.097-2.561,1.719-6.362-0.838-8.459c-2.563-2.1-6.369-1.717-8.463,0.84l2.211-2.699       c2.098-2.559,1.719-6.365-0.844-8.462c-2.563-2.097-6.363-1.72-8.464,0.839l4.065-4.967c2.1-2.558,1.721-6.365-0.84-8.461       c-2.561-2.097-6.365-1.719-8.463,0.84L97.898,23.03c2.096-2.559,1.719-6.366-0.84-8.463c-2.563-2.096-6.367-1.717-8.463,0.842       L63.857,45.604l1.516-9.225c0.535-3.261-1.697-6.37-4.96-6.906c-3.265-0.536-6.372,1.696-6.908,4.959       c0,0-19.643,43.707-11.642,50.261L58.525,98.34c8,6.559,28.286-4.852,28.545-5.172L102.314,74.566L102.314,74.566z"
   style="stroke:#505050;stroke-opacity:1" />
					
						<rect
   id="rect19"
   x="21.373"
   y="90.455"
   transform="matrix(-0.7735 -0.6338 0.6338 -0.7735 16.7151 206.8895)"
   fill="none"
   stroke="#FF0000"
   stroke-width="5"
   stroke-linecap="round"
   stroke-linejoin="round"
   stroke-miterlimit="10"
   width="47.907"
   height="20.006"
   style="stroke:#505050;stroke-opacity:1" />
				</g>
				
					<path
   id="path23"
   fill="none"
   stroke="#FF0000"
   stroke-width="5"
   stroke-linecap="round"
   stroke-linejoin="round"
   stroke-miterlimit="10"
   d="      M82.213,9.857c5-6.103,14.001-6.998,20.104-1.997c6.104,4.999,6.996,14.001,1.996,20.104"
   style="stroke:#505050;stroke-opacity:1" />
			</g>
		</g>
	</g>
	<g
   id="Calque_1_4_"
   style="stroke:#505050;stroke-opacity:1">
		<g
   id="Calque_2_2_"
   display="none"
   style="stroke:#505050;stroke-opacity:1">
			<g
   id="g41"
   display="inline"
   style="stroke:#505050;stroke-opacity:1">
				<path
   id="path29"
   fill="none"
   d="M29.546,122.527c9.541,0,15.769-13.118,16.8-26.525H15.422      c-0.864,0.107-1.744,0.203-2.654,0.254C13.859,109.572,20.067,122.527,29.546,122.527z"
   style="stroke:#505050;stroke-opacity:1" />
				<path
   id="path31"
   fill="none"
   d="M57.818,133.346l-9.784-3.572l-15.653,8.869l-6.023-0.093l-15.726-8.772l-9.703,3.57      c-1.527,0.736-19.669,9.98-18.588,33.582c0.549,0.866,3.209,4.163,11.695,4.234c-0.268-4.467-0.73-14.439-0.159-23.18      l4.807,0.313c-0.615,9.418,0.032,20.686,0.249,23.939c5.576,4.937,17.249,7.934,30.737,7.813      c13.163-0.095,24.837-3.141,30.187-7.813c0.197-3.324,0.793-14.838,0.149-24.094l4.805-0.334      c0.604,8.631,0.183,18.822-0.063,23.349c8.39-0.072,11.063-3.315,11.655-4.251C77.471,143.354,59.391,134.104,57.818,133.346z"
   style="stroke:#505050;stroke-opacity:1" />
				<path
   id="path33"
   fill="#FF0000"
   d="M-0.141,96.002h6.316c0,0.003,0,0.005,0,0.006c-1.323,2.859-1.797,7.776,4.533,14.08      c3.425,9.826,9.799,17.258,18.838,17.258c8.864,0,15.404-7.589,18.897-17.658c5.919-6.123,5.419-10.888,4.121-13.686h6.32      c1.232,0,2.229-0.997,2.229-2.229c0-1.232-0.997-2.23-2.229-2.23h-2.982c0.016-0.34,0.022-0.682,0.022-1.023      c0-10.719-6.266-19.938-15.27-24.102c0.025,1.055,0.032,2.243,0.032,3.583v3.854c0,11.125-0.604,11.785-10.772,11.785      c-10.171,0-10.775-0.66-10.775-11.785V70c0-1.344,0.01-2.533,0.043-3.591C10.176,70.568,3.906,79.795,3.906,90.52      c0,0.347,0.031,0.685,0.047,1.022h-4.097c-1.23,0-2.229,0.998-2.229,2.229C-2.37,95.005-1.373,96.002-0.141,96.002z       M15.422,96.002h30.922c-1.031,13.407-7.257,26.525-16.799,26.525c-9.48,0-15.688-12.955-16.778-26.271      C13.678,96.205,14.558,96.109,15.422,96.002z"
   style="stroke:#505050;stroke-opacity:1" />
				<path
   id="path35"
   fill="#FF0000"
   d="M59.756,128.934l-14.412-5.271l-12.856,7.521h-6.309l-12.859-7.527l-14.155,5.203      l-0.176,0.072c-0.232,0.105-23.006,10.928-21.435,38.756l0.021,0.358l0.122,0.336c0.121,0.324,2.95,7.606,16.611,7.606      c0.506,0,1.034-0.014,1.572-0.034c6.475,5.62,18.664,8.922,33.131,8.922c0.232,0,0.462-0.002,0.694-0.002      c11.348-0.079,25.756-2.488,33.211-8.919c14.964,0.554,18-7.236,18.125-7.575l0.123-0.334l0.023-0.358      C82.758,139.861,59.985,129.04,59.756,128.934z M76.4,166.911c-0.592,0.937-3.271,4.178-11.654,4.249      c0.244-4.521,0.666-14.717,0.066-23.348l-4.811,0.336c0.646,9.254,0.052,20.769-0.146,24.092      c-5.348,4.674-17.023,7.717-30.187,7.813c-13.488,0.117-25.162-2.881-30.737-7.813c-0.216-3.262-0.864-14.521-0.249-23.939      l-4.807-0.313c-0.571,8.736-0.109,18.709,0.159,23.18c-8.486-0.068-11.146-3.367-11.695-4.232      c-1.08-23.605,17.062-32.854,18.589-33.586l9.703-3.57l15.726,8.773l6.022,0.092l15.654-8.871l9.783,3.57      C59.391,134.104,77.471,143.354,76.4,166.911z"
   style="stroke:#505050;stroke-opacity:1" />
				<path
   id="path37"
   fill="#FF0000"
   d="M37.951,65.346c-0.083-1.788-0.283-2.979-0.78-3.535c-0.781-0.877-3.145-0.919-7.255-0.919      c-4.051,0-6.484,0-7.264,0.865c-0.495,0.548-0.693,1.757-0.775,3.589c2.532-0.835,5.229-1.294,8.034-1.294      C32.721,64.052,35.419,64.509,37.951,65.346z"
   style="stroke:#505050;stroke-opacity:1" />
				<path
   id="path39"
   fill="#FF0000"
   d="M21.82,73.854c0,4.566,0,7.321,0.834,8.244c0.781,0.865,3.22,0.865,7.262,0.865      s6.483,0,7.261-0.865c0.836-0.923,0.836-3.678,0.836-8.244V70c0-1.861-0.004-3.4-0.064-4.654      c-2.532-0.835-5.232-1.294-8.039-1.294c-2.805,0-5.503,0.459-8.035,1.294c-0.055,1.256-0.059,2.801-0.059,4.654v3.854H21.82z"
   style="stroke:#505050;stroke-opacity:1" />
			</g>
		</g>
		<g
   id="Calque_3_2_"
   display="none"
   style="stroke:#505050;stroke-opacity:1">
			<g
   id="g46"
   display="inline"
   style="stroke:#505050;stroke-opacity:1">
				<path
   id="path44"
   fill="#FF0000"
   d="M44.534,92.829c3.835-18.361-7.883-28.715-23.138-28.715      c-27.344,0-22.572,29.96-22.572,29.96c0.03,0.003,0.059,0.004,0.089,0.007c-1.249,2.823-1.618,7.563,4.31,13.606      c3.387,9.91,9.763,17.436,18.84,17.436c8.744,0,15.212-7.419,18.708-17.313C47.83,100.691,46.163,95.373,44.534,92.829z       M22.062,120.33c-9.435,0-15.613-12.893-16.698-26.145c11.859-0.699,19.71-6.317,23.93-10.439      c2.008,3.607,6.161,6.027,9.621,7.505C38.569,105.467,32.191,120.33,22.062,120.33z"
   style="stroke:#505050;stroke-opacity:1" />
			</g>
			<g
   id="g58"
   display="inline"
   style="stroke:#505050;stroke-opacity:1">
				<path
   id="path48"
   fill="none"
   d="M16.806,175.893c-0.821-0.258-1.502-0.899-1.766-1.769L1.191,128.428      c-0.234-0.777-0.099-1.585,0.314-2.219l-8.607,3.165c-1.25,0.603-21.152,10.594-19.747,35.938      c0.224,0.521,2.767,5.795,14.013,5.795c0.466-0.002,0.958-0.021,1.459-0.034c0.035-0.003,0.071-0.003,0.106-0.003      c0.64,0,1.261,0.229,1.745,0.654c5.199,4.51,14.798,7.428,26.247,8.084l-0.199-0.203L16.806,175.893z"
   style="stroke:#505050;stroke-opacity:1" />
				<path
   id="path50"
   fill="none"
   d="M51.255,129.395l-8.458-3.107c0.407,0.636,0.545,1.438,0.31,2.214l-13.998,46.19      c-0.26,0.867-0.938,1.509-1.756,1.766l0.239,3.146l-0.141,0.146c9.617-0.65,20.406-2.992,26.251-8.029      c0.509-0.438,1.163-0.654,1.839-0.646c0.482,0.021,0.954,0.03,1.411,0.03c11.178-0.002,13.762-5.215,14.014-5.797      C72.355,140.27,52.941,130.217,51.255,129.395z"
   style="stroke:#505050;stroke-opacity:1" />
				<path
   id="path52"
   fill="#FF0000"
   d="M53.4,124.518c-0.063-0.025-0.123-0.055-0.188-0.078l-13.757-5.063      c-1.345-0.495-2.84,0.164-3.383,1.488l-1.82,4.435c-0.276,0.671-0.267,1.423,0.023,2.089c0.291,0.659,0.84,1.178,1.52,1.426      l1.484,0.547l-8.917,29.43l-0.917-16.037c-0.013-0.243-0.061-0.479-0.136-0.701l2.46-3.488c0.462-0.655,0.604-1.48,0.388-2.254      c-0.045-0.16-0.053-0.188-1.723-4.517c-0.422-1.096-1.499-1.776-2.66-1.7c-0.281,0.012-1.643,0.018-3.712,0.018      c-2.072,0-3.433-0.006-3.715-0.018c-1.154-0.088-2.234,0.604-2.658,1.692c-2.052,5.276-2.052,5.276-1.606,6.303      c0.073,0.169,0.162,0.322,0.268,0.476l2.462,3.488c-0.075,0.225-0.123,0.458-0.136,0.701l-0.886,15.477l-8.768-28.934      l1.322-0.482c0.681-0.252,1.231-0.77,1.522-1.434c0.29-0.663,0.298-1.418,0.021-2.091l-1.836-4.435      c-0.549-1.318-2.043-1.974-3.381-1.479l-13.588,4.996c-0.033,0.01-0.064,0.021-0.095,0.035l-0.176,0.068      c-0.034,0.019-0.065,0.027-0.096,0.043c-0.245,0.111-24.545,11.604-22.877,41.143l0.021,0.354      c0.015,0.264,0.068,0.521,0.158,0.771l0.123,0.331c0.35,0.951,3.851,9.318,19.034,9.318c0.209,0,0.421-0.004,0.637-0.01      c7.123,5.637,19.38,8.85,33.883,8.85h0.011l0.707-0.002c5.464-0.039,23.702-0.805,33.951-8.846      c0.198,0.004,0.398,0.008,0.59,0.008c15.202-0.004,18.685-8.375,19.03-9.326l0.123-0.332c0.09-0.239,0.143-0.495,0.154-0.756      l0.021-0.355C77.953,136.079,53.646,124.627,53.4,124.518z M16.523,136.816c-0.008-0.021,1.646-4.273,1.646-4.273      c0.194,0.027,7.586,0.027,7.779,0c0,0,1.625,4.209,1.642,4.273l-2.629,3.733h-5.806L16.523,136.816z M70.963,165.309      c-0.252,0.582-2.834,5.795-14.013,5.797c-0.451,0-0.929-0.017-1.411-0.029c-0.674-0.012-1.329,0.201-1.839,0.645      c-5.846,5.038-16.633,7.381-26.251,8.03l-5.392,3.442l-5.335-3.387c-11.449-0.654-21.048-3.572-26.247-8.086      c-0.484-0.422-1.104-0.652-1.745-0.652c-0.035,0-0.073,0.004-0.106,0.005c-0.502,0.021-0.994,0.028-1.459,0.03      c-11.246,0-13.79-5.271-14.013-5.793c-1.404-25.338,18.497-35.334,19.748-35.936l8.606-3.165      c-0.412,0.638-0.548,1.442-0.313,2.22l13.847,45.698c0.264,0.866,0.947,1.508,1.768,1.765l2.525-33.191h5.453l2.567,33.754      c0.818-0.258,1.496-0.896,1.754-1.766l14-46.191c0.233-0.773,0.099-1.579-0.312-2.213l8.46,3.107      C52.941,130.217,72.355,140.27,70.963,165.309z"
   style="stroke:#505050;stroke-opacity:1" />
				<path
   id="path54"
   fill="#FFFFFF"
   d="M23.58,138.091l1.018-1.444c-0.148-0.385-0.312-0.813-0.469-1.219      c-0.535,0.002-1.211,0.002-2.067,0.002c-0.861,0-1.538,0-2.075-0.002c-0.168,0.439-0.331,0.854-0.469,1.215l1.021,1.448H23.58z"
   style="stroke:#505050;stroke-opacity:1" />
				<path
   id="path56"
   fill="#FFFFFF"
   d="M24.961,140.552l2.63-3.735c-0.019-0.063-1.644-4.271-1.644-4.271      c-0.193,0.025-7.584,0.025-7.778,0c0,0-1.654,4.255-1.646,4.271l2.633,3.735H24.961z"
   style="stroke:#505050;stroke-opacity:1" />
			</g>
			<g
   id="g66"
   display="inline"
   style="stroke:#505050;stroke-opacity:1">
				<path
   id="path60"
   fill="#FF0000"
   d="M56.377,80.73c0,0.514-0.415,0.931-0.93,0.931h-4.074c-0.516,0-0.931-0.417-0.931-0.931      v-4.074c0-0.516,0.416-0.932,0.931-0.932h4.074c0.515,0,0.93,0.416,0.93,0.932V80.73z"
   style="stroke:#505050;stroke-opacity:1" />
				<path
   id="path62"
   fill="#FF0000"
   d="M65.049,80.73c0,0.514-0.414,0.931-0.931,0.931h-4.073c-0.517,0-0.932-0.417-0.932-0.931      v-4.074c0-0.516,0.415-0.932,0.932-0.932h4.073c0.517,0,0.931,0.416,0.931,0.932V80.73z"
   style="stroke:#505050;stroke-opacity:1" />
				<path
   id="path64"
   fill="#FF0000"
   d="M73.662,80.73c0,0.514-0.416,0.931-0.934,0.931h-4.07c-0.516,0-0.932-0.417-0.932-0.931      v-4.074c0-0.516,0.416-0.932,0.932-0.932h4.07c0.518,0,0.934,0.416,0.934,0.932V80.73L73.662,80.73z"
   style="stroke:#505050;stroke-opacity:1" />
			</g>
			<g
   id="g72"
   display="inline"
   style="stroke:#505050;stroke-opacity:1">
				<path
   id="path68"
   fill="none"
   d="M45.631,91.782c0,0.415-0.011,0.823-0.026,1.237h8.96v10.973l8.937-10.973h24.143V64.367      H36.464v4.638C42.074,74.497,45.631,82.66,45.631,91.782z"
   style="stroke:#505050;stroke-opacity:1" />
				<path
   id="path70"
   fill="#FF0000"
   d="M89.576,59.296h-55.05c-1.755,0-3.132,1.482-3.132,3.374v3.571      c1.824,1.071,3.526,1.251,5.071,2.765v-4.639h51.174V93.02H63.501l-8.938,10.976V93.02L44.534,92.83      c-0.063,1.73,0.82,3.615,0.513,5.262h4.445v20.16l16.418-20.16h23.666c1.758,0,3.135-1.482,3.135-3.374V62.67      C92.709,60.776,91.334,59.296,89.576,59.296z"
   style="stroke:#505050;stroke-opacity:1" />
			</g>
		</g>
	</g>
</g>
<g
   id="Calque_3_3_"
   style="stroke:#505050;stroke-opacity:1">
	
		<line
   id="line77"
   fill="none"
   stroke="#FF0000"
   stroke-width="5"
   stroke-miterlimit="10"
   x1="51.303"
   y1="106.105"
   x2="24.78"
   y2="78.38"
   style="stroke:#505050;stroke-opacity:1" />
</g>
<g
   id="Calque_2_1_"
   transform="matrix(1.1751916,0,0,1.1766218,-13.028046,-8.1067891)"
   style="stroke:#505050;stroke-opacity:1">
	
		<line
   id="line80"
   fill="none"
   stroke="#FF0000"
   stroke-width="4.252"
   stroke-miterlimit="10"
   x1="81.468"
   y1="22.835"
   x2="24.78"
   y2="78.38"
   style="stroke:#505050;stroke-opacity:1" />
	<path
   id="path82"
   fill="none"
   stroke="#FF0000"
   stroke-width="4.252"
   stroke-miterlimit="10"
   d="M105.435,47.397L81.063,23.025   l7.763-7.761c2.56-2.561,6.713-2.56,9.271,0l15.101,15.101c2.561,2.56,2.561,6.71,0,9.271L105.435,47.397z"
   style="stroke:#505050;stroke-opacity:1" />
	
		<polyline
   id="polyline84"
   fill="none"
   stroke="#FF0000"
   stroke-width="4.252"
   stroke-linecap="round"
   stroke-linejoin="round"
   stroke-miterlimit="10"
   points="   24.78,78.38 18.714,109.006 48.748,102.939 105.435,47.397  "
   style="stroke:#505050;stroke-opacity:1" />
</g>
</svg>
