<?xml version="1.0" encoding="utf-8"?>
<!-- Generator: Adobe Illustrator 16.0.0, SVG Export Plug-In . SVG Version: 6.00 Build 0)  -->
<!DOCTYPE svg PUBLIC "-//W3C//DTD SVG 1.1//EN" "http://www.w3.org/Graphics/SVG/1.1/DTD/svg11.dtd">
<svg version="1.1"
	 id="svg7" xmlns:svg="http://www.w3.org/2000/svg" xmlns:inkscape="http://www.inkscape.org/namespaces/inkscape" xmlns:rdf="http://www.w3.org/1999/02/22-rdf-syntax-ns#" xmlns:sodipodi="http://sodipodi.sourceforge.net/DTD/sodipodi-0.dtd" xmlns:cc="http://creativecommons.org/ns#" xmlns:dc="http://purl.org/dc/elements/1.1/" inkscape:version="1.0 (4035a4fb49, 2020-05-01)" sodipodi:docname="iconOrganization.svg"
	 xmlns="http://www.w3.org/2000/svg" xmlns:xlink="http://www.w3.org/1999/xlink" x="0px" y="0px" width="128px" height="128px"
	 viewBox="0 0 128 128" enable-background="new 0 0 128 128" xml:space="preserve">
<sodipodi:namedview  objecttolerance="10" inkscape:cy="25" gridtolerance="10" pagecolor="#ffffff" inkscape:zoom="14.7" showgrid="false" guidetolerance="10" inkscape:cx="25" borderopacity="1" bordercolor="#666666" id="namedview9" inkscape:window-maximized="1" inkscape:pageopacity="0" inkscape:window-height="1017" inkscape:window-width="1920" inkscape:window-x="-8" inkscape:window-y="-8" inkscape:pageshadow="2" inkscape:current-layer="svg7">
	</sodipodi:namedview>
<g id="g5">
</g>
<g>
	
		<polyline fill="none" stroke="#FF0000" stroke-width="5" stroke-linecap="round" stroke-linejoin="round" stroke-miterlimit="10" points="
		74.361,43.905 86.406,43.905 86.406,67.994 74.361,67.994 	"/>
	
		<rect x="62.315" y="101.41" fill="none" stroke="#FF0000" stroke-width="5" stroke-linecap="round" stroke-linejoin="round" stroke-miterlimit="10" width="24.091" height="24.091"/>
	
		<rect x="101.323" y="101.41" fill="none" stroke="#FF0000" stroke-width="5" stroke-linecap="round" stroke-linejoin="round" stroke-miterlimit="10" width="24.09" height="24.091"/>
	
		<rect x="23.307" y="101.41" fill="none" stroke="#FF0000" stroke-width="5" stroke-linecap="round" stroke-linejoin="round" stroke-miterlimit="10" width="24.092" height="24.091"/>
	
		<line fill="none" stroke="#FF0000" stroke-width="5" stroke-linecap="round" stroke-linejoin="round" stroke-miterlimit="10" x1="74.361" y1="67.994" x2="74.361" y2="101.41"/>
	
		<line fill="none" stroke="#FF0000" stroke-width="5" stroke-linecap="round" stroke-linejoin="round" stroke-miterlimit="10" x1="35.354" y1="84.702" x2="113.37" y2="84.702"/>
	
		<line fill="none" stroke="#FF0000" stroke-width="5" stroke-linecap="round" stroke-linejoin="round" stroke-miterlimit="10" x1="113.37" y1="84.702" x2="113.37" y2="101.41"/>
	
		<line fill="none" stroke="#FF0000" stroke-width="5" stroke-linecap="round" stroke-linejoin="round" stroke-miterlimit="10" x1="35.354" y1="84.702" x2="35.354" y2="101.41"/>
</g>
<path fill="#FF0000" d="M68.297,3.113H6.047c-1.657,0-3,1.343-3,3v62.25c0,1.656,1.343,3,3,3h62.25c1.656,0,3-1.344,3-3V6.113
	C71.297,4.456,69.953,3.113,68.297,3.113z M18.276,56.685c-2.768,0-5.011-2.241-5.011-5.01s2.243-5.011,5.011-5.011
	c2.767,0,5.01,2.242,5.01,5.011S21.043,56.685,18.276,56.685z M18.276,41.447c-2.768,0-5.011-2.242-5.011-5.01
	s2.243-5.011,5.011-5.011c2.767,0,5.01,2.243,5.01,5.011C23.286,39.203,21.043,41.447,18.276,41.447z M18.276,26.21
	c-2.768,0-5.011-2.244-5.011-5.01c0-2.768,2.243-5.012,5.011-5.012c2.767,0,5.01,2.244,5.01,5.012
	C23.286,23.966,21.043,26.21,18.276,26.21z M56.903,55.833H33.176c-2.305,0-4.174-1.87-4.174-4.177c0-2.306,1.869-4.176,4.174-4.176
	h23.727c2.307,0,4.176,1.87,4.176,4.176C61.079,53.963,59.209,55.833,56.903,55.833z M56.903,40.595H33.176
	c-2.305,0-4.174-1.869-4.174-4.176c0-2.305,1.869-4.175,4.174-4.175h23.727c2.307,0,4.176,1.87,4.176,4.175
	C61.079,38.726,59.209,40.595,56.903,40.595z M56.903,25.357H33.176c-2.305,0-4.174-1.869-4.174-4.175
	c0-2.306,1.869-4.175,4.174-4.175h23.727c2.307,0,4.176,1.869,4.176,4.175C61.079,23.488,59.209,25.357,56.903,25.357z"/>
</svg>
