<?xml version="1.0" encoding="utf-8"?>
<!-- Generator: Adobe Illustrator 16.0.0, SVG Export Plug-In . SVG Version: 6.00 Build 0)  -->
<!DOCTYPE svg PUBLIC "-//W3C//DTD SVG 1.1//EN" "http://www.w3.org/Graphics/SVG/1.1/DTD/svg11.dtd">
<svg version="1.1" id="Calque_1" xmlns="http://www.w3.org/2000/svg" xmlns:xlink="http://www.w3.org/1999/xlink" x="0px" y="0px"
	 width="128px" height="128px" viewBox="0 0 128 128" enable-background="new 0 0 128 128" xml:space="preserve">
<path fill="none" stroke="#FF0000" stroke-width="5" stroke-miterlimit="10" d="M123.191,64.036c0,32.782-26.576,59.36-59.357,59.36
	c-32.783,0-59.358-26.578-59.358-59.36c0-32.781,26.576-59.358,59.358-59.358C96.615,4.678,123.191,31.255,123.191,64.036z"/>
<circle fill="none" stroke="#FF0000" stroke-width="5" stroke-miterlimit="10" cx="63.834" cy="61.557" r="12.733"/>
<line fill="none" stroke="#FF0000" stroke-width="5" stroke-linecap="round" stroke-miterlimit="10" x1="76.566" y1="57.249" x2="106.309" y2="44.871"/>
<line fill="none" stroke="#FF0000" stroke-width="5" stroke-linecap="round" stroke-miterlimit="10" x1="34.046" y1="74.289" x2="51.532" y2="67.012"/>
<line fill="none" stroke="#FF0000" stroke-width="5" stroke-linecap="round" stroke-miterlimit="10" x1="63.834" y1="4.678" x2="63.834" y2="16.772"/>
<line fill="none" stroke="#FF0000" stroke-width="5" stroke-linecap="round" stroke-miterlimit="10" x1="105.809" y1="22.063" x2="97.257" y2="30.613"/>
<line fill="none" stroke="#FF0000" stroke-width="5" stroke-linecap="round" stroke-miterlimit="10" x1="123.195" y1="64.037" x2="111.1" y2="64.033"/>
<line fill="none" stroke="#FF0000" stroke-width="5" stroke-linecap="round" stroke-miterlimit="10" x1="105.811" y1="106.01" x2="97.262" y2="97.456"/>
<line fill="none" stroke="#FF0000" stroke-width="5" stroke-linecap="round" stroke-miterlimit="10" x1="63.836" y1="123.396" x2="63.838" y2="111.305"/>
<line fill="none" stroke="#FF0000" stroke-width="5" stroke-linecap="round" stroke-miterlimit="10" x1="21.863" y1="106.01" x2="30.415" y2="97.46"/>
<line fill="none" stroke="#FF0000" stroke-width="5" stroke-linecap="round" stroke-miterlimit="10" x1="4.478" y1="64.037" x2="16.568" y2="64.039"/>
<line fill="none" stroke="#FF0000" stroke-width="5" stroke-linecap="round" stroke-miterlimit="10" x1="21.863" y1="22.064" x2="30.412" y2="30.615"/>
</svg>
