<?xml version="1.0" encoding="utf-8"?>
<!-- Generator: Adobe Illustrator 16.0.0, SVG Export Plug-In . SVG Version: 6.00 Build 0)  -->
<!DOCTYPE svg PUBLIC "-//W3C//DTD SVG 1.1//EN" "http://www.w3.org/Graphics/SVG/1.1/DTD/svg11.dtd">
<svg version="1.1"
	 id="Layer_1" xmlns:cc="http://creativecommons.org/ns#" xmlns:dc="http://purl.org/dc/elements/1.1/" xmlns:inkscape="http://www.inkscape.org/namespaces/inkscape" xmlns:rdf="http://www.w3.org/1999/02/22-rdf-syntax-ns#" xmlns:sodipodi="http://sodipodi.sourceforge.net/DTD/sodipodi-0.dtd" xmlns:svg="http://www.w3.org/2000/svg" inkscape:version="1.0 (4035a4fb49, 2020-05-01)" sodipodi:docname="iconTicket.svg"
	 xmlns="http://www.w3.org/2000/svg" xmlns:xlink="http://www.w3.org/1999/xlink" x="0px" y="0px" width="128px" height="128px"
	 viewBox="0 0 128 128" enable-background="new 0 0 128 128" xml:space="preserve">
<sodipodi:namedview  id="namedview27" inkscape:zoom="14.75" bordercolor="#666666" guidetolerance="10" objecttolerance="10" borderopacity="1" showgrid="false" inkscape:cx="22.296444" pagecolor="#ffffff" inkscape:cy="24.881783" gridtolerance="10" inkscape:snap-global="false" inkscape:document-rotation="0" inkscape:window-width="1920" inkscape:window-height="1017" inkscape:pageshadow="2" inkscape:window-maximized="1" inkscape:window-x="-8" inkscape:current-layer="Layer_1" inkscape:pageopacity="0" inkscape:window-y="-8">
	</sodipodi:namedview>
<g>
	<path fill="none" stroke="#FF0000" stroke-width="5" stroke-linecap="round" stroke-linejoin="round" stroke-miterlimit="10" d="
		M104.028,82.59c-4.921,0-8.91-3.988-8.91-8.907c0-4.92,3.989-8.908,8.91-8.908c4.917,0,8.907,3.988,8.907,8.908
		C112.936,78.602,108.945,82.59,104.028,82.59z"/>
	<path fill="none" stroke="#FF0000" stroke-width="5" stroke-linecap="round" stroke-linejoin="round" stroke-miterlimit="10" d="
		M95.328,101.319c15.262,0,27.639-12.373,27.639-27.637c0-15.265-12.377-27.638-27.639-27.638c-10.741,0-20.032,6.141-24.606,15.093
		h-9.169l-7.833,7.834l-8.435-8.431L38.2,67.627l-6.45-6.45l-6.935,6.936l-7.136-7.137L5.343,73.313l13.096,13.094h52.357v-0.027
		C75.397,95.249,84.645,101.319,95.328,101.319z"/>
</g>
</svg>
