<?xml version="1.0" encoding="utf-8"?>
<!-- Generator: Adobe Illustrator 16.0.0, SVG Export Plug-In . SVG Version: 6.00 Build 0)  -->
<!DOCTYPE svg PUBLIC "-//W3C//DTD SVG 1.1//EN" "http://www.w3.org/Graphics/SVG/1.1/DTD/svg11.dtd">
<svg version="1.1" id="Calque_1" xmlns="http://www.w3.org/2000/svg" xmlns:xlink="http://www.w3.org/1999/xlink" x="0px" y="0px"
	 width="128px" height="128px" viewBox="0 0 128 128" enable-background="new 0 0 128 128" xml:space="preserve">
<path fill="none" stroke="#FF0000" stroke-width="5" stroke-miterlimit="10" d="M122.479,114.452c0,5.269-4.469,9.538-9.979,9.538
	H14.69c-5.512,0-9.98-4.27-9.98-9.538V13.36c0-5.268,4.468-9.537,9.98-9.537h97.808c5.514,0,9.98,4.271,9.98,9.537V114.452
	L122.479,114.452z"/>
<circle fill="#FF0000" cx="22.75" cy="20.25" r="7.25"/>
<circle fill="#FF0000" cx="43.75" cy="20.25" r="7.25"/>
<circle fill="#FF0000" cx="63" cy="20.25" r="7.25"/>
<line fill="none" stroke="#FF0000" stroke-width="5" stroke-miterlimit="10" x1="4.71" y1="33.5" x2="122.479" y2="33.5"/>
<path fill="none" stroke="#FF0000" stroke-width="5" stroke-linecap="round" stroke-linejoin="round" stroke-miterlimit="10" d="
	M63.595,109.498c-17.479,0-31.702-14.223-31.702-31.699c0-17.481,14.222-31.702,31.702-31.702c17.48,0,31.701,14.221,31.701,31.702
	C95.295,95.275,81.075,109.498,63.595,109.498z"/>
<path fill="none" stroke="#FF0000" stroke-width="5" stroke-linecap="round" stroke-linejoin="round" stroke-miterlimit="10" d="
	M63.595,97.307c-10.758,0-19.511-8.754-19.511-19.512s8.754-19.51,19.511-19.51s19.51,8.753,19.51,19.51
	C83.104,88.557,74.352,97.307,63.595,97.307z"/>
<circle fill="#FF0000" cx="63.595" cy="77.799" r="6.215"/>
</svg>
