<?xml version="1.0" encoding="utf-8"?>
<!-- Generator: Adobe Illustrator 16.0.0, SVG Export Plug-In . SVG Version: 6.00 Build 0)  -->
<!DOCTYPE svg PUBLIC "-//W3C//DTD SVG 1.1//EN" "http://www.w3.org/Graphics/SVG/1.1/DTD/svg11.dtd">
<svg version="1.1" xmlns="http://www.w3.org/2000/svg" xmlns:xlink="http://www.w3.org/1999/xlink" x="0px" y="0px" width="128px"
	 height="128px" viewBox="0 0 128 128" enable-background="new 0 0 128 128" xml:space="preserve">
<g id="Calque_3">
	<g>
		<g>
			<path fill="none" stroke="#FF0000" stroke-width="3" stroke-linecap="round" stroke-linejoin="round" stroke-miterlimit="10" d="
				M71.297,37.824c-7.661-4-16.522-3.331-23.331,0.986l6.721,10.583c3.154-2,7.26-2.312,10.808-0.457L71.297,37.824z"/>
			<path fill="none" stroke="#FF0000" stroke-width="3" stroke-linecap="round" stroke-linejoin="round" stroke-miterlimit="10" d="
				M37.156,59.511c0.349,8.056,4.864,15.708,12.525,19.709l5.803-11.11c-3.547-1.854-5.639-5.396-5.802-9.125L37.156,59.511z"/>
			<path fill="none" stroke="#FF0000" stroke-width="3" stroke-linecap="round" stroke-linejoin="round" stroke-miterlimit="10" d="
				M73.012,78.234c3.352-2.124,6.208-5.135,8.176-8.905c1.97-3.771,2.806-7.833,2.635-11.801l-12.526,0.535
				c0.079,1.836-0.308,3.717-1.221,5.463c-0.91,1.747-2.231,3.14-3.784,4.125L73.012,78.234z"/>
		</g>
		
			<circle fill="none" stroke="#FF0000" stroke-width="3" stroke-linecap="round" stroke-linejoin="round" stroke-miterlimit="10" cx="60.489" cy="58.523" r="6.479"/>
	</g>
	<path fill="none" stroke="#FF0000" stroke-width="5" stroke-linecap="round" stroke-linejoin="round" stroke-miterlimit="10" d="
		M73.028,38.7"/>
</g>
<g id="Calque_2_1_">
	<circle fill="none" stroke="#FF0000" stroke-width="5" stroke-miterlimit="10" cx="96.822" cy="21.789" r="11.036"/>
	<circle fill="none" stroke="#FF0000" stroke-width="5" stroke-miterlimit="10" cx="111.589" cy="58.227" r="11.037"/>
	<circle fill="none" stroke="#FF0000" stroke-width="5" stroke-miterlimit="10" cx="60.141" cy="109.82" r="11.037"/>
	<circle fill="none" stroke="#FF0000" stroke-width="5" stroke-miterlimit="10" cx="15.986" cy="32.827" r="11.037"/>
	<path fill="none" stroke="#FF0000" stroke-width="5" stroke-miterlimit="10" d="M30.626,48.762
		c-0.95,2.984-1.462,6.165-1.462,9.465c0,17.215,13.956,31.17,31.17,31.17v5.137"/>
	<path fill="none" stroke="#FF0000" stroke-width="5" stroke-miterlimit="10" d="M67.759,88.509
		c13.631-3.332,23.746-15.626,23.746-30.282h5.317"/>
	<path fill="none" stroke="#FF0000" stroke-width="5" stroke-miterlimit="10" d="M90.688,51.105
		c-1.369-5.854-4.387-11.074-8.537-15.14l3.953-3.955"/>
	<path fill="none" stroke="#FF0000" stroke-width="5" stroke-miterlimit="10" d="M75.496,30.986
		c-4.487-2.503-9.658-3.93-15.162-3.93c-11.399,0-21.37,6.119-26.805,15.252l-5.182-2.958"/>
</g>
</svg>
