<?xml version="1.0" encoding="utf-8"?>
<!-- Generator: Adobe Illustrator 16.0.0, SVG Export Plug-In . SVG Version: 6.00 Build 0)  -->
<!DOCTYPE svg PUBLIC "-//W3C//DTD SVG 1.1//EN" "http://www.w3.org/Graphics/SVG/1.1/DTD/svg11.dtd">
<svg version="1.1" id="Calque_1" xmlns="http://www.w3.org/2000/svg" xmlns:xlink="http://www.w3.org/1999/xlink" x="0px" y="0px"
	 width="128px" height="128px" viewBox="0 0 128 128" enable-background="new 0 0 128 128" xml:space="preserve">
<g id="Calque_2">
	<g>
		<path fill="#FF0000" d="M126.301,62.458c-0.033-0.592-0.081-1.19-0.121-1.782c-0.029-0.312-0.047-0.625-0.077-0.939
			C123.268,28.702,97.102,4.305,65.338,4.305v122.069c31.772,0,57.933-24.399,60.765-55.438c0.034-0.305,0.044-0.604,0.077-0.9
			c0.04-0.605,0.09-1.216,0.121-1.818c0.052-0.959,0.071-1.913,0.071-2.878C126.372,64.378,126.353,63.417,126.301,62.458z
			 M84.176,12.961c0.37,0.13,0.738,0.275,1.101,0.416c0.469,0.181,0.937,0.358,1.401,0.554c0.362,0.147,0.727,0.315,1.088,0.476
			c0.451,0.198,0.904,0.398,1.348,0.61c0.36,0.173,0.719,0.352,1.076,0.531c0.433,0.217,0.866,0.436,1.297,0.667
			c0.357,0.188,0.707,0.39,1.063,0.585c0.413,0.237,0.833,0.474,1.241,0.721c0.351,0.209,0.693,0.422,1.04,0.639
			c0.402,0.25,0.806,0.507,1.202,0.769c0.34,0.226,0.677,0.457,1.014,0.691c0.392,0.27,0.771,0.538,1.152,0.819
			c0.326,0.243,0.655,0.493,0.984,0.743c0.368,0.282,0.738,0.572,1.099,0.864c0.32,0.258,0.644,0.527,0.957,0.791
			c0.356,0.3,0.707,0.601,1.055,0.912c0.314,0.276,0.611,0.558,0.92,0.838c0.337,0.317,0.679,0.635,1.004,0.959
			c0.301,0.291,0.594,0.585,0.883,0.886c0.324,0.327,0.642,0.66,0.961,0.999c0.284,0.31,0.565,0.614,0.845,0.93
			c0.309,0.342,0.606,0.688,0.903,1.04c0.271,0.32,0.538,0.646,0.808,0.971c0.286,0.354,0.568,0.717,0.846,1.079
			c0.257,0.333,0.515,0.673,0.766,1.007c0.271,0.373,0.533,0.748,0.798,1.125c0.241,0.344,0.482,0.686,0.716,1.042
			c0.252,0.386,0.5,0.773,0.747,1.163c0.222,0.357,0.447,0.712,0.667,1.076c0.235,0.395,0.467,0.798,0.688,1.202
			c0.208,0.367,0.415,0.734,0.612,1.106c0.224,0.41,0.428,0.826,0.64,1.239c0.189,0.375,0.383,0.753,0.563,1.138
			c0.084,0.173,0.158,0.357,0.24,0.538H99.01c-3.024-12.25-8.358-22.497-15.09-29.215C84.006,12.9,84.092,12.928,84.176,12.961z
			 M68.023,9.889c11.348,1.75,20.957,14.465,25.524,32.196H68.023V9.889z M68.023,47.451H94.75
			c1.06,5.614,1.652,11.631,1.652,17.888c0,6.251-0.593,12.256-1.652,17.879H68.023V47.451z M68.023,120.786V88.58h25.527
			C88.985,106.315,79.371,119.033,68.023,120.786z M115.657,89.13c-0.18,0.383-0.373,0.763-0.563,1.139
			c-0.212,0.416-0.416,0.83-0.64,1.24c-0.197,0.37-0.404,0.738-0.612,1.102c-0.226,0.403-0.453,0.812-0.688,1.209
			c-0.22,0.356-0.445,0.714-0.667,1.07c-0.247,0.392-0.491,0.776-0.747,1.162c-0.233,0.353-0.475,0.697-0.716,1.044
			c-0.265,0.38-0.527,0.754-0.798,1.118c-0.251,0.347-0.504,0.685-0.766,1.02c-0.277,0.363-0.56,0.723-0.85,1.074
			c-0.266,0.327-0.533,0.653-0.804,0.97c-0.299,0.35-0.597,0.696-0.903,1.047c-0.279,0.311-0.561,0.613-0.845,0.925
			c-0.319,0.338-0.632,0.674-0.961,0.995c-0.289,0.303-0.588,0.593-0.883,0.883c-0.325,0.327-0.667,0.646-1.004,0.963
			c-0.309,0.285-0.607,0.567-0.92,0.847c-0.348,0.308-0.698,0.604-1.055,0.909c-0.313,0.268-0.635,0.527-0.957,0.793
			c-0.36,0.289-0.73,0.58-1.099,0.864c-0.329,0.25-0.658,0.5-0.984,0.744c-0.381,0.275-0.769,0.545-1.152,0.819
			c-0.337,0.234-0.674,0.468-1.014,0.692c-0.396,0.263-0.8,0.518-1.202,0.766c-0.34,0.225-0.685,0.432-1.04,0.64
			c-0.41,0.248-0.828,0.488-1.241,0.723c-0.355,0.204-0.705,0.399-1.063,0.585c-0.429,0.232-0.864,0.454-1.297,0.666
			c-0.357,0.184-0.717,0.364-1.076,0.531c-0.443,0.213-0.896,0.415-1.348,0.612c-0.361,0.163-0.726,0.32-1.088,0.474
			c-0.465,0.197-0.931,0.373-1.401,0.555c-0.362,0.138-0.73,0.282-1.101,0.412c-0.084,0.032-0.17,0.061-0.256,0.09
			c6.731-6.717,12.072-16.977,15.093-29.226h16.894C115.819,88.762,115.738,88.942,115.657,89.13z M120.942,67.862
			c-0.019,0.424-0.05,0.848-0.078,1.271c-0.025,0.351-0.049,0.707-0.08,1.062c-0.056,0.622-0.118,1.252-0.197,1.868
			c-0.002,0.027-0.007,0.051-0.009,0.074c-0.47,3.731-1.331,7.434-2.583,11.077h-17.829c1.038-5.662,1.596-11.663,1.596-17.881
			c0-6.224-0.563-12.229-1.596-17.887h17.829c1.244,3.622,2.104,7.316,2.58,11.042c0.005,0.044,0.01,0.088,0.014,0.135
			c0.077,0.61,0.14,1.227,0.195,1.843c0.031,0.358,0.055,0.72,0.08,1.082c0.028,0.419,0.06,0.841,0.078,1.255
			c0.035,0.841,0.063,1.676,0.063,2.528C121.006,66.186,120.978,67.025,120.942,67.862z"/>
		<path fill="#FF0000" d="M4.875,57.089c-0.011,0.075-0.019,0.152-0.028,0.229c-0.104,0.784-0.202,1.574-0.274,2.371
			c-0.038,0.37-0.057,0.744-0.084,1.115c-0.042,0.547-0.087,1.087-0.112,1.635c-0.049,0.965-0.074,1.929-0.074,2.896
			c0,0.963,0.025,1.928,0.074,2.891c0.025,0.551,0.071,1.09,0.112,1.63c0.026,0.377,0.046,0.749,0.084,1.119
			c0.07,0.785,0.166,1.57,0.271,2.346c0.008,0.086,0.017,0.163,0.029,0.247c4.039,29.771,29.604,52.804,60.465,52.804V4.303
			C34.483,4.303,8.916,27.328,4.875,57.089z M46.746,12.877c-6.731,6.716-12.068,16.964-15.092,29.21H14.777
			C21.036,28.532,32.573,17.911,46.746,12.877z M10.121,72.311c-0.012-0.12-0.029-0.238-0.043-0.359
			c-0.072-0.563-0.127-1.131-0.18-1.697c-0.034-0.396-0.063-0.79-0.089-1.187c-0.028-0.396-0.056-0.782-0.074-1.184
			c-0.04-0.846-0.066-1.688-0.066-2.543c0-0.852,0.028-1.696,0.066-2.542c0.019-0.395,0.044-0.782,0.074-1.178
			c0.026-0.402,0.055-0.803,0.089-1.204c0.052-0.563,0.113-1.137,0.182-1.698c0.012-0.119,0.029-0.234,0.046-0.353
			c0.476-3.688,1.325-7.333,2.55-10.908H30.5c-1.038,5.661-1.602,11.666-1.602,17.886c0,6.217,0.561,12.218,1.597,17.879H12.662
			C11.439,79.63,10.6,75.982,10.121,72.311z M14.772,88.58H31.65c3.024,12.251,8.36,22.501,15.096,29.222
			C32.573,112.77,21.027,102.14,14.772,88.58z M62.653,120.786c-11.349-1.749-20.974-14.467-25.54-32.206h25.54V120.786z
			 M62.653,83.218H35.917c-1.063-5.619-1.653-11.624-1.653-17.879s0.59-12.273,1.659-17.888h26.733L62.653,83.218L62.653,83.218z
			 M62.653,42.086H37.119C41.688,24.354,51.306,11.64,62.657,9.89L62.653,42.086L62.653,42.086z"/>
	</g>
</g>
<g id="Calque_4" display="none">
	
		<path display="inline" fill="none" stroke="#FF0000" stroke-width="5" stroke-linecap="round" stroke-linejoin="round" stroke-miterlimit="10" d="
		M92.598,127.284l-2.068-17.683c0,0,0.213-7.969,6.563-10.177l16.673-3.476l-0.244-14.027l-2.362-2.654l3.132-5.055l-0.277-6.158
		l6.336-8.518c-8.717-9.15-11.705-12.757-12.697-19.003c-0.084-1.325-0.238-5.377-0.475-6.711
		C103.473,12.75,81.859-1.064,58.91,2.973c-22.95,4.035-40.497,21.979-38.509,45.7c2.385,28.441,27.414,47.525,27.414,47.525
		l4.052,14.536l3.1,17.188"/>
	<g display="inline">
		<g>
			<path fill="none" stroke="#FF0000" stroke-width="5" stroke-linecap="round" stroke-linejoin="round" stroke-miterlimit="10" d="
				M72.212,37.847c1.437,0.805,2.97,1.28,4.513,1.447l0.963,3.482c1.631,0.031,3.252-0.195,4.801-0.671l-0.028-3.614
				c1.457-0.592,2.806-1.476,3.944-2.627l3.32,1.418c0.512-0.616,0.981-1.277,1.401-1.987s0.772-1.441,1.065-2.185l-2.842-2.228
				c0.461-1.554,0.584-3.161,0.4-4.723l3.184-1.714c-0.33-1.586-0.912-3.118-1.727-4.531l-3.516,0.834
				c-0.891-1.273-2.045-2.388-3.44-3.257l0.646-3.556c-1.484-0.755-3.043-1.245-4.617-1.481l-1.539,3.269
				c-1.6-0.099-3.197,0.128-4.693,0.658l-2.378-2.719c-1.464,0.667-2.829,1.567-4.037,2.687l1.597,3.24
				c-0.523,0.581-0.998,1.221-1.412,1.921c-0.414,0.699-0.748,1.424-1.002,2.163l-3.606,0.163c-0.4,1.597-0.531,3.228-0.411,4.831
				l3.528,0.774c0.257,1.567,0.827,3.076,1.685,4.43l-2.121,2.924c0.965,1.265,2.145,2.395,3.521,3.333L72.212,37.847z"/>
			
				<circle fill="none" stroke="#FF0000" stroke-width="5" stroke-linecap="round" stroke-linejoin="round" stroke-miterlimit="10" cx="78" cy="27.531" r="5.964"/>
		</g>
		<g>
			<path fill="none" stroke="#FF0000" stroke-width="5" stroke-linecap="round" stroke-linejoin="round" stroke-miterlimit="10" d="
				M52.236,73.886c0.273-0.032,0.545-0.071,0.819-0.118c1.506-0.254,2.932-0.701,4.257-1.307l4.008,3.088
				c1.037-0.668,2.007-1.42,2.909-2.242l-1.7-4.543c1.289-1.342,2.353-2.888,3.149-4.571L70.301,64
				c0.396-1.178,0.689-2.398,0.881-3.645l-3.908-2.21c0.1-1.346,0.041-2.725-0.192-4.115c-0.099-0.58-0.226-1.147-0.377-1.703
				l3.33-3.039c-0.435-1.157-0.956-2.262-1.563-3.31l-4.437,0.825c-1.197-1.639-2.672-3.044-4.344-4.158l0.635-4.751
				c-0.995-0.568-2.036-1.056-3.113-1.465l-3.116,3.784c-1.911-0.446-3.927-0.568-5.975-0.316L45.269,35.4
				c-1.062,0.204-2.091,0.479-3.084,0.823l0.05,5.51c-1.731,0.909-3.271,2.099-4.573,3.5l-5.595-1.776
				c-0.622,0.796-1.189,1.635-1.697,2.509l3.922,4.587c-0.669,1.676-1.074,3.472-1.182,5.326l-5.682,2.341
				c0.045,0.821,0.133,1.646,0.274,2.476c0.03,0.182,0.07,0.358,0.105,0.539l6.134,1.023c0.556,1.691,1.364,3.249,2.37,4.643
				l-2.8,5.354c0.742,0.772,1.54,1.491,2.384,2.147l5.161-3.043c1.446,0.914,3.03,1.611,4.704,2.063l1.204,5.482
				c1.135,0.127,2.292,0.166,3.46,0.111L52.236,73.886z"/>
			
				<circle fill="none" stroke="#FF0000" stroke-width="5" stroke-linecap="round" stroke-linejoin="round" stroke-miterlimit="10" cx="50.118" cy="56.822" r="10.237"/>
		</g>
	</g>
</g>
<g id="Calque_2_1_" display="none">
	<g display="inline">
		<path fill="none" stroke="#FF0000" stroke-width="5" stroke-linecap="round" stroke-linejoin="round" stroke-miterlimit="10" d="
			M14.885,50.642c0.034-0.248,0.058-0.498,0.058-0.754c0-3.03-2.457-5.487-5.488-5.487c-3.03,0-5.487,2.457-5.487,5.487
			c0,3.031,2.457,5.487,5.487,5.487c1.582,0,3.002-0.672,4.004-1.743"/>
		<path fill="none" stroke="#FF0000" stroke-width="5" stroke-linecap="round" stroke-linejoin="round" stroke-miterlimit="10" d="
			M66.07,15.746c2.171-0.73,3.738-2.779,3.738-5.198c0-3.03-2.457-5.487-5.489-5.487c-3.03,0-5.486,2.457-5.486,5.487
			c0,2.419,1.567,4.469,3.741,5.199"/>
		<path fill="none" stroke="#FF0000" stroke-width="5" stroke-linecap="round" stroke-linejoin="round" stroke-miterlimit="10" d="
			M114.859,53.179c1,1.332,2.588,2.196,4.383,2.196c3.029,0,5.486-2.457,5.486-5.487c0-3.03-2.457-5.487-5.486-5.487
			c-3.03,0-5.486,2.457-5.486,5.487"/>
		<path fill="none" stroke="#FF0000" stroke-width="5" stroke-linecap="round" stroke-linejoin="round" stroke-miterlimit="10" d="
			M93.775,110.926c-0.605,0.885-0.963,1.951-0.963,3.104c0,3.031,2.457,5.488,5.485,5.488c3.031,0,5.487-2.457,5.487-5.488
			c0-3.03-2.456-5.484-5.487-5.484c-0.562,0-1.101,0.084-1.606,0.24"/>
		<path fill="none" stroke="#FF0000" stroke-width="5" stroke-linecap="round" stroke-linejoin="round" stroke-miterlimit="10" d="
			M32.249,108.789c-0.516-0.16-1.064-0.246-1.634-0.246c-3.031,0-5.487,2.454-5.487,5.486c0,3.029,2.456,5.486,5.487,5.486
			c3.03,0,5.487-2.457,5.487-5.486c0-1.158-0.36-2.23-0.972-3.114"/>
		<path fill="none" stroke="#FF0000" stroke-width="5" stroke-linecap="round" stroke-linejoin="round" stroke-miterlimit="10" d="
			M77.548,49.888L66.07,15.746c-0.551,0.185-1.137,0.289-1.75,0.289c-0.61,0-1.196-0.104-1.745-0.288L50.86,50.642H14.885
			c-0.159,1.149-0.671,2.183-1.426,2.99l29.189,21.802l-10.4,33.354c1.183,0.369,2.191,1.129,2.881,2.126l29.219-20.162
			l29.427,20.173c0.695-1.01,1.717-1.774,2.916-2.143L86.232,74.68l28.627-21.5c-0.689-0.917-1.104-2.055-1.104-3.292H77.548z"/>
	</g>
</g>
<g id="Calque_3_1_" display="none">
	<g display="inline">
		<polygon fill="#FF0000" points="64.957,47.469 58.878,59.773 45.295,61.748 55.129,71.327 52.807,84.855 64.957,78.471 
			77.102,84.855 74.784,71.327 84.609,61.748 71.029,59.773 		"/>
		<path fill="none" stroke="#FF0000" stroke-width="5" stroke-miterlimit="10" d="M111.488,15.919l-1.721,0.522
			c-4.438,1.339-11.701,2.945-21.095,2.945c-7.625,0-14.901-2.369-21.054-6.841c-0.415-0.301-0.813-0.602-1.186-0.896l-1.479-1.171
			l-1.479,1.171c-0.375,0.294-0.77,0.596-1.186,0.89c-6.151,4.479-13.435,6.848-21.053,6.848c-9.398,0-16.662-1.606-21.1-2.945
			l-1.714-0.522L8.129,31.771l1.567,1.359c0.381,0.334,0.769,0.689,1.151,1.058c5.529,5.335,8.455,12.23,8.455,19.956
			c0,5.603-1.713,11.889-3.521,18.549c-1.74,6.394-3.535,13.008-3.761,18.938c-0.222,5.904,1.158,10.143,4.351,13.342
			c9.319,9.317,16.555,10.096,22.6,10.096c1.372,0,2.738-0.047,4.277-0.102c1.426-0.053,2.899-0.107,4.405-0.107
			c5.409,0,10.878,2.092,15.812,6.039l1.493,1.197l1.492-1.197c4.928-3.947,10.401-6.039,15.813-6.039
			c1.498,0,2.973,0.057,4.482,0.107c1.453,0.055,2.816,0.102,4.189,0.102c6.053,0,13.28-0.776,22.602-10.096
			c3.191-3.193,4.578-7.432,4.352-13.342c-0.222-5.925-2.021-12.539-3.763-18.938c-1.81-6.66-3.521-12.946-3.521-18.549
			c0-7.725,2.926-14.62,8.461-19.956c0.381-0.375,0.771-0.73,1.15-1.064l1.563-1.359L111.488,15.919z M101.875,93.979l-0.75,0.705
			c-2.041,1.887-3.875,3.146-5.461,3.741c-1.191,0.441-2.512,0.616-4.727,0.616c-1.092,0-2.346-0.041-3.662-0.087
			c-1.508-0.062-3.213-0.121-5.014-0.121c-5.617,0-11.107,1.211-16.31,3.608l-0.997,0.455l-0.998-0.455
			c-5.208-2.397-10.697-3.608-16.307-3.608c-1.808,0-3.515,0.062-5.021,0.121c-1.318,0.046-2.57,0.087-3.661,0.087
			c-2.216,0-3.535-0.175-4.72-0.616c-1.593-0.597-3.427-1.854-5.463-3.741l-0.756-0.705l-0.014-1.021
			c-0.007-1.141,0.127-2.577,0.401-4.271c0.589-3.567,1.674-7.559,2.826-11.789c2.008-7.383,4.077-15.016,4.077-22.752
			c0-5.443-0.964-10.731-2.865-15.705l-1.332-3.487l3.722,0.248c2.102,0.14,4.25,0.213,6.393,0.213
			c7.966,0,15.591-1.753,22.667-5.208l1.051-0.516L66,30.205c7.084,3.454,14.708,5.208,22.675,5.208
			c2.136,0,4.284-0.073,6.394-0.213l3.723-0.248l-1.332,3.487c-1.906,4.974-2.872,10.262-2.872,15.705
			c0,7.739,2.067,15.372,4.078,22.749c1.164,4.276,2.239,8.254,2.823,11.795c0.273,1.692,0.414,3.131,0.402,4.271L101.875,93.979z"
			/>
	</g>
</g>
</svg>
