<?xml version="1.0" encoding="utf-8"?>
<!-- Generator: Adobe Illustrator 16.0.0, SVG Export Plug-In . SVG Version: 6.00 Build 0)  -->
<!DOCTYPE svg PUBLIC "-//W3C//DTD SVG 1.1//EN" "http://www.w3.org/Graphics/SVG/1.1/DTD/svg11.dtd">
<svg version="1.1" id="Calque_1" xmlns="http://www.w3.org/2000/svg" xmlns:xlink="http://www.w3.org/1999/xlink" x="0px" y="0px"
	 width="128px" height="128px" viewBox="0 0 128 128" enable-background="new 0 0 128 128" xml:space="preserve">
<g id="Calque_1_2_">
	<g id="Calque_1_1_" xmlns:serif="http://www.serif.com/">
		<g id="path17">
			<path fill="none" stroke="#FF0000" stroke-width="5" stroke-linecap="round" stroke-linejoin="round" stroke-miterlimit="10" d="
				M73.215,19.203c0.061,0.046,5.142,0.112,5.207,0.177l0.029,3.845l0.043,4.944l0.024,3.212l3.066,0.963l1.555,0.489
				c2.072,0.651,4.066,1.471,6.107,2.504c2.312,1.171,2.93,1.485,4.102,1.485c1.932,0,2.282-0.348,6.562-4.604
				c0.975-0.971,2.262-2.25,2.886-2.768h0.056c0.791,0.664,2.539,2.425,4.838,4.744l0.238,0.24c2.469,2.492,4.346,4.385,5.042,5.24
				c-0.534,0.64-1.803,1.91-2.769,2.878l-3.343,3.354l-2.239,2.245l1.415,2.838l1.079,2.166c1.089,2.19,1.836,4.026,2.502,6.136
				l0.488,1.555l0.963,3.066l3.216,0.026l4.946,0.041l3.845,0.032c0.063,0.065,0.129,0.143,0.176,0.206v14.05
				c-0.047,0.063-0.112,0.14-0.176,0.204l-3.852,0.031l-4.951,0.041l-3.246,0.028l-0.941,3.107l-0.349,1.157
				c-0.65,2.15-2.044,5.423-3.238,7.605l-0.498,0.907l-1.588,2.898l2.334,2.341l3.404,3.41c1.352,1.358,2.277,2.337,2.775,2.889
				c-0.672,0.795-2.521,2.649-4.958,5.092l-0.193,0.192c-2.356,2.358-4.148,4.155-4.977,4.846c-0.64-0.535-1.897-1.793-2.858-2.753
				c-4.362-4.344-4.623-4.604-6.546-4.604c-1.132,0-1.613,0.239-4.287,1.564c-2.233,1.109-3.854,1.77-5.981,2.44l-1.512,0.477
				l-3.063,0.964l-0.023,3.21l-0.043,4.946l-0.029,3.846c-0.048,0.046-0.1,0.094-0.148,0.132c-0.819,0.045-3.012,0.052-6.631,0.062
				l-1.377,0.004c-3.301,0-5.428-0.029-6.128-0.056c-0.059-0.028-0.13-0.075-0.184-0.125l-0.032-3.878l-0.041-4.949l-0.026-3.246
				l-3.107-0.942l-1.161-0.352c-2.104-0.636-5.191-1.945-7.505-3.188l-1.042-0.56l-2.886-1.551l-2.32,2.312l-3.413,3.402
				c-1.357,1.35-2.335,2.276-2.886,2.776c-0.841-0.7-2.859-2.723-5.152-5.022l-0.162-0.164c-2.335-2.337-4.116-4.123-4.81-4.95
				c0.542-0.644,1.809-1.915,2.774-2.885l3.346-3.356l2.234-2.247l-1.415-2.84l-1.078-2.162c-1.098-2.204-1.847-4.038-2.504-6.133
				l-0.489-1.555l-0.962-3.067l-3.214-0.025l-4.951-0.039l-3.844-0.031c-0.065-0.063-0.131-0.141-0.178-0.202v-4.436"/>
		</g>
		<path id="path19_1_" fill="none" stroke="#FF0000" stroke-width="5" stroke-linecap="round" stroke-miterlimit="10" d="
			M75.003,50.417c5.798,1.146,10.623,4.366,13.822,9.223c4.618,7.018,4.618,16.074,0,23.092c-3.179,4.823-8.061,8.093-13.744,9.203
			c-1.405,0.273-4.6,0.446-5.832,0.314c-1.218-0.129-3.493-0.621-4.632-0.999c-7.344-2.437-12.676-8.527-14.21-16.241"/>
	</g>
	<g id="Calque_2">
	</g>
</g>
<path fill="#FF0000" d="M67.348,2.396H5.099c-1.657,0-3,1.343-3,3v62.25c0,1.656,1.343,3,3,3h62.249c1.656,0,3-1.344,3-3V5.396
	C70.348,3.739,69.004,2.396,67.348,2.396z M17.328,55.968c-2.768,0-5.011-2.241-5.011-5.01s2.243-5.011,5.011-5.011
	c2.767,0,5.01,2.242,5.01,5.011S20.095,55.968,17.328,55.968z M17.328,40.731c-2.768,0-5.011-2.242-5.011-5.01
	s2.243-5.011,5.011-5.011c2.767,0,5.01,2.243,5.01,5.011C22.338,38.487,20.095,40.731,17.328,40.731z M17.328,25.494
	c-2.768,0-5.011-2.244-5.011-5.01c0-2.768,2.243-5.012,5.011-5.012c2.767,0,5.01,2.244,5.01,5.012
	C22.338,23.25,20.095,25.494,17.328,25.494z M55.955,55.117H32.228c-2.305,0-4.174-1.87-4.174-4.177
	c0-2.306,1.869-4.176,4.174-4.176h23.727c2.307,0,4.176,1.87,4.176,4.176C60.13,53.247,58.261,55.117,55.955,55.117z M55.955,39.878
	H32.228c-2.305,0-4.174-1.869-4.174-4.176c0-2.305,1.869-4.175,4.174-4.175h23.727c2.307,0,4.176,1.87,4.176,4.175
	C60.13,38.009,58.261,39.878,55.955,39.878z M55.955,24.641H32.228c-2.305,0-4.174-1.869-4.174-4.175
	c0-2.306,1.869-4.175,4.174-4.175h23.727c2.307,0,4.176,1.869,4.176,4.175C60.13,22.771,58.261,24.641,55.955,24.641z"/>
</svg>
