<?xml version="1.0" encoding="utf-8"?>
<!-- Generator: Adobe Illustrator 16.0.0, SVG Export Plug-In . SVG Version: 6.00 Build 0)  -->
<!DOCTYPE svg PUBLIC "-//W3C//DTD SVG 1.1//EN" "http://www.w3.org/Graphics/SVG/1.1/DTD/svg11.dtd">
<svg version="1.1" id="Calque_2" xmlns="http://www.w3.org/2000/svg" xmlns:xlink="http://www.w3.org/1999/xlink" x="0px" y="0px"
	 width="128px" height="128px" viewBox="0 0 128 128" enable-background="new 0 0 128 128" xml:space="preserve">
<line fill="none" stroke="#FF0000" stroke-width="5" stroke-miterlimit="10" x1="26.3" y1="27.313" x2="44.167" y2="27.313"/>
<line fill="none" stroke="#FF0000" stroke-width="5" stroke-miterlimit="10" x1="26.3" y1="41.833" x2="69.327" y2="41.833"/>
<line fill="none" stroke="#FF0000" stroke-width="5" stroke-miterlimit="10" x1="26.3" y1="61.5" x2="86.5" y2="61.5"/>
<line fill="none" stroke="#FF0000" stroke-width="5" stroke-miterlimit="10" x1="26.3" y1="75.471" x2="71.167" y2="75.471"/>
<line fill="none" stroke="#FF0000" stroke-width="5" stroke-miterlimit="10" x1="26.3" y1="90.5" x2="58.792" y2="90.5"/>
<line fill="none" stroke="#FF0000" stroke-width="5" stroke-miterlimit="10" x1="26.3" y1="106.244" x2="52.833" y2="106.244"/>
<line fill="none" stroke="#FF0000" stroke-width="5" stroke-miterlimit="10" x1="89.167" y1="106.244" x2="97.7" y2="106.244"/>
<g>
	<path fill="none" stroke="#FF0000" stroke-width="5" stroke-miterlimit="10" d="M105.516,41.167V27.5H85.168c-2.762,0-5-2.238-5-5
		V3.235H23.036c-2.761,0-5,2.239-5,5v111.958c0,2.762,2.239,5,5,5h77.479c2.762,0,5-2.238,5-5v-24.36"/>
</g>
<line fill="none" stroke="#FF0000" stroke-width="5" stroke-linecap="round" stroke-linejoin="round" stroke-miterlimit="10" x1="81.841" y1="3.235" x2="105.516" y2="26.224"/>
<polygon fill="none" stroke="#FF0000" stroke-width="5" stroke-linecap="round" stroke-linejoin="round" stroke-miterlimit="10" points="
	108.594,47.122 123.601,63.085 79.223,107.462 65.176,91.419 "/>
<polygon fill="none" stroke="#FF0000" stroke-width="5" stroke-linecap="round" stroke-linejoin="round" stroke-miterlimit="10" points="
	65.176,91.419 58.792,113.208 79.223,107.462 "/>
<line fill="none" stroke="#FF0000" stroke-width="5" stroke-linecap="round" stroke-linejoin="round" stroke-miterlimit="10" x1="96.741" y1="59.213" x2="111.628" y2="75.058"/>
</svg>
