<?xml version="1.0" encoding="utf-8"?>
<!-- Generator: Adobe Illustrator 16.0.0, SVG Export Plug-In . SVG Version: 6.00 Build 0)  -->
<!DOCTYPE svg PUBLIC "-//W3C//DTD SVG 1.1//EN" "http://www.w3.org/Graphics/SVG/1.1/DTD/svg11.dtd">
<svg version="1.1" id="Calque_1" xmlns="http://www.w3.org/2000/svg" xmlns:xlink="http://www.w3.org/1999/xlink" x="0px" y="0px"
	 width="128px" height="128px" viewBox="0 0 128 128" enable-background="new 0 0 128 128" xml:space="preserve">
<g>
	
		<circle fill="none" stroke="#FF0000" stroke-width="5" stroke-linecap="round" stroke-linejoin="round" stroke-miterlimit="10" cx="8.794" cy="57.154" r="7.303"/>
	
		<circle fill="none" stroke="#FF0000" stroke-width="5" stroke-linecap="round" stroke-linejoin="round" stroke-miterlimit="10" cx="45.692" cy="31.211" r="7.303"/>
	
		<circle fill="none" stroke="#FF0000" stroke-width="5" stroke-linecap="round" stroke-linejoin="round" stroke-miterlimit="10" cx="82.59" cy="44.13" r="7.303"/>
	
		<circle fill="none" stroke="#FF0000" stroke-width="5" stroke-linecap="round" stroke-linejoin="round" stroke-miterlimit="10" cx="119.487" cy="11.993" r="7.303"/>
	
		<line fill="none" stroke="#FF0000" stroke-width="5" stroke-linecap="round" stroke-linejoin="round" stroke-miterlimit="10" x1="88.072" y1="39.355" x2="113.985" y2="16.786"/>
	
		<line fill="none" stroke="#FF0000" stroke-width="5" stroke-linecap="round" stroke-linejoin="round" stroke-miterlimit="10" x1="52.577" y1="33.622" x2="75.703" y2="41.72"/>
	
		<line fill="none" stroke="#FF0000" stroke-width="5" stroke-linecap="round" stroke-linejoin="round" stroke-miterlimit="10" x1="14.764" y1="52.955" x2="39.721" y2="35.409"/>
</g>
<path fill="#FF0000" d="M76.802,75.161c2.592,4.66,10.486,9.759,14.952,11.664c-0.529-15.12-9.814-31.076-22.899-31.076
	c-12.183,0-26.673,14.21-24.591,34.26C59.576,89.106,71.346,80.485,76.802,75.161z"/>
<path fill="none" stroke="#FF0000" stroke-width="5" stroke-linecap="round" stroke-linejoin="round" stroke-miterlimit="10" d="
	M92.77,88.21c0,7.199-1.792,13.854-4.827,19.243c-4.542,8.063-11.862,16.896-20.12,16.896c-8.124,0-15.339-8.663-19.893-16.504
	c-3.171-5.457-5.054-12.26-5.054-19.635c0-17.971,11.169-32.54,24.947-32.54C81.602,55.67,92.77,70.238,92.77,88.21z"/>
</svg>
