<?xml version="1.0" encoding="utf-8"?>
<!-- Generator: Adobe Illustrator 16.0.0, SVG Export Plug-In . SVG Version: 6.00 Build 0)  -->
<!DOCTYPE svg PUBLIC "-//W3C//DTD SVG 1.1//EN" "http://www.w3.org/Graphics/SVG/1.1/DTD/svg11.dtd">
<svg version="1.1" id="Calque_1" xmlns="http://www.w3.org/2000/svg" xmlns:xlink="http://www.w3.org/1999/xlink" x="0px" y="0px"
	 width="128px" height="128px" viewBox="0 0 128 128" enable-background="new 0 0 128 128" xml:space="preserve">
<g>
	<g id="Calque_3">
		
			<line fill="none" stroke="#FF0000" stroke-width="5" stroke-linecap="round" stroke-linejoin="round" stroke-miterlimit="10" x1="4.448" y1="45.503" x2="47.235" y2="45.503"/>
		<path fill="none" stroke="#FF0000" stroke-width="5" stroke-linecap="round" stroke-linejoin="round" stroke-miterlimit="10" d="
			M13.354,45.503c0,0,1.355,21.495,27.296,29.816"/>
		<path fill="none" stroke="#FF0000" stroke-width="5" stroke-linecap="round" stroke-linejoin="round" stroke-miterlimit="10" d="
			M38.716,45.503c0,0-0.194,24.01-33.107,32.916"/>
		
			<line fill="none" stroke="#FF0000" stroke-width="5" stroke-linecap="round" stroke-linejoin="round" stroke-miterlimit="10" x1="25.841" y1="37.181" x2="29.615" y2="45.503"/>
	</g>
	<g>
		<path fill="#FF0000" d="M89.62,78.419H62.594V41.05h27.029v7.229H72.184v6.45h16.186v7.227H72.184v9.236h17.439v7.23H89.62V78.419
			z"/>
		<path fill="#FF0000" d="M127.619,66.674c0,3.681-1.56,6.673-4.683,8.971c-3.119,2.303-7.357,3.454-12.708,3.454
			c-3.096,0-5.795-0.273-8.096-0.816c-2.3-0.544-4.455-1.231-6.46-2.071v-8.96h1.054c1.989,1.589,4.217,2.812,6.685,3.664
			c2.47,0.854,4.843,1.282,7.118,1.282c0.581,0,1.354-0.053,2.308-0.152s1.733-0.269,2.335-0.503
			c0.732-0.299,1.344-0.676,1.818-1.127c0.476-0.45,0.714-1.122,0.714-2.007c0-0.819-0.348-1.527-1.039-2.121
			c-0.698-0.594-1.712-1.051-3.052-1.367c-1.404-0.334-2.89-0.647-4.458-0.942c-1.562-0.292-3.029-0.666-4.4-1.116
			c-3.146-1.022-5.409-2.404-6.79-4.154s-2.07-3.919-2.07-6.513c0-3.479,1.56-6.32,4.682-8.521c3.119-2.2,7.133-3.302,12.029-3.302
			c2.463,0,4.895,0.237,7.293,0.715c2.4,0.477,4.48,1.075,6.237,1.794v8.608h-1.027c-1.508-1.204-3.352-2.213-5.533-3.023
			c-2.185-0.813-4.412-1.217-6.688-1.217c-0.806,0-1.603,0.056-2.4,0.164c-0.795,0.109-1.557,0.315-2.292,0.617
			c-0.653,0.251-1.215,0.631-1.684,1.141c-0.468,0.512-0.702,1.093-0.702,1.745c0,0.987,0.373,1.747,1.129,2.271
			c0.753,0.528,2.174,1.01,4.266,1.445c1.373,0.283,2.689,0.561,3.953,0.828c1.267,0.267,2.623,0.635,4.079,1.104
			c2.861,0.939,4.975,2.213,6.336,3.828C126.937,62.002,127.619,64.096,127.619,66.674z"/>
	</g>
</g>
<g id="Calque_2">
</g>
</svg>
