<?xml version="1.0" encoding="utf-8"?>
<!-- Generator: Adobe Illustrator 16.0.0, SVG Export Plug-In . SVG Version: 6.00 Build 0)  -->
<!DOCTYPE svg PUBLIC "-//W3C//DTD SVG 1.1//EN" "http://www.w3.org/Graphics/SVG/1.1/DTD/svg11.dtd">
<svg version="1.1" xmlns="http://www.w3.org/2000/svg" xmlns:xlink="http://www.w3.org/1999/xlink" x="0px" y="0px" width="128px"
	 height="128px" viewBox="0 0 128 128" enable-background="new 0 0 128 128" xml:space="preserve">
<g id="Calque_1">
	<g id="Calque_1_2_" display="none">
		<g id="Calque_1_1_" display="inline">
		</g>
		
			<line display="inline" fill="none" stroke="#FF0000" stroke-width="11" stroke-miterlimit="10" x1="5.1" y1="35.064" x2="58.226" y2="35.064"/>
		
			<line display="inline" fill="none" stroke="#FF0000" stroke-width="11" stroke-miterlimit="10" x1="58.226" y1="46.698" x2="86.372" y2="46.698"/>
		
			<line display="inline" fill="none" stroke="#FF0000" stroke-width="11" stroke-miterlimit="10" x1="17.83" y1="68.512" x2="45.601" y2="68.512"/>
		
			<line display="inline" fill="none" stroke="#FF0000" stroke-width="11" stroke-miterlimit="10" x1="45.601" y1="81.646" x2="68.682" y2="81.646"/>
		
			<line display="inline" fill="none" stroke="#FF0000" stroke-width="11" stroke-miterlimit="10" x1="67.805" y1="92.5" x2="113.844" y2="92.5"/>
		<path display="inline" fill="none" stroke="#FF0000" stroke-width="5" stroke-miterlimit="10" d="M124.111,105.398
			c0,3.594-2.688,6.509-6.006,6.509H11.022c-3.316,0-6.004-2.915-6.004-6.509V15.383c0-3.594,2.688-6.507,6.004-6.507h107.083
			c3.317,0,6.006,2.914,6.006,6.507V105.398z"/>
	</g>
	<g id="Calque_1_3_" display="none">
	</g>
	<g id="Calque_3" display="none">
		<g id="Calque_2" display="inline">
			<g>
				<g>
					
						<path fill="none" stroke="#FF0000" stroke-width="5" stroke-linecap="round" stroke-linejoin="round" stroke-miterlimit="10" d="
						M102.314,74.566c2.097-2.558,1.719-6.362-0.838-8.459c-2.562-2.097-6.369-1.717-8.463,0.84l2.211-2.699
						c2.098-2.559,1.719-6.365-0.841-8.462c-2.561-2.097-6.366-1.72-8.464,0.839l4.068-4.967c2.097-2.558,1.718-6.365-0.84-8.461
						c-2.561-2.097-6.366-1.719-8.463,0.84L97.898,23.03c2.096-2.559,1.719-6.366-0.84-8.463c-2.56-2.096-6.367-1.717-8.463,0.842
						L63.857,45.604l1.516-9.225c0.535-3.261-1.697-6.37-4.96-6.906c-3.265-0.536-6.372,1.696-6.908,4.959
						c0,0-19.643,43.707-11.642,50.261l16.662,13.649c8,6.556,28.286-4.852,28.545-5.172L102.314,74.566L102.314,74.566z"/>
					
						<rect x="21.372" y="90.455" transform="matrix(0.7735 0.6338 -0.6338 0.7735 73.9361 -5.9735)" fill="none" stroke="#FF0000" stroke-width="5" stroke-linecap="round" stroke-linejoin="round" stroke-miterlimit="10" width="47.907" height="20.006"/>
				</g>
				
					<path fill="none" stroke="#FF0000" stroke-width="5" stroke-linecap="round" stroke-linejoin="round" stroke-miterlimit="10" d="
					M82.213,9.857c5-6.103,14.001-6.998,20.104-1.997c6.104,4.999,6.996,14.001,1.996,20.104"/>
			</g>
		</g>
	</g>
	<g id="Calque_1_4_">
		<g id="Calque_2_2_" display="none">
			<g display="inline">
				<path fill="none" d="M29.546,122.527c9.541,0,15.769-13.118,16.8-26.525H15.422c-0.864,0.107-1.744,0.203-2.654,0.254
					C13.859,109.572,20.067,122.527,29.546,122.527z"/>
				<path fill="none" d="M57.818,133.345l-9.784-3.572l-15.653,8.87l-6.023-0.093l-15.726-8.773l-9.703,3.57
					c-1.527,0.737-19.669,9.981-18.588,33.583c0.549,0.866,3.209,4.163,11.695,4.234c-0.268-4.467-0.73-14.44-0.159-23.179
					l4.807,0.314c-0.615,9.418,0.032,20.683,0.249,23.94c5.576,4.936,17.249,7.933,30.737,7.815
					c13.163-0.095,24.837-3.141,30.187-7.813c0.197-3.325,0.793-14.838,0.149-24.094l4.805-0.335
					c0.602,8.631,0.18,18.825-0.066,23.349c8.389-0.072,11.064-3.315,11.658-4.251C77.471,143.353,59.391,134.104,57.818,133.345z"
					/>
				<path fill="#FF0000" d="M-0.141,96.002h6.316c0,0.003,0,0.005,0,0.006c-1.323,2.859-1.797,7.776,4.533,14.08
					c3.425,9.826,9.799,17.257,18.838,17.257c8.864,0,15.404-7.588,18.897-17.658c5.919-6.122,5.419-10.887,4.121-13.685h6.32
					c1.232,0,2.229-0.997,2.229-2.229s-0.997-2.23-2.229-2.23h-2.982c0.016-0.34,0.022-0.681,0.022-1.023
					c0-10.719-6.266-19.941-15.27-24.102c0.025,1.054,0.032,2.243,0.032,3.583v3.854c0,11.125-0.604,11.786-10.772,11.786
					c-10.171,0-10.775-0.661-10.775-11.786V70c0-1.344,0.01-2.533,0.043-3.591C10.176,70.568,3.906,79.795,3.906,90.519
					c0,0.345,0.031,0.683,0.047,1.023h-4.097c-1.23,0-2.229,0.998-2.229,2.23C-2.37,95.005-1.373,96.002-0.141,96.002z
					 M15.422,96.002h30.922c-1.031,13.407-7.257,26.525-16.799,26.525c-9.48,0-15.688-12.955-16.778-26.271
					C13.678,96.205,14.558,96.109,15.422,96.002z"/>
				<path fill="#FF0000" d="M59.756,128.934l-14.412-5.271l-12.856,7.52h-6.309l-12.859-7.529l-14.155,5.206l-0.176,0.071
					c-0.232,0.106-23.006,10.929-21.435,38.756l0.021,0.359l0.122,0.336c0.121,0.324,2.95,7.606,16.611,7.606
					c0.506,0,1.034-0.014,1.572-0.034c6.475,5.62,18.664,8.922,33.131,8.922c0.232,0,0.462-0.002,0.694-0.002
					c11.348-0.079,25.756-2.488,33.211-8.919c14.964,0.554,18-7.236,18.125-7.575l0.123-0.334l0.023-0.359
					C82.758,139.861,59.985,129.04,59.756,128.934z M76.4,166.911c-0.592,0.937-3.27,4.178-11.654,4.249
					c0.244-4.522,0.666-14.717,0.066-23.348l-4.808,0.336c0.646,9.255,0.052,20.769-0.146,24.092
					c-5.348,4.674-17.023,7.717-30.187,7.813c-13.488,0.117-25.162-2.881-30.737-7.815c-0.216-3.259-0.864-14.521-0.249-23.939
					l-4.807-0.315c-0.571,8.737-0.109,18.71,0.159,23.18c-8.486-0.068-11.146-3.367-11.695-4.233
					c-1.081-23.604,17.061-32.851,18.588-33.584l9.703-3.569l15.726,8.773l6.022,0.092l15.654-8.871l9.783,3.57
					C59.391,134.104,77.471,143.353,76.4,166.911z"/>
				<path fill="#FF0000" d="M37.951,65.346c-0.083-1.788-0.283-2.979-0.78-3.535c-0.781-0.877-3.145-0.919-7.255-0.919
					c-4.051,0-6.484,0-7.264,0.865c-0.495,0.548-0.693,1.757-0.775,3.589c2.532-0.835,5.229-1.294,8.034-1.294
					C32.721,64.052,35.419,64.509,37.951,65.346z"/>
				<path fill="#FF0000" d="M21.82,73.854c0,4.566,0,7.321,0.834,8.244c0.781,0.865,3.22,0.865,7.262,0.865s6.483,0,7.261-0.865
					c0.836-0.923,0.836-3.678,0.836-8.244V70c0-1.861-0.004-3.4-0.064-4.654c-2.532-0.835-5.232-1.294-8.039-1.294
					c-2.805,0-5.503,0.459-8.035,1.294c-0.055,1.256-0.059,2.8-0.059,4.654v3.854H21.82z"/>
			</g>
		</g>
		<g id="Calque_3_2_" display="none">
			<g display="inline">
				<path fill="#FF0000" d="M44.534,92.829c3.835-18.361-7.883-28.715-23.138-28.715c-27.344,0-22.572,29.96-22.572,29.96
					c0.03,0.003,0.059,0.004,0.089,0.007c-1.249,2.823-1.618,7.563,4.31,13.607c3.387,9.909,9.763,17.435,18.84,17.435
					c8.744,0,15.212-7.419,18.708-17.313C47.83,100.692,46.163,95.373,44.534,92.829z M22.062,120.33
					c-9.435,0-15.613-12.893-16.698-26.144c11.859-0.699,19.71-6.318,23.93-10.44c2.008,3.608,6.161,6.027,9.621,7.505
					C38.569,105.467,32.191,120.33,22.062,120.33z"/>
			</g>
			<g display="inline">
				<path fill="none" d="M16.806,175.892c-0.821-0.257-1.502-0.901-1.766-1.768L1.191,128.428c-0.234-0.778-0.099-1.585,0.314-2.219
					l-8.607,3.165c-1.25,0.603-21.152,10.594-19.747,35.938c0.224,0.521,2.767,5.795,14.013,5.795
					c0.466-0.002,0.958-0.018,1.459-0.034c0.035-0.002,0.071-0.003,0.106-0.003c0.64,0,1.261,0.231,1.745,0.654
					c5.199,4.511,14.798,7.428,26.247,8.085l-0.199-0.203L16.806,175.892z"/>
				<path fill="none" d="M51.255,129.395l-8.458-3.11c0.407,0.636,0.545,1.439,0.31,2.214l-13.998,46.193
					c-0.26,0.866-0.938,1.506-1.756,1.763l0.239,3.148l-0.141,0.146c9.617-0.651,20.406-2.992,26.251-8.03
					c0.509-0.44,1.163-0.654,1.839-0.645c0.482,0.02,0.954,0.032,1.411,0.032c11.178-0.002,13.762-5.215,14.014-5.797
					C72.355,140.269,52.941,130.217,51.255,129.395z"/>
				<path fill="#FF0000" d="M53.4,124.517c-0.063-0.027-0.123-0.054-0.188-0.077l-13.757-5.064c-1.345-0.495-2.84,0.164-3.383,1.488
					l-1.82,4.435c-0.276,0.671-0.267,1.422,0.023,2.088c0.291,0.66,0.84,1.178,1.52,1.425l1.484,0.547l-8.917,29.429l-0.917-16.037
					c-0.013-0.243-0.061-0.48-0.136-0.701l2.46-3.49c0.462-0.656,0.604-1.481,0.388-2.253c-0.045-0.161-0.053-0.188-1.723-4.516
					c-0.422-1.095-1.499-1.777-2.66-1.7c-0.281,0.011-1.643,0.017-3.712,0.017c-2.072,0-3.433-0.006-3.715-0.017
					c-1.154-0.088-2.234,0.603-2.658,1.692c-2.052,5.278-2.052,5.278-1.606,6.303c0.073,0.169,0.162,0.322,0.268,0.474l2.462,3.49
					c-0.075,0.224-0.123,0.458-0.136,0.701l-0.886,15.475l-8.768-28.932l1.322-0.484c0.681-0.251,1.231-0.768,1.522-1.432
					c0.29-0.663,0.298-1.418,0.021-2.091l-1.836-4.433c-0.549-1.32-2.043-1.973-3.381-1.479l-13.588,4.996
					c-0.033,0.01-0.064,0.021-0.095,0.035l-0.176,0.071c-0.034,0.016-0.065,0.027-0.096,0.043
					c-0.245,0.111-24.545,11.601-22.877,41.14l0.021,0.355c0.015,0.264,0.068,0.521,0.158,0.769l0.123,0.331
					c0.35,0.954,3.851,9.321,19.034,9.321c0.209,0,0.421-0.005,0.637-0.01c7.123,5.637,19.38,8.85,33.883,8.85h0.011l0.707-0.002
					c5.464-0.039,23.702-0.805,33.951-8.846c0.198,0.004,0.398,0.008,0.59,0.008c15.202-0.004,18.685-8.375,19.03-9.326l0.123-0.333
					c0.09-0.241,0.143-0.497,0.154-0.755l0.023-0.358C77.953,136.079,53.646,124.627,53.4,124.517z M16.523,136.816
					c-0.008-0.018,1.646-4.273,1.646-4.273c0.194,0.027,7.586,0.027,7.779,0c0,0,1.625,4.209,1.642,4.273l-2.629,3.736h-5.806
					L16.523,136.816z M70.963,165.309c-0.252,0.582-2.834,5.795-14.013,5.797c-0.451,0-0.929-0.017-1.411-0.032
					c-0.674-0.01-1.329,0.204-1.839,0.645c-5.846,5.038-16.633,7.379-26.251,8.03l-5.392,3.445l-5.335-3.387
					c-11.449-0.655-21.048-3.572-26.247-8.087c-0.484-0.421-1.104-0.652-1.745-0.652c-0.035,0-0.073,0.002-0.106,0.003
					c-0.502,0.021-0.994,0.03-1.459,0.033c-11.246,0-13.79-5.274-14.013-5.793c-1.404-25.338,18.497-35.334,19.748-35.936
					l8.606-3.165c-0.412,0.637-0.548,1.442-0.313,2.22l13.847,45.698c0.264,0.866,0.947,1.508,1.768,1.765l2.525-33.194h5.453
					l2.567,33.754c0.818-0.258,1.496-0.899,1.754-1.764l14-46.193c0.233-0.775,0.099-1.579-0.312-2.213l8.46,3.11
					C52.941,130.217,72.355,140.269,70.963,165.309z"/>
				<path fill="#FFFFFF" d="M23.58,138.091l1.018-1.444c-0.148-0.385-0.312-0.813-0.469-1.219c-0.535,0.002-1.211,0.002-2.067,0.002
					c-0.861,0-1.538,0-2.075-0.002c-0.168,0.439-0.331,0.854-0.469,1.214l1.021,1.449H23.58z"/>
				<path fill="#FFFFFF" d="M24.961,140.552l2.63-3.735c-0.019-0.064-1.644-4.274-1.644-4.274c-0.193,0.027-7.584,0.027-7.778,0
					c0,0-1.654,4.255-1.646,4.274l2.633,3.735H24.961z"/>
			</g>
			<g display="inline">
				<path fill="#FF0000" d="M56.377,80.73c0,0.514-0.415,0.931-0.93,0.931h-4.074c-0.516,0-0.931-0.417-0.931-0.931v-4.074
					c0-0.515,0.416-0.931,0.931-0.931h4.074c0.515,0,0.93,0.416,0.93,0.931V80.73z"/>
				<path fill="#FF0000" d="M65.049,80.73c0,0.514-0.414,0.931-0.931,0.931h-4.073c-0.517,0-0.932-0.417-0.932-0.931v-4.074
					c0-0.515,0.415-0.931,0.932-0.931h4.073c0.517,0,0.931,0.416,0.931,0.931V80.73z"/>
				<path fill="#FF0000" d="M73.662,80.73c0,0.514-0.416,0.931-0.934,0.931h-4.07c-0.516,0-0.932-0.417-0.932-0.931v-4.074
					c0-0.515,0.416-0.931,0.932-0.931h4.07c0.518,0,0.934,0.416,0.934,0.931V80.73L73.662,80.73z"/>
			</g>
			<g display="inline">
				<path fill="none" d="M45.631,91.782c0,0.415-0.011,0.824-0.026,1.237h8.96v10.973l8.937-10.973h24.142V64.367h-51.18v4.638
					C42.074,74.497,45.631,82.66,45.631,91.782z"/>
				<path fill="#FF0000" d="M89.576,59.296h-55.05c-1.755,0-3.132,1.482-3.132,3.374v3.571c1.824,1.071,3.526,1.251,5.071,2.765
					v-4.639h51.174V93.02H63.501l-8.938,10.973V93.02l-10.029-0.19c-0.063,1.73,0.82,3.616,0.513,5.262h4.445v20.16l16.418-20.16
					h23.666c1.758,0,3.135-1.482,3.135-3.374V62.67C92.709,60.776,91.334,59.296,89.576,59.296z"/>
			</g>
		</g>
	</g>
</g>
<g id="Calque_3_3_">
</g>
<g id="Calque_2_1_">
	<g>
		
			<line fill="none" stroke="#FF0000" stroke-width="5" stroke-linecap="round" stroke-linejoin="round" stroke-miterlimit="10" x1="98.662" y1="75.254" x2="98.662" y2="97.139"/>
		
			<line fill="none" stroke="#FF0000" stroke-width="5" stroke-linecap="round" stroke-linejoin="round" stroke-miterlimit="10" x1="109.548" y1="86.196" x2="87.776" y2="86.196"/>
	</g>
	<path fill="none" stroke="#FF0000" stroke-width="5" stroke-miterlimit="10" d="M123.862,86.196c0,13.923-11.281,25.2-25.204,25.2
		c-13.914,0-25.201-11.277-25.201-25.2c0-13.924,11.287-25.201,25.201-25.201C112.581,60.996,123.862,72.272,123.862,86.196z"/>
	<g>
		<path fill="none" stroke="#FF0000" stroke-width="5" stroke-miterlimit="10" d="M73.457,86.196
			c0-13.924,11.287-25.201,25.205-25.201c3.92,0,7.58,0.969,10.886,2.561V24.971c0-2.871-2.326-5.192-5.192-5.192H47.242
			c-2.869,0-5.192,2.321-5.192,5.192v90.862c0,2.87,2.323,5.192,5.192,5.192h57.113c2.866,0,5.192-2.322,5.192-5.192v-6.997
			c-3.306,1.593-6.966,2.561-10.886,2.561C84.744,111.396,73.457,100.119,73.457,86.196z"/>
	</g>
	<g>
		<path fill="none" stroke="#FF0000" stroke-width="5" stroke-miterlimit="10" d="M72.17,20.042v-6.754
			c0-2.871-2.323-5.192-5.193-5.192H9.864c-2.871,0-5.192,2.321-5.192,5.192v90.861c0,2.872,2.322,5.193,5.192,5.193H42.05"/>
	</g>
</g>
</svg>
