<?xml version="1.0" encoding="utf-8"?>
<!-- Generator: Adobe Illustrator 16.0.0, SVG Export Plug-In . SVG Version: 6.00 Build 0)  -->
<!DOCTYPE svg PUBLIC "-//W3C//DTD SVG 1.1//EN" "http://www.w3.org/Graphics/SVG/1.1/DTD/svg11.dtd">
<svg version="1.1" id="Calque_2" xmlns="http://www.w3.org/2000/svg" xmlns:xlink="http://www.w3.org/1999/xlink" x="0px" y="0px"
	 width="128px" height="128px" viewBox="0 0 128 128" enable-background="new 0 0 128 128" xml:space="preserve">
<path fill="none" stroke="#FF0000" stroke-width="5" stroke-miterlimit="10" d="M83.357,36.528c0-1.585,1.285-2.87,2.869-2.87h9.37
	c1.584,0,2.868,1.285,2.868,2.87v35.565c0,1.584-1.284,2.868-2.868,2.868h-9.37c-1.584,0-2.869-1.284-2.869-2.868V36.528z"/>
<path fill="none" stroke="#FF0000" stroke-width="5" stroke-miterlimit="10" d="M83.357,69.417c0,0-12.336,6.47-17.016,21.032
	c0,0-1.053,5.355-2.152,9.753s-5.688,2.294-8.365,0c-2.678-2.294-6.501-15.681,1.147-21.8H36.511c0,0-6.31-0.189-6.31-5.544
	s6.31-5.163,6.31-5.163h6.502h-8.605c0,0-4.206-0.955-4.206-6.12c0-5.161,6.31-4.817,6.31-4.97s7.648,0,7.648,0h-9.752
	c0,0-2.868-1.53-2.868-5.546s3.826-4.973,4.972-4.973c1.147,0,8.223,0,8.223,0H34.407c0,0-2.868-3.441-1.911-6.309
	c0.956-2.869,2.869-3.824,4.015-4.398c1.147-0.573,30.595,0,30.595,0s6.31-0.19,8.604,2.104c2.294,2.295,7.647,4.78,7.647,18.356
	C83.357,69.417,83.357,69.417,83.357,69.417z"/>
<circle fill="none" stroke="#FF0000" stroke-width="5" stroke-miterlimit="10" cx="64.167" cy="64.166" r="58.333"/>
</svg>
