<?xml version="1.0" encoding="utf-8"?>
<!-- Generator: Adobe Illustrator 16.0.0, SVG Export Plug-In . SVG Version: 6.00 Build 0)  -->
<!DOCTYPE svg PUBLIC "-//W3C//DTD SVG 1.1//EN" "http://www.w3.org/Graphics/SVG/1.1/DTD/svg11.dtd">
<svg version="1.1" xmlns="http://www.w3.org/2000/svg" xmlns:xlink="http://www.w3.org/1999/xlink" x="0px" y="0px" width="128px"
	 height="128px" viewBox="0 0 128 128" enable-background="new 0 0 128 128" xml:space="preserve">
<g id="Calque_1">
	<path fill="none" stroke="#FF0000" stroke-width="5" stroke-linecap="round" stroke-linejoin="round" stroke-miterlimit="10" d="
		M25.626,58.604c0-6.211,1.954-12.062,5.396-17.198c0.018-0.005,0.037-0.007,0.055-0.012C14.351,45.42,2.18,57.676,2.18,72.171
		c0,12.849,9.582,23.902,23.379,29.065c-0.274,0.557-0.515,1.129-0.83,1.668c-2.698,4.527-6.65,7.955-11.351,10.264
		c10.418,0.746,20.064-2.372,26.431-8.943c1.062,0.063,2.128,0.131,3.211,0.131c10.886,0,20.749-3.381,28.066-8.855
		C45.858,94.923,25.626,78.641,25.626,58.604z"/>
	<path fill="#1A1A1A" d="M71.121,95.501c0.082-0.063,0.152-0.132,0.234-0.194c-0.088,0.067-0.184,0.129-0.271,0.191
		C71.1,95.498,71.109,95.501,71.121,95.501z"/>
	<path fill="none" stroke="#FF0000" stroke-width="5" stroke-miterlimit="10" d="M79.001,87.366
		c0.853-0.024,1.706-0.046,2.547-0.103c7.306,7.531,18.371,11.108,30.326,10.256c-5.394-2.645-9.931-6.574-13.024-11.771
		c-0.355-0.618-0.641-1.277-0.949-1.914c15.828-5.92,26.818-18.604,26.818-33.346c0-20.388-20.977-36.915-46.854-36.915
		c-21.723,0-39.937,11.675-45.227,27.489 M32.634,41.077c-1.006,3.011-1.595,6.154-1.595,9.413
		c0,20.396,20.962,36.924,46.826,36.924c0.371,0,0.729-0.034,1.095-0.045"/>
</g>
<g id="Calque_2">
	
		<line fill="none" stroke="#FF0000" stroke-width="10" stroke-linecap="round" stroke-linejoin="round" stroke-miterlimit="10" x1="103.232" y1="23.491" x2="22.218" y2="104.51"/>
	
		<line fill="none" stroke="#FF0000" stroke-width="10" stroke-linecap="round" stroke-linejoin="round" stroke-miterlimit="10" x1="26.591" y1="23.491" x2="107.607" y2="104.51"/>
</g>
</svg>
