<?xml version="1.0" encoding="utf-8"?>
<!-- Generator: Adobe Illustrator 16.0.0, SVG Export Plug-In . SVG Version: 6.00 Build 0)  -->
<!DOCTYPE svg PUBLIC "-//W3C//DTD SVG 1.1//EN" "http://www.w3.org/Graphics/SVG/1.1/DTD/svg11.dtd">
<svg version="1.1" id="Calque_1" xmlns="http://www.w3.org/2000/svg" xmlns:xlink="http://www.w3.org/1999/xlink" x="0px" y="0px"
	 width="128px" height="128px" viewBox="0 0 128 128" enable-background="new 0 0 128 128" xml:space="preserve">
<g id="Calque_2">
</g>
<g id="Calque_2_2_">
	
		<polyline fill="none" stroke="#FF0000" stroke-width="5" stroke-linecap="round" stroke-linejoin="round" stroke-miterlimit="10" points="
		40.896,75.013 40.896,104.291 80.854,122.551 119.777,102.569 119.777,60.545 80.336,41.255 73.644,44.121 	"/>
	
		<polyline fill="none" stroke="#FF0000" stroke-width="5" stroke-linecap="round" stroke-linejoin="round" stroke-miterlimit="10" points="
		71.886,71.563 80.336,75.013 80.336,114.626 	"/>
	
		<line fill="none" stroke="#FF0000" stroke-width="5" stroke-linecap="round" stroke-linejoin="round" stroke-miterlimit="10" x1="80.336" y1="75.013" x2="112.725" y2="63.133"/>
</g>
<path fill="#FF0000" d="M67.207,106.334c-0.014,0.438-0.145,0.765-0.38,0.984c-0.244,0.216-0.528,0.263-0.858,0.132l-9.579-3.755
	c-0.33-0.128-0.604-0.4-0.828-0.809c-0.219-0.412-0.319-0.84-0.307-1.276c0.014-0.428,0.14-0.743,0.379-0.956
	c0.244-0.21,0.527-0.249,0.858-0.121l3.644,1.428l0.603-18.654l-3.59-1.408c-0.33-0.128-0.603-0.395-0.825-0.789
	c-0.222-0.399-0.325-0.82-0.311-1.256c0.015-0.442,0.141-0.767,0.383-0.987c0.241-0.216,0.526-0.261,0.855-0.131l5.963,2.337
	l-0.707,21.819l2.374,0.929C64.883,103.822,67.269,104.467,67.207,106.334z"/>
<path fill="#FF0000" d="M66.771,1.535H4.522c-1.657,0-3,1.343-3,3v62.25c0,1.656,1.343,3,3,3h62.249c1.656,0,3-1.344,3-3V4.535
	C69.771,2.877,68.428,1.535,66.771,1.535z M16.751,55.106c-2.768,0-5.011-2.241-5.011-5.01s2.243-5.011,5.011-5.011
	c2.767,0,5.01,2.242,5.01,5.011S19.519,55.106,16.751,55.106z M16.751,39.869c-2.768,0-5.011-2.242-5.011-5.01
	s2.243-5.011,5.011-5.011c2.767,0,5.01,2.243,5.01,5.011C21.762,37.625,19.519,39.869,16.751,39.869z M16.751,24.632
	c-2.768,0-5.011-2.244-5.011-5.01c0-2.768,2.243-5.012,5.011-5.012c2.767,0,5.01,2.244,5.01,5.012
	C21.762,22.388,19.519,24.632,16.751,24.632z M55.378,54.255H31.652c-2.305,0-4.174-1.87-4.174-4.177
	c0-2.306,1.869-4.176,4.174-4.176h23.727c2.307,0,4.176,1.87,4.176,4.176C59.554,52.385,57.685,54.255,55.378,54.255z
	 M55.378,39.017H31.652c-2.305,0-4.174-1.869-4.174-4.176c0-2.305,1.869-4.175,4.174-4.175h23.727c2.307,0,4.176,1.87,4.176,4.175
	C59.554,37.147,57.685,39.017,55.378,39.017z M55.378,23.779H31.652c-2.305,0-4.174-1.869-4.174-4.175
	c0-2.306,1.869-4.175,4.174-4.175h23.727c2.307,0,4.176,1.869,4.176,4.175C59.554,21.91,57.685,23.779,55.378,23.779z"/>
</svg>
