<?xml version="1.0" encoding="utf-8"?>
<!-- Generator: Adobe Illustrator 16.0.0, SVG Export Plug-In . SVG Version: 6.00 Build 0)  -->
<!DOCTYPE svg PUBLIC "-//W3C//DTD SVG 1.1//EN" "http://www.w3.org/Graphics/SVG/1.1/DTD/svg11.dtd">
<svg version="1.1" id="Calque_1" xmlns:serif="http://www.serif.com/"
	 xmlns="http://www.w3.org/2000/svg" xmlns:xlink="http://www.w3.org/1999/xlink" x="0px" y="0px" width="128px" height="128px"
	 viewBox="0 0 128 128" enable-background="new 0 0 128 128" xml:space="preserve">
<g>
	<path fill="none" stroke="#FF0000" stroke-width="5" stroke-linecap="round" stroke-linejoin="round" stroke-miterlimit="10" d="
		M91.387,20.009C82.319,10.623,69.619,4.769,55.568,4.769c-27.473,0-49.826,22.351-49.826,49.828
		c0,14.126,5.922,26.89,15.402,35.966"/>
	<path fill="none" stroke="#FF0000" stroke-width="5" stroke-linecap="round" stroke-linejoin="round" stroke-miterlimit="10" d="
		M30.561,81.105c-7.052-6.654-11.467-16.076-11.467-26.514c0-20.111,16.365-36.475,36.475-36.475c10.38,0,19.754,4.366,26.402,11.35
		"/>
	<path fill="none" stroke="#FF0000" stroke-width="5" stroke-linecap="round" stroke-linejoin="round" stroke-miterlimit="10" d="
		M21.145,90.563"/>
	<path fill="none" stroke="#FF0000" stroke-width="5" stroke-linecap="round" stroke-linejoin="round" stroke-miterlimit="10" d="
		M30.561,81.105"/>
	<path fill="none" stroke="#FF0000" stroke-width="5" stroke-linecap="round" stroke-linejoin="round" stroke-miterlimit="10" d="
		M81.971,29.467"/>
	<path fill="none" stroke="#FF0000" stroke-width="5" stroke-linecap="round" stroke-linejoin="round" stroke-miterlimit="10" d="
		M91.387,20.009"/>
	<path fill="none" stroke="#FF0000" stroke-width="5" stroke-linecap="round" stroke-linejoin="round" stroke-miterlimit="10" d="
		M70.912,40.575"/>
	<path fill="none" stroke="#FF0000" stroke-width="5" stroke-linecap="round" stroke-linejoin="round" stroke-miterlimit="10" d="
		M81.971,29.467"/>
	<path fill="none" stroke="#FF0000" stroke-width="5" stroke-linecap="round" stroke-linejoin="round" stroke-miterlimit="10" d="
		M30.561,81.105"/>
	<path fill="none" stroke="#FF0000" stroke-width="5" stroke-linecap="round" stroke-linejoin="round" stroke-miterlimit="10" d="
		M41.3,70.318"/>
	<path fill="none" stroke="#FF0000" stroke-width="5" stroke-linecap="round" stroke-linejoin="round" stroke-miterlimit="10" d="
		M81.971,29.467c-6.648-6.984-16.022-11.35-26.402-11.35c-20.11,0-36.475,16.364-36.475,36.475c0,10.438,4.415,19.86,11.467,26.514"
		/>
	<path fill="none" stroke="#FF0000" stroke-width="5" stroke-linecap="round" stroke-linejoin="round" stroke-miterlimit="10" d="
		M41.3,70.318c-4.148-3.844-6.764-9.319-6.764-15.406c0-11.597,9.437-21.032,21.032-21.032c6.054,0,11.502,2.586,15.344,6.694"/>
	<path fill="none" stroke="#FF0000" stroke-width="5" stroke-linecap="round" stroke-linejoin="round" stroke-miterlimit="10" d="
		M70.912,40.575c-3.842-4.108-9.29-6.694-15.344-6.694c-11.596,0-21.032,9.436-21.032,21.032c0,6.087,2.616,11.562,6.764,15.406"/>
	<path fill="#FF0000" d="M49.409,62.173c-2.201-1.791-3.608-4.519-3.608-7.577c0-5.396,4.374-9.769,9.768-9.769
		c3.043,0,5.76,1.392,7.552,3.574"/>
	<path fill="none" stroke="#FF0000" stroke-width="5" stroke-linecap="round" stroke-linejoin="round" stroke-miterlimit="10" d="
		M41.3,70.318"/>
	<path fill="none" stroke="#FF0000" stroke-width="5" stroke-linecap="round" stroke-linejoin="round" stroke-miterlimit="10" d="
		M70.912,40.575"/>
</g>
<path fill="none" stroke="#FF0000" stroke-width="5" stroke-linecap="round" stroke-linejoin="round" stroke-miterlimit="10" d="
	M111.129,55.689c0,0,6.912,5.614-10.367,5.614l-60.691,60.692c0,0-8.02,7.588-16.012-0.402c-7.993-7.99-0.403-16.013-0.403-16.013
	l60.691-60.692c0-17.278,5.617-10.367,5.617-10.367L111.129,55.689z"/>
<g>
	<path fill="none" stroke="#FF0000" stroke-width="5" stroke-linecap="round" stroke-linejoin="round" stroke-miterlimit="10" d="
		M100.746,92.987c0,6.487,5.26,11.749,11.746,11.749c6.491,0,11.751-5.262,11.751-11.749c0-6.488-11.751-24.29-11.751-24.29
		S100.746,86.499,100.746,92.987z"/>
</g>
<line fill="none" stroke="#FF0000" stroke-width="5" stroke-linecap="round" stroke-linejoin="round" stroke-miterlimit="10" x1="90.071" y1="71.994" x2="57.24" y2="71.994"/>
</svg>
