<?xml version="1.0" encoding="utf-8"?>
<!-- Generator: Adobe Illustrator 16.0.0, SVG Export Plug-In . SVG Version: 6.00 Build 0)  -->
<!DOCTYPE svg PUBLIC "-//W3C//DTD SVG 1.1//EN" "http://www.w3.org/Graphics/SVG/1.1/DTD/svg11.dtd">
<svg version="1.1" id="Calque_2" xmlns="http://www.w3.org/2000/svg" xmlns:xlink="http://www.w3.org/1999/xlink" x="0px" y="0px"
	 width="128px" height="128px" viewBox="0 0 128 128" enable-background="new 0 0 128 128" xml:space="preserve">
<path fill="none" stroke="#FF0000" stroke-width="5" stroke-miterlimit="10" d="M111.12,123.097c0,0.538-0.427,0.973-0.953,0.973
	H20.334c-0.527,0-0.954-0.435-0.954-0.973V6.903c0-0.537,0.427-0.973,0.954-0.973h89.833c0.526,0,0.953,0.436,0.953,0.973V123.097z"
	/>
<path fill="none" stroke="#FF0000" stroke-width="5" stroke-miterlimit="10" d="M100.376,41.907c0,0.537-0.435,0.972-0.973,0.972
	H31.098c-0.537,0-0.973-0.436-0.973-0.972V17.599c0-0.537,0.436-0.972,0.973-0.972h68.306c0.538,0,0.973,0.436,0.973,0.972V41.907z"
	/>
<path fill="none" stroke="#FF0000" stroke-width="5" stroke-miterlimit="10" d="M47.627,67.085c0,0.435-0.352,0.784-0.785,0.784
	H34.48c-0.433,0-0.786-0.35-0.786-0.784V54.723c0-0.433,0.353-0.785,0.786-0.785h12.361c0.433,0,0.785,0.352,0.785,0.785V67.085z"/>
<path fill="none" stroke="#FF0000" stroke-width="5" stroke-miterlimit="10" d="M72.095,67.085c0,0.435-0.353,0.784-0.785,0.784
	H58.948c-0.433,0-0.786-0.35-0.786-0.784V54.723c0-0.433,0.353-0.785,0.786-0.785H71.31c0.433,0,0.785,0.352,0.785,0.785V67.085z"/>
<path fill="none" stroke="#FF0000" stroke-width="5" stroke-miterlimit="10" d="M97.216,67.085c0,0.435-0.353,0.784-0.785,0.784
	H84.069c-0.434,0-0.785-0.35-0.785-0.784V54.723c0-0.433,0.352-0.785,0.785-0.785h12.361c0.433,0,0.785,0.352,0.785,0.785V67.085z"
	/>
<path fill="none" stroke="#FF0000" stroke-width="5" stroke-miterlimit="10" d="M47.627,89.692c0,0.434-0.352,0.784-0.785,0.784
	H34.48c-0.433,0-0.786-0.351-0.786-0.784V77.33c0-0.434,0.353-0.785,0.786-0.785h12.361c0.433,0,0.785,0.352,0.785,0.785V89.692z"/>
<path fill="none" stroke="#FF0000" stroke-width="5" stroke-miterlimit="10" d="M72.095,89.692c0,0.434-0.353,0.784-0.785,0.784
	H58.948c-0.433,0-0.786-0.351-0.786-0.784V77.33c0-0.434,0.353-0.785,0.786-0.785H71.31c0.433,0,0.785,0.352,0.785,0.785V89.692z"/>
<path fill="none" stroke="#FF0000" stroke-width="5" stroke-miterlimit="10" d="M97.216,89.692c0,0.434-0.353,0.784-0.785,0.784
	H84.069c-0.434,0-0.785-0.351-0.785-0.784V77.33c0-0.434,0.352-0.785,0.785-0.785h12.361c0.433,0,0.785,0.352,0.785,0.785V89.692z"
	/>
<path fill="none" stroke="#FF0000" stroke-width="5" stroke-miterlimit="10" d="M47.627,112.299c0,0.434-0.352,0.784-0.785,0.784
	H34.48c-0.433,0-0.786-0.351-0.786-0.784V99.937c0-0.433,0.353-0.785,0.786-0.785h12.361c0.433,0,0.785,0.353,0.785,0.785V112.299z"
	/>
<path fill="none" stroke="#FF0000" stroke-width="5" stroke-miterlimit="10" d="M72.095,112.299c0,0.434-0.353,0.784-0.785,0.784
	H58.948c-0.433,0-0.786-0.351-0.786-0.784V99.937c0-0.433,0.353-0.785,0.786-0.785H71.31c0.433,0,0.785,0.353,0.785,0.785V112.299z"
	/>
<path fill="none" stroke="#FF0000" stroke-width="5" stroke-miterlimit="10" d="M97.216,112.299c0,0.434-0.353,0.784-0.785,0.784
	H84.069c-0.434,0-0.785-0.351-0.785-0.784V99.937c0-0.433,0.352-0.785,0.785-0.785h12.361c0.433,0,0.785,0.353,0.785,0.785V112.299z
	"/>
</svg>
