<?xml version="1.0" encoding="utf-8"?>
<!-- Generator: Adobe Illustrator 16.0.0, SVG Export Plug-In . SVG Version: 6.00 Build 0)  -->
<!DOCTYPE svg PUBLIC "-//W3C//DTD SVG 1.1//EN" "http://www.w3.org/Graphics/SVG/1.1/DTD/svg11.dtd">
<svg version="1.1" id="Calque_1" xmlns="http://www.w3.org/2000/svg" xmlns:xlink="http://www.w3.org/1999/xlink" x="0px" y="0px"
	 width="128px" height="128px" viewBox="0 0 128 128" enable-background="new 0 0 128 128" xml:space="preserve">
<g id="Calque_1_1_">
</g>
<g>
	<path fill="none" stroke="#FF0000" stroke-width="5" stroke-linecap="round" stroke-linejoin="round" stroke-miterlimit="10" d="
		M12.686,77.973v15.615v31.119l18.448-18.447h79.382c6.973,0,12.673-5.701,12.673-12.672V46.549c0-6.969-5.701-12.672-12.673-12.672
		H76.542"/>
	
		<line fill="none" stroke="#FF0000" stroke-width="5" stroke-linecap="round" stroke-linejoin="round" stroke-miterlimit="10" x1="76.542" y1="62.188" x2="104.794" y2="62.188"/>
	
		<line fill="none" stroke="#FF0000" stroke-width="5" stroke-linecap="round" stroke-linejoin="round" stroke-miterlimit="10" x1="76.542" y1="80.519" x2="104.794" y2="80.519"/>
</g>
<path fill="#FF0000" d="M66.704,1.807H4.454c-1.657,0-3,1.343-3,3v62.25c0,1.658,1.343,3,3,3h62.25c1.657,0,3-1.342,3-3V4.807
	C69.704,3.15,68.361,1.807,66.704,1.807z M16.683,55.38c-2.768,0-5.011-2.243-5.011-5.011s2.243-5.011,5.011-5.011
	c2.767,0,5.01,2.243,5.01,5.011S19.45,55.38,16.683,55.38z M16.683,40.142c-2.768,0-5.011-2.243-5.011-5.01
	c0-2.768,2.243-5.011,5.011-5.011c2.767,0,5.01,2.243,5.01,5.011C21.693,37.899,19.45,40.142,16.683,40.142z M16.683,24.904
	c-2.768,0-5.011-2.243-5.011-5.01c0-2.768,2.243-5.011,5.011-5.011c2.767,0,5.01,2.243,5.01,5.011
	C21.693,22.661,19.45,24.904,16.683,24.904z M55.31,54.528H31.583c-2.306,0-4.175-1.871-4.175-4.176s1.869-4.175,4.175-4.175H55.31
	c2.307,0,4.176,1.87,4.176,4.175S57.616,54.528,55.31,54.528z M55.31,39.29H31.583c-2.306,0-4.175-1.871-4.175-4.175
	c0-2.305,1.869-4.175,4.175-4.175H55.31c2.307,0,4.176,1.87,4.176,4.175C59.485,37.418,57.616,39.29,55.31,39.29z M55.31,24.052
	H31.583c-2.306,0-4.175-1.87-4.175-4.175c0-2.305,1.869-4.175,4.175-4.175H55.31c2.307,0,4.176,1.87,4.176,4.175
	C59.485,22.182,57.616,24.052,55.31,24.052z"/>
</svg>
