<?xml version="1.0" encoding="utf-8"?>
<!-- Generator: Adobe Illustrator 16.0.0, SVG Export Plug-In . SVG Version: 6.00 Build 0)  -->
<!DOCTYPE svg PUBLIC "-//W3C//DTD SVG 1.1//EN" "http://www.w3.org/Graphics/SVG/1.1/DTD/svg11.dtd">
<svg version="1.1" id="Calque_2" xmlns="http://www.w3.org/2000/svg" xmlns:xlink="http://www.w3.org/1999/xlink" x="0px" y="0px"
	 width="128px" height="128px" viewBox="0 0 128 128" enable-background="new 0 0 128 128" xml:space="preserve">
<path fill="none" stroke="#FF0000" stroke-width="5" stroke-linecap="round" stroke-linejoin="round" stroke-miterlimit="10" d="
	M80.17,54.817l-54.762,56.314c0,0-4.271,6.323-11.791-1.196c-7.519-7.52-1.196-11.794-1.196-11.794l56.314-54.759
	c0,0,4.808-15.309-10.396-17.813c-7.347-1.204-12.828,3.569-12.144-2.58c0.681-6.157,15.785-11.311,24.498-7.042
	c8.712,4.275,13.157,8.031,14.354,7.865c1.193-0.173,3.075-2.048,4.61-1.197c1.539,0.851,12.058,10.688,12.182,12.182
	c0.125,1.487-0.048,7.803,1.148,9.007c1.197,1.196,3.59,2.905,5.469,2.394c1.878-0.512,10.255,7.52,9.57,8.882
	c-0.686,1.37-13.842,15.551-15.208,15.212c-1.37-0.34-9.57-8.543-9.229-9.567c0.339-1.03,0.512-5.983-6.665-6.322
	C79.748,54.057,80.17,54.817,80.17,54.817z"/>
</svg>
