<?xml version="1.0" encoding="utf-8"?>
<!-- Generator: Adobe Illustrator 16.0.0, SVG Export Plug-In . SVG Version: 6.00 Build 0)  -->
<!DOCTYPE svg PUBLIC "-//W3C//DTD SVG 1.1//EN" "http://www.w3.org/Graphics/SVG/1.1/DTD/svg11.dtd">
<svg version="1.1" id="Calque_1" xmlns="http://www.w3.org/2000/svg" xmlns:xlink="http://www.w3.org/1999/xlink" x="0px" y="0px"
	 width="128px" height="128px" viewBox="0 0 128 128" enable-background="new 0 0 128 128" xml:space="preserve">
<g id="Calque_2" display="none">
</g>
<path fill="#FF0000" d="M67.25,2H5C3.343,2,2,3.344,2,5v62.25c0,1.657,1.343,3,3,3h62.25c1.658,0,3-1.343,3-3V5
	C70.25,3.344,68.908,2,67.25,2z M17.23,55.572c-2.768,0-5.012-2.242-5.012-5.01s2.244-5.01,5.012-5.01c2.766,0,5.01,2.242,5.01,5.01
	S19.996,55.572,17.23,55.572z M17.23,40.335c-2.768,0-5.012-2.243-5.012-5.01c0-2.768,2.244-5.011,5.012-5.011
	c2.766,0,5.01,2.243,5.01,5.011C22.24,38.092,19.996,40.335,17.23,40.335z M17.23,25.098c-2.768,0-5.012-2.244-5.012-5.01
	c0-2.768,2.244-5.012,5.012-5.012c2.766,0,5.01,2.244,5.01,5.012C22.24,22.854,19.996,25.098,17.23,25.098z M55.857,54.721H32.128
	c-2.305,0-4.174-1.87-4.174-4.176s1.869-4.176,4.174-4.176h23.729c2.305,0,4.174,1.87,4.174,4.176S58.162,54.721,55.857,54.721z
	 M55.857,39.482H32.128c-2.305,0-4.174-1.869-4.174-4.176c0-2.305,1.869-4.175,4.174-4.175h23.729c2.305,0,4.174,1.87,4.174,4.175
	C60.031,37.613,58.162,39.482,55.857,39.482z M55.857,24.244H32.128c-2.305,0-4.174-1.869-4.174-4.175s1.869-4.175,4.174-4.175
	h23.729c2.305,0,4.174,1.869,4.174,4.175S58.162,24.244,55.857,24.244z"/>
<g>
	<path fill="none" stroke="#FF0000" stroke-width="5" stroke-linecap="round" stroke-linejoin="round" d="M77.341,54.236h15.851
		v22.676h9.022L85.265,93.86L68.318,76.912h9.022V54.236z"/>
</g>
<path fill="none" stroke="#FF0000" stroke-width="5" stroke-linecap="round" stroke-linejoin="round" d="M76.828,22.235h45.909
	c1.526,0,2.765,1.238,2.765,2.765v98.094c0,1.526-1.238,2.765-2.765,2.765H47.793c-1.527,0-2.765-1.238-2.765-2.765V76.127"/>
</svg>
