<?xml version="1.0" encoding="utf-8"?>
<!-- Generator: Adobe Illustrator 16.0.0, SVG Export Plug-In . SVG Version: 6.00 Build 0)  -->
<!DOCTYPE svg PUBLIC "-//W3C//DTD SVG 1.1//EN" "http://www.w3.org/Graphics/SVG/1.1/DTD/svg11.dtd">
<svg version="1.1" id="Calque_1" xmlns="http://www.w3.org/2000/svg" xmlns:xlink="http://www.w3.org/1999/xlink" x="0px" y="0px"
	 width="128px" height="128px" viewBox="0 0 128 128" enable-background="new 0 0 128 128" xml:space="preserve">
<g id="Calque_2">
</g>
<g id="Calque_4">
	<g>
		<path fill="#FF0000" d="M31.935,11.219l-7.741,10.185v0.165l12.305-1.631v5.542l-12.305-1.468v0.163l7.822,9.779l-5.134,2.933
			l-4.888-11.407H21.83l-5.297,11.489l-4.645-2.934l7.741-9.941v-0.163L7.57,25.479v-5.542l11.979,1.549v-0.162l-7.66-9.942
			l4.972-2.852l5.051,11.327h0.164l4.97-11.408L31.935,11.219z"/>
	</g>
</g>
<g id="Calque_4_1_">
	<g>
		<path fill="#FF0000" d="M31.935,52.508l-7.741,10.185v0.165l12.305-1.631v5.542l-12.305-1.468v0.162l7.822,9.779l-5.134,2.934
			l-4.888-11.407H21.83l-5.297,11.489l-4.645-2.934l7.741-9.941v-0.162L7.57,66.769v-5.542l11.979,1.549v-0.162l-7.66-9.942
			l4.972-2.852l5.051,11.327h0.164l4.97-11.408L31.935,52.508z"/>
	</g>
</g>
<g id="Calque_4_2_">
	<g>
		<path fill="#FF0000" d="M31.935,95.355l-7.741,10.186v0.164l12.305-1.631v5.542l-12.305-1.468v0.162l7.822,9.779l-5.134,2.934
			l-4.888-11.407H21.83l-5.297,11.489l-4.645-2.934l7.741-9.941v-0.162l-12.06,1.548v-5.542l11.979,1.549v-0.162l-7.66-9.942
			l4.972-2.852l5.051,11.327h0.164l4.97-11.408L31.935,95.355z"/>
	</g>
</g>
<path fill="none" stroke="#FF0000" stroke-width="5" stroke-linecap="round" stroke-miterlimit="10" d="M46.8,21.14h72.035"/>
<path fill="none" stroke="#FF0000" stroke-width="5" stroke-linecap="round" stroke-miterlimit="10" d="M46.8,63.998h72.035"/>
<path fill="none" stroke="#FF0000" stroke-width="5" stroke-linecap="round" stroke-miterlimit="10" d="M46.8,106.846h72.035"/>
</svg>
