<?xml version="1.0" encoding="utf-8"?>
<!-- Generator: Adobe Illustrator 16.0.0, SVG Export Plug-In . SVG Version: 6.00 Build 0)  -->
<!DOCTYPE svg PUBLIC "-//W3C//DTD SVG 1.1//EN" "http://www.w3.org/Graphics/SVG/1.1/DTD/svg11.dtd">
<svg version="1.1" xmlns="http://www.w3.org/2000/svg" xmlns:xlink="http://www.w3.org/1999/xlink" x="0px" y="0px" width="128px"
	 height="128px" viewBox="0 0 128 128" enable-background="new 0 0 128 128" xml:space="preserve">
<g id="Calque_3">
</g>
<g id="Calque_2">
	<path fill="none" stroke="#FF0000" stroke-width="5" stroke-linecap="round" stroke-miterlimit="10" d="M65.876,122.113
		c-1.036,1.038-2.717,1.038-3.753,0L5.886,65.875c-1.037-1.035-1.037-2.715,0-3.751L62.123,5.886c1.036-1.037,2.717-1.037,3.753,0
		l56.237,56.238c1.036,1.036,1.036,2.716,0,3.751L65.876,122.113z"/>
	<path fill="#FF0000" d="M65.021,95.595c-0.563,0.562-1.477,0.564-2.04,0L32.406,65.021c-0.563-0.563-0.563-1.477,0-2.04
		L62.98,32.406c0.563-0.563,1.477-0.563,2.04,0L95.596,62.98c0.562,0.563,0.562,1.476,0,2.039L65.021,95.595z"/>
</g>
</svg>
