<?xml version="1.0" encoding="utf-8"?>
<!-- Generator: Adobe Illustrator 16.0.0, SVG Export Plug-In . SVG Version: 6.00 Build 0)  -->
<!DOCTYPE svg PUBLIC "-//W3C//DTD SVG 1.1//EN" "http://www.w3.org/Graphics/SVG/1.1/DTD/svg11.dtd">
<svg version="1.1" id="Calque_2" xmlns="http://www.w3.org/2000/svg" xmlns:xlink="http://www.w3.org/1999/xlink" x="0px" y="0px"
	 width="128px" height="128px" viewBox="0 0 128 128" enable-background="new 0 0 128 128" xml:space="preserve">
<path fill="none" stroke="#FF0000" stroke-width="5" stroke-linecap="round" stroke-linejoin="round" stroke-miterlimit="10" d="
	M63.787,29.433c0,0-0.991-16.799,15.035-16.799c16.025,0,35.831,0,35.831,0s7.346,0.21,7.346,8.816s0,78.715,0,78.715
	s0.075,6.191-8.606,6.191c-10.076,0-33.432,0-37.534,0c-4.104,0-11.83,4.01-11.83,15.136c0,0-0.241-15.136-12.349-15.136
	c-10.705,0-38.204,0-38.204,0S5.5,107.243,5.5,97.018c0-11.756,0-78.086,0-78.086s1.679-6.298,7.976-6.298
	c6.298,0,30.785,0,36.525,0C55.741,12.634,63.787,21.273,63.787,29.433z"/>
<line fill="none" stroke="#FF0000" stroke-width="5" stroke-linecap="round" stroke-linejoin="round" stroke-miterlimit="10" x1="63.787" y1="29.433" x2="63.787" y2="115.488"/>
<line fill="none" stroke="#FF0000" stroke-width="5" stroke-linecap="round" stroke-linejoin="round" stroke-miterlimit="10" x1="19.684" y1="36.144" x2="41.575" y2="36.144"/>
<line fill="none" stroke="#FF0000" stroke-width="5" stroke-linecap="round" stroke-linejoin="round" stroke-miterlimit="10" x1="19.684" y1="51.047" x2="41.575" y2="51.047"/>
<line fill="none" stroke="#FF0000" stroke-width="5" stroke-linecap="round" stroke-linejoin="round" stroke-miterlimit="10" x1="19.684" y1="65.95" x2="41.575" y2="65.95"/>
<line fill="none" stroke="#FF0000" stroke-width="5" stroke-linecap="round" stroke-linejoin="round" stroke-miterlimit="10" x1="19.684" y1="80.854" x2="41.575" y2="80.854"/>
<g>
	
		<rect x="96.321" y="62.677" fill="none" stroke="#FF0000" stroke-width="5" stroke-linecap="round" stroke-linejoin="round" stroke-miterlimit="10" width="14.194" height="7.869"/>
	
		<rect x="96.321" y="47.223" fill="none" stroke="#FF0000" stroke-width="5" stroke-linecap="round" stroke-linejoin="round" stroke-miterlimit="10" width="14.194" height="7.867"/>
	
		<rect x="96.321" y="31.768" fill="none" stroke="#FF0000" stroke-width="5" stroke-linecap="round" stroke-linejoin="round" stroke-miterlimit="10" width="14.194" height="7.866"/>
	
		<rect x="73.569" y="78.132" fill="none" stroke="#FF0000" stroke-width="5" stroke-linecap="round" stroke-linejoin="round" stroke-miterlimit="10" width="14.19" height="7.868"/>
	
		<rect x="96.321" y="78.132" fill="none" stroke="#FF0000" stroke-width="5" stroke-linecap="round" stroke-linejoin="round" stroke-miterlimit="10" width="14.194" height="7.868"/>
</g>
</svg>
