<?xml version="1.0" encoding="utf-8"?>
<!-- Generator: Adobe Illustrator 16.0.0, SVG Export Plug-In . SVG Version: 6.00 Build 0)  -->
<!DOCTYPE svg PUBLIC "-//W3C//DTD SVG 1.1//EN" "http://www.w3.org/Graphics/SVG/1.1/DTD/svg11.dtd">
<svg version="1.1" id="Calque_1" xmlns="http://www.w3.org/2000/svg" xmlns:xlink="http://www.w3.org/1999/xlink" x="0px" y="0px"
	 width="128px" height="128px" viewBox="0 0 128 128" enable-background="new 0 0 128 128" xml:space="preserve">
<g id="Calque_1_1_" display="none">
</g>
<g>
	<path fill="none" d="M64,76c0-10.082,6.784-18.574,16.035-21.175c-3.688-9.146-10.574-13.51-21.018-13.51
		c-15.598,0-23.285,9.733-24.185,30.632c-0.039,0.839-0.544,1.589-1.312,1.937c-8.843,3.996-14.563,12.834-14.563,22.513
		c0,13.624,11.083,24.707,24.711,24.707h32.466c13.624,0,24.708-11.083,24.708-24.707c0-1.314-0.108-2.612-0.313-3.884
		C96.654,95.926,91.57,98,86,98C73.85,98,64,88.15,64,76z"/>
	<path fill="none" d="M82.956,7.801c-3.346,0.52-9.254,1.993-13.39,6.134c-4.157,4.155-5.625,10.044-6.137,13.379
		c3.347-0.517,9.25-1.995,13.385-6.131C80.973,17.025,82.439,11.139,82.956,7.801z"/>
	<path fill="#FF0000" d="M60.929,32.054c0.017,0,0.039,0,0.062,0c0.472-0.013,11.667-0.396,18.981-7.714
		c7.319-7.321,7.703-18.515,7.714-18.987c0.017-0.611-0.223-1.203-0.655-1.64c-0.428-0.428-0.944-0.655-1.635-0.65
		c-0.472,0.011-11.665,0.395-18.986,7.715c-7.314,7.317-7.698,18.513-7.715,18.985c-0.017,0.61,0.223,1.203,0.656,1.636
		C59.768,31.818,60.339,32.054,60.929,32.054z M69.566,13.935c4.136-4.141,10.044-5.614,13.39-6.134
		c-0.517,3.338-1.983,9.225-6.142,13.382c-4.135,4.136-10.038,5.614-13.385,6.131C63.941,23.979,65.409,18.089,69.566,13.935z"/>
	<path fill="#FF0000" d="M98.961,90.743c0.205,1.271,1.883,4.339,1.883,5.653c0,13.624-11.084,24.707-24.708,24.707H43.669
		c-13.627,0-24.711-11.083-24.711-24.707c0-9.679,5.72-18.517,14.563-22.513c0.768-0.348,1.273-1.098,1.312-1.937
		c0.9-20.899,8.587-30.632,24.185-30.632c12.551,0,18.038,6.807,21.726,15.954c1.422-0.4,2.902-0.66,4.426-0.766
		c-4.302-11.431-10.985-19.652-26.151-19.652c-25.863,0-28.109,23.845-28.582,33.567c-9.727,4.964-15.941,15.012-15.941,25.979
		c0,16.087,13.09,29.171,29.175,29.171h32.466c16.087,0,29.171-13.084,29.171-29.171c0-2.745-0.581-4.981-2.236-9.638
		C102.033,88.273,100.335,89.533,98.961,90.743z"/>
	<path fill="none" stroke="#FF0000" stroke-width="5" stroke-miterlimit="10" d="M80.035,54.825C70.784,57.426,64,65.918,64,76
		c0,12.15,9.85,22,22,22c5.57,0,10.654-2.074,14.53-5.487"/>
</g>
</svg>
