<?xml version="1.0" encoding="utf-8"?>
<!-- Generator: Adobe Illustrator 16.0.0, SVG Export Plug-In . SVG Version: 6.00 Build 0)  -->
<!DOCTYPE svg PUBLIC "-//W3C//DTD SVG 1.1//EN" "http://www.w3.org/Graphics/SVG/1.1/DTD/svg11.dtd">
<svg version="1.1" id="Calque_1" xmlns="http://www.w3.org/2000/svg" xmlns:xlink="http://www.w3.org/1999/xlink" x="0px" y="0px"
	 width="128px" height="128px" viewBox="0 0 128 128" enable-background="new 0 0 128 128" xml:space="preserve">
<g>
	<g>
		
			<rect x="84.057" y="21.704" transform="matrix(-0.7068 0.7074 -0.7074 -0.7068 179.3916 11.9528)" fill="none" stroke="#FF0000" stroke-width="5" stroke-linecap="round" stroke-linejoin="round" stroke-miterlimit="10" width="6.324" height="42.897"/>
		
			<rect x="35.453" y="70.308" transform="matrix(0.707 -0.7072 0.7072 0.707 -53.5749 54.1895)" fill="none" stroke="#FF0000" stroke-width="5" stroke-linecap="round" stroke-linejoin="round" stroke-miterlimit="10" width="6.325" height="42.894"/>
		<path fill="none" stroke="#FF0000" stroke-width="5" stroke-linecap="round" stroke-linejoin="round" stroke-miterlimit="10" d="
			M69.817,30.223c0,0-15.143,13.632-9.495,30.168c0.759,2.334,0.434,3.583-0.22,4.247c-0.663,0.655-1.916,0.98-4.248,0.221
			c-16.537-5.649-30.168,9.494-30.168,9.494"/>
		<path fill="none" stroke="#FF0000" stroke-width="5" stroke-linecap="round" stroke-linejoin="round" stroke-miterlimit="10" d="
			M100.148,60.556c0,0-13.634,15.14-30.169,9.493c-2.334-0.759-3.585-0.435-4.248,0.219c-0.654,0.664-0.979,1.915-0.222,4.248
			c5.649,16.538-9.494,30.17-9.494,30.17"/>
	</g>
</g>
<path fill="none" stroke="#FF0000" stroke-width="5" stroke-linecap="round" stroke-linejoin="round" d="M111.981,104.692
	c-11.067,12.516-27.248,20.408-45.271,20.408c-33.364,0-60.413-27.049-60.413-60.413S33.347,4.274,66.711,4.274
	c22.718,0,42.508,12.541,52.825,31.078"/>
<polyline fill="none" stroke="#FF0000" stroke-width="5" stroke-linecap="round" stroke-linejoin="round" stroke-miterlimit="10" points="
	123.5,13 122.5,38.5 97,30.5 "/>
</svg>
