<?xml version="1.0" encoding="utf-8"?>
<!-- Generator: Adobe Illustrator 16.0.0, SVG Export Plug-In . SVG Version: 6.00 Build 0)  -->
<!DOCTYPE svg PUBLIC "-//W3C//DTD SVG 1.1//EN" "http://www.w3.org/Graphics/SVG/1.1/DTD/svg11.dtd">
<svg version="1.1" id="Calque_2" xmlns="http://www.w3.org/2000/svg" xmlns:xlink="http://www.w3.org/1999/xlink" x="0px" y="0px"
	 width="128px" height="128px" viewBox="0 0 128 128" enable-background="new 0 0 128 128" xml:space="preserve">
<path fill="none" stroke="#FF0000" stroke-width="5" stroke-miterlimit="10" d="M44.975,91.803c0,1.585-1.285,2.87-2.869,2.87h-9.37
	c-1.584,0-2.868-1.285-2.868-2.87V56.238c0-1.584,1.284-2.869,2.868-2.869h9.37c1.584,0,2.869,1.284,2.869,2.869V91.803z"/>
<path fill="none" stroke="#FF0000" stroke-width="5" stroke-miterlimit="10" d="M44.975,58.914c0,0,12.336-6.469,17.017-21.033
	c0,0,1.053-5.354,2.152-9.752c1.1-4.398,5.688-2.294,8.365,0c2.678,2.294,6.501,15.68-1.147,21.799h20.461c0,0,6.31,0.19,6.31,5.544
	c0,5.355-6.31,5.164-6.31,5.164H85.32h8.605c0,0,4.206,0.955,4.206,6.12c0,5.161-6.31,4.817-6.31,4.97s-7.648,0-7.648,0h9.752
	c0,0,2.868,1.53,2.868,5.546s-3.826,4.973-4.972,4.973c-1.147,0-8.223,0-8.223,0h10.326c0,0,2.868,3.441,1.911,6.309
	c-0.956,2.869-2.869,3.824-4.015,4.398c-1.147,0.573-30.594,0-30.594,0s-6.31,0.19-8.605-2.104
	c-2.294-2.295-7.648-4.78-7.648-18.356C44.975,58.914,44.975,58.914,44.975,58.914z"/>
<circle fill="none" stroke="#FF0000" stroke-width="5" stroke-miterlimit="10" cx="64.167" cy="64.166" r="58.333"/>
</svg>
