<?xml version="1.0" encoding="utf-8"?>
<!-- Generator: Adobe Illustrator 16.0.0, SVG Export Plug-In . SVG Version: 6.00 Build 0)  -->
<!DOCTYPE svg PUBLIC "-//W3C//DTD SVG 1.1//EN" "http://www.w3.org/Graphics/SVG/1.1/DTD/svg11.dtd">
<svg version="1.1" id="Calque_1" xmlns="http://www.w3.org/2000/svg" xmlns:xlink="http://www.w3.org/1999/xlink" x="0px" y="0px"
	 width="128px" height="128px" viewBox="0 0 128 128" enable-background="new 0 0 128 128" xml:space="preserve">
<g id="Calque_1_2_">
	<g id="Calque_1_1_" display="none">
		<g id="Calque_2" display="inline">
		</g>
		<g display="inline">
			<path fill="none" stroke="#FF0000" stroke-width="5" stroke-linecap="round" stroke-linejoin="round" stroke-miterlimit="10" d="
				M124.395,104.253c0.335-2.349,0.519-4.75,0.519-7.193c0-27.937-22.648-50.584-50.586-50.584
				c-20.908,0-38.849,12.686-46.556,30.776c3.188-2.462,7.175-3.939,11.512-3.939c9.441,0,17.24,6.935,18.637,15.983
				c3.452-4.484,8.857-7.383,14.952-7.383c10.083,0,18.296,7.91,18.828,17.863c3.445-4.599,8.919-7.585,15.103-7.585
				C114.823,92.19,121.657,97.197,124.395,104.253z"/>
		</g>
		
			<path display="inline" fill="none" stroke="#FF0000" stroke-width="5" stroke-linecap="round" stroke-linejoin="round" stroke-miterlimit="10" d="
			M40.018,59.9c-5.211-2.228-8.863-7.401-8.863-13.426c0-8.062,6.534-14.595,14.595-14.595c8.059,0,14.593,6.534,14.593,14.595
			c0,0.681-0.047,1.352-0.137,2.008"/>
		
			<line display="inline" fill="none" stroke="#FF0000" stroke-width="5" stroke-linecap="round" stroke-linejoin="round" stroke-miterlimit="10" x1="64.727" y1="128" x2="78.552" y2="82.787"/>
	</g>
	<g id="Calque_2_1_" display="none">
		<g display="inline">
			<path fill="#FF0000" d="M27.103,97.667c0,1.501,0.093,3.026,0.29,4.568l3.416,0.138c0.35-1.585,1.146-2.762,2.308-3.419
				c0.666-0.366,1.385-0.541,2.165-0.541c0.436,0,0.888,0.053,1.348,0.166l1.566,0.38l0.496-1.528
				c0.415-1.279,1.139-2.218,2.153-2.79c0.654-0.362,1.364-0.542,2.142-0.542c0.438,0,0.893,0.055,1.358,0.17l1.68,0.42l0.416-1.686
				c0.103-0.356,0.214-0.651,0.371-0.924l10.706,19.487c-8.502,2.078-14.142,4.962-14.225,4.998
				c-0.715,0.362-1.083,1.167-0.895,1.946c0.188,0.776,0.884,1.323,1.684,1.323h60.045c0.797,0,1.493-0.544,1.681-1.323
				c0.192-0.775-0.179-1.584-0.894-1.946c-0.098-0.046-7.6-3.89-18.396-5.897l6.19-42.81c2.048,0.465,3.381,1.403,4.391,2.642
				l1.023,1.257l1.318-0.936c1.512-1.05,3.134-1.609,4.775-1.609c0.335,0,0.665,0.021,0.992,0.067
				c1.989,0.282,3.725,1.354,5.11,3.058l1.019,1.261l1.329-0.931c1.502-1.049,3.129-1.609,4.766-1.609
				c0.33,0,0.661,0.023,0.992,0.072c1.824,0.25,3.434,1.172,4.756,2.629l2.955-1.632c-4.081-14.704-13.935-26.21-27.033-29.744
				c0.047-0.165,0.082-0.331,0.099-0.505c0.031-0.201,0.046-0.411,0.046-0.617c0-2.119-1.557-3.938-3.685-4.238
				c-0.206-0.031-0.411-0.044-0.617-0.044c-2.109,0-3.934,1.556-4.238,3.697c-0.03,0.201-0.044,0.394-0.044,0.577
				c0,0.019,0,0.032,0,0.05c-13.815,0.053-26.551,8.887-34.358,22.481l2.637,2.173c1.714-1.489,3.662-2.285,5.615-2.285
				c0.335,0,0.667,0.022,0.987,0.072c1.999,0.282,3.729,1.351,5.125,3.062l1.02,1.252l1.321-0.924
				c1.503-1.056,3.126-1.615,4.767-1.615c0.34,0,0.667,0.021,1.002,0.071c1.975,0.272,3.719,1.351,5.11,3.063l1.095,1.342
				l1.343-1.086c0.929-0.729,1.769-1.118,2.909-1.266l-6.139,42.469c-2.843-0.389-5.857-0.631-8.995-0.636
				c-4.686,0.005-9.097,0.55-13.054,1.324L49.656,90.071c0.495-0.162,0.948-0.237,1.377-0.237c0.346,0,0.688,0.044,1.02,0.129
				l1.573,0.389l0.492-1.537c0.418-1.284,1.143-2.228,2.155-2.79c0.661-0.373,1.375-0.547,2.154-0.547
				c0.433,0,0.887,0.053,1.337,0.17l1.576,0.393l0.497-1.544c0.417-1.274,1.138-2.218,2.153-2.79
				c0.663-0.371,1.386-0.546,2.173-0.546c0.325,0,0.661,0.031,0.997,0.095l1.373-3.081c-5.563-4.232-11.938-6.606-18.168-6.606
				c-2.759-0.004-5.49,0.465-8.08,1.444c-0.643-1.038-1.764-1.623-2.91-1.619c-0.559-0.004-1.148,0.143-1.663,0.434
				c-1.126,0.631-1.762,1.802-1.762,3c0,0.541,0.131,1.086,0.394,1.591C30.256,81.304,27.096,89.148,27.103,97.667z M95.786,41.26
				c0,0.036-0.005,0.072-0.013,0.13c-0.031,0.223-0.157,0.397-0.453,0.572l-0.481,0.26l-0.398-0.363
				c-0.224-0.21-0.313-0.429-0.309-0.607c0-0.037,0-0.067,0.005-0.095c0.054-0.411,0.421-0.714,0.809-0.714l0,0
				c0.036,0,0.072,0,0.125,0.008C95.481,40.506,95.786,40.872,95.786,41.26z M92.279,64.253c-0.719-0.102-1.408-0.151-2.065-0.151
				c-1.743-0.014-3.331,0.402-4.717,1.179c-1.695-1.64-3.821-2.792-6.228-3.124c-0.499-0.072-1-0.108-1.492-0.108
				c-1.923,0-3.777,0.528-5.45,1.436c-1.704-1.668-3.852-2.835-6.291-3.174c-0.499-0.071-0.991-0.103-1.478-0.103
				c-0.63,0-1.256,0.053-1.864,0.161c7.327-9.759,17.507-15.611,28.066-15.602c0.787,0,1.579,0.031,2.369,0.098l1.597,0.13
				l1.103,0.2c11.374,2.044,20.584,10.81,25.376,23.083c-0.729-0.273-1.497-0.475-2.293-0.581c-0.497-0.071-0.997-0.103-1.479-0.103
				c-1.923-0.004-3.773,0.519-5.454,1.426c-1.699-1.668-3.845-2.83-6.276-3.174c-0.502-0.067-0.997-0.1-1.484-0.1
				c-1.932,0-3.791,0.527-5.472,1.439C97.145,65.697,94.981,64.619,92.279,64.253z M53.408,116.308
				c5.316-1.689,12.657-3.37,20.695-3.37c2.951,0,5.804,0.232,8.504,0.604l-0.036,0.228l3.43,0.495l0.022-0.169
				c3.37,0.639,6.42,1.457,8.977,2.275H53.208C53.275,116.349,53.342,116.327,53.408,116.308z M30.591,96.473
				c0.31-7.976,3.693-14.801,9.568-18.53l0.877-0.553l0.635-0.327c2.708-1.373,5.645-2.029,8.69-2.029
				c4.056-0.005,8.313,1.184,12.338,3.441c-0.135,0.066-0.273,0.135-0.409,0.211c-1.405,0.79-2.47,1.976-3.181,3.352
				c-0.229-0.014-0.456-0.026-0.683-0.026c-1.314-0.005-2.638,0.313-3.849,0.983c-1.417,0.797-2.486,1.995-3.192,3.38
				c-0.121-0.004-0.236-0.01-0.352-0.01c-1.351-0.004-2.771,0.37-4.167,1.148c-1.454,0.781-2.566,1.861-3.233,3.142
				c-0.214-0.016-0.43-0.026-0.648-0.026c-1.309,0-2.637,0.311-3.834,0.987c-1.411,0.785-2.474,1.98-3.181,3.358
				c-0.233-0.017-0.456-0.026-0.689-0.026c-0.003,0-0.008,0-0.018,0c-1.305,0-2.628,0.31-3.826,0.979
				C31.137,96.092,30.855,96.276,30.591,96.473z"/>
		</g>
	</g>
	<g>
		<path fill="none" stroke="#FF0000" stroke-width="5" stroke-linecap="round" stroke-linejoin="round" stroke-miterlimit="10" d="
			M35.395,73.512c4.309,3.181,5.208,4.516,5.173,9.254c2.633-2.884,6.744-4.228,10.766-3.119c4.786,1.317,7.902,5.678,7.867,10.414
			c2.634-2.884,6.746-4.227,10.769-3.119c4.783,1.319,7.899,5.679,7.866,10.415c2.634-2.881,6.745-4.225,10.767-3.116
			c4.784,1.317,7.902,5.677,7.866,10.413c2.634-2.881,6.745-4.225,10.768-3.116c3.147,0.866,5.573,3.054,6.857,5.796
			c2.252-22.792-12.136-44.573-34.964-50.861"/>
	</g>
	
		<line fill="none" stroke="#FF0000" stroke-width="5" stroke-linecap="round" stroke-linejoin="round" stroke-miterlimit="10" x1="56.052" y1="124.293" x2="71.969" y2="87.724"/>
	
		<line fill="none" stroke="#FF0000" stroke-width="5" stroke-linecap="round" stroke-linejoin="round" stroke-miterlimit="10" x1="36.104" y1="125.812" x2="119.588" y2="125.812"/>
</g>
<path fill="#FF0000" d="M67.25,2.168H5c-1.657,0-3,1.343-3,3v62.25c0,1.656,1.343,3,3,3h62.25c1.656,0,3-1.344,3-3V5.168
	C70.25,3.511,68.906,2.168,67.25,2.168z M17.229,55.74c-2.768,0-5.011-2.241-5.011-5.01s2.243-5.011,5.011-5.011
	c2.767,0,5.01,2.242,5.01,5.011S19.996,55.74,17.229,55.74z M17.229,40.503c-2.768,0-5.011-2.242-5.011-5.01
	s2.243-5.011,5.011-5.011c2.767,0,5.01,2.243,5.01,5.011C22.239,38.259,19.996,40.503,17.229,40.503z M17.229,25.266
	c-2.768,0-5.011-2.244-5.011-5.01c0-2.768,2.243-5.012,5.011-5.012c2.767,0,5.01,2.244,5.01,5.012
	C22.239,23.021,19.996,25.266,17.229,25.266z M55.855,54.889H32.129c-2.305,0-4.174-1.87-4.174-4.177
	c0-2.306,1.869-4.176,4.174-4.176h23.726c2.307,0,4.176,1.87,4.176,4.176C60.031,53.019,58.162,54.889,55.855,54.889z M55.855,39.65
	H32.129c-2.305,0-4.174-1.869-4.174-4.176c0-2.305,1.869-4.175,4.174-4.175h23.726c2.307,0,4.176,1.87,4.176,4.175
	C60.031,37.781,58.162,39.65,55.855,39.65z M55.855,24.413H32.129c-2.305,0-4.174-1.869-4.174-4.175
	c0-2.306,1.869-4.175,4.174-4.175h23.726c2.307,0,4.176,1.869,4.176,4.175C60.031,22.543,58.162,24.413,55.855,24.413z"/>
</svg>
