<?xml version="1.0" encoding="utf-8"?>
<!-- Generator: Adobe Illustrator 16.0.0, SVG Export Plug-In . SVG Version: 6.00 Build 0)  -->
<!DOCTYPE svg PUBLIC "-//W3C//DTD SVG 1.1//EN" "http://www.w3.org/Graphics/SVG/1.1/DTD/svg11.dtd">
<svg version="1.1" id="Calque_1" xmlns="http://www.w3.org/2000/svg" xmlns:xlink="http://www.w3.org/1999/xlink" x="0px" y="0px"
	 width="128px" height="128px" viewBox="0 0 128 128" enable-background="new 0 0 128 128" xml:space="preserve">
<g id="Calque_1_1_" display="none">
</g>
<path fill="none" stroke="#FF0000" stroke-width="5" stroke-miterlimit="10" d="M120.5,34c0,1.657-1.343,3-3,3h-105
	c-1.657,0-3-1.343-3-3V22c0-1.657,1.343-3,3-3h105c1.657,0,3,1.343,3,3V34z"/>
<path fill="none" stroke="#FF0000" stroke-width="5" stroke-miterlimit="10" d="M120.5,70.5c0,1.656-1.343,3-3,3h-105
	c-1.657,0-3-1.344-3-3v-12c0-1.657,1.343-3,3-3h105c1.657,0,3,1.343,3,3V70.5z"/>
<path fill="none" stroke="#FF0000" stroke-width="5" stroke-miterlimit="10" d="M120.5,106c0,1.656-1.343,3-3,3h-105
	c-1.657,0-3-1.344-3-3V94c0-1.656,1.343-3,3-3h105c1.657,0,3,1.344,3,3V106z"/>
</svg>
