<?xml version="1.0" encoding="utf-8"?>
<!-- Generator: Adobe Illustrator 16.0.0, SVG Export Plug-In . SVG Version: 6.00 Build 0)  -->
<!DOCTYPE svg PUBLIC "-//W3C//DTD SVG 1.1//EN" "http://www.w3.org/Graphics/SVG/1.1/DTD/svg11.dtd">
<svg version="1.1" id="Calque_1" xmlns="http://www.w3.org/2000/svg" xmlns:xlink="http://www.w3.org/1999/xlink" x="0px" y="0px"
	 width="128px" height="128px" viewBox="0 0 128 128" enable-background="new 0 0 128 128" xml:space="preserve">
<g id="Calque_4">
	<g>
		<path fill="#FF0000" d="M70.376,39.575c6.939,0,12.457,1.814,16.56,5.441c4.1,3.627,6.149,7.849,6.149,12.666
			c0,2.667-0.753,5.19-2.258,7.569c-1.503,2.381-4.723,5.621-9.654,9.719c-2.552,2.125-4.136,3.83-4.752,5.119
			c-0.617,1.291-0.899,3.601-0.841,6.926H64.612c-0.028-1.575-0.042-2.537-0.042-2.882c0-3.555,0.587-6.479,1.763-8.772
			c1.175-2.294,3.527-4.875,7.053-7.743c3.527-2.866,5.636-4.745,6.324-5.634c1.06-1.404,1.592-2.952,1.592-4.645
			c0-2.35-0.941-4.365-2.817-6.042c-1.879-1.677-4.408-2.516-7.592-2.516L70.376,39.575z M64.612,103.273V91.188h12.086v12.085
			H64.612z"/>
	</g>
	<g>
		<path fill="none" stroke="#FF0000" stroke-width="5" stroke-linecap="round" stroke-linejoin="round" stroke-miterlimit="10" d="
			M24.19,73.116c0,11.674,4.153,22.376,11.06,30.712l1.396,17.345l17.032-3.642c5.746,2.421,12.061,3.761,18.687,3.761
			c26.607,0,48.176-21.568,48.176-48.176S98.974,24.94,72.366,24.94"/>
	</g>
</g>
<path fill="#FF0000" d="M66.401,1.505H4.151c-1.657,0-3,1.343-3,3v62.25c0,1.656,1.343,3,3,3h62.25c1.656,0,3-1.344,3-3V4.505
	C69.401,2.848,68.058,1.505,66.401,1.505z M16.38,55.077c-2.768,0-5.011-2.241-5.011-5.01s2.243-5.011,5.011-5.011
	c2.767,0,5.01,2.242,5.01,5.011S19.147,55.077,16.38,55.077z M16.38,39.84c-2.768,0-5.011-2.242-5.011-5.01s2.243-5.011,5.011-5.011
	c2.767,0,5.01,2.243,5.01,5.011C21.391,37.596,19.147,39.84,16.38,39.84z M16.38,24.603c-2.768,0-5.011-2.244-5.011-5.01
	c0-2.768,2.243-5.012,5.011-5.012c2.767,0,5.01,2.244,5.01,5.012C21.391,22.358,19.147,24.603,16.38,24.603z M55.007,54.226H31.281
	c-2.305,0-4.174-1.87-4.174-4.177c0-2.306,1.869-4.176,4.174-4.176h23.726c2.307,0,4.176,1.87,4.176,4.176
	C59.183,52.355,57.313,54.226,55.007,54.226z M55.007,38.987H31.281c-2.305,0-4.174-1.869-4.174-4.176
	c0-2.305,1.869-4.175,4.174-4.175h23.726c2.307,0,4.176,1.87,4.176,4.175C59.183,37.118,57.313,38.987,55.007,38.987z M55.007,23.75
	H31.281c-2.305,0-4.174-1.869-4.174-4.175c0-2.306,1.869-4.175,4.174-4.175h23.726c2.307,0,4.176,1.869,4.176,4.175
	C59.183,21.88,57.313,23.75,55.007,23.75z"/>
</svg>
