<?xml version="1.0" encoding="utf-8"?>
<!-- Generator: Adobe Illustrator 16.0.0, SVG Export Plug-In . SVG Version: 6.00 Build 0)  -->
<!DOCTYPE svg PUBLIC "-//W3C//DTD SVG 1.1//EN" "http://www.w3.org/Graphics/SVG/1.1/DTD/svg11.dtd">
<svg version="1.1" xmlns="http://www.w3.org/2000/svg" xmlns:xlink="http://www.w3.org/1999/xlink" x="0px" y="0px" width="128px"
	 height="128px" viewBox="0 0 128 128" enable-background="new 0 0 128 128" xml:space="preserve">
<g id="Calque_2">
</g>
<g id="Calque_3">
	<path fill="none" stroke="#FF0000" stroke-width="5" stroke-miterlimit="10" d="M122.809,31.5c0,1.657-1.342,3-3,3h-112
		c-1.657,0-3-1.343-3-3v-22c0-1.657,1.343-3,3-3h112c1.658,0,3,1.343,3,3V31.5z"/>
	<path fill="none" stroke="#FF0000" stroke-width="5" stroke-miterlimit="10" d="M113.476,114.167c0,1.657-1.344,3-3,3H17.142
		c-1.657,0-3-1.343-3-3V37.5c0-1.657,1.343-3,3-3h93.334c1.656,0,3,1.343,3,3V114.167z"/>
	<path fill="none" stroke="#FF0000" stroke-width="5" stroke-miterlimit="10" d="M85.155,64.852c0,1.206-0.978,2.184-2.184,2.184
		H44.645c-1.206,0-2.183-0.978-2.183-2.184v-9.218c0-1.206,0.978-2.183,2.183-2.183h38.327c1.206,0,2.184,0.978,2.184,2.183V64.852z
		"/>
</g>
</svg>
