<?xml version="1.0" encoding="utf-8"?>
<!-- Generator: Adobe Illustrator 16.0.0, SVG Export Plug-In . SVG Version: 6.00 Build 0)  -->
<!DOCTYPE svg PUBLIC "-//W3C//DTD SVG 1.1//EN" "http://www.w3.org/Graphics/SVG/1.1/DTD/svg11.dtd">
<svg version="1.1" id="Calque_1" xmlns="http://www.w3.org/2000/svg" xmlns:xlink="http://www.w3.org/1999/xlink" x="0px" y="0px"
	 width="128px" height="128px" viewBox="0 0 128 128" enable-background="new 0 0 128 128" xml:space="preserve">
<g id="Calque_2">
	
		<polyline fill="none" stroke="#FF0000" stroke-width="5" stroke-linecap="round" stroke-linejoin="round" stroke-miterlimit="10" points="
		63.846,115.374 98.386,115.374 98.386,125.281 124.37,103.027 98.386,80.769 98.386,90.681 63.846,90.681 	"/>
	
		<polyline fill="none" stroke="#FF0000" stroke-width="5" stroke-linecap="round" stroke-linejoin="round" stroke-miterlimit="10" points="
		26.694,74.233 43.337,88.487 43.337,78.579 77.875,78.579 	"/>
	
		<line fill="none" stroke="#FF0000" stroke-width="5" stroke-linecap="round" stroke-linejoin="round" stroke-miterlimit="10" x1="77.875" y1="53.886" x2="71.101" y2="53.886"/>
</g>
<path fill="#FF0000" d="M66.359,1.354H4.11c-1.657,0-3,1.343-3,3v62.25c0,1.657,1.343,3,3,3h62.25c1.658,0,3-1.343,3-3V4.354
	C69.359,2.698,68.018,1.354,66.359,1.354z M16.339,54.927c-2.768,0-5.011-2.242-5.011-5.01s2.243-5.01,5.011-5.01
	c2.767,0,5.01,2.242,5.01,5.01S19.106,54.927,16.339,54.927z M16.339,39.689c-2.768,0-5.011-2.243-5.011-5.01
	c0-2.768,2.243-5.011,5.011-5.011c2.767,0,5.01,2.243,5.01,5.011C21.349,37.446,19.106,39.689,16.339,39.689z M16.339,24.452
	c-2.768,0-5.011-2.243-5.011-5.01c0-2.768,2.243-5.011,5.011-5.011c2.767,0,5.01,2.243,5.01,5.011
	C21.349,22.208,19.106,24.452,16.339,24.452z M54.967,54.075H31.239c-2.305,0-4.174-1.87-4.174-4.176s1.869-4.176,4.174-4.176
	h23.728c2.305,0,4.174,1.87,4.174,4.176S57.271,54.075,54.967,54.075z M54.967,38.837H31.239c-2.305,0-4.174-1.869-4.174-4.176
	c0-2.305,1.869-4.175,4.174-4.175h23.728c2.305,0,4.174,1.87,4.174,4.175C59.141,36.968,57.271,38.837,54.967,38.837z
	 M54.967,23.599H31.239c-2.305,0-4.174-1.87-4.174-4.175s1.869-4.175,4.174-4.175h23.728c2.305,0,4.174,1.87,4.174,4.175
	S57.271,23.599,54.967,23.599z"/>
</svg>
