<?xml version="1.0" encoding="UTF-8" standalone="no"?>
<svg
   xmlns:dc="http://purl.org/dc/elements/1.1/"
   xmlns:cc="http://creativecommons.org/ns#"
   xmlns:rdf="http://www.w3.org/1999/02/22-rdf-syntax-ns#"
   xmlns:svg="http://www.w3.org/2000/svg"
   xmlns="http://www.w3.org/2000/svg"
   xmlns:sodipodi="http://sodipodi.sourceforge.net/DTD/sodipodi-0.dtd"
   xmlns:inkscape="http://www.inkscape.org/namespaces/inkscape"
   enable-background="new 0 0 32 32"
   height="32px"
   id="Слой_1"
   version="1.1"
   viewBox="0 0 32 32"
   width="32px"
   xml:space="preserve"
   sodipodi:docname="iconButtonMark.svg"
   inkscape:version="1.0.1 (3bc2e813f5, 2020-09-07)"><metadata
     id="metadata24"><rdf:RDF><cc:Work
         rdf:about=""><dc:format>image/svg+xml</dc:format><dc:type
           rdf:resource="http://purl.org/dc/dcmitype/StillImage" /></cc:Work></rdf:RDF></metadata><defs
     id="defs22" /><sodipodi:namedview
     pagecolor="#ffffff"
     bordercolor="#666666"
     borderopacity="1"
     objecttolerance="10"
     gridtolerance="10"
     guidetolerance="10"
     inkscape:pageopacity="0"
     inkscape:pageshadow="2"
     inkscape:window-width="1920"
     inkscape:window-height="1017"
     id="namedview20"
     showgrid="false"
     inkscape:zoom="22.96875"
     inkscape:cx="16"
     inkscape:cy="16"
     inkscape:window-x="-8"
     inkscape:window-y="-8"
     inkscape:window-maximized="1"
     inkscape:current-layer="Слой_1" /><g
     id="Cancel"><path
       clip-rule="evenodd"
       d="M16,0C7.163,0,0,7.163,0,16c0,8.836,7.163,16,16,16   c8.836,0,16-7.163,16-16C32,7.163,24.836,0,16,0z M16,30C8.268,30,2,23.732,2,16C2,8.268,8.268,2,16,2s14,6.268,14,14   C30,23.732,23.732,30,16,30z"
       fill="#121313"
       fill-rule="evenodd"
       id="path2"
       style="fill:#ff1313;fill-opacity:1" /><path
       clip-rule="evenodd"
       d="M22.729,21.271l-5.268-5.269l5.238-5.195   c0.395-0.391,0.395-1.024,0-1.414c-0.394-0.39-1.034-0.39-1.428,0l-5.231,5.188l-5.309-5.31c-0.394-0.396-1.034-0.396-1.428,0   c-0.394,0.395-0.394,1.037,0,1.432l5.301,5.302l-5.331,5.287c-0.394,0.391-0.394,1.024,0,1.414c0.394,0.391,1.034,0.391,1.429,0   l5.324-5.28l5.276,5.276c0.394,0.396,1.034,0.396,1.428,0C23.123,22.308,23.123,21.667,22.729,21.271z"
       fill="#121313"
       fill-rule="evenodd"
       id="path4"
       style="fill:#fe1313;fill-opacity:1" /></g><g
     id="g7" /><g
     id="g9" /><g
     id="g11" /><g
     id="g13" /><g
     id="g15" /><g
     id="g17" /></svg>
