<?xml version="1.0" encoding="utf-8"?>
<!-- Generator: Adobe Illustrator 16.0.0, SVG Export Plug-In . SVG Version: 6.00 Build 0)  -->
<!DOCTYPE svg PUBLIC "-//W3C//DTD SVG 1.1//EN" "http://www.w3.org/Graphics/SVG/1.1/DTD/svg11.dtd">
<svg version="1.1" id="Calque_2" xmlns="http://www.w3.org/2000/svg" xmlns:xlink="http://www.w3.org/1999/xlink" x="0px" y="0px"
	 width="128px" height="128px" viewBox="0 0 128 128" enable-background="new 0 0 128 128" xml:space="preserve">
<path fill="none" stroke="#FF0000" stroke-width="5" stroke-miterlimit="10" d="M123.09,107.68c0,2.438-1.979,4.416-4.416,4.416
	H8.453c-2.438,0-4.415-1.979-4.415-4.416V20.321c0-2.44,1.977-4.416,4.415-4.416h110.221c2.438,0,4.416,1.975,4.416,4.416V107.68z"
	/>
<line fill="none" stroke="#FF0000" stroke-width="5" stroke-miterlimit="10" x1="4.038" y1="43.5" x2="123.09" y2="43.5"/>
<path fill="#FF0000" d="M26.006,29.659c0,2.035-1.649,3.685-3.685,3.685H21.95c-2.035,0-3.685-1.649-3.685-3.685v-0.371
	c0-2.035,1.649-3.685,3.685-3.685h0.371c2.036,0,3.685,1.649,3.685,3.685V29.659z"/>
<path fill="#FF0000" d="M39.471,29.659c0,2.035-1.649,3.685-3.684,3.685h-0.371c-2.035,0-3.685-1.649-3.685-3.685v-0.371
	c0-2.035,1.649-3.685,3.685-3.685h0.371c2.035,0,3.684,1.649,3.684,3.685V29.659z"/>
<path fill="#FF0000" d="M53.35,29.659c0,2.035-1.649,3.685-3.684,3.685h-0.371c-2.035,0-3.685-1.649-3.685-3.685v-0.371
	c0-2.035,1.649-3.685,3.685-3.685h0.371c2.035,0,3.684,1.649,3.684,3.685V29.659z"/>
</svg>
