<?xml version="1.0" encoding="utf-8"?>
<!-- Generator: Adobe Illustrator 16.0.0, SVG Export Plug-In . SVG Version: 6.00 Build 0)  -->
<!DOCTYPE svg PUBLIC "-//W3C//DTD SVG 1.1//EN" "http://www.w3.org/Graphics/SVG/1.1/DTD/svg11.dtd">
<svg version="1.1" id="Calque_1" xmlns="http://www.w3.org/2000/svg" xmlns:xlink="http://www.w3.org/1999/xlink" x="0px" y="0px"
	 width="128px" height="128px" viewBox="0 0 128 128" enable-background="new 0 0 128 128" xml:space="preserve">
<g id="Calque_1_1_" display="none">
</g>
<g>
	<path fill="#FF0000" d="M88.537,58.854H69.977V40.293c0-2.486-2.963-4.501-5.448-4.501c-2.486,0-5.449,2.015-5.449,4.501v18.561
		H40.519c-2.486,0-4.501,2.963-4.501,5.449s2.015,5.449,4.501,5.449h18.561v18.56c0,2.486,2.963,4.502,5.449,4.502
		c2.485,0,5.448-2.016,5.448-4.502v-18.56h18.561c2.486,0,4.502-2.963,4.502-5.449S91.023,58.854,88.537,58.854z"/>
</g>
<path fill="none" stroke="#FF0000" stroke-width="5" stroke-miterlimit="10" d="M118.591,109.914c0,4.943-4.009,8.952-8.952,8.952
	H18.417c-4.944,0-8.952-4.009-8.952-8.952V18.692c0-4.944,4.008-8.952,8.952-8.952h91.222c4.943,0,8.952,4.008,8.952,8.952V109.914z
	"/>
</svg>
