<?xml version="1.0" encoding="utf-8"?>
<!-- Generator: Adobe Illustrator 16.0.0, SVG Export Plug-In . SVG Version: 6.00 Build 0)  -->
<!DOCTYPE svg PUBLIC "-//W3C//DTD SVG 1.1//EN" "http://www.w3.org/Graphics/SVG/1.1/DTD/svg11.dtd">
<svg version="1.1" id="Calque_1" xmlns="http://www.w3.org/2000/svg" xmlns:xlink="http://www.w3.org/1999/xlink" x="0px" y="0px"
	 width="128px" height="128px" viewBox="0 0 128 128" enable-background="new 0 0 128 128" xml:space="preserve">
<g id="Calque_2" display="none">
</g>
<path fill="#FF0000" d="M77.021,86.119v33.104c0,0-0.629,4.395,4.866,4.395c5.488,0,30.282,0,30.282,0s4.08,0.314,4.08-6.432
	c0-6.75,0-31.066,0-31.066s-0.314-4.864-5.184-4.864c-4.858,0-8.939-2.511-8.939-6.432c0-3.926,5.02-5.806,8.314-5.806
	c0,0,1.938,0.353,1.938-1.082c0-1.426,0-3.218,0-3.218s0.258-0.716-1.995-0.716c-2.244,0-27.816,0-27.816,0
	s-1.586-0.105-1.586,1.174v3.018c0,0-0.104,0.867,2.194,0.867c2.304,0,7.572,1.486,7.572,5.883c0,4.401-4.092,6.291-8.235,6.291
	C78.375,81.23,77.021,84.813,77.021,86.119z"/>
<g>
	<path fill="none" stroke="#FF0000" stroke-width="5" stroke-linecap="round" stroke-linejoin="round" d="M44.033,25.944h17.199
		V50.55h9.792L52.632,68.941L34.242,50.55h9.791V25.944z"/>
</g>
<path fill="none" stroke="#FF0000" stroke-width="5" stroke-linecap="round" stroke-linejoin="round" d="M68.616,119.648H12.559
	c-1.982,0-3.589-1.606-3.589-3.589V10.792c0-1.982,1.607-3.589,3.589-3.589h80.147c1.982,0,3.588,1.607,3.588,3.589v45.376"/>
</svg>
