<?xml version="1.0" encoding="utf-8"?>
<!-- Generator: Adobe Illustrator 16.0.0, SVG Export Plug-In . SVG Version: 6.00 Build 0)  -->
<!DOCTYPE svg PUBLIC "-//W3C//DTD SVG 1.1//EN" "http://www.w3.org/Graphics/SVG/1.1/DTD/svg11.dtd">
<svg version="1.1" id="Calque_1" xmlns="http://www.w3.org/2000/svg" xmlns:xlink="http://www.w3.org/1999/xlink" x="0px" y="0px"
	 width="128px" height="128px" viewBox="0 0 128 128" enable-background="new 0 0 128 128" xml:space="preserve">
<g id="Calque_1_3_" display="none">
	<g id="Calque_1_2_" display="inline">
		<g id="Calque_1_1_" display="none">
		</g>
		<line fill="none" stroke="#FF0000" stroke-width="11" stroke-miterlimit="10" x1="5.1" y1="23.43" x2="58.226" y2="23.43"/>
		<polygon fill="#FF0000" points="59.673,98.5 5.1,98.5 5.1,87.5 49.771,87.5 49.771,93.469 57.501,94.107 		"/>
		<line fill="none" stroke="#FF0000" stroke-width="11" stroke-miterlimit="10" x1="58.226" y1="35.064" x2="86.372" y2="35.064"/>
		<line fill="none" stroke="#FF0000" stroke-width="11" stroke-miterlimit="10" x1="14.986" y1="49.512" x2="42.757" y2="49.512"/>
		<polygon fill="#FF0000" points="57.127,68.146 42.757,68.146 42.757,57.147 65.837,57.147 56.636,65.693 		"/>
		<path fill="none" stroke="#FF0000" stroke-width="5" stroke-linecap="round" stroke-linejoin="round" stroke-miterlimit="10" d="
			M56.148,111.904l-45.126,0.003c-3.316,0-6.004-2.915-6.004-6.509V15.383c0-3.594,2.688-6.507,6.004-6.507h107.083
			c3.316,0,6.006,2.914,6.006,6.507v90.016c0,3.597-2.16,6.479-5.479,6.479l-3.063,0.001"/>
	</g>
</g>
<path id="path29_1_" fill="none" stroke="#FF0000" stroke-width="5" stroke-miterlimit="10" d="M49.162,124.288H14.354
	c-5.954,0-10.781-4.826-10.781-10.781V14.983c0-5.955,4.827-10.781,10.781-10.781h98.525c5.953,0,10.781,4.827,10.781,10.781v43.958
	"/>
<line id="line31" fill="none" stroke="#FF0000" stroke-width="12" stroke-miterlimit="10" x1="12.498" y1="24.584" x2="41.168" y2="24.584"/>
<line id="line33" fill="none" stroke="#FF0000" stroke-width="12" stroke-miterlimit="10" x1="40.292" y1="78.417" x2="61.009" y2="78.417"/>
<line id="line37" fill="none" stroke="#FF0000" stroke-width="12" stroke-miterlimit="10" x1="41.143" y1="51.53" x2="73.934" y2="51.53"/>
<path id="line39_2_" fill="none" stroke="#FF0000" stroke-width="12" stroke-miterlimit="10" d="M124.08,104.037"/>
<path id="line39_1_" fill="none" stroke="#FF0000" stroke-width="12" stroke-miterlimit="10" d="M75.107,104.037"/>
<path id="path2790" fill="none" stroke="#FF0000" d="M40.766,18.707l-0.073,65.684"/>
<g id="Calque_1_4_" xmlns:serif="http://www.serif.com/">
	<g id="path17">
		<path fill="none" stroke="#FF0000" stroke-width="5" stroke-linecap="round" stroke-linejoin="round" stroke-miterlimit="10" d="
			M91.661,51.712c0.043,0.032,0.097,0.078,0.141,0.123l0.022,2.669l0.028,3.432l0.018,2.23l2.128,0.668l1.079,0.34
			c1.438,0.452,2.824,1.021,4.24,1.739c1.604,0.813,2.035,1.031,2.847,1.031c1.342,0,1.584-0.241,4.555-3.197
			c0.678-0.674,1.57-1.562,2.004-1.921h0.038c0.55,0.461,1.763,1.684,3.358,3.293l0.165,0.167c1.713,1.73,3.017,3.044,3.5,3.638
			c-0.371,0.443-1.251,1.325-1.922,1.998l-2.321,2.327l-1.554,1.559l0.981,1.971l0.75,1.504c0.756,1.521,1.274,2.794,1.736,4.259
			l0.339,1.08l0.668,2.129l2.232,0.018l3.433,0.028l2.67,0.022c0.045,0.045,0.091,0.099,0.122,0.143v9.754
			c-0.031,0.044-0.077,0.097-0.122,0.142l-2.674,0.021l-3.438,0.029l-2.253,0.019l-0.653,2.157l-0.243,0.804
			c-0.451,1.492-1.418,3.764-2.247,5.28l-0.346,0.63l-1.103,2.012l1.62,1.625l2.363,2.368c0.938,0.942,1.58,1.621,1.926,2.005
			c-0.467,0.552-1.75,1.839-3.442,3.534l-0.133,0.134c-1.636,1.638-2.881,2.885-3.455,3.364c-0.443-0.372-1.318-1.245-1.985-1.911
			c-3.028-3.016-3.209-3.197-4.544-3.197c-0.785,0-1.12,0.167-2.976,1.087c-1.551,0.77-2.677,1.229-4.153,1.694l-1.049,0.33
			l-2.126,0.67l-0.017,2.229l-0.029,3.433l-0.021,2.67c-0.033,0.032-0.069,0.065-0.104,0.092c-0.568,0.031-2.091,0.036-4.603,0.043
			l-0.956,0.002c-2.292,0-3.768-0.02-4.254-0.038c-0.041-0.02-0.09-0.053-0.128-0.087l-0.021-2.691l-0.028-3.437l-0.019-2.254
			l-2.157-0.653l-0.807-0.244c-1.46-0.441-3.603-1.351-5.209-2.213l-0.724-0.389l-2.004-1.076l-1.61,1.604l-2.369,2.361
			c-0.942,0.938-1.621,1.581-2.004,1.927c-0.583-0.485-1.984-1.89-3.577-3.485l-0.112-0.114c-1.621-1.622-2.857-2.862-3.339-3.437
			c0.376-0.446,1.256-1.329,1.926-2.002l2.323-2.331l1.555-1.56l-0.982-1.972l-0.749-1.501c-0.762-1.529-1.282-2.803-1.738-4.257
			l-0.339-1.079l-0.668-2.13l-2.231-0.018l-3.437-0.027l-2.669-0.021c-0.044-0.043-0.091-0.098-0.123-0.141v-9.756
			c0.032-0.044,0.078-0.097,0.123-0.141l2.671-0.022l3.433-0.028l2.241-0.019l0.663-2.141l0.292-0.941
			c0.408-1.319,1.204-3.249,1.852-4.488l0.676-1.292l1.039-1.987l-1.578-1.592l-2.337-2.358c-0.726-0.731-1.603-1.617-1.959-2.05
			v-0.033c0.461-0.551,1.686-1.765,3.298-3.363l0.165-0.163c1.667-1.652,3.029-3.003,3.635-3.499
			c0.446,0.375,1.316,1.243,1.98,1.904c2.655,2.646,3.207,3.196,4.615,3.196c0.683,0,1.355-0.209,1.918-0.588
			c0.146-0.08,0.493-0.263,1.002-0.519c1.291-0.645,2.748-1.235,4.105-1.662l1.079-0.34l2.127-0.669l0.019-2.23l0.028-3.432
			l0.021-2.676c0.042-0.043,0.092-0.087,0.132-0.116H91.661"/>
	</g>
	<path id="path19" fill="none" stroke="#FF0000" stroke-width="5" stroke-miterlimit="10" d="M85.437,102.422
		c-0.846-0.09-2.426-0.432-3.216-0.693c-5.099-1.691-8.8-5.921-9.865-11.274c-0.295-1.482-0.294-3.83,0.001-5.316
		c1.205-6.052,5.705-10.55,11.764-11.759c1.47-0.293,3.821-0.292,5.31,0.002c4.025,0.796,7.374,3.03,9.596,6.402
		c3.206,4.872,3.206,11.159,0,16.031c-2.206,3.348-5.596,5.618-9.541,6.389C88.509,102.393,86.291,102.513,85.437,102.422z"/>
</g>
<g id="Calque_2">
</g>
</svg>
