<?xml version="1.0" encoding="utf-8"?>
<!-- Generator: Adobe Illustrator 16.0.0, SVG Export Plug-In . SVG Version: 6.00 Build 0)  -->
<!DOCTYPE svg PUBLIC "-//W3C//DTD SVG 1.1//EN" "http://www.w3.org/Graphics/SVG/1.1/DTD/svg11.dtd">
<svg version="1.1" id="Calque_3_3_" xmlns="http://www.w3.org/2000/svg" xmlns:xlink="http://www.w3.org/1999/xlink" x="0px"
	 y="0px" width="128px" height="128px" viewBox="0 0 128 128" enable-background="new 0 0 128 128" xml:space="preserve">
<g>
	<path fill="#FF0000" d="M14.959,111.692c-0.456-0.766-0.694-2.925,0.862-4.111l57.667-42.375L15.821,22.733
		c-0.82-0.701-1.232-1.499-1.232-2.39c0-1.086,0.588-1.977,1.771-2.681c1.177-0.7,2.591-1.051,4.229-1.051h85.036
		c1.746,0,7.102,0,7.102,6.485c0,5.459-5.355,5.067-7.102,5.067H47.416l48.35,34.555c0.919,0.637,1.383,1.467,1.383,2.487
		c0,0.958-0.464,1.721-1.383,2.297l-44.259,33.013h54.119c1.746,0,7.102,0.222,7.102,6.87c0,7.109-5.355,6.413-7.102,6.413H21.667
		C19.407,113.797,16.347,114.021,14.959,111.692z"/>
</g>
</svg>
