<?xml version="1.0" encoding="utf-8"?>
<!-- Generator: Adobe Illustrator 16.0.0, SVG Export Plug-In . SVG Version: 6.00 Build 0)  -->
<!DOCTYPE svg PUBLIC "-//W3C//DTD SVG 1.1//EN" "http://www.w3.org/Graphics/SVG/1.1/DTD/svg11.dtd">
<svg version="1.1" id="Calque_2" xmlns="http://www.w3.org/2000/svg" xmlns:xlink="http://www.w3.org/1999/xlink" x="0px" y="0px"
	 width="128px" height="128px" viewBox="0 0 128 128" enable-background="new 0 0 128 128" xml:space="preserve">
<path fill="none" stroke="#FF0000" stroke-width="5" stroke-miterlimit="10" d="M35.072,120.834c0,1.657-1.343,3-3,3H12.833
	c-1.657,0-3-1.343-3-3V84.167c0-1.657,1.343-3,3-3h19.239c1.657,0,3,1.343,3,3V120.834z"/>
<path fill="none" stroke="#FF0000" stroke-width="5" stroke-miterlimit="10" d="M74.314,120.834c0,1.657-1.343,3-3,3H52.076
	c-1.657,0-3-1.343-3-3V67c0-1.657,1.343-3,3-3h19.239c1.657,0,3,1.343,3,3V120.834z"/>
<path fill="none" stroke="#FF0000" stroke-width="5" stroke-miterlimit="10" d="M113.557,120.834c0,1.657-1.343,3-3,3H91.318
	c-1.657,0-3-1.343-3-3v-89c0-1.657,1.343-3,3-3h19.238c1.657,0,3,1.343,3,3V120.834z"/>
<polygon fill="none" stroke="#FF0000" stroke-width="5" stroke-linecap="round" stroke-linejoin="round" stroke-miterlimit="10" points="
	45.841,10.5 81.464,7.423 65.167,36.5 "/>
<line fill="none" stroke="#FF0000" stroke-width="5" stroke-linecap="round" stroke-linejoin="round" stroke-miterlimit="10" x1="15.803" y1="52.283" x2="55.432" y2="23.402"/>
</svg>
