<?xml version="1.0" encoding="utf-8"?>
<!-- Generator: Adobe Illustrator 16.0.0, SVG Export Plug-In . SVG Version: 6.00 Build 0)  -->
<!DOCTYPE svg PUBLIC "-//W3C//DTD SVG 1.1//EN" "http://www.w3.org/Graphics/SVG/1.1/DTD/svg11.dtd">
<svg version="1.1"
	 id="Calque_1" xmlns:sodipodi="http://sodipodi.sourceforge.net/DTD/sodipodi-0.dtd" xmlns:inkscape="http://www.inkscape.org/namespaces/inkscape" xmlns:rdf="http://www.w3.org/1999/02/22-rdf-syntax-ns#" xmlns:dc="http://purl.org/dc/elements/1.1/" xmlns:cc="http://creativecommons.org/ns#" xmlns:svg="http://www.w3.org/2000/svg" sodipodi:docname="iconActivity.svg" inkscape:version="1.0.1 (3bc2e813f5, 2020-09-07)"
	 xmlns="http://www.w3.org/2000/svg" xmlns:xlink="http://www.w3.org/1999/xlink" x="0px" y="0px" width="128px" height="128px"
	 viewBox="0 0 128 128" enable-background="new 0 0 128 128" xml:space="preserve">
<sodipodi:namedview  objecttolerance="10" inkscape:cy="64" borderopacity="1" guidetolerance="10" inkscape:zoom="5.7421875" bordercolor="#666666" gridtolerance="10" pagecolor="#ffffff" showgrid="false" id="namedview42" inkscape:cx="64" inkscape:pageshadow="2" inkscape:window-x="-8" inkscape:pageopacity="0" inkscape:window-width="1920" inkscape:window-y="-8" inkscape:current-layer="Calque_1" inkscape:window-maximized="1" inkscape:window-height="1017">
	</sodipodi:namedview>
<line id="line16" fill="none" stroke="#FF0000" stroke-width="5" stroke-linecap="round" stroke-linejoin="round" stroke-miterlimit="10" x1="67.342" y1="114.369" x2="67.342" y2="29.148"/>
<line id="line18" fill="none" stroke="#FF0000" stroke-width="5" stroke-linecap="round" stroke-linejoin="round" stroke-miterlimit="10" x1="50.21" y1="26.429" x2="113.5" y2="26.429"/>
<path id="path22" fill="none" stroke="#FF0000" stroke-width="5" stroke-linecap="round" stroke-linejoin="round" stroke-miterlimit="10" d="
	M11.219,43.485c0,0.171,0.615,0.31,1.374,0.31h34.353c0.758,0,1.374-0.139,1.374-0.31V9.519c0-0.171-0.616-0.31-1.374-0.31H12.593
	c-0.759,0-1.374,0.139-1.374,0.31V43.485z"/>
<g id="Calque_2" display="none">
	
		<polyline id="polyline26" display="inline" fill="none" stroke="#FF0000" stroke-width="5" stroke-linecap="round" stroke-linejoin="round" stroke-miterlimit="10" points="
		-15.692,71.884 -1.538,71.884 8.923,54.038 27.539,99.884 47.385,40.5 58.154,70.191 79.077,70.191 	"/>
	
		<circle id="circle28" display="inline" fill="none" stroke="#FF0000" stroke-width="5" stroke-linecap="round" stroke-linejoin="round" stroke-miterlimit="10" cx="89.385" cy="69.884" r="10.308"/>
	<g id="g38" display="inline">
		
			<path id="path30" fill="none" stroke="#FF0000" stroke-width="5" stroke-linecap="round" stroke-linejoin="round" stroke-miterlimit="10" d="
			M89.385,34.5V17c0-1.657-1.343-3-3-3H72"/>
		
			<path id="path32" fill="none" stroke="#FF0000" stroke-width="5" stroke-linecap="round" stroke-linejoin="round" stroke-miterlimit="10" d="
			M12,14H-1.5c-1.657,0-3,1.343-3,3v17.5"/>
		
			<path id="path34" fill="none" stroke="#FF0000" stroke-width="5" stroke-linecap="round" stroke-linejoin="round" stroke-miterlimit="10" d="
			M72,115h14.385c1.657,0,3-1.343,3-3V94.5"/>
		
			<path id="path36" fill="none" stroke="#FF0000" stroke-width="5" stroke-linecap="round" stroke-linejoin="round" stroke-miterlimit="10" d="
			M-4.5,94.5V112c0,1.657,1.343,3,3,3H12"/>
	</g>
</g>
<line id="line18-4_2_" fill="none" stroke="#FF0000" stroke-width="5" stroke-linecap="round" stroke-linejoin="round" stroke-miterlimit="10" x1="67.848" y1="115.5" x2="113.5" y2="115.5"/>
<line id="line18-4_1_" fill="none" stroke="#FF0000" stroke-width="5" stroke-linecap="round" stroke-linejoin="round" stroke-miterlimit="10" x1="67.848" y1="71.758" x2="113.5" y2="71.758"/>
<circle fill="#FF0000" cx="113.5" cy="26.429" r="9"/>
<circle fill="#FF0000" cx="113.5" cy="71.758" r="9"/>
<circle fill="#FF0000" cx="113.5" cy="115.5" r="9"/>
</svg>
