<?xml version="1.0" encoding="utf-8"?>
<!-- Generator: Adobe Illustrator 16.0.0, SVG Export Plug-In . SVG Version: 6.00 Build 0)  -->
<!DOCTYPE svg PUBLIC "-//W3C//DTD SVG 1.1//EN" "http://www.w3.org/Graphics/SVG/1.1/DTD/svg11.dtd">
<svg version="1.1" id="Calque_1" xmlns="http://www.w3.org/2000/svg" xmlns:xlink="http://www.w3.org/1999/xlink" x="0px" y="0px"
	 width="128px" height="128px" viewBox="0 0 128 128" enable-background="new 0 0 128 128" xml:space="preserve">
<g id="Calque_2_2_">
	
		<polyline fill="none" stroke="#FF0000" stroke-width="5" stroke-linecap="round" stroke-linejoin="round" stroke-miterlimit="10" points="
		43.287,73.717 43.287,104.893 82.064,122.612 119.84,103.221 119.84,62.438 81.563,43.718 73.273,47.266 	"/>
	
		<polyline fill="none" stroke="#FF0000" stroke-width="5" stroke-linecap="round" stroke-linejoin="round" stroke-miterlimit="10" points="
		70.842,72.1 81.563,76.479 81.563,114.922 	"/>
	
		<line fill="none" stroke="#FF0000" stroke-width="5" stroke-linecap="round" stroke-linejoin="round" stroke-miterlimit="10" x1="81.563" y1="76.479" x2="112.994" y2="64.949"/>
</g>
<path fill="#FF0000" d="M66.911,1.959H4.662c-1.657,0-3,1.343-3,3v62.25c0,1.656,1.343,3,3,3h62.25c1.656,0,3-1.344,3-3V4.959
	C69.911,3.302,68.567,1.959,66.911,1.959z M16.891,55.531c-2.768,0-5.011-2.241-5.011-5.01s2.243-5.011,5.011-5.011
	c2.767,0,5.01,2.242,5.01,5.011S19.658,55.531,16.891,55.531z M16.891,40.294c-2.768,0-5.011-2.242-5.011-5.01
	s2.243-5.011,5.011-5.011c2.767,0,5.01,2.243,5.01,5.011C21.901,38.05,19.658,40.294,16.891,40.294z M16.891,25.057
	c-2.768,0-5.011-2.244-5.011-5.01c0-2.768,2.243-5.012,5.011-5.012c2.767,0,5.01,2.244,5.01,5.012
	C21.901,22.813,19.658,25.057,16.891,25.057z M55.517,54.68H31.791c-2.305,0-4.174-1.87-4.174-4.177
	c0-2.306,1.869-4.176,4.174-4.176h23.726c2.307,0,4.176,1.87,4.176,4.176C59.693,52.81,57.824,54.68,55.517,54.68z M55.517,39.441
	H31.791c-2.305,0-4.174-1.869-4.174-4.176c0-2.305,1.869-4.175,4.174-4.175h23.726c2.307,0,4.176,1.87,4.176,4.175
	C59.693,37.572,57.824,39.441,55.517,39.441z M55.517,24.204H31.791c-2.305,0-4.174-1.869-4.174-4.175
	c0-2.306,1.869-4.175,4.174-4.175h23.726c2.307,0,4.176,1.869,4.176,4.175C59.693,22.334,57.824,24.204,55.517,24.204z"/>
</svg>
