<?xml version="1.0" encoding="utf-8"?>
<!-- Generator: Adobe Illustrator 16.0.0, SVG Export Plug-In . SVG Version: 6.00 Build 0)  -->
<!DOCTYPE svg PUBLIC "-//W3C//DTD SVG 1.1//EN" "http://www.w3.org/Graphics/SVG/1.1/DTD/svg11.dtd">
<svg version="1.1"
	 id="svg42" xmlns:dc="http://purl.org/dc/elements/1.1/" xmlns:cc="http://creativecommons.org/ns#" xmlns:rdf="http://www.w3.org/1999/02/22-rdf-syntax-ns#" xmlns:svg="http://www.w3.org/2000/svg" xmlns:sodipodi="http://sodipodi.sourceforge.net/DTD/sodipodi-0.dtd" xmlns:inkscape="http://www.inkscape.org/namespaces/inkscape" sodipodi:docname="iconPlanning.svg" inkscape:version="1.0 (4035a4fb49, 2020-05-01)"
	 xmlns="http://www.w3.org/2000/svg" xmlns:xlink="http://www.w3.org/1999/xlink" x="0px" y="0px" width="128px" height="128px"
	 viewBox="0 0 128 128" enable-background="new 0 0 128 128" xml:space="preserve">
<sodipodi:namedview  inkscape:zoom="4.0603397" inkscape:cy="86.204818" inkscape:cx="62.793161" showgrid="false" guidetolerance="10" gridtolerance="10" objecttolerance="10" borderopacity="1" bordercolor="#666666" pagecolor="#ffffff" id="namedview44" inkscape:window-height="1017" inkscape:window-y="-8" inkscape:pageopacity="0" inkscape:window-maximized="1" inkscape:current-layer="svg42" inkscape:window-x="-8" inkscape:pageshadow="2" inkscape:window-width="1920">
	</sodipodi:namedview>
<g id="Calque_1" display="none">
	<g id="Calque_1_2_" display="inline">
		<g id="Calque_1_1_">
		</g>
		
			<line id="line3" fill="none" stroke="#FF0000" stroke-width="11" stroke-miterlimit="10" x1="5.1" y1="35.064" x2="58.226" y2="35.064"/>
		
			<line id="line5" fill="none" stroke="#FF0000" stroke-width="11" stroke-miterlimit="10" x1="58.226" y1="46.698" x2="86.372" y2="46.698"/>
		
			<line id="line7" fill="none" stroke="#FF0000" stroke-width="11" stroke-miterlimit="10" x1="17.83" y1="68.512" x2="45.601" y2="68.512"/>
		
			<line id="line9" fill="none" stroke="#FF0000" stroke-width="11" stroke-miterlimit="10" x1="45.601" y1="81.646" x2="68.682" y2="81.646"/>
		
			<line id="line11" fill="none" stroke="#FF0000" stroke-width="11" stroke-miterlimit="10" x1="67.805" y1="92.5" x2="113.844" y2="92.5"/>
		<path id="path13" fill="none" stroke="#FF0000" stroke-width="5" stroke-miterlimit="10" d="M124.111,105.398
			c0,3.594-2.688,6.509-6.006,6.509H11.022c-3.316,0-6.004-2.915-6.004-6.509V15.383c0-3.594,2.688-6.507,6.004-6.507h107.083
			c3.314,0,6.006,2.914,6.006,6.507V105.398z"/>
	</g>
	<g id="Calque_1_3_" display="inline">
	</g>
	
		<path id="path17" display="inline" fill="none" stroke="#FF0000" stroke-width="5" stroke-linecap="round" stroke-miterlimit="10" d="
		M120.105,121.5H13.022c-3.316,0-6.004-2.915-6.004-6.509V12.5"/>
	
		<line id="line19" display="inline" fill="none" stroke="#FF0000" stroke-width="11" stroke-miterlimit="10" x1="24.572" y1="26.21" x2="103.43" y2="26.21"/>
	
		<line id="line21" display="inline" fill="none" stroke="#FF0000" stroke-width="11" stroke-miterlimit="10" x1="17.501" y1="50.5" x2="65.251" y2="50.5"/>
	
		<line id="line23" display="inline" fill="none" stroke="#FF0000" stroke-width="11" stroke-miterlimit="10" x1="65.251" y1="67" x2="102.045" y2="67"/>
	
		<line id="line25" display="inline" fill="none" stroke="#FF0000" stroke-width="11" stroke-miterlimit="10" x1="33.251" y1="98.473" x2="81.002" y2="98.473"/>
</g>
<g id="Calque_2">
</g>
<path fill="none" stroke="#FF0000" stroke-width="5" stroke-miterlimit="10" d="M119.597,119.632c0,3.333-2.702,6.039-6.039,6.039
	H14.142c-3.335,0-6.04-2.706-6.04-6.039V10.553c0-3.338,2.704-6.045,6.04-6.045h99.416c3.337,0,6.039,2.708,6.039,6.045V119.632z"/>
<path fill="none" stroke="#FF0000" stroke-width="5" stroke-miterlimit="10" d="M98.506,119.249c0,3.55-2.205,6.422-4.919,6.422
	H38.024c-2.718,0-4.921-2.872-4.921-6.422V80.312c0-3.55,2.203-6.423,4.921-6.423h55.563c2.714,0,4.919,2.873,4.919,6.423V119.249z"
	/>
<path fill="none" stroke="#FF0000" stroke-width="5" stroke-miterlimit="10" d="M98.506,37.164c0,2.939-2.306,5.323-5.154,5.323
	H51.894c-2.846,0-5.155-2.383-5.155-5.323V9.934c0-2.94,2.309-5.323,5.155-5.323h41.458c2.849,0,5.154,2.383,5.154,5.323V37.164z"/>
</svg>
