<?xml version="1.0" encoding="utf-8"?>
<!-- Generator: Adobe Illustrator 16.0.0, SVG Export Plug-In . SVG Version: 6.00 Build 0)  -->
<!DOCTYPE svg PUBLIC "-//W3C//DTD SVG 1.1//EN" "http://www.w3.org/Graphics/SVG/1.1/DTD/svg11.dtd">
<svg version="1.1" id="Calque_1" xmlns="http://www.w3.org/2000/svg" xmlns:xlink="http://www.w3.org/1999/xlink" x="0px" y="0px"
	 width="128px" height="128px" viewBox="0 0 128 128" enable-background="new 0 0 128 128" xml:space="preserve">
<g id="Calque_1_1_">
	<g id="Calque_2" display="none">
	</g>
	
		<polyline fill="none" stroke="#FF0000" stroke-width="5" stroke-linecap="round" stroke-linejoin="round" stroke-miterlimit="10" points="
		110.074,18.928 124.148,18.928 124.148,110.464 124.148,119.5 3,119.5 3,18.928 17.391,18.928 	"/>
	
		<line fill="none" stroke="#FF0000" stroke-width="5" stroke-linecap="round" stroke-linejoin="round" stroke-miterlimit="10" x1="70.096" y1="18.928" x2="97.348" y2="18.928"/>
	
		<line fill="none" stroke="#FF0000" stroke-width="5" stroke-linecap="round" stroke-linejoin="round" stroke-miterlimit="10" x1="30.119" y1="18.928" x2="57.372" y2="18.928"/>
	
		<rect x="17.392" y="8.464" fill="none" stroke="#FF0000" stroke-width="5" stroke-linecap="round" stroke-linejoin="round" stroke-miterlimit="10" width="12.728" height="20.626"/>
	
		<rect x="57.37" y="8.464" fill="none" stroke="#FF0000" stroke-width="5" stroke-linecap="round" stroke-linejoin="round" stroke-miterlimit="10" width="12.728" height="20.626"/>
	
		<rect x="97.348" y="8.464" fill="none" stroke="#FF0000" stroke-width="5" stroke-linecap="round" stroke-linejoin="round" stroke-miterlimit="10" width="12.729" height="20.626"/>
</g>
<g id="Calque_2_1_" display="none">
	<g display="inline">
		<path fill="none" stroke="#FF0000" stroke-width="5" stroke-linecap="round" stroke-linejoin="round" stroke-miterlimit="10" d="
			M32.258,91.164c5.781,0,10.897,2.792,14.118,7.089c0.497-9.303,8.175-16.696,17.6-16.696c5.698,0,10.75,2.709,13.976,6.9
			c1.306-8.459,8.596-14.941,17.419-14.941c4.056,0,7.781,1.383,10.764,3.684C98.93,60.289,82.158,48.43,62.616,48.43
			c-26.115,0-47.286,21.171-47.286,47.285c0,2.283,0.171,4.528,0.484,6.725C18.372,95.846,24.762,91.164,32.258,91.164z"/>
	</g>
	
		<path display="inline" fill="none" stroke="#FF0000" stroke-width="5" stroke-linecap="round" stroke-linejoin="round" stroke-miterlimit="10" d="
		M75.816,50.308c-0.084-0.613-0.127-1.24-0.127-1.878c0-7.535,6.106-13.643,13.643-13.643c7.534,0,13.643,6.108,13.643,13.643
		c0,5.633-3.414,10.469-8.285,12.551"/>
	
		<line display="inline" fill="none" stroke="#FF0000" stroke-width="5" stroke-linecap="round" stroke-linejoin="round" stroke-miterlimit="10" x1="58.666" y1="82.375" x2="67.877" y2="112.5"/>
</g>
<g>
	<path fill="none" stroke="#FF0000" stroke-width="5" stroke-linecap="round" stroke-linejoin="round" stroke-miterlimit="10" d="
		M33.196,85.355c3.42-0.943,6.916,0.201,9.155,2.651c-0.03-4.028,2.621-7.734,6.688-8.854c3.42-0.942,6.916,0.199,9.155,2.649
		c-0.03-4.026,2.621-7.734,6.688-8.855c3.42-0.942,6.916,0.2,9.155,2.653c-0.03-4.029,2.62-7.736,6.688-8.857
		c3.42-0.941,6.915,0.201,9.155,2.653c-0.03-4.029,2.619-7.736,6.687-8.857c0.879-0.243,1.764-0.343,2.631-0.323
		c-9.928-11.877-26.212-17.556-42.106-13.177c-19.411,5.347-31.644,23.867-29.729,43.246C28.457,87.952,30.519,86.094,33.196,85.355
		z"/>
</g>
<line fill="none" stroke="#FF0000" stroke-width="5" stroke-linecap="round" stroke-linejoin="round" stroke-miterlimit="10" x1="64.171" y1="74.492" x2="81.715" y2="116.48"/>
</svg>
