<?xml version="1.0" encoding="utf-8"?>
<!-- Generator: Adobe Illustrator 16.0.0, SVG Export Plug-In . SVG Version: 6.00 Build 0)  -->
<!DOCTYPE svg PUBLIC "-//W3C//DTD SVG 1.1//EN" "http://www.w3.org/Graphics/SVG/1.1/DTD/svg11.dtd">
<svg version="1.1" id="Calque_1" xmlns="http://www.w3.org/2000/svg" xmlns:xlink="http://www.w3.org/1999/xlink" x="0px" y="0px"
	 width="128px" height="128px" viewBox="0 0 128 128" enable-background="new 0 0 128 128" xml:space="preserve">
<g>
	<path fill="none" stroke="#FF0000" stroke-width="5" stroke-linecap="round" stroke-linejoin="round" stroke-miterlimit="10" d="
		M63.714,3.794L52.338,13.22L36.085,6.719l12.026,24.38c0,0,3.25,3.249,15.603,3.249s15.602-3.249,15.602-3.249l12.026-24.38
		L75.09,13.22L63.714,3.794z"/>
	<path fill="none" stroke="#FF0000" stroke-width="5" stroke-linecap="round" stroke-linejoin="round" stroke-miterlimit="10" d="
		M48.112,31.099l-2.927,9.425c0,0,8.777,4.722,18.529,4.722c9.751,0,18.527-4.722,18.527-4.722l-2.925-9.425"/>
	<path fill="none" stroke="#FF0000" stroke-width="5" stroke-linecap="round" stroke-linejoin="round" stroke-miterlimit="10" d="
		M45.185,40.524c0,0-70.041,52.058-11.191,79.818c12.848,6.061,29.721,5.668,29.721,5.668s17.421,0.04,30.023-6.135
		c55.858-27.371-11.496-79.351-11.496-79.351"/>
</g>
<g>
	<path fill="#FF0000" d="M66.995,98.039h-8.967c-0.023-1.288-0.035-2.073-0.035-2.354c0-2.908,0.481-5.3,1.441-7.174
		c0.96-1.875,2.884-3.985,5.766-6.329c2.885-2.345,4.607-3.88,5.171-4.607c0.866-1.147,1.301-2.414,1.301-3.798
		c0-1.921-0.769-3.567-2.303-4.939c-1.537-1.371-3.604-2.058-6.207-2.058c-2.51,0-4.606,0.716-6.294,2.146
		c-1.689,1.431-2.849,3.61-3.482,6.541l-9.073-1.125c0.258-4.196,2.045-7.759,5.364-10.689c3.316-2.931,7.67-4.396,13.064-4.396
		c5.673,0,10.183,1.483,13.538,4.449c3.353,2.966,5.028,6.417,5.028,10.354c0,2.181-0.616,4.243-1.847,6.188
		c-1.229,1.946-3.86,4.596-7.895,7.947c-2.086,1.736-3.381,3.131-3.884,4.185C67.179,93.434,66.947,95.32,66.995,98.039z
		 M58.028,111.331v-9.88h9.882v9.88H58.028z"/>
</g>
</svg>
