<?xml version="1.0" encoding="utf-8"?>
<!-- Generator: Adobe Illustrator 16.0.0, SVG Export Plug-In . SVG Version: 6.00 Build 0)  -->
<!DOCTYPE svg PUBLIC "-//W3C//DTD SVG 1.1//EN" "http://www.w3.org/Graphics/SVG/1.1/DTD/svg11.dtd">
<svg version="1.1"
	 id="Layer_1" sodipodi:docname="iconTicket.svg" inkscape:version="1.0 (4035a4fb49, 2020-05-01)" xmlns:sodipodi="http://sodipodi.sourceforge.net/DTD/sodipodi-0.dtd" xmlns:svg="http://www.w3.org/2000/svg" xmlns:rdf="http://www.w3.org/1999/02/22-rdf-syntax-ns#" xmlns:inkscape="http://www.inkscape.org/namespaces/inkscape" xmlns:dc="http://purl.org/dc/elements/1.1/" xmlns:cc="http://creativecommons.org/ns#"
	 xmlns="http://www.w3.org/2000/svg" xmlns:xlink="http://www.w3.org/1999/xlink" x="0px" y="0px" width="128px" height="128px"
	 viewBox="0 0 128 128" enable-background="new 0 0 128 128" xml:space="preserve">
<sodipodi:namedview  inkscape:window-maximized="1" inkscape:window-height="1017" inkscape:pageshadow="2" inkscape:document-rotation="0" inkscape:window-x="-8" inkscape:current-layer="Layer_1" inkscape:window-y="-8" inkscape:snap-global="false" inkscape:window-width="1920" inkscape:pageopacity="0" inkscape:cy="24.881783" inkscape:cx="22.296444" gridtolerance="10" pagecolor="#ffffff" inkscape:zoom="14.75" guidetolerance="10" objecttolerance="10" showgrid="false" borderopacity="1" id="namedview27" bordercolor="#666666">
	</sodipodi:namedview>
<g id="Calque_3">
	<path fill="none" stroke="#FF0000" stroke-width="5" stroke-linecap="round" stroke-linejoin="round" stroke-miterlimit="10" d="
		M4,41.156v20.452c0,0,12.746-1.678,12.746,14.565C16.746,89.78,4,89.78,4,89.78v16.376h120V89.779c0,0-13.559-0.721-13.559-13.607
		c0-12.886,13.559-14.565,13.559-14.565V41.156H4z"/>
	<g>
		<g>
			
				<line fill="none" stroke="#FF0000" stroke-width="5" stroke-linecap="round" stroke-linejoin="round" stroke-dasharray="5,10" x1="86.961" y1="41.156" x2="86.961" y2="106.152"/>
		</g>
	</g>
</g>
<g id="Calque_3_1_">
	<path fill="none" stroke="#FF0000" stroke-width="5" stroke-linecap="round" stroke-linejoin="round" stroke-miterlimit="10" d="
		M108.934,34.319c-0.68-2.606,0.092-2.247,0.635-4.162c1.801-6.357,8.572-9.049,8.572-9.048l-4.66-17.87L8.627,30.587l1.176,4.51"/>
	<g>
		<g>
			
				<line fill="none" stroke="#FF0000" stroke-width="5" stroke-linecap="round" stroke-linejoin="round" stroke-dasharray="5,10" x1="81.116" y1="11.68" x2="88.805" y2="41.156"/>
		</g>
	</g>
</g>
</svg>
