<?xml version="1.0" encoding="utf-8"?>
<!-- Generator: Adobe Illustrator 16.0.0, SVG Export Plug-In . SVG Version: 6.00 Build 0)  -->
<!DOCTYPE svg PUBLIC "-//W3C//DTD SVG 1.1//EN" "http://www.w3.org/Graphics/SVG/1.1/DTD/svg11.dtd">
<svg version="1.1" id="Calque_1" xmlns="http://www.w3.org/2000/svg" xmlns:xlink="http://www.w3.org/1999/xlink" x="0px" y="0px"
	 width="128px" height="128px" viewBox="0 0 128 128" enable-background="new 0 0 128 128" xml:space="preserve">
<g id="Calque_2" display="none">
	
		<image display="inline" overflow="visible" enable-background="new    " width="601" height="351" xlink:href="B7CBD284.jpeg"  transform="matrix(0.9983 0 0 0.9972 -236.0005 -110)">
	</image>
</g>
<g>
	<g>
		<path fill="none" stroke="#FF0000" stroke-width="5" stroke-linecap="round" stroke-linejoin="round" stroke-miterlimit="10" d="
			M64.201,59.315v-7.334c0-2.613,2.14-4.751,4.752-4.751l0,0c2.613,0,4.75,2.138,4.75,4.751v4.154"/>
		<path fill="none" stroke="#FF0000" stroke-width="5" stroke-linecap="round" stroke-linejoin="round" stroke-miterlimit="10" d="
			M73.703,59.315v-3.18c0-2.285,1.869-4.154,4.154-4.154l0,0c2.285,0,4.154,1.87,4.154,4.154l-0.064,7.334
			c0-2.285,1.867-4.154,4.152-4.154l0,0c2.287,0,4.155,1.87,4.155,4.154c0,0,0.363,14.026-1.888,20.625
			c-2.25,6.599-4.199,11.999-4.199,11.999H59.12c0,0-11.849-11.699-16.798-15.898c-4.95-4.199-6.75-8.102-7.05-10.648
			c-0.299-2.551,2.85-3.301,4.649-3.301c1.799,0,3.379,1.722,9.45,7.793c6.071,6.068,5.33-3.178,5.33-3.178V36.658
			c0-2.613,2.138-4.751,4.75-4.751l0,0c2.612,0,4.75,2.138,4.75,4.751V51.98"/>
	</g>
</g>
<path fill="none" stroke="#FF0000" stroke-width="5" stroke-linecap="round" stroke-linejoin="round" stroke-miterlimit="10" d="
	M81.384,11.992c26.796,11.23,27.305,35.984,27.305,35.984v42.876l16.846,16.076v12.25H67.856h-3.27H6.911v-12.25l16.843-16.076
	V47.976c0,0,0.511-24.754,27.308-35.984C51.062,11.992,66.226,4.862,81.384,11.992z"/>
</svg>
