<?xml version="1.0" encoding="utf-8"?>
<!-- Generator: Adobe Illustrator 16.0.0, SVG Export Plug-In . SVG Version: 6.00 Build 0)  -->
<!DOCTYPE svg PUBLIC "-//W3C//DTD SVG 1.1//EN" "http://www.w3.org/Graphics/SVG/1.1/DTD/svg11.dtd">
<svg version="1.1" xmlns="http://www.w3.org/2000/svg" xmlns:xlink="http://www.w3.org/1999/xlink" x="0px" y="0px" width="128px"
	 height="128px" viewBox="0 0 128 128" enable-background="new 0 0 128 128" xml:space="preserve">
<g id="Calque_2">
</g>
<g id="Calque_3">
	<g>
		
			<polyline fill="none" stroke="#FF0000" stroke-width="5" stroke-linecap="round" stroke-linejoin="round" stroke-miterlimit="10" points="
			56.594,49.447 78.348,49.447 64.807,73.307 91.199,73.571 40.507,123.445 54.963,86.444 36.754,86.452 50.144,56.423 		"/>
		<path fill="none" stroke="#FF0000" stroke-width="5" stroke-linecap="round" stroke-linejoin="round" stroke-miterlimit="10" d="
			M95.308,80.888h10.712c10.141,0,18.437-7.189,18.437-15.976c0-6.799-4.971-12.62-11.911-14.918
			c0.495-2.089,0.756-4.25,0.756-6.462c0-17.648-16.509-31.954-36.873-31.954c-15.961,0-29.515,8.807-34.646,21.104
			c-2.406-0.869-5.044-1.354-7.813-1.354c-11.218,0-20.314,7.885-20.314,17.604c0,0.572,0.038,1.133,0.1,1.691
			C7.694,53.248,3.496,58.667,3.496,64.912c0,8.786,8.298,15.976,18.437,15.976h8.021"/>
	</g>
</g>
</svg>
