<?xml version="1.0" encoding="UTF-8" standalone="no"?>
<svg
   xmlns:dc="http://purl.org/dc/elements/1.1/"
   xmlns:cc="http://creativecommons.org/ns#"
   xmlns:rdf="http://www.w3.org/1999/02/22-rdf-syntax-ns#"
   xmlns:svg="http://www.w3.org/2000/svg"
   xmlns="http://www.w3.org/2000/svg"
   xmlns:sodipodi="http://sodipodi.sourceforge.net/DTD/sodipodi-0.dtd"
   xmlns:inkscape="http://www.inkscape.org/namespaces/inkscape"
   version="1.1"
   x="0px"
   y="0px"
   width="128px"
   height="128px"
   viewBox="0 0 128 128"
   enable-background="new 0 0 128 128"
   xml:space="preserve"
   id="svg10"
   sodipodi:docname="iconHistArchiveNo.svg"
   inkscape:version="1.0.1 (3bc2e813f5, 2020-09-07)"><metadata
   id="metadata16"><rdf:RDF><cc:Work
       rdf:about=""><dc:format>image/svg+xml</dc:format><dc:type
         rdf:resource="http://purl.org/dc/dcmitype/StillImage" /></cc:Work></rdf:RDF></metadata><defs
   id="defs14" /><sodipodi:namedview
   pagecolor="#ffffff"
   bordercolor="#666666"
   borderopacity="1"
   objecttolerance="10"
   gridtolerance="10"
   guidetolerance="10"
   inkscape:pageopacity="0"
   inkscape:pageshadow="2"
   inkscape:window-width="1920"
   inkscape:window-height="1017"
   id="namedview12"
   showgrid="false"
   inkscape:zoom="5.7421875"
   inkscape:cx="64"
   inkscape:cy="64"
   inkscape:window-x="-8"
   inkscape:window-y="-8"
   inkscape:window-maximized="1"
   inkscape:current-layer="svg10" />
<g
   id="Calque_2">
</g>
<g
   id="Calque_3">
	<path
   fill="none"
   stroke="#FF0000"
   stroke-width="5"
   stroke-miterlimit="10"
   d="M122.809,31.5c0,1.657-1.342,3-3,3h-112   c-1.657,0-3-1.343-3-3v-22c0-1.657,1.343-3,3-3h112c1.658,0,3,1.343,3,3V31.5z"
   id="path3" />
	<path
   fill="none"
   stroke="#FF0000"
   stroke-width="5"
   stroke-miterlimit="10"
   d="M113.476,114.167c0,1.657-1.344,3-3,3H17.142   c-1.657,0-3-1.343-3-3V37.5c0-1.657,1.343-3,3-3h93.334c1.656,0,3,1.343,3,3V114.167z"
   id="path5" />
	<path
   fill="none"
   stroke="#FF0000"
   stroke-width="5"
   stroke-miterlimit="10"
   d="M85.155,64.852c0,1.206-0.978,2.184-2.184,2.184   H44.645c-1.206,0-2.183-0.978-2.183-2.184v-9.218c0-1.206,0.978-2.183,2.183-2.183h38.327c1.206,0,2.184,0.978,2.184,2.183V64.852z   "
   id="path7" />
</g>
<path
   style="fill:#000000;fill-opacity:1;fill-rule:evenodd;stroke:#ff0000;stroke-width:5;stroke-linecap:round;stroke-linejoin:miter;stroke-miterlimit:4;stroke-dasharray:none;stroke-opacity:1"
   d="M 0.67421183,125.87612 127.15164,2.820481"
   id="path841" /><path
   style="fill:none;fill-rule:evenodd;stroke:#ff0000;stroke-width:5;stroke-linecap:round;stroke-linejoin:miter;stroke-opacity:1;stroke-miterlimit:4;stroke-dasharray:none"
   d="M 0.69659864,0.34829932 C 127.12925,127.6517 127.12925,127.6517 127.12925,127.6517"
   id="path843" /></svg>
