<?xml version="1.0" encoding="utf-8"?>
<!-- Generator: Adobe Illustrator 16.0.0, SVG Export Plug-In . SVG Version: 6.00 Build 0)  -->
<!DOCTYPE svg PUBLIC "-//W3C//DTD SVG 1.1//EN" "http://www.w3.org/Graphics/SVG/1.1/DTD/svg11.dtd">
<svg version="1.1" id="Calque_1" xmlns:serif="http://www.serif.com/"
	 xmlns="http://www.w3.org/2000/svg" xmlns:xlink="http://www.w3.org/1999/xlink" x="0px" y="0px" width="128px" height="128px"
	 viewBox="0 0 128 128" enable-background="new 0 0 128 128" xml:space="preserve">
<path fill="none" stroke="#FF0000" stroke-width="5" stroke-linecap="round" stroke-linejoin="round" stroke-miterlimit="10" d="
	M56.554,125.198c-28.08,0-50.927-22.849-50.927-50.925c0-28.083,22.847-50.928,50.927-50.928c28.083,0,50.928,22.846,50.928,50.928
	C107.48,102.35,84.637,125.198,56.554,125.198z"/>
<path fill="none" stroke="#FF0000" stroke-width="5" stroke-linecap="round" stroke-linejoin="round" stroke-miterlimit="10" d="
	M56.554,105.611c-17.281,0-31.343-14.062-31.343-31.344c0-17.283,14.063-31.344,31.343-31.344c17.281,0,31.342,14.062,31.342,31.344
	C87.895,91.555,73.835,105.611,56.554,105.611z"/>
<circle fill="#FF0000" cx="56.554" cy="74.274" r="9.984"/>
<path fill="none" stroke="#FF0000" stroke-width="5.1104" stroke-linecap="round" stroke-linejoin="round" stroke-miterlimit="10" d="
	M56.554,74.273l61.221-61.227"/>
<polygon fill="#FF0000" points="112.792,18.032 112.669,4.382 94.782,22.269 94.907,35.918 108.559,36.042 126.443,18.157 "/>
</svg>
