<?xml version="1.0" encoding="UTF-8" standalone="no"?>
<svg
   xmlns:dc="http://purl.org/dc/elements/1.1/"
   xmlns:cc="http://creativecommons.org/ns#"
   xmlns:rdf="http://www.w3.org/1999/02/22-rdf-syntax-ns#"
   xmlns:svg="http://www.w3.org/2000/svg"
   xmlns="http://www.w3.org/2000/svg"
   xmlns:sodipodi="http://sodipodi.sourceforge.net/DTD/sodipodi-0.dtd"
   xmlns:inkscape="http://www.inkscape.org/namespaces/inkscape"
   inkscape:version="1.0 (4035a4fb49, 2020-05-01)"
   sodipodi:docname="iconHome.svg"
   version="1.1"
   viewBox="0 0 128 128"
   id="Livello_1"
   data-name="Livello 1">
  <metadata
     id="metadata11">
    <rdf:RDF>
      <cc:Work
         rdf:about="">
        <dc:format>image/svg+xml</dc:format>
        <dc:type
           rdf:resource="http://purl.org/dc/dcmitype/StillImage" />
      </cc:Work>
    </rdf:RDF>
  </metadata>
  <defs
     id="defs9" />
  <sodipodi:namedview
     inkscape:current-layer="Livello_1"
     inkscape:window-maximized="0"
     inkscape:window-y="0"
     inkscape:window-x="0"
     inkscape:cy="41.675131"
     inkscape:cx="7.8240306"
     inkscape:zoom="2.8710938"
     showgrid="false"
     id="namedview7"
     inkscape:window-height="845"
     inkscape:window-width="1519"
     inkscape:pageshadow="2"
     inkscape:pageopacity="0"
     guidetolerance="10"
     gridtolerance="10"
     objecttolerance="10"
     borderopacity="1"
     bordercolor="#666666"
     pagecolor="#ffffff" />
  <title
     id="title2" />
  <path
     style="fill:#ff0000"
     id="path4"
     d="M127.12,60.22,115.46,48.56h0L69,2.05a7,7,0,0,0-9.9,0L12.57,48.53h0L.88,60.22a3,3,0,0,0,4.24,4.24l6.57-6.57V121a7,7,0,0,0,7,7H46a7,7,0,0,0,7-7V81a1,1,0,0,1,1-1H74a1,1,0,0,1,1,1v40a7,7,0,0,0,7,7h27.34a7,7,0,0,0,7-7V57.92l6.54,6.54a3,3,0,0,0,4.24-4.24ZM110.34,121a1,1,0,0,1-1,1H82a1,1,0,0,1-1-1V81a7,7,0,0,0-7-7H54a7,7,0,0,0-7,7v40a1,1,0,0,1-1,1H18.69a1,1,0,0,1-1-1V51.9L63.29,6.29a1,1,0,0,1,1.41,0l45.63,45.63Z" />
</svg>
