<?xml version="1.0" encoding="utf-8"?>
<!-- Generator: Adobe Illustrator 16.0.0, SVG Export Plug-In . SVG Version: 6.00 Build 0)  -->
<!DOCTYPE svg PUBLIC "-//W3C//DTD SVG 1.1//EN" "http://www.w3.org/Graphics/SVG/1.1/DTD/svg11.dtd">
<svg version="1.1" xmlns="http://www.w3.org/2000/svg" xmlns:xlink="http://www.w3.org/1999/xlink" x="0px" y="0px" width="128px"
	 height="128px" viewBox="0 0 128 128" enable-background="new 0 0 128 128" xml:space="preserve">
<g id="Calque_1" xmlns:serif="http://www.serif.com/" display="none">
	
		<path display="inline" fill="none" stroke="#FF0000" stroke-width="5.1104" stroke-linecap="round" stroke-linejoin="round" stroke-miterlimit="10" d="
		M56.554,125.198c-28.08,0-50.927-22.849-50.927-50.925c0-28.083,22.847-50.928,50.927-50.928c28.082,0,50.928,22.846,50.928,50.928
		C107.481,102.35,84.636,125.198,56.554,125.198z"/>
	
		<path display="inline" fill="none" stroke="#FF0000" stroke-width="4.2965" stroke-linecap="round" stroke-linejoin="round" stroke-miterlimit="10" d="
		M56.554,105.611c-17.281,0-31.343-14.06-31.343-31.344c0-17.281,14.063-31.342,31.343-31.342c17.281,0,31.343,14.062,31.343,31.342
		C87.894,91.555,73.835,105.611,56.554,105.611z"/>
	<circle display="inline" fill="#FF0000" cx="56.554" cy="74.274" r="9.984"/>
	
		<path display="inline" fill="none" stroke="#FF0000" stroke-width="5.1104" stroke-linecap="round" stroke-linejoin="round" stroke-miterlimit="10" d="
		M56.554,74.273l61.222-61.225"/>
	<polygon display="inline" fill="#FF0000" points="112.792,18.032 112.669,4.382 94.782,22.269 94.907,35.918 108.558,36.042 
		126.443,18.157 	"/>
</g>
<g id="Calque_2">
	
		<circle fill="none" stroke="#FF0000" stroke-width="5.1104" stroke-linecap="round" stroke-linejoin="round" stroke-miterlimit="10" cx="63.201" cy="60.917" r="8.516"/>
	<circle fill="#FF0000" cx="63.201" cy="60.917" r="8.516"/>
	
		<circle fill="none" stroke="#FF0000" stroke-width="11" stroke-linecap="round" stroke-linejoin="round" stroke-miterlimit="10" cx="63.201" cy="60.917" r="37.042"/>
	
		<circle fill="none" stroke="#FF0000" stroke-width="5.1104" stroke-linecap="round" stroke-linejoin="round" stroke-miterlimit="10" cx="63.201" cy="60.917" r="59.56"/>
	<path fill="#FF0000" d="M17.618,99.239c0,0-9.199,20.156-4.135,26.528c5.064,6.374,18.824-13.918,18.824-13.918"/>
	<path fill="#FF0000" d="M108.783,99.239c0,0,9.199,20.156,4.136,26.528c-5.064,6.374-18.824-13.918-18.824-13.918"/>
</g>
</svg>
