<?xml version="1.0" encoding="utf-8"?>
<!-- Generator: Adobe Illustrator 16.0.0, SVG Export Plug-In . SVG Version: 6.00 Build 0)  -->
<!DOCTYPE svg PUBLIC "-//W3C//DTD SVG 1.1//EN" "http://www.w3.org/Graphics/SVG/1.1/DTD/svg11.dtd">
<svg version="1.1" id="Calque_1" xmlns="http://www.w3.org/2000/svg" xmlns:xlink="http://www.w3.org/1999/xlink" x="0px" y="0px"
	 width="128px" height="128px" viewBox="0 0 128 128" enable-background="new 0 0 128 128" xml:space="preserve">
<path fill="none" stroke="#FF0000" stroke-width="5" stroke-linecap="round" stroke-linejoin="round" stroke-miterlimit="10" d="
	M83.271,32.373c0,5.844-1.455,11.245-3.918,15.62c-3.687,6.545-9.629,13.714-16.332,13.714c-6.593,0-12.451-7.032-16.147-13.396
	c-2.574-4.43-4.102-9.951-4.102-15.938c0-14.587,9.066-26.413,20.25-26.413C74.206,5.96,83.271,17.785,83.271,32.373z"/>
<path fill="none" stroke="#FF0000" stroke-width="5" stroke-linecap="round" stroke-linejoin="round" stroke-miterlimit="10" d="
	M64,123.768c-46.667,0-50.895-8.936-50.895-8.936s-5.705-34,30.629-43.5c0,0,5.86,9.936,20.146,9.936H64
	c14.285,0,20.146-9.936,20.146-9.936c36.334,9.5,30.63,43.5,30.63,43.5S110.667,123.768,64,123.768z"/>
</svg>
