<?xml version="1.0" encoding="utf-8"?>
<!-- Generator: Adobe Illustrator 16.0.0, SVG Export Plug-In . SVG Version: 6.00 Build 0)  -->
<!DOCTYPE svg PUBLIC "-//W3C//DTD SVG 1.1//EN" "http://www.w3.org/Graphics/SVG/1.1/DTD/svg11.dtd">
<svg version="1.1" id="Calque_1" xmlns="http://www.w3.org/2000/svg" xmlns:xlink="http://www.w3.org/1999/xlink" x="0px" y="0px"
	 width="128px" height="128px" viewBox="0 0 128 128" enable-background="new 0 0 128 128" xml:space="preserve">
<g id="Calque_1_1_">
</g>
<g>
	
		<circle fill="none" stroke="#FF0000" stroke-width="5" stroke-linecap="round" stroke-linejoin="round" stroke-miterlimit="10" cx="65.297" cy="67.434" r="57.999"/>
	<path fill="none" stroke="#FF0000" stroke-width="5" stroke-linecap="round" stroke-linejoin="round" stroke-miterlimit="10" d="
		M35.465,17.688c0,0-7.904,3.548-3.36,12.634c4.543,9.087,5.111,15.193,5.681,18.388c0.569,3.195-0.044,15.123-7.121,21.37
		c-7.08,6.247-9.535,18.743-9.535,18.743l-0.951,15.049"/>
	<path fill="none" stroke="#FF0000" stroke-width="5" stroke-linecap="round" stroke-linejoin="round" stroke-miterlimit="10" d="
		M94.016,17.035c0,0,1.146,4.918-9.516,9.465c-10.662,4.541-18.932,22.211-18.932,22.211s2.766,10.579,5.096,10.579
		c2.333,0,12.559,0.621,14.262,2.299c1.702,1.676,12.497,2.632,14.2,5.845c1.704,3.217,6.813,9.461,6.813,14.573
		c0,5.111,7.254,18.146,7.254,18.146"/>
	<path fill="none" stroke="#FF0000" stroke-width="5" stroke-linecap="round" stroke-linejoin="round" stroke-miterlimit="10" d="
		M51.762,123.257v-5.676c0,0-0.792-12.511-2.236-16.739c-1.445-4.227,3.1-10.541,3.1-10.541l9.134-7.708l6.533,5.213
		c0,0,7.773-1.944,7.773,4.302s2.799,12.527,2.235,13.097c-0.571,0.567,2.099-1.125,3.806,3.416
		c1.701,4.547,0.946,14.04,0.946,14.04"/>
</g>
</svg>
