<?xml version="1.0" encoding="utf-8"?>
<!-- Generator: Adobe Illustrator 16.0.0, SVG Export Plug-In . SVG Version: 6.00 Build 0)  -->
<!DOCTYPE svg PUBLIC "-//W3C//DTD SVG 1.1//EN" "http://www.w3.org/Graphics/SVG/1.1/DTD/svg11.dtd">
<svg version="1.1" id="Calque_1" xmlns="http://www.w3.org/2000/svg" xmlns:xlink="http://www.w3.org/1999/xlink" x="0px" y="0px"
	 width="128px" height="128px" viewBox="0 0 128 128" enable-background="new 0 0 128 128" xml:space="preserve">
<g id="Calque_2">
	<g>
		<g>
			
				<polygon fill="#FF0000" stroke="#FF0000" stroke-width="5" stroke-linecap="round" stroke-linejoin="round" stroke-miterlimit="10" points="
				50.417,68.463 87.667,58.482 77.686,95.734 			"/>
			
				<polygon fill="none" stroke="#FF0000" stroke-width="5" stroke-linecap="round" stroke-linejoin="round" stroke-miterlimit="10" points="
				77.582,95.837 40.332,105.816 50.313,68.565 			"/>
		</g>
	</g>
</g>
<g>
	<path fill="none" stroke="#FF0000" stroke-width="5" stroke-linecap="round" stroke-linejoin="round" stroke-miterlimit="10" d="
		M67.715,2.674L56.338,12.1L40.085,5.599l12.026,24.38c0,0,3.25,3.249,15.603,3.249c12.352,0,15.602-3.249,15.602-3.249
		l12.026-24.38L79.09,12.1L67.715,2.674z"/>
	<path fill="none" stroke="#FF0000" stroke-width="5" stroke-linecap="round" stroke-linejoin="round" stroke-miterlimit="10" d="
		M52.112,29.979l-2.927,9.425c0,0,8.777,4.722,18.53,4.722c9.751,0,18.526-4.722,18.526-4.722l-2.925-9.425"/>
	<path fill="none" stroke="#FF0000" stroke-width="5" stroke-linecap="round" stroke-linejoin="round" stroke-miterlimit="10" d="
		M49.185,39.404c0,0-70.041,52.058-11.191,79.818c12.848,6.061,29.721,5.668,29.721,5.668s17.421,0.04,30.022-6.135
		c55.858-27.371-11.496-79.351-11.496-79.351"/>
</g>
</svg>
