<?xml version="1.0" encoding="utf-8"?>
<!-- Generator: Adobe Illustrator 16.0.0, SVG Export Plug-In . SVG Version: 6.00 Build 0)  -->
<!DOCTYPE svg PUBLIC "-//W3C//DTD SVG 1.1//EN" "http://www.w3.org/Graphics/SVG/1.1/DTD/svg11.dtd">
<svg version="1.1" id="Calque_1" xmlns="http://www.w3.org/2000/svg" xmlns:xlink="http://www.w3.org/1999/xlink" x="0px" y="0px"
	 width="128px" height="128px" viewBox="0 0 128 128" enable-background="new 0 0 128 128" xml:space="preserve">
<g id="Calque_3_1_" display="none">
	<g id="Calque_3" display="inline">
		<g>
			<path fill="none" stroke="#FF0000" stroke-width="5" stroke-linecap="round" stroke-linejoin="round" stroke-miterlimit="10" d="
				M56.654,55.605c0,0.578-0.469,1.049-1.049,1.049H5.548c-0.579,0-1.048-0.471-1.048-1.049V5.548C4.5,4.969,4.969,4.5,5.548,4.5
				h50.058c0.58,0,1.049,0.469,1.049,1.048L56.654,55.605L56.654,55.605z"/>
			<circle fill="#FF0000" cx="16.424" cy="17.481" r="3.704"/>
			<line fill="none" stroke="#FF0000" stroke-width="4" stroke-miterlimit="10" x1="24.219" y1="17.48" x2="46.23" y2="17.48"/>
			<circle fill="#FF0000" cx="16.424" cy="30.577" r="3.704"/>
			<line fill="none" stroke="#FF0000" stroke-width="4" stroke-miterlimit="10" x1="24.219" y1="30.578" x2="46.23" y2="30.578"/>
			<circle fill="#FF0000" cx="16.424" cy="43.673" r="3.704"/>
			<line fill="none" stroke="#FF0000" stroke-width="4" stroke-miterlimit="10" x1="24.219" y1="43.672" x2="46.23" y2="43.672"/>
		</g>
	</g>
</g>
<g id="Calque_2_2_">
	
		<polygon fill="none" stroke="#FF0000" stroke-width="5" stroke-linecap="round" stroke-linejoin="round" stroke-miterlimit="10" points="
		7.422,29.74 7.422,95.585 64.425,121.631 119.953,93.128 119.953,33.173 63.688,5.659 	"/>
	
		<polyline fill="none" stroke="#FF0000" stroke-width="5" stroke-linecap="round" stroke-linejoin="round" stroke-miterlimit="10" points="
		23.5,37.405 63.688,53.813 63.688,106.529 	"/>
	
		<line fill="none" stroke="#FF0000" stroke-width="5" stroke-linecap="round" stroke-linejoin="round" stroke-miterlimit="10" x1="63.688" y1="53.813" x2="103.764" y2="38.304"/>
</g>
<g>
	<path fill="#FF0000" d="M104.467,83.621c0.036,0.515-0.13,1.043-0.491,1.574c-0.369,0.537-0.828,0.926-1.387,1.173l-16.163,7.156
		c-0.56,0.247-1.044,0.271-1.465,0.067c-0.412-0.207-0.635-0.568-0.672-1.086c-0.035-0.503,0.127-1.012,0.488-1.539
		c0.369-0.526,0.829-0.912,1.389-1.159l6.153-2.725l0.466-26.922l-6.063,2.685c-0.554,0.245-1.042,0.273-1.458,0.086
		c-0.414-0.188-0.64-0.543-0.676-1.058c-0.036-0.519,0.128-1.042,0.491-1.577c0.365-0.534,0.828-0.923,1.382-1.168l10.067-4.458
		l-0.205,30.641l4.009-1.775C100.327,83.537,104.313,81.428,104.467,83.621z"/>
</g>
</svg>
