<?xml version="1.0" encoding="utf-8"?>
<!-- Generator: Adobe Illustrator 16.0.0, SVG Export Plug-In . SVG Version: 6.00 Build 0)  -->
<!DOCTYPE svg PUBLIC "-//W3C//DTD SVG 1.1//EN" "http://www.w3.org/Graphics/SVG/1.1/DTD/svg11.dtd">
<svg version="1.1" id="Calque_1" xmlns="http://www.w3.org/2000/svg" xmlns:xlink="http://www.w3.org/1999/xlink" x="0px" y="0px"
	 width="128px" height="128px" viewBox="0 0 128 128" enable-background="new 0 0 128 128" xml:space="preserve">
<g id="Calque_2">
</g>
<g>
	
		<polyline fill="none" stroke="#FF0000" stroke-width="5" stroke-linecap="round" stroke-linejoin="round" stroke-miterlimit="10" points="
		73.403,69.717 89.978,69.717 79.66,87.896 99.77,88.099 61.147,126.099 72.161,97.905 58.287,97.913 68.489,75.032 	"/>
	<path fill="none" stroke="#FF0000" stroke-width="5" stroke-linecap="round" stroke-linejoin="round" stroke-miterlimit="10" d="
		M34.111,76.669c-0.749,1.482-1.166,3.116-1.166,4.832c0,6.694,6.323,12.173,14.047,12.173h6.111"/>
	<path fill="none" stroke="#FF0000" stroke-width="5" stroke-linecap="round" stroke-linejoin="round" stroke-miterlimit="10" d="
		M102.9,93.674h8.161c7.727,0,14.047-5.479,14.047-12.173c0-5.182-3.787-9.617-9.074-11.368c0.377-1.593,0.575-3.238,0.575-4.924
		c0-13.446-12.578-24.347-28.095-24.347c-5.141,0-9.955,1.199-14.095,3.292"/>
</g>
<path fill="#FF0000" d="M67.021,1.502H4.771c-1.657,0-3,1.344-3,3v62.25c0,1.657,1.343,3,3,3h62.25c1.658,0,3-1.343,3-3V4.502
	C70.021,2.846,68.679,1.502,67.021,1.502z M17.001,55.074c-2.768,0-5.012-2.242-5.012-5.01s2.244-5.01,5.012-5.01
	c2.766,0,5.01,2.242,5.01,5.01S19.767,55.074,17.001,55.074z M17.001,39.837c-2.768,0-5.012-2.243-5.012-5.01
	c0-2.768,2.244-5.011,5.012-5.011c2.766,0,5.01,2.243,5.01,5.011C22.011,37.594,19.767,39.837,17.001,39.837z M17.001,24.6
	c-2.768,0-5.012-2.244-5.012-5.01c0-2.768,2.244-5.012,5.012-5.012c2.766,0,5.01,2.244,5.01,5.012
	C22.011,22.355,19.767,24.6,17.001,24.6z M55.628,54.223H31.899c-2.305,0-4.174-1.87-4.174-4.176s1.869-4.176,4.174-4.176h23.729
	c2.305,0,4.174,1.87,4.174,4.176S57.933,54.223,55.628,54.223z M55.628,38.984H31.899c-2.305,0-4.174-1.869-4.174-4.176
	c0-2.305,1.869-4.175,4.174-4.175h23.729c2.305,0,4.174,1.87,4.174,4.175C59.802,37.115,57.933,38.984,55.628,38.984z
	 M55.628,23.746H31.899c-2.305,0-4.174-1.869-4.174-4.175s1.869-4.175,4.174-4.175h23.729c2.305,0,4.174,1.869,4.174,4.175
	S57.933,23.746,55.628,23.746z"/>
</svg>
