<?xml version="1.0" encoding="utf-8"?>
<!-- Generator: Adobe Illustrator 16.0.0, SVG Export Plug-In . SVG Version: 6.00 Build 0)  -->
<!DOCTYPE svg PUBLIC "-//W3C//DTD SVG 1.1//EN" "http://www.w3.org/Graphics/SVG/1.1/DTD/svg11.dtd">
<svg version="1.1" id="Calque_1" xmlns="http://www.w3.org/2000/svg" xmlns:xlink="http://www.w3.org/1999/xlink" x="0px" y="0px"
	 width="128px" height="128px" viewBox="0 0 128 128" enable-background="new 0 0 128 128" xml:space="preserve">
<g id="Calque_2" display="none">
</g>
<g>
	<path fill="none" stroke="#FF0000" stroke-width="5" stroke-linecap="round" stroke-linejoin="round" stroke-miterlimit="10" d="
		M64.681,97.637C77.877,83.984,87.775,67.568,93.75,49.682c-3.394-1.157-10.183-3.473-10.183-3.473l28.65-27.792l12.349,41.779
		c0,0-6.79-2.316-10.181-3.474c-5.507,22.123-19.961,43.769-37.526,60.308"/>
	<path fill="none" stroke="#FF0000" stroke-width="5" stroke-linecap="round" stroke-linejoin="round" stroke-miterlimit="10" d="
		M64.681,97.637C51.345,83.984,41.346,67.568,35.308,49.682c3.429-1.157,10.29-3.473,10.29-3.473L16.645,18.417L4.166,60.195
		c0,0,6.859-2.316,10.29-3.474c5.564,22.123,20.13,43.769,37.881,60.308"/>
</g>
</svg>
